<?xml version="1.0" standalone="no"?>
<!DOCTYPE svg PUBLIC "-//W3C//DTD SVG 1.1//EN" "http://www.w3.org/Graphics/SVG/1.1/DTD/svg11.dtd" >
<svg xmlns="http://www.w3.org/2000/svg">
<metadata></metadata>
<defs>
<font id="madrashairline" horiz-adv-x="930" >
<font-face units-per-em="2048" ascent="1628" descent="-420" />
<missing-glyph horiz-adv-x="488" />
<glyph unicode="&#xfb00;" horiz-adv-x="923" d="M13 1055v39h169v189q0 120 62 186.5t175 66.5q35 0 80 -10l-8 -36q-38 6 -73 6q-100 0 -147.5 -58t-46.5 -153v-191h398v209q0 120 62 186.5t175 66.5q35 0 80 -10l-8 -36q-37 6 -73 6q-100 0 -147.5 -58t-46.5 -153v-211h229v-39h-228v-1055h-43v1055h-397v-1055h-43 v1055h-169z" />
<glyph unicode="&#xfb01;" horiz-adv-x="844" d="M13 1055v39h169v209q0 120 62 186.5t175 66.5q35 0 80 -10l-8 -36q-38 6 -73 6q-100 0 -147.5 -58t-46.5 -153l1 -211h472v-1094h-43v1055h-429v-1055h-43v1055h-169zM616 1433q0 25 17.5 42.5t43.5 17.5t43.5 -17.5t17.5 -42.5t-17.5 -42.5t-43.5 -17.5t-43.5 17.5 t-17.5 42.5z" />
<glyph unicode="&#xfb02;" horiz-adv-x="895" d="M13 1055v39h169v100q0 177 65 269t191 92q143 0 204 -83t61 -278v-1002q0 -102 26 -132q30 -34 106 -34q4 0 55 3l4 -37q-30 -6 -58 -6q-57 0 -92.5 13t-53.5 42.5t-23.5 64.5t-5.5 92v996q0 84 -8.5 138.5t-32 99t-68.5 64.5t-115 20q-217 0 -213 -322l1 -100h228v-39 h-228v-1055h-43v1055h-169z" />
<glyph unicode="&#xfb03;" horiz-adv-x="1283" d="M13 1054v39h169v190q0 120 62 186.5t175 66.5q35 0 80 -10l-8 -36q-38 6 -73 6q-100 0 -147.5 -58t-45.5 -153v-192h397v210q0 120 62 186.5t175 66.5q35 0 80 -10l-8 -36q-37 6 -73 6q-100 0 -147.5 -58t-45.5 -153v-212h472v-1093h-43v1053h-429v-1053h-43v1053h-397 v-1053h-43v1054h-169zM1056 1433q0 -25 17.5 -42.5t43.5 -17.5t43.5 17.5t17.5 42.5t-17.5 42.5t-43.5 17.5t-43.5 -17.5t-17.5 -42.5z" />
<glyph unicode="&#xfb04;" horiz-adv-x="1334" d="M13 1055v39h169v189q0 120 62 186.5t175 66.5q35 0 80 -10l-8 -36q-38 6 -73 6q-100 0 -147.5 -58t-46.5 -153v-191h397v100q0 177 65 269t191 92q143 0 204 -83t61 -278v-1002q0 -102 26 -132q30 -34 106 -34q4 0 55 3l4 -37q-30 -6 -58 -6q-57 0 -92.5 13t-53.5 42.5 t-23.5 64.5t-5.5 92v996q0 84 -8.5 138.5t-32 99t-68.5 64.5t-115 20q-217 0 -213 -322v-100h229v-39h-228v-1055h-43v1055h-396v-1055h-43v1055h-169z" />
<glyph unicode="ft" horiz-adv-x="997" d="M13 1055v39h169v209q0 120 62 186.5t175 66.5q35 0 80 -10l-8 -36q-38 6 -73 6q-100 0 -147.5 -58t-46.5 -153l1 -211h425v232l43 16v-248h246v-39h-246v-841q0 -96 34.5 -141.5t136.5 -45.5q6 0 23.5 0.5t24.5 0.5l4 -38q-38 -4 -51 -4q-70 0 -114.5 16.5t-65.5 51 t-28 71.5t-7 94v836h-425v-1055h-43v1055h-169z" />
<glyph horiz-adv-x="0" />
<glyph horiz-adv-x="682" />
<glyph unicode=" "  horiz-adv-x="488" />
<glyph unicode="&#x09;" horiz-adv-x="488" />
<glyph unicode="&#xa0;" horiz-adv-x="488" />
<glyph unicode="!" horiz-adv-x="429" d="M143 43q0 32 19.5 50.5t51.5 18.5q29 0 50 -20.5t21 -48.5q0 -30 -20.5 -49.5t-50.5 -19.5q-31 0 -51 19t-20 50zM195 599v905h43v-906l-2 -169h-40z" />
<glyph unicode="&#x22;" horiz-adv-x="729" d="M169 1505h42l-1 -673h-40zM518 1505h42l-1 -673h-40z" />
<glyph unicode="#" horiz-adv-x="1292" d="M127 409v37h247v625h-247v38h247v396h41v-396h463v396h41v-396h246v-38h-246v-625h246v-37h-246v-409h-41v409h-463v-409h-41v409h-247zM415 446h463v625h-463v-625z" />
<glyph unicode="$" horiz-adv-x="1054" d="M101 173l34 25q71 -86 170.5 -130t208.5 -44q166 0 263.5 94.5t97.5 267.5q0 163 -120 251q-45 34 -121 65q-35 14 -95 35t-99.5 36t-91 38.5t-85 51.5t-64.5 66t-46 90.5t-15 117.5q0 172 94.5 278.5t262.5 108.5v200h43v-202q91 -8 171 -51.5t136 -116.5l-33 -25 q-61 73 -140.5 113t-168.5 40q-80 0 -143 -28.5t-101 -77t-58 -109.5t-20 -130q0 -109 50.5 -176.5t140.5 -112.5q50 -24 170 -65.5t176 -70.5q202 -100 202 -327q0 -180 -101 -288t-281 -115v-209h-43v209q-116 4 -220.5 53.5t-173.5 137.5z" />
<glyph unicode="%" horiz-adv-x="1855" d="M122 1078q0 120 28.5 217.5t93 161.5t156.5 64q68 0 122 -36.5t86.5 -99t49.5 -140.5t17 -166q0 -194 -71 -316.5t-209 -122.5q-89 0 -152.5 61.5t-92 158.5t-28.5 218zM167 1078q0 -79 13 -148t39.5 -125.5t71.5 -89.5t104 -33q62 0 108.5 31.5t73.5 87t39.5 125 t12.5 153.5q0 81 -13 151.5t-39 128.5t-71 91t-104 33q-79 0 -133.5 -59.5t-78 -148.5t-23.5 -197zM573 0l678 1502h46l-678 -1502h-46zM1181 411q0 120 28.5 217.5t93 161t156.5 63.5q90 0 154 -64t92 -161.5t28 -216.5q0 -126 -29 -222.5t-93 -156.5t-157 -60 q-89 0 -152.5 62t-92 159t-28.5 218zM1225 411q0 -108 22.5 -194.5t75.5 -144.5t131 -58q62 0 108.5 31.5t73.5 87t39.5 125t12.5 153.5q0 111 -21.5 198.5t-74.5 146.5t-132 59q-78 0 -133 -59.5t-78.5 -148t-23.5 -196.5z" />
<glyph unicode="&#x26;" horiz-adv-x="1189" d="M124 342q0 47 12.5 92.5t29.5 81.5t50 75.5t58 65.5t70 62t70.5 55t73.5 53q-8 11 -39 54.5t-41 59.5t-34.5 54.5t-34.5 62t-23.5 59t-18.5 69t-5 68.5q0 120 81.5 194t202.5 74q80 0 152.5 -37.5t120.5 -103.5l-32 -25q-100 126 -241 126q-103 0 -172.5 -63.5 t-69.5 -164.5q0 -48 12.5 -95t40.5 -98t47 -79.5t58 -84.5l423 -606q68 142 104 395l44 -11q-39 -254 -120 -423l177 -252h-53l-150 215q-93 -118 -190 -180t-228 -62q-159 0 -267 106.5t-108 262.5zM167 342q0 -136 98.5 -232.5t232.5 -96.5q117 0 210.5 61t183.5 177 q-139 199 -379 540q-44 -30 -69 -48t-67 -50.5t-66.5 -57.5t-55.5 -61.5t-47.5 -70t-28.5 -75.5t-12 -86z" />
<glyph unicode="'" horiz-adv-x="381" d="M167 1505h47l-6 -673h-34z" />
<glyph unicode="(" horiz-adv-x="517" d="M129 586q0 235 73 480.5t194 434.5l22 -17q-250 -456 -250 -898q0 -222 64 -418t179 -416l-22 -16q-124 204 -192 410.5t-68 439.5z" />
<glyph unicode=")" horiz-adv-x="517" d="M99 1484l22 17q121 -190 194 -435t73 -480q0 -233 -68 -440t-193 -410l-22 16q116 222 180 415.5t64 415.5q0 442 -250 901z" />
<glyph unicode="*" horiz-adv-x="636" d="M43 1299v26l257 -2l-143 268l27 15l137 -279l129 275l29 -16l-137 -262l254 1v-26l-253 4l141 -269l-33 -18l-130 280l-138 -279l-29 17l146 269z" />
<glyph unicode="+" horiz-adv-x="1057" d="M112 681v40h403v453h38v-453h392v-40h-392v-463h-38v463h-403z" />
<glyph unicode="," horiz-adv-x="359" d="M122 -199l66 398l42 -1l-68 -398z" />
<glyph unicode="-" horiz-adv-x="628" d="M103 700v40h422l-1 -40h-421z" />
<glyph unicode="." horiz-adv-x="370" d="M114 43q0 32 20 50.5t51 18.5q29 0 50 -20.5t21 -48.5q0 -30 -20.5 -49.5t-50.5 -19.5q-31 0 -51 19t-20 50z" />
<glyph unicode="/" horiz-adv-x="697" d="M52 -171l548 1781h45l-548 -1781h-45z" />
<glyph unicode="0" horiz-adv-x="1078" d="M98 742q0 74 5.5 145t19.5 150t36 147t57 131t80 107.5t108.5 71t139.5 26.5q83 0 151.5 -33t115 -91.5t80.5 -132t53 -162t27.5 -173t8.5 -173.5q0 -83 -8.5 -166t-27.5 -173t-53.5 -166.5t-81 -138.5t-116 -97.5t-153.5 -35.5q-78 0 -142.5 26.5t-109 71t-79 107.5 t-55.5 129.5t-34 144.5t-17.5 146t-4.5 139zM143 743q0 -106 10 -201.5t37.5 -193.5t70.5 -168.5t114.5 -115t164.5 -44.5q73 0 134.5 32.5t104 89.5t74 129t49.5 156t26.5 164t8.5 160q0 87 -8.5 169.5t-26 166t-48.5 152.5t-73 123.5t-103 85t-134 30.5q-92 0 -163.5 -46 t-115.5 -119t-72 -172.5t-39 -196.5t-11 -201z" />
<glyph unicode="1" horiz-adv-x="875" d="M87 1371l341 133h52v-1462h301v-42h-669v42h324v1421l-337 -133z" />
<glyph unicode="2" horiz-adv-x="1033" d="M111 0v19q0 128 42 237t109 186t148 144.5t162 126t148 117t109 131.5t42 156q0 166 -94 264.5t-259 98.5q-91 0 -179.5 -41.5t-150.5 -119.5l-32 26q61 82 158.5 129t204.5 47q181 0 288.5 -110t107.5 -292q0 -87 -42 -165.5t-109 -140t-148 -122t-162 -126.5 t-148 -138.5t-109 -171.5t-42 -213h746v-42h-790z" />
<glyph unicode="3" horiz-adv-x="1019" d="M89 169l27 24q128 -174 342 -174q195 0 308.5 104t113.5 290q0 92 -35.5 165.5t-92 116.5t-120 65.5t-127.5 22.5h-92v42h94q131 0 216.5 94t85.5 236q0 131 -94 227.5t-241 96.5q-198 0 -325 -155l-30 19q67 95 160.5 136.5t192.5 41.5q153 0 266.5 -104t113.5 -263 q0 -47 -11 -94t-36 -98.5t-76.5 -93.5t-122.5 -63q164 -47 240.5 -149.5t76.5 -237.5q0 -113 -38 -200t-104.5 -139t-149 -77.5t-177.5 -25.5q-108 0 -205 49.5t-160 143.5z" />
<glyph unicode="4" horiz-adv-x="1123" d="M36 364v56l740 1084h40v-1099h216v-41h-216v-364h-45v364h-735zM77 405h694v1025q-74 -110 -220 -327t-255.5 -378t-218.5 -316v-4z" />
<glyph unicode="5" horiz-adv-x="1068" d="M118 173l32 25q68 -90 165.5 -135.5t205.5 -45.5q111 0 198 62t132 160.5t45 211.5q0 170 -105.5 289.5t-267.5 119.5q-86 0 -158 -24t-156 -99l-54 26l46 741h657v-41h-618l-43 -677l9 -4q140 119 317 119q174 0 295 -129t121 -323q0 -200 -121.5 -337t-296.5 -137 q-117 0 -226.5 52t-176.5 146z" />
<glyph unicode="6" horiz-adv-x="1079" d="M114 607q0 81 4.5 159t18.5 172t35.5 174t59 158t87 132t121 87.5t158.5 33.5q80 0 155 -32t130 -92l-32 -25q-58 57 -126 82.5t-126 25.5q-87 0 -157.5 -39t-117.5 -108t-80.5 -153.5t-51.5 -186.5t-26 -195.5t-8 -190.5l1 -78h2q21 90 62 158t85.5 105t98 60.5t93 30 t77.5 6.5q185 0 299 -117t114 -334q0 -215 -117.5 -340t-308.5 -125q-93 0 -169 34t-127.5 92.5t-86.5 139t-51 172t-16 194.5zM182 462q7 -200 111 -322.5t269 -122.5q181 0 282 114t101 308q0 193 -94 302t-275 109q-155 0 -258.5 -100.5t-135.5 -287.5z" />
<glyph unicode="7" horiz-adv-x="945" d="M76 1464v40h799v-53q-116 -185 -199.5 -339t-164 -341t-125.5 -381t-52 -390h-45q10 203 56 402t124 383.5t166 344.5t203 334h-762z" />
<glyph unicode="8" horiz-adv-x="1146" d="M112 387q0 49 10.5 99t38.5 106t71 98.5t115 71.5t162 31q-79 9 -140.5 38t-97 66t-58.5 84.5t-31 88.5t-8 83q0 158 105 262.5t296 104.5q192 0 295.5 -103t103.5 -260q0 -40 -9 -82t-33 -89.5t-60 -86t-96 -67t-135 -36.5q83 -2 152 -30t112.5 -71t73.5 -97t42.5 -106 t12.5 -100q0 -195 -121 -305.5t-338 -110.5t-340 111t-123 300zM157 387q0 -169 109 -271t309 -102t308.5 101.5t108.5 273.5q0 165 -114 275t-305 110q-192 0 -304 -109t-112 -278zM216 1155q0 -122 69.5 -211t190.5 -116q56 -15 99 -15q44 0 104 15q116 32 185 123.5 t69 205.5q0 63 -20 118.5t-61 102.5t-112.5 74.5t-164.5 27.5q-94 0 -165.5 -29t-112.5 -77t-61 -103.5t-20 -115.5z" />
<glyph unicode="9" horiz-adv-x="1077" d="M89 1050q0 219 121 346t309 127q87 0 160 -32t124.5 -89.5t87.5 -137t53.5 -174.5t17.5 -202q0 -912 -490 -912q-167 0 -280 122l30 23q110 -103 254 -103q77 0 141.5 28.5t109 76t79.5 116t55.5 141.5t33.5 160t18 165t5 162l-1 79h-1q-27 -79 -68 -140.5t-84.5 -98 t-94 -60t-94 -32t-86.5 -8.5q-174 0 -287 121t-113 322zM130 1053q0 -183 99 -292.5t267 -109.5q80 0 152 35t122 91t83.5 121t47.5 131q-3 123 -47.5 224.5t-133 165t-203.5 63.5q-119 0 -208 -58.5t-134 -155t-45 -215.5z" />
<glyph unicode=":" horiz-adv-x="370" d="M114 43q0 32 20 50.5t51 18.5q29 0 50 -20.5t21 -48.5q0 -30 -20.5 -49.5t-50.5 -19.5q-31 0 -51 19t-20 50zM114 913q0 32 20 50.5t51 18.5q29 0 50 -20.5t21 -48.5q0 -30 -20.5 -49.5t-50.5 -19.5q-31 0 -51 19t-20 50z" />
<glyph unicode=";" horiz-adv-x="378" d="M108 -199l66 398l42 -1l-68 -398zM122 913q0 32 20 50.5t51 18.5q29 0 50 -20.5t21 -48.5q0 -30 -20.5 -49.5t-50.5 -19.5q-31 0 -51 19t-20 50z" />
<glyph unicode="&#x3c;" horiz-adv-x="778" d="M116 670v37l521 481v-59l-476 -443l476 -439v-57z" />
<glyph unicode="=" horiz-adv-x="1139" d="M165 434v40h809v-40h-809zM165 917v39h809v-39h-809z" />
<glyph unicode="&#x3e;" horiz-adv-x="778" d="M141 190v57l476 439l-476 443v59l521 -481v-37z" />
<glyph unicode="?" horiz-adv-x="823" d="M89 1383q49 66 123 103.5t155 37.5q144 0 231.5 -80.5t87.5 -225.5q0 -68 -29 -134t-72.5 -123t-87.5 -115t-80 -134t-45 -156q-2 -20 -2 -152h-43v118q0 82 32.5 163.5t79 147t93 128t79 129.5t32.5 127q0 126 -75.5 196.5t-200.5 70.5q-67 0 -135 -32.5t-114 -89.5z M279 43q0 32 19.5 50.5t51.5 18.5q28 0 49.5 -20.5t21.5 -48.5q0 -30 -20.5 -49.5t-50.5 -19.5q-32 0 -51.5 19t-19.5 50z" />
<glyph unicode="@" horiz-adv-x="1604" d="M116 743q0 158 44.5 296t127.5 244t214 167.5t293 61.5q169 0 302 -57t218 -159t129 -240t44 -303q0 -54 -9 -107t-30.5 -105.5t-53 -92t-80.5 -64t-108 -24.5q-82 0 -132.5 50t-52.5 132l-4 1q-41 -79 -125.5 -136t-170.5 -57q-103 0 -166.5 65.5t-63.5 169.5 q0 55 19.5 98t46 70t74.5 46.5t85.5 29t99 14.5t94 5.5t91.5 0.5h10v53q0 68 -9 112t-32.5 77.5t-67.5 48t-113 14.5q-94 0 -198 -64l-20 29q45 33 105 53t114 20q39 0 71 -4t56.5 -13.5t44 -19.5t34 -28.5t24.5 -33.5t16.5 -42t10.5 -47t5.5 -54t2 -57.5t0.5 -63.5v-283 q0 -69 41.5 -108t110.5 -39q62 0 110 34.5t74.5 90t39.5 114t13 115.5q0 156 -40 286t-119 228t-204.5 153t-287.5 55q-154 0 -276.5 -59t-200 -160.5t-118 -232.5t-40.5 -280q0 -159 37.5 -289t113.5 -228t198.5 -151.5t284.5 -53.5q171 0 275 63l22 -28q-101 -71 -298 -71 q-173 0 -304 55.5t-211.5 158t-120.5 239t-40 305.5zM536 588q0 -91 52.5 -145.5t142.5 -54.5q87 0 160.5 57t121.5 142v223q-174 -1 -250 -15q-226 -41 -227 -207z" />
<glyph unicode="A" horiz-adv-x="1118" d="M11 0l511 1504h64l523 -1504h-48l-149 435h-706l-147 -435h-48zM220 477l677 -1l-341 984h-2z" />
<glyph unicode="B" horiz-adv-x="1182" d="M180 0v1504h409q182 0 287.5 -95t105.5 -286q0 -42 -10.5 -87t-33.5 -95t-69 -90.5t-109 -60.5q72 -7 129.5 -34t94.5 -64.5t61.5 -86t34.5 -96.5t10 -97q0 -220 -105 -316t-329 -96h-476zM224 42h431q75 0 132.5 10t107.5 35.5t82.5 67t50.5 106t18 150.5 q0 164 -104 259t-265 95h-453v-723zM224 807h424q129 0 209 88t80 229q0 158 -87.5 248.5t-260.5 90.5h-365v-656z" />
<glyph unicode="C" horiz-adv-x="1143" d="M114 742q0 166 34.5 307t100.5 247.5t170.5 166.5t236.5 60q96 0 197.5 -48.5t176.5 -150.5l-31 -24q-76 96 -166.5 139t-178.5 43q-100 0 -182.5 -39.5t-140 -108t-97 -162.5t-58 -202t-18.5 -228q0 -204 57.5 -366.5t171.5 -260.5t268 -98q226 0 373 195l33 -25 q-72 -105 -181 -158t-224 -53q-130 0 -234.5 61t-171 167t-101.5 243.5t-35 294.5z" />
<glyph unicode="D" horiz-adv-x="1268" d="M180 0v1504h266q173 0 304.5 -42t229.5 -132.5t148.5 -241.5t50.5 -359q0 -211 -77 -377t-217 -259t-319 -93h-386zM224 42h344q116 0 219 47.5t180.5 134t122.5 217t45 288.5q0 366 -166.5 550t-523.5 184h-221v-1421z" />
<glyph unicode="E" horiz-adv-x="1070" d="M180 0v1504h789l-2 -42h-743v-673h646l-2 -42h-644v-705h754l-2 -42h-796z" />
<glyph unicode="F" horiz-adv-x="1003" d="M180 0v1504h765l-2 -42h-719v-687h650l-2 -41h-648v-734h-44z" />
<glyph unicode="G" horiz-adv-x="1268" d="M116 751q0 100 13.5 192.5t40.5 180t72.5 159.5t105.5 126t143 84t182 30q113 0 220 -54t181 -163l-31 -25q-76 102 -173 152t-197 50q-112 0 -201.5 -44t-146.5 -115.5t-95.5 -168.5t-54 -196.5t-15.5 -206.5q0 -128 17 -236.5t55.5 -201.5t96 -158t142 -101.5 t191.5 -36.5q79 0 144.5 24t117 72t88.5 98.5t78 124.5v298h-313v42h359v-677h-45v257q-48 -86 -102 -144t-110.5 -86.5t-107.5 -39.5t-110 -11q-114 0 -205.5 37.5t-154.5 105.5t-105 165t-61 213t-19 254z" />
<glyph unicode="H" horiz-adv-x="1245" d="M180 0v1504h44v-711h796v711h45v-1504h-45v751h-796v-751h-44z" />
<glyph unicode="I" horiz-adv-x="404" d="M180 0v1504h44v-1504h-44z" />
<glyph unicode="J" horiz-adv-x="739" d="M0 -7l7 41q78 -14 167 -14q191 0 274 97t83 335v1052h46l1 -1047q0 -256 -93.5 -368.5t-314.5 -112.5q-65 0 -170 17z" />
<glyph unicode="K" horiz-adv-x="1069" d="M180 0v1504h44v-850l715 850h57l-494 -588l564 -916h-51l-543 881l-248 -295v-586h-44z" />
<glyph unicode="L" horiz-adv-x="993" d="M180 0v1504h44v-1463h710l-2 -41h-752z" />
<glyph unicode="M" horiz-adv-x="1496" d="M180 0v1504h52l518 -1100l518 1100h48v-1504h-44v1394v18l-7 -17l-501 -1063h-29l-503 1066l-8 20v-21v-1397h-44z" />
<glyph unicode="N" horiz-adv-x="1260" d="M180 0v1504h49l807 -1424v1424h44v-1504h-49l-807 1424v-1424h-44z" />
<glyph unicode="O" horiz-adv-x="1272" d="M114 760q0 149 34.5 284.5t98.5 243t165 171.5t224 64q122 0 221.5 -59.5t164.5 -163t100.5 -242t35.5 -298.5q0 -112 -15.5 -217.5t-54 -210t-96 -182.5t-149 -126t-206.5 -48q-111 0 -201 45t-149 119.5t-99 177t-57 212.5t-17 230zM158 760q0 -63 5.5 -127.5 t20.5 -139t38 -140.5t60.5 -128.5t86 -107.5t117.5 -72t151 -27q87 0 159.5 31t120.5 80.5t85 118t57.5 135.5t33.5 142t17 129.5t4 104.5q0 84 -12.5 173t-46.5 189.5t-85.5 178t-138 129t-195.5 51.5q-91 0 -167 -37t-126.5 -100t-88 -138t-57.5 -158.5t-29.5 -154.5 t-9.5 -132z" />
<glyph unicode="P" horiz-adv-x="1063" d="M180 0v1504h362q90 0 164 -23.5t133.5 -73.5t93 -136.5t33.5 -204.5q0 -195 -111 -305t-302 -110h-329v-651h-44zM224 692h327q60 0 113 12t100.5 40t82 70.5t54.5 107.5t20 146q0 198 -97 296t-284 98h-316v-770z" />
<glyph unicode="Q" horiz-adv-x="1272" d="M114 760q0 149 34.5 285t98.5 243t165 171t224 64q122 0 221.5 -59.5t164.5 -163t100.5 -242t35.5 -298.5q0 -185 -45 -355t-142 -281l143 -256l-37 -28l-139 250q-124 -114 -301 -114q-111 0 -201 45t-149 119.5t-99 177t-57 212.5t-17 230zM158 760q0 -63 5.5 -127.5 t20.5 -139t38 -140.5t60.5 -128.5t86 -107.5t117.5 -72t151 -27q169 0 280 111l-175 315l36 27l171 -306q65 80 104.5 203.5t50 214.5t10.5 176q0 84 -12.5 173t-46.5 189.5t-85.5 178t-138 129t-195.5 51.5q-91 0 -167 -37t-126.5 -100t-88 -138t-57.5 -158.5t-29.5 -154.5 t-9.5 -132z" />
<glyph unicode="R" horiz-adv-x="1067" d="M180 0v1504h396q96 0 171 -23.5t132 -73.5t87 -133.5t30 -197.5q0 -151 -87.5 -256.5t-250.5 -140.5l395 -679h-51l-393 676h-385v-676h-44zM224 718h363q90 0 173 43q85 44 139 123.5t54 190.5q0 387 -378 387h-351v-744z" />
<glyph unicode="S" horiz-adv-x="956" d="M61 167l34 25q71 -86 170.5 -130.5t208.5 -44.5q166 0 263.5 95t97.5 267q0 163 -120 250q-45 34 -121 65q-33 13 -83.5 31t-86.5 30.5t-82 32.5t-78.5 39.5t-65.5 49.5t-53.5 64.5t-33.5 82t-13 104.5q0 174 96.5 284.5t267.5 110.5q101 0 191 -44.5t152 -124.5l-33 -25 q-61 73 -140.5 113t-168.5 40q-106 0 -180.5 -50.5t-108 -128.5t-33.5 -175q0 -109 50.5 -176t140.5 -112q50 -24 170 -65.5t176 -70.5q202 -100 202 -326q0 -185 -108 -293.5t-298 -108.5q-121 0 -231 49.5t-182 141.5z" />
<glyph unicode="T" horiz-adv-x="917" d="M32 1463v41h853v-41h-400v-1463h-44v1463h-409z" />
<glyph unicode="U" horiz-adv-x="1220" d="M160 517v987h44v-988q0 -84 10 -152.5t37 -134.5t70.5 -111t115.5 -72.5t167 -27.5q75 0 135.5 15t102.5 41t73.5 64.5t50 80t30 94t15.5 100t4 104.5l1 987h44v-988q0 -96 -13 -174.5t-45 -148t-83 -116.5t-130.5 -74t-184.5 -27q-103 0 -182 29t-128 77t-79.5 119 t-42.5 147t-12 169z" />
<glyph unicode="V" horiz-adv-x="1014" d="M7 1504h50l449 -1459h4l450 1459h48l-466 -1504h-69z" />
<glyph unicode="W" horiz-adv-x="1510" d="M9 1504h46l343 -1454h2l325 1454h69l312 -1455h3l343 1455h48l-356 -1504h-75l-308 1453h-3l-323 -1453h-71z" />
<glyph unicode="X" horiz-adv-x="957" d="M4 0l447 797l-405 707h52l379 -663l372 663h52l-400 -708l454 -796h-51l-428 754l-421 -754h-51z" />
<glyph unicode="Y" horiz-adv-x="960" d="M12 1504h51l420 -851l415 851h50l-444 -908v-596h-44v601z" />
<glyph unicode="Z" horiz-adv-x="1084" d="M102 0v39l827 1423h-789l2 42h841v-37q-41 -71 -408.5 -702t-420.5 -723h843l-2 -42h-893z" />
<glyph unicode="[" horiz-adv-x="645" d="M196 -276v1780h320v-38h-277v-1705h277v-37h-320z" />
<glyph unicode="\" horiz-adv-x="696" d="M52 1610h44l548 -1781h-44z" />
<glyph unicode="]" horiz-adv-x="644" d="M129 -239h276v1705h-276v38h319v-1780h-319v37z" />
<glyph unicode="^" horiz-adv-x="980" d="M95 887l366 591h58l366 -591h-47l-348 562l-348 -562h-47z" />
<glyph unicode="_" horiz-adv-x="957" d="M-3 -206h963v-41h-963v41z" />
<glyph unicode="`" horiz-adv-x="250" d="M-55 1559h52l198 -323h-48z" />
<glyph unicode="a" d="M79 284q0 87 36 153t91 104.5t131.5 62.5t146 32t145.5 8h110q0 94 -6.5 157t-23.5 116.5t-48.5 83.5t-81 46.5t-121.5 16.5q-126 0 -255 -86l-22 30q64 49 140.5 72.5t136.5 23.5q65 0 114 -12t83.5 -32t58 -57.5t37 -75t20.5 -100t9 -117.5t2 -141v-418q0 -96 38 -116 q13 -6 52 -6h21v-36q-23 -5 -45 -5h-6q-103 0 -103 156v69h-2q-36 -68 -86 -117.5t-101 -73.5t-93 -34.5t-78 -10.5q-137 0 -218.5 84t-81.5 223zM123 284q0 -122 68.5 -194.5t186.5 -72.5q114 0 207.5 72t151.5 185l2 329h-99q-45 0 -85.5 -2t-94.5 -10t-98.5 -21.5 t-90.5 -38t-77 -57t-51 -81.5t-20 -109z" />
<glyph unicode="b" horiz-adv-x="1066" d="M147 0v1515l42 16v-711q75 133 178 209.5t211 76.5q89 0 159.5 -35.5t114 -91.5t72 -132t40 -151t11.5 -155q0 -79 -14 -156.5t-45.5 -152t-76.5 -131t-113.5 -91t-151.5 -34.5q-127 0 -214.5 71t-170.5 224v-271h-42zM189 353q152 -336 384 -336q75 0 137 34t102 88.5 t67.5 124.5t39.5 140t12 138q0 74 -10 144t-35.5 140t-64.5 122t-102 84.5t-143 32.5q-117 0 -217 -87.5t-170 -221.5v-403z" />
<glyph unicode="c" horiz-adv-x="861" d="M90 531q0 164 45 291.5t140 204.5t228 77q76 0 150.5 -37.5t128.5 -115.5l-28 -22q-55 70 -122.5 102t-128.5 32q-93 0 -165.5 -44t-115.5 -120t-64.5 -169t-21.5 -198q0 -231 95.5 -372.5t274.5 -141.5q64 0 134 34.5t122 105.5l32 -24q-54 -80 -131 -119t-157 -39 q-202 0 -309 152t-107 403z" />
<glyph unicode="d" horiz-adv-x="1067" d="M89 512q0 79 13.5 158t45 158t78 139.5t119 98t160.5 37.5q108 0 213 -74t162 -192v678l43 16v-1531h-43v265q-74 -151 -171 -220.5t-222 -69.5q-86 0 -155.5 34t-113.5 88.5t-74 126.5t-42.5 144t-12.5 144zM134 512q0 -92 21 -177.5t62.5 -158t112.5 -116t162 -43.5 q71 0 130 24.5t105.5 73t81 102t71.5 129.5v420q-52 119 -157.5 208.5t-219.5 89.5q-77 0 -140.5 -35.5t-105 -92t-70 -130t-41 -147.5t-12.5 -147z" />
<glyph unicode="e" horiz-adv-x="951" d="M89 517q0 279 109 433t292 154q122 0 207 -69.5t124 -185.5t39 -269v-35h-727q-1 -22 -1 -42q0 -211 83 -343q91 -144 269 -144q101 0 173.5 37t128.5 115l30 -22q-55 -84 -135.5 -126.5t-201.5 -42.5q-101 0 -178 44.5t-122 121.5t-67.5 171t-22.5 203zM134 587h684 q0 94 -17.5 176t-54.5 151t-102.5 109t-152.5 40q-73 0 -133.5 -28.5t-100.5 -75t-67.5 -109.5t-40.5 -128.5t-15 -134.5z" />
<glyph unicode="f" horiz-adv-x="483" d="M13 1055v39h169v209q0 120 62 186.5t175 66.5q35 0 80 -10l-8 -36q-38 6 -73 6q-100 0 -147.5 -58t-46.5 -153l1 -211h228v-39h-228v-1055h-43v1055h-169z" />
<glyph unicode="g" horiz-adv-x="1053" d="M89 535q0 83 12 160.5t41.5 153t73.5 131.5t114 90.5t158 34.5q117 0 219.5 -77.5t164.5 -211.5v278h41v-920q0 -56 -2 -100.5t-7 -96.5t-14.5 -93t-25 -84.5t-37 -75.5t-52.5 -61.5t-69.5 -48.5t-89.5 -30t-111 -11q-212 0 -330 121l24 25q121 -104 307 -104 q79 0 139.5 22.5t99.5 60t65 93t38 114.5t16 132q6 107 6 256q-56 -138 -159 -223.5t-230 -85.5q-83 0 -151 32t-112 85.5t-73.5 125.5t-42.5 148.5t-13 159.5zM132 537q0 -96 19.5 -183t59.5 -162.5t111.5 -120.5t165.5 -45q55 0 107 20.5t93 54.5t77 80.5t62 95t45 101.5 v365q-24 59 -60 113.5t-84 102.5t-109.5 76.5t-126.5 28.5q-78 0 -140.5 -30t-103 -80t-67.5 -119t-38 -142.5t-11 -155.5z" />
<glyph unicode="h" horiz-adv-x="1012" d="M147 0v1515l43 16v-741q73 164 173 239t208 75q303 0 303 -412v-692h-43v693q0 372 -261 372q-58 0 -110.5 -22.5t-90.5 -56t-74 -83.5t-58 -92t-46 -94v-717h-44z" />
<glyph unicode="i" horiz-adv-x="376" d="M60 1052v42h170v-1094h-43v1052h-127zM148 1433q0 25 17.5 42.5t43.5 17.5t43.5 -17.5t17.5 -42.5t-17.5 -42.5t-43.5 -17.5t-43.5 17.5t-17.5 42.5z" />
<glyph unicode="j" horiz-adv-x="390" d="M-16 -421l4 36q36 -2 50 -2q53 0 88 16t51 45t21.5 55.5t5.5 60.5v1262h-126v42h169v-1304q0 -100 -48 -158.5t-146 -58.5q-36 0 -69 6zM162 1433q0 25 18 42.5t43 17.5q26 0 43.5 -17.5t17.5 -42.5t-17.5 -42.5t-43.5 -17.5q-25 0 -43 17.5t-18 42.5z" />
<glyph unicode="k" horiz-adv-x="825" d="M147 0v1516l43 17v-1070l528 631h54l-332 -399l379 -695h-50l-358 662l-221 -265v-397h-43z" />
<glyph unicode="l" horiz-adv-x="369" d="M135 198v1317l43 16v-1339q0 -100 26 -132q30 -34 106 -34q6 0 54 3l5 -37q-30 -6 -58 -6q-57 0 -92.5 13t-53.5 42.5t-24 64.5t-6 92z" />
<glyph unicode="m" horiz-adv-x="1659" d="M147 0v1094h42v-257h4q48 124 152.5 196.5t206.5 72.5q65 0 122 -24t104 -84t62 -150v-7q36 85 100 147t133 90t137 28q168 0 239.5 -104t71.5 -307v-695h-43v696q0 49 -4 89.5t-13.5 85t-29 78t-48 61t-73 42t-100.5 14.5q-99 0 -182 -53t-126.5 -129.5t-43.5 -153.5 v-730h-43v706q0 69 -13 129.5t-42 114.5t-82.5 85.5t-125.5 31.5q-71 0 -138 -34.5t-113.5 -87.5t-76.5 -113t-35 -113v-719h-42z" />
<glyph unicode="n" horiz-adv-x="1010" d="M147 0v1094h43v-296q73 163 172 235.5t207 72.5q303 0 303 -406v-700h-43v701q0 365 -261 365q-58 0 -110 -22t-90.5 -54.5t-74 -81t-58.5 -90.5t-46 -93v-725h-42z" />
<glyph unicode="o" horiz-adv-x="989" d="M90 542q0 81 15 159.5t48 152t80 129.5t116 89.5t152 33.5q85 0 154 -33.5t113.5 -88t74.5 -128.5t42.5 -152t12.5 -161q0 -114 -25 -214.5t-73.5 -180t-126.5 -126t-177 -46.5q-100 0 -179.5 47.5t-128 127.5t-73.5 180t-25 211zM133 543q0 -102 22 -194t64.5 -167 t114 -119.5t161.5 -44.5q94 0 165.5 46.5t112.5 124t61 166.5t20 186q0 59 -7 116.5t-22.5 118t-43 111t-65 91.5t-93 64t-122.5 23q-79 0 -143.5 -35t-105.5 -89.5t-68.5 -125.5t-39 -139t-11.5 -133z" />
<glyph unicode="p" horiz-adv-x="1066" d="M147 -437v1531h43v-271q78 134 180.5 208t210.5 74q89 0 159 -34.5t113 -90t71.5 -130.5t39.5 -149.5t11 -154.5q0 -79 -14 -157t-45.5 -153t-77 -132.5t-114 -92.5t-150.5 -35q-128 0 -214.5 70.5t-170.5 229.5v-696zM189 358q155 -343 384 -343q75 0 137 35t102 90.5 t68 127t40 141.5t12 137q0 74 -10 143t-35.5 138.5t-64 121t-101 84t-141.5 32.5q-117 0 -219.5 -88.5t-171.5 -221.5v-397z" />
<glyph unicode="q" horiz-adv-x="1061" d="M89 517q0 79 13 158t44.5 157.5t77.5 138.5t118.5 97.5t160.5 37.5q109 0 213.5 -73.5t161.5 -191.5v253h43v-1515l-43 -16v692q-66 -129 -165 -203.5t-228 -74.5q-86 0 -155 32.5t-113.5 85.5t-74 124.5t-41.5 145.5t-12 152zM131 519q0 -101 21 -189t63 -159.5 t112.5 -113t162.5 -41.5q235 0 388 313v437q-53 126 -153.5 213t-223.5 87q-81 0 -146 -36t-106 -93t-68.5 -131t-38.5 -145.5t-11 -141.5z" />
<glyph unicode="r" horiz-adv-x="569" d="M142 0v1094h43v-308q27 65 56.5 117t55.5 85t56 56.5t51 35t47 17.5t38.5 7t30.5 1q23 0 56 -7l-10 -42q-31 9 -54 9q-36 0 -68.5 -12.5t-53.5 -26t-46.5 -43.5t-35 -44t-32.5 -48q-59 -89 -91 -187v-704h-43z" />
<glyph unicode="s" horiz-adv-x="796" d="M70 142l30 23q110 -150 287 -150q119 0 198 73.5t79 188.5q0 64 -31.5 111.5t-82 75.5t-111.5 51.5l-122 47t-111.5 53.5t-82 80t-31.5 118q0 132 72.5 211.5t208.5 79.5q82 0 156.5 -38.5t121.5 -105.5l-31 -24q-99 128 -247 128q-117 0 -179 -66.5t-62 -182.5 q0 -58 27 -101t69 -67.5t98 -47.5t109 -40t108 -45.5t89 -63.5q74 -76 74 -174q0 -132 -92.5 -216.5t-227.5 -84.5q-97 0 -181 44t-135 122z" />
<glyph unicode="t" horiz-adv-x="508" d="M7 1053v41h181v232l43 16v-248h246v-41h-246v-839q0 -96 34.5 -141.5t136.5 -45.5q6 0 23.5 0.5t24.5 0.5l4 -38q-36 -4 -51 -4q-56 0 -96 12t-63 31t-35.5 51t-16.5 63t-4 76v834h-181z" />
<glyph unicode="u" horiz-adv-x="1001" d="M135 398v696h43v-697q0 -54 5 -101t22 -100.5t44.5 -91.5t76 -63t113.5 -25q71 0 133 31.5t108.5 88t77 108.5t60.5 119v731h43v-1094h-44v289q-149 -313 -379 -313q-85 0 -146 33.5t-94 94.5t-48 133t-15 161z" />
<glyph unicode="v" horiz-adv-x="807" d="M19 1094h46l337 -1037h2l339 1037h45l-357 -1094h-56z" />
<glyph unicode="w" horiz-adv-x="1204" d="M30 1094h44l241 -1038h3l251 1038h67l243 -1040h3l249 1040h44l-265 -1094h-61l-245 1049h-2l-255 -1049h-62z" />
<glyph unicode="x" horiz-adv-x="744" d="M21 0l325 573l-302 521h50l275 -478l271 478h50l-296 -523l329 -571h-50l-303 530l-299 -530h-50z" />
<glyph unicode="y" horiz-adv-x="789" d="M19 1094h46l348 -1019l315 1019h46l-397 -1272q-20 -66 -39 -107t-48.5 -76.5t-72.5 -51t-104 -15.5q-9 0 -46 5l5 43q22 -5 40 -5q73 0 111.5 22t71.5 85q15 28 48 133q4 14 20.5 65.5t26.5 86.5z" />
<glyph unicode="z" horiz-adv-x="874" d="M71 0v43l654 1010h-633v41h679v-48l-649 -1006h665v-40h-716z" />
<glyph unicode="{" horiz-adv-x="710" d="M116 593v36q106 12 143.5 62.5t37.5 163.5v223q0 89 13 155.5t45 126t94 97.5t153 54v-29q-41 -9 -75.5 -24t-60 -31t-45 -39t-32.5 -43t-22 -49.5t-14 -51.5t-7.5 -55t-3 -55t-0.5 -57v-224q0 -37 -3 -62.5t-15 -65t-43.5 -68.5t-80.5 -44v-1q39 -13 67 -36t42 -46.5 t22 -56.5t9.5 -54t1.5 -51v-229q0 -192 56 -273.5t204 -110.5v-28q-74 6 -128 30t-88 60.5t-54 90.5t-27.5 112t-7.5 133v217q0 109 -38 160t-143 63z" />
<glyph unicode="|" horiz-adv-x="524" d="M241 -402v2078h42v-2078h-42z" />
<glyph unicode="}" horiz-adv-x="710" d="M108 -245q148 29 204 110.5t56 273.5v229q0 30 1.5 51t9.5 54t22 56.5t42 46.5t67 36v1q-40 12 -68 35.5t-42 47t-22 56.5t-9 53t-1 48v224q0 35 -0.5 57t-3 55t-7.5 55t-14 51.5t-22 49.5t-32.5 43t-45 39t-60 31t-75.5 24v29q91 -16 153 -54t94 -97.5t45 -126 t13 -155.5v-223q0 -113 37.5 -163.5t143.5 -62.5v-36q-105 -12 -143 -63t-38 -160v-217q0 -76 -7.5 -133.5t-27.5 -111.5t-53.5 -90.5t-88 -60.5t-128.5 -30v28z" />
<glyph unicode="~" horiz-adv-x="1191" d="M108 705q31 40 54.5 66.5t61 62t76.5 54.5t77 19q47 0 93 -27t83.5 -65.5t74.5 -76.5t79.5 -65t85.5 -27q33 0 70 18.5t74.5 53.5t59.5 59t52 60l26 -32q-37 -45 -58 -68.5t-62 -61.5t-81 -56.5t-80 -18.5q-50 0 -97.5 27t-85.5 65.5t-75 77t-78.5 65.5t-82.5 27 q-31 0 -64 -16.5t-63 -45t-53.5 -55t-48.5 -56.5q-2 -3 -3.5 -5t-3.5 -4.5t-4 -4.5z" />
<glyph unicode="&#xa1;" horiz-adv-x="430" d="M145 1461q0 30 20.5 49.5t50.5 19.5q31 0 51 -19t20 -50q0 -32 -20 -50.5t-51 -18.5q-29 0 -50 20.5t-21 48.5zM192 0v906l2 169h39l2 -170v-905h-43z" />
<glyph unicode="&#xa2;" horiz-adv-x="913" d="M112 641q0 240 99.5 383.5t289.5 152.5v181h45v-181q163 -9 258 -146l-28 -22q-55 69 -121.5 98.5t-129.5 29.5q-76 0 -137.5 -25.5t-103.5 -70.5t-71 -107.5t-42 -135.5t-13 -156q0 -229 94.5 -361.5t275.5 -132.5q64 0 134 34.5t122 105.5l32 -24q-50 -75 -122 -114 t-148 -44v-192h-45v193q-191 10 -290 152t-99 382z" />
<glyph unicode="&#xa3;" horiz-adv-x="1155" d="M173 0v27q259 171 259 460q0 96 -17 221h-227v41h220q-42 206 -42 309q0 222 99 343t281 121q71 0 145 -34t127 -108l-32 -23q-99 123 -240 123q-173 0 -255 -114t-82 -310q0 -91 44 -307h428v-41h-421q16 -139 16 -221q0 -295 -210 -446h779l-2 -41h-870z" />
<glyph unicode="&#xa5;" horiz-adv-x="1033" d="M73 1504h49l396 -871l398 871h44l-424 -930v-224h303v-39h-303v-311h-43v311h-301v39h301v234z" />
<glyph unicode="&#xa7;" horiz-adv-x="1168" d="M112 686q0 100 78 189.5t186 145.5q-53 33 -80 87t-27 116q0 139 93 219.5t234 80.5q168 0 287 -113l-29 -24q-123 96 -256 96q-126 0 -206.5 -68.5t-80.5 -188.5q0 -59 25.5 -103t68.5 -71.5t99 -48.5t118 -37t123.5 -33t117.5 -42.5t99 -59t68.5 -87.5t25.5 -125 q0 -205 -246 -338q42 -26 67 -85.5t25 -120.5q0 -77 -29 -136.5t-80 -95t-115.5 -53.5t-140.5 -18q-100 0 -195 33t-163 98l31 24q64 -59 151 -87t176 -28t159.5 26t117 86.5t46.5 148.5q0 114 -76 172q-35 26 -93.5 47t-119 35t-127.5 30.5t-125 41t-105 60t-74.5 93 t-27.5 134.5zM153 686q0 -87 42.5 -146.5t116.5 -92t150 -52.5t169 -44t147 -51q102 54 169.5 135t67.5 182q0 103 -61 166q-51 53 -153 89.5t-218.5 67.5t-170.5 60q-107 -53 -183 -136t-76 -178z" />
<glyph unicode="&#xa8;" horiz-adv-x="837" d="M160 1363q0 32 19.5 50.5t51.5 18.5q28 0 49.5 -20.5t21.5 -48.5q0 -30 -20.5 -49.5t-50.5 -19.5q-32 0 -51.5 19t-19.5 50zM535 1363q0 32 19.5 50.5t51.5 18.5q29 0 50 -20.5t21 -48.5q0 -30 -20.5 -49.5t-50.5 -19.5q-31 0 -51 19t-20 50z" />
<glyph unicode="&#xa9;" horiz-adv-x="1687" d="M116 748q0 227 91.5 403.5t257 274.5t378.5 98q327 0 527.5 -210.5t200.5 -565.5q0 -348 -202.5 -561.5t-525.5 -213.5q-211 0 -376.5 98t-258 275t-92.5 402zM149 748q0 -150 49 -285t137 -236.5t220 -161t288 -59.5q158 0 289 57t219.5 156t137.5 235.5t49 293.5 q0 218 -83.5 385.5t-242 262.5t-369.5 95q-158 0 -290 -58.5t-219.5 -159.5t-136 -236t-48.5 -289zM535 742q0 85 22 164.5t63 143t106 102t145 38.5q43 0 84 -11t87.5 -44.5t75.5 -86.5l-34 -15q-76 116 -212 116q-135 0 -214.5 -116t-79.5 -290q0 -172 82 -282t212 -110 q146 0 220 124l35 -17q-42 -80 -112 -114.5t-144 -34.5q-81 0 -147 39.5t-106 103.5t-61.5 139t-21.5 151z" />
<glyph unicode="&#xaa;" horiz-adv-x="873" d="M97 877q0 55 18 98t46 71.5t72 49t84 31t95.5 16.5t94 7.5t90.5 1.5q0 45 -1 72t-5 64.5t-12.5 59.5t-24 47.5t-38 39.5t-56 23t-77.5 9q-92 0 -192 -69l-17 28q98 77 217 77q45 0 81.5 -8.5t61.5 -23.5t43.5 -37t29 -48t17.5 -56.5t9 -64t3 -68.5t0 -70v-37v-283 q0 -75 14.5 -102.5t68.5 -23.5v-32q-12 -2 -41 -2q-27 0 -44 15.5t-23 43.5t-7.5 47.5t-0.5 47.5q-121 -164 -286 -164q-100 0 -160 70t-60 170zM136 879q0 -94 49 -149t135 -55q177 0 278 179v264h-80q-67 0 -127 -10t-121 -34t-97.5 -74t-36.5 -121z" />
<glyph unicode="&#xab;" horiz-adv-x="1047" d="M60 536l361 515h52l-363 -514l376 -537h-53zM530 536l361 515h52l-363 -514l376 -537h-53z" />
<glyph unicode="&#xad;" horiz-adv-x="628" d="M103 700v40h422l-1 -40h-421z" />
<glyph unicode="&#xae;" horiz-adv-x="1677" d="M116 748q0 227 91.5 403.5t257 274.5t378.5 98q327 0 527.5 -210.5t200.5 -565.5q0 -348 -202.5 -561.5t-525.5 -213.5q-211 0 -376.5 98t-258 275t-92.5 402zM149 748q0 -150 49 -285t137 -236.5t220 -161t288 -59.5q158 0 289 57t219.5 156t137.5 235.5t49 293.5 q0 218 -83.5 385.5t-242 262.5t-369.5 95q-158 0 -290 -58.5t-219.5 -159.5t-136 -236t-48.5 -289zM625 335v856h226q118 0 187.5 -60t69.5 -186q0 -92 -55 -152.5t-144 -72.5l217 -385h-45l-214 379h-204v-379h-38zM663 752h205q84 0 142.5 49t58.5 145q0 210 -218 210 h-188v-404z" />
<glyph unicode="&#xaf;" horiz-adv-x="747" d="M55 1344v39h637v-39h-637z" />
<glyph unicode="&#xb0;" horiz-adv-x="705" d="M103 1229q0 114 73 191t176 77q104 0 177 -76.5t73 -191.5q0 -117 -72.5 -194t-177.5 -77q-103 0 -176 77.5t-73 193.5zM137 1229q0 -98 61.5 -166t153.5 -68q91 0 153.5 68t62.5 166q0 100 -61 165.5t-155 65.5q-92 0 -153.5 -65.5t-61.5 -165.5z" />
<glyph unicode="&#xb1;" horiz-adv-x="1057" d="M112 0v39h833v-39h-833zM112 786v39h403v453h39v-453h391v-39h-391v-464h-39v464h-403z" />
<glyph unicode="&#xb4;" horiz-adv-x="250" d="M55 1236l198 323h52l-202 -323h-48z" />
<glyph unicode="&#xb5;" horiz-adv-x="999" d="M120 -391v1484h43v-100v-604q0 -45 5 -65q13 -64 34 -116.5t51.5 -96.5t74 -69t96.5 -25q58 0 110.5 22.5t90.5 55t73.5 82t58.5 91.5t46 94v732h43v-1094h-44v288q-148 -311 -379 -311q-100 0 -169.5 77.5t-94.5 191.5v-622z" />
<glyph unicode="&#xb6;" horiz-adv-x="1049" d="M32 1065q0 208 123.5 326t325.5 118h536v-39h-145v-1794h-43v1794h-325v-1794h-46v946q-206 3 -316 125.5t-110 317.5z" />
<glyph unicode="&#xb7;" horiz-adv-x="468" d="M114 746q0 51 36 86.5t86 35.5t86 -35.5t36 -86.5q0 -50 -36 -86t-86 -36t-86 36t-36 86z" />
<glyph unicode="&#xb8;" horiz-adv-x="674" d="M160 -386l14 44q82 -46 144 -46q17 0 34.5 3.5t37 13.5t34 25.5t24.5 42t10 59.5q0 47 -32 70.5t-86 23.5h-75l-28 30l43 117l47 -1l-41 -105q97 20 162.5 -21t65.5 -114q0 -90 -59.5 -141.5t-137.5 -51.5q-79 0 -157 51z" />
<glyph unicode="&#xba;" horiz-adv-x="862" d="M110 1069q0 111 36 209t111.5 163t174.5 65q104 0 178 -60.5t108 -157t34 -216.5t-34.5 -216.5t-108.5 -156.5t-177 -60q-102 0 -176.5 59.5t-110 155t-35.5 215.5zM151 1069q0 -76 16.5 -144.5t49 -125.5t88.5 -91t128 -34q71 0 127 34t89 91.5t49.5 127t16.5 145.5 q0 69 -15.5 135.5t-47 127t-88.5 98t-132 37.5q-71 0 -127.5 -38.5t-88.5 -99.5t-48.5 -128.5t-16.5 -134.5z" />
<glyph unicode="&#xbb;" horiz-adv-x="1047" d="M91 0l376 537l-363 514h52l361 -515l-374 -536h-52zM561 0l376 537l-363 514h52l361 -515l-374 -536h-52z" />
<glyph unicode="&#xbc;" horiz-adv-x="1658" d="M91 1430l202 80h41v-856h172v-35h-399v35h186v817l-194 -78zM482 1l681 1503h40l-684 -1503h-37zM969 220v35l448 637h37v-639h127v-33h-127v-219h-43v219h-442zM1006 253h405v569q-72 -102 -138 -195t-141.5 -198.5t-125.5 -175.5z" />
<glyph unicode="&#xbd;" horiz-adv-x="1704" d="M91 1432l203 78h41v-836h172v-34h-400v34h187v799l-195 -76zM482 3l682 1501h39l-684 -1501h-37zM1125 1v21q0 62 18 116t52.5 98t69.5 75.5t85 68.5q81 56 86 59q54 42 74 62q76 64 76 143q0 90 -57 145t-146 55q-125 0 -205 -96l-29 21q88 110 232 110 q109 0 177.5 -63.5t68.5 -173.5q0 -78 -70 -150q-14 -15 -33 -31t-33 -26t-38 -27.5t-35 -25.5q-56 -39 -96 -73.5t-79 -78t-59 -92.5t-20 -102h454v-35h-493z" />
<glyph unicode="&#xbe;" horiz-adv-x="1726" d="M91 750l24 19q83 -105 205 -105q111 0 177.5 61t66.5 165q0 101 -60.5 152.5t-156.5 51.5h-57v31h59q90 0 132 48t42 132q0 74 -54 128.5t-143 54.5q-114 0 -192 -97l-25 21q82 110 215 110q100 0 170 -59t70 -158q0 -57 -25.5 -104.5t-103.5 -93.5q170 -52 170 -217 q0 -131 -80 -196t-211 -65q-141 0 -223 121zM549 3l682 1499h39l-684 -1499h-37zM1037 216v33l448 622h37v-624h127v-31h-127v-215h-43v215h-442zM1072 247h407v557q-218 -304 -407 -557z" />
<glyph unicode="&#xbf;" horiz-adv-x="823" d="M137 273q0 67 29 131.5t72 120t87.5 112.5t80 130.5t44.5 152.5q3 23 3 149h42v-116q0 -80 -32.5 -159.5t-78.5 -143.5t-92.5 -125t-79 -126.5t-32.5 -124.5q0 -123 75 -192t200 -69q68 0 136 32t114 89l29 -22q-49 -64 -123.5 -101t-155.5 -37q-143 0 -230.5 79 t-87.5 220zM402 1430q0 30 20.5 49.5t50.5 19.5q32 0 51.5 -19t19.5 -50q0 -32 -19.5 -50.5t-51.5 -18.5q-28 0 -49.5 20.5t-21.5 48.5z" />
<glyph unicode="&#xc0;" horiz-adv-x="1118" d="M11 0h48l147 435h706l149 -435h48l-523 1504h-64zM220 477l334 983h2l341 -984zM323 1929h52l198 -323h-48z" />
<glyph unicode="&#xc1;" horiz-adv-x="1118" d="M11 0l511 1504h64l523 -1504h-48l-149 435h-706l-147 -435h-48zM220 477l677 -1l-341 984h-2zM539 1606l198 323h52l-202 -323h-48z" />
<glyph unicode="&#xc2;" horiz-adv-x="1118" d="M11 0l511 1504h64l523 -1504h-48l-149 435h-706l-147 -435h-48zM220 477l677 -1l-341 984h-2zM309 1553l227 335h49l227 -335h-50l-201 293l-201 -293h-51z" />
<glyph unicode="&#xc3;" horiz-adv-x="1118" d="M11 0l511 1504h64l523 -1504h-48l-149 435h-706l-147 -435h-48zM220 477l677 -1l-341 984h-2zM258 1579q12 242 156 242q33 0 68 -21t66 -50.5l62 -59t65 -50.5t66 -21q20 0 37 8t28 17.5t20 30t13.5 33t9 40t6 38t4.5 37.5h35q-2 -46 -8 -82t-20.5 -76.5t-46.5 -63.5 t-78 -23q-37 0 -75 21t-69 50.5t-61 59t-63 50.5t-63 21q-32 0 -55 -17.5t-35 -50t-18 -58t-11 -61.5q-1 -10 -2 -15z" />
<glyph unicode="&#xc4;" horiz-adv-x="1118" d="M11 0l511 1504h64l523 -1504h-48l-149 435h-706l-147 -435h-48zM220 477l677 -1l-341 984h-2zM291 1748q0 32 19.5 50.5t51.5 18.5q29 0 50 -20.5t21 -48.5q0 -30 -20.5 -49.5t-50.5 -19.5q-31 0 -51 18.5t-20 50.5zM666 1748q0 32 19.5 50.5t51.5 18.5q29 0 50 -20.5 t21 -48.5q0 -30 -20.5 -49.5t-50.5 -19.5q-31 0 -51 18.5t-20 50.5z" />
<glyph unicode="&#xc5;" horiz-adv-x="1117" d="M11 0l500 1473q-64 17 -107.5 73.5t-43.5 130.5q0 85 59 147t138 62q80 0 139 -62t59 -147q0 -75 -45 -133t-113 -73l511 -1471h-48l-149 435h-705l-148 -435h-47zM220 476h677l-341 984h-3zM400 1677q0 -64 46 -118.5t111 -54.5q66 0 111.5 51.5t45.5 121.5t-46.5 120 t-110.5 50q-62 0 -109.5 -52t-47.5 -118z" />
<glyph unicode="&#xc6;" horiz-adv-x="1549" d="M-1 0l682 1507l767 -3l-2 -42h-583v-673h486l-2 -42h-484v-705h594l-2 -42h-636v449h-569l-203 -449h-48zM269 491h550v971h-109z" />
<glyph unicode="&#xc7;" horiz-adv-x="1143" d="M114 742q0 166 34.5 307t100.5 247.5t170.5 166.5t236.5 60q96 0 197.5 -48.5t176.5 -150.5l-31 -24q-76 96 -166.5 139t-178.5 43q-100 0 -182.5 -39.5t-140 -108t-97 -162.5t-58 -202t-18.5 -228q0 -204 57.5 -366.5t171.5 -260.5t268 -98q226 0 373 195l33 -25 q-72 -105 -181 -158t-224 -53q-2 0 -7 0.5t-8 0.5l-35 -96q96 13 159 -28.5t63 -115.5q1 -89 -55 -135t-135 -46q-73 0 -155 50l10 38q86 -47 144 -47q23 0 45.5 5.5t47.5 19.5t40.5 43t15.5 70q0 53 -44 80.5t-102 27.5h-56l-26 27l41 109q-155 17 -266.5 126t-165 273 t-53.5 364z" />
<glyph unicode="&#xc8;" horiz-adv-x="1070" d="M180 0h796l2 42h-754v705h644l2 42h-646v673h743l2 42h-789v-1504zM361 1929h52l198 -323h-48z" />
<glyph unicode="&#xc9;" horiz-adv-x="1070" d="M180 0v1504h789l-2 -42h-743v-673h646l-2 -42h-644v-705h754l-2 -42h-796zM547 1606l198 323h52l-202 -323h-48z" />
<glyph unicode="&#xca;" horiz-adv-x="1070" d="M180 0v1504h789l-2 -42h-743v-673h646l-2 -42h-644v-705h754l-2 -42h-796zM347 1603l227 335h49l227 -335h-50l-201 293l-201 -293h-51z" />
<glyph unicode="&#xcb;" horiz-adv-x="1070" d="M180 0v1504h789l-2 -42h-743v-673h646l-2 -42h-644v-705h754l-2 -42h-796zM323 1748q0 32 19.5 50.5t51.5 18.5q28 0 49.5 -20.5t21.5 -48.5q0 -30 -20.5 -49.5t-50.5 -19.5q-31 0 -51 18.5t-20 50.5zM698 1748q0 32 19.5 50.5t51.5 18.5q29 0 50 -20.5t21 -48.5 q0 -30 -20.5 -49.5t-50.5 -19.5q-31 0 -51 18.5t-20 50.5z" />
<glyph unicode="&#xcc;" horiz-adv-x="393" d="M-42 1929h52l198 -323h-48zM169 0h44v1504h-44v-1504z" />
<glyph unicode="&#xcd;" horiz-adv-x="392" d="M174 1606l198 323h52l-202 -323h-48zM179 0v1504h44v-1504h-44z" />
<glyph unicode="&#xce;" horiz-adv-x="386" d="M-54 1583l227 335h49l227 -335h-50l-201 293l-201 -293h-51zM171 0v1504h44v-1504h-44z" />
<glyph unicode="&#xcf;" horiz-adv-x="387" d="M-31 1748q0 32 19.5 50.5t51.5 18.5q29 0 50 -20.5t21 -48.5q0 -30 -20.5 -49.5t-50.5 -19.5q-31 0 -51 18.5t-20 50.5zM169 0v1504h44v-1504h-44zM344 1748q0 32 19.5 50.5t51.5 18.5q29 0 50 -20.5t21 -48.5q0 -30 -20.5 -49.5t-50.5 -19.5q-31 0 -51 18.5t-20 50.5z " />
<glyph unicode="&#xd0;" horiz-adv-x="1256" d="M-18 754v41h186v709h266q173 0 304.5 -42t229.5 -132.5t148.5 -241.5t50.5 -359q0 -211 -77 -377t-217 -259t-319 -93h-386v754h-186zM212 42h344q116 0 219 47.5t180.5 134t122.5 217t45 288.5q0 366 -166.5 550t-523.5 184h-221v-668h398v-41h-398v-712z" />
<glyph unicode="&#xd1;" horiz-adv-x="1260" d="M180 0v1504h49l807 -1424v1424h44v-1504h-49l-807 1424v-1424h-44zM348 1559q12 242 156 242q33 0 68 -21t66 -50.5l62 -59t65 -50.5t66 -21q20 0 37 8t28 17.5t20 30t13.5 33t9 40t6 38t4.5 37.5h35q-2 -46 -8 -82t-20.5 -76.5t-46.5 -63.5t-78 -23q-37 0 -75 21 t-69 50.5t-61 59t-63 50.5t-63 21q-32 0 -55 -17.5t-35 -50t-18 -58t-11 -61.5q-1 -10 -2 -15z" />
<glyph unicode="&#xd2;" horiz-adv-x="1272" d="M114 760q0 -120 17 -230t57 -212.5t99 -177t149 -119.5t201 -45q115 0 206.5 48t149 126t96 182.5t54 210t15.5 217.5q0 160 -35.5 298.5t-100.5 242t-164.5 163t-221.5 59.5q-123 0 -224 -64t-165 -171.5t-98.5 -243t-34.5 -284.5zM158 760q0 61 9.5 132t29.5 154.5 t57.5 158.5t88 138t126.5 100t167 37q109 0 195.5 -51.5t138 -129t85.5 -178t46.5 -189.5t12.5 -173q0 -50 -4 -104.5t-17 -129.5t-33.5 -142t-57.5 -135.5t-85 -118t-120.5 -80.5t-159.5 -31q-82 0 -151 27t-117.5 72t-86 107.5t-60.5 128.5t-38 140.5t-20.5 139 t-5.5 127.5zM407 1929h52l198 -323h-48z" />
<glyph unicode="&#xd3;" horiz-adv-x="1272" d="M114 760q0 -120 17 -230t57 -212.5t99 -177t149 -119.5t201 -45q115 0 206.5 48t149 126t96 182.5t54 210t15.5 217.5q0 160 -35.5 298.5t-100.5 242t-164.5 163t-221.5 59.5q-123 0 -224 -64t-165 -171.5t-98.5 -243t-34.5 -284.5zM158 760q0 61 9.5 132t29.5 154.5 t57.5 158.5t88 138t126.5 100t167 37q109 0 195.5 -51.5t138 -129t85.5 -178t46.5 -189.5t12.5 -173q0 -50 -4 -104.5t-17 -129.5t-33.5 -142t-57.5 -135.5t-85 -118t-120.5 -80.5t-159.5 -31q-82 0 -151 27t-117.5 72t-86 107.5t-60.5 128.5t-38 140.5t-20.5 139 t-5.5 127.5zM613 1606l198 323h52l-202 -323h-48z" />
<glyph unicode="&#xd4;" horiz-adv-x="1272" d="M114 760q0 -120 17 -230t57 -212.5t99 -177t149 -119.5t201 -45q115 0 206.5 48t149 126t96 182.5t54 210t15.5 217.5q0 160 -35.5 298.5t-100.5 242t-164.5 163t-221.5 59.5q-123 0 -224 -64t-165 -171.5t-98.5 -243t-34.5 -284.5zM158 760q0 61 9.5 132t29.5 154.5 t57.5 158.5t88 138t126.5 100t167 37q109 0 195.5 -51.5t138 -129t85.5 -178t46.5 -189.5t12.5 -173q0 -50 -4 -104.5t-17 -129.5t-33.5 -142t-57.5 -135.5t-85 -118t-120.5 -80.5t-159.5 -31q-82 0 -151 27t-117.5 72t-86 107.5t-60.5 128.5t-38 140.5t-20.5 139 t-5.5 127.5zM383 1603l227 335h49l227 -335h-50l-201 293l-201 -293h-51z" />
<glyph unicode="&#xd5;" horiz-adv-x="1272" d="M114 760q0 -120 17 -230t57 -212.5t99 -177t149 -119.5t201 -45q115 0 206.5 48t149 126t96 182.5t54 210t15.5 217.5q0 160 -35.5 298.5t-100.5 242t-164.5 163t-221.5 59.5q-123 0 -224 -64t-165 -171.5t-98.5 -243t-34.5 -284.5zM158 760q0 61 9.5 132t29.5 154.5 t57.5 158.5t88 138t126.5 100t167 37q109 0 195.5 -51.5t138 -129t85.5 -178t46.5 -189.5t12.5 -173q0 -50 -4 -104.5t-17 -129.5t-33.5 -142t-57.5 -135.5t-85 -118t-120.5 -80.5t-159.5 -31q-82 0 -151 27t-117.5 72t-86 107.5t-60.5 128.5t-38 140.5t-20.5 139 t-5.5 127.5zM322 1589q12 242 156 242q33 0 68 -21t66 -50.5l62 -59t65 -50.5t66 -21q20 0 37 8t28 17.5t20 30t13.5 33t9 40t6 38t4.5 37.5h35q-2 -46 -8 -82t-20.5 -76.5t-46.5 -63.5t-78 -23q-37 0 -75 21t-69 50.5t-61 59t-63 50.5t-63 21q-32 0 -55 -17.5t-35 -50 t-18 -58t-11 -61.5q-1 -10 -2 -15z" />
<glyph unicode="&#xd6;" horiz-adv-x="1272" d="M114 760q0 -120 17 -230t57 -212.5t99 -177t149 -119.5t201 -45q115 0 206.5 48t149 126t96 182.5t54 210t15.5 217.5q0 160 -35.5 298.5t-100.5 242t-164.5 163t-221.5 59.5q-123 0 -224 -64t-165 -171.5t-98.5 -243t-34.5 -284.5zM158 760q0 61 9.5 132t29.5 154.5 t57.5 158.5t88 138t126.5 100t167 37q109 0 195.5 -51.5t138 -129t85.5 -178t46.5 -189.5t12.5 -173q0 -50 -4 -104.5t-17 -129.5t-33.5 -142t-57.5 -135.5t-85 -118t-120.5 -80.5t-159.5 -31q-82 0 -151 27t-117.5 72t-86 107.5t-60.5 128.5t-38 140.5t-20.5 139 t-5.5 127.5zM376 1748q0 32 19.5 50.5t51.5 18.5q28 0 49.5 -20.5t21.5 -48.5q0 -30 -20.5 -49.5t-50.5 -19.5q-31 0 -51 18.5t-20 50.5zM751 1748q0 32 19.5 50.5t51.5 18.5q29 0 50 -20.5t21 -48.5q0 -30 -20.5 -49.5t-50.5 -19.5q-31 0 -51 18.5t-20 50.5z" />
<glyph unicode="&#xd7;" horiz-adv-x="883" d="M112 350l303 346l-303 342l24 31l303 -346l303 346l27 -29l-303 -346l305 -348l-25 -27l-305 346l-303 -343z" />
<glyph unicode="&#xd8;" horiz-adv-x="1274" d="M-31 1l237 273q-90 200 -90 485q0 149 34.5 285t98.5 243t165 171t224 64q135 0 240 -71t174 -199l220 252l32 -28l-232 -265q88 -195 88 -452q0 -112 -15.5 -217.5t-54 -210t-96 -181.5t-149 -125t-206.5 -48q-277 0 -413 256l-224 -260zM160 759q0 -258 79 -448 l781 904q-128 264 -382 264q-78 0 -145.5 -28.5t-115.5 -75t-86.5 -109.5t-62.5 -129t-39.5 -137t-22 -130t-6.5 -111zM258 269q122 -250 381 -250q87 0 159.5 31t121 80t85.5 117t57.5 135t33.5 141.5t17 129t4 104.5q0 228 -78 416z" />
<glyph unicode="&#xd9;" horiz-adv-x="1220" d="M160 517v987h44v-988q0 -84 10 -152.5t37 -134.5t70.5 -111t115.5 -72.5t167 -27.5q75 0 135.5 15t102.5 41t73.5 64.5t50 80t30 94t15.5 100t4 104.5l1 987h44v-988q0 -96 -13 -174.5t-45 -148t-83 -116.5t-130.5 -74t-184.5 -27q-103 0 -182 29t-128 77t-79.5 119 t-42.5 147t-12 169zM387 1859h52l198 -323h-48z" />
<glyph unicode="&#xda;" horiz-adv-x="1220" d="M160 517v987h44v-988q0 -84 10 -152.5t37 -134.5t70.5 -111t115.5 -72.5t167 -27.5q75 0 135.5 15t102.5 41t73.5 64.5t50 80t30 94t15.5 100t4 104.5l1 987h44v-988q0 -96 -13 -174.5t-45 -148t-83 -116.5t-130.5 -74t-184.5 -27q-103 0 -182 29t-128 77t-79.5 119 t-42.5 147t-12 169zM573 1536l198 323h52l-202 -323h-48z" />
<glyph unicode="&#xdb;" horiz-adv-x="1220" d="M160 517v987h44v-988q0 -84 10 -152.5t37 -134.5t70.5 -111t115.5 -72.5t167 -27.5q75 0 135.5 15t102.5 41t73.5 64.5t50 80t30 94t15.5 100t4 104.5l1 987h44v-988q0 -96 -13 -174.5t-45 -148t-83 -116.5t-130.5 -74t-184.5 -27q-103 0 -182 29t-128 77t-79.5 119 t-42.5 147t-12 169zM363 1603l227 335h49l227 -335h-50l-201 293l-201 -293h-51z" />
<glyph unicode="&#xdc;" horiz-adv-x="1220" d="M160 517v987h44v-988q0 -84 10 -152.5t37 -134.5t70.5 -111t115.5 -72.5t167 -27.5q75 0 135.5 15t102.5 41t73.5 64.5t50 80t30 94t15.5 100t4 104.5l1 987h44v-988q0 -96 -13 -174.5t-45 -148t-83 -116.5t-130.5 -74t-184.5 -27q-103 0 -182 29t-128 77t-79.5 119 t-42.5 147t-12 169zM344 1708q0 32 19.5 50.5t51.5 18.5q29 0 50 -20.5t21 -48.5q0 -30 -20.5 -49.5t-50.5 -19.5q-31 0 -51 18.5t-20 50.5zM720 1708q0 32 19.5 50.5t51.5 18.5q28 0 49.5 -20.5t21.5 -48.5q0 -30 -20.5 -49.5t-50.5 -19.5q-32 0 -51.5 18.5t-19.5 50.5z " />
<glyph unicode="&#xdd;" d="M-3 1504h51l420 -851l415 851h50l-444 -908v-596h-44v601zM447 1536l198 323h52l-202 -323h-48z" />
<glyph unicode="&#xde;" horiz-adv-x="1104" d="M180 0v1504h44v-290h318q424 0 424 -418q0 -193 -110 -294t-303 -101h-329v-401h-44zM224 442h327q77 0 140 17t117 55t84.5 109.5t30.5 172.5q0 195 -96.5 285.5t-286.5 90.5h-316v-730z" />
<glyph unicode="&#xdf;" horiz-adv-x="1049" d="M147 -393v1547q0 183 89.5 292t270.5 109q162 0 256.5 -97t94.5 -269q0 -43 -5.5 -77.5t-20.5 -77t-50 -79.5t-87 -64q-52 -26 -118 -39q86 -7 145 -30q245 -92 245 -389q0 -175 -86 -284q-58 -74 -148 -113t-195 -39h-25q-13 0 -39 4l5 36q4 0 12.5 -0.5t13.5 -0.5h32 q173 0 278.5 107t105.5 288q0 108 -36.5 187.5t-100.5 124t-140.5 65.5t-167.5 21h-6v40q66 2 125.5 21t109 56.5t79 100t29.5 142.5q0 156 -81.5 240.5t-224.5 84.5q-160 0 -237.5 -96t-77.5 -264v-1529z" />
<glyph unicode="&#xe0;" d="M79 284q0 -139 81.5 -223t218.5 -84q36 0 78 10.5t93 34.5t101 73.5t86 117.5h2v-69q0 -156 103 -156h6q22 0 45 5v36q-57 -2 -73 6q-38 20 -38 116v418q0 86 -2 141t-9 117.5t-20.5 100t-37 75t-58 57.5t-83.5 32t-114 12q-60 0 -136.5 -23.5t-140.5 -72.5l22 -30 q129 86 255 86q72 0 121.5 -16.5t81 -46.5t48.5 -83.5t23.5 -116.5t6.5 -157h-110q-76 0 -145.5 -8t-146 -32t-131.5 -62.5t-91 -104.5t-36 -153zM123 284q0 60 20 109t51 81.5t77 57t90.5 38t98.5 21.5t94.5 10t85.5 2h99l-2 -329q-58 -113 -151.5 -185t-207.5 -72 q-118 0 -186.5 72.5t-68.5 194.5zM230 1559h52l198 -323h-48z" />
<glyph unicode="&#xe1;" d="M79 284q0 -139 81.5 -223t218.5 -84q36 0 78 10.5t93 34.5t101 73.5t86 117.5h2v-69q0 -156 103 -156h6q22 0 45 5v36q-57 -2 -73 6q-38 20 -38 116v418q0 86 -2 141t-9 117.5t-20.5 100t-37 75t-58 57.5t-83.5 32t-114 12q-60 0 -136.5 -23.5t-140.5 -72.5l22 -30 q129 86 255 86q72 0 121.5 -16.5t81 -46.5t48.5 -83.5t23.5 -116.5t6.5 -157h-110q-76 0 -145.5 -8t-146 -32t-131.5 -62.5t-91 -104.5t-36 -153zM123 284q0 60 20 109t51 81.5t77 57t90.5 38t98.5 21.5t94.5 10t85.5 2h99l-2 -329q-58 -113 -151.5 -185t-207.5 -72 q-118 0 -186.5 72.5t-68.5 194.5zM406 1236l198 323h52l-202 -323h-48z" />
<glyph unicode="&#xe2;" d="M79 284q0 -139 81.5 -223t218.5 -84q36 0 78 10.5t93 34.5t101 73.5t86 117.5h2v-69q0 -156 103 -156h6q22 0 45 5v36q-57 -2 -73 6q-38 20 -38 116v418q0 86 -2 141t-9 117.5t-20.5 100t-37 75t-58 57.5t-83.5 32t-114 12q-60 0 -136.5 -23.5t-140.5 -72.5l22 -30 q129 86 255 86q72 0 121.5 -16.5t81 -46.5t48.5 -83.5t23.5 -116.5t6.5 -157h-110q-76 0 -145.5 -8t-146 -32t-131.5 -62.5t-91 -104.5t-36 -153zM123 284q0 60 20 109t51 81.5t77 57t90.5 38t98.5 21.5t94.5 10t85.5 2h99l-2 -329q-58 -113 -151.5 -185t-207.5 -72 q-118 0 -186.5 72.5t-68.5 194.5zM196 1224l227 335h49l227 -335h-50l-201 294l-200 -294h-52z" />
<glyph unicode="&#xe3;" d="M79 284q0 -139 81.5 -223t218.5 -84q36 0 78 10.5t93 34.5t101 73.5t86 117.5h2v-69q0 -156 103 -156h6q22 0 45 5v36q-57 -2 -73 6q-38 20 -38 116v418q0 86 -2 141t-9 117.5t-20.5 100t-37 75t-58 57.5t-83.5 32t-114 12q-60 0 -136.5 -23.5t-140.5 -72.5l22 -30 q129 86 255 86q72 0 121.5 -16.5t81 -46.5t48.5 -83.5t23.5 -116.5t6.5 -157h-110q-76 0 -145.5 -8t-146 -32t-131.5 -62.5t-91 -104.5t-36 -153zM123 284q0 60 20 109t51 81.5t77 57t90.5 38t98.5 21.5t94.5 10t85.5 2h99l-2 -329q-58 -113 -151.5 -185t-207.5 -72 q-118 0 -186.5 72.5t-68.5 194.5zM135 1259q12 242 156 242q33 0 68 -21t66 -50.5l62 -59t65 -50.5t66 -21q20 0 37 8t28 17.5t20 30t13.5 33t9 40t6 38t4.5 37.5h35q-2 -46 -8 -82t-20.5 -76.5t-46.5 -63.5t-78 -23q-37 0 -75 21t-69 50.5t-61 59t-63 50.5t-63 21 q-32 0 -55 -17.5t-35 -50t-18 -58t-11 -61.5q-1 -10 -2 -15z" />
<glyph unicode="&#xe4;" d="M79 284q0 -139 81.5 -223t218.5 -84q36 0 78 10.5t93 34.5t101 73.5t86 117.5h2v-69q0 -156 103 -156h6q22 0 45 5v36q-57 -2 -73 6q-38 20 -38 116v418q0 86 -2 141t-9 117.5t-20.5 100t-37 75t-58 57.5t-83.5 32t-114 12q-60 0 -136.5 -23.5t-140.5 -72.5l22 -30 q129 86 255 86q72 0 121.5 -16.5t81 -46.5t48.5 -83.5t23.5 -116.5t6.5 -157h-110q-76 0 -145.5 -8t-146 -32t-131.5 -62.5t-91 -104.5t-36 -153zM123 284q0 60 20 109t51 81.5t77 57t90.5 38t98.5 21.5t94.5 10t85.5 2h99l-2 -329q-58 -113 -151.5 -185t-207.5 -72 q-118 0 -186.5 72.5t-68.5 194.5zM202 1363q0 32 19.5 50.5t51.5 18.5q28 0 49.5 -20.5t21.5 -48.5q0 -30 -20.5 -49.5t-50.5 -19.5q-32 0 -51.5 19t-19.5 50zM577 1363q0 32 19.5 50.5t51.5 18.5q29 0 50 -20.5t21 -48.5q0 -30 -20.5 -49.5t-50.5 -19.5q-31 0 -51 19 t-20 50z" />
<glyph unicode="&#xe5;" d="M79 284q0 -139 81.5 -223t218.5 -84q36 0 78 10.5t93 34.5t101 73.5t86 117.5h2v-69q0 -156 103 -156h6q22 0 45 5v36q-57 -2 -73 6q-38 20 -38 116v418q0 86 -2 141t-9 117.5t-20.5 100t-37 75t-58 57.5t-83.5 32t-114 12q-60 0 -136.5 -23.5t-140.5 -72.5l22 -30 q129 86 255 86q72 0 121.5 -16.5t81 -46.5t48.5 -83.5t23.5 -116.5t6.5 -157h-110q-76 0 -145.5 -8t-146 -32t-131.5 -62.5t-91 -104.5t-36 -153zM123 284q0 60 20 109t51 81.5t77 57t90.5 38t98.5 21.5t94.5 10t85.5 2h99l-2 -329q-58 -113 -151.5 -185t-207.5 -72 q-118 0 -186.5 72.5t-68.5 194.5zM278 1458q0 85 58.5 146.5t137.5 61.5q81 0 139.5 -61.5t58.5 -146.5q0 -88 -58.5 -149.5t-139.5 -61.5q-79 0 -137.5 62t-58.5 149zM317 1458q0 -65 46 -119t111 -54q66 0 112 51.5t46 121.5q0 69 -47 119.5t-111 50.5q-61 0 -109 -52 t-48 -118z" />
<glyph unicode="&#xe6;" horiz-adv-x="1528" d="M80 288q0 50 12 91.5t30.5 71.5t50.5 53.5t61 39t74 26t78 16t83.5 8.5t81 3.5t79.5 0.5h38q10 151 57 263q-23 106 -83.5 155t-182.5 49q-124 0 -254 -88l-22 30q65 50 141.5 74t135.5 24q128 0 195 -47.5t95 -143.5q108 192 317 192q122 0 207 -69.5t124 -183.5 t39 -262v-35h-727q-10 -248 81 -394.5t270 -146.5q101 0 173.5 37t128.5 116l29 -22q-55 -85 -135 -127.5t-201 -42.5q-228 0 -329 219q-36 -65 -84.5 -111.5t-98 -68t-89 -30.5t-74.5 -9q-137 0 -219 86.5t-82 225.5zM124 288q0 -123 69 -197.5t187 -74.5q103 0 190 59 t143 156q-47 125 -47 287v39h-24h-35q-35 2 -74 0t-79.5 -3t-80.5 -9.5t-76.5 -19.5t-68 -32t-55 -48t-36.5 -67t-13 -90zM711 598h683q0 90 -17.5 169.5t-54.5 148t-102 109t-152 40.5q-91 0 -162.5 -44.5t-112 -115.5t-61.5 -149.5t-21 -157.5z" />
<glyph unicode="&#xe7;" horiz-adv-x="861" d="M90 531q0 164 45 291.5t140 204.5t228 77q76 0 150.5 -37.5t128.5 -115.5l-28 -22q-55 70 -122.5 102t-128.5 32q-93 0 -165.5 -44t-115.5 -120t-64.5 -169t-21.5 -198q0 -231 95.5 -372.5t274.5 -141.5q64 0 134 34.5t122 105.5l32 -24q-53 -79 -129 -117.5t-155 -40.5 h-3l-35 -95q96 13 158.5 -28.5t63.5 -115.5q1 -89 -55 -135t-136 -46q-72 0 -155 50l11 38q86 -47 144 -47q23 0 45.5 5.5t47 19.5t40 43t15.5 70q0 53 -43.5 80.5t-101.5 27.5h-56l-26 27l40 108q-182 16 -278 166t-96 387z" />
<glyph unicode="&#xe8;" horiz-adv-x="951" d="M89 517q0 -109 22.5 -203t67.5 -171t122 -121.5t178 -44.5q121 0 201.5 42.5t135.5 126.5l-30 22q-56 -78 -128.5 -115t-173.5 -37q-178 0 -269 144.5t-82 384.5h727v35q0 153 -39 269t-124 185.5t-207 69.5q-183 0 -292 -154t-109 -433zM134 587q2 69 15 134.5 t40.5 128.5t67.5 109.5t100.5 75t133.5 28.5q87 0 152.5 -40t102.5 -109t54.5 -151t17.5 -176h-684zM271 1559h52l198 -323h-48z" />
<glyph unicode="&#xe9;" horiz-adv-x="951" d="M89 517q0 -109 22.5 -203t67.5 -171t122 -121.5t178 -44.5q121 0 201.5 42.5t135.5 126.5l-30 22q-56 -78 -128.5 -115t-173.5 -37q-178 0 -269 144.5t-82 384.5h727v35q0 153 -39 269t-124 185.5t-207 69.5q-183 0 -292 -154t-109 -433zM134 587q2 69 15 134.5 t40.5 128.5t67.5 109.5t100.5 75t133.5 28.5q87 0 152.5 -40t102.5 -109t54.5 -151t17.5 -176h-684zM457 1236l198 323h52l-202 -323h-48z" />
<glyph unicode="&#xea;" horiz-adv-x="951" d="M89 517q0 -109 22.5 -203t67.5 -171t122 -121.5t178 -44.5q121 0 201.5 42.5t135.5 126.5l-30 22q-56 -78 -128.5 -115t-173.5 -37q-178 0 -269 144.5t-82 384.5h727v35q0 153 -39 269t-124 185.5t-207 69.5q-183 0 -292 -154t-109 -433zM134 587q2 69 15 134.5 t40.5 128.5t67.5 109.5t100.5 75t133.5 28.5q87 0 152.5 -40t102.5 -109t54.5 -151t17.5 -176h-684zM247 1224l227 335h49l227 -335h-50l-201 294l-200 -294h-52z" />
<glyph unicode="&#xeb;" horiz-adv-x="951" d="M89 517q0 -109 22.5 -203t67.5 -171t122 -121.5t178 -44.5q121 0 201.5 42.5t135.5 126.5l-30 22q-56 -78 -128.5 -115t-173.5 -37q-178 0 -269 144.5t-82 384.5h727v35q0 153 -39 269t-124 185.5t-207 69.5q-183 0 -292 -154t-109 -433zM134 587q2 69 15 134.5 t40.5 128.5t67.5 109.5t100.5 75t133.5 28.5q87 0 152.5 -40t102.5 -109t54.5 -151t17.5 -176h-684zM233 1363q0 32 19.5 50.5t51.5 18.5q28 0 49.5 -20.5t21.5 -48.5q0 -30 -20.5 -49.5t-50.5 -19.5q-32 0 -51.5 19t-19.5 50zM608 1363q0 32 19.5 50.5t51.5 18.5 q29 0 50 -20.5t21 -48.5q0 -30 -20.5 -49.5t-50.5 -19.5q-31 0 -51 19t-20 50z" />
<glyph unicode="&#xec;" horiz-adv-x="378" d="M-65 1559h52l198 -323h-48zM60 1052h127v-1052h43v1094h-170v-42z" />
<glyph unicode="&#xed;" horiz-adv-x="370" d="M60 1052h127v-1052h43v1094h-170v-42zM151 1236l198 323h52l-202 -323h-48z" />
<glyph unicode="&#xee;" horiz-adv-x="372" d="M-69 1224l227 335h49l227 -335h-50l-201 294l-200 -294h-52zM60 1052h127v-1052h43v1094h-170v-42z" />
<glyph unicode="&#xef;" horiz-adv-x="374" d="M-81 1363q0 32 19.5 50.5t51.5 18.5q28 0 49.5 -20.5t21.5 -48.5q0 -30 -20.5 -49.5t-50.5 -19.5q-32 0 -51.5 19t-19.5 50zM60 1052h127v-1052h43v1094h-170v-42zM294 1363q0 32 19.5 50.5t51.5 18.5q29 0 50 -20.5t21 -48.5q0 -30 -20.5 -49.5t-50.5 -19.5 q-31 0 -51 19t-20 50z" />
<glyph unicode="&#xf0;" horiz-adv-x="1002" d="M88 477q0 131 46.5 245t137 185.5t205.5 71.5q27 0 55.5 -4.5t71.5 -20.5t82.5 -42t83.5 -74.5t80 -112.5h3q-23 139 -121.5 292.5t-230.5 277.5l-290 -156l-15 31l278 149q-119 91 -226 148l6 36q101 -53 254 -167l229 123l15 -30l-217 -117q194 -185 285 -369.5 t91 -400.5q0 -117 -25 -218t-74.5 -180t-130 -124t-184.5 -45q-126 0 -220.5 70t-141.5 183t-47 249zM131 476q0 -82 23 -161.5t66.5 -147t115.5 -109t160 -41.5q77 0 141.5 30.5t106 79.5t70.5 113t41.5 128.5t12.5 128.5q0 80 -18.5 146.5t-67.5 131.5q-43 56 -122 108.5 t-163 52.5q-94 0 -167 -41.5t-115 -109.5t-63 -146.5t-21 -162.5z" />
<glyph unicode="&#xf1;" horiz-adv-x="1010" d="M147 0h42v725q23 51 46 93t58.5 90.5t74 81t90.5 54.5t110 22q261 0 261 -365v-701h43v700q0 406 -303 406q-108 0 -207 -72.5t-172 -235.5v296h-43v-1094zM195 1259q12 242 156 242q33 0 68 -21t66 -50.5l62 -59t65 -50.5t66 -21q20 0 37 8t28 17.5t20 30t13.5 33t9 40 t6 38t4.5 37.5h35q-2 -46 -8 -82t-20.5 -76.5t-46.5 -63.5t-78 -23q-37 0 -75 21t-69 50.5t-61 59t-63 50.5t-63 21q-32 0 -55 -17.5t-35 -50t-18 -58t-11 -61.5q-1 -10 -2 -15z" />
<glyph unicode="&#xf2;" horiz-adv-x="989" d="M90 542q0 -111 25 -211t73.5 -180t128 -127.5t179.5 -47.5q99 0 177 46.5t126.5 126t73.5 180t25 214.5q0 83 -12.5 161t-42.5 152t-74.5 128.5t-113.5 88t-154 33.5q-83 0 -152 -33.5t-116 -89.5t-80 -129.5t-48 -152t-15 -159.5zM133 543q0 65 11.5 133t39 139 t68.5 125.5t105.5 89.5t143.5 35q67 0 122.5 -23t93 -64t65 -91.5t43 -111t22.5 -118t7 -116.5q0 -97 -20 -186t-61 -166.5t-112.5 -124t-165.5 -46.5q-90 0 -161.5 44.5t-114 119.5t-64.5 167t-22 194zM278 1559h52l198 -323h-48z" />
<glyph unicode="&#xf3;" horiz-adv-x="989" d="M90 542q0 -111 25 -211t73.5 -180t128 -127.5t179.5 -47.5q99 0 177 46.5t126.5 126t73.5 180t25 214.5q0 83 -12.5 161t-42.5 152t-74.5 128.5t-113.5 88t-154 33.5q-83 0 -152 -33.5t-116 -89.5t-80 -129.5t-48 -152t-15 -159.5zM133 543q0 65 11.5 133t39 139 t68.5 125.5t105.5 89.5t143.5 35q67 0 122.5 -23t93 -64t65 -91.5t43 -111t22.5 -118t7 -116.5q0 -97 -20 -186t-61 -166.5t-112.5 -124t-165.5 -46.5q-90 0 -161.5 44.5t-114 119.5t-64.5 167t-22 194zM454 1236l198 323h52l-202 -323h-48z" />
<glyph unicode="&#xf4;" horiz-adv-x="989" d="M90 542q0 -111 25 -211t73.5 -180t128 -127.5t179.5 -47.5q99 0 177 46.5t126.5 126t73.5 180t25 214.5q0 83 -12.5 161t-42.5 152t-74.5 128.5t-113.5 88t-154 33.5q-83 0 -152 -33.5t-116 -89.5t-80 -129.5t-48 -152t-15 -159.5zM133 543q0 65 11.5 133t39 139 t68.5 125.5t105.5 89.5t143.5 35q67 0 122.5 -23t93 -64t65 -91.5t43 -111t22.5 -118t7 -116.5q0 -97 -20 -186t-61 -166.5t-112.5 -124t-165.5 -46.5q-90 0 -161.5 44.5t-114 119.5t-64.5 167t-22 194zM244 1224l227 335h49l227 -335h-50l-201 294l-200 -294h-52z" />
<glyph unicode="&#xf5;" horiz-adv-x="989" d="M90 542q0 -111 25 -211t73.5 -180t128 -127.5t179.5 -47.5q99 0 177 46.5t126.5 126t73.5 180t25 214.5q0 83 -12.5 161t-42.5 152t-74.5 128.5t-113.5 88t-154 33.5q-83 0 -152 -33.5t-116 -89.5t-80 -129.5t-48 -152t-15 -159.5zM133 543q0 65 11.5 133t39 139 t68.5 125.5t105.5 89.5t143.5 35q67 0 122.5 -23t93 -64t65 -91.5t43 -111t22.5 -118t7 -116.5q0 -97 -20 -186t-61 -166.5t-112.5 -124t-165.5 -46.5q-90 0 -161.5 44.5t-114 119.5t-64.5 167t-22 194zM193 1259q12 242 156 242q33 0 68 -21t66 -50.5l62 -59t65 -50.5 t66 -21q20 0 37 8t28 17.5t20 30t13.5 33t9 40t6 38t4.5 37.5h35q-2 -46 -8 -82t-20.5 -76.5t-46.5 -63.5t-78 -23q-37 0 -75 21t-69 50.5t-61 59t-63 50.5t-63 21q-32 0 -55 -17.5t-35 -50t-18 -58t-11 -61.5q-1 -10 -2 -15z" />
<glyph unicode="&#xf6;" horiz-adv-x="989" d="M90 542q0 -111 25 -211t73.5 -180t128 -127.5t179.5 -47.5q99 0 177 46.5t126.5 126t73.5 180t25 214.5q0 83 -12.5 161t-42.5 152t-74.5 128.5t-113.5 88t-154 33.5q-83 0 -152 -33.5t-116 -89.5t-80 -129.5t-48 -152t-15 -159.5zM133 543q0 65 11.5 133t39 139 t68.5 125.5t105.5 89.5t143.5 35q67 0 122.5 -23t93 -64t65 -91.5t43 -111t22.5 -118t7 -116.5q0 -97 -20 -186t-61 -166.5t-112.5 -124t-165.5 -46.5q-90 0 -161.5 44.5t-114 119.5t-64.5 167t-22 194zM240 1363q0 32 19.5 50.5t51.5 18.5q28 0 49.5 -20.5t21.5 -48.5 q0 -30 -20.5 -49.5t-50.5 -19.5q-32 0 -51.5 19t-19.5 50zM615 1363q0 32 19.5 50.5t51.5 18.5q29 0 50 -20.5t21 -48.5q0 -30 -20.5 -49.5t-50.5 -19.5q-31 0 -51 19t-20 50z" />
<glyph unicode="&#xf7;" horiz-adv-x="1286" d="M165 680v39h956v-39h-956zM568 334q0 34 24 54t52 20q26 0 51.5 -22t25.5 -52q0 -33 -25 -54.5t-52 -21.5q-28 0 -52 21t-24 55zM568 1069q0 35 24 55t52 20q27 0 52 -21.5t25 -53.5q0 -33 -25 -53.5t-52 -20.5q-28 0 -52 20t-24 54z" />
<glyph unicode="&#xf8;" horiz-adv-x="994" d="M-16 -20l183 209q-77 148 -77 353q0 81 14.5 159t47 150.5t78.5 127.5t115 88t151 33q205 0 311 -179q81 89 174 196l29 -26q-17 -19 -84.5 -97t-97.5 -112q70 -143 70 -339q0 -114 -25 -214.5t-73.5 -179.5t-126.5 -125.5t-177 -46.5q-196 0 -307 174q-16 -18 -53.5 -60 t-69 -77t-53.5 -60zM133 543q0 -185 64 -319l580 662q-95 173 -281 173q-79 0 -143 -34.5t-104 -88t-67 -123.5t-38 -137t-11 -133zM218 185q98 -166 277 -166q94 0 165.5 46.5t112.5 123.5t61 166t20 186q0 173 -57 305q-439 -502 -579 -661z" />
<glyph unicode="&#xf9;" horiz-adv-x="1001" d="M135 398q0 -89 15 -161t48 -133t94 -94.5t146 -33.5q230 0 379 313v-289h44v1094h-43v-731q-30 -67 -60.5 -119t-77 -108.5t-108.5 -88t-133 -31.5q-65 0 -113.5 25t-76 63t-44.5 91.5t-22 100.5t-5 101v697h-43v-696zM264 1559h52l198 -323h-48z" />
<glyph unicode="&#xfa;" horiz-adv-x="1001" d="M135 398q0 -89 15 -161t48 -133t94 -94.5t146 -33.5q230 0 379 313v-289h44v1094h-43v-731q-30 -67 -60.5 -119t-77 -108.5t-108.5 -88t-133 -31.5q-65 0 -113.5 25t-76 63t-44.5 91.5t-22 100.5t-5 101v697h-43v-696zM450 1236l198 323h52l-202 -323h-48z" />
<glyph unicode="&#xfb;" horiz-adv-x="1001" d="M135 398q0 -89 15 -161t48 -133t94 -94.5t146 -33.5q230 0 379 313v-289h44v1094h-43v-731q-30 -67 -60.5 -119t-77 -108.5t-108.5 -88t-133 -31.5q-65 0 -113.5 25t-76 63t-44.5 91.5t-22 100.5t-5 101v697h-43v-696zM250 1224l227 335h49l227 -335h-50l-201 294 l-200 -294h-52z" />
<glyph unicode="&#xfc;" horiz-adv-x="1001" d="M135 398q0 -89 15 -161t48 -133t94 -94.5t146 -33.5q230 0 379 313v-289h44v1094h-43v-731q-30 -67 -60.5 -119t-77 -108.5t-108.5 -88t-133 -31.5q-65 0 -113.5 25t-76 63t-44.5 91.5t-22 100.5t-5 101v697h-43v-696zM243 1363q0 32 19.5 50.5t51.5 18.5q29 0 50 -20.5 t21 -48.5q0 -30 -20.5 -49.5t-50.5 -19.5q-31 0 -51 19t-20 50zM619 1363q0 32 19.5 50.5t51.5 18.5q28 0 49.5 -20.5t21.5 -48.5q0 -30 -20.5 -49.5t-50.5 -19.5q-32 0 -51.5 19t-19.5 50z" />
<glyph unicode="&#xfd;" horiz-adv-x="788" d="M19 1094l371 -1087q-10 -35 -26.5 -86.5t-20.5 -65.5q-33 -105 -48 -133q-33 -63 -71.5 -85t-111.5 -22q-18 0 -40 5l-5 -43q38 -5 46 -5q61 0 104 15.5t72.5 51t48.5 76.5t39 107l397 1272h-46l-315 -1019l-348 1019h-46zM383 1236l198 323h52l-202 -323h-48z" />
<glyph unicode="&#xfe;" horiz-adv-x="1110" d="M147 -391v1914l43 17v-717q78 133 180 205.5t212 72.5q89 0 158.5 -34t113 -89t72 -129.5t39.5 -148.5t11 -154q0 -79 -14 -156.5t-45.5 -152.5t-77 -132t-114 -92t-151.5 -35q-128 0 -214.5 69.5t-170.5 228.5l1 -650zM189 358q156 -341 384 -341q75 0 137 35t102.5 90 t68 126.5t39.5 141t12 136.5q0 73 -10 142t-35.5 138t-64 120t-100.5 83t-141 32q-118 0 -220.5 -87t-171.5 -219v-397z" />
<glyph unicode="&#xff;" horiz-adv-x="788" d="M19 1094l371 -1087q-10 -35 -26.5 -86.5t-20.5 -65.5q-33 -105 -48 -133q-33 -63 -71.5 -85t-111.5 -22q-18 0 -40 5l-5 -43q38 -5 46 -5q61 0 104 15.5t72.5 51t48.5 76.5t39 107l397 1272h-46l-315 -1019l-348 1019h-46zM143 1363q0 32 19.5 50.5t51.5 18.5 q29 0 50 -20.5t21 -48.5q0 -30 -20.5 -49.5t-50.5 -19.5q-31 0 -51 19t-20 50zM519 1363q0 32 19.5 50.5t51.5 18.5q28 0 49.5 -20.5t21.5 -48.5q0 -30 -20.5 -49.5t-50.5 -19.5q-32 0 -51.5 19t-19.5 50z" />
<glyph unicode="&#x152;" horiz-adv-x="1736" d="M114 759q0 149 34.5 285t98.5 243t165 171t224 64q75 0 230 -18h769l-2 -42h-743v-673h646l-2 -42h-644v-705h754l-2 -42h-771q-39 -11 -112.5 -19.5t-121.5 -8.5q-111 0 -201 45t-149 120t-99 177.5t-57 213t-17 231.5zM158 759q0 -63 5.5 -127.5t20.5 -139.5t38 -141.5 t60.5 -129t86 -108t117.5 -72.5t151 -27q113 0 209 22v1428q-133 15 -210 15q-91 0 -167 -37t-126.5 -100t-88 -138t-57.5 -158.5t-29.5 -154.5t-9.5 -132z" />
<glyph unicode="&#x153;" horiz-adv-x="1634" d="M90 546q0 102 24 198.5t71.5 179.5t128 133t182.5 50q122 0 206.5 -63.5t132.5 -172.5q52 115 138.5 175t199.5 60q122 0 207 -69.5t124 -185.5t39 -270v-35h-727q-9 -241 82 -386t269 -145q101 0 173.5 37t128.5 116l29 -22q-55 -85 -135 -127.5t-201 -42.5 q-233 0 -333 230q-52 -106 -136 -168t-197 -62q-100 0 -179.5 48t-128 129t-73.5 181.5t-25 211.5zM133 547q0 -102 22 -194.5t64.5 -168.5t114 -121t161.5 -45q112 0 190.5 67t122.5 177q-36 112 -36 256q0 172 43 299q-41 112 -120 180.5t-199 68.5q-79 0 -143 -34.5 t-104 -88.5t-67 -125t-38 -138t-11 -133zM817 588h683q0 95 -17.5 177t-54.5 151t-102 109t-152 40q-73 0 -133.5 -28.5t-100.5 -75t-67.5 -109.5t-40.5 -128.5t-15 -135.5z" />
<glyph unicode="&#x178;" horiz-adv-x="960" d="M12 1504h51l420 -851l415 851h50l-444 -908v-596h-44v601zM228 1728q0 32 19.5 50.5t51.5 18.5q28 0 49.5 -20.5t21.5 -48.5q0 -30 -20.5 -49.5t-50.5 -19.5q-32 0 -51.5 18.5t-19.5 50.5zM603 1728q0 32 19.5 50.5t51.5 18.5q29 0 50 -20.5t21 -48.5q0 -30 -20.5 -49.5 t-50.5 -19.5q-31 0 -51 18.5t-20 50.5z" />
<glyph unicode="&#x2c6;" horiz-adv-x="904" d="M182 1224l227 335h49l227 -335h-50l-201 294l-200 -294h-52z" />
<glyph unicode="&#x2dc;" horiz-adv-x="756" d="M55 1249q2 38 5.5 68t14 67t27 61.5t45.5 41.5t67 17q27 0 58 -15t52.5 -31t56.5 -46q57 -48 81 -64q44 -29 80 -29q59 0 86 62q11 24 19 62q1 3 12 68l42 2q-2 -38 -5.5 -68.5t-14 -68t-27 -62t-45.5 -41.5t-67 -17q-45 0 -85.5 24t-91.5 68q-61 54 -77 65 q-43 29 -76 29q-82 0 -110 -133q-2 -11 -10 -61z" />
<glyph unicode="&#x2000;" horiz-adv-x="969" />
<glyph unicode="&#x2001;" horiz-adv-x="1938" />
<glyph unicode="&#x2002;" horiz-adv-x="969" />
<glyph unicode="&#x2003;" horiz-adv-x="1938" />
<glyph unicode="&#x2004;" horiz-adv-x="646" />
<glyph unicode="&#x2005;" horiz-adv-x="484" />
<glyph unicode="&#x2006;" horiz-adv-x="323" />
<glyph unicode="&#x2007;" horiz-adv-x="323" />
<glyph unicode="&#x2008;" horiz-adv-x="242" />
<glyph unicode="&#x2009;" horiz-adv-x="387" />
<glyph unicode="&#x200a;" horiz-adv-x="107" />
<glyph unicode="&#x2010;" horiz-adv-x="628" d="M103 700v40h422l-1 -40h-421z" />
<glyph unicode="&#x2011;" horiz-adv-x="628" d="M103 700v40h422l-1 -40h-421z" />
<glyph unicode="&#x2012;" horiz-adv-x="628" d="M103 700v40h422l-1 -40h-421z" />
<glyph unicode="&#x2013;" horiz-adv-x="1159" d="M103 699v40h944v-40h-944z" />
<glyph unicode="&#x2014;" horiz-adv-x="1994" d="M103 701v39h1786v-39h-1786z" />
<glyph unicode="&#x2018;" horiz-adv-x="357" d="M122 934l49 573h32l-33 -573h-48z" />
<glyph unicode="&#x2019;" horiz-adv-x="357" d="M154 932l33 573h48l-48 -573h-33z" />
<glyph unicode="&#x201a;" horiz-adv-x="357" d="M154 -337l33 573h48l-49 -573h-32z" />
<glyph unicode="&#x201c;" horiz-adv-x="707" d="M122 934l49 573h32l-33 -573h-48zM472 934l49 573h32l-33 -573h-48z" />
<glyph unicode="&#x201d;" horiz-adv-x="739" d="M154 932l33 573h48l-48 -573h-33zM504 932l33 573h48l-48 -573h-33z" />
<glyph unicode="&#x201e;" horiz-adv-x="708" d="M154 -335l34 573h48l-49 -573h-33zM504 -335l34 573h48l-49 -573h-33z" />
<glyph unicode="&#x2022;" horiz-adv-x="750" d="M165 750q0 87 62 150.5t148 63.5q87 0 148.5 -63.5t61.5 -150.5t-61.5 -149t-148.5 -62t-148.5 62t-61.5 149z" />
<glyph unicode="&#x2026;" horiz-adv-x="1330" d="M114 43q0 32 20 50.5t51 18.5q29 0 50 -20.5t21 -48.5q0 -30 -20.5 -49.5t-50.5 -19.5q-31 0 -51 19t-20 50zM594 43q0 32 20 50.5t51 18.5q29 0 50 -20.5t21 -48.5q0 -30 -20.5 -49.5t-50.5 -19.5q-31 0 -51 19t-20 50zM1074 43q0 32 20 50.5t51 18.5q29 0 50 -20.5 t21 -48.5q0 -30 -20.5 -49.5t-50.5 -19.5q-31 0 -51 19t-20 50z" />
<glyph unicode="&#x202f;" horiz-adv-x="387" />
<glyph unicode="&#x2030;" horiz-adv-x="2624" d="M122 1078q0 120 28.5 217.5t93 161.5t156.5 64q68 0 122 -36.5t86.5 -99t49.5 -140.5t17 -166q0 -194 -71 -316.5t-209 -122.5q-89 0 -152.5 61.5t-92 158.5t-28.5 218zM167 1078q0 -79 13 -148t39.5 -125.5t71.5 -89.5t104 -33q62 0 108.5 31.5t73.5 87t39.5 125 t12.5 153.5q0 81 -13 151.5t-39 128.5t-71 91t-104 33q-79 0 -133.5 -59.5t-78 -148.5t-23.5 -197zM573 0l678 1502h46l-678 -1502h-46zM1181 411q0 120 28.5 217.5t93 161t156.5 63.5q90 0 154 -64t92 -161.5t28 -216.5q0 -126 -29 -222.5t-93 -156.5t-157 -60 q-89 0 -152.5 62t-92 159t-28.5 218zM1225 411q0 -108 22.5 -194.5t75.5 -144.5t131 -58q62 0 108.5 31.5t73.5 87t39.5 125t12.5 153.5q0 111 -21.5 198.5t-74.5 146.5t-132 59q-78 0 -133 -59.5t-78.5 -148t-23.5 -196.5zM1981 411q0 120 28.5 217.5t93 161t156.5 63.5 q90 0 154 -64t92 -161.5t28 -216.5q0 -126 -29 -222.5t-93 -156.5t-157 -60q-89 0 -152.5 62t-92 159t-28.5 218zM2025 411q0 -108 22.5 -194.5t75.5 -144.5t131 -58q62 0 108.5 31.5t73.5 87t39.5 125t12.5 153.5q0 111 -21.5 198.5t-74.5 146.5t-132 59q-78 0 -133 -59.5 t-78.5 -148t-23.5 -196.5z" />
<glyph unicode="&#x2039;" horiz-adv-x="585" d="M56 536l362 515h51l-362 -514l376 -537h-53z" />
<glyph unicode="&#x203a;" horiz-adv-x="577" d="M91 0l376 537l-363 514h52l361 -515l-374 -536h-52z" />
<glyph unicode="&#x205f;" horiz-adv-x="484" />
<glyph unicode="&#x20ac;" horiz-adv-x="1096" d="M19 545l7 41l179 -1q-7 70 -7 155q0 84 9 163h-167l7 41h165q25 172 90.5 299.5t178 202.5t260.5 75q71 0 145.5 -34t127.5 -106l-32 -23q-53 65 -121 92.5t-124 27.5q-195 0 -319 -147t-162 -387h511l-7 -41h-510q-9 -78 -9 -161q0 -77 8 -157l471 -2l-7 -41l-459 2 q17 -116 53 -211t92 -167t135 -112t176 -40q83 0 155.5 23t153.5 88l22 -31q-134 -123 -329 -123q-109 0 -197.5 43t-149.5 121t-99.5 180.5t-55.5 228.5z" />
<glyph unicode="&#x2122;" horiz-adv-x="1480" d="M42 1469v37h493v-37h-223v-812h-42v812h-228zM732 657v849h59l270 -608l266 608h62v-849h-39v809l-66 -154l-210 -471h-28l-209 472l-66 150v-806h-39z" />
<glyph unicode="&#x2190;" horiz-adv-x="1246" d="M99 690l452 485l23 -28l-401 -435h974v-43h-976l403 -440l-23 -24z" />
<glyph unicode="&#x2191;" horiz-adv-x="1167" d="M99 704l484 453l485 -451l-25 -24l-440 403v-974h-41v974l-436 -403z" />
<glyph unicode="&#x2192;" horiz-adv-x="1245" d="M99 669v43h973l-402 435l23 28l453 -485l-453 -485l-23 24l404 440h-975z" />
<glyph unicode="&#x2193;" horiz-adv-x="1168" d="M99 583l24 23l441 -403v976h43v-974l434 401l28 -23l-485 -452z" />
<glyph unicode="&#x25fc;" horiz-adv-x="1095" d="M0 0v1095h1095v-1095h-1095z" />
<glyph horiz-adv-x="841" d="M87 952l349 141h47v-1053h264v-41h-594v41h287v1010l-342 -137z" />
<glyph horiz-adv-x="840" d="M111 -1v27q0 88 31.5 165t81.5 132.5t110.5 105.5t121 93.5t110.5 86t81.5 94.5t31.5 109q0 114 -70.5 187t-189.5 73q-145 0 -248 -127l-33 27q120 139 283 139q133 0 217 -85t84 -214q0 -63 -31.5 -119.5t-81.5 -101.5t-110.5 -89t-121 -92t-110.5 -99.5t-81.5 -122 t-31.5 -150.5h557v-39h-600z" />
<glyph horiz-adv-x="862" d="M89 -11l24 21q105 -129 275 -129q89 0 156 29.5t105 79t56.5 108.5t18.5 125q0 140 -79.5 215t-203.5 75h-78v41h80q49 0 89 17t65.5 44t43 63.5t25 73.5t7.5 75q0 113 -72.5 179t-188.5 66q-157 0 -258 -118l-24 20q57 72 132.5 104.5t149.5 32.5q76 0 143 -30 t112.5 -96t45.5 -156q0 -222 -176 -289v-4q107 -26 168.5 -112.5t61.5 -200.5q0 -175 -102.5 -279t-274.5 -104q-86 0 -166 36.5t-135 112.5z" />
<glyph horiz-adv-x="940" d="M37 163v41l616 889h43v-891h154v-39h-154v-313h-43v313h-616zM82 202h571v821q-13 -19 -142 -205.5t-251.5 -363t-177.5 -252.5z" />
<glyph horiz-adv-x="904" d="M118 -9l27 25q108 -135 260 -135q83 0 148 31.5t102.5 83.5t56 111t18.5 120q0 164 -76.5 255t-195.5 91q-125 0 -250 -84l-45 16l35 588h500v-39h-461l-33 -528q114 86 252 86q134 0 226.5 -100t92.5 -283q0 -176 -105 -282.5t-265 -106.5q-80 0 -156.5 37.5 t-130.5 113.5z" />
<glyph horiz-adv-x="914" d="M114 385q0 93 7.5 176.5t24 168.5t47 152t72.5 120.5t104 82.5t139 29q66 0 126 -30t103 -81l-25 -18q-91 88 -206 88q-351 0 -351 -698q4 -2 6 -2q30 64 75.5 109.5t93.5 66.5t85.5 29.5t69.5 8.5q158 0 249 -96t91 -268q0 -179 -96 -284t-254 -105q-99 0 -171 43.5 t-112.5 121.5t-59 173.5t-18.5 212.5zM170 246q0 -161 83.5 -266t221.5 -105q148 0 227.5 97t79.5 249q0 158 -78 243t-217 85q-78 0 -150.5 -38.5t-119.5 -109t-47 -155.5z" />
<glyph horiz-adv-x="746" d="M76 913v39h600v-55q-106 -349 -413 -1184h-41q217 597 419 1200h-565z" />
<glyph horiz-adv-x="968" d="M113 170q0 53 16 107.5t46 103.5t80.5 84t112.5 43v4q-71 15 -119.5 66t-67.5 107.5t-19 112.5q0 141 93 227.5t230 86.5t228 -84.5t91 -225.5q0 -55 -18.5 -110t-66.5 -107t-119 -73v-2q116 -22 186 -125t70 -215q0 -156 -104.5 -248t-266.5 -92q-161 0 -266.5 90.5 t-105.5 249.5zM153 172q0 -81 30 -142t79.5 -94.5t105.5 -50t117 -16.5q44 0 87.5 9t87.5 31t77.5 55t54.5 86t21 118q0 106 -47 180.5t-120 107.5t-163 33q-67 0 -125 -18.5t-104.5 -56t-73.5 -99.5t-27 -143zM205 798q0 -91 39.5 -153t101 -88.5t139.5 -26.5 q118 0 197 71.5t79 200.5q0 68 -24.5 121.5t-65 85t-88 48t-98.5 16.5q-52 0 -101 -17t-89.5 -50t-65 -87t-24.5 -121z" />
<glyph horiz-adv-x="905" d="M89 608q0 156 99 259t245 103q172 0 264.5 -136.5t92.5 -352.5q0 -93 -4 -172t-15 -161t-29 -147t-47 -123.5t-68 -97t-94 -61t-122 -22.5q-134 0 -240 94l33 23q92 -78 211 -78q68 0 121.5 27.5t89.5 79.5t61 116.5t38 149.5t18.5 167.5t5.5 180.5l-9 2q-21 -53 -55 -93 t-68 -61.5t-72.5 -35t-65.5 -17.5t-50 -4q-158 0 -249 98.5t-91 261.5zM130 606q0 -148 81 -232.5t218 -84.5q115 0 209 83t94 211q0 155 -86.5 251.5t-210.5 96.5q-129 0 -217 -89.5t-88 -235.5z" />
<glyph horiz-adv-x="984" d="M98 544q0 82 13 160.5t43.5 153t75 130t112 89.5t149.5 34q86 0 155 -33.5t113 -88.5t73.5 -130t41.5 -153t12 -162q0 -109 -24 -208.5t-70.5 -181.5t-124 -130.5t-176.5 -48.5q-80 0 -147 33.5t-111.5 89t-75.5 129.5t-45 154t-14 163zM143 544q0 -75 12 -148t39.5 -143 t66.5 -122.5t98.5 -84.5t131.5 -32q92 0 162.5 48.5t110 128.5t58.5 169.5t19 183.5q0 61 -7 120t-22 120t-42.5 111.5t-65 91t-92 63t-121.5 22.5q-65 0 -119.5 -24.5t-91.5 -67t-64.5 -95t-43 -113.5t-22.5 -117t-7 -111z" />
</font>
</defs>
</svg>
