<?xml version="1.0" standalone="no"?>
<!DOCTYPE svg PUBLIC "-//W3C//DTD SVG 1.1//EN" "http://www.w3.org/Graphics/SVG/1.1/DTD/svg11.dtd" >
<svg xmlns="http://www.w3.org/2000/svg">
<metadata></metadata>
<defs>
<font id="madraslight_italic" horiz-adv-x="1221" >
<font-face units-per-em="2048" ascent="1628" descent="-420" />
<missing-glyph horiz-adv-x="488" />
<glyph unicode="&#xfb00;" horiz-adv-x="1110" d="M181 0l213 1007h-169l18 87h169l40 185q27 128 114 202.5t210 74.5q61 0 125 -18l-43 -103q-51 10 -89 10q-83 0 -137 -51t-71 -130l-36 -170h407l40 185q27 128 114 202.5t210 74.5q61 0 125 -18l-43 -103q-51 10 -89 10q-83 0 -137 -51t-71 -130l-36 -170h229l-19 -87 h-227l-214 -1007h-113l213 1007h-406l-214 -1007h-113z" />
<glyph unicode="&#xfb01;" horiz-adv-x="971" d="M180 0l213 1007h-169l18 87h169l40 185q27 128 114 202.5t210 74.5q61 0 125 -18l-43 -103q-51 10 -89 10q-83 0 -137 -51t-71 -130l-36 -170h601l-231 -1094h-112l213 1007h-488l-214 -1007h-113zM1040 1400q9 40 44.5 69t72.5 29t60.5 -29t14.5 -69q-8 -40 -44 -69 t-73 -29t-60 29t-15 69z" />
<glyph unicode="&#xfb02;" horiz-adv-x="1068" d="M181 0l214 1007h-169l19 87h169l17 82q39 183 149 281.5t283 98.5q190 0 256.5 -90.5t23.5 -289.5l-199 -935q-16 -74 7 -112.5t97 -38.5q29 0 66 5l-7 -95q-50 -14 -93 -14q-131 0 -172 56t-12 190l201 943q31 146 -10 214.5t-180 68.5q-125 0 -199 -79.5t-100 -207.5 l-15 -77h228l-19 -87h-228l-214 -1007h-113z" />
<glyph unicode="&#xfb03;" horiz-adv-x="1521" d="M181 0l212 1006h-169l19 88h169l32 145q29 129 115 203t209 74q60 0 124 -18l-43 -103q-50 10 -89 10q-83 0 -137 -51t-70 -130l-28 -130h437l40 185q28 128 114.5 202.5t209.5 74.5q62 0 124 -18l-42 -103q-51 10 -89 10q-83 0 -137.5 -51t-70.5 -130l-36 -170h532 l-231 -1094h-112l212 1006h-419l-213 -1006h-113l212 1006h-436l-213 -1006h-113zM1525 1422q8 40 44 70.5t73 30.5t60 -30t15 -71q-9 -41 -45 -71.5t-73 -30.5t-60 30.5t-14 71.5z" />
<glyph unicode="&#xfb04;" horiz-adv-x="1618" d="M181 0l213 1007h-169l19 87h168l40 185q27 128 114 202.5t210 74.5q61 0 125 -18l-43 -103q-51 10 -89 10q-83 0 -137 -51t-71 -130l-36 -170h408l18 82q39 183 149 281.5t283 98.5q190 0 256.5 -90.5t23.5 -289.5l-199 -935q-16 -74 7 -112.5t97 -38.5q29 0 66 5l-7 -95 q-50 -14 -93 -14q-131 0 -172 56t-12 190l201 943q31 146 -10 214.5t-180 68.5q-125 0 -199 -79.5t-100 -207.5l-16 -77h228l-19 -87h-228l-213 -1007h-113l213 1007h-407l-213 -1007h-113z" />
<glyph unicode="ft" horiz-adv-x="1134" d="M181 0l214 1007h-168l17 87h169l39 185q27 128 114 202.5t210 74.5q61 0 125 -18l-43 -103q-51 10 -89 10q-83 0 -137 -51t-71 -130l-35 -170h425l48 222l118 43l-56 -265h246l-18 -87h-247l-159 -754q-17 -76 6.5 -119t111.5 -43q25 0 62 5l-7 -96q-52 -14 -94 -14 q-64 0 -107 13t-66 34t-31.5 54t-7 66.5t11.5 79.5l164 774h-418l-214 -1007h-113z" />
<glyph horiz-adv-x="0" />
<glyph horiz-adv-x="682" />
<glyph unicode=" "  horiz-adv-x="488" />
<glyph unicode="&#x09;" horiz-adv-x="488" />
<glyph unicode="&#xa0;" horiz-adv-x="488" />
<glyph unicode="!" horiz-adv-x="522" d="M160 96q10 50 54 86t94 36t78.5 -36t17.5 -86q-11 -51 -54.5 -86.5t-93.5 -35.5q-51 0 -79 35.5t-17 86.5zM301 429l33 194l188 881h121l-188 -882l-50 -193h-104z" />
<glyph unicode="&#x22;" horiz-adv-x="861" d="M377 832l105 673h168l-183 -673h-90zM747 832l105 673h168l-183 -673h-90z" />
<glyph unicode="#" horiz-adv-x="1347" d="M200 392l22 104h248l112 525h-248l22 104h248l81 380h112l-81 -380h393l81 380h111l-81 -380h248l-22 -104h-248l-112 -525h248l-22 -104h-248l-83 -392h-111l83 392h-393l-83 -392h-112l83 392h-248zM582 496h393l112 525h-393z" />
<glyph unicode="$" horiz-adv-x="1127" d="M140 199l107 63q99 -184 328 -184q146 0 256.5 84.5t140.5 226.5q15 70 1.5 121t-66 89t-88 54.5t-121.5 48.5q-45 17 -68.5 26.5t-64.5 28t-62.5 34.5t-51 40.5t-43 52t-25 62.5t-10.5 78.5t12 94.5q38 176 152.5 283t282.5 120l43 202h116l-44 -205q98 -15 174 -66.5 t114 -133.5l-97 -63q-85 161 -276 161q-129 0 -226 -89.5t-126 -219.5q-14 -66 1 -116.5t51.5 -81t87.5 -56.5t108.5 -43.5t115 -42.5t106.5 -53.5t83.5 -75.5t46 -109t-7.5 -154q-40 -190 -166.5 -290.5t-316.5 -112.5l-43 -200h-115l43 203q-119 12 -212 69.5t-140 153.5z " />
<glyph unicode="%" horiz-adv-x="1908" d="M322.5 930q2.5 64 17.5 133q19 90 54 169.5t85 145.5t120.5 104.5t152.5 38.5q81 0 134.5 -38.5t73.5 -102t22.5 -144.5t-18.5 -166q-20 -91 -54 -171t-84 -146.5t-120.5 -105t-152.5 -38.5q-64 0 -111 26t-73 69.5t-37.5 102.5t-9 123zM439 883q4 -79 40 -127.5 t99 -48.5q92 0 165 102.5t105 255.5q36 153 5 256t-123 103t-167.5 -102.5t-108.5 -258.5q-19 -101 -15 -180zM548 1l1032 1502h113l-1033 -1502h-112zM1243 260.5q-3 81.5 18 165.5q19 90 54 169.5t85 145t120.5 104t151.5 38.5t134.5 -38t74.5 -103t21.5 -143t-18.5 -167 q-19 -91 -53.5 -170.5t-84 -146t-120 -105t-153.5 -38.5q-79 0 -132.5 39.5t-74 103.5t-23.5 145.5zM1359.5 246q3.5 -79 39.5 -127.5t99 -48.5q92 0 164.5 102t105.5 256q35 153 5.5 256t-122.5 103q-92 0 -167.5 -103t-108.5 -258q-19 -101 -15.5 -180z" />
<glyph unicode="&#x26;" horiz-adv-x="1317" d="M200 383q13 61 43 116.5t67.5 98t94.5 86.5t109 76.5t126 73.5q-12 28 -33.5 72t-33.5 71.5t-19 54.5q-28 90 -7 198q29 132 133.5 211.5t235.5 79.5q40 0 81.5 -9.5t84 -29t78.5 -55.5t56 -84l-96 -61q-63 128 -217 128q-84 0 -147.5 -50.5t-81.5 -140.5 q-12 -41 -6.5 -86.5t16 -77.5t29.5 -73q6 -13 19 -38t17 -33l269 -512q96 146 165 335l102 -31q-91 -246 -206 -412l148 -291h-147q-5 9 -96 180q-216 -208 -453 -208q-180 0 -275.5 114t-55.5 297zM314 360q-25 -118 42.5 -200t177.5 -82q101 0 204.5 57t191.5 148 q-47 91 -128 240t-117 217q-52 -31 -84.5 -51t-77.5 -50.5t-74 -58.5t-59 -62.5t-48.5 -74t-27.5 -83.5z" />
<glyph unicode="'" horiz-adv-x="487" d="M375 832l105 673h168l-183 -673h-90z" />
<glyph unicode="(" horiz-adv-x="584" d="M219.5 344.5q1.5 119.5 27.5 242.5q50 236 192.5 486.5t321.5 446.5l36 -52q-155 -194 -270.5 -422.5t-162.5 -448.5q-84 -394 64 -829l-58 -52q-46 105 -76.5 196.5t-53 202t-21 230z" />
<glyph unicode=")" horiz-adv-x="584" d="M56 -232q332 432 415 819q46 232 29 460t-89 421l59 52q62 -127 100 -272t47 -312t-27 -328q-26 -124 -76.5 -246.5t-119.5 -236t-140.5 -210t-160.5 -199.5z" />
<glyph unicode="*" horiz-adv-x="633" d="M173 1269l13 58l251 -10l-97 253l61 32l72 -270l172 269l49 -33l-200 -249l253 8l-13 -58l-248 12l93 -256l-63 -32l-62 269l-181 -270l-48 33l204 256z" />
<glyph unicode="+" horiz-adv-x="1097" d="M240 652l19 93h403l92 429h99l-92 -429h392l-19 -93h-392l-93 -434h-99l93 434h-403z" />
<glyph unicode="," horiz-adv-x="421" d="M65 -228l121 473h165l-224 -473h-62z" />
<glyph unicode="-" horiz-adv-x="608" d="M236 673l24 115h421l-24 -115h-421z" />
<glyph unicode="." horiz-adv-x="458" d="M132 96q10 51 53.5 86.5t94.5 35.5q50 0 78 -35.5t18 -86.5q-10 -50 -54 -86t-94 -36t-78.5 36t-17.5 86z" />
<glyph unicode="/" horiz-adv-x="757" d="M11 -171l942 1781h98l-940 -1781h-100z" />
<glyph unicode="0" horiz-adv-x="1144" d="M217.5 463q3.5 80 13.5 148t26 142q16 72 35.5 140.5t50.5 147.5t68 146t87.5 130.5t108.5 108t133.5 71.5t159.5 27q80 0 141.5 -26.5t100 -71.5t63 -108t33 -132t7 -148t-11 -151.5t-25.5 -146.5q-15 -69 -35 -137t-51.5 -145.5t-69 -145t-89 -130.5t-109 -108 t-131 -72t-154.5 -27q-86 0 -151 27t-104 72t-62.5 109.5t-30.5 132t-3.5 147.5zM332 356q7 -86 34 -146t83 -96t138 -36q95 0 180 58.5t148 156t108 212t72 239.5q29 134 35 249.5t-11.5 215t-75.5 157t-152 57.5q-101 0 -188 -56.5t-150.5 -156t-109.5 -218.5t-76 -260 q-23 -108 -32.5 -199t-2.5 -177z" />
<glyph unicode="1" horiz-adv-x="939" d="M117 0l22 104h327l273 1281l-360 -124l-2 103l405 140h93l-299 -1400h304l-22 -104h-741z" />
<glyph unicode="2" horiz-adv-x="1105" d="M105 0l13 56q18 87 56 165.5t84 139t110.5 119t123 101t133.5 89.5q43 27 163 101q93 56 148 98q152 114 179 232q30 141 -41 228t-213 87q-221 0 -378 -168l-68 60q185 213 464 213q194 0 289.5 -114t54.5 -306q-12 -60 -45 -116t-70 -97.5t-102.5 -91t-112 -79.5 t-129.5 -81q-98 -59 -161 -100q-93 -62 -150 -111q-158 -136 -208 -321l752 -1l-21 -103h-871z" />
<glyph unicode="3" horiz-adv-x="1099" d="M131 205l84 59q83 -183 294 -183q181 0 312 96t166 258q33 159 -44.5 239.5t-231.5 80.5h-118l20 98h109q143 0 229.5 75t113.5 204q16 73 -6 137t-85 105.5t-157 41.5q-208 0 -360 -166l-63 59q93 111 211 161.5t231 50.5q82 0 152 -26t119 -73.5t68 -122t0 -164.5 q-24 -113 -82 -196t-169 -134q100 -25 151.5 -129t22.5 -242q-25 -118 -82 -207.5t-137.5 -143t-174.5 -80t-202 -26.5q-129 0 -229 55.5t-142 172.5z" />
<glyph unicode="4" horiz-adv-x="1176" d="M108 359l18 88l979 1057h90l-222 -1046h213l-20 -99h-213l-77 -359h-109l77 359h-736zM251 458h614l177 846q-322 -351 -413 -447z" />
<glyph unicode="5" horiz-adv-x="1142" d="M160 207l88 59q45 -90 126 -138t187 -48q149 0 282 118t164 267q21 97 -4.5 180.5t-93.5 133.5t-164 50q-82 0 -159 -26t-177 -102l-86 38l207 766h731l-23 -104h-632l-156 -561h3l2 -1q65 43 153 67t159 24q188 0 290 -134.5t61 -330.5q-46 -209 -200 -349t-361 -140 q-134 0 -242.5 60.5t-154.5 170.5z" />
<glyph unicode="6" horiz-adv-x="1128" d="M216.5 423q1.5 91 21.5 190q16 80 34.5 151.5t51.5 167t70.5 173.5t93 158t119 134.5t149 89t182.5 34.5q93 0 179.5 -40.5t126.5 -119.5l-88 -56q-41 60 -106 85.5t-126 25.5q-95 0 -179 -47t-143.5 -121t-110 -175.5t-81.5 -198t-54 -201.5l5 -1q196 248 430 248 q124 0 214.5 -60.5t128 -170t8.5 -245.5q-48 -222 -203 -346t-359 -124q-97 0 -169.5 35.5t-114 96.5t-61.5 143.5t-18.5 173.5zM329 314.5q10 -69.5 41 -122t90.5 -84t137.5 -31.5q160 0 279 107t154 269q36 168 -36 264t-240 96q-65 0 -136 -34t-127.5 -86t-98.5 -114.5 t-55 -118.5q-19 -76 -9 -145.5z" />
<glyph unicode="7" horiz-adv-x="1021" d="M292 0q41 180 124.5 370.5t197.5 370.5t238.5 342t268.5 322h-743l20 100h872l-22 -98q-124 -142 -220 -260.5t-200 -266t-180 -281.5t-140 -290t-99 -309h-117z" />
<glyph unicode="8" horiz-adv-x="1211" d="M194 410q30 136 128.5 242.5t265.5 145.5q-64 22 -106.5 61.5t-59 86t-21 99.5t9.5 101q36 168 169 271.5t339 103.5q207 0 301.5 -110.5t58.5 -279.5q-22 -106 -101.5 -194t-217.5 -132q76 -20 128.5 -63.5t75 -98.5t28.5 -120t-10 -126q-42 -201 -195.5 -311 t-384.5 -110q-230 0 -340 117.5t-68 316.5zM307 408q-31 -147 46.5 -239t261.5 -92q187 0 306.5 89.5t151.5 237.5q31 144 -50 244t-256 100q-178 0 -304 -97t-156 -243zM522 1136q-27 -124 41.5 -209t215.5 -85q144 0 254 90t135 209q7 41 7 81t-18 77t-47.5 65t-82 45 t-120.5 17q-85 0 -156.5 -26.5t-117 -70t-73.5 -92.5t-38 -101z" />
<glyph unicode="9" horiz-adv-x="1127" d="M197 140l91 52q40 -60 98.5 -85.5t116.5 -25.5q95 0 181 47t148.5 121.5t114.5 175t85 199t55 201.5h-6q-106 -134 -211.5 -190.5t-221.5 -56.5q-191 0 -291.5 126.5t-57.5 331.5q47 225 202 356t357 131q98 0 171 -35.5t115 -96t62.5 -143t18.5 -174t-22 -190.5 q-16 -78 -34.5 -151t-51 -167.5t-71 -173.5t-94.5 -158t-120 -134t-150.5 -89.5t-183.5 -34.5q-220 0 -301 164zM410 1045q-36 -170 31.5 -265t233.5 -95q88 0 184 57t162.5 138.5t83.5 156.5q22 103 0.5 189.5t-89.5 140t-171 53.5q-161 0 -280.5 -106.5t-154.5 -268.5z " />
<glyph unicode=":" horiz-adv-x="461" d="M132 96q11 51 54.5 86.5t93.5 35.5q51 0 79 -35.5t17 -86.5q-10 -50 -54 -86t-94 -36t-78.5 36t-17.5 86zM314 956q11 51 54.5 86.5t93.5 35.5q51 0 79 -35.5t17 -86.5q-10 -50 -54 -86t-94 -36t-78.5 36t-17.5 86z" />
<glyph unicode=";" horiz-adv-x="453" d="M63 -228l122 473h165l-225 -473h-62zM306 956q10 51 53.5 86.5t94.5 35.5q50 0 78 -35.5t18 -86.5q-10 -50 -54 -86t-94 -36t-78.5 36t-17.5 86z" />
<glyph unicode="&#x3c;" horiz-adv-x="754" d="M241 625l26 123l626 495l-31 -145l-534 -410l360 -410l-31 -148z" />
<glyph unicode="=" horiz-adv-x="1112" d="M242 427l21 99h809l-21 -99h-809zM335 864l21 101h809l-21 -101h-809z" />
<glyph unicode="&#x3e;" horiz-adv-x="753" d="M151 130l31 148l533 410l-359 410l31 145l416 -495l-26 -123z" />
<glyph unicode="?" horiz-adv-x="907" d="M305 96q11 50 54 86t94 36q50 0 78 -36t18 -86t-54 -86t-94 -36q-51 0 -79 36t-17 86zM383 1350q69 82 164 129t192 47q161 0 243 -81t48 -241q-12 -54 -38 -104.5t-60 -92t-73 -81t-79 -79t-75.5 -78t-65.5 -85.5t-46 -95q-17 -53 -34 -135h-119l23 111 q16 75 64.5 149.5t107 134t116.5 116.5t103.5 119.5t57.5 120.5q21 101 -31 158t-153 57q-157 0 -276 -131z" />
<glyph unicode="@" horiz-adv-x="1650" d="M241 485.5q-2 116.5 26 254.5q34 162 111.5 302t187.5 245t257.5 165t312.5 60q225 0 370 -96t194 -266t1 -394q-15 -71 -49 -141.5t-83.5 -131.5t-119 -98.5t-145.5 -37.5q-84 0 -131 32t-59 107h-2q-131 -147 -304 -147q-110 0 -165.5 71.5t-32.5 182.5q12 56 41 101 t64 74t86 50t94.5 31.5t103.5 16.5t98.5 7t92.5 1l5 22q31 114 1.5 163.5t-147.5 49.5q-109 0 -224 -69l-34 71q57 42 132 67.5t139 25.5q52 0 92 -6t68 -19.5t47 -30t28.5 -43t13 -53t0 -65.5t-9 -74.5t-16.5 -86.5l-60 -282q-13 -59 12 -90t84 -31q46 0 88 22.5t72 57 t54.5 79.5t39 87.5t23.5 83.5q24 120 22.5 222.5t-35.5 185.5t-94.5 141t-155.5 89.5t-218 31.5q-144 0 -271 -52.5t-221 -144t-159 -212.5t-95 -261q-22 -117 -23.5 -219.5t30 -187t88.5 -144.5t150 -93t216 -33q177 0 295 70l44 -71q-129 -93 -353 -93q-141 0 -249.5 35 t-178 100t-108.5 158.5t-41 210zM716 595q-16 -76 21 -120t114 -44q79 0 153.5 50.5t130.5 128.5l38 178q-169 -1 -250 -20q-179 -40 -207 -173z" />
<glyph unicode="A" d="M9 0l851 1505h141l211 -1505h-128l-57 416h-659l-238 -416h-121zM426 526h585l-116 829z" />
<glyph unicode="B" horiz-adv-x="1243" d="M171 0l320 1505h435q94 0 168 -23.5t126 -71.5t69 -124q8 -35 8 -76q0 -48 -11 -104q-24 -112 -88 -187.5t-183 -131.5q149 -23 205 -119q35 -61 36 -144q0 -48 -12 -104q-26 -121 -73.5 -203.5t-119.5 -129.5t-160 -67t-208 -20h-512zM311 114h401q176 0 275.5 70 t136.5 243q10 47 10 87q0 83 -44 135q-65 77 -222 77h-427zM465 837h378q128 0 211 72.5t109 197.5q9 42 9 78q0 79 -42 131q-62 76 -211 75h-336z" />
<glyph unicode="C" horiz-adv-x="1222" d="M238 519q2 112 28 234q35 161 100 299t156 243.5t214 165.5t263 60q49 0 101 -12t106 -37.5t100.5 -72t74.5 -108.5l-100 -67q-52 95 -129.5 137.5t-162.5 42.5q-141 0 -265.5 -91t-208 -239t-122.5 -329q-25 -105 -25 -201q0 -25 2 -49q8 -118 42.5 -207.5t107 -142 t170.5 -52.5q108 0 217.5 47t201.5 150l83 -73q-195 -240 -505 -240q-116 0 -204.5 42.5t-141 115.5t-78.5 173q-25 94 -25 199v12z" />
<glyph unicode="D" horiz-adv-x="1329" d="M171 0l320 1505h288q142 0 254.5 -27t200 -85.5t134.5 -150t59 -220.5q3 -31 3 -64q0 -105 -29 -233q-68 -323 -287 -524t-508 -201h-435zM316 114h274q88 0 174 24t167 74.5t148.5 121.5t118.5 170.5t76 216.5q27 128 27 231q0 172 -74 274q-119 164 -453 164h-186z" />
<glyph unicode="E" horiz-adv-x="1132" d="M171 0l321 1505h864l-31 -114h-737l-123 -575h644l-29 -105h-638l-127 -597h753l-31 -114h-866z" />
<glyph unicode="F" horiz-adv-x="1066" d="M171 0l320 1505h840l-31 -114h-712l-123 -581l648 1l-30 -109h-642l-148 -702h-122z" />
<glyph unicode="G" horiz-adv-x="1322" d="M240 518q5 116 34 250q25 118 65 223t104.5 204t145.5 170.5t192.5 114.5t240.5 43q80 0 155 -23.5t144.5 -81t103.5 -142.5l-100 -65q-93 194 -327 194q-100 0 -189 -40t-154 -104.5t-118 -151t-86 -175t-53 -181.5q-20 -91 -27 -173q-4 -48 -4 -93q0 -33 2 -65 q5 -75 28 -135t61 -105t99.5 -69t141.5 -24q144 0 264 76.5t208 209.5l47 223h-319l25 118h429l-151 -716h-97l36 195q-115 -132 -220 -177.5t-230 -45.5q-123 0 -213.5 41.5t-142.5 113.5t-75 173q-20 85 -20 180v38z" />
<glyph unicode="H" horiz-adv-x="1296" d="M171 0l321 1505h121l-145 -679h712l145 679h120l-321 -1505h-120l151 711h-712l-151 -711h-121z" />
<glyph unicode="I" horiz-adv-x="468" d="M171 0l321 1505h125l-321 -1505h-125z" />
<glyph unicode="J" horiz-adv-x="809" d="M0 -2l43 104q88 -20 152 -20q103 0 179 27.5t127 84t83.5 130.5t54.5 178l213 1003h124l-219 -1037q-55 -257 -184 -376t-367 -119q-112 0 -206 25z" />
<glyph unicode="K" horiz-adv-x="1153" d="M171 0l320 1505h120l-163 -766q156 153 224 218l276 253l320 295h158l-655 -605l386 -900h-143l-340 816l-260 -236l-123 -580h-120z" />
<glyph unicode="L" horiz-adv-x="1026" d="M171 0l320 1505h127l-296 -1386h708l-32 -119h-827z" />
<glyph unicode="M" horiz-adv-x="1559" d="M171 0l321 1505h148l248 -1005l669 1005h151l-321 -1505h-120l282 1321l-105 -181l-555 -824h-83l-203 825l-34 163l-278 -1304h-120z" />
<glyph unicode="N" horiz-adv-x="1323" d="M171 0l321 1505h123l283 -766q4 -10 22.5 -60t27.5 -76t27.5 -77.5t30.5 -88t26.5 -83t25 -87t17.5 -76.5q16 87 33 171t38 179t79 366t128 598h119l-321 -1505h-126q-438 1226 -459 1308l-1 -1q-37 -196 -84 -417l-190 -890h-120z" />
<glyph unicode="O" horiz-adv-x="1335" d="M242 452q-1 27 -1 55q1 52 5 103q8 79 24 160q32 149 94.5 282.5t150.5 240t208.5 169.5t255.5 63q89 0 162 -29t124 -80.5t85 -123.5t48 -158q12 -71 12 -149q0 -17 -1 -34q-3 -97 -25 -199q-23 -108 -60 -210t-98.5 -206.5t-138 -181.5t-185 -126t-233.5 -49 q-87 0 -157.5 24.5t-118.5 67.5t-81.5 103t-49.5 129.5t-20 148.5zM370 525v-15q0 -58 6 -110q8 -60 29.5 -116.5t55.5 -97t89.5 -65t128.5 -24.5q77 0 147.5 27t124 71t100.5 104t79.5 120.5t59 126.5t42 116.5t24.5 95.5q11 51 17 106q6 51 6 110q-1 5 -1 10 q0 65 -8.5 124.5t-30.5 115.5t-56 97t-89 66t-125 25q-84 0 -160.5 -34t-134 -91.5t-106 -126t-82.5 -144.5t-55.5 -139.5t-33.5 -118.5q-12 -54 -19 -110.5t-8 -122.5z" />
<glyph unicode="P" horiz-adv-x="1128" d="M171 0l320 1505h356q115 0 199.5 -25t143.5 -80q58 -54 74 -142q7 -36 7 -79q0 -61 -14 -134q-44 -206 -189 -314.5t-353 -108.5h-292l-132 -622h-120zM446 732h292q137 0 250.5 81.5t146.5 233.5q13 61 13 111q0 94 -46 150q-70 86 -235 86h-281z" />
<glyph unicode="Q" horiz-adv-x="1335" d="M238 442v38q0 60 6 119q8 78 26 160q31 148 95.5 283.5t154.5 243.5t212.5 172.5t257.5 64.5q106 0 188.5 -40t133 -111t76.5 -167q25 -92 25 -201v-8q-1 -114 -28 -237q-36 -172 -114 -336.5t-197 -276.5l93 -257l-97 -63l-89 245q-142 -93 -319 -93q-89 0 -160 24 t-118.5 66t-80 101t-47.5 127t-18 146zM372 522q-1 -4 -1 -7q0 -62 9 -119q8 -59 30 -115t57 -96.5t91 -65t129 -24.5q140 0 254 85l-105 287l98 66l97 -268q89 103 145.5 239.5t80.5 251.5q12 60 17 126q4 45 4 95v46q-3 76 -22.5 143t-53 122.5t-94.5 88t-142 32.5 q-99 0 -188.5 -49.5t-150.5 -122.5t-111 -166t-77 -170t-42 -145q-12 -54 -18.5 -111t-6.5 -123z" />
<glyph unicode="R" horiz-adv-x="1186" d="M171 0l319 1505h396q113 0 197 -25.5t141 -79.5q56 -54 72 -140q7 -35 6 -76q0 -59 -13 -130q-64 -301 -402 -398l263 -656h-143l-245 642h-335l-136 -642h-120zM451 753h320q87 0 168 32.5t144.5 103.5t84.5 168q11 53 11 98q0 93 -48 151q-72 86 -235 85h-309z" />
<glyph unicode="S" horiz-adv-x="1036" d="M103 204l105 63q102 -183 329 -183q147 0 257.5 84t140.5 226q7 32 6.5 60.5t-5.5 51t-17.5 43t-27 36t-36 31t-41.5 26.5t-48 23t-51 20.5t-54 20.5q-40 15 -61 23t-58.5 24.5t-57 28.5t-48.5 33t-43.5 41t-31 49t-21.5 60q-5 28 -5 64q1 4 1 7q0 40 10 85 q42 187 168.5 295t311.5 108q119 0 216 -54t144 -150l-97 -62q-87 160 -276 160q-130 0 -227 -89.5t-125 -218.5q-7 -32 -7 -61q0 -23 5 -45q11 -46 40.5 -76.5t72 -55.5t92.5 -42t102.5 -37.5t101.5 -41t90 -53.5t68.5 -74t35.5 -103q2 -20 2 -41q0 -46 -11 -99 q-43 -202 -183 -302.5t-348 -100.5q-141 0 -254 58.5t-165 167.5z" />
<glyph unicode="T" horiz-adv-x="973" d="M314 1391l24 113h925l-24 -113h-396l-296 -1391h-125l296 1391h-404z" />
<glyph unicode="U" horiz-adv-x="1284" d="M246 369q2 79 22 168l206 967h122l-206 -969q-14 -69 -18 -129l-2 -28q0 -46 10 -93q12 -61 42 -104.5t89.5 -70.5t144.5 -27q78 0 143.5 18.5t112.5 52.5t83 75.5t61.5 95.5t41.5 103.5t29 108.5l207 967h118l-206 -968q-19 -99 -46.5 -178t-76 -153.5t-113 -124 t-161 -79t-217.5 -29.5q-108 0 -186.5 32t-121 85t-61.5 127q-17 65 -17 135v18z" />
<glyph unicode="V" horiz-adv-x="1123" d="M325 1505h131l143 -1364l717 1364h122l-802 -1505h-142z" />
<glyph unicode="W" horiz-adv-x="1634" d="M328 1505h130l31 -1191l3 -196l80 198l494 1189h146l-3 -1178l-3 -184l82 184l541 1178h116l-693 -1505h-164l4 1127l7 211l-83 -211l-483 -1127h-157z" />
<glyph unicode="X" horiz-adv-x="1078" d="M3 0l641 810l-284 695h153l220 -596l469 596h145l-568 -682l299 -823h-148l-237 714l-541 -714h-149z" />
<glyph unicode="Y" horiz-adv-x="1077" d="M330 1505h136l224 -785l561 785h134l-660 -910l-127 -595h-119l126 593z" />
<glyph unicode="Z" horiz-adv-x="1151" d="M97 0l26 120l1089 1280q-91 -7 -784 -7l32 112h910l-26 -120q-177 -210 -616 -724t-482 -555q90 8 845 8l-31 -114h-963z" />
<glyph unicode="[" horiz-adv-x="689" d="M127 -276l378 1780h381l-20 -97h-265l-337 -1585h265l-21 -98h-381z" />
<glyph unicode="\" horiz-adv-x="759" d="M390 1610h98l186 -1781h-100z" />
<glyph unicode="]" horiz-adv-x="689" d="M63 -276l21 98h265l337 1585h-265l20 97h381l-378 -1780h-381z" />
<glyph unicode="^" horiz-adv-x="1054" d="M273 862l527 641h94l253 -641h-129l-192 558l-425 -558h-128z" />
<glyph unicode="_" horiz-adv-x="995" d="M-70 -288l20 94h1013l-20 -94h-1013z" />
<glyph unicode="`" horiz-adv-x="379" d="M270 1559h192l126 -323h-105z" />
<glyph unicode="a" horiz-adv-x="995" d="M140 300q80 372 694 372h43q24 108 24 180q-1 7 -1 13q-2 75 -50 109.5t-156 34.5q-121 0 -280 -98l-36 83q87 61 179.5 88.5t169.5 27.5q63 0 111.5 -9t79.5 -31.5t52 -46t28 -65.5q8 -44 10 -78q1 -8 0 -17q0 -31 -6 -77q-8 -60 -16.5 -102.5t-24.5 -116.5l-78 -370 q-5 -23 -7 -34.5t-2 -32t6.5 -30t22.5 -15.5t41 -1l26 5l-20 -94q-36 -14 -69 -14q-109 0 -109 113q0 33 9 76h-2q-82 -96 -188 -145.5t-214 -49.5q-135 0 -201 91q-45 63 -45 150q0 39 9 84zM248 303q-7 -31 -6 -58q0 -61 34 -103q50 -60 152 -60q106 0 200.5 60t169.5 157 l58 269h-77q-474 0 -531 -265z" />
<glyph unicode="b" horiz-adv-x="1120" d="M140 1l322 1514l117 42l-140 -660q46 56 98.5 98t95.5 63t89 33.5t72 15t51 2.5q85 0 149.5 -30.5t102 -83.5t55.5 -126q17 -66 18 -141q0 -8 -1 -16q-2 -84 -22 -177q-14 -68 -40.5 -138.5t-73 -148t-104.5 -136.5t-143 -97.5t-181 -38.5q-60 0 -99.5 6t-83.5 26 t-76.5 63t-56.5 112l-52 -182h-97zM323 347q14 -74 50 -134q79 -133 239 -133q62 0 119.5 25t100 67.5t78 92t60 103.5t39.5 97.5t23 78.5q18 91 18 167q0 37 -4 70q-12 102 -74 162t-164 60q-100 0 -206.5 -58t-190.5 -185z" />
<glyph unicode="c" horiz-adv-x="940" d="M178 369q2 84 21 179q20 96 51.5 177.5t80 153.5t109.5 122.5t142.5 79.5t177.5 29q54 0 107.5 -16.5t105 -60t77.5 -107.5l-89 -57q-71 133 -221 133q-103 0 -192 -65t-146.5 -169t-85.5 -233q-18 -74 -18 -141q0 -17 2 -33q6 -82 30.5 -143.5t78 -97.5t128.5 -36 q160 0 290 149l76 -67q-78 -97 -178 -144t-194 -47q-92 0 -162 30t-111 82q-42 52 -62 125q-19 68 -19 146q1 5 1 11z" />
<glyph unicode="d" horiz-adv-x="1120" d="M184 332q-2 25 -2 50q0 26 2 52q4 48 13 91q25 117 75 220.5t120.5 186t166.5 130.5t203 48q98 0 181 -52t124 -157l131 614l118 42l-331 -1557h-96l26 189q-166 -215 -409 -215q-68 0 -122.5 20.5t-89.5 55t-59.5 81.5t-35.5 97t-15 104zM306 414q-1 -15 -1 -31 q0 -43 7 -89q10 -62 35 -109.5t77.5 -78t126.5 -30.5q84 0 159 38t132 94t107 135l89 418q-30 127 -109.5 184t-171.5 57q-110 0 -200.5 -64t-148.5 -168.5t-87 -240.5q-11 -57 -15 -115z" />
<glyph unicode="e" horiz-adv-x="1017" d="M178 382q2 64 16 132q59 278 206.5 437t359.5 159q83 0 145 -30t97.5 -81.5t51.5 -122.5q14 -62 15 -129q-1 -10 -1 -21q-2 -79 -21 -167q-8 -36 -9 -39h-729q-18 -93 -18 -168q0 -32 3 -61q11 -97 72.5 -153t168.5 -56q192 0 328 158l75 -62q-86 -107 -183.5 -154 t-246.5 -47q-71 0 -128.5 21t-95.5 59t-64 89q-24 50 -34 110q-8 50 -8 103v23zM341 624h604q13 60 15 112q0 10 1 20q-1 42 -9 82q-10 50 -34.5 86t-70 57.5t-108.5 21.5q-75 0 -145 -35t-119.5 -91t-84.5 -121.5t-49 -131.5z" />
<glyph unicode="f" horiz-adv-x="559" d="M181 0l214 1006h-169l18 88h169l39 185q28 128 114.5 202t209.5 74q61 0 125 -17l-43 -103q-54 9 -89 9q-83 0 -137 -50.5t-71 -129.5l-35 -170h228l-18 -88h-228l-214 -1006h-113z" />
<glyph unicode="g" horiz-adv-x="1108" d="M99 -278l82 67q99 -115 278 -115q82 0 148 24.5t113.5 67.5t85 111t62.5 145.5t47 179.5q-175 -227 -420 -227q-81 0 -142 29t-95.5 77.5t-55 107.5t-24.5 125q-2 33 -2 63.5t2 59.5q4 57 15 108q25 117 73 218t116.5 179.5t161 123.5t198.5 45q94 0 182.5 -49 t126.5 -152l54 184h102l-194 -914q-19 -90 -40.5 -161t-53 -143.5t-73.5 -124.5t-97 -94t-128.5 -63t-163.5 -21q-257 0 -358 149zM300 427q-2 -20 -2 -41q0 -40 6 -82q8 -65 31.5 -115t74.5 -82.5t125 -32.5q157 0 291 128q70 70 112 139l91 422q-19 87 -68 145t-102 79.5 t-110 21.5q-110 0 -200 -62.5t-147 -166t-86 -238.5q-12 -57 -16 -115z" />
<glyph unicode="h" horiz-adv-x="1071" d="M140 0l322 1516l122 43l-141 -664l3 -3q81 99 182.5 158.5t206.5 59.5q267 0 267 -263q0 -69 -18 -156l-148 -691h-113l148 692q13 48 13 96v16q-2 56 -18 99.5t-62.5 71t-119.5 27.5q-57 0 -112.5 -24t-103.5 -66t-86.5 -87t-73.5 -98l-154 -727h-114z" />
<glyph unicode="i" horiz-adv-x="442" d="M185 0l213 1001h-127l20 93h239l-233 -1094h-112zM450 1423q8 40 44.5 70.5t73.5 30.5q36 0 60 -30q17 -22 18 -49q0 -10 -3 -22q-9 -40 -44.5 -70t-72.5 -30t-61 30q-17 22 -17 49q0 10 2 21z" />
<glyph unicode="j" horiz-adv-x="466" d="M-103 -412l30 86q54 -6 55 -6q81 0 128.5 44.5t59.5 104.5l252 1186h-127l19 91h239l-271 -1277q-23 -108 -94.5 -175.5t-186.5 -67.5q-65 0 -104 14zM470 1423q8 40 44.5 70.5t73.5 30.5q36 0 60 -30q17 -22 17 -49q0 -11 -2 -22q-9 -40 -44.5 -70t-72.5 -30t-61 30 q-17 22 -17 49q0 10 2 21z" />
<glyph unicode="k" horiz-adv-x="905" d="M140 0l322 1515l118 43l-210 -990l575 526h153l-445 -400l250 -694h-131l-214 609l-222 -199l-87 -410h-109z" />
<glyph unicode="l" horiz-adv-x="458" d="M168 151q2 33 12 79l272 1284l122 43l-280 -1317q-7 -31 -7 -54t8 -47.5t34 -37.5t69 -13q26 0 66 5l-8 -94q-45 -14 -93 -14q-60 0 -101 12.5t-62 32.5q-20 20 -28 54q-6 25 -5 50q0 9 1 17z" />
<glyph unicode="m" horiz-adv-x="1720" d="M139 0l233 1094h101l-37 -209h1q80 97 178.5 161t198.5 64q116 0 183.5 -56.5t75.5 -167.5h1q71 97 181.5 160.5t217.5 63.5q82 0 138.5 -21.5t87.5 -58.5q31 -36 43 -92q9 -42 9 -87q0 -15 -1 -31q-4 -62 -20 -139l-145 -681h-113l145 683q15 69 15 123q0 198 -201 198 q-63 0 -126 -27.5t-110 -70t-79.5 -90.5t-42.5 -91l-153 -725h-112l145 683q11 49 13 94v12q0 39 -9 75q-10 42 -31.5 72.5t-61 49t-92.5 18.5q-55 0 -120.5 -33t-116.5 -79.5t-88 -95.5t-44 -82l-152 -714h-112z" />
<glyph unicode="n" horiz-adv-x="1071" d="M140 0l233 1094h99l-36 -206l3 -1q82 101 185 162.5t210 61.5q78 0 132.5 -23t84 -62t41.5 -94q10 -44 9 -91v-23q-3 -59 -18 -128l-147 -690h-113l148 691q10 48 12 90v16q-1 34 -7 68q-8 42 -29.5 71.5t-63 48t-100.5 18.5q-74 0 -148.5 -44.5t-127 -102t-100.5 -130.5 l-153 -726h-114z" />
<glyph unicode="o" horiz-adv-x="1052" d="M182 378q2 80 19 166q17 78 48 155t81.5 152t112.5 132t145.5 92t174.5 35q94 0 163 -35t105.5 -91t53.5 -132q15 -66 15 -132v-20q-2 -76 -20 -155q-23 -110 -71 -209.5t-117 -181.5t-165.5 -130.5t-205.5 -48.5q-89 0 -156.5 33t-106.5 88q-38 54 -58 128 q-18 68 -19 143q1 5 1 11zM299 413v-9q0 -62 13 -118q14 -60 42.5 -107t76.5 -75t111 -28q82 0 155.5 42t126 110.5t89.5 149.5t55 165q14 69 18 133q1 15 1 30q-1 48 -9 96q-12 62 -38.5 107t-77 72.5t-121.5 27.5q-86 0 -161.5 -44t-127.5 -115t-86.5 -148.5t-51.5 -156.5 q-14 -66 -15 -132z" />
<glyph unicode="p" horiz-adv-x="1119" d="M44 -438l324 1532h100l-22 -175q187 191 393 191q84 0 148.5 -31t103.5 -85.5t59 -128.5q20 -72 20 -155q-1 -88 -21 -182q-16 -75 -42 -146t-72 -147t-104 -131.5t-144.5 -91.5t-187.5 -36q-239 0 -313 214l-124 -585zM319 347q13 -77 50 -134q79 -133 239 -133 q74 0 140.5 35.5t112 88t82.5 120t57 123t31 105.5q18 82 18 152q0 100 -37 174q-65 127 -219 127q-94 0 -197.5 -58t-187.5 -185z" />
<glyph unicode="q" horiz-adv-x="1113" d="M180 408q3 55 14 106q21 97 54.5 184t82.5 163t109.5 131t139 86.5t165.5 31.5q229 0 315 -186l50 170h102l-316 -1489l-117 -43l131 617q-186 -204 -402 -204q-81 0 -143 26.5t-97.5 71.5t-58 100t-27.5 117q-3 39 -3 75q0 22 1 43zM300 412q-1 -16 -1 -33q0 -42 7 -86 q10 -62 34.5 -108.5t76.5 -76.5t125 -30q160 0 297 135q60 58 106 134l88 415q-15 66 -46 115t-70.5 75.5t-80.5 39t-85 12.5q-162 0 -276.5 -133.5t-158.5 -342.5q-12 -58 -16 -116z" />
<glyph unicode="r" horiz-adv-x="640" d="M135 0l231 1094h100l-28 -209q35 59 78 103.5t79.5 67t76.5 36t64 16.5t47 3q43 0 96 -16l-54 -110q-44 11 -64 11q-134 0 -260 -141q-58 -62 -101 -139l-153 -716h-112z" />
<glyph unicode="s" horiz-adv-x="867" d="M109 179l91 57q32 -74 97 -117.5t146 -43.5q73 0 141 32q70 33 114 93q41 56 40 121v12q-2 40 -23.5 70.5t-54.5 49t-75 36t-85 30.5t-84.5 33.5t-74 45t-52 64.5t-19.5 92q0 157 108 257t264 100q99 0 183 -51t115 -130l-92 -56q-36 65 -93 101.5t-127 36.5 q-98 0 -169.5 -69t-71.5 -168q0 -45 26 -77.5t67 -52t91.5 -36.5t100.5 -37.5t91 -47t67 -72.5t26 -108q0 -88 -36.5 -160t-96.5 -116.5t-132.5 -68t-148.5 -23.5q-123 0 -205 48t-128 155z" />
<glyph unicode="t" horiz-adv-x="567" d="M208 1002l20 92h180l48 221l125 43l-57 -264h246l-20 -92h-246l-158 -749q-7 -39 -6 -70v-12q2 -36 32.5 -58.5t91.5 -22.5q25 0 63 5l-8 -95q-47 -14 -93 -14q-79 0 -127.5 19t-65.5 52t-19 78v11q0 40 12 86l162 770h-180z" />
<glyph unicode="u" horiz-adv-x="1049" d="M210 379l151 715h112l-151 -716q-11 -50 -11 -92q-1 -71 29 -124q46 -84 173 -84q131 0 263 140q45 48 103 145l155 731h113l-232 -1094h-100l33 193l-2 1q-160 -219 -383 -219q-166 -1 -230 103q-39 63 -39 161q0 63 16 140z" />
<glyph unicode="v" horiz-adv-x="901" d="M249 1094h126l106 -950l506 950h127l-605 -1094h-119z" />
<glyph unicode="w" horiz-adv-x="1300" d="M258 1094h120l20 -950l423 950h125l26 -946l411 946h122l-503 -1094h-127l-29 925l-418 -925h-129z" />
<glyph unicode="x" horiz-adv-x="870" d="M20 0l463 575l-210 519h141l161 -430l337 430h133l-421 -526l225 -568h-140l-182 471l-369 -471h-138z" />
<glyph unicode="y" horiz-adv-x="899" d="M-1 -415l37 110l18 -4q34 -8 50 -8q95 0 153 64q27 29 57 79q17 29 60 104q29 47 44 75l-159 1089h125l125 -921l478 921h127l-695 -1286q-75 -139 -144 -187t-193 -48q-29 0 -83 12z" />
<glyph unicode="z" horiz-adv-x="937" d="M68 0l18 85l823 899h-612l23 110h750l-23 -109l-805 -874h636l-24 -111h-786z" />
<glyph unicode="{" horiz-adv-x="765" d="M228 570l17 80l37 4q83 9 122 46t60 136l48 224q47 217 160.5 331.5t311.5 121.5l-18 -84q-134 -19 -215.5 -96t-112.5 -223l-45 -215q-27 -125 -72.5 -182.5t-153.5 -104.5q45 -24 70 -47t38 -56t11.5 -76t-15.5 -108l-43 -202q-32 -148 15.5 -220t178.5 -91l-18 -83 q-201 6 -265.5 112t-18.5 321l48 227q21 98 -2 135.5t-102 45.5z" />
<glyph unicode="|" horiz-adv-x="559" d="M142 -402l442 2078h103l-442 -2078h-103z" />
<glyph unicode="}" horiz-adv-x="766" d="M43 -275l18 83q139 19 216.5 91t109.5 220l43 202q27 126 72.5 183t153.5 104q-88 47 -109 103t5 184l45 215q31 146 -17.5 223t-174.5 96l18 84q195 -7 261 -122t19 -331l-48 -224q-21 -99 2 -136t102 -46l37 -4l-17 -80l-38 -4q-83 -8 -122.5 -45.5t-59.5 -135.5 l-48 -227q-46 -215 -155 -321t-313 -112z" />
<glyph unicode="~" horiz-adv-x="1223" d="M256 725q47 41 79 66.5t80.5 58.5t94.5 50t89 17q52 0 94.5 -20.5t71 -49.5t55 -58.5t60 -50t73.5 -20.5q33 0 87.5 31t88.5 57t84 68q8 7 12 10l54 -100q-45 -37 -64.5 -53.5t-65 -49.5t-75.5 -48.5t-71.5 -29t-77.5 -13.5q-54 0 -96.5 20.5t-71 49t-54.5 57.5t-59 49.5 t-73 20.5q-13 0 -27.5 -3t-31.5 -11t-30 -14t-33 -20l-30 -21t-31.5 -24.5t-27.5 -22t-27.5 -23t-22.5 -19.5z" />
<glyph unicode="&#xa1;" horiz-adv-x="523" d="M199 1l188 882l50 193h103l-32 -194l-188 -881h-121zM438 1409q11 50 54 86t94 36q50 0 78 -36t17 -86q-11 -51 -54 -86.5t-93 -35.5q-51 0 -79 35.5t-17 86.5z" />
<glyph unicode="&#xa2;" horiz-adv-x="984" d="M221 440.5q-6 91.5 19 194.5q22 106 63.5 197t102 166t147 123t189.5 60l37 177h115l-37 -176q77 -10 141 -51t97 -118l-92 -56q-38 68 -98.5 97t-125.5 29q-103 0 -191.5 -62t-145.5 -162t-83 -223q-21 -88 -13.5 -166.5t35 -137.5t83 -93.5t130.5 -34.5q161 0 285 139 l71 -59q-131 -158 -322 -180l-40 -190h-115l40 191q-95 12 -161 58t-95.5 116t-35.5 161.5z" />
<glyph unicode="&#xa3;" horiz-adv-x="1216" d="M165 0l17 81q147 78 230.5 180t112.5 239q22 103 28 190h-226l19 92h209q0 171 19 262q47 223 186 350.5t338 127.5q86 0 165 -43.5t117 -136.5l-95 -60q-62 127 -211 127q-297 0 -379 -382q-17 -82 -17 -245h433l-19 -92h-415q-12 -132 -25 -190q-50 -237 -265 -381h751 l-33 -119h-940z" />
<glyph unicode="&#xa5;" horiz-adv-x="1171" d="M298 300l19 92h299l43 201l-256 911h142l201 -798l545 798h129l-641 -909l-44 -203h301l-19 -92h-301l-64 -300h-119l64 300h-299z" />
<glyph unicode="&#xa7;" horiz-adv-x="1211" d="M127 -61l98 58q96 -126 307 -126q121 0 213.5 58t117.5 174q11 52 -6 90.5t-55.5 60.5t-90.5 40t-110.5 30t-117 30.5t-108.5 40t-86 60t-49.5 90.5t2.5 130q24 112 104 199.5t196 139.5q-57 87 -36 187q22 104 87 178t153.5 109.5t190.5 35.5q204 0 310 -148l-90 -59 q-39 53 -104.5 80t-142.5 27q-109 0 -188.5 -59.5t-102.5 -167.5q-11 -51 6.5 -88.5t56 -58.5t90.5 -38.5t111 -28.5t117.5 -28.5t109 -39t86 -59.5t49 -90.5t-2.5 -131.5q-24 -114 -100 -201t-192 -142q48 -87 28 -183q-24 -114 -100 -192t-172.5 -111t-207.5 -33 q-252 0 -371 167zM348.5 626.5q5.5 -34.5 18 -61t36 -46.5t50.5 -34.5t60.5 -26t65.5 -20t67 -16.5l39 -9q7 -2 33 -8.5t33.5 -8.5t28 -8t32 -10.5t28 -12t31.5 -15.5q48 27 83 50t74.5 56t65 72t34.5 81q16 74 -2.5 127t-77.5 85.5t-99.5 46t-124.5 33.5l-24 6t-33 8 t-33.5 8t-28 7.5t-31 9.5t-28 11t-31.5 15q-68 -36 -115 -67.5t-90.5 -83.5t-55.5 -111q-11 -43 -5.5 -77.5z" />
<glyph unicode="&#xa8;" horiz-adv-x="883" d="M443 1374q10 45 49 78t85 33t71.5 -33t15.5 -78q-10 -46 -49 -78.5t-86 -32.5q-46 0 -71 32.5t-15 78.5zM803 1374q10 45 49 78t85 33t71.5 -33t15.5 -78q-10 -46 -49 -78.5t-86 -32.5q-46 0 -71 32.5t-15 78.5z" />
<glyph unicode="&#xa9;" horiz-adv-x="1726" d="M269 748q48 226 180 403t324.5 275t412.5 98q337 0 500 -211t88 -565q-49 -229 -182 -406t-324.5 -273t-411.5 -96q-218 0 -368.5 98.5t-208.5 275.5t-10 401zM335 528.5q5 -103.5 46.5 -191.5t107 -151.5t164.5 -99.5t220 -36q152 0 289.5 53t243 146.5t179.5 221.5 t106 277q43 205 -3.5 362.5t-180.5 246.5t-338 89q-152 0 -291 -55t-243.5 -149.5t-178 -222t-104.5 -271.5q-22 -116 -17 -219.5zM665 569q-8 81 14 173q26 125 88 227t161 167t217 65q37 0 72.5 -7t74 -25t66.5 -55.5t38 -90.5l-96 -41q-11 33 -29 56.5t-35.5 35.5 t-41.5 18.5t-40 8t-38 1.5q-115 0 -207 -105.5t-125 -258.5q-31 -150 20 -245t163 -95q67 0 128 26t116 102l78 -41q-45 -69 -108.5 -113.5t-118 -59t-109.5 -14.5q-91 0 -155.5 35t-94.5 95t-38 141z" />
<glyph unicode="&#xaa;" horiz-adv-x="927" d="M281 890q60 285 535 285h25q32 127 5.5 182t-139.5 55q-91 0 -216 -76l-33 73q134 94 276 94q44 0 78.5 -7t59.5 -17.5t41 -30.5t26 -38.5t13 -50.5t2.5 -56.5t-6.5 -66t-12 -70t-16 -77.5l-59 -277q-9 -41 -5 -58q5 -23 44 -19l28 3l-17 -83q-32 -11 -60 -11 q-106 0 -86 128q-62 -66 -140.5 -100.5t-156.5 -34.5q-107 0 -158.5 71.5t-28.5 181.5zM378 892q-16 -74 20 -117t111 -43q78 0 147.5 40t122.5 104l44 210h-51q-353 0 -394 -194z" />
<glyph unicode="&#xab;" horiz-adv-x="1141" d="M174 536l498 515h138l-499 -515l281 -536h-143zM644 536l498 515h138l-499 -515l281 -536h-143z" />
<glyph unicode="&#xad;" horiz-adv-x="608" d="M236 673l24 115h421l-24 -115h-421z" />
<glyph unicode="&#xae;" horiz-adv-x="1716" d="M269 748q48 226 180 403t324.5 275t412.5 98q337 0 500 -211t88 -565q-49 -229 -182 -406t-324.5 -273t-411.5 -96q-218 0 -368.5 98.5t-208.5 275.5t-10 401zM335 528.5q5 -103.5 46.5 -191.5t107 -151.5t164.5 -99.5t220 -36q152 0 289.5 53t243 146.5t179.5 221.5 t106 277q43 205 -3.5 362.5t-180.5 246.5t-338 89q-152 0 -291 -55t-243.5 -149.5t-178 -222t-104.5 -271.5q-22 -116 -17 -219.5zM684 323l186 879h248q293 0 237 -265q-18 -86 -79 -147t-145 -86l133 -381h-115l-124 364h-168l-77 -364h-96zM877 781h171q76 0 134.5 38.5 t74.5 115.5q19 90 -16.5 132.5t-127.5 42.5h-166z" />
<glyph unicode="&#xaf;" horiz-adv-x="753" d="M324 1312l22 100h657l-22 -100h-657z" />
<glyph unicode="&#xb0;" horiz-adv-x="755" d="M358 1227q25 114 124 196t214 82q117 0 181.5 -82t39.5 -196q-25 -117 -123.5 -199t-215.5 -82q-115 0 -180 82t-40 199zM452 1227q-16 -77 26 -132t120 -55t143 55t81 132q16 74 -27.5 129.5t-117.5 55.5q-79 0 -143.5 -53.5t-81.5 -131.5z" />
<glyph unicode="&#xb1;" horiz-adv-x="1105" d="M103 1l24 103h899l-24 -103h-899zM276 753l22 94h403l99 428h101l-99 -428h390l-22 -94h-390l-100 -434h-101l100 434h-403z" />
<glyph unicode="&#xb4;" horiz-adv-x="377" d="M313 1236l262 323h192l-349 -323h-105z" />
<glyph unicode="&#xb5;" horiz-adv-x="1042" d="M24 -408l318 1499h112l-149 -703q-28 -130 18.5 -211t173.5 -81q106 0 200.5 80.5t165.5 196.5l152 718h113l-232 -1091h-100l40 225h-3q-78 -106 -176 -168t-210 -62q-67 0 -113.5 26.5t-92.5 79.5l-99 -467z" />
<glyph unicode="&#xb6;" horiz-adv-x="1113" d="M270 1044q33 143 119.5 248.5t207.5 159.5t262 54h572l-26 -114h-146l-397 -1718h-114l397 1718h-254l-397 -1718h-115l211 911q-198 3 -282 132.5t-38 326.5z" />
<glyph unicode="&#xb7;" horiz-adv-x="458" d="M265 746q10 51 53.5 86.5t94.5 35.5q50 0 78 -35.5t18 -86.5q-10 -50 -54 -86t-94 -36t-78.5 36t-17.5 86z" />
<glyph unicode="&#xb8;" horiz-adv-x="699" d="M71 -384l43 77q86 -50 145 -50q45 0 87.5 24.5t54.5 80.5q8 39 -13.5 59.5t-67.5 20.5h-83l-26 34l86 134h79l-77 -116q89 24 152 -12.5t48 -109.5q-14 -67 -57.5 -113.5t-95.5 -66t-106 -19.5q-91 0 -169 57z" />
<glyph unicode="&#xba;" horiz-adv-x="920" d="M317.5 940.5q1.5 62.5 13.5 130.5q18 84 57 160.5t95.5 138.5t133.5 99t163 37q71 0 125.5 -23.5t86 -65t49.5 -96.5t16 -118t-14 -131q-18 -86 -56.5 -162t-93.5 -137.5t-132 -97.5t-165 -36q-70 0 -124.5 23.5t-86.5 64.5t-50.5 96t-17 117.5zM424.5 979 q-0.5 -47 10 -93t31.5 -81.5t59.5 -57.5t88.5 -22q64 0 121.5 32t97 84t66.5 110.5t40 118.5q14 64 13.5 122.5t-17 112t-60.5 85.5t-113 32q-65 0 -122.5 -33t-97.5 -86t-67 -112t-40 -119q-10 -46 -10.5 -93z" />
<glyph unicode="&#xbb;" horiz-adv-x="1140" d="M86 0l509 536l-279 515h137l279 -515l-503 -536h-143zM556 0l509 536l-279 515h137l279 -515l-503 -536h-143z" />
<glyph unicode="&#xbc;" horiz-adv-x="1736" d="M233 607l20 105h184l131 674l-195 -68l-6 102l257 88h81l-156 -796h172l-20 -105h-468zM470 -1l1005 1503h115l-1008 -1503h-112zM1013 204l16 80l589 616h88l-117 -595h129l-19 -101h-129l-40 -205h-112l40 205h-445zM1178 305h299l75 388q-154 -163 -374 -388z" />
<glyph unicode="&#xbd;" horiz-adv-x="1781" d="M232 607l20 105h185l131 674l-196 -68l-5 102l256 88h82l-156 -796h172l-20 -105h-469zM470 -1l1005 1503h115l-1008 -1503h-112zM1129 -1l11 56q12 64 42 120t76 101t88 76.5t99 66.5q51 31 96 60q44 23 84 53q82 57 93 114q14 70 -23.5 113t-112.5 43q-59 0 -111.5 -22 t-110.5 -83l-71 62q127 147 311 147q124 0 188 -70.5t42 -189.5q-9 -45 -33.5 -83.5t-68 -75t-80 -61t-100.5 -62.5q-18 -10 -49.5 -29t-43.5 -26q-44 -29 -72.5 -51.5t-62.5 -64.5t-51 -89h448l-21 -105h-567z" />
<glyph unicode="&#xbe;" horiz-adv-x="1807" d="M236 757l89 61q56 -114 177 -114q98 0 163 48t81 130q16 80 -25.5 120t-126.5 40h-92l21 100h95q138 0 162 135q11 56 -23.5 97.5t-108.5 41.5q-113 0 -206 -104l-68 61q124 147 292 147q111 0 179.5 -65t47.5 -176q-22 -104 -118 -182q111 -75 83 -215 q-27 -142 -133.5 -212.5t-248.5 -70.5q-179 0 -240 158zM541 -1l1006 1503h114l-1008 -1503h-112zM1085 204l16 80l589 616h87l-117 -595h129l-19 -101h-129l-40 -205h-112l40 205h-444zM1249 305h299l75 388q-122 -130 -374 -388z" />
<glyph unicode="&#xbf;" horiz-adv-x="906" d="M196 287q15 71 58 137.5t96.5 119.5t108 104t102 113t68.5 125q19 58 34 132h118l-23 -108q-16 -73 -63.5 -145.5t-105.5 -131t-116 -114t-102.5 -116.5t-56.5 -117q-21 -99 31.5 -154.5t153.5 -55.5q155 0 274 128l70 -59q-69 -81 -163.5 -126.5t-191.5 -45.5 q-161 0 -243 79t-49 235zM672 1376q10 50 54 86t94 36q51 0 79 -36t17 -86q-10 -51 -53.5 -86.5t-94.5 -35.5q-50 0 -78 35.5t-18 86.5z" />
<glyph unicode="&#xc0;" d="M9 0h121l238 416h659l57 -416h128l-211 1505h-141zM426 526l469 829l116 -829h-585zM678 1929h192l125 -323h-105z" />
<glyph unicode="&#xc1;" d="M9 0h121l238 416h659l57 -416h128l-211 1505h-141zM426 526l469 829l116 -829h-585zM925 1606l263 323h192l-350 -323h-105z" />
<glyph unicode="&#xc2;" d="M9 0h121l238 416h659l57 -416h128l-211 1505h-141zM426 526l469 829l116 -829h-585zM622 1544l327 335h130l183 -335h-110l-159 237l-260 -237h-111z" />
<glyph unicode="&#xc3;" d="M9 0h121l238 416h659l57 -416h128l-211 1505h-141zM426 526l469 829l116 -829h-585zM610 1579q13 53 30 94.5t44.5 80.5t70 60.5t96.5 21.5q42 0 86 -20t75.5 -44.5t70 -44.5t69.5 -20q88 0 131 136h86q-13 -53 -30 -95t-44.5 -81.5t-70.5 -61t-98 -21.5q-48 0 -93 21 t-74 45.5t-65.5 45.5t-69.5 21q-29 0 -52 -11.5t-39.5 -34t-27 -43t-21.5 -50.5z" />
<glyph unicode="&#xc4;" d="M9 0h121l238 416h659l57 -416h128l-211 1505h-141zM426 526l469 829l116 -829h-585zM716 1764q8 39 42 67.5t74 28.5t61.5 -28.5t13.5 -67.5q-8 -40 -42 -68t-74 -28t-61.5 28t-13.5 68zM1056 1764q8 39 42 67.5t74 28.5t61.5 -28.5t13.5 -67.5q-8 -40 -42 -68t-74 -28 t-61.5 28t-13.5 68z" />
<glyph unicode="&#xc5;" d="M9 0l821 1451q-49 25 -71 76.5t-9 114.5q19 86 94 147.5t161 61.5q87 0 136 -61.5t30 -147.5q-13 -63 -57.5 -114.5t-103.5 -76.5l7 -52h-1l196 -1399h-128l-57 416h-659l-238 -416h-121zM426 526h585l-116 829zM837 1642q-11 -51 17 -87.5t80 -36.5q51 0 94 36.5 t54 87.5q10 49 -18.5 85.5t-77.5 36.5q-52 0 -95 -35t-54 -87z" />
<glyph unicode="&#xc6;" horiz-adv-x="1646" d="M-2 0l1033 1503h839l-31 -113h-576l-122 -573h477l-30 -106h-470l-127 -597h591l-31 -114h-697l90 421h-523l-285 -421h-138zM491 537h477l182 853h-84z" />
<glyph unicode="&#xc7;" d="M238.5 531.5q2.5 106.5 27.5 221.5q35 161 100 299t156 243.5t214 165.5t263 60q49 0 101 -12t106 -37.5t100.5 -72t74.5 -108.5l-100 -67q-52 95 -129.5 137.5t-162.5 42.5q-141 0 -265.5 -91t-208 -239t-122.5 -329q-31 -132 -23 -250t42.5 -207.5t107 -142 t170.5 -52.5q108 0 217.5 47t201.5 150l83 -73q-190 -234 -493 -240l-72 -108q89 24 152 -12.5t48 -109.5q-14 -67 -58 -113.5t-95.5 -66t-105.5 -19.5q-90 0 -170 57l44 77q86 -50 145 -50q45 0 87.5 24.5t54.5 80.5q8 39 -13.5 59.5t-68.5 20.5h-83l-25 34l84 130 q-101 11 -177.5 58.5t-121.5 121t-66.5 169t-19 202z" />
<glyph unicode="&#xc8;" horiz-adv-x="1132" d="M171 0h866l31 114h-753l127 597h638l29 105h-644l123 575h737l31 114h-864zM700 1929h192l125 -323h-105z" />
<glyph unicode="&#xc9;" horiz-adv-x="1132" d="M171 0h866l31 114h-753l127 597h638l29 105h-644l123 575h737l31 114h-864zM880 1606l262 323h192l-349 -323h-105z" />
<glyph unicode="&#xca;" horiz-adv-x="1132" d="M171 0h866l31 114h-753l127 597h638l29 105h-644l123 575h737l31 114h-864zM648 1604l326 335h130l184 -335h-111l-160 237l-259 -237h-110z" />
<glyph unicode="&#xcb;" horiz-adv-x="1132" d="M171 0h866l31 114h-753l127 597h638l29 105h-644l123 575h737l31 114h-864zM717 1764q8 39 42 67.5t74 28.5t61.5 -28.5t13.5 -67.5q-8 -40 -41.5 -68t-74.5 -28q-39 0 -61 28t-14 68zM1057 1764q8 39 42 67.5t74 28.5t61.5 -28.5t13.5 -67.5q-8 -40 -41.5 -68t-74.5 -28 q-39 0 -61 28t-14 68z" />
<glyph unicode="&#xcc;" horiz-adv-x="468" d="M171 0h125l321 1505h-125zM330 1929h192l125 -323h-105z" />
<glyph unicode="&#xcd;" horiz-adv-x="468" d="M171 0h125l321 1505h-125zM520 1606l262 323h192l-349 -323h-105z" />
<glyph unicode="&#xce;" horiz-adv-x="468" d="M171 0h125l321 1505h-125zM256 1598l326 334h130l184 -334h-111l-159 237l-260 -237h-110z" />
<glyph unicode="&#xcf;" horiz-adv-x="468" d="M171 0h125l321 1505h-125zM366 1764q8 39 42 67.5t74 28.5t61.5 -28.5t13.5 -67.5q-8 -40 -41.5 -68t-74.5 -28q-40 0 -61.5 28t-13.5 68zM706 1764q8 39 42 67.5t74 28.5t61.5 -28.5t13.5 -67.5q-8 -40 -41.5 -68t-74.5 -28q-40 0 -61.5 28t-13.5 68z" />
<glyph unicode="&#xd0;" horiz-adv-x="1329" d="M146 719l23 109h178l144 677h288q142 0 254.5 -27t200 -85.5t134.5 -150t59 -220.5t-26 -297q-68 -323 -287 -524t-508 -201h-435l153 719h-178zM316 114h274q88 0 174 24t167 74.5t148.5 121.5t118.5 170.5t76 216.5q72 340 -47 504.5t-453 164.5h-186l-120 -562h387 l-23 -109h-387z" />
<glyph unicode="&#xd1;" horiz-adv-x="1323" d="M171 0h120l190 890q47 221 84 417l1 1q21 -82 459 -1308h126l321 1505h-119q-70 -327 -128 -598t-79 -366t-38 -179t-33 -171q-7 36 -17.5 76.5t-25 87t-26.5 83t-30.5 88t-27.5 77.5t-27.5 76t-22.5 60l-283 766h-123zM684 1559q13 53 29.5 94.5t44 80.5t70 60.5 t97.5 21.5q42 0 86 -20t75.5 -44.5t70 -44.5t69.5 -20q88 0 131 136h85q-59 -259 -242 -259q-48 0 -93 21t-74 45.5t-65.5 45.5t-69.5 21q-54 0 -85.5 -38t-55.5 -101z" />
<glyph unicode="&#xd2;" horiz-adv-x="1335" d="M242 452q4 -79 20 -148.5t49.5 -129.5t81.5 -103t118.5 -67.5t157.5 -24.5q125 0 233.5 49t185 126t138 181.5t98.5 206.5t60 210q22 102 25 199t-11 183t-48 158t-85 123.5t-124 80.5t-162 29q-135 0 -255.5 -63t-208.5 -169.5t-150.5 -240t-94.5 -282.5 q-17 -81 -24.5 -160t-3.5 -158zM370 525q1 66 8 122.5t19 110.5q12 55 33.5 118.5t55.5 139.5t82.5 144.5t106 126t134 91.5t160.5 34q70 0 125 -25t89 -66t56 -97t30.5 -115.5t9 -124.5t-5.5 -120t-17 -106q-9 -45 -24.5 -95.5t-42 -116.5t-59 -126.5t-79.5 -120.5 t-100.5 -104t-124 -71t-147.5 -27q-73 0 -128.5 24.5t-89.5 65t-55.5 97t-29 116t-6.5 125.5zM750 1929h192l125 -323h-105z" />
<glyph unicode="&#xd3;" horiz-adv-x="1335" d="M242 452q4 -79 20 -148.5t49.5 -129.5t81.5 -103t118.5 -67.5t157.5 -24.5q125 0 233.5 49t185 126t138 181.5t98.5 206.5t60 210q22 102 25 199t-11 183t-48 158t-85 123.5t-124 80.5t-162 29q-135 0 -255.5 -63t-208.5 -169.5t-150.5 -240t-94.5 -282.5 q-17 -81 -24.5 -160t-3.5 -158zM370 525q1 66 8 122.5t19 110.5q12 55 33.5 118.5t55.5 139.5t82.5 144.5t106 126t134 91.5t160.5 34q70 0 125 -25t89 -66t56 -97t30.5 -115.5t9 -124.5t-5.5 -120t-17 -106q-9 -45 -24.5 -95.5t-42 -116.5t-59 -126.5t-79.5 -120.5 t-100.5 -104t-124 -71t-147.5 -27q-73 0 -128.5 24.5t-89.5 65t-55.5 97t-29 116t-6.5 125.5zM945 1606l263 323h192l-350 -323h-105z" />
<glyph unicode="&#xd4;" horiz-adv-x="1335" d="M242 452q4 -79 20 -148.5t49.5 -129.5t81.5 -103t118.5 -67.5t157.5 -24.5q125 0 233.5 49t185 126t138 181.5t98.5 206.5t60 210q22 102 25 199t-11 183t-48 158t-85 123.5t-124 80.5t-162 29q-135 0 -255.5 -63t-208.5 -169.5t-150.5 -240t-94.5 -282.5 q-17 -81 -24.5 -160t-3.5 -158zM370 525q1 66 8 122.5t19 110.5q12 55 33.5 118.5t55.5 139.5t82.5 144.5t106 126t134 91.5t160.5 34q70 0 125 -25t89 -66t56 -97t30.5 -115.5t9 -124.5t-5.5 -120t-17 -106q-9 -45 -24.5 -95.5t-42 -116.5t-59 -126.5t-79.5 -120.5 t-100.5 -104t-124 -71t-147.5 -27q-73 0 -128.5 24.5t-89.5 65t-55.5 97t-29 116t-6.5 125.5zM690 1604l326 335h130l184 -335h-111l-160 237l-258 -237h-111z" />
<glyph unicode="&#xd5;" horiz-adv-x="1335" d="M242 452q4 -79 20 -148.5t49.5 -129.5t81.5 -103t118.5 -67.5t157.5 -24.5q125 0 233.5 49t185 126t138 181.5t98.5 206.5t60 210q22 102 25 199t-11 183t-48 158t-85 123.5t-124 80.5t-162 29q-135 0 -255.5 -63t-208.5 -169.5t-150.5 -240t-94.5 -282.5 q-17 -81 -24.5 -160t-3.5 -158zM370 525q1 66 8 122.5t19 110.5q12 55 33.5 118.5t55.5 139.5t82.5 144.5t106 126t134 91.5t160.5 34q70 0 125 -25t89 -66t56 -97t30.5 -115.5t9 -124.5t-5.5 -120t-17 -106q-9 -45 -24.5 -95.5t-42 -116.5t-59 -126.5t-79.5 -120.5 t-100.5 -104t-124 -71t-147.5 -27q-73 0 -128.5 24.5t-89.5 65t-55.5 97t-29 116t-6.5 125.5zM662 1579q13 53 29.5 94.5t44 80.5t70 60.5t97.5 21.5q42 0 86 -20t75.5 -44.5t70 -44.5t69.5 -20q88 0 131 136h85q-59 -259 -242 -259q-48 0 -93 21t-74 45.5t-65.5 45.5 t-69.5 21q-29 0 -52 -11.5t-39.5 -34t-27 -43t-21.5 -50.5z" />
<glyph unicode="&#xd6;" horiz-adv-x="1335" d="M242 452q4 -79 20 -148.5t49.5 -129.5t81.5 -103t118.5 -67.5t157.5 -24.5q125 0 233.5 49t185 126t138 181.5t98.5 206.5t60 210q22 102 25 199t-11 183t-48 158t-85 123.5t-124 80.5t-162 29q-135 0 -255.5 -63t-208.5 -169.5t-150.5 -240t-94.5 -282.5 q-17 -81 -24.5 -160t-3.5 -158zM370 525q1 66 8 122.5t19 110.5q12 55 33.5 118.5t55.5 139.5t82.5 144.5t106 126t134 91.5t160.5 34q70 0 125 -25t89 -66t56 -97t30.5 -115.5t9 -124.5t-5.5 -120t-17 -106q-9 -45 -24.5 -95.5t-42 -116.5t-59 -126.5t-79.5 -120.5 t-100.5 -104t-124 -71t-147.5 -27q-73 0 -128.5 24.5t-89.5 65t-55.5 97t-29 116t-6.5 125.5zM777 1764q8 39 42 67.5t74 28.5t61.5 -28.5t13.5 -67.5q-8 -40 -41.5 -68t-74.5 -28q-39 0 -61 28t-14 68zM1117 1764q8 39 42 67.5t74 28.5t61.5 -28.5t13.5 -67.5 q-8 -40 -41.5 -68t-74.5 -28q-39 0 -61 28t-14 68z" />
<glyph unicode="&#xd7;" horiz-adv-x="926" d="M199 374l376 319l-232 316l85 74l229 -320l377 320l53 -72l-379 -320l231 -321l-82 -70l-230 322l-378 -319z" />
<glyph unicode="&#xd8;" horiz-adv-x="1336" d="M-31 30l292 263q-44 208 10 464q32 149 96 284t154.5 243.5t213 173t257.5 64.5q251 0 370 -235l255 231l64 -70l-287 -259q42 -200 -7 -432q-23 -108 -60.5 -211.5t-100.5 -209.5t-140.5 -184.5t-187 -128.5t-234.5 -50q-134 0 -223.5 55.5t-147.5 165.5l-259 -234z M380 401l871 786q-79 222 -283 222q-84 0 -160 -34t-133.5 -92t-105 -126.5t-81 -145t-55 -140t-33.5 -118.5q-36 -172 -20 -352zM405 295q80 -204 284 -204q77 0 147 27t122.5 71t99 104t78.5 120.5t58 127t40.5 116.5t24.5 96q30 147 15 328z" />
<glyph unicode="&#xd9;" horiz-adv-x="1283" d="M246.5 369q-2.5 -79 16.5 -153t61.5 -127t121 -85t186.5 -32q121 0 217.5 29.5t161 79t113 124t76 153.5t46.5 178l206 968h-118l-207 -967q-13 -59 -29 -108.5t-41.5 -103.5t-61.5 -95.5t-83 -75.5t-112.5 -52.5t-143.5 -18.5q-85 0 -144.5 27t-90 70.5t-42 104.5 t-8 121t18.5 129l206 969h-122l-206 -967q-19 -89 -21.5 -168zM718 1859h192l125 -323h-105z" />
<glyph unicode="&#xda;" horiz-adv-x="1283" d="M246.5 369q-2.5 -79 16.5 -153t61.5 -127t121 -85t186.5 -32q121 0 217.5 29.5t161 79t113 124t76 153.5t46.5 178l206 968h-118l-207 -967q-13 -59 -29 -108.5t-41.5 -103.5t-61.5 -95.5t-83 -75.5t-112.5 -52.5t-143.5 -18.5q-85 0 -144.5 27t-90 70.5t-42 104.5 t-8 121t18.5 129l206 969h-122l-206 -967q-19 -89 -21.5 -168zM893 1536l263 323h192l-350 -323h-105z" />
<glyph unicode="&#xdb;" horiz-adv-x="1283" d="M246.5 369q-2.5 -79 16.5 -153t61.5 -127t121 -85t186.5 -32q121 0 217.5 29.5t161 79t113 124t76 153.5t46.5 178l206 968h-118l-207 -967q-13 -59 -29 -108.5t-41.5 -103.5t-61.5 -95.5t-83 -75.5t-112.5 -52.5t-143.5 -18.5q-85 0 -144.5 27t-90 70.5t-42 104.5 t-8 121t18.5 129l206 969h-122l-206 -967q-19 -89 -21.5 -168zM659 1604l326 335h130l184 -335h-111l-160 237l-259 -237h-110z" />
<glyph unicode="&#xdc;" horiz-adv-x="1283" d="M246.5 369q-2.5 -79 16.5 -153t61.5 -127t121 -85t186.5 -32q121 0 217.5 29.5t161 79t113 124t76 153.5t46.5 178l206 968h-118l-207 -967q-13 -59 -29 -108.5t-41.5 -103.5t-61.5 -95.5t-83 -75.5t-112.5 -52.5t-143.5 -18.5q-85 0 -144.5 27t-90 70.5t-42 104.5 t-8 121t18.5 129l206 969h-122l-206 -967q-19 -89 -21.5 -168zM738 1724q8 39 41.5 67.5t73.5 28.5t62 -28.5t14 -67.5q-8 -40 -41.5 -68t-74.5 -28q-40 0 -61.5 28t-13.5 68zM1078 1724q8 39 41.5 67.5t73.5 28.5t62 -28.5t14 -67.5q-8 -40 -41.5 -68t-74.5 -28 q-40 0 -61.5 28t-13.5 68z" />
<glyph unicode="&#xdd;" horiz-adv-x="1077" d="M330 1505l275 -912l-126 -593h119l127 595l660 910h-134l-561 -785l-224 785h-136zM804 1536l263 323h192l-350 -323h-105z" />
<glyph unicode="&#xde;" horiz-adv-x="1164" d="M171 0l320 1506h120l-59 -279h252q490 0 398 -430q-40 -191 -185.5 -302t-350.5 -111h-293l-82 -384h-120zM396 494h291q86 0 166.5 32t143.5 100.5t83 161.5q70 328 -272 328h-280z" />
<glyph unicode="&#xdf;" horiz-adv-x="1113" d="M50 -409l325 1528q45 209 168 322.5t325 113.5q177 0 259 -104t44 -284q-53 -244 -287 -314q92 -23 150.5 -63.5t81 -93t25.5 -118t-15 -137.5q-39 -184 -157 -299q-80 -78 -185.5 -118.5t-218.5 -40.5h-25q-37 0 -76 12l33 95q27 -4 56 -4h32q158 0 272 94.5t148 255.5 q18 98 2.5 166.5t-65 111.5t-116 62.5t-151.5 19.5h-42l19 89h27q131 0 237.5 73t135.5 209q30 139 -25 212.5t-185 73.5q-140 0 -226 -86t-118 -234l-319 -1499z" />
<glyph unicode="&#xe0;" horiz-adv-x="995" d="M140 300q80 372 694 372h43q26 118 23.5 193t-50.5 109.5t-156 34.5q-121 0 -280 -98l-36 83q87 61 179.5 88.5t169.5 27.5q63 0 111.5 -9t79.5 -31.5t52 -46t28 -66t9.5 -77t-6 -95t-16.5 -102.5t-24 -116l-78 -370q-5 -23 -7 -34.5t-2 -32t6.5 -30t22.5 -15.5t41 -1 l26 5l-20 -94q-36 -14 -69 -14q-141 0 -100 189h-2q-82 -96 -188 -145.5t-214 -49.5q-135 0 -201 91t-36 234zM248 303q-22 -102 28 -161.5t152 -59.5q106 0 200.5 60t169.5 157l58 269h-77q-474 0 -531 -265zM501 1559h192l125 -323h-105z" />
<glyph unicode="&#xe1;" horiz-adv-x="995" d="M140 300q80 372 694 372h43q26 118 23.5 193t-50.5 109.5t-156 34.5q-121 0 -280 -98l-36 83q87 61 179.5 88.5t169.5 27.5q63 0 111.5 -9t79.5 -31.5t52 -46t28 -66t9.5 -77t-6 -95t-16.5 -102.5t-24 -116l-78 -370q-5 -23 -7 -34.5t-2 -32t6.5 -30t22.5 -15.5t41 -1 l26 5l-20 -94q-36 -14 -69 -14q-141 0 -100 189h-2q-82 -96 -188 -145.5t-214 -49.5q-135 0 -201 91t-36 234zM248 303q-22 -102 28 -161.5t152 -59.5q106 0 200.5 60t169.5 157l58 269h-77q-474 0 -531 -265zM657 1236l263 323h192l-350 -323h-105z" />
<glyph unicode="&#xe2;" horiz-adv-x="995" d="M140 300q80 372 694 372h43q26 118 23.5 193t-50.5 109.5t-156 34.5q-121 0 -280 -98l-36 83q87 61 179.5 88.5t169.5 27.5q63 0 111.5 -9t79.5 -31.5t52 -46t28 -66t9.5 -77t-6 -95t-16.5 -102.5t-24 -116l-78 -370q-5 -23 -7 -34.5t-2 -32t6.5 -30t22.5 -15.5t41 -1 l26 5l-20 -94q-36 -14 -69 -14q-141 0 -100 189h-2q-82 -96 -188 -145.5t-214 -49.5q-135 0 -201 91t-36 234zM248 303q-22 -102 28 -161.5t152 -59.5q106 0 200.5 60t169.5 157l58 269h-77q-474 0 -531 -265zM421 1224l327 335h130l183 -335h-111l-159 237l-260 -237h-110z " />
<glyph unicode="&#xe3;" horiz-adv-x="995" d="M140 300q80 372 694 372h43q26 118 23.5 193t-50.5 109.5t-156 34.5q-121 0 -280 -98l-36 83q87 61 179.5 88.5t169.5 27.5q63 0 111.5 -9t79.5 -31.5t52 -46t28 -66t9.5 -77t-6 -95t-16.5 -102.5t-24 -116l-78 -370q-5 -23 -7 -34.5t-2 -32t6.5 -30t22.5 -15.5t41 -1 l26 5l-20 -94q-36 -14 -69 -14q-141 0 -100 189h-2q-82 -96 -188 -145.5t-214 -49.5q-135 0 -201 91t-36 234zM248 303q-22 -102 28 -161.5t152 -59.5q106 0 200.5 60t169.5 157l58 269h-77q-474 0 -531 -265zM400 1249q13 53 29.5 94.5t44 80.5t70 60.5t97.5 21.5 q42 0 86 -20t75.5 -44.5t70 -44.5t69.5 -20q88 0 131 136h85q-59 -259 -242 -259q-48 0 -93 21t-74 45.5t-65.5 45.5t-69.5 21q-54 0 -85.5 -38t-55.5 -101z" />
<glyph unicode="&#xe4;" horiz-adv-x="995" d="M140 300q80 372 694 372h43q26 118 23.5 193t-50.5 109.5t-156 34.5q-121 0 -280 -98l-36 83q87 61 179.5 88.5t169.5 27.5q63 0 111.5 -9t79.5 -31.5t52 -46t28 -66t9.5 -77t-6 -95t-16.5 -102.5t-24 -116l-78 -370q-5 -23 -7 -34.5t-2 -32t6.5 -30t22.5 -15.5t41 -1 l26 5l-20 -94q-36 -14 -69 -14q-141 0 -100 189h-2q-82 -96 -188 -145.5t-214 -49.5q-135 0 -201 91t-36 234zM248 303q-22 -102 28 -161.5t152 -59.5q106 0 200.5 60t169.5 157l58 269h-77q-474 0 -531 -265zM518 1374q8 39 41.5 67.5t73.5 28.5t62 -28.5t14 -67.5 q-9 -40 -43 -68t-74 -28t-61.5 28t-12.5 68zM858 1374q8 39 41.5 67.5t73.5 28.5t62 -28.5t14 -67.5q-9 -40 -43 -68t-74 -28t-61.5 28t-12.5 68z" />
<glyph unicode="&#xe5;" horiz-adv-x="995" d="M140 300q80 372 694 372h43q26 118 23.5 193t-50.5 109.5t-156 34.5q-121 0 -280 -98l-36 83q87 61 179.5 88.5t169.5 27.5q63 0 111.5 -9t79.5 -31.5t52 -46t28 -66t9.5 -77t-6 -95t-16.5 -102.5t-24 -116l-78 -370q-5 -23 -7 -34.5t-2 -32t6.5 -30t22.5 -15.5t41 -1 l26 5l-20 -94q-36 -14 -69 -14q-141 0 -100 189h-2q-82 -96 -188 -145.5t-214 -49.5q-135 0 -201 91t-36 234zM248 303q-22 -102 28 -161.5t152 -59.5q106 0 200.5 60t169.5 157l58 269h-77q-474 0 -531 -265zM606 1458q18 85 93 147t161 62q87 0 136 -61.5t31 -147.5 q-19 -88 -93.5 -149.5t-162.5 -61.5q-86 0 -135 62t-30 149zM694 1458q-11 -52 16.5 -88t78.5 -36t95 36.5t55 87.5q11 49 -18.5 85.5t-78.5 36.5q-52 0 -94.5 -35t-53.5 -87z" />
<glyph unicode="&#xe6;" horiz-adv-x="1584" d="M140 300q14 67 47 119t71 85.5t98 57t105 35t118 17.5t112 7t109 1h9q35 116 92 213q4 98 -48 135.5t-159 37.5q-122 0 -280 -97l-36 83q164 116 349 116q231 0 271 -147q70 71 157.5 109t179.5 38q87 0 150 -33.5t95.5 -88t46.5 -127.5t9.5 -148.5t-22.5 -155.5l-9 -40 h-709q-14 -64 -18.5 -122.5t4 -117t33 -101.5t73 -69.5t118.5 -26.5q191 0 323 156l70 -61q-88 -112 -191.5 -156t-243.5 -44q-106 0 -177.5 50.5t-102.5 144.5h-5q-78 -92 -185 -143.5t-217 -51.5q-137 0 -201.5 93.5t-35.5 231.5zM248 303q-22 -101 28 -161t152 -60 q92 0 179 51t157 135q-13 114 18 250h-68.5h-79.5t-80.5 -4t-83 -11.5t-74 -23.5t-67.5 -38.5t-49 -57.5t-32 -80zM928 622h584q18 71 13.5 139.5t-26 122t-74 86.5t-130.5 33q-72 0 -136.5 -35t-109.5 -91.5t-75.5 -122t-45.5 -132.5z" />
<glyph unicode="&#xe7;" horiz-adv-x="940" d="M177 376.5q2 80.5 22 171.5q20 96 51.5 177.5t80 153.5t109.5 122.5t142.5 79.5t177.5 29q54 0 107.5 -16.5t105 -60t77.5 -107.5l-89 -57q-71 133 -221 133q-103 0 -192 -65t-146.5 -169t-85.5 -233q-22 -92 -16.5 -174t30.5 -143.5t78.5 -97.5t128.5 -36q160 0 290 149 l76 -67q-70 -87 -159 -134t-177 -55l-70 -108q90 24 152.5 -12.5t47.5 -109.5q-14 -67 -57.5 -113.5t-95.5 -66t-106 -19.5q-91 0 -169 57l42 77q88 -50 146 -50q46 0 88 24.5t54 80.5q8 39 -13.5 59.5t-67.5 20.5h-83l-27 34l82 126q-83 6 -144.5 39t-98.5 85.5 t-54.5 123.5t-15.5 151.5z" />
<glyph unicode="&#xe8;" horiz-adv-x="1019" d="M178 381.5q-2 -64.5 7.5 -125t35 -111t63.5 -88.5t95.5 -59t128.5 -21q149 0 246.5 47t183.5 154l-75 62q-136 -158 -328 -158q-107 0 -168.5 56t-72.5 153t15 229h729q1 3 9 39q19 88 21.5 167t-14 150t-52 122.5t-97.5 81.5t-145 30q-212 0 -359.5 -159t-206.5 -437 q-14 -68 -16 -132.5zM341 624q14 66 49 131.5t84.5 121.5t119.5 91t145 35q63 0 108.5 -21.5t70 -57.5t35 -86t8 -102.5t-15.5 -111.5h-604zM546 1559h192l125 -323h-105z" />
<glyph unicode="&#xe9;" horiz-adv-x="1019" d="M178 381.5q-2 -64.5 7.5 -125t35 -111t63.5 -88.5t95.5 -59t128.5 -21q149 0 246.5 47t183.5 154l-75 62q-136 -158 -328 -158q-107 0 -168.5 56t-72.5 153t15 229h729q1 3 9 39q19 88 21.5 167t-14 150t-52 122.5t-97.5 81.5t-145 30q-212 0 -359.5 -159t-206.5 -437 q-14 -68 -16 -132.5zM341 624q14 66 49 131.5t84.5 121.5t119.5 91t145 35q63 0 108.5 -21.5t70 -57.5t35 -86t8 -102.5t-15.5 -111.5h-604zM711 1236l263 323h192l-350 -323h-105z" />
<glyph unicode="&#xea;" horiz-adv-x="1019" d="M178 381.5q-2 -64.5 7.5 -125t35 -111t63.5 -88.5t95.5 -59t128.5 -21q149 0 246.5 47t183.5 154l-75 62q-136 -158 -328 -158q-107 0 -168.5 56t-72.5 153t15 229h729q1 3 9 39q19 88 21.5 167t-14 150t-52 122.5t-97.5 81.5t-145 30q-212 0 -359.5 -159t-206.5 -437 q-14 -68 -16 -132.5zM341 624q14 66 49 131.5t84.5 121.5t119.5 91t145 35q63 0 108.5 -21.5t70 -57.5t35 -86t8 -102.5t-15.5 -111.5h-604zM475 1224l327 335h130l183 -335h-111l-159 237l-260 -237h-110z" />
<glyph unicode="&#xeb;" horiz-adv-x="1019" d="M178 381.5q-2 -64.5 7.5 -125t35 -111t63.5 -88.5t95.5 -59t128.5 -21q149 0 246.5 47t183.5 154l-75 62q-136 -158 -328 -158q-107 0 -168.5 56t-72.5 153t15 229h729q1 3 9 39q19 88 21.5 167t-14 150t-52 122.5t-97.5 81.5t-145 30q-212 0 -359.5 -159t-206.5 -437 q-14 -68 -16 -132.5zM341 624q14 66 49 131.5t84.5 121.5t119.5 91t145 35q63 0 108.5 -21.5t70 -57.5t35 -86t8 -102.5t-15.5 -111.5h-604zM553 1374q8 39 41.5 67.5t73.5 28.5t62 -28.5t14 -67.5q-9 -40 -43 -68t-74 -28t-61.5 28t-12.5 68zM893 1374q8 39 41.5 67.5 t73.5 28.5t62 -28.5t14 -67.5q-9 -40 -43 -68t-74 -28t-61.5 28t-12.5 68z" />
<glyph unicode="&#xec;" horiz-adv-x="442" d="M185 0h112l233 1094h-239l-20 -93h127zM192 1559h192l125 -323h-105z" />
<glyph unicode="&#xed;" horiz-adv-x="442" d="M185 0h112l233 1094h-239l-20 -93h127zM403 1246l263 323h192l-350 -323h-105z" />
<glyph unicode="&#xee;" horiz-adv-x="442" d="M157 1224l327 335h130l183 -335h-111l-159 237l-260 -237h-110zM185 0h112l233 1094h-239l-20 -93h127z" />
<glyph unicode="&#xef;" horiz-adv-x="442" d="M185 0h112l233 1094h-239l-20 -93h127zM227 1374q8 39 41.5 67.5t73.5 28.5t62 -28.5t14 -67.5q-9 -41 -43 -68.5t-74 -27.5t-61.5 28t-12.5 68zM567 1374q8 39 41.5 67.5t73.5 28.5t62 -28.5t14 -67.5q-9 -41 -43 -68.5t-74 -27.5t-61.5 28t-12.5 68z" />
<glyph unicode="&#xf0;" horiz-adv-x="1059" d="M175.5 288q-12.5 93 12.5 199q28 131 103 246.5t189.5 190t239.5 74.5q70 0 132 -19t135 -76l2 2q-69 209 -197 340l-333 -155l-21 73l292 137q-75 65 -180 126l37 90q103 -53 242 -170l264 123l21 -74l-231 -107q145 -166 197 -345.5t6 -393.5q-24 -114 -72 -215 t-117.5 -182.5t-166.5 -129t-208 -47.5q-103 0 -179.5 40.5t-115.5 110t-51.5 162.5zM290 373.5q-2 -57.5 15 -111.5t45 -95.5t78 -66.5t114 -25q87 0 161.5 39t125.5 104t84.5 138t49.5 150q35 167 -3 259q-25 63 -90.5 98t-151.5 35q-85 0 -158 -35.5t-123.5 -95 t-84.5 -130.5t-50 -149q-10 -57 -12 -114.5z" />
<glyph unicode="&#xf1;" horiz-adv-x="1071" d="M140 0h114l153 726q48 73 100.5 130.5t127 102t148.5 44.5q59 0 100.5 -18.5t63 -48t30 -71.5t6.5 -84t-12 -90l-148 -691h113l147 690q15 69 18 128t-9 114t-41.5 94t-84 62t-132.5 23q-107 0 -210 -61.5t-185 -162.5l-3 1l36 206h-99zM458 1249q13 53 29.5 94.5 t44 80.5t70 60.5t97.5 21.5q42 0 86 -20t75.5 -44.5t70 -44.5t69.5 -20q88 0 131 136h85q-59 -259 -242 -259q-48 0 -93 21t-74 45.5t-65.5 45.5t-69.5 21q-54 0 -85.5 -38t-55.5 -101z" />
<glyph unicode="&#xf2;" horiz-adv-x="1052" d="M181.5 378.5q1.5 80.5 19.5 165.5q17 78 48 155t81.5 152t112.5 132t145.5 92t174.5 35q94 0 163 -35t105.5 -91t53.5 -131.5t14.5 -152t-19.5 -155.5q-23 -110 -71 -209.5t-117 -181.5t-165.5 -130.5t-205.5 -48.5q-89 0 -156.5 33t-106.5 88t-58.5 128.5t-18 154z M299 413q-1 -66 13 -126.5t42.5 -107.5t76.5 -75t111 -28q82 0 155.5 42t126 110.5t89.5 149.5t55 165q15 69 18.5 133.5t-8 126t-38.5 106.5t-77.5 72.5t-121.5 27.5q-86 0 -161.5 -44t-127.5 -115t-86.5 -148.5t-51.5 -156.5q-14 -66 -15 -132zM551 1559h192l126 -323 h-105z" />
<glyph unicode="&#xf3;" horiz-adv-x="1052" d="M181.5 378.5q1.5 80.5 19.5 165.5q17 78 48 155t81.5 152t112.5 132t145.5 92t174.5 35q94 0 163 -35t105.5 -91t53.5 -131.5t14.5 -152t-19.5 -155.5q-23 -110 -71 -209.5t-117 -181.5t-165.5 -130.5t-205.5 -48.5q-89 0 -156.5 33t-106.5 88t-58.5 128.5t-18 154z M299 413q-1 -66 13 -126.5t42.5 -107.5t76.5 -75t111 -28q82 0 155.5 42t126 110.5t89.5 149.5t55 165q15 69 18.5 133.5t-8 126t-38.5 106.5t-77.5 72.5t-121.5 27.5q-86 0 -161.5 -44t-127.5 -115t-86.5 -148.5t-51.5 -156.5q-14 -66 -15 -132zM713 1236l262 323h192 l-349 -323h-105z" />
<glyph unicode="&#xf4;" horiz-adv-x="1052" d="M181.5 378.5q1.5 80.5 19.5 165.5q17 78 48 155t81.5 152t112.5 132t145.5 92t174.5 35q94 0 163 -35t105.5 -91t53.5 -131.5t14.5 -152t-19.5 -155.5q-23 -110 -71 -209.5t-117 -181.5t-165.5 -130.5t-205.5 -48.5q-89 0 -156.5 33t-106.5 88t-58.5 128.5t-18 154z M299 413q-1 -66 13 -126.5t42.5 -107.5t76.5 -75t111 -28q82 0 155.5 42t126 110.5t89.5 149.5t55 165q15 69 18.5 133.5t-8 126t-38.5 106.5t-77.5 72.5t-121.5 27.5q-86 0 -161.5 -44t-127.5 -115t-86.5 -148.5t-51.5 -156.5q-14 -66 -15 -132zM467 1224l326 335h130 l184 -335h-111l-159 237l-260 -237h-110z" />
<glyph unicode="&#xf5;" horiz-adv-x="1052" d="M181.5 378.5q1.5 80.5 19.5 165.5q17 78 48 155t81.5 152t112.5 132t145.5 92t174.5 35q94 0 163 -35t105.5 -91t53.5 -131.5t14.5 -152t-19.5 -155.5q-23 -110 -71 -209.5t-117 -181.5t-165.5 -130.5t-205.5 -48.5q-89 0 -156.5 33t-106.5 88t-58.5 128.5t-18 154z M299 413q-1 -66 13 -126.5t42.5 -107.5t76.5 -75t111 -28q82 0 155.5 42t126 110.5t89.5 149.5t55 165q15 69 18.5 133.5t-8 126t-38.5 106.5t-77.5 72.5t-121.5 27.5q-86 0 -161.5 -44t-127.5 -115t-86.5 -148.5t-51.5 -156.5q-14 -66 -15 -132zM455 1249q13 53 30 94.5 t44.5 80.5t70 60.5t97.5 21.5q42 0 86 -20t75.5 -44.5t70 -44.5t69.5 -20q89 0 130 136h85q-59 -259 -242 -259q-48 0 -93 21t-73.5 45.5t-65 45.5t-69.5 21q-54 0 -85.5 -38t-55.5 -101z" />
<glyph unicode="&#xf6;" horiz-adv-x="1052" d="M181.5 378.5q1.5 80.5 19.5 165.5q17 78 48 155t81.5 152t112.5 132t145.5 92t174.5 35q94 0 163 -35t105.5 -91t53.5 -131.5t14.5 -152t-19.5 -155.5q-23 -110 -71 -209.5t-117 -181.5t-165.5 -130.5t-205.5 -48.5q-89 0 -156.5 33t-106.5 88t-58.5 128.5t-18 154z M299 413q-1 -66 13 -126.5t42.5 -107.5t76.5 -75t111 -28q82 0 155.5 42t126 110.5t89.5 149.5t55 165q15 69 18.5 133.5t-8 126t-38.5 106.5t-77.5 72.5t-121.5 27.5q-86 0 -161.5 -44t-127.5 -115t-86.5 -148.5t-51.5 -156.5q-14 -66 -15 -132zM551 1374q8 39 42 67.5 t74 28.5t61.5 -28.5t13.5 -67.5q-9 -41 -42.5 -68.5t-73.5 -27.5q-39 0 -61.5 28t-13.5 68zM891 1374q8 39 42 67.5t74 28.5t61.5 -28.5t13.5 -67.5q-9 -41 -42.5 -68.5t-73.5 -27.5q-39 0 -61.5 28t-13.5 68z" />
<glyph unicode="&#xf7;" horiz-adv-x="1260" d="M301 649l22 96h956l-22 -96h-956zM601 336q10 43 48.5 74.5t83.5 31.5q42 0 65.5 -31.5t13.5 -74.5t-48 -75t-81 -32q-44 0 -68 32t-14 75zM768 1059q10 43 48 74.5t83 31.5q43 0 66.5 -31.5t13.5 -74.5t-47.5 -74t-80.5 -31q-45 0 -69 30.5t-14 74.5z" />
<glyph unicode="&#xf8;" horiz-adv-x="1052" d="M-13 0q148 132 221 199q-45 160 -6 345q17 82 50 161.5t84.5 153t113.5 129.5t143.5 89.5t169.5 33.5q188 0 287 -155q28 25 60 53.5t71.5 63.5t60.5 54l51 -56q-72 -63 -214 -191q41 -156 2 -335q-18 -83 -50 -162.5t-82 -153.5t-112 -129.5t-143.5 -89t-171.5 -33.5 q-182 0 -281 148q-104 -91 -202 -181zM311 291q216 195 648 583q-68 136 -217 136q-85 0 -160.5 -44t-127.5 -114.5t-87 -149t-52 -157.5q-24 -117 -4 -254zM337 213q74 -135 206 -135q68 0 131 29.5t109.5 77t85 109.5t63 124.5t37.5 124.5q24 115 14 250 q-44 -39 -646 -580z" />
<glyph unicode="&#xf9;" horiz-adv-x="1050" d="M210 379q-41 -197 23 -300.5t230 -103.5q223 0 383 219l2 -1l-33 -193h100l232 1094h-113l-155 -731q-58 -97 -103 -145q-132 -140 -263 -140q-126 0 -172.5 84t-18.5 216l151 716h-112zM536 1559h192l124 -323h-105z" />
<glyph unicode="&#xfa;" horiz-adv-x="1050" d="M210 379q-41 -197 23 -300.5t230 -103.5q223 0 383 219l2 -1l-33 -193h100l232 1094h-113l-155 -731q-58 -97 -103 -145q-132 -140 -263 -140q-126 0 -172.5 84t-18.5 216l151 716h-112zM718 1236l263 323h192l-350 -323h-105z" />
<glyph unicode="&#xfb;" horiz-adv-x="1050" d="M210 379q-41 -197 23 -300.5t230 -103.5q223 0 383 219l2 -1l-33 -193h100l232 1094h-113l-155 -731q-58 -97 -103 -145q-132 -140 -263 -140q-126 0 -172.5 84t-18.5 216l151 716h-112zM473 1224l326 335h130l184 -335h-111l-160 237l-259 -237h-110z" />
<glyph unicode="&#xfc;" horiz-adv-x="1049" d="M210 379q-41 -197 23 -300.5t230 -103.5q223 0 383 219l2 -1l-33 -193h100l232 1094h-113l-155 -731q-58 -97 -103 -145q-132 -140 -263 -140q-126 0 -172.5 84t-18.5 216l151 716h-112zM554 1374q8 39 41.5 67.5t73.5 28.5t62 -28.5t14 -67.5q-9 -40 -43 -68t-74 -28 t-61.5 28t-12.5 68zM894 1374q8 39 41.5 67.5t73.5 28.5t62 -28.5t14 -67.5q-9 -40 -43 -68t-74 -28t-61.5 28t-12.5 68z" />
<glyph unicode="&#xfd;" horiz-adv-x="898" d="M-1 -415q54 -12 83 -12q124 0 193 48t144 187l695 1286h-127l-478 -921l-125 921h-125l159 -1089q-15 -28 -44 -75q-43 -75 -60 -104q-30 -50 -57 -79q-58 -64 -153 -64q-16 0 -50 8l-18 4zM661 1236l263 323h192l-350 -323h-105z" />
<glyph unicode="&#xfe;" horiz-adv-x="1159" d="M50 -408l405 1909l118 42l-132 -628l5 5q190 190 405 190q85 0 148.5 -29.5t100 -81.5t54 -124t15 -155t-22.5 -177q-16 -75 -42.5 -147.5t-73 -150.5t-105.5 -135.5t-146 -95t-188 -37.5q-231 0 -305 214l-118 -557zM320 349q12 -75 49 -135q79 -132 243 -132 q74 0 141 37.5t112.5 92t82 122t55.5 121.5t28 97q43 202 -21 328t-217 126q-94 0 -197.5 -58t-187.5 -185z" />
<glyph unicode="&#xff;" horiz-adv-x="899" d="M-1 -415q54 -12 83 -12q124 0 193 48t144 187l695 1286h-127l-478 -921l-125 921h-125l159 -1089q-15 -28 -44 -75q-43 -75 -60 -104q-30 -50 -57 -79q-58 -64 -153 -64q-16 0 -50 8l-18 4zM488 1374q8 39 41.5 67.5t73.5 28.5t62 -28.5t14 -67.5q-9 -40 -42.5 -68 t-73.5 -28t-62 28t-13 68zM828 1374q8 39 41.5 67.5t73.5 28.5t62 -28.5t14 -67.5q-9 -40 -42.5 -68t-73.5 -28t-62 28t-13 68z" />
<glyph unicode="&#x152;" horiz-adv-x="1812" d="M240 439q-3 79 5 157t25 160q25 118 70.5 229t112 208.5t147 170.5t181.5 115.5t210 42.5q110 0 175 -19h869l-31 -114h-737l-122 -573h644l-28 -105h-638l-127 -597h753l-31 -114h-839q-86 -28 -217 -28q-87 0 -157.5 24t-117.5 66.5t-79.5 102t-48.5 127.5t-19 147z M372 477.5q1 -77.5 20 -144.5t52.5 -122.5t96 -88t146.5 -32.5q120 0 190 28l268 1260q-27 14 -80 22.5t-98 8.5q-84 0 -160 -34t-133.5 -92t-105.5 -126.5t-81.5 -145t-55 -140t-33.5 -118.5q-14 -64 -20.5 -131t-5.5 -144.5z" />
<glyph unicode="&#x153;" horiz-adv-x="1700" d="M182 378.5q1 80.5 19 165.5q17 78 48 155t81.5 152t112.5 132.5t145.5 92.5t174.5 35q225 0 301 -187q156 186 387 186q83 0 144 -30t95.5 -82t50 -123t12 -150.5t-22.5 -167.5q-1 -3 -3 -11t-3.5 -16t-2.5 -13h-729q-43 -203 13.5 -320t216.5 -117q190 0 323 156l71 -61 q-85 -106 -185.5 -153t-250.5 -47q-215 0 -289 178q-155 -178 -370 -178q-89 0 -156.5 33t-106 88t-58 128.5t-18.5 154zM300 413q-1 -66 13 -126.5t42 -107.5t76 -75t111 -28q94 0 176 53.5t144 143.5q-12 112 14 238q35 167 108 298q-45 201 -242 201q-69 0 -132.5 -29.5 t-110 -77t-85 -110t-62.5 -124.5t-37 -124q-14 -66 -15 -132zM1024 622h604q12 58 14 112t-10.5 103.5t-38.5 86t-72.5 58t-109.5 21.5q-76 0 -144 -35t-115.5 -91.5t-80.5 -122t-47 -132.5z" />
<glyph unicode="&#x178;" horiz-adv-x="1077" d="M330 1505l275 -912l-126 -593h119l127 595l660 910h-134l-561 -785l-224 785h-136zM651 1744q8 39 42 67.5t74 28.5t61.5 -28.5t13.5 -67.5q-8 -40 -41.5 -68t-74.5 -28q-39 0 -61 28t-14 68zM991 1744q8 39 42 67.5t74 28.5t61.5 -28.5t13.5 -67.5q-8 -40 -41.5 -68 t-74.5 -28q-39 0 -61 28t-14 68z" />
<glyph unicode="&#x2c6;" horiz-adv-x="1015" d="M491 1224l327 335h130l183 -335h-111l-158 237l-260 -237h-111z" />
<glyph unicode="&#x2dc;" horiz-adv-x="805" d="M314 1249q13 53 30 94.5t44.5 80.5t70 60.5t97.5 21.5q42 0 86 -20t75.5 -44.5t69.5 -44.5t69 -20q88 0 131 136h86q-13 -53 -30 -95t-44.5 -81.5t-70.5 -61t-98 -21.5q-48 0 -93 21t-74 45.5t-65.5 45.5t-69.5 21q-29 0 -52 -11.5t-39.5 -34t-27 -43t-21.5 -50.5z" />
<glyph unicode="&#x2000;" horiz-adv-x="969" />
<glyph unicode="&#x2001;" horiz-adv-x="1939" />
<glyph unicode="&#x2002;" horiz-adv-x="969" />
<glyph unicode="&#x2003;" horiz-adv-x="1939" />
<glyph unicode="&#x2004;" horiz-adv-x="646" />
<glyph unicode="&#x2005;" horiz-adv-x="484" />
<glyph unicode="&#x2006;" horiz-adv-x="323" />
<glyph unicode="&#x2007;" horiz-adv-x="323" />
<glyph unicode="&#x2008;" horiz-adv-x="242" />
<glyph unicode="&#x2009;" horiz-adv-x="387" />
<glyph unicode="&#x200a;" horiz-adv-x="107" />
<glyph unicode="&#x2010;" horiz-adv-x="608" d="M236 673l24 115h421l-24 -115h-421z" />
<glyph unicode="&#x2011;" horiz-adv-x="608" d="M236 673l24 115h421l-24 -115h-421z" />
<glyph unicode="&#x2012;" horiz-adv-x="608" d="M236 673l24 115h421l-24 -115h-421z" />
<glyph unicode="&#x2013;" horiz-adv-x="1139" d="M236 673l24 115h944l-24 -115h-944z" />
<glyph unicode="&#x2014;" horiz-adv-x="1974" d="M236 673l24 115h1786l-24 -115h-1786z" />
<glyph unicode="&#x2018;" horiz-adv-x="453" d="M311 932l225 573h90l-137 -573h-178z" />
<glyph unicode="&#x2019;" horiz-adv-x="453" d="M341 932l137 573h178l-225 -573h-90z" />
<glyph unicode="&#x201a;" horiz-adv-x="468" d="M72 -338l145 583h187l-251 -583h-81z" />
<glyph unicode="&#x201c;" horiz-adv-x="903" d="M311 932l225 573h90l-137 -573h-178zM761 932l225 573h90l-137 -573h-178z" />
<glyph unicode="&#x201d;" horiz-adv-x="933" d="M341 932l137 573h178l-225 -573h-90zM791 932l137 573h178l-225 -573h-90z" />
<glyph unicode="&#x201e;" horiz-adv-x="918" d="M72 -338l145 583h187l-251 -583h-81zM522 -338l145 583h187l-251 -583h-81z" />
<glyph unicode="&#x2022;" horiz-adv-x="730" d="M314 750q18 87 93.5 150.5t161.5 63.5q87 0 135 -63.5t30 -150.5q-19 -87 -93.5 -149t-161.5 -62t-135.5 62t-29.5 149z" />
<glyph unicode="&#x2026;" horiz-adv-x="1458" d="M132 96q10 51 53.5 86.5t94.5 35.5q50 0 78 -35.5t18 -86.5q-10 -50 -54 -86t-94 -36t-78.5 36t-17.5 86zM632 96q10 51 53.5 86.5t94.5 35.5q50 0 78 -35.5t18 -86.5q-10 -50 -54 -86t-94 -36t-78.5 36t-17.5 86zM1132 96q10 51 53.5 86.5t94.5 35.5q50 0 78 -35.5 t18 -86.5q-10 -50 -54 -86t-94 -36t-78.5 36t-17.5 86z" />
<glyph unicode="&#x202f;" horiz-adv-x="387" />
<glyph unicode="&#x2030;" horiz-adv-x="2688" d="M322.5 930q2.5 64 17.5 133q19 90 54 169.5t85 145.5t120.5 104.5t152.5 38.5q81 0 134.5 -38.5t73.5 -102t22.5 -144.5t-18.5 -166q-20 -91 -54 -171t-84 -146.5t-120.5 -105t-152.5 -38.5q-64 0 -111 26t-73 69.5t-37.5 102.5t-9 123zM439 883q4 -79 40 -127.5 t99 -48.5q92 0 165 102.5t105 255.5q36 153 5 256t-123 103t-167.5 -102.5t-108.5 -258.5q-19 -101 -15 -180zM548 1l1032 1502h113l-1033 -1502h-112zM1243 260.5q-3 81.5 18 165.5q19 90 54 169.5t85 145t120.5 104t151.5 38.5t134.5 -38t74.5 -103t21.5 -143t-18.5 -167 q-19 -91 -53.5 -170.5t-84 -146t-120 -105t-153.5 -38.5q-79 0 -132.5 39.5t-74 103.5t-23.5 145.5zM1359.5 246q3.5 -79 39.5 -127.5t99 -48.5q92 0 164.5 102t105.5 256q35 153 5.5 256t-122.5 103q-92 0 -167.5 -103t-108.5 -258q-19 -101 -15.5 -180zM2053 260.5 q-3 81.5 18 165.5q19 90 54 169.5t85 145t120.5 104t151.5 38.5t134.5 -38t74.5 -103t21.5 -143t-18.5 -167q-19 -91 -53.5 -170.5t-84 -146t-120 -105t-153.5 -38.5q-79 0 -132.5 39.5t-74 103.5t-23.5 145.5zM2169.5 246q3.5 -79 39.5 -127.5t99 -48.5q92 0 164.5 102 t105.5 256q35 153 5.5 256t-122.5 103q-92 0 -167.5 -103t-108.5 -258q-19 -101 -15.5 -180z" />
<glyph unicode="&#x2039;" horiz-adv-x="678" d="M170 536l499 515h137l-499 -515l281 -536h-143z" />
<glyph unicode="&#x203a;" horiz-adv-x="670" d="M86 0l509 536l-279 515h137l279 -515l-503 -536h-143z" />
<glyph unicode="&#x205f;" horiz-adv-x="484" />
<glyph unicode="&#x20ac;" horiz-adv-x="1172" d="M124 521l40 91h161q6 49 22 128q17 78 35 136h-162l39 92h155q64 163 158.5 284.5t228.5 195t290 73.5q87 0 166 -43t118 -135l-96 -61q-61 127 -216 127q-166 0 -302 -120.5t-220 -320.5h489l-38 -92h-485q-25 -78 -36 -134q-12 -51 -21 -130h456l-39 -91h-423 q-4 -197 72.5 -317.5t230.5 -120.5q92 0 169.5 24.5t178.5 97.5l46 -85q-92 -76 -196.5 -112.5t-205.5 -36.5q-118 0 -204 42t-134.5 118t-69 173.5t-14.5 216.5h-193z" />
<glyph unicode="&#x2122;" horiz-adv-x="1503" d="M338 1434l15 72h530l-15 -72h-223l-165 -777h-79l165 777h-228zM863 657l180 849h90l140 -556l372 556h92l-180 -849h-76l153 719l-47 -80l-314 -463h-52l-115 463l-16 73l-151 -712h-76z" />
<glyph unicode="&#x2190;" horiz-adv-x="1312" d="M256 687l627 506l38 -82l-468 -368h932l-26 -111h-934l300 -368l-77 -82z" />
<glyph unicode="&#x2191;" horiz-adv-x="1160" d="M256 687l606 531l358 -533l-92 -59l-258 399l-224 -972h-106l225 974l-445 -401z" />
<glyph unicode="&#x2192;" horiz-adv-x="1310" d="M243 632l26 111h930l-298 368l76 82l393 -506l-624 -505l-41 82l470 368h-932z" />
<glyph unicode="&#x2193;" horiz-adv-x="1162" d="M233 585l93 59l258 -399l225 973h104l-225 -975l445 401l65 -61l-605 -530z" />
<glyph unicode="&#x25fc;" horiz-adv-x="1095" d="M0 0v1095h1095v-1095h-1095z" />
<glyph horiz-adv-x="893" d="M151 0l19 101h287l171 878l-358 -127l-5 100l401 142h88l-193 -993h264l-19 -101h-655z" />
<glyph horiz-adv-x="886" d="M101 -1l9 45q17 89 63.5 166.5t107.5 133t131.5 104.5t139.5 90.5t126.5 80.5t98 84.5t50.5 94.5q18 96 -34.5 155.5t-148.5 59.5q-148 0 -271 -131l-70 61q151 168 358 168q145 0 222 -84.5t50 -228.5q-13 -65 -55.5 -122t-100.5 -100.5t-125.5 -85t-135.5 -82.5 t-126 -84.5t-100 -100.5t-55 -121h551l-20 -103h-665z" />
<glyph horiz-adv-x="921" d="M84 18l82 57q39 -73 108.5 -105t146.5 -32q74 0 137.5 26t106 69t70 94t37.5 106q25 121 -32.5 186.5t-169.5 65.5h-109l18 92h111q99 0 163 70.5t82 162.5q16 83 -35.5 144t-149.5 61q-161 0 -281 -127l-62 57q78 87 174 126.5t183 39.5q64 0 118.5 -18.5t95.5 -54 t57.5 -94t1.5 -132.5q-15 -81 -59 -147t-147 -129q0 -1 -0.5 -3t-0.5 -3q190 -82 146 -297q-35 -182 -167 -287.5t-316 -105.5q-100 0 -185.5 43.5t-123.5 134.5z" />
<glyph horiz-adv-x="991" d="M61 147l17 82l799 864h88l-165 -846h155l-20 -100h-155l-58 -297h-101l58 297h-618zM212 247h487l131 666q-510 -553 -618 -666z" />
<glyph horiz-adv-x="957" d="M111 20l83 57q68 -137 233 -137q75 0 139.5 29.5t106 76t67.5 96t36 97.5q29 144 -30 224.5t-165 80.5q-88 0 -243 -92l-79 31l158 610h555l-17 -92h-467l-114 -447q129 80 242 80q68 0 124.5 -24.5t96 -73t52.5 -121.5t-5 -170q-36 -186 -168 -295.5t-316 -109.5 q-97 0 -174.5 43t-114.5 137z" />
<glyph horiz-adv-x="957" d="M186.5 368q3.5 76 20.5 162q21 108 49.5 202t76.5 193.5t107 169.5t145.5 115t188.5 45q167 0 241 -142l-75 -51q-32 45 -82 71.5t-108 26.5q-69 0 -129.5 -28.5t-105 -79.5t-80.5 -110.5t-62 -132.5t-42.5 -133.5t-29.5 -125.5q2 0 4 -2q61 81 132.5 129.5t121.5 62 t99 13.5q171 0 247.5 -100t41.5 -277q-36 -184 -162 -292.5t-303 -108.5q-87 0 -148 32.5t-93 85t-45 126t-9.5 149.5zM294 382q-26 -135 30.5 -223t187.5 -88q128 0 218 85t116 218q28 139 -31 214t-192 75q-106 0 -207 -84.5t-122 -196.5z" />
<glyph horiz-adv-x="796" d="M170 -146q405 692 653 1145h-559l18 94h661l-16 -88q-152 -300 -650 -1151h-107z" />
<glyph horiz-adv-x="1012" d="M167 325q20 107 109 198.5t201 122.5v2q-79 35 -120.5 114t-24.5 163q30 148 151 237.5t270 89.5q148 0 231.5 -88t53.5 -235q-17 -84 -88.5 -164t-164.5 -115l-1 -2q102 -33 155.5 -121.5t32.5 -197.5q-34 -174 -164.5 -266t-306.5 -92q-112 0 -194.5 38.5t-122.5 120.5 t-17 195zM268 329q-13 -66 3 -118t54.5 -82.5t87.5 -46t106 -15.5q78 0 148 24t128.5 84.5t76.5 149.5q26 134 -48 207t-204 73q-131 0 -228.5 -70t-123.5 -206zM433 925q-22 -114 36.5 -175t166.5 -61q107 0 194.5 65t108.5 175q23 112 -38 172.5t-167 60.5 q-108 0 -192.5 -62t-108.5 -175z" />
<glyph horiz-adv-x="951" d="M138 -37l90 53q33 -39 86.5 -61.5t109.5 -22.5q71 0 133.5 37t107.5 95.5t82.5 140t61.5 162t41 169.5q-4 0 -5 2q-73 -84 -169 -130t-159 -46q-169 0 -247.5 101t-45.5 267q33 167 163.5 274t292.5 107q80 0 139.5 -26t94 -71t51.5 -108.5t16 -136t-17 -155.5 q-18 -88 -36.5 -162t-46 -156t-59 -146.5t-75 -124.5t-93.5 -99.5t-115 -63.5t-139 -24q-177 0 -262 125zM327 736q-25 -130 34.5 -205t187.5 -75q101 0 201.5 80t122.5 194q26 131 -37.5 210t-184.5 79q-117 0 -208 -78t-116 -205z" />
<glyph horiz-adv-x="1032" d="M178 378q1 80 18 166q16 79 44.5 155.5t75 152t105 132t139 92t171.5 35.5q79 0 139.5 -24t98 -66.5t61 -96.5t30.5 -119t3.5 -129t-16.5 -130q-22 -110 -66.5 -209.5t-110 -182t-159 -131t-202.5 -48.5q-89 0 -154.5 32.5t-103 87.5t-56 129t-17.5 154zM289 412.5 q-1 -65.5 12.5 -126.5t40.5 -108t75 -75t111 -28q66 0 125.5 28t104.5 74.5t82 107.5t60.5 125.5t36.5 131.5q13 70 16.5 133.5t-7 126t-36.5 108t-76.5 73.5t-121.5 28q-70 0 -131.5 -30.5t-106 -78t-80 -110.5t-57.5 -124.5t-34 -123.5q-13 -66 -14 -131.5z" />
</font>
</defs>
</svg>
