<?xml version="1.0" standalone="no"?>
<!DOCTYPE svg PUBLIC "-//W3C//DTD SVG 1.1//EN" "http://www.w3.org/Graphics/SVG/1.1/DTD/svg11.dtd" >
<svg xmlns="http://www.w3.org/2000/svg">
<metadata></metadata>
<defs>
<font id="madrasbold_italic" horiz-adv-x="1322" >
<font-face units-per-em="2048" ascent="1628" descent="-420" />
<missing-glyph horiz-adv-x="487" />
<glyph unicode="&#xfb01;" horiz-adv-x="1125" d="M171 0l198 928h-164l35 165h164l33 156q30 140 129.5 223.5t236.5 83.5q74 0 170 -31l-73 -164q-81 19 -119 19q-59 0 -95 -33.5t-48 -90.5l-34 -163h599l-232 -1093h-199l197 928h-399l-198 -928h-201zM1039 1400q13 60 66 103t110 43t92 -43t22 -103t-66 -102.5 t-110 -42.5t-92 42.5t-22 102.5z" />
<glyph unicode="&#xfb02;" horiz-adv-x="1100" d="M172 0l198 929h-164l35 164h164l12 59q40 190 162.5 297.5t310.5 107.5q204 0 280 -99t32 -306l-192 -900q-11 -52 2.5 -73t63.5 -21q29 0 104 9l-7 -154q-85 -27 -145 -27q-147 0 -197 67t-19 211l190 897q26 123 -5 176.5t-143 53.5q-96 0 -154 -63t-80 -169l-13 -66 h222l-36 -164h-221l-198 -929h-202z" />
<glyph unicode="&#xfb03;" horiz-adv-x="1683" d="M172 0l197 928h-159l35 165h159l27 130q30 140 128 223.5t232 83.5q72 0 166 -31l-76 -178q-74 18 -116 18q-57 0 -92.5 -33.5t-47.5 -90.5l-25 -122h382l33 156q30 140 129 223.5t237 83.5q73 0 171 -31l-74 -164q-81 19 -119 19q-59 0 -95 -33.5t-49 -90.5l-33 -163 h589l-232 -1093h-199l196 925h-389l-197 -925h-200l197 928h-382l-197 -928h-196zM1607 1400q13 60 66 103t110 43t92 -43t22 -103t-66 -102.5t-110 -42.5t-92 42.5t-22 102.5z" />
<glyph unicode="&#xfb04;" horiz-adv-x="1680" d="M172 0l197 928h-159l36 165h159l33 156q29 140 127 223.5t232 83.5q72 0 166 -31l-75 -178q-76 18 -116 18q-58 0 -93 -33.5t-47 -90.5l-31 -148h385l11 59q40 190 163 297t311 107q203 0 279.5 -99t32.5 -305l-193 -900q-11 -53 3 -74t64 -21q33 0 103 10l-6 -154 q-87 -27 -146 -27q-147 0 -197 66.5t-19 211.5l191 897q26 123 -5.5 176.5t-143.5 53.5q-96 0 -153.5 -63t-79.5 -170l-13 -65h221l-35 -165h-222l-198 -928h-202l198 928h-385l-197 -928h-196z" />
<glyph horiz-adv-x="2048" />
<glyph horiz-adv-x="2048" />
<glyph unicode="&#xd;" horiz-adv-x="2048" />
<glyph unicode=" "  horiz-adv-x="487" />
<glyph unicode="&#x09;" horiz-adv-x="487" />
<glyph unicode="&#xa0;" horiz-adv-x="487" />
<glyph unicode="!" horiz-adv-x="584" d="M154 133q14 65 69.5 110.5t120.5 45.5q64 0 100.5 -45.5t22.5 -110.5q-13 -64 -69 -110.5t-121 -46.5q-64 0 -100.5 46t-22.5 111zM278 449l36 222l177 833h219l-177 -833l-58 -222h-197z" />
<glyph unicode="&#x22;" horiz-adv-x="926" d="M361 822l102 683h229l-188 -683h-143zM763 822l102 683h229l-188 -683h-143z" />
<glyph unicode="#" horiz-adv-x="1389" d="M192 375l35 164h244l94 438h-245l35 165h245l77 363h175l-78 -363h324l77 363h174l-77 -363h245l-35 -165h-245l-93 -438h245l-35 -164h-245l-80 -375h-174l80 375h-324l-79 -375h-175l80 375h-245zM646 539h324l93 438h-324z" />
<glyph unicode="$" horiz-adv-x="1195" d="M143 251l174 103q57 -98 127 -141.5t180 -43.5q126 0 224 83t98 207q0 51 -32 89.5t-83 63.5t-112.5 48t-123.5 51.5t-113 65t-83 97t-32 139.5q0 199 123 340t319 166l43 205h191l-45 -216q95 -26 171.5 -90t115.5 -149l-166 -106q-41 72 -108 120t-144 48 q-120 0 -201.5 -79.5t-81.5 -202.5q0 -47 32 -83.5t83.5 -61.5t113 -48.5t123.5 -53.5t113.5 -67.5t83.5 -98.5t32 -139q0 -224 -135.5 -361.5t-356.5 -159.5l-45 -202h-191l46 208q-116 22 -204.5 90t-135.5 179z" />
<glyph unicode="%" horiz-adv-x="1970" d="M309 926.5q3 63.5 17 129.5q14 68 38.5 132t62.5 125.5t84.5 107t110 73t134.5 27.5t122 -27.5t78 -72t38 -105t7.5 -123.5t-17.5 -131q-15 -69 -38.5 -133t-61 -126t-84 -107.5t-110 -73t-135.5 -27.5q-70 0 -120.5 28t-77.5 73t-39 106t-9 124.5zM498 834.5 q26 -79.5 95 -79.5q66 0 125.5 82.5t88.5 220.5q30 146 5.5 225t-90.5 79q-68 0 -130 -83.5t-91 -222.5q-29 -142 -3 -221.5zM524 0l1050 1503h192l-1051 -1503h-191zM1273.5 304.5q3.5 63.5 17.5 129.5q14 68 38 132t62 125t84.5 106.5t110 73t134.5 27.5t122 -27.5t78 -72 t38.5 -105t8 -123.5t-17.5 -130q-19 -88 -53 -167t-85.5 -148.5t-127 -111t-165.5 -41.5q-70 0 -120.5 28t-77 73.5t-38.5 106.5t-8.5 124.5zM1462.5 212q25.5 -80 93.5 -80q66 0 126 82.5t90 221.5q29 146 4.5 224.5t-91.5 78.5q-66 0 -128 -83t-91 -222 q-29 -142 -3.5 -222z" />
<glyph unicode="&#x26;" horiz-adv-x="1380" d="M177 307q0 77 24 146t61.5 120.5t97 103t115 87.5t132.5 79q-30 63 -44 94.5t-29 86.5t-15 103q0 170 117.5 283t293.5 113q118 0 215.5 -61t134.5 -168l-169 -106q-42 69 -85 101t-104 32q-91 0 -137.5 -48.5t-46.5 -130.5q0 -81 70 -211l230 -418q81 151 127 285 l187 -57q-84 -235 -211 -416l180 -326h-252q-13 24 -39.5 71.5t-39.5 70.5q-195 -168 -441 -168q-102 0 -185 37t-135 114t-52 183zM395 346q0 -76 58 -127t136 -51q168 0 311 141q-29 53 -98 183t-108 201q-53 -28 -99.5 -61t-94.5 -77.5t-76.5 -99t-28.5 -109.5z" />
<glyph unicode="'" horiz-adv-x="522" d="M359 822l102 683h229l-188 -683h-143z" />
<glyph unicode="(" horiz-adv-x="634" d="M210 384.5q3 101.5 25 203.5q52 243 204 499t345 453l71 -99q-158 -190 -274.5 -411t-160.5 -432q-31 -136 -25.5 -282.5t31.5 -272.5t72 -248l-115 -100q-41 87 -70.5 160t-56 165t-38 177.5t-8.5 187z" />
<glyph unicode=")" horiz-adv-x="648" d="M52 -205q338 422 417 793q44 223 23 444t-98 409l115 99q71 -130 114.5 -277.5t56.5 -318t-24 -336.5q-27 -127 -80 -252t-127.5 -241t-151 -214.5t-172.5 -205.5z" />
<glyph unicode="*" horiz-adv-x="774" d="M176 1216l22 107l235 -15l-98 236l109 57l57 -248l158 245l87 -56l-195 -233l240 14l-22 -107l-235 18l96 -240l-111 -55l-53 246l-161 -247l-86 57l197 239z" />
<glyph unicode="+" horiz-adv-x="1149" d="M230 613l37 171h388l87 410h177l-87 -410h378l-36 -171h-378l-88 -415h-178l89 415h-389z" />
<glyph unicode="," horiz-adv-x="504" d="M63 -248l130 503h244l-250 -503h-124z" />
<glyph unicode="-" horiz-adv-x="698" d="M226 631l40 190h506l-40 -190h-506z" />
<glyph unicode="." horiz-adv-x="519" d="M128 133q13 64 69 110t121 46q64 0 100.5 -45.5t22.5 -110.5q-13 -64 -69 -110.5t-121 -46.5q-64 0 -100.5 46t-22.5 111z" />
<glyph unicode="/" horiz-adv-x="821" d="M9 -171l949 1781h167l-948 -1781h-168z" />
<glyph unicode="0" horiz-adv-x="1187" d="M209.5 483q2.5 81 12 146.5t23.5 132.5t32 130.5t48 142t66 144.5t88.5 131t113 110t141.5 73t172 28q86 0 153 -29t109 -78t69.5 -116t38 -139t11 -151.5t-8 -150t-22.5 -137.5q-13 -64 -32 -127t-49.5 -139t-68 -142.5t-90.5 -130.5t-113.5 -109.5t-140 -73 t-167.5 -27.5q-93 0 -164 29.5t-113.5 77.5t-68 116.5t-34 138t-6 150.5zM448 730q-119 -566 171 -566q97 0 185 81t149 209.5t95 285.5q27 125 32 230t-11 186.5t-62 127.5t-119 46q-104 0 -192 -79t-149 -211t-99 -310z" />
<glyph unicode="1" horiz-adv-x="1010" d="M114 0l42 195h310l230 1078l-324 -108l-9 191l439 148h144l-278 -1309h289l-42 -195h-801z" />
<glyph unicode="2" horiz-adv-x="1147" d="M99 0l22 102q26 121 89.5 225.5t144.5 179.5t174 140t183.5 118t166 101.5t127.5 102.5t64 110q25 115 -26 180t-163 65q-217 0 -370 -177l-130 113q214 262 505 262q204 0 316 -127t69 -329q-16 -76 -57 -142.5t-96 -115t-124.5 -96.5t-140.5 -86.5t-145 -86 t-137.5 -94.5t-119.5 -112t-89 -138h709l-42 -195h-930z" />
<glyph unicode="3" horiz-adv-x="1151" d="M125 248l165 111q40 -106 107.5 -148.5t161.5 -42.5q156 0 262.5 76.5t134.5 206.5q26 126 -31 188.5t-188 62.5h-171l41 191h154q222 0 267 214q11 39 3 78t-27 70t-61 50t-100 19q-200 0 -354 -178l-123 114q208 262 483 262q86 0 163 -30t133.5 -83.5t81 -136.5 t3.5 -180q-37 -175 -201 -287q87 -48 122 -142.5t5 -232.5q-21 -100 -65.5 -179.5t-103.5 -131t-134.5 -85.5t-154 -48.5t-166.5 -14.5q-89 0 -168 28t-144.5 92t-94.5 157z" />
<glyph unicode="4" horiz-adv-x="1244" d="M105 336l31 147q704 736 762 800q26 29 79.5 84t94.5 96l41 41h154l-209 -980h206l-40 -188h-205l-71 -336h-203l70 336h-710zM415 521q279 3 303 3h137l125 588q-12 -13 -213 -227q-56 -60 -140 -148q-136 -136 -212 -216z" />
<glyph unicode="5" horiz-adv-x="1198" d="M157 259l170 108q39 -96 118 -145.5t178 -49.5q119 0 223.5 94t130.5 217q26 122 -26.5 206.5t-167.5 84.5q-77 0 -155.5 -25t-178.5 -101l-139 58l219 799h795l-42 -195h-605l-111 -407q108 64 238 64q98 0 179 -41.5t129.5 -111t68.5 -162t-4 -194.5 q-45 -211 -203 -346.5t-368 -135.5q-96 0 -184 30t-160 95.5t-105 157.5z" />
<glyph unicode="6" horiz-adv-x="1180" d="M208 437q2 91 24 185l5 21q17 70 32 127t39 131t48.5 133t59.5 125.5t73 117t88 98.5t105.5 79t125 49.5t146.5 18.5q67 0 130 -18.5t126 -68.5t97 -127l-169 -102q-67 119 -203 119q-68 0 -131 -28.5t-113 -76.5t-92.5 -115t-73 -141.5t-51.5 -157.5q171 152 357 152 q212 0 311 -140t53 -358q-49 -230 -210.5 -358t-376.5 -128q-105 0 -184.5 38t-125.5 102t-69 148t-21 175zM423 481q-29 -139 25 -225.5t186 -86.5q127 0 228.5 81.5t131.5 220.5q30 140 -23.5 214.5t-192.5 74.5q-84 0 -155.5 -33.5t-110.5 -79.5q-71 -84 -89 -166z" />
<glyph unicode="7" horiz-adv-x="1055" d="M281 0q61 288 208 565t331 514q82 104 222 234h-693l40 192h930l-33 -156q-2 -2 -71.5 -79t-151 -175t-158.5 -204q-324 -450 -417 -891h-207z" />
<glyph unicode="8" horiz-adv-x="1253" d="M186 430q27 123 122 219.5t226 146.5q-78 45 -119.5 131.5t-21.5 184.5q39 181 182 292.5t359 111.5q218 0 325 -118.5t69 -298.5q-38 -181 -275 -297q111 -56 162.5 -158t24.5 -228q-45 -213 -205.5 -329t-397.5 -116q-240 0 -367.5 124.5t-83.5 334.5zM395 425 q-24 -116 35.5 -188.5t217.5 -72.5q162 0 262 71t124 186q24 114 -40 193.5t-214 79.5q-153 0 -257 -77.5t-128 -191.5zM598 1106q-20 -94 32 -159.5t174 -65.5q119 0 209 70t109 160q5 33 7 64.5t-10.5 60t-34.5 50.5t-63.5 35t-99.5 13q-138 0 -221 -68.5t-102 -159.5z " />
<glyph unicode="9" horiz-adv-x="1183" d="M186 185l176 108q69 -122 191 -122q85 0 162.5 42.5t137 115.5t104.5 166t72 199l-5 5q-172 -161 -350 -161q-213 0 -315 140t-56 357q49 231 209 359t374 128q105 0 184 -39.5t124.5 -105t68.5 -151.5t21.5 -178.5t-22.5 -186.5l-5 -22q-21 -92 -40.5 -164.5t-53 -166.5 t-70.5 -164.5t-93 -143t-120 -119.5t-151.5 -76.5t-188.5 -29.5q-261 0 -354 210zM502 1024q-30 -139 24 -213.5t194 -74.5q129 0 256 111q77 74 98 167q29 138 -26 225t-186 87q-128 0 -229.5 -81.5t-130.5 -220.5z" />
<glyph unicode=":" horiz-adv-x="515" d="M129 133q14 65 69.5 110.5t120.5 45.5q64 0 100.5 -45.5t22.5 -110.5t-70 -111t-120 -46q-65 0 -101 46.5t-22 110.5zM303 954q14 65 70 110.5t120 45.5q65 0 101 -46t22 -110q-13 -65 -69 -111t-121 -46t-100.5 46t-22.5 111z" />
<glyph unicode=";" horiz-adv-x="516" d="M61 -248l130 503h244l-250 -503h-124zM304 954q13 64 69 110t121 46q64 0 100.5 -45.5t22.5 -110.5q-13 -65 -69 -111t-121 -46t-100.5 46t-22.5 111z" />
<glyph unicode="&#x3c;" horiz-adv-x="802" d="M232 610l33 154l684 554l-54 -253l-478 -377l318 -377l-55 -257z" />
<glyph unicode="=" horiz-adv-x="1149" d="M232 407l34 161h849l-34 -161h-849zM320 822l34 163h849l-34 -163h-849z" />
<glyph unicode="&#x3e;" horiz-adv-x="809" d="M145 54l54 257l479 377l-318 377l53 253l449 -554l-32 -154z" />
<glyph unicode="?" horiz-adv-x="969" d="M296 133q13 64 69 110t121 46q64 0 100.5 -45.5t22.5 -110.5t-69.5 -111t-120.5 -46q-64 0 -100.5 46t-22.5 111zM332 1299q84 105 198 165t234 60q177 0 273.5 -88t60.5 -260q-16 -74 -59.5 -142t-97 -120.5t-107.5 -101t-100 -104.5t-65 -111q-16 -46 -42 -168h-217 l32 150q16 76 64 149.5t106 131t115 110.5t100.5 106.5t53.5 100.5q16 76 -26 115t-121 39q-142 0 -264 -142z" />
<glyph unicode="@" horiz-adv-x="1658" d="M234 425q-18 142 22 315q35 163 113 305t190 248.5t261.5 167.5t316.5 61q227 0 374 -97.5t197 -270t2 -398.5q-16 -75 -52 -148t-87.5 -136t-124 -101.5t-152.5 -38.5q-170 0 -200 129q-128 -137 -289 -137q-117 0 -176.5 77t-34.5 194q12 57 40 103t63 76.5t84 53 t94 34.5t102 19.5t99 9.5t94 2l3 10q23 107 -1 144t-129 37q-106 0 -228 -76l-47 102q62 49 143.5 78.5t152.5 29.5q61 0 106 -9t75.5 -25t48.5 -43t26 -56.5t6.5 -73t-8 -85.5t-18.5 -101l-59 -278q-21 -99 79 -99q51 0 95.5 31t74.5 80t49 97.5t29 96.5q33 143 18.5 261 t-68 202.5t-157.5 131t-251 46.5q-138 0 -259 -50t-210 -138t-151 -203.5t-91 -249.5q-22 -113 -23 -211t28.5 -178.5t83.5 -138t143 -89t207 -31.5q175 0 296 76l61 -99q-145 -110 -380 -110q-177 0 -303.5 55t-193 155.5t-84.5 242.5zM739 597q-14 -67 18 -104.5t99 -37.5 q70 0 138 46t119 116l-1 -1l33 151h-31q-339 0 -375 -170z" />
<glyph unicode="A" d="M9 0l870 1504h199q29 -150 50 -286l187 -1218h-230l-54 359h-596l-211 -359h-215zM540 552h469q-36 225 -42 267l-54 390h-5q-111 -207 -134 -246z" />
<glyph unicode="B" horiz-adv-x="1289" d="M162 0l320 1504h441q77 0 145 -15.5t125.5 -48.5t93.5 -83q35 -50 49 -119q5 -28 6 -59q0 -46 -12 -99q-36 -167 -188 -282q84 -30 134 -132q33 -67 33 -144q0 -41 -10 -86q-22 -101 -61 -177t-90.5 -125t-122 -79t-148 -42.5t-175.5 -12.5h-540zM412 197h317 q155 0 241 57t116 194q7 32 7 60q-1 70 -43 114q-60 62 -193 61h-342zM555 877h296q105 0 177 55.5t92 151.5q6 28 6 53q0 65 -40 109q-56 61 -183 61h-255z" />
<glyph unicode="C" horiz-adv-x="1267" d="M228 531q1 112 26 230q27 125 71 235.5t110.5 207.5t149.5 166.5t191.5 109.5t231.5 40q56 0 116 -16.5t119.5 -49t110.5 -89t79 -127.5l-182 -110q-88 186 -279 186q-174 0 -311 -160t-190 -412q-20 -102 -20 -188q0 -54 8 -102q20 -126 91.5 -201t178.5 -75 q201 0 382 210l151 -127q-82 -104 -184.5 -171t-193.5 -92t-184 -25q-123 0 -216.5 45.5t-148 122t-81.5 178.5q-26 98 -26 206v8z" />
<glyph unicode="D" horiz-adv-x="1371" d="M163 0l320 1504h310q119 0 219.5 -19.5t185 -60t143.5 -103t95 -150t39 -199.5v-23q0 -104 -24 -230q-69 -327 -289 -515.5t-530 -203.5h-469zM419 202h216q86 0 178 34t177 96.5t151 164.5t93 226q23 110 23 198q-1 154 -71 242q-112 139 -395 139h-138z" />
<glyph unicode="E" horiz-adv-x="1174" d="M163 0l319 1504h924l-54 -202h-703l-93 -443h619l-55 -195h-605l-100 -462h724l-55 -202h-921z" />
<glyph unicode="F" horiz-adv-x="1106" d="M163 0l319 1504h900l-55 -203h-677l-94 -447l620 1l-53 -198h-609l-139 -657h-212z" />
<glyph unicode="G" horiz-adv-x="1379" d="M230 512q4 112 32 240q24 114 63.5 218t105 207t148 177.5t200 121t254.5 46.5q90 0 176 -30.5t161.5 -98t112.5 -163.5l-177 -112q-24 57 -62.5 98t-81.5 61.5t-81.5 29.5t-76.5 9q-84 0 -159 -32.5t-132.5 -86.5t-104.5 -127.5t-77.5 -153t-49.5 -164.5 q-28 -130 -28 -234q0 -99 27 -177q27 -79 92 -121.5t164 -42.5q98 0 205.5 60.5t190.5 149.5l38 182h-308l42 197h511l-162 -766h-167l21 166q-73 -81 -185.5 -137.5t-215.5 -56.5q-131 0 -226.5 41.5t-149.5 113t-79 171.5q-22 87 -22 183q0 15 1 31z" />
<glyph unicode="H" horiz-adv-x="1341" d="M163 0l320 1504h212l-135 -634h588l135 634h211l-320 -1504h-211l141 665h-588l-141 -665h-212z" />
<glyph unicode="I" horiz-adv-x="557" d="M163 0l320 1504h227l-320 -1504h-227z" />
<glyph unicode="J" horiz-adv-x="862" d="M-2 9l81 189q128 -28 176 -28q85 0 145.5 20.5t102.5 65.5t68 107t45 153l209 988h211l-216 -1019q-54 -258 -191 -385t-382 -127q-119 0 -249 36z" />
<glyph unicode="K" horiz-adv-x="1255" d="M163 0l320 1504h210l-134 -633q34 33 133 122.5t103 93.5l136 122l322 295h285l-685 -613l395 -891h-254l-313 752l-180 -156l-127 -596h-211z" />
<glyph unicode="L" horiz-adv-x="1097" d="M163 0l320 1504h215l-275 -1296h677l-55 -208h-882z" />
<glyph unicode="M" horiz-adv-x="1607" d="M163 0l320 1504h223l222 -889l602 889h229l-319 -1504h-214l231 1090l-7 1q-145 -235 -163 -260l-351 -536h-142q-117 508 -122 536l-58 267h-4l-234 -1098h-213z" />
<glyph unicode="N" horiz-adv-x="1368" d="M163 0l320 1504h181l302 -774q2 -5 28 -75.5t52.5 -140.5t31.5 -85h6q40 198 227 1075h210l-320 -1504h-177q-7 17 -70 177.5t-144 370t-110 286.5q-7 18 -26 72t-41 117t-24 70h-6q-16 -89 -42 -213l-187 -880h-211z" />
<glyph unicode="O" horiz-adv-x="1376" d="M238 595q6 90 24 181q31 144 92.5 274t151.5 237t217 170.5t273 63.5q93 0 170.5 -30.5t131 -84t90.5 -126.5q36 -74 52 -160q14 -77 15 -161q0 -11 -1 -21q-2 -96 -23 -195q-18 -85 -46 -167.5t-71 -172.5t-103 -165t-134 -136t-173 -95.5t-212 -34.5q-109 0 -193.5 35 t-135.5 96.5t-83 139.5t-40 170q-5 56 -5 111q1 36 3 71zM455 604q-2 -30 -3 -61q0 -44 6 -91q8 -79 34.5 -138t83.5 -97.5t140 -38.5q88 0 165.5 42.5t130 105t95.5 144t66 150t37 132.5q15 70 20 142q2 25 2 50q0 49 -6 100q-10 78 -36 138t-81.5 99t-134.5 39 q-81 0 -156.5 -40.5t-130 -102.5t-99.5 -140.5t-71.5 -150t-39.5 -134.5q-16 -74 -22 -148z" />
<glyph unicode="P" horiz-adv-x="1169" d="M163 0l320 1504h384q115 0 204 -27.5t152 -86.5t81 -152q8 -40 8 -86q0 -63 -14 -139q-45 -214 -190 -323t-360 -109h-251l-124 -581h-210zM539 782h231q115 0 205 63.5t115 181.5q11 51 11 93q0 76 -36 118q-56 66 -195 66h-219z" />
<glyph unicode="Q" horiz-adv-x="1377" d="M240 595q6 90 25 181q31 144 92.5 274t151.5 237t217 170.5t273 63.5q93 0 170.5 -30.5t131 -84t90.5 -127t53 -159.5q13 -77 13 -161v-21q-2 -96 -23 -195q-34 -162 -109 -322t-189 -271q44 -120 90 -243l-154 -96l-84 232q-132 -71 -293 -71q-109 0 -193.5 35 t-135.5 96.5t-82.5 139.5t-39.5 170q-6 56 -6 111q0 36 2 71zM458 604q-2 -30 -2 -61q0 -45 4 -91q9 -79 35.5 -138t83.5 -97.5t140 -38.5q106 0 198 56l-93 251l151 94q2 -5 32 -83t50 -132q114 156 160 378q15 69 20 142q2 25 2 50q0 50 -7 104q-10 79 -37 140.5 t-83 101.5t-135 40q-81 0 -156.5 -40.5t-130 -102.5t-99.5 -140.5t-71.5 -150t-39.5 -134.5q-16 -74 -22 -148z" />
<glyph unicode="R" horiz-adv-x="1233" d="M163 0l320 1504h424q113 0 201 -27t152 -85t84 -148q9 -41 9 -90q0 -58 -13 -128q-31 -146 -126.5 -244t-238.5 -147l255 -635h-241l-225 600h-262l-127 -600h-212zM544 795h261q114 0 205.5 65.5t115.5 177.5q9 43 9 80q0 74 -38 120q-57 69 -194 69h-250z" />
<glyph unicode="S" horiz-adv-x="1103" d="M110 251l174 103q57 -98 127 -141.5t180 -43.5q127 0 224.5 82t97.5 206q0 51 -32 89.5t-83 64t-112.5 48.5t-123.5 51.5t-113 64.5t-83 96.5t-32 139.5q0 219 146 365.5t369 146.5q129 0 240.5 -72.5t162.5 -183.5l-166 -105q-41 73 -108 120t-144 47q-121 0 -202 -79 t-81 -202q0 -47 32 -83.5t83.5 -61.5t113 -49t123.5 -53.5t113.5 -67.5t83.5 -99t32 -139q0 -242 -159.5 -382.5t-411.5 -140.5q-153 0 -273 71t-178 208z" />
<glyph unicode="T" horiz-adv-x="1024" d="M300 1302l43 202h983l-43 -202h-380l-277 -1302h-215l276 1302h-387z" />
<glyph unicode="U" horiz-adv-x="1320" d="M234 411q4 66 20 139l202 954h214l-203 -956q-13 -63 -17 -114q-1 -16 -1 -33q-1 -35 5 -69q8 -50 33 -83.5t73 -54.5t118 -21q96 0 168 30.5t117.5 86.5t72 118t43.5 142l204 954h210l-203 -955q-14 -65 -30.5 -120t-44 -115.5t-61.5 -108.5t-84 -93t-110 -74.5 t-140.5 -47.5t-175.5 -18q-100 0 -176 23t-121.5 65.5t-73.5 96.5q-27 54 -35 121q-5 44 -5 87q0 23 1 46z" />
<glyph unicode="V" horiz-adv-x="1117" d="M312 1504h227q95 -847 102 -913q2 -23 8 -137.5t9 -144.5h8q99 210 140 284l490 911h216l-815 -1504h-206z" />
<glyph unicode="W" horiz-adv-x="1700" d="M314 1504h228q31 -855 33 -931l-1 -238l8 1q65 169 93 237q7 16 42 100.5t95 231t99 240.5q35 86 74 175.5t61 136.5l21 47h207q9 -167 9 -359q0 -95 0.5 -242t1 -229t0.5 -93l-2 -223l7 1q73 169 97 224l423 921h214l-712 -1504h-236q1 853 2 910l14 210h-10 q-53 -151 -77 -209l-395 -911h-230z" />
<glyph unicode="X" horiz-adv-x="1205" d="M1 0l653 805l-301 699h264q121 -312 138 -356l59 -160q90 116 122 155l292 361h256l-587 -687l313 -817h-256q-166 476 -179 510l-34 124q-65 -94 -88 -126l-395 -508h-257z" />
<glyph unicode="Y" horiz-adv-x="1175" d="M317 1504h246q107 -391 124 -444q8 -24 26 -90.5t32 -121.5l14 -55q148 220 183 267l321 444h234l-677 -911l-126 -593h-212l126 591z" />
<glyph unicode="Z" horiz-adv-x="1195" d="M91 0l39 175q784 889 820 931q16 19 64 71.5t88 96.5l41 43q-44 0 -171.5 -3t-145.5 -3h-424l55 193h967l-37 -175q-6 -7 -211 -242.5t-450 -516.5t-324 -371q79 1 392 1h372l-55 -200h-1020z" />
<glyph unicode="[" horiz-adv-x="715" d="M121 -276l378 1780h421l-32 -153h-253l-313 -1473h253l-33 -154h-421z" />
<glyph unicode="\" horiz-adv-x="813" d="M373 1610h167l192 -1781h-168z" />
<glyph unicode="]" horiz-adv-x="720" d="M61 -276l33 154h253l313 1473h-253l32 153h421l-378 -1780h-421z" />
<glyph unicode="^" horiz-adv-x="1150" d="M260 862l566 641h130l291 -641h-215l-187 441l-371 -441h-214z" />
<glyph unicode="_" horiz-adv-x="1005" d="M-73 -323l34 164h1013l-34 -164h-1013z" />
<glyph unicode="`" horiz-adv-x="461" d="M259 1549h263l158 -323h-172z" />
<glyph unicode="a" horiz-adv-x="1036" d="M133 320q15 72 49.5 130t77.5 96t103 65.5t115 42.5t126 23.5t123 10.5t119 2q16 74 16 125v9q-2 54 -40.5 81.5t-123.5 27.5q-128 0 -286 -99l-66 140q168 138 383 138q77 0 134.5 -15t94.5 -39.5t58 -65.5t29 -83q6 -31 6 -71q0 -15 -1 -32q-3 -61 -11.5 -114 t-24.5 -127l-76 -356q-3 -14 -3 -25q0 -38 39 -38h57l-31 -143q-88 -22 -133 -22q-69 0 -96 48q-24 43 -24 108v15q-86 -87 -168 -133.5t-178 -46.5q-150 0 -225 99q-53 69 -53 164q0 40 10 85zM329 322q-6 -28 -6 -51q-1 -48 23 -80q34 -47 118 -47q79 0 165 54.5 t141 129.5l45 209h-29q-411 0 -457 -215z" />
<glyph unicode="b" horiz-adv-x="1173" d="M132 -1l317 1491l212 75l-132 -623q79 77 177.5 123.5t192.5 46.5q88 0 153 -35t101 -92t53 -132q15 -65 15 -133q-1 -10 -1 -20q-2 -78 -19 -159q-23 -108 -71.5 -206.5t-119 -180t-170.5 -129.5t-214 -48q-89 0 -160.5 50.5t-115.5 128.5l-47 -157h-171zM411 381 q18 -94 81.5 -153.5t160.5 -59.5q67 0 127.5 37t103.5 96t72 122.5t42 125.5q15 69 15 130.5t-17 117.5t-64 89t-121 33q-95 0 -181 -52t-146 -141z" />
<glyph unicode="c" horiz-adv-x="997" d="M182 410q2 72 18 149q20 95 52.5 176t82.5 151.5t113.5 120t148.5 77.5t185 28q118 0 209.5 -61t127.5 -163l-166 -102q-32 62 -82.5 99.5t-113.5 37.5q-72 0 -135 -37t-106.5 -96t-72 -124t-42.5 -131q-11 -51 -13 -101v-16q0 -42 8 -83q10 -49 32.5 -86.5t63.5 -60.5 t97 -23q131 0 258 158l147 -123q-79 -116 -192.5 -170.5t-245.5 -54.5q-81 0 -146 22t-108.5 62t-72 93.5t-39.5 119.5q-9 54 -9 112q1 13 1 26z" />
<glyph unicode="d" horiz-adv-x="1180" d="M179 360q2 74 18 152q18 84 48.5 165t80.5 161t112 140t147.5 97t182.5 37q197 0 285 -163l115 541l213 75l-333 -1566h-171l21 163q-186 -188 -398 -188q-87 0 -151.5 32t-100.5 86t-54 124q-16 63 -15 129v15zM399 406q3 -64 19 -118.5t61 -89.5t113 -35q99 0 189 59.5 t151 155.5l74 349q-22 87 -85 139.5t-156 52.5q-61 0 -114.5 -24t-91.5 -63t-68.5 -91t-48.5 -104t-30 -107q-13 -51 -13 -104v-20z" />
<glyph unicode="e" horiz-adv-x="1069" d="M195 514q57 270 215.5 434t386.5 164q92 0 159 -32.5t104 -86t54 -126.5q14 -62 14 -127v-24q-3 -78 -21 -160q-6 -28 -18 -69h-703q-12 -63 -12 -114q0 -82 30 -135q48 -86 174 -86q175 0 315 169l125 -102q-103 -132 -215 -188.5t-275 -56.5q-93 0 -162.5 32t-109 84.5 t-59.5 123.5q-20 69 -20 142q0 77 18 158zM430 647h498q8 38 8 74q0 17 -2 33q-6 51 -24 89.5t-60 61t-104 22.5q-114 0 -199 -84t-117 -196z" />
<glyph unicode="f" horiz-adv-x="607" d="M171 0l197 928h-159l36 165h158l34 156q31 140 128 223.5t232 83.5q71 0 165 -31l-76 -178q-74 18 -116 18q-57 0 -92.5 -33.5t-47.5 -90.5l-31 -148h215l-34 -166h-215l-198 -927h-196z" />
<glyph unicode="g" horiz-adv-x="1171" d="M96 -236l154 124q93 -128 266 -128q80 0 140.5 26.5t102.5 80.5t70 119.5t53 159.5q-183 -167 -340 -174h-17q-59 0 -111 18q-59 21 -100 60.5t-72.5 93.5t-44.5 118t-15 133v15q0 62 14 123q19 87 53 170.5t86.5 160.5t117 133.5t149.5 87.5q69 25 144 25q17 0 34 -1 q90 -6 161.5 -50t110.5 -119l46 153h176l-192 -903q-22 -107 -49.5 -190.5t-74.5 -166.5t-107.5 -137.5t-151.5 -88.5t-205 -34q-142 0 -238.5 44t-159.5 147zM392 414v-21q0 -40 8 -79q9 -49 30.5 -85.5t61.5 -57.5q36 -18 83 -18h14q103 5 189.5 67.5t147.5 157.5l74 349 q-20 85 -81.5 140t-150.5 55q-63 0 -117.5 -25t-93.5 -65t-70 -94.5t-50 -108t-31 -110.5q-11 -54 -14 -105z" />
<glyph unicode="h" horiz-adv-x="1119" d="M133 0l318 1490l214 74l-135 -633q61 68 146 120.5t179 57.5q15 1 30 1q82 0 139 -28q67 -34 94 -96q26 -60 30 -144q1 -12 1 -25q0 -72 -20 -153l-142 -664h-200l142 665q10 54 10 101q0 12 -1 23q-3 56 -41.5 92.5t-110.5 36.5q-84 0 -163.5 -65t-142.5 -157l-146 -696 h-201z" />
<glyph unicode="i" horiz-adv-x="505" d="M176 0l196 922h-112l36 171h297l-232 -1093h-185zM419 1400q13 60 66 103t110 43t92 -43q26 -31 25 -72q0 -15 -3 -31q-13 -60 -66 -102.5t-110 -42.5q-57 1 -92 43q-26 31 -26 71q0 15 4 31z" />
<glyph unicode="j" horiz-adv-x="519" d="M-107 -399l54 144q63 -9 83 -9q100 0 120 94l233 1093h-115l36 170h303l-265 -1243q-25 -119 -104.5 -198t-204.5 -79q-78 0 -140 28zM435 1400q12 59 65.5 102.5t109.5 43.5t92 -44q25 -31 25 -71q0 -15 -3 -31q-12 -59 -65.5 -102t-109.5 -43q-57 0 -93 43 q-25 31 -25 70q0 15 4 32z" />
<glyph unicode="k" horiz-adv-x="1004" d="M133 0l318 1491l210 75l-186 -878l455 405h271l-469 -400l257 -693h-225l-202 562l-142 -128l-92 -434h-195z" />
<glyph unicode="l" horiz-adv-x="525" d="M168 179q2 37 12 85l261 1226l203 75l-279 -1313q-7 -23 -7 -42q0 -15 5 -27q11 -26 61 -26q32 0 97 10l-9 -154q-80 -27 -135 -27q-64 0 -108 15.5t-66 40t-30 62.5q-6 29 -6 57q0 9 1 18z" />
<glyph unicode="m" horiz-adv-x="1761" d="M133 0l232 1093h177l-20 -162q78 78 152 124.5t168 54.5q16 1 31 1q90 1 159 -45q80 -54 98 -166q82 93 165 148.5t187 61.5q18 1 35 1q83 -1 141 -25q70 -30 100 -88.5t34 -141.5q1 -13 1 -27q0 -72 -20 -156l-144 -673h-202l144 675q11 44 11 85v13q-2 47 -16 82 t-50 55q-30 16 -75 16q-9 0 -18 -1q-59 -4 -117 -39t-98.5 -80t-74.5 -100l-149 -706h-201l144 675q10 41 10 80q-1 8 -1 16q-2 47 -15 83t-49 56q-28 16 -68 16q-10 0 -21 -1q-51 -4 -97 -26t-84 -57t-65 -69t-55 -77l-148 -696h-201z" />
<glyph unicode="n" horiz-adv-x="1119" d="M133 0l233 1093h182l-21 -161q59 67 147 120t182 58q16 1 31 1q63 0 110 -17q59 -21 93 -61q34 -41 48 -99q12 -50 12 -105v-19q-2 -66 -19 -145l-144 -665h-198l142 666q10 54 10 101q0 12 -1 23q-3 56 -41.5 92.5t-110.5 36.5q-84 0 -163.5 -65t-142.5 -157l-147 -697 h-202z" />
<glyph unicode="o" horiz-adv-x="1100" d="M194 544q16 74 47 150t83.5 152t117.5 134.5t154.5 95t189.5 36.5q102 0 176.5 -36.5t113.5 -94.5q40 -59 58 -135q17 -69 18 -136q0 -6 -1 -14q-2 -74 -18 -151q-23 -106 -71 -204t-120 -181.5t-175.5 -134t-222.5 -50.5q-97 0 -170 34t-114.5 90.5t-62.5 130.5 q-21 73 -21 150q0 80 18 164zM382 402q4 -70 22.5 -124.5t62 -88t103.5 -33.5q64 0 125 33t107.5 87.5t80.5 123.5t50 143q17 76 17 142q0 71 -19 127q-18 56 -64 87.5t-115 31.5q-67 0 -128.5 -35t-106.5 -91.5t-76 -123.5t-46 -136q-14 -58 -15 -115z" />
<glyph unicode="p" horiz-adv-x="1180" d="M39 -436l325 1529h174l-22 -168q83 81 176 133t176 52q97 0 168.5 -35t110 -92t56.5 -135q15 -67 15 -137v-23q-3 -83 -22 -171q-25 -116 -70 -211t-114 -172t-170.5 -120t-226.5 -43q-83 0 -149 44.5t-109 118.5l-105 -496zM408 375q19 -96 82.5 -155t162.5 -59 q54 0 104.5 24.5t88 63.5t69 90t51 101t30.5 99q15 68 15 129q0 66 -18 126q-17 57 -64 91.5t-120 34.5q-92 0 -180 -53.5t-145 -138.5z" />
<glyph unicode="q" horiz-adv-x="1176" d="M178 356q2 65 17 135q19 90 50 174t82 168t114.5 144.5t152.5 97.5q84 35 181 35h10q93 -2 158.5 -46t110.5 -135l49 163h177l-310 -1454l-212 -74l123 580q-86 -82 -169.5 -126.5t-177.5 -47.5h-15q-67 0 -122 16q-61 18 -102.5 53t-69 83.5t-38.5 107.5q-9 51 -9 105 v21zM395 415v-16q0 -42 9 -81q10 -47 32.5 -82t64.5 -56.5t100 -21.5q97 0 183 59.5t145 154.5l76 356q-22 87 -83 139t-152 52q-77 0 -141 -37t-107 -98.5t-70.5 -127.5t-43.5 -138q-11 -53 -13 -103z" />
<glyph unicode="r" horiz-adv-x="688" d="M129 0l232 1093h169l-22 -162q136 163 287 181q12 1 25 1l117 -31l-94 -189q-50 21 -88 21q-84 0 -150.5 -53.5t-130.5 -155.5l-151 -705h-194z" />
<glyph unicode="s" horiz-adv-x="931" d="M103 219l155 93q44 -75 95.5 -118t125.5 -43q52 0 105.5 18.5t93.5 60t40 96.5q0 33 -25 60t-64.5 47t-87.5 40t-96 44t-87.5 53.5t-64.5 75t-25 101.5q0 110 57 194.5t148 127t199 42.5t204 -62.5t131 -162.5l-147 -92q-89 137 -203 137q-73 0 -133.5 -41t-60.5 -112 q0 -34 25 -61.5t64.5 -48t87.5 -40.5t96 -45t87.5 -55.5t64.5 -78.5t25 -108q0 -69 -25.5 -129.5t-69.5 -103.5t-101 -74t-120 -46t-128 -15q-129 0 -224.5 63t-141.5 183z" />
<glyph unicode="t" horiz-adv-x="621" d="M200 925l36 168h168l46 212l214 75l-61 -287h231l-36 -168h-231l-141 -664q-6 -26 -5 -45q0 -22 7 -36q14 -24 75 -24q32 0 98 10l-10 -153q-81 -27 -139 -27q-86 0 -140 23t-73 61t-23 88q-1 9 0 19q0 41 12 86l141 662h-169z" />
<glyph unicode="u" horiz-adv-x="1100" d="M186 276q2 66 19 145l142 672h201l-144 -673q-10 -54 -10 -102q0 -12 1 -23q3 -57 42 -94.5t111 -37.5q58 0 119 37.5t103.5 84t82.5 104.5l149 704h200l-232 -1093h-181l20 154q-61 -69 -148 -123t-181 -59q-15 -1 -30 -1q-64 -1 -112 17q-60 22 -92 62q-33 40 -48 100 q-13 51 -13 108q1 8 1 18z" />
<glyph unicode="v" horiz-adv-x="981" d="M239 1093h220q69 -589 73 -641l15 -185q61 128 92 184l344 642h221l-625 -1093h-180z" />
<glyph unicode="w" horiz-adv-x="1370" d="M247 1093h214l7 -625l-4 -193q58 144 79 193l276 625h196q12 -560 12 -612l-2 -199q56 145 80 200l263 611h216l-521 -1093h-195q-22 527 -23 581l-2 175q-51 -121 -75 -175l-264 -581h-198z" />
<glyph unicode="x" horiz-adv-x="999" d="M20 0l487 574l-238 519h249l139 -358l288 358h237l-449 -526l252 -567h-244l-160 398l-319 -398h-242z" />
<glyph unicode="y" horiz-adv-x="971" d="M-2 -404l65 172q10 -2 28 -6.5t32.5 -7.5t28.5 -3q35 0 59 8t47 33q50 52 150 233l-166 1068h218l108 -766l407 766h221l-696 -1272q-75 -137 -154.5 -192t-220.5 -55q-41 0 -127 22z" />
<glyph unicode="z" horiz-adv-x="985" d="M65 0l29 138l731 767h-549l40 188h810l-34 -161l-716 -743h574l-41 -189h-844z" />
<glyph unicode="{" horiz-adv-x="818" d="M217 560l21 101l69 6q66 7 97 41t50 122l46 218q101 476 546 476l-27 -128q-138 -15 -214.5 -80t-104.5 -200l-49 -229q-25 -119 -66 -181.5t-113 -97.5q57 -34 71.5 -95.5t-10.5 -182.5l-47 -217q-29 -136 18 -196.5t185 -74.5l-27 -128q-239 0 -318 114.5t-30 342.5 l47 220q18 87 1.5 121.5t-79.5 41.5z" />
<glyph unicode="|" horiz-adv-x="612" d="M135 -402l442 2078h168l-442 -2078h-168z" />
<glyph unicode="}" horiz-adv-x="834" d="M41 -286l27 128q144 14 216 74.5t101 196.5l47 217q25 119 65.5 181.5t112.5 96.5q-57 35 -71 96.5t11 182.5l49 229q28 135 -21 200t-180 80l27 128q445 0 344 -476l-46 -218q-18 -88 -1.5 -122t79.5 -41l66 -6l-21 -101l-69 -6q-66 -7 -97.5 -41.5t-49.5 -121.5 l-47 -220q-49 -229 -176.5 -343t-365.5 -114z" />
<glyph unicode="~" horiz-adv-x="1266" d="M245 728q58 49 88.5 73t86.5 62.5t106 56t99 17.5q69 0 115 -25.5t90 -70.5l20.5 -20.5t25.5 -24.5t22 -18q35 -27 76 -27t129 62q30 21 84 63.5t57 44.5l82 -141q-87 -70 -93 -74q-174 -136 -299 -136q-69 0 -115.5 25.5t-90.5 69.5q-54 54 -66 63q-36 26 -75 26 q-45 0 -126 -57q-21 -15 -43.5 -32.5t-50.5 -40.5t-41 -33z" />
<glyph unicode="&#xa1;" horiz-adv-x="580" d="M190 2l177 832l58 223h197l-36 -223l-177 -832h-219zM433 1373q13 64 69 110.5t121 46.5q64 0 100.5 -46t22.5 -111t-69.5 -110.5t-120.5 -45.5q-64 0 -100.5 45.5t-22.5 110.5z" />
<glyph unicode="&#xa2;" horiz-adv-x="1084" d="M212.5 443q-5.5 93 18.5 192q22 102 63.5 193.5t103.5 171t152.5 134t198.5 71.5l42 198h197l-42 -198q186 -34 254 -216l-179 -106q-68 141 -211 141q-129 0 -227.5 -107.5t-135.5 -280.5q-35 -164 21.5 -268.5t181.5 -104.5q148 0 276 154l139 -109 q-78 -101 -172.5 -158t-185.5 -70l-45 -211h-197l45 212q-99 17 -166 69t-96.5 126t-35 167z" />
<glyph unicode="&#xa3;" horiz-adv-x="1267" d="M159 0l33 153q146 73 224 160.5t103 203.5q19 85 24 139h-230l37 174h196q2 119 18 196q49 229 195 362.5t358 133.5q46 0 90 -11.5t89.5 -36.5t83 -72t60.5 -111l-167 -101q-55 139 -197 139q-123 0 -198 -79.5t-109 -238.5q-13 -66 -13 -182l426 1l-37 -174h-393 q-6 -62 -21 -139q-7 -32 -19.5 -66.5t-35.5 -80.5t-62.5 -91.5t-90.5 -80.5h689l-55 -198h-998z" />
<glyph unicode="&#xa5;" horiz-adv-x="1240" d="M284 281l36 173h286l34 157l-271 893h243l181 -684l473 684h232l-648 -891l-34 -159h288l-37 -173h-288l-59 -281h-210l60 281h-286z" />
<glyph unicode="&#xa7;" horiz-adv-x="1292" d="M121 -14l182 106q90 -133 288 -133q64 0 117 16.5t94 56.5t53 99q9 41 -9.5 69t-64.5 49q-38 18 -105 35q-9 2 -54.5 13.5t-70.5 17.5q-32 8 -57 15.5t-55 18.5t-53 23t-47 29t-41 36t-30.5 44t-19.5 53t-6 64t9 76q22 104 93 194t172 142q-32 65 -12 163 q36 168 170 259.5t302 91.5q117 0 204.5 -46.5t152.5 -146.5l-172 -112q-77 118 -230 118q-87 0 -148 -43.5t-78 -125.5q-15 -75 75 -113q34 -15 105 -33q13 -3 57 -12.5t69 -15.5q32 -8 57.5 -15t55.5 -18t53 -23t47 -28.5t41 -36t30.5 -44.5t19.5 -53.5t6 -64.5t-9 -77 q-23 -107 -91.5 -196.5t-169.5 -143.5q26 -66 8 -158q-20 -94 -73.5 -166.5t-126.5 -114t-154 -62.5t-166 -21q-138 0 -241.5 50t-176.5 164zM451 701q-23 -112 79 -167q41 -22 105 -37q19 -5 56.5 -14t54.5 -13q122 -29 187 -61q151 86 176 202q24 113 -77 170 q-42 24 -104 40q-16 5 -111 27q-126 30 -187 58q-153 -82 -179 -205z" />
<glyph unicode="&#xa8;" horiz-adv-x="958" d="M423 1384q11 49 53 84.5t92 35.5t78 -35t17 -85q-10 -51 -53 -86t-93 -35q-49 0 -77 35.5t-17 85.5zM863 1384q11 49 53 84.5t92 35.5t78 -35t17 -85q-10 -51 -53 -86t-93 -35q-49 0 -77 35.5t-17 85.5z" />
<glyph unicode="&#xa9;" horiz-adv-x="1737" d="M257 748q36 169 123 313t208.5 246t276 159.5t322.5 57.5t298.5 -54.5t209 -155.5t105.5 -244.5t-12 -321.5q-49 -228 -184 -405t-329.5 -273.5t-417.5 -96.5q-221 0 -374.5 99t-213 276t-12.5 400zM373.5 542q5.5 -97 44.5 -178.5t101.5 -141t156.5 -92.5t208 -33 q191 0 354.5 85t270.5 232t147 334q41 192 -3.5 339t-171.5 229.5t-321 82.5q-192 0 -356 -88t-270 -234.5t-145 -328.5q-21 -109 -15.5 -206zM645 601q1 67 15 141q20 93 62 176t103 149t144.5 105t178.5 39q40 0 77.5 -8t80 -28.5t73 -65t40.5 -108.5l-141 -58 q-13 42 -33.5 68.5t-46 37.5t-44 14t-45.5 3q-100 0 -182.5 -93.5t-112.5 -234.5q-29 -137 18 -220.5t144 -83.5q63 0 118 25.5t110 105.5l118 -59q-39 -62 -88 -107t-99.5 -68t-95 -33t-87.5 -10q-78 0 -137.5 23.5t-95 65.5t-55.5 99.5t-19 124.5z" />
<glyph unicode="&#xaa;" horiz-adv-x="973" d="M270 900q15 73 62 127.5t105 85t134 49t137.5 24t128.5 5.5q12 61 10.5 101.5t-32 61.5t-95.5 21q-58 0 -110.5 -20t-119.5 -60l-53 117q64 52 147.5 81.5t159.5 29.5q62 0 108 -11.5t75.5 -30.5t47 -51t24 -65.5t4.5 -81.5t-9 -90.5t-19 -101.5l-60 -283q-4 -17 1 -29 q7 -17 75 -10l-27 -126q-70 -18 -108 -18q-55 0 -79 37t-18 101q-139 -145 -275 -145q-119 0 -179.5 81t-34.5 201zM429 899q-13 -61 17 -97t91 -36q118 0 241 143l35 166h-21q-50 0 -103.5 -8.5t-110 -27t-97.5 -55t-52 -85.5z" />
<glyph unicode="&#xab;" horiz-adv-x="1243" d="M166 557l521 534h209l-520 -535l294 -556h-215zM659 557l520 534h210l-521 -535l294 -556h-215z" />
<glyph unicode="&#xad;" horiz-adv-x="698" d="M226 631l40 190h506l-40 -190h-506z" />
<glyph unicode="&#xae;" horiz-adv-x="1726" d="M257 748q36 169 123 313t208.5 246t276 159.5t322.5 57.5t298.5 -54.5t209 -155.5t105.5 -244.5t-12 -321.5q-49 -228 -184 -405t-329.5 -273.5t-417.5 -96.5q-221 0 -374.5 99t-213 276t-12.5 400zM373.5 542q5.5 -97 44.5 -178.5t101.5 -141t156.5 -92.5t208 -33 q191 0 354.5 85t270.5 232t147 334q41 192 -3.5 339t-171.5 229.5t-321 82.5q-192 0 -356 -88t-270 -234.5t-145 -328.5q-21 -109 -15.5 -206zM661 313l191 899h270q145 0 214 -67t38 -214q-18 -86 -76.5 -149.5t-134.5 -89.5l137 -379h-171l-123 351h-126l-75 -351h-144z M909 805h145q67 0 114 31t60 93q16 76 -13 110.5t-109 34.5h-139z" />
<glyph unicode="&#xaf;" horiz-adv-x="740" d="M310 1278l32 149h657l-32 -149h-657z" />
<glyph unicode="&#xb0;" horiz-adv-x="761" d="M344 1227q26 119 130 205.5t224 86.5q122 0 190 -86t42 -206q-26 -123 -129.5 -208.5t-226.5 -85.5q-121 0 -188.5 86t-41.5 208zM484 1227q-14 -64 20.5 -109t99.5 -45q64 0 117.5 45t67.5 109q13 61 -23 106.5t-97 45.5q-65 0 -118 -44t-67 -108z" />
<glyph unicode="&#xb1;" horiz-adv-x="1239" d="M149 0v168h933v-168h-933zM149 735v171h387v410h178v-410h376v-171h-376v-414h-178v414h-387z" />
<glyph unicode="&#xb4;" horiz-adv-x="452" d="M300 1226l294 323h263l-387 -323h-170z" />
<glyph unicode="&#xb5;" horiz-adv-x="1100" d="M23 -430l324 1521h198l-150 -706q-22 -104 13 -166t136 -62q84 0 162 66t135 157l151 711h199l-234 -1103h-174l23 169q-80 -91 -158 -139.5t-170 -48.5q-82 0 -162 59l-81 -383z" />
<glyph unicode="&#xb6;" horiz-adv-x="1198" d="M250 842q-11 85 13 181q34 149 127.5 259t222.5 166t278 56h627l-40 -172h-145l-383 -1658h-185l383 1658h-204l-383 -1658h-185l201 870q-97 5 -169 44.5t-109.5 104t-48.5 149.5z" />
<glyph unicode="&#xb7;" horiz-adv-x="496" d="M256 748q13 61 65 104t113 43t95 -43t21 -104t-65 -104t-113 -43t-95 43t-21 104z" />
<glyph unicode="&#xb8;" horiz-adv-x="716" d="M68 -369l62 108q93 -53 150 -53q38 0 70 17.5t40 56.5q5 24 -10 37.5t-53 13.5h-88l-38 47l98 146h110l-73 -104q29 4 59 5t56.5 -8.5t46 -24.5t27 -41.5t0.5 -61.5q-15 -69 -62 -116.5t-100.5 -66t-108.5 -18.5q-100 0 -186 63z" />
<glyph unicode="&#xba;" horiz-adv-x="945" d="M306 964.5q2 52.5 13 106.5q13 59 38 119t67 121t94 107.5t124.5 76t152.5 29.5q83 0 143.5 -29.5t92 -75.5t46.5 -107t13.5 -120.5t-14.5 -119.5q-18 -84 -56.5 -162t-96 -145t-141 -107.5t-179.5 -40.5q-66 0 -118.5 19t-86 52.5t-55.5 77t-30.5 95t-6.5 104z M482 924.5q8 -68.5 48.5 -114.5t102.5 -46q98 0 173.5 91t101.5 215q15 60 13 116t-16 100t-50 70.5t-90 26.5q-101 0 -176 -95.5t-101 -215.5q-14 -79 -6 -147.5z" />
<glyph unicode="&#xbb;" horiz-adv-x="1250" d="M82 0l530 556l-293 535h210l293 -534l-525 -557h-215zM575 0l530 556l-293 535h209l294 -534l-525 -557h-215z" />
<glyph unicode="&#xbc;" horiz-adv-x="1842" d="M235 608l29 151h186l111 569l-186 -61l-10 149l286 92h114l-147 -749h172l-29 -151h-526zM490 0l1027 1502h168l-1029 -1502h-166zM1062 192l21 110l599 598h131l-109 -559h129l-30 -149h-129l-36 -192h-168l36 192h-444zM1315 341h221l53 271q-49 -47 -142.5 -140.5 t-131.5 -130.5z" />
<glyph unicode="&#xbd;" horiz-adv-x="1888" d="M236 608l29 151h186l111 569l-186 -61l-11 149l286 92h115l-147 -749h172l-29 -151h-526zM490 0l1027 1502h168l-1029 -1502h-166zM1182 0l13 77q13 66 45.5 123.5t81 102.5t92.5 76t102 65q7 4 97 55q23 13 79 49q69 49 75 86q11 55 -19.5 88t-95.5 33q-55 0 -104 -22.5 t-109 -86.5l-112 86q148 174 354 174q135 0 206.5 -73t47.5 -197q-7 -39 -28.5 -75.5t-46.5 -63t-66.5 -56t-72.5 -48t-80 -45.5q-13 -8 -44.5 -25.5t-47.5 -28.5q-119 -72 -158 -143h442l-28 -151h-623z" />
<glyph unicode="&#xbe;" horiz-adv-x="1902" d="M241 782l140 90q31 -69 72 -95t94 -26q90 0 144 38t67 103q12 62 -21 92.5t-108 30.5h-121l28 149h127q62 0 91 24.5t38 76.5q9 41 -20.5 74.5t-92.5 33.5q-52 0 -101 -22.5t-111 -87.5l-99 84q143 174 335 174q121 0 198.5 -67.5t54.5 -186.5q-9 -50 -38.5 -95 t-70.5 -73q48 -26 70 -79.5t8 -127.5q-19 -101 -85.5 -169.5t-149 -96t-178.5 -27.5q-200 0 -271 183zM550 0l1027 1502h168l-1030 -1502h-165zM1122 192l21 110l599 598h131l-109 -559h129l-30 -149h-129l-36 -192h-168l36 192h-444zM1375 341h221l53 271 q-49 -47 -142.5 -140.5t-131.5 -130.5z" />
<glyph unicode="&#xbf;" horiz-adv-x="979" d="M188 324q16 74 59.5 142t97.5 120.5t108 101t100 104.5t65 111q13 38 41 168h217l-32 -151q-16 -75 -64 -148.5t-106 -131.5t-115 -110.5t-100.5 -106.5t-53.5 -100q-16 -76 26 -115.5t121 -39.5q142 0 265 142l138 -109q-85 -105 -198.5 -165t-233.5 -60 q-178 0 -274.5 88t-60.5 260zM677 1367q14 65 70 110.5t120 45.5q65 0 101 -45.5t22 -110.5t-69.5 -111t-119.5 -46q-65 0 -101.5 46t-22.5 111z" />
<glyph unicode="&#xc0;" d="M9 0h215l211 359h596l54 -359h230q-165 1082 -187 1218l-50 286h-199zM540 552q211 372 234 411l134 246h5q47 -348 54 -390l42 -267h-469zM680 1927h262l158 -323h-171z" />
<glyph unicode="&#xc1;" d="M9 0h215l211 359h596l54 -359h230q-165 1082 -187 1218l-50 286h-199zM540 552q211 372 234 411l134 246h5q47 -348 54 -390l42 -267h-469zM927 1604l294 323h262l-385 -323h-171z" />
<glyph unicode="&#xc2;" d="M9 0h215l211 359h596l54 -359h230q-165 1082 -187 1218l-50 286h-199zM540 552q211 372 234 411l134 246h5q47 -348 54 -390l42 -267h-469zM635 1577l360 335h148l217 -335h-167l-157 178l-232 -178h-169z" />
<glyph unicode="&#xc3;" d="M9 0h215l211 359h596l54 -359h230q-165 1082 -187 1218l-50 286h-199zM540 552q211 372 234 411l134 246h5q47 -348 54 -390l42 -267h-469zM645 1587q13 60 32.5 106t50 86t77 61.5t106.5 21.5q70 0 166 -57q57 -33 68 -39q37 -17 61 -17q69 0 103 120h129 q-13 -60 -32 -106.5t-49.5 -87.5t-77.5 -63t-107 -22q-80 0 -172 61q-62 40 -63 40q-31 17 -61 17q-44 0 -67 -29.5t-48 -93.5z" />
<glyph unicode="&#xc4;" d="M9 0h215l211 359h596l54 -359h230q-165 1082 -187 1218l-50 286h-199zM540 552q211 372 234 411l134 246h5q47 -348 54 -390l42 -267h-469zM700 1784q10 49 52 84.5t93 35.5q50 0 78 -35t17 -85q-11 -51 -53.5 -86t-93.5 -35q-49 0 -76.5 35.5t-16.5 85.5zM1140 1784 q10 49 52 84.5t93 35.5q50 0 78 -35t17 -85q-11 -51 -53.5 -86t-93.5 -35q-49 0 -76.5 35.5t-16.5 85.5z" />
<glyph unicode="&#xc5;" d="M9 0l832 1439q-37 31 -52 78.5t-3 102.5q19 90 97.5 154.5t168.5 64.5q92 0 143 -64t32 -155q-12 -56 -47.5 -103.5t-85.5 -77.5h-4q13 -68 38 -221l187 -1218h-230l-54 359h-596l-211 -359h-215zM540 552h469q-36 225 -42 267l-54 390h-5q-111 -207 -134 -246zM892 1620 q-10 -48 15.5 -81.5t73.5 -33.5t88 33.5t51 81.5q10 46 -17 80t-73 34q-48 0 -88 -32.5t-50 -81.5z" />
<glyph unicode="&#xc6;" horiz-adv-x="1874" d="M-3 0l1065 1503h903l-56 -202h-560l-94 -441h470l-54 -194h-457l-98 -463h581l-56 -203h-777l78 364h-450l-252 -364h-243zM620 559h363l163 767z" />
<glyph unicode="&#xc7;" horiz-adv-x="1267" d="M228 548q3 104 26 213q27 125 71 235.5t110.5 207.5t149.5 166.5t191.5 109.5t231.5 40q56 0 116 -16.5t119.5 -49t110.5 -89t79 -127.5l-182 -110q-88 186 -279 186q-174 0 -311 -160t-190 -412q-32 -165 -12 -290.5t91.5 -200.5t178.5 -75q201 0 382 210l151 -127 q-118 -149 -264 -217t-289 -71l-47 -73q84 16 146 -16t45 -114q-15 -68 -62 -115.5t-100 -66t-108 -18.5q-101 0 -185 62l61 106q93 -52 150 -52q38 0 70 18t40 57q5 25 -10 38.5t-53 13.5h-88l-37 47l77 120q-101 16 -177 68.5t-120 128.5t-65 172.5t-18 200.5z" />
<glyph unicode="&#xc8;" horiz-adv-x="1174" d="M163 0h921l55 202h-724l100 462h605l55 195h-619l93 443h703l54 202h-924zM665 1927h263l158 -323h-172z" />
<glyph unicode="&#xc9;" horiz-adv-x="1174" d="M163 0h921l55 202h-724l100 462h605l55 195h-619l93 443h703l54 202h-924zM842 1604l294 323h263l-386 -323h-171z" />
<glyph unicode="&#xca;" horiz-adv-x="1174" d="M163 0h921l55 202h-724l100 462h605l55 195h-619l93 443h703l54 202h-924zM628 1634l359 335h149l217 -335h-169l-157 178l-231 -178h-168z" />
<glyph unicode="&#xcb;" horiz-adv-x="1174" d="M163 0h921l55 202h-724l100 462h605l55 195h-619l93 443h703l54 202h-924zM664 1784q11 49 53 84.5t92 35.5t78 -35t17 -85t-53.5 -85.5t-92.5 -35.5t-77.5 35.5t-16.5 85.5zM1104 1784q11 49 53 84.5t92 35.5t78 -35t17 -85t-53.5 -85.5t-92.5 -35.5t-77.5 35.5 t-16.5 85.5z" />
<glyph unicode="&#xcc;" horiz-adv-x="557" d="M163 0l320 1504h227l-320 -1504h-227zM287 1927h262l158 -323h-172z" />
<glyph unicode="&#xcd;" horiz-adv-x="557" d="M163 0l320 1504h227l-320 -1504h-227zM539 1604l295 323h262l-386 -323h-171z" />
<glyph unicode="&#xce;" horiz-adv-x="557" d="M163 0l320 1504h227l-320 -1504h-227zM261 1634l359 335h149l217 -335h-169l-157 178l-231 -178h-168z" />
<glyph unicode="&#xcf;" horiz-adv-x="557" d="M163 0l320 1504h227l-320 -1504h-227zM326 1784q10 49 52.5 85t92.5 36t78 -35.5t17 -85.5t-53.5 -85t-93.5 -35q-49 0 -76.5 35t-16.5 85zM746 1784q10 49 52.5 85t92.5 36t78 -35.5t17 -85.5t-53.5 -85t-93.5 -35q-49 0 -76.5 35t-16.5 85z" />
<glyph unicode="&#xd0;" horiz-adv-x="1371" d="M130 685l39 184h178l136 635h310q119 0 219.5 -19.5t185 -60t143.5 -103t95 -150t39 -200t-24 -252.5q-69 -327 -289 -515.5t-530 -203.5h-469l145 685h-178zM419 202h216q86 0 178 34t177 96.5t151 164.5t93 226q64 301 -47.5 440t-395.5 139h-138l-93 -433h364 l-39 -184h-364z" />
<glyph unicode="&#xd1;" horiz-adv-x="1368" d="M163 0h211l187 880q26 124 42 213h6q2 -7 24 -70t41 -117t26 -72q29 -77 110 -286.5t144 -370t70 -177.5h177l320 1504h-210q-187 -877 -227 -1075h-6q-5 15 -31.5 85t-52.5 140.5t-28 75.5l-302 774h-181zM649 1557q13 60 32.5 106.5t50 86.5t77 61.5t106.5 21.5 q69 0 166 -58q57 -33 68 -39q35 -16 61 -16q70 0 103 120h129q-13 -60 -32 -107t-49.5 -87.5t-77 -62.5t-106.5 -22q-83 0 -173 60q-62 40 -63 40q-33 18 -61 18q-23 0 -40.5 -8.5t-31.5 -28t-22.5 -37.5t-20.5 -50z" />
<glyph unicode="&#xd2;" horiz-adv-x="1378" d="M237.5 595q-5.5 -90 3 -182t40 -170t82.5 -139.5t135.5 -96.5t193.5 -35q113 0 212 34.5t173 95.5t134 136t103 165t71 172.5t46 167.5q21 99 23 194.5t-13.5 182t-52.5 160t-90.5 127t-131 84t-170.5 30.5q-146 0 -273 -63.5t-217 -170.5t-151.5 -237t-92.5 -274 q-19 -91 -24.5 -181zM455 604.5q6 73.5 22 147.5q13 63 39.5 134.5t71.5 150t99.5 140.5t130 102.5t156.5 40.5q79 0 134.5 -39t81.5 -99t35.5 -138t4.5 -150.5t-20 -141.5q-14 -64 -37 -132.5t-66 -150t-95.5 -144t-130 -105t-165.5 -42.5q-83 0 -140 38.5t-83.5 97.5 t-35 138t-2.5 152.5zM721 1927h263l157 -323h-171z" />
<glyph unicode="&#xd3;" horiz-adv-x="1378" d="M237.5 595q-5.5 -90 3 -182t40 -170t82.5 -139.5t135.5 -96.5t193.5 -35q113 0 212 34.5t173 95.5t134 136t103 165t71 172.5t46 167.5q21 99 23 194.5t-13.5 182t-52.5 160t-90.5 127t-131 84t-170.5 30.5q-146 0 -273 -63.5t-217 -170.5t-151.5 -237t-92.5 -274 q-19 -91 -24.5 -181zM455 604.5q6 73.5 22 147.5q13 63 39.5 134.5t71.5 150t99.5 140.5t130 102.5t156.5 40.5q79 0 134.5 -39t81.5 -99t35.5 -138t4.5 -150.5t-20 -141.5q-14 -64 -37 -132.5t-66 -150t-95.5 -144t-130 -105t-165.5 -42.5q-83 0 -140 38.5t-83.5 97.5 t-35 138t-2.5 152.5zM912 1604l295 323h262l-386 -323h-171z" />
<glyph unicode="&#xd4;" horiz-adv-x="1378" d="M237.5 595q-5.5 -90 3 -182t40 -170t82.5 -139.5t135.5 -96.5t193.5 -35q113 0 212 34.5t173 95.5t134 136t103 165t71 172.5t46 167.5q21 99 23 194.5t-13.5 182t-52.5 160t-90.5 127t-131 84t-170.5 30.5q-146 0 -273 -63.5t-217 -170.5t-151.5 -237t-92.5 -274 q-19 -91 -24.5 -181zM455 604.5q6 73.5 22 147.5q13 63 39.5 134.5t71.5 150t99.5 140.5t130 102.5t156.5 40.5q79 0 134.5 -39t81.5 -99t35.5 -138t4.5 -150.5t-20 -141.5q-14 -64 -37 -132.5t-66 -150t-95.5 -144t-130 -105t-165.5 -42.5q-83 0 -140 38.5t-83.5 97.5 t-35 138t-2.5 152.5zM674 1634l359 335h149l217 -335h-169l-156 178l-232 -178h-168z" />
<glyph unicode="&#xd5;" horiz-adv-x="1378" d="M237.5 595q-5.5 -90 3 -182t40 -170t82.5 -139.5t135.5 -96.5t193.5 -35q113 0 212 34.5t173 95.5t134 136t103 165t71 172.5t46 167.5q21 99 23 194.5t-13.5 182t-52.5 160t-90.5 127t-131 84t-170.5 30.5q-146 0 -273 -63.5t-217 -170.5t-151.5 -237t-92.5 -274 q-19 -91 -24.5 -181zM455 604.5q6 73.5 22 147.5q13 63 39.5 134.5t71.5 150t99.5 140.5t130 102.5t156.5 40.5q79 0 134.5 -39t81.5 -99t35.5 -138t4.5 -150.5t-20 -141.5q-14 -64 -37 -132.5t-66 -150t-95.5 -144t-130 -105t-165.5 -42.5q-83 0 -140 38.5t-83.5 97.5 t-35 138t-2.5 152.5zM673 1637q13 60 32.5 106.5t50 86.5t77 61.5t106.5 21.5q68 0 167 -58q46 -28 67 -39q35 -16 61 -16q70 0 103 120h129q-13 -60 -32 -107t-49.5 -87.5t-77 -62.5t-106.5 -22q-83 0 -173 60q-62 40 -63 40q-33 18 -61 18q-23 0 -40.5 -8.5t-31.5 -28 t-22.5 -37.5t-20.5 -50z" />
<glyph unicode="&#xd6;" horiz-adv-x="1378" d="M237.5 595q-5.5 -90 3 -182t40 -170t82.5 -139.5t135.5 -96.5t193.5 -35q113 0 212 34.5t173 95.5t134 136t103 165t71 172.5t46 167.5q21 99 23 194.5t-13.5 182t-52.5 160t-90.5 127t-131 84t-170.5 30.5q-146 0 -273 -63.5t-217 -170.5t-151.5 -237t-92.5 -274 q-19 -91 -24.5 -181zM455 604.5q6 73.5 22 147.5q13 63 39.5 134.5t71.5 150t99.5 140.5t130 102.5t156.5 40.5q79 0 134.5 -39t81.5 -99t35.5 -138t4.5 -150.5t-20 -141.5q-14 -64 -37 -132.5t-66 -150t-95.5 -144t-130 -105t-165.5 -42.5q-83 0 -140 38.5t-83.5 97.5 t-35 138t-2.5 152.5zM725 1784q11 49 53 85t92 36t78 -35.5t17 -85.5q-10 -50 -53 -85t-93 -35t-77.5 35t-16.5 85zM1165 1784q11 49 53 85t92 36t78 -35.5t17 -85.5q-10 -50 -53 -85t-93 -35t-77.5 35t-16.5 85z" />
<glyph unicode="&#xd7;" horiz-adv-x="1011" d="M190 405l370 288l-237 287l152 119l237 -289l369 289l100 -119l-370 -288l239 -289l-152 -119l-238 289l-370 -287z" />
<glyph unicode="&#xd8;" horiz-adv-x="1396" d="M-25 56l293 258q-43 192 10 442q24 114 69 222.5t113.5 207.5t152 173.5t191.5 118.5t225 44q260 0 377 -207l241 213l101 -108l-287 -253q41 -185 -7 -411q-22 -103 -59 -203.5t-101.5 -208t-145.5 -188t-197.5 -132.5t-250.5 -52q-263 0 -375 192l-244 -215zM473 494 l749 660q-66 170 -235 170q-83 0 -158.5 -41t-128.5 -103t-97 -141.5t-69.5 -150.5t-38.5 -135q-29 -135 -22 -259zM509 327q64 -152 234 -152q89 0 167 43t130.5 106t95 145.5t65 150.5t36.5 133q24 115 18 232z" />
<glyph unicode="&#xd9;" horiz-adv-x="1320" d="M234 411q-4 -66 3.5 -133t35.5 -121t73.5 -96.5t121.5 -65.5t176 -23q95 0 175.5 18t140.5 47.5t110 74.5t84 93t61.5 108.5t44 115.5t30.5 120l203 955h-210l-204 -954q-17 -80 -43.5 -142t-72 -118t-117.5 -86.5t-168 -30.5q-70 0 -118 21t-72.5 54.5t-33 84 t-4.5 101.5t17 114l203 956h-214l-202 -954q-16 -73 -20 -139zM675 1857h263l157 -323h-171z" />
<glyph unicode="&#xda;" horiz-adv-x="1320" d="M234 411q-4 -66 3.5 -133t35.5 -121t73.5 -96.5t121.5 -65.5t176 -23q95 0 175.5 18t140.5 47.5t110 74.5t84 93t61.5 108.5t44 115.5t30.5 120l203 955h-210l-204 -954q-17 -80 -43.5 -142t-72 -118t-117.5 -86.5t-168 -30.5q-70 0 -118 21t-72.5 54.5t-33 84 t-4.5 101.5t17 114l203 956h-214l-202 -954q-16 -73 -20 -139zM855 1534l296 323h262l-386 -323h-172z" />
<glyph unicode="&#xdb;" horiz-adv-x="1320" d="M234 411q-4 -66 3.5 -133t35.5 -121t73.5 -96.5t121.5 -65.5t176 -23q95 0 175.5 18t140.5 47.5t110 74.5t84 93t61.5 108.5t44 115.5t30.5 120l203 955h-210l-204 -954q-17 -80 -43.5 -142t-72 -118t-117.5 -86.5t-168 -30.5q-70 0 -118 21t-72.5 54.5t-33 84 t-4.5 101.5t17 114l203 956h-214l-202 -954q-16 -73 -20 -139zM635 1614l359 335h149l217 -335h-169l-157 178l-231 -178h-168z" />
<glyph unicode="&#xdc;" horiz-adv-x="1320" d="M234 411q-4 -66 3.5 -133t35.5 -121t73.5 -96.5t121.5 -65.5t176 -23q95 0 175.5 18t140.5 47.5t110 74.5t84 93t61.5 108.5t44 115.5t30.5 120l203 955h-210l-204 -954q-17 -80 -43.5 -142t-72 -118t-117.5 -86.5t-168 -30.5q-70 0 -118 21t-72.5 54.5t-33 84 t-4.5 101.5t17 114l203 956h-214l-202 -954q-16 -73 -20 -139zM678 1735q11 49 53 85t92 36t78 -35.5t17 -85.5q-10 -50 -53 -85t-93 -35t-77.5 35t-16.5 85zM1118 1735q11 49 53 85t92 36t78 -35.5t17 -85.5q-10 -50 -53 -85t-93 -35t-77.5 35t-16.5 85z" />
<glyph unicode="&#xdd;" horiz-adv-x="1175" d="M317 1504l291 -913l-126 -591h212l126 593l677 911h-234q-285 -395 -321 -444l-183 -267q-54 213 -72 267l-124 444h-246zM799 1534l295 323h262l-387 -323h-170z" />
<glyph unicode="&#xde;" horiz-adv-x="1215" d="M163 0l320 1506h211l-56 -261h194q116 0 202 -24t147 -77.5t78 -139t-6 -209.5q-43 -202 -200 -319t-370 -117h-233l-76 -359h-211zM491 552h231q115 0 205 61.5t113 172.5q30 138 -23.5 203t-198.5 65h-220z" />
<glyph unicode="&#xdf;" horiz-adv-x="1193" d="M42 -429l324 1522q46 218 180.5 340t348.5 122q190 0 280 -113t50 -303q-18 -87 -79.5 -165t-148.5 -127q246 -119 186 -400q-47 -223 -211 -353t-389 -130q-55 0 -121 26l62 174q61 -9 103 -9q133 0 226 77t121 210q33 153 -46 228t-235 75h-46l36 172h32 q110 0 195.5 57.5t107.5 164.5q24 112 -16.5 172.5t-149.5 60.5q-220 0 -275 -258l-312 -1469z" />
<glyph unicode="&#xe0;" horiz-adv-x="1036" d="M133 320q-32 -150 43 -249t225 -99q96 0 178 46.5t168 133.5q-3 -75 24 -123t96 -48q45 0 133 22l31 143h-57q-50 0 -36 63l76 356q16 74 24.5 127t11.5 114t-5 103t-29 83t-58 65.5t-94.5 39.5t-134.5 15q-215 0 -383 -138l66 -140q158 99 286 99q85 0 123.5 -27.5 t40 -81.5t-15.5 -134q-67 0 -119 -2t-123 -10.5t-126 -23.5t-115 -42.5t-103 -65.5t-77.5 -96t-49.5 -130zM329 322q46 215 457 215h29l-45 -209q-55 -75 -141 -129.5t-165 -54.5q-83 0 -117.5 47t-17.5 131zM471 1549h262l158 -323h-171z" />
<glyph unicode="&#xe1;" horiz-adv-x="1036" d="M133 320q-32 -150 43 -249t225 -99q96 0 178 46.5t168 133.5q-3 -75 24 -123t96 -48q45 0 133 22l31 143h-57q-50 0 -36 63l76 356q16 74 24.5 127t11.5 114t-5 103t-29 83t-58 65.5t-94.5 39.5t-134.5 15q-215 0 -383 -138l66 -140q158 99 286 99q85 0 123.5 -27.5 t40 -81.5t-15.5 -134q-67 0 -119 -2t-123 -10.5t-126 -23.5t-115 -42.5t-103 -65.5t-77.5 -96t-49.5 -130zM329 322q46 215 457 215h29l-45 -209q-55 -75 -141 -129.5t-165 -54.5q-83 0 -117.5 47t-17.5 131zM624 1226l294 323h264l-387 -323h-171z" />
<glyph unicode="&#xe2;" horiz-adv-x="1036" d="M133 320q-32 -150 43 -249t225 -99q96 0 178 46.5t168 133.5q-3 -75 24 -123t96 -48q45 0 133 22l31 143h-57q-50 0 -36 63l76 356q16 74 24.5 127t11.5 114t-5 103t-29 83t-58 65.5t-94.5 39.5t-134.5 15q-215 0 -383 -138l66 -140q158 99 286 99q85 0 123.5 -27.5 t40 -81.5t-15.5 -134q-67 0 -119 -2t-123 -10.5t-126 -23.5t-115 -42.5t-103 -65.5t-77.5 -96t-49.5 -130zM329 322q46 215 457 215h29l-45 -209q-55 -75 -141 -129.5t-165 -54.5q-83 0 -117.5 47t-17.5 131zM401 1214l359 335h149l217 -335h-169l-157 178l-232 -178h-167z " />
<glyph unicode="&#xe3;" horiz-adv-x="1036" d="M133 320q-32 -150 43 -249t225 -99q96 0 178 46.5t168 133.5q-3 -75 24 -123t96 -48q45 0 133 22l31 143h-57q-50 0 -36 63l76 356q16 74 24.5 127t11.5 114t-5 103t-29 83t-58 65.5t-94.5 39.5t-134.5 15q-215 0 -383 -138l66 -140q158 99 286 99q85 0 123.5 -27.5 t40 -81.5t-15.5 -134q-67 0 -119 -2t-123 -10.5t-126 -23.5t-115 -42.5t-103 -65.5t-77.5 -96t-49.5 -130zM329 322q46 215 457 215h29l-45 -209q-55 -75 -141 -129.5t-165 -54.5q-83 0 -117.5 47t-17.5 131zM403 1230q13 60 32.5 106.5t50.5 86.5t77 61.5t106 21.5 q68 0 167 -58q60 -35 68 -39q35 -16 61 -16q68 0 103 120h130q-28 -128 -90 -203.5t-177 -75.5q-82 0 -172 60q-62 39 -63 40q-34 18 -61 18q-44 0 -67 -30t-47 -94z" />
<glyph unicode="&#xe4;" horiz-adv-x="1036" d="M133 320q-32 -150 43 -249t225 -99q96 0 178 46.5t168 133.5q-3 -75 24 -123t96 -48q45 0 133 22l31 143h-57q-50 0 -36 63l76 356q16 74 24.5 127t11.5 114t-5 103t-29 83t-58 65.5t-94.5 39.5t-134.5 15q-215 0 -383 -138l66 -140q158 99 286 99q85 0 123.5 -27.5 t40 -81.5t-15.5 -134q-67 0 -119 -2t-123 -10.5t-126 -23.5t-115 -42.5t-103 -65.5t-77.5 -96t-49.5 -130zM329 322q46 215 457 215h29l-45 -209q-55 -75 -141 -129.5t-165 -54.5q-83 0 -117.5 47t-17.5 131zM450 1384q11 49 53 84.5t92 35.5q51 0 78.5 -35t16.5 -85 q-10 -51 -52.5 -86t-93.5 -35q-49 0 -77 35.5t-17 85.5zM890 1384q11 49 53 84.5t92 35.5q51 0 78.5 -35t16.5 -85q-10 -51 -52.5 -86t-93.5 -35q-49 0 -77 35.5t-17 85.5z" />
<glyph unicode="&#xe5;" horiz-adv-x="1036" d="M133 320q-32 -150 43 -249t225 -99q96 0 178 46.5t168 133.5q-3 -75 24 -123t96 -48q45 0 133 22l31 143h-57q-50 0 -36 63l76 356q16 74 24.5 127t11.5 114t-5 103t-29 83t-58 65.5t-94.5 39.5t-134.5 15q-215 0 -383 -138l66 -140q158 99 286 99q85 0 123.5 -27.5 t40 -81.5t-15.5 -134q-67 0 -119 -2t-123 -10.5t-126 -23.5t-115 -42.5t-103 -65.5t-77.5 -96t-49.5 -130zM329 322q46 215 457 215h29l-45 -209q-55 -75 -141 -129.5t-165 -54.5q-83 0 -117.5 47t-17.5 131zM620 1458q19 90 98 154.5t169 64.5q91 0 142.5 -64.5 t31.5 -154.5q-19 -92 -97.5 -156.5t-170.5 -64.5q-90 0 -141 64.5t-32 156.5zM726 1458q-10 -48 15.5 -82t73.5 -34t88 34t51 82q10 45 -17 79.5t-73 34.5q-48 0 -87.5 -33t-50.5 -81z" />
<glyph unicode="&#xe6;" horiz-adv-x="1582" d="M133 317q15 69 50 123.5t78.5 90t106 61.5t116.5 39t127 20.5t121.5 9t113.5 1.5q10 49 14 85t-1 72t-21.5 58.5t-50.5 36.5t-85 14q-130 0 -289 -100l-67 141q85 68 185 103t200 35q116 0 187 -40.5t98 -138.5q174 182 381 182q91 0 158.5 -31.5t105 -84.5t55 -125.5 t15.5 -150.5t-20 -163q-2 -10 -8 -29.5t-7 -23.5h-705q-16 -66 -13.5 -130t19 -113.5t64.5 -80t123 -30.5q173 0 314 172l124 -103q-105 -134 -220.5 -189.5t-274.5 -55.5q-113 0 -191 49.5t-112 146.5q-187 -196 -420 -196q-148 0 -225.5 98t-45.5 247zM330 316 q-17 -81 20 -127t118 -46q84 0 157 46.5t149 128.5l40 189h-29q-414 0 -455 -191zM1034 652h492q20 117 -26 192.5t-160 75.5q-107 0 -192 -79t-114 -189z" />
<glyph unicode="&#xe7;" horiz-adv-x="997" d="M180 392.5q2 79.5 20 166.5q20 95 52.5 176t82.5 151.5t113.5 120t148.5 77.5t185 28q118 0 209.5 -61t127.5 -163l-166 -102q-32 62 -82.5 99.5t-113.5 37.5q-72 0 -135 -37t-106.5 -96t-72 -124t-42.5 -131q-11 -50 -13 -100.5t8.5 -99.5t32.5 -86.5t63 -60.5t97 -23 q131 0 258 158l147 -123q-141 -207 -398 -224l-53 -76q29 4 59 5t56.5 -8.5t46 -24.5t27 -41.5t0.5 -61.5q-15 -69 -62 -116.5t-100.5 -66t-108.5 -18.5q-99 0 -186 63l62 108q93 -53 150 -53q38 0 70 17.5t40 56.5q5 24 -10 37.5t-53 13.5h-88l-38 47l82 121 q-82 10 -143 46t-97 91t-54 126t-16 150.5z" />
<glyph unicode="&#xe8;" horiz-adv-x="1069" d="M177.5 360q-0.5 -75 19.5 -146t59.5 -123.5t109 -84.5t162.5 -32q163 0 275 56.5t215 188.5l-125 102q-140 -169 -315 -169q-126 0 -174 86t-18 249h703q12 41 18 69q18 83 21 160.5t-14 150.5t-54 126.5t-104 86t-159 32.5q-228 0 -386.5 -164t-215.5 -434 q-17 -79 -17.5 -154zM430 647q32 112 117 196t199 84q62 0 104 -22.5t60.5 -61t24 -89.5t-6.5 -107h-498zM522 1549h262l158 -323h-172z" />
<glyph unicode="&#xe9;" horiz-adv-x="1069" d="M177.5 360q-0.5 -75 19.5 -146t59.5 -123.5t109 -84.5t162.5 -32q163 0 275 56.5t215 188.5l-125 102q-140 -169 -315 -169q-126 0 -174 86t-18 249h703q12 41 18 69q18 83 21 160.5t-14 150.5t-54 126.5t-104 86t-159 32.5q-228 0 -386.5 -164t-215.5 -434 q-17 -79 -17.5 -154zM430 647q32 112 117 196t199 84q62 0 104 -22.5t60.5 -61t24 -89.5t-6.5 -107h-498zM685 1226l294 323h263l-386 -323h-171z" />
<glyph unicode="&#xea;" horiz-adv-x="1069" d="M177.5 360q-0.5 -75 19.5 -146t59.5 -123.5t109 -84.5t162.5 -32q163 0 275 56.5t215 188.5l-125 102q-140 -169 -315 -169q-126 0 -174 86t-18 249h703q12 41 18 69q18 83 21 160.5t-14 150.5t-54 126.5t-104 86t-159 32.5q-228 0 -386.5 -164t-215.5 -434 q-17 -79 -17.5 -154zM430 647q32 112 117 196t199 84q62 0 104 -22.5t60.5 -61t24 -89.5t-6.5 -107h-498zM462 1224l360 335h149l217 -335h-169l-157 178l-232 -178h-168z" />
<glyph unicode="&#xeb;" horiz-adv-x="1069" d="M177.5 360q-0.5 -75 19.5 -146t59.5 -123.5t109 -84.5t162.5 -32q163 0 275 56.5t215 188.5l-125 102q-140 -169 -315 -169q-126 0 -174 86t-18 249h703q12 41 18 69q18 83 21 160.5t-14 150.5t-54 126.5t-104 86t-159 32.5q-228 0 -386.5 -164t-215.5 -434 q-17 -79 -17.5 -154zM430 647q32 112 117 196t199 84q62 0 104 -22.5t60.5 -61t24 -89.5t-6.5 -107h-498zM511 1384q11 49 53 84.5t92 35.5t78 -35t17 -85q-10 -51 -53 -86t-93 -35t-77.5 35.5t-16.5 85.5zM951 1384q11 49 53 84.5t92 35.5t78 -35t17 -85q-10 -51 -53 -86 t-93 -35t-77.5 35.5t-16.5 85.5z" />
<glyph unicode="&#xec;" horiz-adv-x="505" d="M176 0h185l232 1093h-297l-36 -171h112zM176 1549h262l158 -323h-171z" />
<glyph unicode="&#xed;" horiz-adv-x="505" d="M176 0h185l232 1093h-297l-36 -171h112zM417 1236l294 323h262l-386 -323h-170z" />
<glyph unicode="&#xee;" horiz-adv-x="505" d="M127 1214l359 335h149l217 -335h-168l-157 178l-231 -178h-169zM176 0h185l232 1093h-297l-36 -171h112z" />
<glyph unicode="&#xef;" horiz-adv-x="505" d="M176 0h185l232 1093h-297l-36 -171h112zM185 1384q11 49 53 84.5t92 35.5t78 -35t17 -85q-10 -51 -53 -86t-93 -35t-77.5 35.5t-16.5 85.5zM605 1384q11 49 53 84.5t92 35.5t78 -35t17 -85q-10 -51 -53 -86t-93 -35t-77.5 35.5t-16.5 85.5z" />
<glyph unicode="&#xf0;" horiz-adv-x="1113" d="M177.5 338q-1.5 78 14.5 164q20 93 68.5 185t116.5 169t161 125t191 48q114 0 222 -82q-4 9 -28.5 62.5t-35.5 73.5t-34 55t-47 58l-352 -160l-32 113l284 129q-79 61 -167 107l59 150q152 -72 278 -178l266 122l33 -117l-212 -93q124 -147 176 -328.5t10 -379.5 q-19 -90 -53.5 -173.5t-87.5 -159t-119 -131.5t-152.5 -89t-183.5 -33q-89 0 -159.5 27.5t-115.5 76t-72 115t-28.5 144.5zM384.5 406q-1.5 -49 12 -95.5t36 -82.5t63.5 -57.5t93 -21.5q71 0 133 34t104.5 89.5t70.5 118.5t42 130q36 170 -13 249q-24 39 -78 61.5t-108 22.5 q-71 0 -131.5 -30.5t-102.5 -82t-70 -111.5t-42 -127q-8 -48 -9.5 -97z" />
<glyph unicode="&#xf1;" horiz-adv-x="1119" d="M133 0h202l147 697q63 92 142.5 157t163.5 65q72 0 110.5 -36.5t41.5 -92.5t-9 -124l-142 -666h198l144 665q16 78 18.5 144.5t-12 125t-48 98.5t-92.5 61t-141 16q-94 -5 -182 -58t-147 -120l21 161h-182zM446 1250q13 60 32 106.5t49.5 86.5t77.5 61.5t107 21.5 q67 0 166 -58q46 -28 68 -39q35 -16 61 -16q70 0 103 120h129q-13 -60 -32 -107t-49.5 -87.5t-77 -62.5t-106.5 -22q-83 0 -173 60q-58 37 -64 40q-33 18 -61 18q-43 0 -66 -30t-48 -94z" />
<glyph unicode="&#xf2;" horiz-adv-x="1099" d="M176.5 383.5q-0.5 -78.5 20.5 -153t62.5 -131t114.5 -90.5t170 -34q119 0 222.5 50.5t175.5 134t120 181.5t71 204q16 76 18 150.5t-16.5 151t-58 134.5t-114 94.5t-176.5 36.5q-100 0 -189.5 -36.5t-154.5 -95t-117.5 -134.5t-83.5 -152t-47 -150q-17 -82 -17.5 -160.5z M381.5 402q-4.5 70 13.5 143q15 69 46 136t76 123.5t106.5 91.5t128.5 35q69 0 115 -32t64 -87.5t18.5 -123t-16.5 -145.5q-16 -74 -50 -143t-80.5 -123.5t-107.5 -87.5t-125 -33q-60 0 -103.5 33.5t-62 88t-23 124.5zM517 1549h262l157 -323h-171z" />
<glyph unicode="&#xf3;" horiz-adv-x="1099" d="M176.5 383.5q-0.5 -78.5 20.5 -153t62.5 -131t114.5 -90.5t170 -34q119 0 222.5 50.5t175.5 134t120 181.5t71 204q16 76 18 150.5t-16.5 151t-58 134.5t-114 94.5t-176.5 36.5q-100 0 -189.5 -36.5t-154.5 -95t-117.5 -134.5t-83.5 -152t-47 -150q-17 -82 -17.5 -160.5z M381.5 402q-4.5 70 13.5 143q15 69 46 136t76 123.5t106.5 91.5t128.5 35q69 0 115 -32t64 -87.5t18.5 -123t-16.5 -145.5q-16 -74 -50 -143t-80.5 -123.5t-107.5 -87.5t-125 -33q-60 0 -103.5 33.5t-62 88t-23 124.5zM679 1226l294 323h262l-386 -323h-170z" />
<glyph unicode="&#xf4;" horiz-adv-x="1099" d="M176.5 383.5q-0.5 -78.5 20.5 -153t62.5 -131t114.5 -90.5t170 -34q119 0 222.5 50.5t175.5 134t120 181.5t71 204q16 76 18 150.5t-16.5 151t-58 134.5t-114 94.5t-176.5 36.5q-100 0 -189.5 -36.5t-154.5 -95t-117.5 -134.5t-83.5 -152t-47 -150q-17 -82 -17.5 -160.5z M381.5 402q-4.5 70 13.5 143q15 69 46 136t76 123.5t106.5 91.5t128.5 35q69 0 115 -32t64 -87.5t18.5 -123t-16.5 -145.5q-16 -74 -50 -143t-80.5 -123.5t-107.5 -87.5t-125 -33q-60 0 -103.5 33.5t-62 88t-23 124.5zM441 1214l360 335h149l216 -335h-168l-157 178 l-232 -178h-168z" />
<glyph unicode="&#xf5;" horiz-adv-x="1099" d="M176.5 383.5q-0.5 -78.5 20.5 -153t62.5 -131t114.5 -90.5t170 -34q119 0 222.5 50.5t175.5 134t120 181.5t71 204q16 76 18 150.5t-16.5 151t-58 134.5t-114 94.5t-176.5 36.5q-100 0 -189.5 -36.5t-154.5 -95t-117.5 -134.5t-83.5 -152t-47 -150q-17 -82 -17.5 -160.5z M381.5 402q-4.5 70 13.5 143q15 69 46 136t76 123.5t106.5 91.5t128.5 35q69 0 115 -32t64 -87.5t18.5 -123t-16.5 -145.5q-16 -74 -50 -143t-80.5 -123.5t-107.5 -87.5t-125 -33q-60 0 -103.5 33.5t-62 88t-23 124.5zM453 1240q13 60 32.5 106.5t50 86.5t77 61.5 t106.5 21.5q67 0 166 -58q60 -35 68 -39q35 -16 62 -16q69 0 102 120h129q-58 -279 -265 -279q-83 0 -173 60q-62 39 -63 40q-34 18 -62 18q-23 0 -40 -8.5t-30.5 -28.5t-22 -37t-21.5 -50z" />
<glyph unicode="&#xf6;" horiz-adv-x="1099" d="M176.5 383.5q-0.5 -78.5 20.5 -153t62.5 -131t114.5 -90.5t170 -34q119 0 222.5 50.5t175.5 134t120 181.5t71 204q16 76 18 150.5t-16.5 151t-58 134.5t-114 94.5t-176.5 36.5q-100 0 -189.5 -36.5t-154.5 -95t-117.5 -134.5t-83.5 -152t-47 -150q-17 -82 -17.5 -160.5z M381.5 402q-4.5 70 13.5 143q15 69 46 136t76 123.5t106.5 91.5t128.5 35q69 0 115 -32t64 -87.5t18.5 -123t-16.5 -145.5q-16 -74 -50 -143t-80.5 -123.5t-107.5 -87.5t-125 -33q-60 0 -103.5 33.5t-62 88t-23 124.5zM501 1384q11 49 53 84.5t92 35.5t78 -35t17 -85 q-10 -51 -53 -86t-93 -35t-77.5 35.5t-16.5 85.5zM941 1384q11 49 53 84.5t92 35.5t78 -35t17 -85q-10 -51 -53 -86t-93 -35t-77.5 35.5t-16.5 85.5z" />
<glyph unicode="&#xf7;" horiz-adv-x="1291" d="M290 612l40 174h993l-40 -174h-993zM574 317q13 60 66 102.5t113 42.5t92 -42.5t18 -102.5t-65.5 -103t-111.5 -43t-93 43t-19 103zM750 1081q13 59 66.5 102t113.5 43t91.5 -42.5t17.5 -102.5t-65 -102t-111 -42t-93 42t-20 102z" />
<glyph unicode="&#xf8;" horiz-adv-x="1099" d="M-23 25l222 193q-45 145 -6 326q16 74 47 149.5t83.5 152t117 135t154 95t189.5 36.5q198 0 292 -133l179 155l88 -88l-213 -185q38 -141 1 -316q-22 -105 -70.5 -203.5t-120.5 -182t-175.5 -134t-222.5 -50.5q-189 0 -286 127l-190 -166zM381 376l535 465 q-51 93 -170 93q-68 0 -129.5 -35t-105.5 -92.5t-74.5 -124.5t-45.5 -137q-19 -91 -10 -169zM421 245q56 -92 158 -92q127 0 224 116t131 274q18 84 15 161z" />
<glyph unicode="&#xf9;" horiz-adv-x="1100" d="M185.5 276.5q-2.5 -66.5 12.5 -126t48 -100t92.5 -62t141.5 -16.5q94 5 181 59t148 123l-20 -154h181l232 1093h-200l-149 -704q-40 -58 -82.5 -104.5t-103.5 -84t-119 -37.5q-72 0 -111 37.5t-42 94.5t9 125l144 673h-201l-142 -672q-17 -78 -19.5 -144.5zM505 1549h262 l158 -323h-172z" />
<glyph unicode="&#xfa;" horiz-adv-x="1100" d="M185.5 276.5q-2.5 -66.5 12.5 -126t48 -100t92.5 -62t141.5 -16.5q94 5 181 59t148 123l-20 -154h181l232 1093h-200l-149 -704q-40 -58 -82.5 -104.5t-103.5 -84t-119 -37.5q-72 0 -111 37.5t-42 94.5t9 125l144 673h-201l-142 -672q-17 -78 -19.5 -144.5zM688 1226 l294 323h263l-387 -323h-170z" />
<glyph unicode="&#xfb;" horiz-adv-x="1100" d="M185.5 276.5q-2.5 -66.5 12.5 -126t48 -100t92.5 -62t141.5 -16.5q94 5 181 59t148 123l-20 -154h181l232 1093h-200l-149 -704q-40 -58 -82.5 -104.5t-103.5 -84t-119 -37.5q-72 0 -111 37.5t-42 94.5t9 125l144 673h-201l-142 -672q-17 -78 -19.5 -144.5zM449 1214 l360 335h148l217 -335h-168l-156 178l-232 -178h-169z" />
<glyph unicode="&#xfc;" horiz-adv-x="1099" d="M185.5 276.5q-2.5 -66.5 12.5 -126t48 -100t92.5 -62t141.5 -16.5q94 5 181 59t148 123l-20 -154h181l232 1093h-200l-149 -704q-40 -58 -82.5 -104.5t-103.5 -84t-119 -37.5q-72 0 -111 37.5t-42 94.5t9 125l144 673h-201l-142 -672q-17 -78 -19.5 -144.5zM507 1384 q11 49 53 84.5t92 35.5q51 0 78.5 -35t16.5 -85q-10 -51 -53 -86t-93 -35q-49 0 -77 35.5t-17 85.5zM947 1384q11 49 53 84.5t92 35.5q51 0 78.5 -35t16.5 -85q-10 -51 -53 -86t-93 -35q-49 0 -77 35.5t-17 85.5z" />
<glyph unicode="&#xfd;" horiz-adv-x="971" d="M-2 -404q86 -22 127 -22q141 0 220.5 55t154.5 192l696 1272h-221l-407 -766l-108 766h-218l166 -1068q-100 -181 -150 -233q-23 -25 -47 -33t-59 -8q-14 0 -28.5 3t-32.5 7.5t-28 6.5zM634 1226l295 323h263l-387 -323h-171z" />
<glyph unicode="&#xfe;" horiz-adv-x="1215" d="M42 -430l408 1920l213 75l-133 -629q80 78 170 126t177 48q98 0 168.5 -33.5t108.5 -88.5t55 -131t13.5 -156t-22.5 -169q-19 -91 -52.5 -173t-85 -155t-115.5 -126t-149.5 -84t-182.5 -31q-83 0 -149 44.5t-109 118.5l-102 -481zM408 367q19 -96 82.5 -155t162.5 -59 q54 0 104.5 25.5t88.5 65.5t69.5 92t51.5 103t30 100q12 54 14 106t-8 102.5t-33 88.5t-66 61t-102 23q-91 0 -174.5 -53t-142.5 -139z" />
<glyph unicode="&#xff;" horiz-adv-x="971" d="M-2 -404q86 -22 127 -22q141 0 220.5 55t154.5 192l696 1272h-221l-407 -766l-108 766h-218l166 -1068q-100 -181 -150 -233q-23 -25 -47 -33t-59 -8q-14 0 -28.5 3t-32.5 7.5t-28 6.5zM442 1384q10 49 52 84.5t93 35.5q50 0 78 -35t17 -85q-11 -51 -53.5 -86t-92.5 -35 t-77.5 35.5t-16.5 85.5zM882 1384q10 49 52 84.5t93 35.5q50 0 78 -35t17 -85q-11 -51 -53.5 -86t-92.5 -35t-77.5 35.5t-16.5 85.5z" />
<glyph unicode="&#x152;" horiz-adv-x="2067" d="M232 576.5q6 88.5 25 179.5q24 114 69.5 222.5t114.5 207.5t153.5 173.5t194.5 118.5t229 44q109 0 191.5 -52t121.5 -142l37 176h922l-55 -205h-693l-93 -438h578l-55 -197h-564l-98 -460h713l-56 -205h-919l35 162q-102 -94 -193.5 -141.5t-199.5 -47.5 q-111 0 -196.5 33.5t-137 92.5t-83 134.5t-39.5 165.5t-2 178.5zM462 605q-5 -74 5 -152t38 -137t86.5 -97t142.5 -38q64 0 122 22t102 58t82.5 86t65 101t49 109t35.5 104.5t23 91.5q15 70 20 142t-4.5 149.5t-35.5 137t-82 98t-136 38.5q-83 0 -158 -40.5t-128.5 -101.5 t-97 -139.5t-69 -149t-39.5 -134.5q-16 -74 -21 -148z" />
<glyph unicode="&#x153;" horiz-adv-x="1691" d="M175.5 383.5q0.5 78.5 17.5 160.5q16 74 47 150t83.5 152t117.5 134.5t154.5 95t189.5 36.5q239 0 316 -212q170 210 411 210q92 0 159 -32.5t103.5 -85.5t53 -126t14 -150t-20.5 -161q-6 -28 -18 -69h-703q-29 -163 19.5 -249t173.5 -86q88 0 164.5 40t149.5 129 l125 -103q-102 -131 -214.5 -188t-275.5 -57q-228 0 -303 206q-167 -203 -396 -203q-97 0 -170 34t-114.5 90.5t-62.5 131t-20.5 153zM382.5 402q5.5 -70 26.5 -124.5t65.5 -88t105.5 -33.5q85 0 159.5 57t122.5 143t70 187q19 75 16 145t-21 124t-65 86.5t-116 32.5 q-67 0 -128 -34.5t-104.5 -91.5t-74 -123.5t-45.5 -136.5q-17 -73 -11.5 -143zM1144 646h498q12 56 6.5 107t-24 89t-60.5 60.5t-104 22.5q-114 0 -199 -83t-117 -196z" />
<glyph unicode="&#x178;" horiz-adv-x="1175" d="M317 1504l291 -913l-126 -591h212l126 593l677 911h-234q-285 -395 -321 -444l-183 -267q-54 213 -72 267l-124 444h-246zM648 1784q11 49 53 85t92 36q51 0 78.5 -35.5t16.5 -85.5q-10 -50 -53 -85t-93 -35q-49 0 -77 35t-17 85zM1088 1784q11 49 53 85t92 36 q51 0 78.5 -35.5t16.5 -85.5q-10 -50 -53 -85t-93 -35q-49 0 -77 35t-17 85z" />
<glyph unicode="&#x2c6;" horiz-adv-x="1085" d="M432 1214l360 335h149l216 -335h-168l-157 178l-232 -178h-168z" />
<glyph unicode="&#x2dc;" horiz-adv-x="817" d="M300 1230q13 60 32.5 106.5t50.5 86.5t77 61.5t106 21.5q68 0 167 -58q46 -28 68 -39q34 -16 61 -16q69 0 102 120h130q-13 -60 -32.5 -107t-50 -87.5t-77 -62.5t-106.5 -22q-83 0 -173 60q-62 40 -63 40q-33 18 -61 18q-43 0 -66 -30t-48 -94z" />
<glyph unicode="&#x2000;" horiz-adv-x="984" />
<glyph unicode="&#x2001;" horiz-adv-x="1969" />
<glyph unicode="&#x2002;" horiz-adv-x="984" />
<glyph unicode="&#x2003;" horiz-adv-x="1969" />
<glyph unicode="&#x2004;" horiz-adv-x="656" />
<glyph unicode="&#x2005;" horiz-adv-x="492" />
<glyph unicode="&#x2006;" horiz-adv-x="328" />
<glyph unicode="&#x2007;" horiz-adv-x="328" />
<glyph unicode="&#x2008;" horiz-adv-x="246" />
<glyph unicode="&#x2009;" horiz-adv-x="393" />
<glyph unicode="&#x200a;" horiz-adv-x="109" />
<glyph unicode="&#x2010;" horiz-adv-x="698" d="M226 631l40 190h506l-40 -190h-506z" />
<glyph unicode="&#x2011;" horiz-adv-x="698" d="M226 631l40 190h506l-40 -190h-506z" />
<glyph unicode="&#x2012;" horiz-adv-x="698" d="M226 631l40 190h506l-40 -190h-506z" />
<glyph unicode="&#x2013;" horiz-adv-x="1141" d="M226 632l40 189h944l-40 -189h-944z" />
<glyph unicode="&#x2014;" horiz-adv-x="1977" d="M226 631l40 190h1786l-40 -190h-1786z" />
<glyph unicode="&#x2018;" horiz-adv-x="495" d="M298 922l232 583h146l-141 -583h-237z" />
<glyph unicode="&#x2019;" horiz-adv-x="493" d="M326 922l140 583h238l-233 -583h-145z" />
<glyph unicode="&#x201a;" horiz-adv-x="523" d="M68 -348l148 593h246l-257 -593h-137z" />
<glyph unicode="&#x201c;" horiz-adv-x="960" d="M298 922l238 583h152l-141 -583h-249zM751 922l237 583h152l-141 -583h-248z" />
<glyph unicode="&#x201d;" horiz-adv-x="989" d="M326 922l141 583h249l-238 -583h-152zM779 922l141 583h248l-237 -583h-152z" />
<glyph unicode="&#x201e;" horiz-adv-x="1004" d="M68 -348l149 593h261l-265 -593h-145zM533 -348l149 593h261l-265 -593h-145z" />
<glyph unicode="&#x2022;" horiz-adv-x="769" d="M302 750q20 97 104 168t181 71t151 -71t34 -168q-21 -98 -104.5 -167t-180.5 -69t-151.5 69t-33.5 167z" />
<glyph unicode="&#x2026;" horiz-adv-x="1739" d="M128 133q13 64 69 110t121 46q64 0 100.5 -45.5t22.5 -110.5q-13 -64 -69 -110.5t-121 -46.5q-64 0 -100.5 46t-22.5 111zM738 133q13 64 69 110t121 46q64 0 100.5 -45.5t22.5 -110.5q-13 -64 -69 -110.5t-121 -46.5q-64 0 -100.5 46t-22.5 111zM1348 133q13 64 69 110 t121 46q64 0 100.5 -45.5t22.5 -110.5q-13 -64 -69 -110.5t-121 -46.5q-64 0 -100.5 46t-22.5 111z" />
<glyph unicode="&#x202f;" horiz-adv-x="393" />
<glyph unicode="&#x2039;" horiz-adv-x="758" d="M163 557l521 534h209l-520 -535l294 -556h-215z" />
<glyph unicode="&#x203a;" horiz-adv-x="758" d="M82 0l530 556l-293 535h210l293 -534l-525 -557h-215z" />
<glyph unicode="&#x205f;" horiz-adv-x="492" />
<glyph unicode="&#x20ac;" horiz-adv-x="1233" d="M117 486l77 173h141q3 12 8.5 41t7.5 40q14 63 21 90h-163l77 173h148q49 112 116 204.5t152 163.5t191.5 110.5t225.5 39.5q46 0 90.5 -11.5t90 -36t83.5 -71.5t60 -111l-172 -106q-22 56 -62 90.5t-72 43.5t-63 9q-125 0 -238.5 -88.5t-187.5 -236.5h475l-76 -173h-468 q-8 -31 -21 -88q-13 -65 -16 -83h460l-74 -173h-393q8 -147 74 -232.5t181 -85.5q87 0 163.5 26.5t188.5 110.5l84 -149q-213 -185 -457 -185q-120 0 -208.5 40t-140 112t-75.5 162.5t-23 200.5h-205z" />
<glyph unicode="&#x2122;" horiz-adv-x="1560" d="M324 1382l26 124h585l-26 -124h-222l-154 -725h-137l154 725h-226zM874 657l181 849h137l135 -481l336 481h139l-180 -849h-134l122 577l-283 -413h-88l-107 416l-123 -580h-135z" />
<glyph horiz-adv-x="978" d="M146 0l33 180h286l139 704l-329 -102l-12 170l436 141h142l-179 -913h264l-33 -180h-747z" />
<glyph horiz-adv-x="976" d="M100 0l17 94q12 63 41 121t63.5 101.5t83.5 86t91 71.5t97 62q27 15 76 42.5t83.5 48t61.5 38.5q50 34 77 60.5t31 53.5q14 70 -29.5 111t-119.5 41q-75 0 -133.5 -31t-127.5 -104l-135 104q182 211 430 211q161 0 252 -88t61 -244q-9 -46 -33.5 -89t-53 -73.5t-76 -66 t-81 -56t-89.5 -52.5q-19 -10 -55.5 -30.5t-55.5 -31.5q-48 -28 -101 -65q-94 -68 -126 -133h544l-34 -182h-759z" />
<glyph horiz-adv-x="1022" d="M90 63l165 105q66 -148 239 -148q124 0 199 68.5t93 162.5q19 93 -27 144t-138 51h-154l33 168h160q75 0 122.5 50t62.5 124q11 56 -34 103.5t-127 47.5q-146 0 -270 -139l-120 100q95 114 209.5 162.5t218.5 48.5q55 0 105.5 -12t95.5 -36.5t74.5 -62.5t42 -91 t-1.5 -121q-14 -72 -56.5 -139.5t-113.5 -110.5l-1 -2q68 -28 102.5 -105t13.5 -182q-37 -190 -183.5 -299.5t-349.5 -109.5q-116 0 -215.5 53t-144.5 170z" />
<glyph horiz-adv-x="1082" d="M55 125l29 141l814 827h158l-154 -786h157l-36 -182h-157l-53 -275h-193l53 275h-618zM349 307h360l91 462q-75 -78 -451 -462z" />
<glyph horiz-adv-x="1059" d="M117 63l167 106q67 -147 217 -147q63 0 117 23t89.5 58.5t57.5 75t29 76.5q23 116 -26.5 178t-136.5 62q-113 0 -234 -82l-130 39l165 641h647l-34 -174h-475l-78 -301q93 49 191 49q77 0 141 -26t109 -77.5t61 -128t-2 -176.5q-38 -192 -184.5 -305.5t-348.5 -113.5 q-253 0 -342 223z" />
<glyph horiz-adv-x="1044" d="M187 380q3 74 19 156q14 69 31 133t45 138t61.5 136t81.5 121t104 100t129.5 65.5t157.5 24.5q211 0 297 -188l-153 -92q-31 52 -79 79.5t-103 27.5q-77 0 -141 -38t-108 -103.5t-74 -143t-48 -168.5q1 0 3 -1.5t3 -0.5q136 162 332 162q168 0 248.5 -107.5t46.5 -287.5 q-37 -190 -178 -304t-337 -114q-99 0 -169.5 35t-106 89.5t-50.5 130.5t-12 150zM385 399q-22 -109 27.5 -177.5t159.5 -68.5q107 0 179.5 64.5t94.5 173.5q43 231 -184 231q-88 0 -174.5 -69t-102.5 -154z" />
<glyph horiz-adv-x="887" d="M149 -146q455 745 636 1063h-540l35 176h755l-25 -133q-166 -307 -657 -1106h-204z" />
<glyph horiz-adv-x="1097" d="M169 343q37 197 266 299l1 4q-63 44 -93.5 111t-15.5 145q21 107 93.5 188.5t170.5 122t204 40.5q105 0 186 -39.5t121.5 -120t19.5 -187.5q-16 -79 -73 -144.5t-137 -110.5l-1 -5q190 -105 151 -298q-24 -124 -104.5 -211.5t-186.5 -126.5t-228 -39q-88 0 -163 23.5 t-129.5 68t-77 117t-4.5 163.5zM358 348q-18 -96 46.5 -148.5t172.5 -52.5q111 0 193.5 49.5t102.5 146.5q20 106 -41 164t-174 58q-115 0 -197 -56t-103 -161zM517 904q-17 -85 31.5 -131.5t142.5 -46.5q90 0 158.5 50t84.5 132q16 83 -31.5 130t-140.5 47q-96 0 -162 -48 t-83 -133z" />
<glyph horiz-adv-x="1039" d="M123 10l175 96q68 -92 184 -92q65 0 122.5 35.5t101 97.5t75 139.5t52.5 167.5q-159 -125 -304 -125q-163 0 -253.5 107t-57.5 276q34 172 183 285.5t322 113.5q88 0 155.5 -28t106 -76t60.5 -112.5t21 -137.5t-14 -151q-16 -81 -33 -149.5t-45 -150t-60.5 -145.5 t-80 -126.5t-102.5 -104t-129 -67t-159 -25.5q-221 0 -320 172zM413 718q-20 -102 29.5 -159.5t157.5 -57.5q84 0 167 62.5t100 148.5q21 102 -33.5 164.5t-156.5 62.5q-98 0 -171 -60.5t-93 -160.5z" />
<glyph horiz-adv-x="1117" d="M179.5 410.5q1.5 65.5 14.5 133.5q15 74 43.5 148.5t78 151.5t112.5 135t153 95t192 37q89 0 158 -25t110.5 -69.5t67.5 -99.5t34 -120t5.5 -127t-14.5 -124q-16 -84 -47.5 -163.5t-82.5 -154t-115 -130.5t-151.5 -89.5t-186.5 -33.5q-84 0 -150 23.5t-108 66t-69 96.5 t-36.5 119t-8 130.5zM379.5 400.5q6.5 -69.5 28.5 -124.5t68.5 -88t109.5 -33q67 0 126 32.5t102 87.5t73.5 123t45.5 144q17 76 13.5 146t-22 123.5t-66.5 85.5t-121 32q-70 0 -131 -34.5t-103 -91.5t-70.5 -122.5t-42.5 -136.5q-17 -74 -10.5 -143.5z" />
</font>
</defs>
</svg>
