<?xml version="1.0" standalone="no"?>
<!DOCTYPE svg PUBLIC "-//W3C//DTD SVG 1.1//EN" "http://www.w3.org/Graphics/SVG/1.1/DTD/svg11.dtd" >
<svg xmlns="http://www.w3.org/2000/svg">
<metadata></metadata>
<defs>
<font id="madrashairline_italic" horiz-adv-x="618" >
<font-face units-per-em="2048" ascent="1628" descent="-420" />
<missing-glyph horiz-adv-x="488" />
<glyph unicode="&#xfb00;" horiz-adv-x="966" d="M196 0l223 1056h-169l8 38h169l41 189q26 120 102 186.5t189 66.5q29 0 78 -10l-16 -37q-34 7 -72 7q-100 0 -159.5 -58t-78.5 -153l-41 -191h397l45 208q26 120 102 187t189 67q36 0 78 -11l-16 -35q-40 5 -71 5q-100 0 -160 -57.5t-79 -153.5l-45 -210h228l-8 -38h-228 l-223 -1056h-43l223 1056h-397v-1l-223 -1055h-43z" />
<glyph unicode="&#xfb01;" horiz-adv-x="871" d="M196 0l224 1055h-169l8 39h169l44 209q26 120 102 186.5t189 66.5q35 0 78 -10l-16 -36q-36 6 -71 6q-100 0 -160 -58t-79 -153l-44 -211h472l-232 -1094h-43l225 1055h-430v-1l-224 -1054h-43zM934 1433q5 25 26.5 42.5t47.5 17.5t39.5 -17.5t8.5 -42.5t-26.5 -42.5 t-47.5 -17.5t-39.5 17.5t-8.5 42.5z" />
<glyph unicode="&#xfb02;" horiz-adv-x="935" d="M196 0l224 1055h-169l8 39h169l21 100q38 177 122 269t211 92q143 0 186.5 -83t1.5 -278l-213 -1002q-21 -102 -2 -132q23 -34 99 -34q2 0 56 3l-4 -37q-32 -6 -59 -6q-75 0 -109 24.5t-35 71.5t14 116l211 996q22 104 22 175.5t-42 109t-135 37.5q-216 0 -282 -322 l-20 -100h228l-8 -39h-228l-224 -1055h-43z" />
<glyph unicode="&#xfb03;" horiz-adv-x="1313" d="M196 0l223 1055h-169l8 39h169l41 189q26 120 102 186.5t189 66.5q35 0 78 -10l-16 -36q-36 6 -72 6q-100 0 -159.5 -57.5t-78.5 -153.5l-41 -191h397l45 209q26 120 102 186.5t189 66.5q36 0 78 -10l-16 -36q-36 6 -71 6q-100 0 -160 -58t-79 -153l-45 -211h472 l-231 -1094h-43l223 1053l-429 1l-223 -1054h-43l223 1055h-199l-198 -1l-223 -1054h-43zM1374 1433q-5 -25 8.5 -42.5t39.5 -17.5t47.5 17.5t26.5 42.5t-8.5 42.5t-39.5 17.5t-47.5 -17.5t-26.5 -42.5z" />
<glyph unicode="&#xfb04;" horiz-adv-x="1374" d="M196 0l224 1054h-169l8 40h169l40 189q25 121 101.5 187t189.5 66q35 0 78 -10l-16 -35q-40 5 -72 5q-100 0 -159.5 -57.5t-78.5 -153.5l-40 -191h396l21 100q38 178 122 269.5t211 91.5q143 0 186.5 -83t1.5 -278l-213 -1001q-21 -103 -2 -133q23 -33 99 -33q20 0 56 2 l-4 -36q-29 -7 -59 -7q-75 0 -109 24.5t-35 71.5t14 116l211 996q22 104 22 176t-42 109.5t-135 37.5q-216 0 -282 -323l-20 -100h228l-8 -40h-228l-224 -1054h-43l224 1054h-396v-1l-224 -1053h-43z" />
<glyph unicode="ft" horiz-adv-x="1107" d="M196 0l245 1055h-169l9 39h169l49 209q28 120 105.5 186.5t190.5 66.5q35 0 78 -10l-16 -36q-38 6 -72 6q-98 0 -161 -64.5t-86 -162.5l-45 -195h492l55 232l48 16l-60 -248h247l-9 -39h-246l-197 -848q-14 -59 -12 -99t35.5 -60.5t103.5 -20.5q6 0 25 0.5t25 0.5l-5 -38 q-34 -4 -52 -4q-56 0 -93 13t-55 33.5t-23.5 54t-1.5 65.5t14 77l193 826h-493l-245 -1055h-43z" />
<glyph horiz-adv-x="0" />
<glyph horiz-adv-x="682" />
<glyph unicode=" "  horiz-adv-x="488" />
<glyph unicode="&#x09;" horiz-adv-x="488" />
<glyph unicode="&#xa0;" horiz-adv-x="488" />
<glyph unicode="!" horiz-adv-x="496" d="M173 43q7 32 31 50.5t56 18.5q29 0 45.5 -20.5t9.5 -48.5q-7 -30 -32 -49.5t-55 -19.5q-31 0 -46.5 19t-8.5 50zM316 429l38 170l211 905h43l-211 -906l-41 -169h-40z" />
<glyph unicode="&#x22;" horiz-adv-x="808" d="M408 832l155 673h43l-158 -673h-40zM757 832l155 673h43l-158 -673h-40z" />
<glyph unicode="#" horiz-adv-x="1306" d="M217 409l9 37h247l145 625h-247l9 38h247l92 396h41l-93 -396h464l92 396h41l-92 -396h246l-9 -38h-246l-145 -625h246l-9 -37h-246l-95 -409h-41l95 409h-463l-96 -409h-40l95 409h-247zM513 446h464l145 625h-463z" />
<glyph unicode="$" horiz-adv-x="1086" d="M155 173l36 25q50 -86 138.5 -130t197.5 -44q168 0 290.5 90.5t161.5 261.5q37 163 -61 251q-37 33 -106 65q-27 12 -67.5 28t-70.5 28t-67.5 28.5t-64 34t-54.5 40t-44.5 50t-27.5 61.5t-10.5 77.5t12.5 94.5q40 174 158 281.5t288 108.5l47 200h43l-47 -202 q89 -8 160 -52t109 -116l-34 -22q-44 72 -116 111t-162 39q-156 0 -262.5 -101.5t-141.5 -253.5q-11 -60 -9 -103.5t22 -79.5t46 -60.5t64 -45.5q44 -24 152.5 -66t158.5 -71q82 -47 119 -131t9 -204q-40 -177 -164.5 -277t-307.5 -107l-50 -209h-43l49 209 q-115 4 -208.5 53.5t-142.5 137.5z" />
<glyph unicode="%" horiz-adv-x="1856" d="M350 910q1 78 22 168q44 187 145 315t236 128q68 0 113.5 -36.5t63.5 -99t16.5 -140.5t-21.5 -166q-45 -195 -144.5 -317t-237.5 -122q-68 0 -112.5 35t-63 96t-17.5 139zM395 930q-4 -68 7.5 -125.5t48 -90t95.5 -32.5q62 0 117 31.5t96 87t71 125.5t49 153 q19 81 23 151.5t-8.5 128t-48.5 91t-93 33.5q-78 0 -148 -59.5t-116 -149t-71 -196.5q-18 -80 -22 -148zM571 0l1029 1502h47l-1028 -1502h-48zM1253.5 243q1.5 78 22.5 168q28 120 79.5 217.5t130.5 161t171 63.5q68 0 113 -36.5t63 -99t16.5 -140.5t-21.5 -166 q-45 -194 -144.5 -316.5t-237.5 -122.5q-67 0 -112 35.5t-63.5 96.5t-17 139zM1298 262.5q-4 -68.5 8 -125.5t48 -90t95 -33q122 0 207.5 111.5t126.5 285.5q22 108 23.5 197.5t-37 148t-113.5 58.5q-79 0 -149 -59.5t-116 -148.5t-71 -196q-18 -80 -22 -148.5z" />
<glyph unicode="&#x26;" horiz-adv-x="1255" d="M213 342q11 47 34 92t48 81t67 75.5t73.5 65.5t84.5 62.5t83 55t86 53.5q-4 9 -22.5 47t-25.5 54t-19 45.5t-19 53.5q-37 116 -11 228q28 119 127 193t219 74q79 0 141.5 -38t98.5 -102l-33 -22q-41 61 -90.5 92t-121.5 31q-103 0 -189.5 -67t-110.5 -169 q-27 -122 34 -270q24 -54 37 -80l284 -611q102 143 199 399l36 -10q-101 -262 -218 -426l118 -249h-47l-101 216q-122 -120 -229.5 -181.5t-238.5 -61.5q-159 0 -245 107t-49 262zM253 336q-33 -136 43 -230t211 -94q117 0 226.5 61.5t225.5 177.5q-120 259 -254 541 q-63 -38 -112.5 -70t-109.5 -78.5t-102.5 -91t-78 -101.5t-49.5 -115z" />
<glyph unicode="'" horiz-adv-x="455" d="M406 832l151 673h46l-162 -673h-35z" />
<glyph unicode="(" horiz-adv-x="575" d="M277.5 355.5q-7.5 -113.5 4.5 -220.5t30.5 -192.5t48.5 -190.5l-25 -16q-162 424 -58 869q54 233 181 468.5t294 427.5l18 -17q-356 -456 -459 -898q-27 -117 -34.5 -230.5z" />
<glyph unicode=")" horiz-adv-x="546" d="M61 -248q79 105 136.5 189.5t119.5 191.5t107.5 220t72.5 230q104 446 -40 901l26 17q77 -188 91 -438t-41 -492q-53 -231 -166.5 -430t-288.5 -405z" />
<glyph unicode="*" horiz-adv-x="657" d="M200 1299l6 26l257 -2l-80 268l29 15l72 -279l193 275l26 -16l-198 -262l254 1l-7 -26l-251 4l78 -269l-36 -18l-66 280l-203 -279l-25 17l209 269z" />
<glyph unicode="+" horiz-adv-x="1051" d="M260 681l9 40h403l106 453h38l-106 -453h392l-9 -40h-392l-108 -463h-38l108 463h-403z" />
<glyph unicode="," horiz-adv-x="346" d="M70 -199l158 398l42 -1l-160 -398z" />
<glyph unicode="-" d="M255 700l9 40h422l-10 -40h-421z" />
<glyph unicode="." horiz-adv-x="372" d="M142 43q8 32 32 50.5t56 18.5q28 0 44.5 -20.5t9.5 -48.5q-7 -30 -32 -49.5t-55 -19.5q-31 0 -46.5 19t-8.5 50z" />
<glyph unicode="/" horiz-adv-x="750" d="M12 -171l963 1781h46l-963 -1781h-46z" />
<glyph unicode="0" horiz-adv-x="1117" d="M231 310q-5 67 0 145t16 146.5t28 139.5q25 106 59 206t90 207t122 185.5t159 129.5t198 51q100 0 166.5 -48t96.5 -124.5t36.5 -180t-5.5 -204.5t-37 -209q-24 -101 -59 -201t-91 -207t-122.5 -187t-157.5 -132t-191 -52q-78 0 -136 26.5t-92.5 71t-54.5 107.5t-25 130z M272 409q-4 -85 9.5 -153t42.5 -123t84 -85.5t133 -30.5q87 0 169 47.5t144.5 122.5t115.5 173.5t88 195.5t58 194q25 106 37 203.5t7.5 195.5t-30 169t-84 115.5t-145.5 44.5q-92 0 -175 -46t-145.5 -119.5t-115 -172.5t-87 -197t-58.5 -201q-21 -88 -32.5 -168t-15.5 -165 z" />
<glyph unicode="1" horiz-adv-x="909" d="M128 0l10 42h323l331 1421l-368 -133l-2 41l372 133h52l-340 -1462h301l-10 -42h-669z" />
<glyph unicode="2" horiz-adv-x="1072" d="M114 0l5 19q24 101 70.5 190.5t106 158t130.5 129.5t145.5 111t148.5 97t141.5 94t122.5 95t95 106t55 122q39 167 -28.5 262.5t-231.5 95.5q-91 0 -193 -43t-183 -121l-26 29q80 82 188.5 129t215.5 47q181 0 262.5 -110t39.5 -292q-16 -69 -56.5 -132t-96 -114 t-124 -100t-142 -96t-147.5 -96t-143.5 -106t-128 -119.5t-103 -143t-65.5 -170.5h741l-9 -42h-790z" />
<glyph unicode="3" horiz-adv-x="1064" d="M142 169l33 24q87 -174 294 -174q196 0 336.5 104t184.5 290q20 96 3 166t-64.5 115.5t-105.5 67t-122 21.5h-92l10 42h96q130 0 237 94t140 236q10 51 8 98.5t-21.5 88.5t-50.5 71.5t-79.5 48t-107.5 17.5q-201 0 -367 -157l-28 21q170 178 395 178q159 0 242.5 -105.5 t51.5 -269.5q-9 -46 -31 -93t-59.5 -96.5t-98.5 -90t-137 -61.5q78 -24 130.5 -65.5t76 -92.5t29 -111.5t-11.5 -122.5q-26 -114 -83.5 -200t-134.5 -137t-164 -76t-182 -25q-109 0 -197.5 50t-129.5 144z" />
<glyph unicode="4" horiz-adv-x="1143" d="M117 364l16 67l980 1074h48l-254 -1100h218l-10 -41h-218l-84 -364h-43l83 364h-736zM167 405h696l237 1025q-98 -107 -296 -325.5t-344 -378.5t-291 -315q-1 -1 -1 -3t-1 -3z" />
<glyph unicode="5" horiz-adv-x="1110" d="M172 174l34 25q48 -90 135 -135t197 -45q111 0 212 62t169 160t94 211q21 84 10.5 158t-43.5 130t-95 88.5t-142 32.5q-88 0 -169 -24t-182 -99l-48 26l217 741h658l-10 -41h-619l-200 -677l9 -4q167 119 344 119q119 0 201 -59.5t112 -164.5t0 -234q-46 -200 -196 -334 t-323 -134q-118 0 -219 53t-146 145z" />
<glyph unicode="6" horiz-adv-x="1106" d="M235 419q5 92 29 195q19 81 41.5 158.5t58 170.5t76 172t96.5 156t118 130.5t141.5 86.5t166.5 33q80 0 147 -31t109 -91l-38 -25q-83 106 -218 106q-104 0 -199 -56.5t-165 -145t-129 -206.5t-97 -231.5t-63 -229.5l-17 -78h2q35 75 80 135t91.5 98t92 64t91 39t78.5 18 t64 5q189 0 274.5 -119t35.5 -337q-51 -215 -194.5 -337t-334.5 -122q-93 0 -161.5 34t-107.5 93.5t-56 141t-12 173.5zM300 464q-40 -200 34 -322.5t239 -122.5q181 0 309.5 114.5t173.5 307.5t-21 301.5t-247 108.5q-156 0 -284.5 -100t-203.5 -287z" />
<glyph unicode="7" horiz-adv-x="1019" d="M316 0q53 201 143.5 399.5t211 383.5t245.5 345t281 335h-756l9 41h799l-13 -53q-125 -146 -222 -267.5t-204.5 -273.5t-187 -290.5t-150 -299.5t-112.5 -320h-44z" />
<glyph unicode="8" horiz-adv-x="1188" d="M211 387q11 49 32.5 97t60.5 102t89 96t125.5 74t163.5 41q-71 14 -121.5 45t-75.5 68t-36 82t-9.5 84t10.5 78q38 157 167.5 261.5t320.5 104.5q129 0 209 -52t104 -134.5t0 -184.5q-12 -50 -40 -103t-74.5 -108t-121.5 -94.5t-165 -48.5q77 -7 135.5 -37.5t89.5 -74 t49.5 -96t16.5 -104.5t-10 -100q-45 -194 -189 -301t-361 -107t-315.5 112t-54.5 300zM255 383q-40 -168 44.5 -268.5t283.5 -100.5q200 0 333.5 101.5t173.5 273.5q39 165 -49 275t-280 110q-185 0 -326.5 -112t-179.5 -279zM491 1149q-28 -118 19.5 -201t161.5 -118 q55 -16 102 -16q45 0 107 16q123 31 213.5 122t116.5 205q9 49 10.5 95t-16.5 87.5t-49.5 73t-88 49.5t-131.5 18q-94 0 -174 -29.5t-133.5 -78.5t-88.5 -105.5t-49 -117.5z" />
<glyph unicode="9" horiz-adv-x="1102" d="M211 98l35 23q86 -103 225 -103q107 0 201 54.5t161.5 138.5t125 201.5t93 226t63.5 228.5l18 79h-1q-56 -98 -124.5 -168.5t-136.5 -105.5t-126 -50t-113 -15q-181 0 -265 121.5t-37 323.5q51 219 201 345t338 126q87 0 152.5 -32t103.5 -89.5t55.5 -137t13 -174.5 t-29.5 -202q-212 -912 -702 -912q-78 0 -145 33.5t-106 88.5zM372 1052q-43 -185 26 -293t236 -108q106 0 211.5 60.5t178 144.5t112.5 173q22 91 13 173t-39.5 144t-93.5 99t-150 37q-179 0 -315 -124t-179 -306z" />
<glyph unicode=":" horiz-adv-x="397" d="M143 43q7 32 31 50.5t56 18.5q29 0 45.5 -20.5t9.5 -48.5q-7 -30 -32 -49.5t-55 -19.5q-31 0 -46.5 19t-8.5 50zM346 913q7 32 31 50.5t56 18.5q28 0 45 -20.5t10 -48.5q-7 -30 -32 -49.5t-55 -19.5q-32 0 -47 19t-8 50z" />
<glyph unicode=";" horiz-adv-x="392" d="M68 -199l158 398l42 -1l-160 -398zM341 913q7 32 31 50.5t56 18.5q29 0 45.5 -20.5t9.5 -48.5q-7 -30 -32 -49.5t-55 -19.5q-31 0 -46.5 19t-8.5 50z" />
<glyph unicode="&#x3c;" horiz-adv-x="774" d="M261 670l8 37l633 481l-14 -66l-589 -439l383 -442l-12 -51z" />
<glyph unicode="=" horiz-adv-x="1143" d="M262 434l9 40h809l-9 -40h-809zM375 917l9 39h809l-9 -39h-809z" />
<glyph unicode="&#x3e;" horiz-adv-x="758" d="M164 190l12 62l583 443l-374 439l11 54l409 -481l-9 -37z" />
<glyph unicode="?" horiz-adv-x="898" d="M331 43q7 32 31 50.5t56 18.5q29 0 45.5 -20.5t9.5 -48.5q-7 -30 -32 -49.5t-55 -19.5q-31 0 -46.5 19t-8.5 50zM453 1383q62 64 148.5 102.5t159.5 38.5q144 0 214.5 -81t36.5 -225q-16 -68 -60.5 -134t-100.5 -123t-114 -115t-111.5 -134t-80.5 -156q-18 -53 -38 -152 h-43l28 118q17 72 57 143.5t87.5 126.5t102.5 114t101 107t82.5 104.5t48.5 107.5q29 126 -28 193t-182 67q-67 0 -142.5 -34t-135.5 -92z" />
<glyph unicode="@" horiz-adv-x="1629" d="M260 494q2 114 33 249q37 158 113.5 296t184.5 244t253 167.5t308 61.5q135 0 240 -37t169.5 -104.5t101 -161.5t35 -209t-29.5 -247q-16 -69 -46 -134.5t-74.5 -125.5t-108.5 -96.5t-138 -36.5q-83 0 -124 50.5t-24 131.5l-4 1q-60 -80 -154 -136.5t-179 -56.5 q-104 0 -154.5 68.5t-26.5 172.5q10 42 29.5 77t41.5 60t57.5 45t63.5 32.5t73 21.5t73.5 13t77.5 6.5t72 2.5h70h22l12 53q20 85 18.5 141t-42.5 83.5t-131 27.5q-104 0 -221 -64l-14 29q51 32 117.5 52.5t115.5 20.5q48 0 84.5 -6t61 -20.5t40.5 -30t22.5 -43.5t8.5 -51.5 t-3.5 -63t-12 -69.5t-17.5 -79l-66 -283q-16 -69 14.5 -108t99.5 -39q62 0 118.5 34.5t96.5 89.5t67 114t41 116q29 124 30.5 232t-28 198.5t-89 155t-157 100.5t-227.5 36q-123 0 -238 -39.5t-206.5 -108.5t-167 -162t-127.5 -202t-79 -227q-30 -127 -33 -234.5t24 -197 t84.5 -152t153 -97t225.5 -34.5q183 0 303 63l15 -28q-118 -71 -314 -71q-139 0 -243 36.5t-167.5 102.5t-94.5 161t-29 209zM677 588q-21 -91 18.5 -144.5t129.5 -53.5q87 0 174.5 56.5t154.5 140.5l52 223q-175 -1 -255 -15q-235 -40 -274 -207z" />
<glyph unicode="A" horiz-adv-x="1121" d="M11 0l861 1504h67l173 -1504h-48l-48 435h-706l-248 -435h-51zM334 477l677 -1l-112 984h-3z" />
<glyph unicode="B" horiz-adv-x="1213" d="M186 0l350 1504h409q179 0 263 -99q56 -66 56 -169q0 -52 -14 -113q-8 -33 -21.5 -68t-39 -76t-57.5 -76.5t-79.5 -66t-102.5 -46.5q68 -8 119 -35t79 -65t42 -86q14 -46 14 -92q0 -49 -12 -100q-52 -220 -179 -316t-351 -96h-476zM240 42h431q396 0 476 369q12 52 12 97 q0 98 -56 162q-81 94 -242 95h-453zM418 807h424q126 0 230 94t133 223q14 59 14 109q-1 86 -43 142q-66 88 -240 88h-366z" />
<glyph unicode="C" horiz-adv-x="1194" d="M258 509q4 112 33 234q39 166 106 306.5t157.5 246.5t208.5 165.5t250 59.5q40 0 81 -9t87 -29.5t88.5 -61t71.5 -96.5l-32 -24q-101 179 -298 179q-124 0 -236.5 -59.5t-197.5 -162.5t-147 -234t-96 -281q-34 -139 -33 -258v-31q5 -132 43.5 -229t120.5 -151t198 -54 q227 0 419 195l26 -25q-96 -105 -216.5 -158t-236.5 -53q-104 0 -183.5 41t-126.5 112.5t-69 167.5q-19 80 -19 172q0 18 1 37z" />
<glyph unicode="D" horiz-adv-x="1295" d="M186 0l349 1504h258q596 0 596 -503q0 -123 -36 -277q-74 -320 -292 -522t-489 -202h-386zM239 42h337q114 0 229 47.5t214.5 133.5t177 217.5t113.5 288.5q35 149 35 268q0 173 -74 282q-124 184 -481 184h-221z" />
<glyph unicode="E" horiz-adv-x="1119" d="M186 0l350 1504h789l-12 -42h-743l-157 -673h647l-13 -42h-643l-164 -705h754l-12 -42h-796z" />
<glyph unicode="F" horiz-adv-x="1057" d="M186 0l350 1504h765l-12 -42h-719l-160 -687h651l-13 -41h-647l-171 -734h-44z" />
<glyph unicode="G" horiz-adv-x="1290" d="M258 504q8 115 39 249q28 121 72 230.5t109.5 209t146 172t185.5 115.5t223 43q112 0 209.5 -55t142.5 -158l-33 -22q-100 194 -318 194q-112 0 -213 -44t-176 -116.5t-137.5 -169.5t-102.5 -198t-65 -207q-37 -162 -40 -291v-17q0 -119 33 -212q35 -100 120.5 -154 t217.5 -54q79 0 150.5 24t134 71.5t112 98.5t107.5 125l71 299h-315l10 42h359l-159 -679h-44l60 258q-68 -86 -136 -144t-131.5 -86.5t-116.5 -39.5t-112 -11q-114 0 -196.5 39t-129.5 108t-66 167q-13 69 -13 146q0 33 2 67z" />
<glyph unicode="H" horiz-adv-x="1283" d="M186 0l350 1504h44l-166 -711h797l165 711h44l-349 -1504h-45l175 751h-796l-175 -751h-44z" />
<glyph unicode="I" horiz-adv-x="443" d="M186 0l350 1504h44l-350 -1504h-44z" />
<glyph unicode="J" horiz-adv-x="776" d="M0 -6l16 41q75 -14 161 -14q192 0 300 98t164 342l242 1042h46l-243 -1048q-59 -257 -174.5 -367.5t-336.5 -110.5q-73 0 -175 17z" />
<glyph unicode="K" horiz-adv-x="1101" d="M186 0l350 1504h44l-196 -846l905 846h63l-634 -590l354 -914h-46l-341 882l-319 -296l-136 -586h-44z" />
<glyph unicode="L" horiz-adv-x="947" d="M186 0l350 1504h44l-340 -1463h710l-12 -41h-752z" />
<glyph unicode="M" horiz-adv-x="1535" d="M186 0l350 1504h49l258 -1104l778 1104h51l-350 -1504h-44l324 1394l5 18l-12 -17l-748 -1063h-29l-254 1066l-4 20l-5 -21l-325 -1397h-44z" />
<glyph unicode="N" horiz-adv-x="1299" d="M186 0l350 1504h45l478 -1431l333 1431h44l-350 -1504h-49l-476 1424l-331 -1424h-44z" />
<glyph unicode="O" horiz-adv-x="1305" d="M260 386q-1 29 -1 58q1 61 7 124q10 93 32 193q35 149 101 284.5t154.5 242.5t204.5 170.5t239 63.5q125 0 211.5 -60t125.5 -164.5t43 -244.5q0 -13 1 -26q0 -129 -37 -273q-26 -112 -66 -217t-103 -209t-138.5 -180.5t-178 -124t-217.5 -47.5q-93 0 -164.5 31 t-114.5 87t-69 129.5t-30 162.5zM304 495q-1 -24 -1 -46q1 -49 5 -95q6 -66 28.5 -129t59.5 -108t99.5 -72t144.5 -27q87 0 167 31t140.5 80.5t114 118t91 136t68.5 142t48 129.5t29 104q14 58 22 119q8 62 10 134q0 11 1 23q0 60 -7 114q-8 65 -31 126t-59.5 105.5 t-97 71.5t-138.5 27q-79 0 -153.5 -28t-134 -75t-114 -109.5t-95 -129t-73.5 -136.5t-53.5 -129.5t-32.5 -110.5q-15 -64 -25 -127.5t-13 -138.5z" />
<glyph unicode="P" horiz-adv-x="1103" d="M186 0l350 1504h351q71 0 130.5 -15t108.5 -47.5t76 -83.5q26 -52 34 -126q2 -18 3 -36q0 -60 -19 -134q-46 -197 -178 -304t-323 -107h-338l-151 -651h-44zM391 692h327q58 0 113 12t110 40t99.5 70.5t80.5 107.5t55 146q18 76 18 137q0 98 -46 159q-74 98 -262 98h-316 z" />
<glyph unicode="Q" horiz-adv-x="1304" d="M260 530q9 111 37 231q35 149 101 284.5t154.5 242.5t204.5 170.5t239 63.5q125 0 211.5 -60t125.5 -164.5t43 -244.5v-26q0 -128 -36 -273q-43 -185 -128 -354t-208 -278l83 -253l-41 -27l-80 249q-149 -115 -329 -115q-112 0 -191.5 45t-121 119.5t-57.5 177.5 q-10 65 -10 134q0 39 3 78zM303 495q-1 -24 -1 -46q0 -50 4 -95q7 -66 29.5 -129t59.5 -108t99.5 -72t144.5 -27q171 0 313 117l-99 309l39 26l97 -302q65 62 120.5 145.5t92 168t59 151.5t36.5 126q14 58 22.5 119.5t10.5 133.5v23q0 59 -7 114q-8 65 -31 126t-59.5 105.5 t-97 71.5t-138.5 27q-79 0 -153.5 -28t-134 -75t-114 -109.5t-95 -129t-73.5 -136.5t-53.5 -129.5t-32.5 -110.5q-15 -64 -25 -127.5t-13 -138.5z" />
<glyph unicode="R" horiz-adv-x="1159" d="M186 0l350 1504h389q193 0 285 -106q59 -68 59 -183q0 -64 -18 -143q-35 -150 -146.5 -253.5t-282.5 -139.5l237 -679h-51l-235 676h-386l-157 -676h-44zM397 718h357q86 0 187 46q96 44 169 122t99 189q17 72 17 132q0 93 -42 154q-68 101 -262 101h-352z" />
<glyph unicode="S" horiz-adv-x="994" d="M113 167l35 25q50 -86 138.5 -130t197.5 -44q166 0 289 95t163 266q10 45 10 84q0 103 -71 167q-39 34 -106 64q-27 12 -67.5 28t-70.5 28t-67.5 28.5t-64 34t-54.5 40t-44 49.5q-15 28 -27 62q-11 33 -12 73q0 44 13 98q41 174 160 281.5t290 107.5q101 0 183.5 -45 t125.5 -125l-35 -21q-43 71 -115.5 110t-162.5 39q-156 0 -261.5 -101.5t-141.5 -252.5q-10 -52 -10 -92v-10q2 -44 22 -80t46.5 -60.5t64.5 -45.5q44 -24 152 -66.5t158 -70.5q81 -46 119 -130q21 -48 22 -108q0 -45 -12 -96q-42 -184 -174.5 -288.5t-324.5 -104.5 q-121 0 -219 49.5t-149 141.5z" />
<glyph unicode="T" horiz-adv-x="936" d="M340 1463l10 41h853l-10 -41h-399l-341 -1463h-44l340 1463h-409z" />
<glyph unicode="U" horiz-adv-x="1268" d="M266 250q-2 25 -1 50q0 38 4 78q7 66 25 143l229 983h44l-230 -988q-21 -85 -27 -153q-3 -27 -2 -53q0 -40 6 -82q10 -68 42 -113t96.5 -73t160.5 -28q85 0 157 20t125.5 57t95 83t72 105t51 115.5t35.5 122.5l230 987h44l-230 -988q-28 -122 -71.5 -215.5t-111.5 -170.5 t-168.5 -117.5t-230.5 -40.5q-87 0 -152 20t-104 58t-62 87t-27 113z" />
<glyph unicode="V" horiz-adv-x="1062" d="M352 1504h46l109 -1457h4l789 1457h52l-814 -1504h-70z" />
<glyph unicode="W" horiz-adv-x="1559" d="M354 1505h46l5 -1447h1l660 1447h72l-26 -1449h3l679 1449h51l-707 -1505h-74l30 1454h-3l-662 -1454h-70z" />
<glyph unicode="X" horiz-adv-x="1003" d="M4 0l635 802l-242 703l51 -1l224 -660l524 660h55l-564 -710l268 -794h-51l-250 754l-595 -754h-55z" />
<glyph unicode="Y" horiz-adv-x="1009" d="M357 1504h47l222 -853l614 853h53l-656 -908l-138 -596h-44l139 601z" />
<glyph unicode="Z" horiz-adv-x="1135" d="M106 0l9 39l1151 1423h-782l12 42h841l-9 -37q-47 -58 -561.5 -692.5t-594.5 -732.5h839l-12 -42h-893z" />
<glyph unicode="[" horiz-adv-x="690" d="M138 -276l415 1780h319l-9 -38h-276l-397 -1705h276l-9 -37h-319z" />
<glyph unicode="\" horiz-adv-x="692" d="M422 1610h45l133 -1781h-45z" />
<glyph unicode="]" horiz-adv-x="679" d="M68 -276l9 37h276l397 1705h-276l8 38h320l-415 -1780h-319z" />
<glyph unicode="^" horiz-adv-x="999" d="M296 887l503 591h48l238 -591h-47l-217 562l-479 -562h-46z" />
<glyph unicode="_" horiz-adv-x="943" d="M-65 -247l10 41h963l-10 -41h-963z" />
<glyph unicode="`" horiz-adv-x="273" d="M292 1559h52l122 -323h-48z" />
<glyph unicode="a" horiz-adv-x="962" d="M153 284q20 87 71.5 153t115.5 104.5t146 62.5t153 32t147 8h110q19 80 28 134q8 52 10 104q0 6 1 13q0 43 -10 70q-11 31 -36 55.5t-67 34.5t-103 10q-62 0 -138.5 -24t-142.5 -62l-14 30q76 49 157.5 72.5t141.5 23.5q50 0 88.5 -7.5t67 -19.5t47 -34.5t30.5 -46.5 q10 -24 14 -61q3 -29 4 -56q0 -8 -1 -16q-1 -35 -9 -86.5t-17.5 -97.5t-24.5 -111l-97 -418q-9 -37 -9 -63q0 -40 21 -53q10 -6 50 -6h21l-10 -36q-22 -5 -45 -5h-5q-79 0 -79 86q0 30 10 70l16 66h-1q-53 -70 -114.5 -119t-118 -72t-99.5 -32t-80 -9q-138 0 -200 84 q-40 55 -40 133q0 41 11 89zM195 278q-10 -42 -10 -78q1 -66 35 -112q52 -70 170 -70q114 0 224 71.5t196 184.5l76 329h-97q-52 0 -102 -4t-115.5 -15t-122 -34.5t-109 -57.5t-91 -89t-54.5 -125z" />
<glyph unicode="b" horiz-adv-x="1085" d="M151 0l352 1518l48 16l-165 -709q104 132 222 206.5t226 74.5q74 0 130.5 -24.5t89.5 -67t52.5 -97t22.5 -119.5q1 -22 1 -43q0 -43 -4 -85q-6 -64 -21 -129q-18 -79 -50 -156t-80.5 -151.5t-107 -130.5t-135 -90.5t-158.5 -34.5q-128 0 -199.5 70.5t-118.5 222.5 l-63 -271h-42zM275 353q75 -334 304 -334q72 0 141 33.5t122.5 88t99 124t74.5 140t45 137.5q22 95 25 181v23q0 74 -16 143q-19 80 -80 128t-159 48q-117 0 -239 -89t-223 -223z" />
<glyph unicode="c" horiz-adv-x="900" d="M199 248q-4 35 -4 73q0 96 25 214q38 164 112.5 291t187 203t245.5 76q68 0 135 -37.5t109 -116.5l-34 -22q-39 70 -95.5 102.5t-115.5 32.5q-94 0 -178 -44.5t-146 -120t-106.5 -169t-68.5 -198.5q-26 -104 -26 -192v-13q2 -94 28 -162.5t87 -106.5t152 -38 q66 0 148 33.5t150 104.5l26 -24q-72 -80 -158.5 -118t-166.5 -38q-135 0 -213.5 73t-92.5 197z" />
<glyph unicode="d" horiz-adv-x="1105" d="M193 272q-2 29 -2 57q1 31 3 63q4 60 18 120q19 79 50.5 158t82 158.5t111 140t141.5 98.5t170 38q109 0 191.5 -70.5t120.5 -197.5l158 681l48 16l-358 -1534h-43l62 265q-109 -150 -221.5 -218.5t-239.5 -68.5q-72 0 -127 23.5t-88 64.5t-53 93t-24 113zM235 334.5 q0 -84.5 22.5 -156.5t82 -115t150.5 -43q94 0 182 45.5t154 112.5t139 168l98 420q-25 121 -105 210.5t-194 89.5q-77 0 -149.5 -35.5t-128.5 -92.5t-103.5 -131t-78 -148.5t-47.5 -146.5q-22 -93 -22 -177.5z" />
<glyph unicode="e" horiz-adv-x="978" d="M191 314q0 94 25 203q65 279 210 433.5t328 154.5q92 0 154.5 -40t89 -110.5t28.5 -166.5q0 -8 1 -16q0 -89 -26 -193l-8 -35h-726q-31 -117 -35 -213q0 -12 -1 -23q0 -82 22 -144q25 -70 84 -108.5t149 -38.5q204 0 346 151l24 -22q-74 -85 -164 -126.5t-212 -41.5 q-101 0 -167.5 44t-94 121t-27.5 171zM277 586h684q17 75 23 142q2 25 3 50q0 42 -6 80q-9 62 -34.5 107t-75 72t-119.5 27q-74 0 -141.5 -28.5t-119 -75.5t-95 -109.5t-72.5 -129t-47 -135.5z" />
<glyph unicode="f" horiz-adv-x="558" d="M196 0l246 1055h-169l9 39h169l48 209q28 120 105.5 186.5t190.5 66.5q35 0 78 -10l-16 -36q-38 6 -72 6q-99 0 -162 -64.5t-85 -162.5l-44 -195h228l-9 -39l-228 -1l-246 -1054h-43z" />
<glyph unicode="g" horiz-adv-x="1081" d="M109 -306l30 25q98 -104 283 -104q250 0 374 218q45 78 82 204q39 138 66 256q-89 -139 -212 -226.5t-249 -87.5q-84 0 -144 32.5t-91.5 86.5t-44.5 127q-9 53 -9 108q0 21 1 42q5 77 24 160t49 160.5t77 153t104 131.5t135.5 90.5t166.5 34.5q117 0 201 -77.5 t115 -211.5l63 278h43l-214 -920q-17 -73 -33 -129t-41.5 -121.5t-54 -113.5t-70.5 -95t-91 -76.5t-115 -47.5t-143 -18q-97 0 -176 31t-126 90zM238 386q-2 -23 -2 -46q0 -47 8 -92q10 -68 37.5 -117.5t81.5 -79.5t130 -30q69 0 140 31.5t131.5 84.5t110.5 113.5t90 127.5 l85 365q-8 47 -23.5 91t-41 86.5t-58.5 74t-78.5 50.5t-98.5 19q-97 0 -181 -45.5t-143 -123t-100 -168.5t-65 -194q-18 -77 -23 -147z" />
<glyph unicode="h" horiz-adv-x="1034" d="M151 0l354 1518l46 16l-170 -732q109 159 226 231t225 72q231 0 231 -235q0 -73 -22 -169l-163 -701h-43l164 702q11 45 17 82q5 38 7 82v13q-1 37 -9 65q-10 34 -30 62.5t-59.5 44t-95.5 15.5q-233 0 -465 -342l-169 -724h-44z" />
<glyph unicode="i" horiz-adv-x="432" d="M199 0l244 1053h-127l9 41h170l-253 -1094h-43zM493 1433q5 25 26.5 42.5t47.5 17.5q25 0 39 -17q9 -12 10 -28q0 -7 -2 -15q-5 -25 -27 -42.5t-48 -17.5q-26 -1 -39 17q-9 12 -9 28q0 7 2 15z" />
<glyph unicode="j" horiz-adv-x="453" d="M-96 -421l11 36q36 -2 55 -2q161 0 206 192l291 1248h-127l10 41h169l-303 -1304q-24 -100 -85.5 -158.5t-158.5 -58.5q-36 0 -68 6zM513 1433q6 25 28 42.5t48 17.5q25 0 39 -17q9 -13 9 -28q0 -7 -2 -15q-6 -25 -27.5 -42.5t-46.5 -17.5q-26 0 -40 17q-10 13 -10 29 q0 7 2 14z" />
<glyph unicode="k" horiz-adv-x="853" d="M151 0l353 1519l47 17l-247 -1067l668 625h58l-424 -399l215 -695h-45l-204 663l-286 -267l-92 -396h-43z" />
<glyph unicode="l" horiz-adv-x="442" d="M179 90q0 31 16 115l307 1320l46 16l-314 -1352q-14 -74 -14 -98q0 -45 28 -58.5t79 -13.5q8 0 17.5 0.5t21 1.5t17.5 1l-5 -37q-38 -6 -59 -6q-140 0 -140 111z" />
<glyph unicode="m" horiz-adv-x="1680" d="M151 0l255 1094h43l-61 -254l2 -2q76 122 197 195t226 73q45 0 83.5 -13t73 -41.5t53.5 -81.5q17 -48 18 -111q0 -7 -1 -13l-1 -6q83 128 202 197t230 69q163 0 213 -106q25 -54 24 -134q0 -75 -22 -173l-161 -693h-43l161 694q10 43 16 78q7 34 9 74q1 15 0 29 q0 22 -2 41q-4 30 -16.5 59.5t-35 48.5t-58.5 30.5t-85 11.5q-75 0 -151 -31.5t-134.5 -81t-100 -109t-54.5 -116.5l-169 -728h-43l163 704q16 69 18 130v11q0 55 -14 104q-15 54 -59.5 85.5t-115.5 31.5t-147.5 -35t-136.5 -87.5t-105 -112.5t-63 -113l-166 -718h-42z" />
<glyph unicode="n" horiz-adv-x="1032" d="M151 0l253 1095h43l-68 -297q111 163 226.5 235t224.5 72q230 0 230 -237q0 -74 -22 -170l-161 -698h-43l161 699q11 45 16.5 82.5t7.5 82.5v15q0 35 -8 63q-10 34 -30 63t-58.5 44.5t-93.5 15.5q-233 0 -469 -347l-166 -718h-43z" />
<glyph unicode="o" horiz-adv-x="1010" d="M198 372q4 82 24 170q24 102 70.5 199t113 180t159 133.5t194.5 50.5q71 0 126 -23t88.5 -64t54 -94t24.5 -117q2 -29 3 -58q1 -36 -3 -72q-6 -66 -22 -134q-26 -114 -74.5 -214t-115.5 -179.5t-156 -125.5t-188 -46q-81 0 -141 31t-94.5 84.5t-50.5 125.5 q-13 58 -13 121q0 16 1 32zM240 346q0 -89 24 -163q24 -75 83.5 -119t149.5 -44q94 0 178 46.5t144 123t102.5 166t64.5 185.5q14 59 20 116q6 53 6 108v9q0 60 -16 111t-43.5 91.5t-77.5 63.5t-117 23q-79 0 -152 -34.5t-127 -89t-99 -125t-72.5 -138.5t-42.5 -133 q-25 -104 -25 -197z" />
<glyph unicode="p" horiz-adv-x="1082" d="M44 -437l358 1532h43l-62 -265q109 133 228 204t229 71q74 0 130 -24t88 -66t50 -95.5t20 -117.5q1 -17 1 -34q0 -47 -5 -94q-7 -62 -22 -128q-23 -100 -69 -196.5t-112 -181.5t-158.5 -137.5t-194.5 -52.5q-127 0 -198 74t-115 233l-164 -705zM272 358 q16 -74 38.5 -131.5t57 -107t85.5 -76t116 -26.5q75 0 146 35t125.5 90t100 126t74.5 141.5t44 136.5q17 74 25 142q3 35 3 69.5t-3 70.5q-8 70 -33 121t-79 83.5t-133 32.5q-119 0 -247.5 -87t-225.5 -216z" />
<glyph unicode="q" horiz-adv-x="1088" d="M190 365q5 74 23 152q18 79 49.5 158t81.5 157.5t110 138t141 97t169 37.5q111 0 198.5 -70t116.5 -187l57 246h44l-353 -1515l-47 -16l161 692q-95 -129 -211.5 -203t-246.5 -74q-86 0 -147.5 32.5t-93 85.5t-44.5 124q-9 51 -9 104q0 20 1 41zM231 367q-2 -22 -2 -43 q0 -49 9 -94q11 -65 40 -111.5t82.5 -74t127.5 -27.5q70 0 140.5 27.5t130.5 75t108 98.5t91 111l104 445q-24 125 -101 208t-200 83q-81 0 -155.5 -36t-130 -93t-101.5 -130.5t-74.5 -145.5t-44.5 -141q-19 -80 -24 -152z" />
<glyph unicode="r" horiz-adv-x="614" d="M146 0l254 1094h42l-68 -300q42 65 84 117t75.5 84.5t69 55.5t58.5 34t51 17t39.5 6.5t30.5 0.5q24 0 54 -7l-18 -40q-30 7 -53 7q-18 0 -37 -3.5t-33.5 -7.5t-33 -14.5t-29.5 -16.5t-29 -22t-25.5 -21.5t-25.5 -25t-22 -23.5t-23 -25.5t-20 -22.5q-72 -79 -136 -190 l-162 -697h-43z" />
<glyph unicode="s" horiz-adv-x="814" d="M118 142l33 22q38 -76 96.5 -111.5t147.5 -35.5q120 0 220 73t127 186q6 27 6 51q0 27 -8 50q-14 44 -48 70.5t-80 51t-95.5 42t-95 42.5t-79.5 53q-33 30 -47 76q-7 23 -7 49.5t7 56.5q30 131 122 209.5t227 78.5q80 0 143.5 -41.5t95.5 -110.5l-33 -21 q-71 133 -208 133q-119 0 -201 -69.5t-107 -185.5q-5 -23 -5 -44q0 -38 17 -68q26 -46 79 -73.5t111 -49.5t118.5 -54.5t90.5 -73.5q42 -57 42 -125q0 -26 -6 -54q-31 -131 -141.5 -211t-245.5 -80q-98 0 -171 43t-105 121z" />
<glyph unicode="t" horiz-adv-x="543" d="M226 145q4 32 14 77l194 831h-181l9 41h181l54 231l47 16l-58 -247h246l-9 -41h-246l-198 -853q-12 -53 -12 -91q1 -4 1 -8q2 -40 34.5 -60.5t102.5 -20.5q6 0 25 0.5t26 0.5l-5 -38q-36 -4 -52 -4q-56 0 -93 13t-55 34q-17 20 -23 54q-3 19 -4 38q0 14 2 27z" />
<glyph unicode="u" horiz-adv-x="1027" d="M210 276q6 60 22 131l160 687h43l-162 -697q-23 -97 -23 -169q0 -210 192 -210q58 0 116 22.5t104.5 56t94.5 82.5t81 91.5t68 94.5l169 729h43l-255 -1094h-43l66 284q-82 -116 -164.5 -186.5t-149 -95t-137.5 -24.5q-68 0 -116 23.5t-72.5 63t-33.5 95.5q-6 35 -6 71 q1 22 3 45z" />
<glyph unicode="v" horiz-adv-x="843" d="M270 1094h43l96 -1041h2l580 1041h48l-611 -1094h-56z" />
<glyph unicode="w" horiz-adv-x="1230" d="M280 1093h40l1 -1028h2l493 1027h66l2 -1030h2l489 1031h45l-518 -1093h-58l-2 1051h-2l-501 -1051h-58z" />
<glyph unicode="x" horiz-adv-x="783" d="M21 0l457 574l-180 520h47l165 -481l384 481h51l-421 -526l197 -568h-48l-178 528l-421 -528h-53z" />
<glyph unicode="y" horiz-adv-x="859" d="M0 -422l14 43q22 -5 39 -5q122 0 206 111q23 31 50 77.5t66.5 122t45.5 85.5l-119 1082h44l111 -1021l549 1021h51l-690 -1271q-35 -64 -59.5 -100.5t-63 -75.5t-87 -56.5t-112.5 -17.5q-20 0 -45 5z" />
<glyph unicode="z" horiz-adv-x="904" d="M73 0l10 43l884 1010h-629l9 41h680l-11 -48l-876 -1006h658l-9 -40h-716z" />
<glyph unicode="{" horiz-adv-x="745" d="M247 593l8 36q109 12 158.5 62.5t75.5 163.5l52 223q21 89 49 155.5t74.5 126t117 97.5t165.5 54l-7 -29q-75 -17 -133.5 -51.5t-93 -71.5t-62 -93t-40 -97t-26.5 -103q0 -1 -13 -54t-26 -105.5t-13 -53.5q-7 -29 -12.5 -48.5t-21 -52.5t-34.5 -56.5t-53 -47t-76 -35.5 v-1q36 -13 58.5 -36t31 -46.5t8.5 -56.5t-3 -54t-10 -51l-54 -229q-44 -194 -7 -274.5t178 -109.5l-7 -28q-72 6 -120.5 30t-74 60.5t-33 90.5t-1.5 111.5t24 133.5l51 217q28 103 0.5 157t-130.5 66z" />
<glyph unicode="|" horiz-adv-x="561" d="M154 -402l484 2078h42l-484 -2078h-42z" />
<glyph unicode="}" horiz-adv-x="714" d="M46 -273l6 28q154 29 229 110.5t120 273.5l57 240q9 35 15 55.5t21 51.5t33.5 51t51 41t74.5 34q1 1 0 1q-37 12 -59.5 35.5t-31 47t-8.5 56.5t3.5 53t10.5 48q0 2 25 109t27 115q10 45 15.5 73t10 70t1 69.5t-14.5 61t-33 56t-58.5 43t-86.5 32.5l7 29q87 -16 140 -54 t71.5 -97.5t16 -126t-23.5 -155.5l-52 -223q-29 -108 -2 -161t130 -65l-8 -36q-108 -12 -158 -63t-75 -160l-51 -217q-18 -76 -38.5 -133.5t-53.5 -111.5t-74.5 -90.5t-101.5 -60.5t-135 -30z" />
<glyph unicode="~" horiz-adv-x="1216" d="M277 705q40 39 69.5 66t75.5 62.5t89.5 54.5t81.5 19q47 0 86.5 -27t68 -65.5t56.5 -76.5t64.5 -65t79.5 -27q98 0 300 191l19 -32q-39 -37 -57.5 -53.5t-61 -51.5t-71.5 -52.5t-67.5 -32.5t-71.5 -15q-50 0 -91 27t-70 65.5t-57 77t-63.5 65.5t-76.5 27q-89 0 -270 -175 q-9 -8 -13 -12z" />
<glyph unicode="&#xa1;" horiz-adv-x="505" d="M216 0l211 906l41 169h39l-37 -170l-211 -905h-43zM508 1461q7 30 32.5 49.5t55.5 19.5q31 0 46 -19t8 -50q-7 -32 -31 -50.5t-56 -18.5q-28 0 -44.5 20.5t-10.5 48.5z" />
<glyph unicode="&#xa2;" horiz-adv-x="945" d="M264 641q56 240 189.5 383.5t324.5 152.5l42 181h45l-42 -181q144 -6 224 -146l-33 -22q-71 128 -212 128q-184 0 -312.5 -139.5t-179.5 -355.5q-54 -233 8 -363.5t243 -130.5q64 0 144.5 34.5t148.5 105.5l26 -24q-67 -75 -148 -114t-158 -44l-45 -192h-45l45 193 q-188 10 -254 152t-11 382z" />
<glyph unicode="&#xa3;" horiz-adv-x="1193" d="M179 0l6 27q300 172 366 460q22 95 35 221h-227l9 41h221q5 210 29 309q52 223 176.5 343.5t305.5 120.5q72 0 140.5 -34.5t103.5 -107.5l-31 -21q-70 121 -213 121q-174 0 -284 -114.5t-155 -309.5q-23 -98 -28 -307h428l-9 -41h-422q-15 -138 -35 -221 q-70 -295 -314 -446h779l-11 -41h-870z" />
<glyph unicode="&#xa5;" horiz-adv-x="1139" d="M323 311l10 39h301l54 234l-207 920h46l195 -867l594 867h53l-640 -930l-52 -224h303l-10 -39h-303l-72 -311h-43l72 311h-301z" />
<glyph unicode="&#xa7;" horiz-adv-x="1155" d="M138 -97l36 24q99 -115 300 -115q74 0 142.5 20.5t125 59t90.5 101t34 140.5q0 56 -34.5 95.5t-89.5 62t-121.5 40t-133 38t-121.5 48.5t-89.5 78.5t-34.5 120.5q0 241 353 405q-67 50 -67 146q0 78 35 146.5t92 113.5t129 71t148 26q77 0 145.5 -28.5t114.5 -84.5 l-34 -24q-103 96 -225 96q-88 0 -170 -37t-137 -109.5t-55 -162.5q0 -56 34 -96.5t89 -64t121.5 -43.5t132.5 -41.5t121 -50t89 -77.5t34 -115q0 -60 -20 -114t-52 -94.5t-78.5 -78.5t-91.5 -64.5t-100 -53.5q59 -41 59 -143q0 -92 -37.5 -164t-100.5 -115t-141 -65 t-165 -22q-97 0 -184.5 32t-142.5 99zM286 619q0 -54 29.5 -96t74.5 -66.5t106 -46t118 -35t115.5 -33.5t93.5 -41q61 29 114.5 64.5t103 83t78.5 108t29 125.5q0 49 -29 89t-74 65t-104.5 48t-115 38t-112 36t-88.5 42q-62 -28 -117 -63t-107.5 -82.5t-83.5 -108.5 t-31 -127z" />
<glyph unicode="&#xa8;" horiz-adv-x="865" d="M479 1363q7 32 31 50.5t56 18.5q28 0 44.5 -20.5t10.5 -48.5q-7 -30 -32.5 -49.5t-55.5 -19.5q-31 0 -46 19t-8 50zM854 1363q7 32 31 50.5t56 18.5q29 0 45.5 -20.5t9.5 -48.5q-7 -30 -32 -49.5t-55 -19.5q-32 0 -47 19t-8 50z" />
<glyph unicode="&#xa9;" horiz-adv-x="1711" d="M274.5 434.5q-22.5 142.5 19.5 313.5q53 227 185.5 403.5t320.5 274.5t401 98q215 0 358.5 -95t192.5 -267.5t-3 -413.5q-54 -230 -187.5 -407t-321 -272.5t-399.5 -95.5q-158 0 -280.5 57t-193 159.5t-93 245zM304.5 517q2.5 -110 43 -203.5t106.5 -162t167.5 -107 t226.5 -38.5q210 0 392 98t304.5 265.5t171.5 378.5q40 164 21.5 300.5t-83 234.5t-183 153t-277.5 55q-158 0 -303.5 -58.5t-257 -159.5t-191 -236t-115.5 -289q-25 -121 -22.5 -231zM697 621.5q1 60.5 15 120.5q20 85 60 164.5t96 143t130 102t154 38.5q43 0 81.5 -11 t77 -44.5t55.5 -86.5l-38 -15q-48 116 -174 116q-136 0 -247.5 -117t-151.5 -289q-41 -173 13 -282.5t183 -109.5q152 0 256 124l30 -17q-61 -80 -138.5 -114.5t-151.5 -34.5q-65 0 -115 26t-79 69.5t-43 100t-13 117z" />
<glyph unicode="&#xaa;" horiz-adv-x="911" d="M305 877q13 55 41 98t62.5 71.5t83 49t91.5 31t100 16.5t95.5 7.5t90.5 1.5q33 140 31 192q-4 98 -99 117q-27 6 -62 6q-102 0 -219 -69l-10 28q116 77 235 77q60 0 100.5 -14.5t60.5 -41t27.5 -61t3 -78t-13 -88t-20.5 -94.5l-9 -36l-69 -294q-19 -74 -9.5 -96.5 t65.5 -18.5l-7 -32q-13 -2 -42 -2q-79 0 -38 154q-161 -164 -325 -164q-100 0 -143.5 70.5t-20.5 169.5zM345 879q-23 -95 11 -149.5t119 -54.5q92 0 176.5 49t149.5 130l61 264h-80q-67 0 -129 -10t-129 -34t-115 -74t-64 -121z" />
<glyph unicode="&#xab;" horiz-adv-x="1071" d="M189 536l481 515h59l-488 -523l246 -528h-49zM659 536l481 515h59l-488 -523l246 -528h-49z" />
<glyph unicode="&#xad;" d="M255 700l9 40h422l-10 -40h-421z" />
<glyph unicode="&#xae;" horiz-adv-x="1702" d="M274.5 434.5q-22.5 142.5 19.5 313.5q53 227 185.5 403.5t320.5 274.5t401 98q215 0 358.5 -95t192.5 -267.5t-3 -413.5q-54 -230 -187.5 -407t-321 -272.5t-399.5 -95.5q-158 0 -280.5 57t-193 159.5t-93 245zM304.5 517q2.5 -110 43 -203.5t106.5 -162t167.5 -107 t226.5 -38.5q210 0 392 98t304.5 265.5t171.5 378.5q40 164 21.5 300.5t-83 234.5t-183 153t-277.5 55q-158 0 -303.5 -58.5t-257 -159.5t-191 -236t-115.5 -289q-25 -121 -22.5 -231zM707 335l199 856h220q119 0 177 -60.5t29 -185.5q-21 -92 -90.5 -152.5t-161.5 -72.5 l128 -385h-43l-125 379h-207l-88 -379h-38zM842 752h199q50 0 101 20.5t94 66t57 107.5q46 210 -169 210h-188z" />
<glyph unicode="&#xaf;" horiz-adv-x="767" d="M351 1344l9 39h638l-9 -39h-638z" />
<glyph unicode="&#xb0;" horiz-adv-x="738" d="M389 1233q26 113 116 188.5t194 75.5q103 0 158 -78.5t28 -193.5q-27 -116 -116.5 -191.5t-195.5 -75.5q-102 0 -156.5 79.5t-27.5 195.5zM421 1229q-23 -99 19.5 -166.5t133.5 -67.5q92 0 174 68.5t105 165.5q23 101 -19.5 166t-136.5 65q-93 0 -173 -66t-103 -165z" />
<glyph unicode="&#xb1;" horiz-adv-x="1057" d="M112 0l9 39h833l-9 -39h-833zM293 786l9 39h403l105 453h39l-105 -453h391l-9 -39h-391l-107 -464h-39l107 464h-403z" />
<glyph unicode="&#xb4;" horiz-adv-x="303" d="M339 1236l272 323h52l-276 -323h-48z" />
<glyph unicode="&#xb5;" horiz-adv-x="1018" d="M27 -391l345 1484h43l-23 -100l-141 -604q-10 -46 -10 -65q-2 -64 6.5 -116.5t28 -96.5t57 -68.5t90.5 -24.5q227 0 462 346l170 730h43l-255 -1094h-43l66 283q-120 -169 -230.5 -237t-219.5 -68q-100 0 -152 77t-50 191l-145 -622z" />
<glyph unicode="&#xb6;" horiz-adv-x="1049" d="M277 1065q48 208 199 326t353 118h536l-9 -39h-145l-414 -1794h-43l414 1794h-325l-414 -1794h-46l218 946q-205 3 -287 125.5t-37 317.5z" />
<glyph unicode="&#xb7;" horiz-adv-x="486" d="M288 746q12 51 56 86.5t94 35.5t78 -35.5t16 -86.5q-12 -50 -56 -86t-94 -36t-78 36t-16 86z" />
<glyph unicode="&#xb8;" horiz-adv-x="670" d="M78 -387l20 38q73 -46 133 -46q32 0 64 9t68 42t48 87q12 53 -25 80t-95 27h-57l-19 27l75 123h43l-67 -112q97 13 150 -33.5t36 -121.5q-13 -60 -51 -99.5t-82.5 -54.5t-96.5 -15q-75 0 -144 49z" />
<glyph unicode="&#xba;" horiz-adv-x="897" d="M344.5 903q-4.5 78 17.5 166q26 111 85 209t149.5 163t189.5 65q78 0 132 -35t78 -94.5t28 -138t-19 -166.5q-28 -120 -85 -216t-145 -156.5t-191 -60.5q-77 0 -131.5 34.5t-79 93t-29 136.5zM385 925q2 -71 20.5 -126.5t67 -90t120.5 -34.5t135.5 34t110 92t79 127 t50.5 145q16 68 16 135t-17.5 127.5t-65.5 98t-123 37.5q-72 0 -137.5 -38.5t-111.5 -99.5t-78.5 -128.5t-47.5 -134.5q-20 -73 -18 -144z" />
<glyph unicode="&#xbb;" horiz-adv-x="1064" d="M93 0l509 544l-240 507h47l242 -515l-499 -536h-59zM563 0l509 544l-240 507h47l242 -515l-499 -536h-59z" />
<glyph unicode="&#xbc;" horiz-adv-x="1658" d="M227 619l6 35h186l161 817l-210 -78l1 37l216 80h41l-168 -856h172l-6 -35h-399zM480 1l976 1503h40l-979 -1503h-37zM1011 220l6 35l573 637h37l-125 -639h127l-6 -33h-127l-44 -219h-43l44 219h-442zM1054 253h405l111 569q-128 -143 -516 -569z" />
<glyph unicode="&#xbd;" horiz-adv-x="1704" d="M230 640l8 34h187l157 799l-211 -76v35l217 78h41l-163 -836h172l-8 -34h-400zM480 3l977 1501h39l-979 -1501h-37zM1123 1l5 21q12 62 40.5 116t71.5 98t84.5 76t98.5 68q12 7 45.5 28t52.5 31q69 48 86 62q88 64 103 143q18 90 -28 145t-135 55q-126 0 -225 -96l-24 21 q110 110 253 110q110 0 166 -63.5t34 -173.5q-16 -79 -99 -150q-22 -19 -47 -36.5t-63.5 -42l-49.5 -31.5q-135 -82 -219 -164t-103 -182h454l-8 -35h-493z" />
<glyph unicode="&#xbe;" horiz-adv-x="1726" d="M236 750l28 19q62 -105 185 -105q111 0 189 61t99 165q21 101 -30.5 152.5t-147.5 51.5h-57l7 31h59q174 0 210 180q13 75 -30 129t-131 54q-115 0 -212 -97l-21 21q102 110 237 110q99 0 157.5 -59t40.5 -158q-8 -37 -21 -65.5t-50.5 -64.5t-97.5 -68q159 -51 128 -217 q-26 -131 -118 -196t-223 -65q-142 0 -201 121zM547 3l976 1499h39l-978 -1499h-37zM1078 216l6 33l570 622h37l-122 -624h127l-6 -31h-127l-43 -215h-43l43 215h-442zM1119 247h407l108 557q-299 -328 -515 -557z" />
<glyph unicode="&#xbf;" horiz-adv-x="878" d="M211 273q15 67 59.5 132.5t101 122l114 114t110.5 130.5t79 148q6 16 37 149h43l-27 -116q-19 -80 -70 -160t-112.5 -144.5t-122 -126.5t-108.5 -127.5t-62 -124.5q-29 -124 28.5 -190.5t182.5 -66.5q67 0 143 33t137 91l26 -25q-61 -63 -146.5 -100.5t-157.5 -37.5 q-144 0 -216 79.5t-39 219.5zM746 1430q7 30 32 49.5t55 19.5q31 0 46.5 -19t8.5 -50q-7 -32 -31 -50.5t-56 -18.5q-29 0 -45.5 20.5t-9.5 48.5z" />
<glyph unicode="&#xc0;" horiz-adv-x="1121" d="M11 0h51l248 435h706l48 -435h48l-173 1504h-67zM334 477l562 983h3l112 -984zM776 1929h52l122 -323h-48z" />
<glyph unicode="&#xc1;" horiz-adv-x="1145" d="M11 0l861 1504h67l173 -1504h-48l-48 435h-706l-248 -435h-51zM334 477l677 -1l-112 984h-3zM916 1606l273 323h52l-277 -323h-48z" />
<glyph unicode="&#xc2;" horiz-adv-x="1144" d="M11 0l861 1504h67l173 -1504h-48l-48 435h-706l-248 -435h-51zM334 477l677 -1l-112 984h-3zM674 1553l305 335h39l159 -335h-51l-132 293l-269 -293h-51z" />
<glyph unicode="&#xc3;" horiz-adv-x="1171" d="M11 0l861 1504h67l173 -1504h-48l-48 435h-706l-248 -435h-51zM334 477l677 -1l-112 984h-3zM627 1579q66 242 211 242q33 0 63 -21t54.5 -50.5t48 -59t53 -50.5t61.5 -21q24 0 44.5 8.5t37 27.5t27.5 34t24 45.5t17.5 43.5t15.5 45h35q-10 -36 -20 -64.5t-28 -64 t-39 -59.5t-53 -40.5t-70 -16.5q-37 0 -70 21t-57.5 50.5t-47.5 59t-51 50.5t-58 21q-26 0 -50 -14t-38.5 -29.5t-31.5 -48.5t-23 -47.5t-19 -49.5q-3 -9 -5 -13z" />
<glyph unicode="&#xc4;" horiz-adv-x="1156" d="M11 0l861 1504h67l173 -1504h-48l-48 435h-706l-248 -435h-51zM334 477l677 -1l-112 984h-3zM699 1748q7 32 31 50.5t56 18.5q29 0 45.5 -20.5t9.5 -48.5q-7 -30 -32 -49.5t-55 -19.5q-31 0 -46.5 18.5t-8.5 50.5zM1075 1748q7 32 31 50.5t56 18.5q28 0 45 -20.5 t10 -48.5q-7 -30 -32 -49.5t-55 -19.5q-32 0 -47 18.5t-8 50.5z" />
<glyph unicode="&#xc5;" horiz-adv-x="1164" d="M11 0l844 1474q-58 20 -87.5 78t-13.5 126q20 85 93 146.5t152 61.5q80 0 125 -63t25 -145q-19 -76 -77 -134t-129 -73l169 -1471h-48l-48 435h-705l-249 -435h-51zM334 477l677 -1l-112 984h-2zM794 1678q-15 -65 16 -119t95 -54q67 0 127 51.5t77 121.5 q16 70 -16.5 120t-96.5 50q-62 0 -124.5 -52.5t-77.5 -117.5z" />
<glyph unicode="&#xc6;" horiz-adv-x="1596" d="M-1 0l1035 1507l769 -3l-12 -42h-583l-157 -673h486l-12 -42h-484l-164 -705h595l-13 -42h-635l105 449h-569l-308 -449h-53zM388 491h550l226 971h-109z" />
<glyph unicode="&#xc7;" horiz-adv-x="1193" d="M258.5 521.5q5.5 106.5 32.5 221.5q39 166 106 306.5t157.5 246.5t208.5 165.5t250 59.5q40 0 81 -9t87 -29.5t88.5 -61t71.5 -96.5l-32 -24q-101 179 -298 179q-124 0 -236.5 -59.5t-197.5 -162.5t-147 -234t-96 -281q-38 -157 -33 -289.5t43.5 -229t120.5 -150.5 t198 -54q227 0 419 195l26 -25q-96 -105 -216.5 -158t-236.5 -53q-3 0 -8 0.5t-7 0.5l-58 -98q97 13 150.5 -33.5t36.5 -121.5q-14 -61 -52 -100.5t-82.5 -54.5t-96.5 -15q-72 0 -144 50l20 38q74 -47 133 -47q23 0 46.5 5.5t51.5 19t50 43t32 70.5q13 53 -24.5 80.5 t-95.5 27.5h-56l-20 27l67 111q-91 11 -159.5 57t-109 117.5t-58.5 165t-12.5 200z" />
<glyph unicode="&#xc8;" horiz-adv-x="1119" d="M186 0h795l13 42h-755l164 705h644l12 42h-646l157 673h742l13 42h-789zM816 1929h52l122 -323h-48z" />
<glyph unicode="&#xc9;" horiz-adv-x="1119" d="M186 0l350 1504h789l-13 -42h-742l-157 -673h646l-12 -42h-644l-164 -705h755l-13 -42h-795zM926 1606l273 323h52l-277 -323h-48z" />
<glyph unicode="&#xca;" horiz-adv-x="1119" d="M186 0l350 1504h789l-13 -42h-742l-157 -673h646l-12 -42h-644l-164 -705h755l-13 -42h-795zM726 1603l305 335h38l159 -335h-50l-133 293l-268 -293h-51z" />
<glyph unicode="&#xcb;" horiz-adv-x="1120" d="M186 0l350 1504h789l-13 -42h-742l-157 -673h646l-12 -42h-644l-164 -705h755l-13 -42h-795zM735 1748q7 32 31 50.5t56 18.5q29 0 45.5 -20.5t9.5 -48.5q-7 -30 -32 -49.5t-55 -19.5q-31 0 -46.5 18.5t-8.5 50.5zM1110 1748q7 32 31.5 50.5t56.5 18.5q28 0 44.5 -20.5 t9.5 -48.5q-7 -30 -32 -49.5t-55 -19.5q-31 0 -46.5 18.5t-8.5 50.5z" />
<glyph unicode="&#xcc;" horiz-adv-x="452" d="M186 0h44l350 1504h-44zM424 1929h52l122 -323h-48z" />
<glyph unicode="&#xcd;" horiz-adv-x="477" d="M186 0l350 1504h44l-350 -1504h-44zM554 1606l273 323h52l-277 -323h-48z" />
<glyph unicode="&#xce;" horiz-adv-x="459" d="M186 0l350 1504h44l-350 -1504h-44zM329 1583l305 335h39l159 -335h-50l-133 293l-268 -293h-52z" />
<glyph unicode="&#xcf;" horiz-adv-x="476" d="M186 0l350 1504h44l-350 -1504h-44zM392 1748q7 32 31 50.5t56 18.5q29 0 45.5 -20.5t9.5 -48.5q-7 -30 -32 -49.5t-55 -19.5q-31 0 -46.5 18.5t-8.5 50.5zM768 1748q7 32 31 50.5t56 18.5q28 0 44.5 -20.5t10.5 -48.5q-7 -30 -32 -49.5t-55 -19.5q-32 0 -47 18.5 t-8 50.5z" />
<glyph unicode="&#xd0;" horiz-adv-x="1285" d="M164 754l10 41h186l165 709h257q743 0 561 -780q-75 -320 -293 -522t-489 -202h-386l175 754h-186zM228 42h338q114 0 228.5 47.5t214 133.5t177 217.5t113.5 288.5q86 365 -38 549.5t-481 184.5h-221l-155 -668h398l-9 -41h-399z" />
<glyph unicode="&#xd1;" horiz-adv-x="1300" d="M186 0l350 1504h45l478 -1431l333 1431h44l-350 -1504h-49l-475 1424l-332 -1424h-44zM718 1559q68 242 212 242q33 0 63 -21t54.5 -50.5t48 -59t53 -50.5t61.5 -21q20 0 38.5 8t32 17.5t27 30t21 33t18.5 40t14.5 37.5t13.5 38h36q-10 -36 -20 -64.5t-28.5 -64.5 t-39.5 -59.5t-52.5 -40t-69.5 -16.5q-37 0 -70 21t-57.5 50.5t-47.5 59t-51 50.5t-58 21q-14 0 -28 -4t-24.5 -9.5t-22 -17t-19 -19.5t-17 -24.5t-14.5 -25t-13 -28t-11 -25.5t-10.5 -26.5t-8.5 -22.5z" />
<glyph unicode="&#xd2;" horiz-adv-x="1305" d="M260.5 386q4.5 -89 30 -162.5t68.5 -129.5t114.5 -87t164.5 -31q115 0 217.5 47.5t178 124t138.5 180.5t103 209t66 217q40 159 36 299t-43 244.5t-125.5 164.5t-211.5 60q-123 0 -239 -63.5t-204.5 -170.5t-154.5 -242.5t-101 -284.5q-23 -100 -32.5 -193t-5 -182z M304 495q3 75 13 138.5t25 127.5q12 51 32.5 110.5t53.5 129.5t73.5 136.5t95 129t114 109.5t134 75t153.5 28q78 0 138.5 -27t97 -71.5t59.5 -105.5t31 -126t6.5 -137t-10 -133.5t-22.5 -119.5q-12 -49 -29 -104t-48 -129.5t-68.5 -142t-91 -136t-114 -118t-140.5 -80.5 t-167 -31q-82 0 -144.5 27t-99.5 72t-59.5 108t-29 129t-3.5 141zM862 1929h52l122 -323h-48z" />
<glyph unicode="&#xd3;" horiz-adv-x="1305" d="M260.5 386q4.5 -89 30 -162.5t68.5 -129.5t114.5 -87t164.5 -31q115 0 217.5 47.5t178 124t138.5 180.5t103 209t66 217q40 159 36 299t-43 244.5t-125.5 164.5t-211.5 60q-123 0 -239 -63.5t-204.5 -170.5t-154.5 -242.5t-101 -284.5q-23 -100 -32.5 -193t-5 -182z M304 495q3 75 13 138.5t25 127.5q12 51 32.5 110.5t53.5 129.5t73.5 136.5t95 129t114 109.5t134 75t153.5 28q78 0 138.5 -27t97 -71.5t59.5 -105.5t31 -126t6.5 -137t-10 -133.5t-22.5 -119.5q-12 -49 -29 -104t-48 -129.5t-68.5 -142t-91 -136t-114 -118t-140.5 -80.5 t-167 -31q-82 0 -144.5 27t-99.5 72t-59.5 108t-29 129t-3.5 141zM993 1606l273 323h52l-277 -323h-48z" />
<glyph unicode="&#xd4;" horiz-adv-x="1305" d="M260.5 386q4.5 -89 30 -162.5t68.5 -129.5t114.5 -87t164.5 -31q115 0 217.5 47.5t178 124t138.5 180.5t103 209t66 217q40 159 36 299t-43 244.5t-125.5 164.5t-211.5 60q-123 0 -239 -63.5t-204.5 -170.5t-154.5 -242.5t-101 -284.5q-23 -100 -32.5 -193t-5 -182z M304 495q3 75 13 138.5t25 127.5q12 51 32.5 110.5t53.5 129.5t73.5 136.5t95 129t114 109.5t134 75t153.5 28q78 0 138.5 -27t97 -71.5t59.5 -105.5t31 -126t6.5 -137t-10 -133.5t-22.5 -119.5q-12 -49 -29 -104t-48 -129.5t-68.5 -142t-91 -136t-114 -118t-140.5 -80.5 t-167 -31q-82 0 -144.5 27t-99.5 72t-59.5 108t-29 129t-3.5 141zM764 1603l305 335h39l159 -335h-51l-132 293l-269 -293h-51z" />
<glyph unicode="&#xd5;" horiz-adv-x="1314" d="M260.5 386q4.5 -89 30 -162.5t68.5 -129.5t114.5 -87t164.5 -31q115 0 217.5 47.5t178 124t138.5 180.5t103 209t66 217q40 159 36 299t-43 244.5t-125.5 164.5t-211.5 60q-123 0 -239 -63.5t-204.5 -170.5t-154.5 -242.5t-101 -284.5q-23 -100 -32.5 -193t-5 -182z M304 495q3 75 13 138.5t25 127.5q12 51 32.5 110.5t53.5 129.5t73.5 136.5t95 129t114 109.5t134 75t153.5 28q78 0 138.5 -27t97 -71.5t59.5 -105.5t31 -126t6.5 -137t-10 -133.5t-22.5 -119.5q-12 -49 -29 -104t-48 -129.5t-68.5 -142t-91 -136t-114 -118t-140.5 -80.5 t-167 -31q-82 0 -144.5 27t-99.5 72t-59.5 108t-29 129t-3.5 141zM697 1589q68 242 212 242q33 0 63 -21t54 -50.5l48 -59t53.5 -50.5t60.5 -21q24 0 44.5 8.5t37 27.5t27.5 34t24 45.5t17.5 43.5t15.5 45h35q-10 -36 -19.5 -64.5t-28 -64.5t-39.5 -59.5t-52.5 -40 t-69.5 -16.5q-37 0 -70 21t-57.5 50.5t-47.5 59t-51 50.5t-58 21q-16 0 -30.5 -4t-27.5 -14t-23 -18t-21 -25.5t-17 -26t-15.5 -30.5t-12.5 -29t-11.5 -30t-9.5 -25z" />
<glyph unicode="&#xd6;" horiz-adv-x="1303" d="M259.5 382.5q-4.5 89.5 5.5 183t33 193.5q35 149 101 285t154.5 243t204.5 171t239 64q100 0 175.5 -39t121 -109.5t66.5 -166.5t16 -211.5t-35 -243.5q-26 -112 -66 -217.5t-103 -209.5t-138.5 -181t-178.5 -124.5t-218 -47.5q-93 0 -164.5 31t-114.5 87t-68.5 129.5 t-30 163zM304 402.5q4 -59.5 14.5 -118.5t36.5 -107t62.5 -85t93.5 -57.5t129 -20.5q87 0 167 31t140.5 81t114 118t91 136t68.5 142.5t48 130t29 104.5q14 58 22.5 120t10 134t-6.5 137t-31 126.5t-60 106t-97.5 71.5t-138.5 27q-108 0 -208.5 -54t-172 -134.5 t-130.5 -181.5t-93 -188t-51 -162q-13 -55 -22 -111t-14.5 -121t-1.5 -124.5zM789 1748q7 32 31 50.5t56 18.5q29 0 45.5 -20.5t9.5 -48.5q-7 -30 -32 -49.5t-55 -19.5q-31 0 -46.5 18.5t-8.5 50.5zM1165 1748q7 32 31 50.5t56 18.5q28 0 45 -20.5t10 -48.5 q-7 -30 -32 -49.5t-55 -19.5q-32 0 -47 18.5t-8 50.5z" />
<glyph unicode="&#xd7;" horiz-adv-x="883" d="M192 350l383 346l-224 342l31 31l223 -346l383 346l21 -29l-383 -346l224 -348l-31 -27l-225 346l-382 -343z" />
<glyph unicode="&#xd8;" horiz-adv-x="1342" d="M-25 1l301 274q-44 197 22 484q35 149 101 285t155 243t205 171t239 64q137 0 225.5 -70.5t126.5 -198.5l277 251l25 -28l-292 -263q44 -194 -18 -461q-26 -112 -66 -217t-103 -208t-138.5 -179t-178.5 -123t-218 -47q-276 0 -352 255l-285 -260zM314 310l997 908 q-62 261 -313 261q-108 0 -208.5 -54t-172 -134.5t-130.5 -181.5t-93 -188t-51 -162q-61 -263 -29 -449zM323 267q62 -247 318 -247q87 0 167 31t140.5 80t114 116.5t91 135t68.5 141.5t48 129t29 104q53 230 21 419z" />
<glyph unicode="&#xd9;" horiz-adv-x="1268" d="M266.5 249.5q4.5 -63.5 27 -112.5t61.5 -87t104 -58t152 -20q130 0 230.5 40.5t168.5 117.5t111.5 170.5t71.5 215.5l230 988h-44l-230 -987q-15 -66 -35.5 -122.5t-51 -115.5t-72 -105t-95 -83t-125.5 -57t-157 -20q-96 0 -160.5 28t-96.5 73t-42 112.5t-3.5 135.5 t26.5 153l230 988h-43l-230 -983q-18 -77 -25 -142.5t-2.5 -129zM832 1859h52l122 -323h-48z" />
<glyph unicode="&#xda;" horiz-adv-x="1269" d="M267.5 249.5q-4.5 63.5 2.5 129t25 142.5l230 983h43l-230 -988q-20 -85 -26.5 -153t3.5 -135.5t42 -112.5t96.5 -73t160.5 -28q85 0 157 20t125.5 57t95 83t72 105t51 115.5t35.5 122.5l230 987h44l-230 -988q-28 -122 -71.5 -215.5t-111.5 -170.5t-168.5 -117.5 t-230.5 -40.5q-87 0 -152 20t-104 58t-61.5 87t-27 112.5zM944 1536l272 323h52l-276 -323h-48z" />
<glyph unicode="&#xdb;" horiz-adv-x="1270" d="M295 521l230 983h44l-230 -988q-20 -85 -27 -153t3.5 -135.5t42 -112.5t96.5 -73t160 -28q102 0 185 29.5t139 76.5t100 115.5t69 135t43 146.5l230 987h45l-230 -988q-23 -97 -54 -175t-79.5 -148.5t-110.5 -118t-148.5 -75t-190.5 -27.5q-445 0 -317 549zM749 1603 l305 335h39l159 -335h-51l-132 293l-269 -293h-51z" />
<glyph unicode="&#xdc;" horiz-adv-x="1269" d="M294 521l230 983h44l-230 -988q-20 -85 -26.5 -153t3.5 -135.5t42 -112.5t96.5 -73t159.5 -28q102 0 185 29.5t139 76.5t100 115.5t69 135t43 146.5l230 987h45l-230 -988q-23 -97 -54 -175t-79.5 -148.5t-110.5 -118t-148.5 -75t-190.5 -27.5q-445 0 -317 549zM754 1708 q7 32 31 50.5t56 18.5q29 0 45.5 -20.5t9.5 -48.5q-7 -30 -32 -49.5t-55 -19.5q-31 0 -46.5 18.5t-8.5 50.5zM1129 1708q7 32 31.5 50.5t55.5 18.5q29 0 45.5 -20.5t9.5 -48.5q-7 -30 -32 -49.5t-55 -19.5q-31 0 -46.5 18.5t-8.5 50.5z" />
<glyph unicode="&#xdd;" horiz-adv-x="1009" d="M357 1504h47l222 -853l614 853h53l-656 -908l-139 -596h-43l139 601zM813 1536l273 323h52l-277 -323h-48z" />
<glyph unicode="&#xde;" horiz-adv-x="1124" d="M186 0l350 1504h44l-68 -290h301q60 0 111 -8.5t97.5 -28t78 -51t53 -78t21 -109t-16.5 -143.5q-45 -193 -178.5 -294t-326.5 -101h-329l-93 -401h-44zM333 442h312q77 0 147.5 18.5t136 58t114.5 110.5t71 167q44 196 -31 286t-265 90h-316z" />
<glyph unicode="&#xdf;" horiz-adv-x="1083" d="M55 -393l360 1547q43 183 157.5 292t295.5 109q162 0 233.5 -97t31.5 -269q-10 -43 -23 -77.5t-38.5 -77t-68.5 -79.5t-102 -64q-59 -26 -128 -39q74 -6 135 -31q109 -45 148 -149t10 -239q-37 -171 -151 -284q-75 -74 -174.5 -113t-204.5 -39h-25q-13 0 -37 4l12 36 q4 0 12.5 -0.5t13.5 -0.5h32q173 0 303.5 107t172.5 288q23 89 12.5 156t-40 113t-81.5 75t-111.5 41.5t-131.5 12.5h-7l9 40q67 2 131 21t122.5 56.5t102.5 100t62 142.5q37 157 -20 241t-199 84q-161 0 -266.5 -97t-143.5 -263l-356 -1529z" />
<glyph unicode="&#xe0;" horiz-adv-x="962" d="M153 284q-32 -139 29.5 -222.5t199.5 -83.5q37 0 80 9t99.5 32t118 72t114.5 119h1l-16 -66q-37 -156 69 -156h5q23 0 45 5l10 36q-58 -2 -71 6q-34 21 -12 116l97 418q15 65 24.5 111t17.5 97.5t9 86.5t-2.5 72t-15 61t-30 46.5t-47 34.5t-67 19.5t-88.5 7.5 q-60 0 -141.5 -23.5t-157.5 -72.5l14 -30q66 38 142.5 62t138.5 24q61 0 103 -10t67 -34.5t36 -55.5t9.5 -82.5t-10.5 -105t-28 -133.5h-110q-76 0 -147 -8t-153 -32t-146 -62.5t-115.5 -104.5t-71.5 -153zM195 278q16 70 54.5 125t91 89t109 57.5t122 34.5t115.5 15t102 4 h97l-76 -329q-86 -113 -196 -184.5t-224 -71.5q-118 0 -170.5 69.5t-24.5 190.5zM602 1559h52l122 -323h-48z" />
<glyph unicode="&#xe1;" horiz-adv-x="980" d="M153 284q-32 -139 29.5 -222.5t199.5 -83.5q37 0 80 9t99.5 32t118 72t114.5 119h1l-16 -66q-37 -156 69 -156h5q23 0 45 5l10 36q-58 -2 -71 6q-34 21 -12 116l97 418q15 65 24.5 111t17.5 97.5t9 86.5t-2.5 72t-15 61t-30 46.5t-47 34.5t-67 19.5t-88.5 7.5 q-60 0 -141.5 -23.5t-157.5 -72.5l14 -30q66 38 142.5 62t138.5 24q61 0 103 -10t67 -34.5t36 -55.5t9.5 -82.5t-10.5 -105t-28 -133.5h-110q-76 0 -147 -8t-153 -32t-146 -62.5t-115.5 -104.5t-71.5 -153zM195 278q16 70 54.5 125t91 89t109 57.5t122 34.5t115.5 15t102 4 h97l-76 -329q-86 -113 -196 -184.5t-224 -71.5q-118 0 -170.5 69.5t-24.5 190.5zM700 1236l273 323h52l-277 -323h-48z" />
<glyph unicode="&#xe2;" horiz-adv-x="961" d="M153 284q-32 -139 29.5 -222.5t199.5 -83.5q37 0 80 9t99.5 32t118 72t114.5 119h1l-16 -66q-37 -156 69 -156h5q23 0 45 5l10 36q-58 -2 -71 6q-34 21 -12 116l97 418q15 65 24.5 111t17.5 97.5t9 86.5t-2.5 72t-15 61t-30 46.5t-47 34.5t-67 19.5t-88.5 7.5 q-60 0 -141.5 -23.5t-157.5 -72.5l14 -30q66 38 142.5 62t138.5 24q61 0 103 -10t67 -34.5t36 -55.5t9.5 -82.5t-10.5 -105t-28 -133.5h-110q-76 0 -147 -8t-153 -32t-146 -62.5t-115.5 -104.5t-71.5 -153zM195 278q16 70 54.5 125t91 89t109 57.5t122 34.5t115.5 15t102 4 h97l-76 -329q-86 -113 -196 -184.5t-224 -71.5q-118 0 -170.5 69.5t-24.5 190.5zM487 1224l305 335h39l159 -335h-50l-133 294l-269 -294h-51z" />
<glyph unicode="&#xe3;" horiz-adv-x="987" d="M153 284q-32 -139 29.5 -222.5t199.5 -83.5q37 0 80 9t99.5 32t118 72t114.5 119h1l-16 -66q-37 -156 69 -156h5q23 0 45 5l10 36q-58 -2 -71 6q-34 21 -12 116l97 418q15 65 24.5 111t17.5 97.5t9 86.5t-2.5 72t-15 61t-30 46.5t-47 34.5t-67 19.5t-88.5 7.5 q-60 0 -141.5 -23.5t-157.5 -72.5l14 -30q66 38 142.5 62t138.5 24q61 0 103 -10t67 -34.5t36 -55.5t9.5 -82.5t-10.5 -105t-28 -133.5h-110q-76 0 -147 -8t-153 -32t-146 -62.5t-115.5 -104.5t-71.5 -153zM195 278q16 70 54.5 125t91 89t109 57.5t122 34.5t115.5 15t102 4 h97l-76 -329q-86 -113 -196 -184.5t-224 -71.5q-118 0 -170.5 69.5t-24.5 190.5zM435 1259q66 242 211 242q33 0 63 -21t54.5 -50.5t48 -59t53 -50.5t61.5 -21q24 0 44.5 8.5t37 27.5t27.5 34t24 45.5t17.5 43.5t15.5 45h35q-10 -36 -20 -64.5t-28 -64t-39 -59.5t-53 -40.5 t-70 -16.5q-37 0 -70 21t-57.5 50.5t-47.5 59t-51 50.5t-58 21q-26 0 -50 -14t-38.5 -29.5t-31.5 -48.5t-23 -47.5t-19 -49.5q-3 -9 -5 -13z" />
<glyph unicode="&#xe4;" horiz-adv-x="976" d="M153 284q-32 -139 29.5 -222.5t199.5 -83.5q37 0 80 9t99.5 32t118 72t114.5 119h1l-16 -66q-37 -156 69 -156h5q23 0 45 5l10 36q-58 -2 -71 6q-34 21 -12 116l97 418q15 65 24.5 111t17.5 97.5t9 86.5t-2.5 72t-15 61t-30 46.5t-47 34.5t-67 19.5t-88.5 7.5 q-60 0 -141.5 -23.5t-157.5 -72.5l14 -30q66 38 142.5 62t138.5 24q61 0 103 -10t67 -34.5t36 -55.5t9.5 -82.5t-10.5 -105t-28 -133.5h-110q-76 0 -147 -8t-153 -32t-146 -62.5t-115.5 -104.5t-71.5 -153zM195 278q16 70 54.5 125t91 89t109 57.5t122 34.5t115.5 15t102 4 h97l-76 -329q-86 -113 -196 -184.5t-224 -71.5q-118 0 -170.5 69.5t-24.5 190.5zM525 1363q7 32 31 50.5t56 18.5q28 0 44.5 -20.5t10.5 -48.5q-7 -30 -32.5 -49.5t-55.5 -19.5q-31 0 -46 19t-8 50zM900 1363q7 32 31 50.5t56 18.5q29 0 45.5 -20.5t9.5 -48.5 q-7 -30 -32 -49.5t-55 -19.5q-31 0 -46.5 19t-8.5 50z" />
<glyph unicode="&#xe5;" horiz-adv-x="989" d="M153 284q-32 -139 29.5 -222.5t199.5 -83.5q37 0 80 9t99.5 32t118 72t114.5 119h1l-16 -66q-37 -156 69 -156h5q23 0 45 5l10 36q-58 -2 -71 6q-34 21 -12 116l97 418q15 65 24.5 111t17.5 97.5t9 86.5t-2.5 72t-15 61t-30 46.5t-47 34.5t-67 19.5t-88.5 7.5 q-60 0 -141.5 -23.5t-157.5 -72.5l14 -30q66 38 142.5 62t138.5 24q61 0 103 -10t67 -34.5t36 -55.5t9.5 -82.5t-10.5 -105t-28 -133.5h-110q-76 0 -147 -8t-153 -32t-146 -62.5t-115.5 -104.5t-71.5 -153zM195 278q16 70 54.5 125t91 89t109 57.5t122 34.5t115.5 15t102 4 h97l-76 -329q-86 -113 -196 -184.5t-224 -71.5q-118 0 -170.5 69.5t-24.5 190.5zM622 1458q20 85 93 146.5t152 61.5q81 0 125 -61.5t25 -146.5q-21 -88 -93.5 -149.5t-153.5 -61.5q-79 0 -123.5 62t-24.5 149zM662 1458q-15 -64 18.5 -118.5t97.5 -54.5q66 0 124 51.5 t75 121.5q16 69 -19.5 119.5t-99.5 50.5q-61 0 -121 -52t-75 -118z" />
<glyph unicode="&#xe6;" horiz-adv-x="1554" d="M153 290q12 50 33.5 91.5t47 71.5t62.5 53.5t70 39t80 26t81.5 16t85.5 8.5t81.5 3.5t79.5 0.5h39q46 156 121 270q0 105 -45.5 150t-167.5 45q-62 0 -141 -24t-144 -62l-14 30q75 49 156.5 72.5t142.5 23.5q129 0 185 -46.5t62 -142.5q150 190 360 190q92 0 155 -39.5 t90 -108.5t30.5 -163t-24.5 -202l-8 -35h-726q-42 -164 -36 -284t72 -188.5t186 -68.5q198 0 341 153l24 -22q-74 -85 -162 -127.5t-209 -42.5q-118 0 -188.5 58.5t-93.5 160.5q-51 -65 -109.5 -111.5t-112 -68t-94.5 -30.5t-77 -9q-137 0 -201 86.5t-32 225.5zM197 284 q-29 -121 23 -193.5t170 -72.5q103 0 203.5 59t178.5 156q-18 126 20 287l9 39h-24q-169 0 -241 -10q-287 -39 -339 -265zM855 600h684q16 71 21 135.5t-4.5 126t-34.5 105.5t-74.5 71t-119.5 27q-91 0 -173.5 -44t-141 -114.5t-99 -149.5t-58.5 -157z" />
<glyph unicode="&#xe7;" horiz-adv-x="901" d="M197 259.5q-11 119.5 23 275.5q38 164 112.5 291t187 203t245.5 76q68 0 135 -37.5t109 -116.5l-34 -22q-39 70 -95.5 102.5t-115.5 32.5q-94 0 -178 -44.5t-146 -120t-106.5 -169t-68.5 -198.5q-28 -111 -26 -205t28 -162.5t87 -106.5t152 -38q66 0 148 33.5t150 104.5 l26 -24q-71 -79 -156.5 -117t-165.5 -39l-58 -97q97 13 150.5 -33.5t36.5 -121.5q-20 -88 -84.5 -128.5t-146.5 -40.5q-74 0 -143 49l19 38q74 -47 133 -47q32 0 64 9t68 42.5t48 87.5q12 53 -25 80t-95 27h-56l-19 27l65 110q-120 10 -188.5 85t-79.5 194.5z" />
<glyph unicode="&#xe8;" horiz-adv-x="979" d="M191 314q0 -94 27.5 -171t94 -121t167.5 -44q122 0 212 41.5t164 126.5l-24 22q-142 -151 -346 -151q-90 0 -149 38.5t-84 109t-21.5 166.5t35.5 213h726l8 35q28 113 25.5 209t-29 166.5t-89 110.5t-154.5 40q-183 0 -328 -154.5t-210 -433.5q-25 -109 -25 -203z M277 586q18 69 47 135.5t72.5 129t95 109.5t119 75.5t141.5 28.5q70 0 119.5 -27t75 -72t34.5 -107.5t3.5 -129.5t-23.5 -142h-684zM642 1559h52l122 -323h-48z" />
<glyph unicode="&#xe9;" horiz-adv-x="1001" d="M191 314q0 -94 27.5 -171t94 -121t167.5 -44q122 0 212 41.5t164 126.5l-24 22q-142 -151 -346 -151q-90 0 -149 38.5t-84 109t-21.5 166.5t35.5 213h726l8 35q28 113 25.5 209t-29 166.5t-89 110.5t-154.5 40q-183 0 -328 -154.5t-210 -433.5q-25 -109 -25 -203z M277 586q18 69 47 135.5t72.5 129t95 109.5t119 75.5t141.5 28.5q70 0 119.5 -27t75 -72t34.5 -107.5t3.5 -129.5t-23.5 -142h-684zM753 1236l273 323h52l-277 -323h-48z" />
<glyph unicode="&#xea;" horiz-adv-x="980" d="M191 314q0 -94 27.5 -171t94 -121t167.5 -44q122 0 212 41.5t164 126.5l-24 22q-142 -151 -346 -151q-90 0 -149 38.5t-84 109t-21.5 166.5t35.5 213h726l8 35q28 113 25.5 209t-29 166.5t-89 110.5t-154.5 40q-183 0 -328 -154.5t-210 -433.5q-25 -109 -25 -203z M277 586q18 69 47 135.5t72.5 129t95 109.5t119 75.5t141.5 28.5q70 0 119.5 -27t75 -72t34.5 -107.5t3.5 -129.5t-23.5 -142h-684zM540 1224l305 335h39l159 -335h-50l-133 294l-269 -294h-51z" />
<glyph unicode="&#xeb;" horiz-adv-x="994" d="M191 314q0 -94 27.5 -171t94 -121t167.5 -44q122 0 212 41.5t164 126.5l-24 22q-142 -151 -346 -151q-90 0 -149 38.5t-84 109t-21.5 166.5t35.5 213h726l8 35q28 113 25.5 209t-29 166.5t-89 110.5t-154.5 40q-183 0 -328 -154.5t-210 -433.5q-25 -109 -25 -203z M277 586q18 69 47 135.5t72.5 129t95 109.5t119 75.5t141.5 28.5q70 0 119.5 -27t75 -72t34.5 -107.5t3.5 -129.5t-23.5 -142h-684zM557 1363q7 32 31 50.5t56 18.5q28 0 44.5 -20.5t10.5 -48.5q-7 -30 -32.5 -49.5t-55.5 -19.5q-31 0 -46 19t-8 50zM932 1363q7 32 31 50.5 t56 18.5q29 0 45.5 -20.5t9.5 -48.5q-7 -30 -32 -49.5t-55 -19.5q-31 0 -46.5 19t-8.5 50z" />
<glyph unicode="&#xec;" horiz-adv-x="420" d="M199 0h43l253 1094h-170l-9 -41h127zM311 1559h52l122 -323h-48z" />
<glyph unicode="&#xed;" horiz-adv-x="451" d="M199 0h43l253 1094h-170l-9 -41h127zM451 1236l273 323h52l-277 -323h-48z" />
<glyph unicode="&#xee;" horiz-adv-x="431" d="M199 0h43l253 1094h-170l-9 -41h127zM229 1224l305 335h39l159 -335h-51l-132 294l-269 -294h-51z" />
<glyph unicode="&#xef;" horiz-adv-x="446" d="M199 0h43l253 1094h-170l-9 -41h127zM246 1363q7 32 31 50.5t56 18.5q29 0 45.5 -20.5t9.5 -48.5q-7 -30 -32 -49.5t-55 -19.5q-31 0 -46.5 19t-8.5 50zM622 1363q7 32 31 50.5t56 18.5q28 0 45 -20.5t10 -48.5q-7 -30 -32 -49.5t-55 -19.5q-32 0 -47 19t-8 50z" />
<glyph unicode="&#xf0;" horiz-adv-x="1041" d="M189 285q-9 91 17 192q31 132 102.5 245t180 185t228.5 72q32 0 72 -11.5t87 -37.5t88 -79.5t62 -125.5h3q13 146 -49 295t-168 277l-329 -158l-7 31l314 150q-55 55 -90.5 81t-103.5 66l15 36q148 -88 215 -167l257 123l9 -30l-245 -117q150 -185 198 -367t-1 -403 q-27 -117 -75.5 -218t-116.5 -180t-159 -124t-195 -45q-95 0 -164 40.5t-102.5 109.5t-42.5 160zM229.5 336q-1.5 -63 14 -121t46 -102t84.5 -70t126 -26q78 0 149.5 30.5t126 79.5t99 113t73 128.5t43.5 128.5q19 66 16 139.5t-38 138.5q-17 32 -49 66t-88 64.5t-115 30.5 q-93 0 -175.5 -43t-140 -114t-96.5 -151t-59 -164q-15 -65 -16.5 -128z" />
<glyph unicode="&#xf1;" horiz-adv-x="1057" d="M151 0h43l166 718q236 347 469 347q55 0 93.5 -15.5t58.5 -44.5t30 -62.5t8 -78.5t-7.5 -82.5t-16.5 -82.5l-161 -699h43l161 698q94 407 -208 407q-109 0 -224.5 -72t-226.5 -235l68 297h-43zM494 1259q68 242 212 242q33 0 63 -21t54.5 -50.5t48 -59t53 -50.5t61.5 -21 q28 0 52.5 14.5t40 32t31.5 51.5t23 52t19 54h35q-10 -36 -20 -64.5t-28.5 -64.5t-39.5 -59.5t-52.5 -40t-69.5 -16.5q-37 0 -70 21t-57.5 50.5t-47.5 59t-51 50.5t-58 21q-14 0 -28 -4t-24.5 -9.5t-22 -17t-19 -19.5t-17 -24.5t-14.5 -25t-13 -28t-11 -25.5t-10.5 -26.5 t-8.5 -22.5z" />
<glyph unicode="&#xf2;" horiz-adv-x="1009" d="M198 372.5q-4 -81.5 12 -153.5t50.5 -125.5t94.5 -84.5t141 -31q99 0 188 46t156 125.5t115.5 179.5t74.5 214q16 68 21.5 134t1 130t-25 117t-54 94t-88.5 64t-126 23q-102 0 -194.5 -50.5t-159 -133.5t-113 -180t-70.5 -199q-20 -88 -24 -169.5zM240.5 349.5 q0.5 91.5 24.5 193.5q15 65 42.5 133t72.5 138.5t99 125t127 89t152 34.5q67 0 117 -23t77.5 -63.5t43 -91t16 -111t-5.5 -117.5t-20 -116q-22 -96 -64.5 -185.5t-102.5 -166t-144 -123t-178 -46.5q-90 0 -150 44t-83.5 119t-23 166.5zM646 1559h52l123 -323h-48z" />
<glyph unicode="&#xf3;" horiz-adv-x="1026" d="M198 372.5q-4 -81.5 12 -153.5t50.5 -125.5t94.5 -84.5t141 -31q99 0 188 46t156 125.5t115.5 179.5t74.5 214q16 68 21.5 134t1 130t-25 117t-54 94t-88.5 64t-126 23q-102 0 -194.5 -50.5t-159 -133.5t-113 -180t-70.5 -199q-20 -88 -24 -169.5zM240.5 349.5 q0.5 91.5 24.5 193.5q15 65 42.5 133t72.5 138.5t99 125t127 89t152 34.5q67 0 117 -23t77.5 -63.5t43 -91t16 -111t-5.5 -117.5t-20 -116q-22 -96 -64.5 -185.5t-102.5 -166t-144 -123t-178 -46.5q-90 0 -150 44t-83.5 119t-23 166.5zM747 1236l273 323h52l-277 -323h-48z " />
<glyph unicode="&#xf4;" horiz-adv-x="1009" d="M198 372.5q-4 -81.5 12 -153.5t50.5 -125.5t94.5 -84.5t141 -31q99 0 188 46t156 125.5t115.5 179.5t74.5 214q16 68 21.5 134t1 130t-25 117t-54 94t-88.5 64t-126 23q-102 0 -194.5 -50.5t-159 -133.5t-113 -180t-70.5 -199q-20 -88 -24 -169.5zM240.5 349.5 q0.5 91.5 24.5 193.5q15 65 42.5 133t72.5 138.5t99 125t127 89t152 34.5q67 0 117 -23t77.5 -63.5t43 -91t16 -111t-5.5 -117.5t-20 -116q-22 -96 -64.5 -185.5t-102.5 -166t-144 -123t-178 -46.5q-90 0 -150 44t-83.5 119t-23 166.5zM535 1224l304 335h39l159 -335h-50 l-133 294l-268 -294h-51z" />
<glyph unicode="&#xf5;" horiz-adv-x="1041" d="M198 372.5q-4 -81.5 12 -153.5t50.5 -125.5t94.5 -84.5t141 -31q99 0 188 46t156 125.5t115.5 179.5t74.5 214q16 68 21.5 134t1 130t-25 117t-54 94t-88.5 64t-126 23q-102 0 -194.5 -50.5t-159 -133.5t-113 -180t-70.5 -199q-20 -88 -24 -169.5zM240.5 349.5 q0.5 91.5 24.5 193.5q15 65 42.5 133t72.5 138.5t99 125t127 89t152 34.5q67 0 117 -23t77.5 -63.5t43 -91t16 -111t-5.5 -117.5t-20 -116q-22 -96 -64.5 -185.5t-102.5 -166t-144 -123t-178 -46.5q-90 0 -150 44t-83.5 119t-23 166.5zM494 1259q68 242 212 242q33 0 63 -21 t54 -50.5l48 -59t53.5 -50.5t60.5 -21q24 0 44.5 8.5t37 27.5t27.5 34t24 45.5t17.5 43.5t15.5 45h35q-10 -36 -19.5 -64.5t-28 -64.5t-39.5 -59.5t-52.5 -40t-69.5 -16.5q-37 0 -70 21t-57.5 50.5t-47.5 59t-51 50.5t-58 21q-27 0 -51 -14t-38.5 -29.5t-31.5 -48.5 t-23 -47.5t-19 -49.5q-3 -9 -5 -13z" />
<glyph unicode="&#xf6;" horiz-adv-x="1025" d="M198 372.5q-4 -81.5 12 -153.5t50.5 -125.5t94.5 -84.5t141 -31q99 0 188 46t156 125.5t115.5 179.5t74.5 214q16 68 21.5 134t1 130t-25 117t-54 94t-88.5 64t-126 23q-102 0 -194.5 -50.5t-159 -133.5t-113 -180t-70.5 -199q-20 -88 -24 -169.5zM240.5 349.5 q0.5 91.5 24.5 193.5q15 65 42.5 133t72.5 138.5t99 125t127 89t152 34.5q67 0 117 -23t77.5 -63.5t43 -91t16 -111t-5.5 -117.5t-20 -116q-22 -96 -64.5 -185.5t-102.5 -166t-144 -123t-178 -46.5q-90 0 -150 44t-83.5 119t-23 166.5zM561 1363q7 32 31 50.5t56 18.5 q29 0 45.5 -20.5t9.5 -48.5q-7 -30 -32 -49.5t-55 -19.5q-31 0 -46.5 19t-8.5 50zM936 1363q7 32 31 50.5t56 18.5q29 0 45.5 -20.5t9.5 -48.5q-7 -30 -32 -49.5t-55 -19.5q-31 0 -46.5 19t-8.5 50z" />
<glyph unicode="&#xf7;" horiz-adv-x="1286" d="M321 680l9 39h956l-9 -39h-956zM645 334q8 34 36.5 54t56.5 20q26 0 46.5 -22t13.5 -52q-8 -33 -38 -54.5t-57 -21.5q-28 0 -47 21t-11 55zM814 1069q8 35 37 55t57 20q27 0 47 -21.5t12 -53.5q-8 -33 -37.5 -53.5t-56.5 -20.5q-28 0 -47.5 20t-11.5 54z" />
<glyph unicode="&#xf8;" horiz-adv-x="1046" d="M-16 -19q14 12 103.5 93t130.5 117q-42 149 5 351q19 81 51.5 159t81.5 150.5t108.5 127.5t135.5 88t159 33q204 0 269 -178q80 70 219 196l23 -28q-34 -30 -117 -105.5t-113 -102.5q37 -141 -9 -339q-26 -114 -74.5 -214.5t-115 -179.5t-155.5 -125.5t-188 -46.5 q-197 0 -267 175q-198 -176 -223 -199zM254 224q302 273 740 667q-51 168 -235 168q-98 0 -185.5 -51t-147.5 -131.5t-100.5 -165.5t-59.5 -168q-42 -186 -12 -319zM265 183q56 -164 234 -164q93 0 177 46.5t144 123.5t102.5 166.5t64.5 185.5q42 182 18 309 q-238 -213 -740 -667z" />
<glyph unicode="&#xf9;" horiz-adv-x="1027" d="M209.5 276.5q-5.5 -60.5 3.5 -116.5t33.5 -95.5t72.5 -63t116 -23.5q71 0 137.5 24.5t149 95t164.5 186.5l-66 -284h43l255 1094h-43l-169 -729q-35 -52 -68 -94.5t-81 -91.5t-94.5 -82.5t-104.5 -56t-116 -22.5q-258 0 -169 379l162 697h-43l-160 -687 q-17 -70 -22.5 -130.5zM631 1559h52l122 -323h-48z" />
<glyph unicode="&#xfa;" horiz-adv-x="1027" d="M209.5 276.5q-5.5 -60.5 3.5 -116.5t33.5 -95.5t72.5 -63t116 -23.5q71 0 137.5 24.5t149 95t164.5 186.5l-66 -284h43l255 1094h-43l-169 -729q-35 -52 -68 -94.5t-81 -91.5t-94.5 -82.5t-104.5 -56t-116 -22.5q-258 0 -169 379l162 697h-43l-160 -687 q-17 -70 -22.5 -130.5zM741 1236l273 323h52l-277 -323h-48z" />
<glyph unicode="&#xfb;" horiz-adv-x="1027" d="M209.5 276.5q-5.5 -60.5 3.5 -116.5t33.5 -95.5t72.5 -63t116 -23.5q71 0 137.5 24.5t149 95t164.5 186.5l-66 -284h43l255 1094h-43l-169 -729q-35 -52 -68 -94.5t-81 -91.5t-94.5 -82.5t-104.5 -56t-116 -22.5q-258 0 -169 379l162 697h-43l-160 -687 q-17 -70 -22.5 -130.5zM539 1224l305 335h39l159 -335h-50l-133 294l-269 -294h-51z" />
<glyph unicode="&#xfc;" horiz-adv-x="1028" d="M209.5 276.5q-5.5 -60.5 3.5 -116.5t33.5 -95.5t72.5 -63t116 -23.5q71 0 137.5 24.5t149 95t164.5 186.5l-66 -284h43l255 1094h-43l-169 -729q-35 -52 -68 -94.5t-81 -91.5t-94.5 -82.5t-104.5 -56t-116 -22.5q-258 0 -169 379l162 697h-43l-160 -687 q-17 -70 -22.5 -130.5zM565 1363q7 32 31 50.5t56 18.5q29 0 45.5 -20.5t9.5 -48.5q-7 -30 -32 -49.5t-55 -19.5q-31 0 -46.5 19t-8.5 50zM940 1363q7 32 31 50.5t56 18.5q29 0 45.5 -20.5t9.5 -48.5q-7 -30 -32 -49.5t-55 -19.5q-31 0 -46.5 19t-8.5 50z" />
<glyph unicode="&#xfd;" horiz-adv-x="860" d="M0 -422q25 -5 45 -5q64 0 112.5 17.5t87 56.5t63 75.5t59.5 100.5l690 1271h-51l-549 -1021l-111 1021h-44l119 -1082q-6 -10 -45.5 -85.5t-66.5 -122t-50 -77.5q-84 -111 -206 -111q-17 0 -39 5zM703 1236l273 323h52l-277 -323h-48z" />
<glyph unicode="&#xfe;" horiz-adv-x="1120" d="M55 -391l446 1915l46 16l-167 -717q109 133 228 205.5t229 72.5q74 0 130 -23.5t88.5 -65.5t51 -95t21 -117t-4 -126t-21.5 -128q-18 -79 -50.5 -156.5t-81.5 -152.5t-107.5 -132t-135.5 -92t-159 -35q-127 0 -198 74t-115 233l-153 -659zM271 358q17 -74 39.5 -131.5 t57 -107t85.5 -76t116 -26.5q75 0 146 35t125 90t99.5 126t74.5 141.5t44 136.5q17 74 24 142t-0.5 138t-33 120.5t-79.5 82.5t-133 32q-118 0 -246 -88t-226 -218z" />
<glyph unicode="&#xff;" horiz-adv-x="860" d="M0 -422q25 -5 45 -5q64 0 112.5 17.5t87 56.5t63 75.5t59.5 100.5l690 1271h-51l-549 -1021l-111 1021h-44l119 -1082q-6 -10 -45.5 -85.5t-66.5 -122t-50 -77.5q-84 -111 -206 -111q-17 0 -39 5zM489 1363q7 32 31 50.5t56 18.5q29 0 45.5 -20.5t9.5 -48.5 q-7 -30 -32 -49.5t-55 -19.5q-31 0 -46.5 19t-8.5 50zM865 1363q7 32 31 50.5t56 18.5q28 0 44.5 -20.5t10.5 -48.5q-7 -30 -32 -49.5t-55 -19.5q-32 0 -47 19t-8 50z" />
<glyph unicode="&#x152;" horiz-adv-x="1786" d="M260.5 382.5q-4.5 89.5 5 183t32.5 193.5q35 149 101 285t154.5 243t204.5 171t239 64q75 0 226 -18h769l-12 -42h-743l-156 -673h646l-12 -42h-644l-164 -705h754l-12 -42h-771q-42 -11 -117 -19.5t-123 -8.5q-93 0 -164.5 31t-114.5 87t-68.5 129.5t-30 163z M304.5 402.5q3.5 -59.5 14.5 -118.5t37 -107t63 -85t94 -57.5t129 -20.5q119 0 220 22l332 1428q-129 15 -196 15q-108 0 -208.5 -54t-172 -134.5t-131 -181.5t-93.5 -188.5t-51 -161.5q-13 -55 -21.5 -111t-14 -121t-2 -124.5z" />
<glyph unicode="&#x153;" horiz-adv-x="1659" d="M198 378q3 82 24 170q23 102 69.5 198t113 178t158.5 131.5t194 49.5q122 0 192 -62t93 -170q78 114 178.5 173.5t213.5 59.5q92 0 154.5 -39.5t90 -109t29.5 -165.5t-26 -209l-8 -35h-726q-40 -158 -32.5 -276t73.5 -186.5t182 -68.5q198 0 341 153l25 -22 q-76 -86 -162.5 -128t-207.5 -42t-193 61.5t-93 168.5q-164 -229 -380 -229q-81 0 -142 31.5t-96 85.5t-51.5 127t-13.5 155zM241 354.5q0 -92.5 24.5 -168t85 -120.5t150.5 -45q112 0 207.5 67t164.5 176q-9 115 24 256q40 172 112 299q-32 245 -254 245q-79 0 -152 -34 t-126.5 -88t-97.5 -123.5t-71.5 -137t-42.5 -132.5q-24 -102 -24 -194.5zM958 590h684q18 75 23.5 142t-4 129t-35 106.5t-75 71t-119.5 26.5q-89 0 -169.5 -42.5t-139 -112t-100.5 -151.5t-65 -169z" />
<glyph unicode="&#x178;" horiz-adv-x="1008" d="M357 1504h47l221 -853l615 853h52l-655 -908l-139 -596h-44l140 601zM622 1728q7 32 31 50.5t56 18.5q28 0 44.5 -20.5t10.5 -48.5q-7 -30 -32 -49.5t-55 -19.5q-32 0 -47 18.5t-8 50.5zM997 1728q7 32 31 50.5t56 18.5q29 0 45.5 -20.5t9.5 -48.5q-7 -30 -32 -49.5 t-55 -19.5q-31 0 -46.5 18.5t-8.5 50.5z" />
<glyph unicode="&#x2c6;" horiz-adv-x="926" d="M531 1224l304 335h49l149 -335h-50l-133 294l-268 -294h-51z" />
<glyph unicode="&#x2dc;" horiz-adv-x="801" d="M340 1249q14 49 29 86.5t40.5 79.5t63.5 65.5t85 23.5q27 0 55 -15t45.5 -31t45.5 -46q46 -48 66 -64q39 -29 73 -29q59 0 101 62q17 26 33 62q10 22 28 68l43 2q-11 -38 -21.5 -68.5t-30 -68t-41.5 -62t-55 -41.5t-71 -17q-45 0 -80 24t-75 68q-47 52 -63 65 q-36 29 -69 29q-83 0 -140 -133q-11 -23 -25 -61z" />
<glyph unicode="&#x2000;" horiz-adv-x="969" />
<glyph unicode="&#x2001;" horiz-adv-x="1938" />
<glyph unicode="&#x2002;" horiz-adv-x="969" />
<glyph unicode="&#x2003;" horiz-adv-x="1938" />
<glyph unicode="&#x2004;" horiz-adv-x="646" />
<glyph unicode="&#x2005;" horiz-adv-x="484" />
<glyph unicode="&#x2006;" horiz-adv-x="323" />
<glyph unicode="&#x2007;" horiz-adv-x="323" />
<glyph unicode="&#x2008;" horiz-adv-x="242" />
<glyph unicode="&#x2009;" horiz-adv-x="387" />
<glyph unicode="&#x200a;" horiz-adv-x="107" />
<glyph unicode="&#x2010;" d="M255 700l9 40h422l-10 -40h-421z" />
<glyph unicode="&#x2011;" d="M255 700l9 40h422l-10 -40h-421z" />
<glyph unicode="&#x2012;" d="M255 700l9 40h422l-10 -40h-421z" />
<glyph unicode="&#x2013;" horiz-adv-x="1148" d="M255 699l9 40h944l-9 -40h-944z" />
<glyph unicode="&#x2014;" horiz-adv-x="1982" d="M255 701l8 39h1786l-8 -39h-1786z" />
<glyph unicode="&#x2018;" horiz-adv-x="392" d="M337 934l182 573h33l-167 -573h-48z" />
<glyph unicode="&#x2019;" horiz-adv-x="396" d="M369 932l167 573h48l-182 -573h-33z" />
<glyph unicode="&#x201a;" horiz-adv-x="363" d="M79 -337l167 573h48l-182 -573h-33z" />
<glyph unicode="&#x201c;" horiz-adv-x="742" d="M337 934l182 573h33l-167 -573h-48zM687 934l182 573h33l-167 -573h-48z" />
<glyph unicode="&#x201d;" horiz-adv-x="774" d="M369 932l167 573h48l-182 -573h-33zM719 932l167 573h48l-182 -573h-33z" />
<glyph unicode="&#x201e;" horiz-adv-x="713" d="M79 -335l167 573h48l-182 -573h-33zM429 -335l167 573h48l-182 -573h-33z" />
<glyph unicode="&#x2022;" horiz-adv-x="759" d="M341 750q20 87 96.5 150.5t162.5 63.5q87 0 134 -63.5t27 -150.5t-96 -149t-163 -62t-134 62t-27 149z" />
<glyph unicode="&#x2026;" horiz-adv-x="1332" d="M142 43q8 32 32 50.5t56 18.5q28 0 44.5 -20.5t9.5 -48.5q-7 -30 -32 -49.5t-55 -19.5q-31 0 -46.5 19t-8.5 50zM622 43q8 32 32 50.5t56 18.5q28 0 44.5 -20.5t9.5 -48.5q-7 -30 -32 -49.5t-55 -19.5q-31 0 -46.5 19t-8.5 50zM1102 43q8 32 32 50.5t56 18.5 q28 0 44.5 -20.5t9.5 -48.5q-7 -30 -32 -49.5t-55 -19.5q-31 0 -46.5 19t-8.5 50z" />
<glyph unicode="&#x202f;" horiz-adv-x="387" />
<glyph unicode="&#x2030;" horiz-adv-x="2625" d="M350 910q1 78 22 168q44 187 145 315t236 128q68 0 113.5 -36.5t63.5 -99t16.5 -140.5t-21.5 -166q-45 -195 -144.5 -317t-237.5 -122q-68 0 -112.5 35t-63 96t-17.5 139zM395 930q-4 -68 7.5 -125.5t48 -90t95.5 -32.5q62 0 117 31.5t96 87t71 125.5t49 153 q19 81 23 151.5t-8.5 128t-48.5 91t-93 33.5q-78 0 -148 -59.5t-116 -149t-71 -196.5q-18 -80 -22 -148zM571 0l1029 1502h47l-1028 -1502h-48zM1253.5 243q1.5 78 22.5 168q28 120 79.5 217.5t130.5 161t171 63.5q68 0 113 -36.5t63 -99t16.5 -140.5t-21.5 -166 q-45 -194 -144.5 -316.5t-237.5 -122.5q-67 0 -112 35.5t-63.5 96.5t-17 139zM1298 262.5q-4 -68.5 8 -125.5t48 -90t95 -33q122 0 207.5 111.5t126.5 285.5q22 108 23.5 197.5t-37 148t-113.5 58.5q-79 0 -149 -59.5t-116 -148.5t-71 -196q-18 -80 -22 -148.5zM2052 243 q1 78 22 168q44 187 145 314.5t236 127.5q68 0 113.5 -36.5t63.5 -99t16.5 -140.5t-21.5 -166q-45 -194 -144.5 -316.5t-237.5 -122.5q-67 0 -112 35.5t-63.5 96.5t-17.5 139zM2097 262.5q-4 -68.5 8 -125.5t48 -90t95 -33q83 0 151.5 56t112 142t70.5 199 q22 108 23.5 197.5t-37 148t-113.5 58.5q-79 0 -149 -59.5t-116 -148.5t-71 -196q-18 -80 -22 -148.5z" />
<glyph unicode="&#x2039;" horiz-adv-x="598" d="M184 536l481 515h52l-483 -514l252 -537h-53z" />
<glyph unicode="&#x203a;" horiz-adv-x="588" d="M93 0l502 537l-244 514h52l242 -515l-499 -536h-53z" />
<glyph unicode="&#x205f;" horiz-adv-x="484" />
<glyph unicode="&#x20ac;" horiz-adv-x="1136" d="M135 545l17 41l179 -1q12 86 29 155q21 91 46 163h-167l17 41h165q65 172 160.5 299.5t225.5 202.5t277 75q69 0 136 -35t104 -105l-36 -23q-26 46 -66.5 74.5t-74.5 37t-67 8.5q-196 0 -357.5 -147t-256.5 -387h510l-16 -41h-510q-28 -81 -47 -161q-20 -91 -28 -157 l470 -2l-16 -41l-459 2q-14 -156 12.5 -272t106 -187t207.5 -71q84 0 165 23t176 88l15 -31q-163 -123 -357 -123q-109 0 -187.5 43t-121 121t-57.5 180.5t-3 228.5z" />
<glyph unicode="&#x2122;" horiz-adv-x="1505" d="M366 1470l8 36h491l-8 -36h-223l-185 -813h-40l185 813h-228zM869 657l194 849h58l129 -610l407 610h64l-194 -849h-40l185 805l-100 -150l-314 -471h-33l-101 471l-31 148l-184 -803h-40z" />
<glyph unicode="&#x2190;" horiz-adv-x="1246" d="M258 690l564 485l16 -28l-501 -435h974l-10 -43h-976l301 -440l-28 -24z" />
<glyph unicode="&#x2191;" horiz-adv-x="1167" d="M261 704l589 453l380 -451l-30 -24l-347 403l-225 -974h-41l225 974l-529 -403z" />
<glyph unicode="&#x2192;" horiz-adv-x="1245" d="M253 669l10 43h973l-302 435l30 28l341 -485l-565 -485l-18 24l506 440h-975z" />
<glyph unicode="&#x2193;" horiz-adv-x="1168" d="M233 583l29 23l348 -403l226 976h43l-225 -974l526 401l23 -23l-589 -452z" />
<glyph unicode="&#x25fc;" horiz-adv-x="1095" d="M0 0v1095h1095v-1095h-1095z" />
<glyph horiz-adv-x="841" d="M152 -1l8 41h287l197 1010l-368 -137l-4 39l376 141h47l-205 -1053h264l-8 -41h-594z" />
<glyph horiz-adv-x="840" d="M110 -1l5 27q17 89 63 165.5t107 132t131.5 105.5t139.5 93.5t127.5 86t100 94.5t52.5 109q24 114 -32.5 187t-175.5 73q-144 0 -273 -127l-27 27q145 139 309 139q133 0 200 -85t42 -214q-12 -63 -54.5 -119.5t-101 -101.5t-128 -89t-139.5 -92t-130 -99.5t-105 -122 t-61 -150.5h557l-7 -39h-600z" />
<glyph horiz-adv-x="862" d="M86 -11l27 21q80 -129 251 -129q89 0 162 29.5t120.5 79t77.5 108.5t43 125q27 140 -37.5 215t-188.5 75h-78l7 41h80q61 0 112 25t85 66.5t55 87.5t31 94q22 113 -37 179t-175 66q-158 0 -281 -118l-22 20q72 72 154 104.5t156 32.5q56 0 105.5 -18t86.5 -51.5t52.5 -89 t1.5 -123.5q-7 -39 -20.5 -75.5t-39 -79t-70 -78t-103.5 -56.5l-1 -4q103 -26 147.5 -112.5t22.5 -200.5q-34 -175 -157.5 -279t-295.5 -104q-85 0 -158 36.5t-113 112.5z" />
<glyph horiz-adv-x="940" d="M68 163l8 41l789 889h43l-174 -891h154l-7 -39h-154l-62 -313h-43l62 313h-616zM120 202h571l162 821q-38 -41 -342 -383.5t-391 -437.5z" />
<glyph horiz-adv-x="904" d="M115 -9l31 25q82 -135 235 -135q83 0 154 31.5t118.5 83.5t77.5 110.5t43 120.5q32 164 -27.5 255t-178.5 91q-123 0 -266 -84l-41 16l149 588h500l-7 -39h-461l-137 -528q132 86 270 86q134 0 206.5 -100t37.5 -283q-35 -176 -161 -282.5t-286 -106.5q-80 0 -148.5 37.5 t-108.5 113.5z" />
<glyph horiz-adv-x="914" d="M165.5 213q4.5 79 22.5 172q23 113 52.5 211.5t76 196.5t103 166.5t135.5 111.5t170 43q66 0 120 -30t87 -81l-29 -18q-74 88 -188 88q-349 0 -488 -698q4 -2 6 -2q43 64 97.5 109.5t106 66.5t90.5 29.5t71 8.5q158 0 230.5 -96t39.5 -268q-36 -179 -153 -284t-275 -105 q-80 0 -136.5 29t-87 79t-43 121t-8 150zM216 246q-31 -161 32.5 -266t201.5 -105q148 0 246 96.5t129 249.5q30 158 -31.5 243t-200.5 85q-78 0 -158 -38.5t-141 -109t-78 -155.5z" />
<glyph horiz-adv-x="746" d="M165 -287q343 615 654 1200h-565l7 39h600l-10 -55q-163 -327 -645 -1184h-41z" />
<glyph horiz-adv-x="968" d="M146 170q13 73 53 143.5t111.5 127t156.5 67.5l1 4q-52 11 -88 43.5t-50 73t-18.5 86t6.5 83.5q26 141 136 227.5t247 86.5t211.5 -84.5t48.5 -225.5q-19 -89 -85.5 -174t-175.5 -116l-1 -2q75 -15 124 -71.5t64 -127t2 -141.5q-32 -156 -155 -248t-285 -92 q-161 0 -248.5 90.5t-54.5 249.5zM184 172q-16 -81 2.5 -142t61.5 -94.5t96 -50t114 -16.5q56 0 113.5 15.5t114.5 48t100 93.5t59 142q15 83 1 143.5t-53.5 100t-94 58.5t-121.5 19q-141 0 -250.5 -79.5t-142.5 -237.5zM361 798q-27 -135 38.5 -201.5t187.5 -66.5 q118 0 211.5 71.5t119.5 200.5q24 132 -45 201.5t-179 69.5q-112 0 -210 -72t-123 -203z" />
<glyph horiz-adv-x="905" d="M128 -209l39 23q77 -78 195 -78q68 0 127 27.5t105 79.5t83.5 116.5t67.5 150t52 167.5t41 180l-11 2q-31 -53 -72.5 -93t-79.5 -61.5t-79.5 -35t-69 -17.5t-50.5 -4q-158 0 -229.5 98.5t-39.5 261.5q30 156 149.5 259t265.5 103q115 0 185 -65.5t85 -174t-9 -249.5 q-22 -110 -45.5 -200t-56.5 -183t-74 -162.5t-92.5 -125t-118.5 -84.5t-145 -29q-136 0 -223 94zM247 606q-30 -148 34.5 -232.5t201.5 -84.5q115 0 225.5 83t135.5 211q31 155 -37 251.5t-192 96.5q-129 0 -234.5 -89.5t-133.5 -235.5z" />
<glyph horiz-adv-x="984" d="M185.5 381q1.5 80 17.5 163q16 82 44.5 160.5t73.5 153t100 130t129.5 89.5t156.5 34q86 0 148 -33.5t95.5 -88.5t48 -130t11.5 -153t-19 -162q-21 -109 -64.5 -208.5t-106 -181.5t-149.5 -130.5t-186 -48.5q-80 0 -140 33.5t-94 89t-50.5 129.5t-15 154zM230.5 396 q-2.5 -73 11.5 -143t43 -122.5t82 -84.5t125 -32q74 0 141.5 32.5t116.5 85.5t89.5 123.5t66 142.5t40.5 146q15 75 19 144.5t-7 141t-38.5 124t-83.5 85.5t-136 33q-78 0 -147.5 -35.5t-118.5 -91t-88 -127.5t-62 -140t-36 -134q-15 -75 -17.5 -148z" />
</font>
</defs>
</svg>
