<?xml version="1.0" standalone="no"?>
<!DOCTYPE svg PUBLIC "-//W3C//DTD SVG 1.1//EN" "http://www.w3.org/Graphics/SVG/1.1/DTD/svg11.dtd" >
<svg xmlns="http://www.w3.org/2000/svg">
<metadata></metadata>
<defs>
<font id="madrasextra_bold" horiz-adv-x="1401" >
<font-face units-per-em="2048" ascent="1628" descent="-420" />
<missing-glyph horiz-adv-x="488" />
<glyph unicode="&#xfb00;" horiz-adv-x="1308" d="M11 889v203h169v141q0 145 88 234t234 89q73 0 203 -39l-42 -199q-86 21 -146 21q-45 0 -66 -24.5t-21 -78.5l1 -144h370v141q0 145 87.5 234t232.5 89q75 0 205 -39l-42 -199q-88 21 -147 21q-46 0 -67 -24.5t-21 -78.5l1 -144h215v-203h-215v-889h-249v889h-370v-889 h-251v889h-169z" />
<glyph unicode="&#xfb01;" horiz-adv-x="1226" d="M11 890h169v-890h250v890h411l-2 -890h249v1092h-658l-1 144q0 54 21 78.5t66 24.5q64 0 147 -20l42 199q-134 39 -204 39q-146 0 -233.5 -89t-87.5 -234v-142h-169v-202zM788 1431q0 71 52 121.5t120 50.5t120 -50.5t52 -121.5t-52 -121.5t-120 -50.5t-120 50.5 t-52 121.5z" />
<glyph unicode="&#xfb02;" horiz-adv-x="1240" d="M12 889v203h164v47q0 193 111.5 305.5t313.5 112.5q434 0 434 -418v-858q0 -87 71 -87q9 0 102 13l33 -185q-109 -36 -159 -36q-157 0 -226.5 72t-69.5 223v868q0 107 -43 152t-143 45q-83 0 -126.5 -53.5t-42.5 -146.5l1 -54h202v-202l-202 -1v-889h-256v889h-164z" />
<glyph unicode="&#xfb03;" horiz-adv-x="1815" d="M11 890v202h169v112q0 145 87.5 233.5t233.5 88.5q74 0 204 -38l-42 -199q-87 20 -147 20q-45 0 -66 -24.5t-21 -78.5l1 -114h370v142q0 145 87.5 233.5t233.5 88.5q74 0 204 -38l-42 -199q-87 20 -147 20q-45 0 -66 -24.5t-21 -78.5l1 -144h627v-1092h-249l2 890h-380 v-890h-250v889h-169l-201 1v-890h-250v890h-169zM1377 1430q0 71 52 122t120 51t120 -51t52 -122t-52 -121.5t-120 -50.5t-120 50.5t-52 121.5z" />
<glyph unicode="&#xfb04;" horiz-adv-x="1854" d="M6 890v202h169v143q0 144 87.5 232.5t233.5 88.5q73 0 204 -37l-42 -199q-86 19 -147 19q-45 0 -66 -24t-21 -78l1 -145h365v47q0 193 111.5 305t313.5 112q434 0 434 -417v-858q0 -87 71 -87q9 0 102 13l33 -185q-106 -35 -159 -35q-158 0 -227 71.5t-69 222.5v868 q0 107 -43 152t-143 45q-83 0 -126.5 -53.5t-42.5 -146.5l1 -54h202v-202l-202 -1v-890h-256v890l-365 1v-890h-250v890h-169z" />
<glyph unicode="ft" horiz-adv-x="1380" d="M11 890v202h169v142q0 145 87.5 233.5t233.5 88.5q74 0 204 -38l-42 -199q-87 20 -147 20q-45 0 -66 -24.5t-21 -78.5l1 -144h447v237l246 92v-329h231v-203h-231v-603q0 -46 20.5 -71t71.5 -25q9 0 99 14l30 -184q-102 -35 -164 -35q-75 0 -131 16.5t-89.5 43t-54 66 t-27.5 78.5t-7 88v612l-441 1v-890h-250v890h-169z" />
<glyph horiz-adv-x="0" />
<glyph horiz-adv-x="682" />
<glyph unicode=" "  horiz-adv-x="488" />
<glyph unicode="&#x09;" horiz-adv-x="488" />
<glyph unicode="&#xa0;" horiz-adv-x="488" />
<glyph unicode="!" horiz-adv-x="629" d="M130 162q0 76 54 130t130 54t130 -54t54 -130t-54 -130t-130 -54t-130 54t-54 130zM175 745v759h274v-759l-13 -236h-249z" />
<glyph unicode="&#x22;" horiz-adv-x="994" d="M153 1505h256l-44 -703h-167zM585 1505h256l-44 -703h-167z" />
<glyph unicode="#" horiz-adv-x="1462" d="M115 363v203h245v380h-245v203h245v356h225v-356h293v356h224v-356h245v-203h-245v-380h245v-203h-245v-363h-224v363h-293v-363h-225v363h-245zM585 566h293v380h-293v-380z" />
<glyph unicode="$" horiz-adv-x="1259" d="M91 262l211 135q68 -93 149.5 -137.5t194.5 -44.5q104 0 165.5 54.5t61.5 156.5q0 46 -24 80.5t-65 57t-94 40.5t-111.5 36t-117 39t-111.5 54.5t-94 77.5t-65 112.5t-24 155.5q0 167 91.5 284t253.5 150v221h241l1 -223q217 -47 353 -255l-201 -141q-116 165 -283 165 q-89 0 -139 -58t-50 -148q0 -45 24 -78.5t65 -54.5t94 -38t111 -34t116.5 -37.5t111.5 -53t94 -76.5t65 -113t24 -157q0 -182 -102.5 -300.5t-282.5 -149.5l-1 -219h-241v219q-264 42 -421 280z" />
<glyph unicode="%" horiz-adv-x="2056" d="M111 1056q0 67 10.5 130t36.5 125t64.5 107.5t99.5 74t136 28.5t134.5 -28t97.5 -73.5t63 -106.5t35 -123t10 -128q0 -67 -10.5 -130.5t-35.5 -125.5t-63.5 -108t-99 -74.5t-136.5 -28.5q-74 0 -134 28.5t-98 74.5t-63.5 107t-36 123.5t-10.5 127.5zM316 1056 q0 -132 40.5 -204.5t100.5 -72.5q56 0 95.5 74t39.5 205q0 136 -39 208t-96 72q-58 0 -99.5 -75t-41.5 -207zM569 0l730 1503h202l-731 -1503h-201zM1258 434q0 67 10.5 130t36.5 124.5t64.5 107.5t99 74t135.5 28q93 0 162 -41.5t106.5 -111t55 -146t17.5 -159.5 q0 -67 -10.5 -130.5t-36 -126t-63.5 -108.5t-99 -74.5t-137 -28.5q-74 0 -133.5 28.5t-97.5 74.5t-63.5 108t-36 124t-10.5 127zM1463 434q0 -132 40.5 -205t99.5 -73q57 0 96.5 74t39.5 206q0 135 -39 207t-97 72q-57 0 -98.5 -74.5t-41.5 -206.5z" />
<glyph unicode="&#x26;" horiz-adv-x="1468" d="M113 401q0 61 17.5 117.5t45.5 101t70 86.5t82.5 73t91.5 63q-70 101 -88 133q-55 102 -55 214q0 103 56.5 180.5t142.5 115t184 37.5q49 0 98.5 -11.5t104.5 -38t108 -78t95 -123.5l-194 -133q-39 61 -81 95t-71 42t-64 8q-112 0 -112 -105q0 -77 74 -176q22 -30 48 -63 l313 -394q23 57 46 145.5t28 161.5l208 -55q-31 -204 -140 -435l284 -362h-322q-106 136 -118 151q-90 -85 -177.5 -131.5t-201.5 -46.5q-132 0 -238 49t-170.5 147.5t-64.5 231.5zM371 395q0 -75 65.5 -131.5t148.5 -56.5q161 0 254 102q-45 58 -144.5 186t-145.5 186 q-93 -61 -135.5 -130.5t-42.5 -155.5z" />
<glyph unicode="'" horiz-adv-x="558" d="M151 1505h256l-44 -713h-167z" />
<glyph unicode="(" horiz-adv-x="674" d="M116 589q0 495 358 958l110 -116q-121 -189 -190.5 -407t-69.5 -426q0 -372 252 -793l-111 -117q-51 73 -79.5 115t-71 111t-66.5 118t-53 119.5t-43.5 134t-25 142t-10.5 161.5z" />
<glyph unicode=")" horiz-adv-x="674" d="M90 1431l110 116q358 -464 358 -939q0 -111 -19 -217t-48.5 -192.5t-78 -181t-93.5 -166t-110 -163.5l-111 116q252 423 252 785q0 208 -70 430.5t-190 411.5z" />
<glyph unicode="*" horiz-adv-x="745" d="M49 1217v122l220 -15l-138 216l111 64l102 -224l98 221l115 -64l-136 -212l219 14v-122l-221 15l138 -218l-115 -62l-98 223l-100 -225l-111 66l136 216z" />
<glyph unicode="+" horiz-adv-x="1145" d="M101 601v195h376v398h201v-398h366v-195h-366v-403h-201v403h-376z" />
<glyph unicode="," horiz-adv-x="536" d="M111 -288l26 543h283l-153 -543h-156z" />
<glyph unicode="-" horiz-adv-x="737" d="M93 613v225h551v-225h-551z" />
<glyph unicode="." horiz-adv-x="574" d="M103 162q0 76 54 130t130 54t130 -54t54 -130t-54 -130t-130 -54t-130 54t-54 130z" />
<glyph unicode="/" horiz-adv-x="847" d="M45 -171l571 1781h186l-569 -1781h-188z" />
<glyph unicode="0" horiz-adv-x="1247" d="M89 749q0 64 5 127t20 141.5t39 146.5t66 135.5t96.5 114.5t135 76.5t177.5 29.5q94 0 172 -29t131.5 -77t95 -115t66 -136.5t39.5 -149t20.5 -145t5.5 -131.5q0 -61 -5.5 -123.5t-21 -140t-39.5 -146t-66 -135t-96 -114.5t-133 -77.5t-173 -29.5q-99 0 -180.5 30 t-136 77.5t-95.5 116t-64 136.5t-37 149t-18 142.5t-4 126.5zM352 730q0 -247 68.5 -383.5t206.5 -136.5q125 0 197 148.5t72 381.5q0 244 -72.5 393.5t-198.5 149.5q-135 0 -204 -146t-69 -407z" />
<glyph unicode="1" horiz-adv-x="1063" d="M78 1351l435 153h177v-1263h288v-241h-856v241h311v983l-295 -101z" />
<glyph unicode="2" horiz-adv-x="1205" d="M100 0v125q0 87 22.5 166t57 139t88 118t102 98.5t112.5 85.5q24 17 118.5 80t134.5 96q106 84 106 160q0 97 -63.5 153.5t-166.5 56.5q-100 0 -170.5 -42t-137.5 -141l-198 141q178 285 502 285q140 0 251 -54t175.5 -158t64.5 -241q0 -63 -22 -122.5t-52 -102.5 t-83.5 -91t-93.5 -77t-105 -73q-88 -58 -130 -87q-69 -47 -115 -91q-97 -88 -122 -182h710v-242h-985z" />
<glyph unicode="3" horiz-adv-x="1220" d="M80 257l188 143q36 -58 74.5 -96.5t79 -57t76 -25t79.5 -6.5q145 0 221.5 66t76.5 180q0 109 -66 165.5t-187 56.5h-190v232h192q103 0 143.5 43.5t40.5 136.5q0 72 -58.5 128.5t-160.5 56.5q-43 0 -73.5 -5t-70.5 -20.5t-78 -51.5t-76 -93l-186 140q162 271 479 271 q90 0 175 -27.5t154 -79t111 -134.5t42 -184q0 -86 -33 -154.5t-105 -131.5v-3q106 -52 156 -134.5t50 -212.5q0 -103 -31.5 -186t-84.5 -139t-126 -93.5t-154 -54t-170 -16.5q-331 0 -488 286z" />
<glyph unicode="4" horiz-adv-x="1298" d="M33 325v177q494 640 596 777q72 97 177 225h195v-966h216v-213h-216v-325h-258v325h-710zM348 537q43 1 395 1v519q-332 -441 -395 -520z" />
<glyph unicode="5" horiz-adv-x="1265" d="M108 277l200 142q133 -203 334 -203q106 0 178.5 81t72.5 192q0 106 -71.5 180t-177.5 74q-68 0 -130 -23.5t-151 -101.5l-186 68l53 817h847v-242h-611l-22 -338l7 -4q47 29 109.5 46.5t113.5 17.5q209 0 342.5 -141.5t133.5 -351.5q0 -141 -65 -259t-183.5 -188.5 t-264.5 -70.5q-156 0 -296.5 76t-232.5 229z" />
<glyph unicode="6" horiz-adv-x="1235" d="M103 648q0 92 5.5 172.5t21.5 171.5t42.5 165t70.5 143.5t102.5 116.5t143 75.5t187.5 28.5q264 0 423 -236l-196 -134q-103 127 -230 127q-68 0 -122 -30.5t-87 -76t-56 -110.5t-33.5 -121.5t-15.5 -120.5q165 158 331 158q211 0 338 -137.5t127 -350.5 q0 -230 -148 -372t-379 -142q-111 0 -201.5 38.5t-149.5 102.5t-99 151.5t-57.5 182.5t-17.5 198zM378 491q0 -122 71.5 -198.5t191.5 -76.5q118 0 186.5 73t68.5 192q0 125 -68.5 188t-194.5 63q-107 0 -181 -67.5t-74 -173.5z" />
<glyph unicode="7" horiz-adv-x="1117" d="M68 1264v240h985v-184q-5 -8 -58 -81.5t-113.5 -168.5t-114.5 -197q-232 -437 -232 -873h-256q0 524 328 1084q53 89 137 180h-676z" />
<glyph unicode="8" horiz-adv-x="1311" d="M102 432q0 115 72.5 212t185.5 152q-89 46 -144 125.5t-55 170.5q0 186 134.5 305t362.5 119q227 0 361 -117t134 -303q0 -92 -56 -169.5t-145 -124.5q119 -57 188.5 -152.5t69.5 -213.5q0 -218 -152.5 -341.5t-399.5 -123.5q-248 0 -402 122.5t-154 338.5zM364 436 q0 -99 72 -162.5t222 -63.5q151 0 221.5 61t70.5 161q0 97 -77 167t-217 70q-142 0 -217 -67t-75 -166zM423 1093q0 -79 61.5 -135t173.5 -56q107 0 170 59.5t63 136.5q0 36 -11 67.5t-36 60t-72.5 45t-113.5 16.5q-65 0 -113 -17.5t-73.5 -46.5t-37 -61.5t-11.5 -68.5z" />
<glyph unicode="9" horiz-adv-x="1236" d="M80 1007q0 229 148 371.5t378 142.5q111 0 201.5 -38.5t150 -102.5t99.5 -151.5t57.5 -182.5t17.5 -198q0 -92 -5.5 -172.5t-21.5 -171.5t-42.5 -165t-70.5 -143.5t-103 -116.5t-143.5 -75.5t-187.5 -28.5q-263 0 -423 236l197 134q45 -57 105 -92t125 -35q68 0 122 30.5 t87 76t56 110.5t33.5 121.5t15.5 120.5q-163 -158 -331 -158q-211 0 -338 137.5t-127 350.5zM338 1014q0 -125 69 -188t195 -63q106 0 180.5 68t74.5 174q0 121 -71.5 197.5t-191.5 76.5q-119 0 -187.5 -72.5t-68.5 -192.5z" />
<glyph unicode=":" horiz-adv-x="574" d="M103 162q0 76 54 130t130 54t130 -54t54 -130t-54 -130t-130 -54t-130 54t-54 130zM103 955q0 76 54 130t130 54t130 -54t54 -130t-54 -130t-130 -54t-130 54t-54 130z" />
<glyph unicode=";" horiz-adv-x="568" d="M97 955q0 76 54 130t130 54t130 -54t54 -130t-54 -130t-130 -54t-130 54t-54 130zM117 -288l25 543h284l-154 -543h-155z" />
<glyph unicode="&#x3c;" horiz-adv-x="830" d="M105 606v162l597 570v-288l-392 -362l392 -362v-292z" />
<glyph unicode="=" horiz-adv-x="1172" d="M149 397v181h874v-181h-874zM149 802v183h874v-183h-874z" />
<glyph unicode="&#x3e;" horiz-adv-x="830" d="M128 34v292l392 362l-392 362v288l597 -570v-162z" />
<glyph unicode="?" horiz-adv-x="1061" d="M80 1286q72 116 187 177t234 61q89 0 165.5 -21t138 -63t97 -112t35.5 -160q0 -93 -40.5 -165.5t-112.5 -149.5q-11 -12 -31 -34t-23 -26q-91 -101 -99 -178q-6 -48 -6 -126h-272v112q0 94 43 172t119 165q84 95 106 125q44 61 44 106q0 59 -41 89.5t-112 30.5 q-134 0 -226 -136zM303 162q0 76 54 130t130 54t130 -54t54 -130t-54 -130t-130 -54q-77 0 -130.5 54t-53.5 130z" />
<glyph unicode="@" horiz-adv-x="1686" d="M105 740q0 163 49 304.5t139.5 248t229.5 168t309 61.5q178 0 320.5 -56.5t236 -158t143 -242t49.5 -309.5q0 -75 -20.5 -148.5t-60.5 -137.5t-107 -104t-151 -40q-78 0 -133.5 31.5t-91.5 105.5l-4 -1q-101 -143 -258 -143q-123 0 -202 79t-79 199q0 298 513 301 q0 101 -28.5 134.5t-127.5 33.5q-102 0 -215 -80l-82 120q59 55 137.5 86t152.5 31q88 0 149 -19t96.5 -49.5t55 -84.5t25.5 -109t6 -137v-274q0 -85 87 -85q47 0 82 28t54 73t27.5 92t8.5 95q0 286 -149 452t-434 166q-135 0 -242.5 -48t-177 -132t-106 -196t-36.5 -242 q0 -138 34 -251t101.5 -197.5t176.5 -130.5t252 -46q172 0 282 79l98 -116q-134 -119 -374 -119q-357 0 -546 207t-189 561zM643 599q0 -59 36.5 -93t98.5 -34q65 0 119.5 42t90.5 107v140h-18q-327 0 -327 -162z" />
<glyph unicode="A" d="M9 0l571 1504h244l569 -1504h-294l-123 326h-574l-122 -326h-271zM486 566h411q-132 380 -204 611h-3q-22 -73 -73 -226t-91 -269z" />
<glyph unicode="B" horiz-adv-x="1341" d="M163 0v1504h489q101 0 189 -24t160.5 -73t114 -133t41.5 -195q0 -88 -32 -150t-106 -123q239 -93 239 -343q0 -128 -36.5 -219t-107.5 -144t-164.5 -76.5t-218.5 -23.5h-568zM421 244h295q146 0 211 48.5t65 166.5q0 97 -63.5 151.5t-187.5 54.5h-320v-421zM421 900h273 q94 0 145.5 46t51.5 126q0 87 -61 140.5t-177 53.5h-232v-366z" />
<glyph unicode="C" horiz-adv-x="1346" d="M103 740q0 122 22.5 234t72.5 212.5t122.5 174t179 117t236.5 43.5q49 0 96.5 -7.5t104 -27.5t107.5 -51.5t104.5 -84t97.5 -121.5l-207 -145q-42 59 -85.5 98t-84 56.5t-71.5 23.5t-67 6q-159 0 -256 -144.5t-97 -381.5q0 -227 101.5 -373t248.5 -146q96 0 178.5 42 t159.5 158l207 -144q-183 -308 -529 -308q-130 0 -238.5 44t-181.5 118t-124 173.5t-74 208.5t-23 225z" />
<glyph unicode="D" horiz-adv-x="1430" d="M162 0v1504h364q148 0 270.5 -25.5t226 -83t175 -145t111.5 -217t40 -293.5q0 -211 -84 -379t-241.5 -264.5t-362.5 -96.5h-499zM430 249h189q81 0 160.5 31t147.5 88t110 150t42 206q0 279 -135.5 405t-409.5 126h-104v-1006z" />
<glyph unicode="E" horiz-adv-x="1235" d="M163 0v1504h981l-15 -243h-701v-378h621l-16 -236h-605v-398h724l-14 -249h-975z" />
<glyph unicode="F" horiz-adv-x="1170" d="M163 0v1504h956l-14 -250h-675v-376h621l-14 -244h-607v-634h-267z" />
<glyph unicode="G" horiz-adv-x="1428" d="M105 753q0 111 19.5 215t67.5 206.5t120.5 178.5t187 123t258.5 47q344 0 531 -307l-207 -146q-78 116 -160 158t-178 42q-94 0 -166.5 -43t-114.5 -116.5t-63 -164t-21 -193.5q0 -247 91 -388t270 -141q86 0 168 51.5t144 133.5v160h-308v223h565l1 -793h-219l-11 145 q-172 -172 -368 -172q-135 0 -241 43t-173.5 114.5t-112 173.5t-62.5 212.5t-18 237.5z" />
<glyph unicode="H" horiz-adv-x="1392" d="M163 0v1504h267v-612h533v612h266v-1504h-266v641h-533v-641h-267z" />
<glyph unicode="I" horiz-adv-x="608" d="M163 0v1504h282v-1504h-282z" />
<glyph unicode="J" horiz-adv-x="925" d="M-2 17l52 232q147 -30 203 -30q150 0 205 68.5t55 237.5v979h265l1 -1009q0 -259 -117 -390t-375 -131q-128 0 -289 43z" />
<glyph unicode="K" horiz-adv-x="1332" d="M163 0v1504h266v-615q28 39 68.5 88t50.5 59l144 163l269 304h347l-560 -619l583 -884h-328l-444 704l-129 -133l-1 -571h-266z" />
<glyph unicode="L" horiz-adv-x="1142" d="M163 0v1504h271l-1 -1250h680l-14 -254h-936z" />
<glyph unicode="M" horiz-adv-x="1678" d="M162 0v1504h268l409 -816l404 816h271v-1504h-263v1017h-7q-13 -48 -63.5 -169.5t-64.5 -150.5l-189 -412h-177q-180 394 -191 421q-94 220 -126 313h-7v-1019h-264z" />
<glyph unicode="N" horiz-adv-x="1419" d="M163 0v1504h225l315 -506q39 -62 92 -146.5t72.5 -116t51.5 -87t70 -125.5h3q-1 140 -1 981h265v-1504h-220q-321 513 -338 541q-187 301 -266 451h-3v-116v-876h-266z" />
<glyph unicode="O" horiz-adv-x="1437" d="M103 755q0 112 22.5 219.5t71.5 207t119.5 175t174 120.5t227.5 45q122 0 224.5 -43t173.5 -116t121 -171.5t73.5 -209t23.5 -227.5q0 -69 -8 -139t-28 -148.5t-50.5 -148t-79.5 -134.5t-111 -111.5t-149 -74t-189 -27.5q-99 0 -184 26t-147 70t-111.5 106t-81.5 131 t-53 147.5t-30 153t-9 149.5zM379 753q0 -72 10 -142t35.5 -141t63 -124.5t97 -87t134.5 -33.5q58 0 106.5 19.5t82.5 52t61 77.5t43.5 92t27 100t14.5 98.5t4 88.5q0 66 -11 135t-37.5 138.5t-64.5 124t-97 88.5t-130 34q-62 0 -114 -25t-88 -67t-63.5 -95t-43 -112.5 t-23 -114.5t-7.5 -106z" />
<glyph unicode="P" horiz-adv-x="1225" d="M163 0v1504h431q120 0 215 -25t170.5 -79t116.5 -148t41 -224q0 -220 -139.5 -343.5t-364.5 -123.5h-205v-561h-265zM428 803h203q105 0 173 57t68 159q0 128 -62.5 187.5t-189.5 59.5h-192v-463z" />
<glyph unicode="Q" horiz-adv-x="1437" d="M103 755q0 112 22.5 219.5t71.5 207t119.5 175t174 120.5t227.5 45q122 0 224.5 -43t173.5 -116t121 -171.5t73.5 -209t23.5 -227.5q0 -152 -41.5 -308t-132.5 -272l144 -220l-166 -131l-139 213q-125 -65 -280 -65q-101 0 -186.5 26t-148 70t-111.5 106t-80.5 131 t-52 147.5t-29 152.5t-8.5 150zM379 753q0 -72 10 -142.5t35.5 -142t63 -125t97 -87.5t134.5 -34q77 0 138 33l-161 248l165 130q7 -12 26.5 -41.5t52 -78.5t58.5 -90q60 140 60 330q0 66 -11 135t-37.5 138.5t-64.5 124t-97 88.5t-130 34q-62 0 -114 -25t-88 -67t-63.5 -95 t-43 -112.5t-23 -114.5t-7.5 -106z" />
<glyph unicode="R" horiz-adv-x="1319" d="M163 0v1504h462q120 0 216.5 -25t172.5 -79t117.5 -146t41.5 -218q0 -143 -70 -249.5t-195 -160.5l399 -626h-322l-337 584h-218v-584h-267zM430 816h233q104 0 173.5 58.5t69.5 153.5q0 116 -64 177.5t-190 61.5h-222v-451z" />
<glyph unicode="S" horiz-adv-x="1170" d="M54 262l211 135q71 -97 153.5 -139.5t190.5 -42.5q106 0 166.5 55t60.5 156q0 91 -96 142q-36 19 -109 44q-11 3 -57.5 17.5t-72.5 22.5q-63 20 -108.5 39.5t-98.5 55t-86 78t-55.5 108t-22.5 146.5q0 201 127 323t334 122q304 0 479 -268l-201 -141q-116 165 -283 165 q-89 0 -139 -57.5t-50 -148.5q0 -90 96 -137q39 -21 108 -41q24 -8 70.5 -21t59.5 -17q51 -16 90 -31.5t85 -39.5t78.5 -56t60.5 -74t42.5 -99t14.5 -126q0 -145 -66 -250.5t-179.5 -157.5t-260.5 -52q-351 0 -542 290z" />
<glyph unicode="T" horiz-adv-x="1092" d="M27 1256v248h1038v-248h-380v-1256h-271v1256h-387z" />
<glyph unicode="U" horiz-adv-x="1379" d="M144 557v947h268v-949q0 -336 273 -336q87 0 145.5 25.5t88 75t40.5 105t11 132.5l1 947l264 -1v-947q0 -88 -15 -167t-54 -157t-99.5 -134t-158.5 -91t-223 -35q-126 0 -223 35.5t-156 91.5t-96.5 135t-51.5 157t-14 166z" />
<glyph unicode="V" horiz-adv-x="1286" d="M5 1504h285q258 -777 278 -839q29 -89 71 -274h9q13 48 83 274l277 839h274l-514 -1504h-245z" />
<glyph unicode="W" horiz-adv-x="1796" d="M5 1504h286l208 -859q44 -176 55 -269l6 1q3 22 11.5 83.5t15 109t10.5 70.5l92 496q15 83 36 175t35 143l13 50h250q49 -181 90 -368q24 -104 47.5 -223t37 -191.5t15.5 -80.5q27 -100 45 -241h7q11 93 43 240l208 864h270l-405 -1504h-281q-155 776 -166 831 q-14 65 -32 249h-8q-9 -112 -37 -245l-177 -835h-274z" />
<glyph unicode="X" horiz-adv-x="1308" d="M2 0l509 808l-479 696h330q196 -324 222 -366q48 -78 70 -115q39 68 66 110l223 371h322l-468 -686l511 -818h-321q-275 482 -294 515q-16 27 -37 71q-5 -10 -19 -37t-19 -35l-295 -514h-321z" />
<glyph unicode="Y" horiz-adv-x="1292" d="M10 1504h309q248 -486 277 -538q9 -17 30.5 -67.5t24.5 -57.5q5 11 25 59t28 63l281 541h297l-502 -912v-592h-266v590z" />
<glyph unicode="Z" horiz-adv-x="1257" d="M91 0v203q599 854 626 895q3 5 55 77t67 91q-25 0 -289 -1t-278 -1h-152l18 240h1020v-204q-12 -16 -308 -440t-429 -616q195 2 757 2l-14 -246h-1073z" />
<glyph unicode="[" horiz-adv-x="740" d="M178 -296v1820h446v-176h-253v-1467h253v-177h-446z" />
<glyph unicode="\" horiz-adv-x="847" d="M45 1610h186l571 -1781h-188z" />
<glyph unicode="]" horiz-adv-x="740" d="M116 -119h253v1467h-253v176h446v-1820h-446v177z" />
<glyph unicode="^" horiz-adv-x="1200" d="M86 862l441 641h149l438 -641h-262l-253 409l-252 -409h-261z" />
<glyph unicode="_" horiz-adv-x="1003" d="M-5 -159h1013v-184h-1013v184z" />
<glyph unicode="`" horiz-adv-x="524" d="M-62 1560h296l242 -345h-198z" />
<glyph unicode="a" horiz-adv-x="1047" d="M71 330q0 57 14 104t36 81.5t59 62t71.5 45t85.5 30.5t90 19.5t96.5 10.5t92.5 5t89 1q0 112 -34.5 156t-137.5 44q-71 0 -133.5 -22t-139.5 -74l-123 172q153 146 387 146q83 0 148 -16t110 -41.5t77 -67.5t50 -84.5t28 -103t13 -112.5t3 -123v-563h-209 q-10 118 -10 142q-68 -72 -152.5 -121.5t-172.5 -49.5q-158 0 -248 100.5t-90 258.5zM321 331q0 -70 37 -107t108 -37q68 0 135 46t105 110v177h-49t-53 -2t-57.5 -5t-55.5 -9.5t-54 -16t-45 -24t-38 -32.5t-23.5 -43.5t-9.5 -56.5z" />
<glyph unicode="b" horiz-adv-x="1223" d="M134 0v1484l250 93v-619q156 153 338 153q93 0 167 -35.5t120 -92t76.5 -132.5t42.5 -152t12 -155q0 -107 -28 -207t-81 -183t-141.5 -133.5t-199.5 -50.5q-96 0 -171.5 45t-151.5 127l-10 -142h-223zM386 398q36 -83 105 -137t154 -54q75 0 131.5 55.5t81.5 132 t25 156.5q0 65 -12.5 120.5t-39 102t-74 73t-112.5 26.5q-84 0 -152 -44.5t-107 -121.5v-309z" />
<glyph unicode="c" horiz-adv-x="1062" d="M80 536q0 116 29 216.5t88 182t159.5 128.5t231.5 47q127 0 230 -60.5t172 -176.5l-196 -133q-87 138 -216 138q-62 0 -110 -30.5t-75 -81t-40.5 -109t-13.5 -120.5q0 -61 14.5 -118.5t43 -106.5t76 -78.5t107.5 -29.5q70 0 122 34.5t101 113.5l197 -133 q-69 -122 -174.5 -185t-237.5 -63q-103 0 -188.5 30t-144 82.5t-98.5 124.5t-58.5 154.5t-18.5 173.5z" />
<glyph unicode="d" horiz-adv-x="1224" d="M79 515q0 82 13.5 161.5t48 159.5t86 140t134.5 97.5t188 37.5q154 0 293 -144v517l250 93v-1577h-222l-10 148q-78 -88 -157.5 -132.5t-178.5 -44.5q-94 0 -171 33.5t-127 87.5t-84 126t-48.5 146.5t-14.5 150.5zM344 532q0 -82 22.5 -153t76.5 -122t132 -51 q88 0 158 52.5t109 137.5v310q-38 75 -106 120.5t-150 45.5q-66 0 -114.5 -28.5t-75.5 -78.5t-39.5 -108t-12.5 -125z" />
<glyph unicode="e" horiz-adv-x="1119" d="M79 516q0 174 55 306.5t170 211t278 78.5q99 0 178 -33.5t129.5 -87.5t84.5 -127.5t48 -149.5t14 -157q0 -7 -0.5 -14.5t-2 -26.5t-3.5 -42h-704q4 -131 64.5 -208t172.5 -77q86 0 153.5 34.5t126.5 127.5l184 -122q-85 -144 -192 -201t-281 -57q-99 0 -180.5 33t-135 87 t-90.5 126t-53 147t-16 152zM338 649h451q-11 109 -66 175t-154 66q-93 0 -153.5 -69t-77.5 -172z" />
<glyph unicode="f" horiz-adv-x="687" d="M11 890v202h169v142q0 145 87.5 233.5t233.5 88.5q74 0 204 -38l-42 -199q-87 20 -147 20q-45 0 -66 -24.5t-21 -78.5l1 -144h214v-203l-214 1v-890h-250v890h-169z" />
<glyph unicode="g" horiz-adv-x="1217" d="M81 498q0 85 15.5 168.5t51 164.5t87.5 142.5t131.5 99.5t177.5 38q174 0 310 -156l19 137h218v-897q0 -110 -11.5 -197.5t-43.5 -171.5t-84.5 -139.5t-140 -89.5t-204.5 -34q-302 0 -475 201l162 155q59 -60 136 -94.5t159 -34.5q46 0 82.5 10.5t61.5 26.5t43.5 44.5 t29.5 54.5t18.5 67t10.5 71.5t6 77.5q-74 -77 -145.5 -116.5t-163.5 -39.5q-104 0 -190.5 42.5t-142.5 113.5t-87 163t-31 193zM345 515q0 -49 13.5 -100t39.5 -98.5t73 -77.5t106 -30q88 0 157 51t107 136v313q-36 75 -102 122t-145 47q-56 0 -100.5 -22.5t-71.5 -58.5 t-45 -84.5t-25 -97t-7 -100.5z" />
<glyph unicode="h" horiz-adv-x="1167" d="M134 0v1484l253 91v-622q66 78 137.5 117.5t165.5 39.5q78 0 139 -26t100.5 -69t65.5 -103t36.5 -124.5t10.5 -136.5v-652h-253v653q0 219 -170 219q-74 0 -132.5 -57t-99.5 -137l1 -677h-254z" />
<glyph unicode="i" horiz-adv-x="554" d="M55 888v204h361v-1092h-249v888h-112zM117 1430q0 71 52 122t120 51t119.5 -51t51.5 -122t-51.5 -121.5t-119.5 -50.5q-69 0 -120.5 50.5t-51.5 121.5z" />
<glyph unicode="j" horiz-adv-x="585" d="M-19 -399l31 174q100 -12 111 -12q37 0 53.5 17.5t16.5 68.5v1037h-115v206h366v-1235q0 -59 -15.5 -109.5t-48 -93t-90 -67t-133.5 -24.5q-82 0 -176 38zM147 1429q0 72 53 123t120 51t119.5 -51t52.5 -123q0 -70 -52.5 -121t-119.5 -51t-120 51t-53 121z" />
<glyph unicode="k" horiz-adv-x="1069" d="M134 0v1484l249 94v-819l7 -2q71 67 109 109l226 226h330l-400 -388l410 -704h-283l-302 551l-97 -98v-453h-249z" />
<glyph unicode="l" horiz-adv-x="572" d="M121 280v1204l251 93v-1297q0 -49 17.5 -68t55.5 -19q11 0 23 2t32.5 5.5t41.5 6.5l31 -185q-98 -36 -159 -36q-73 0 -127.5 17t-85.5 44t-49.5 67.5t-24.5 79t-6 86.5z" />
<glyph unicode="m" horiz-adv-x="1809" d="M134 0v1092h218l21 -157q73 82 134.5 123t143.5 49q16 1 32 1l60 -4q46 -8 93.5 -29t88.5 -65t67 -107q32 41 57 68.5t63.5 60.5t83.5 52t95 23q22 2 44 2q81 -1 142 -25q78 -30 122 -92.5t64.5 -143.5t20.5 -183v-665h-256v667q0 102 -41 160q-37 53 -115 53 q-8 0 -16 -1q-74 -5 -130.5 -58t-88.5 -130l1 -691h-255v667q0 99 -41 159q-37 53 -109 54q-8 0 -17 -1q-142 -12 -227 -198v-681h-255z" />
<glyph unicode="n" horiz-adv-x="1167" d="M134 0v1092h234l8 -153q68 83 139 123t159 46q18 1 35 1q63 0 113 -17q64 -22 105 -63.5t67.5 -102.5t37 -126.5t10.5 -142.5v-657h-253v658q0 216 -170 216q-72 0 -131 -55t-101 -137l1 -682h-254z" />
<glyph unicode="o" horiz-adv-x="1155" d="M81 544q0 73 15.5 147.5t53.5 151t93.5 135.5t142.5 96.5t193 37.5q109 0 196.5 -37.5t142 -96t90.5 -135.5t50.5 -151t14.5 -147q0 -81 -17 -160t-55.5 -154.5t-94.5 -132.5t-140.5 -91.5t-186.5 -34.5q-104 0 -189.5 35t-141.5 92.5t-94.5 133t-55.5 153.5t-17 158z M335 545q0 -141 69 -245t174 -104q109 0 175.5 101.5t66.5 245.5q0 152 -61.5 248.5t-179.5 96.5q-78 0 -135 -51t-83 -127.5t-26 -164.5z" />
<glyph unicode="p" horiz-adv-x="1223" d="M134 -451v1543h216l20 -153q62 75 149 123t180 48q95 0 171.5 -33.5t126 -89t83 -131t47.5 -155t14 -166.5q0 -90 -16 -170.5t-51.5 -153.5t-88 -125.5t-131 -83.5t-174.5 -31q-156 0 -295 145v-475zM385 391q37 -85 105.5 -135t157.5 -50q76 0 131.5 54t79.5 128t24 155 q0 65 -14 122.5t-43 105t-78 75.5t-114 28q-81 0 -146 -45t-103 -120v-318z" />
<glyph unicode="q" horiz-adv-x="1216" d="M80 496q0 62 5.5 120.5t20.5 122t38.5 117t61.5 102.5t87 83t119 53q62 16 136 16h16q168 -5 288 -163l19 145h218v-1451l-249 -93v580q-67 -76 -133 -115t-149 -42h-16q-110 0 -198 39q-94 43 -150.5 118t-85 168.5t-28.5 199.5zM341 522q0 -63 14 -118.5t41.5 -100.5 t76 -71t111.5 -26q85 0 151.5 51t103.5 134v318q-38 75 -102.5 119.5t-145.5 44.5q-68 0 -118.5 -30t-78 -81.5t-40.5 -111t-13 -128.5z" />
<glyph unicode="r" horiz-adv-x="757" d="M129 0v1092h211l19 -145q28 37 48 59.5t50 48t66 39.5t80 18q7 1 14 1q30 0 67 -11q46 -13 82 -37l-68 -222q-81 29 -110 29q-72 0 -120.5 -44.5t-89.5 -134.5l-1 -693h-248z" />
<glyph unicode="s" horiz-adv-x="994" d="M64 221l188 128q95 -155 246 -155q65 0 118.5 34.5t53.5 95.5q0 32 -30.5 55.5t-79 39.5t-107 32t-117.5 39t-107.5 54.5t-79 85t-30.5 124.5q0 161 107.5 259t269.5 98q129 0 232.5 -59.5t167.5 -168.5l-185 -126q-84 131 -225 131q-53 0 -88.5 -30t-35.5 -82 q0 -32 30.5 -55.5t79 -39t107 -31.5t117.5 -39.5t107.5 -55.5t79 -87t30.5 -128q0 -162 -115.5 -264.5t-279.5 -102.5q-168 0 -271 54.5t-183 193.5z" />
<glyph unicode="t" horiz-adv-x="683" d="M5 888v204h175v238l246 92v-330h231v-204h-231v-601q0 -46 20.5 -71t71.5 -25q9 0 99 14l30 -184q-102 -35 -164 -35q-75 0 -131 16.5t-89.5 43t-54 66t-27.5 78.5t-7 88v610h-169z" />
<glyph unicode="u" horiz-adv-x="1156" d="M121 422v670h253v-671q0 -216 171 -216q72 0 131 54.5t100 137.5l-1 695h254v-1092h-223l-19 140q-68 -84 -139 -123.5t-159 -45.5q-18 -1 -35 -1q-62 0 -112 17q-64 22 -105 63.5t-68 102t-37.5 126.5t-10.5 143z" />
<glyph unicode="v" horiz-adv-x="1075" d="M17 1092h278q186 -564 201 -614l38 -143h5q35 125 41 141l199 616h279l-411 -1092h-218z" />
<glyph unicode="w" horiz-adv-x="1456" d="M25 1092h271q128 -580 136 -619l15 -121h5q3 12 10.5 65.5t8.5 58.5l140 616h239q125 -549 137 -599q9 -42 20 -141h5q8 81 18 139l129 601h273l-303 -1092h-237q-131 540 -144 592q-3 9 -16 113h-5q-11 -88 -19 -114l-138 -591h-240z" />
<glyph unicode="x" horiz-adv-x="1103" d="M19 0l394 577l-378 515h314l199 -335l197 335h302l-364 -524l401 -568h-310l-229 375l-219 -375h-307z" />
<glyph unicode="y" horiz-adv-x="1060" d="M15 1092h277q154 -469 168 -510l69 -230h9q53 175 69 225l161 515h277l-444 -1269q-50 -144 -124 -202.5t-221 -58.5q-58 0 -162 30l32 203q12 -2 36 -8.5t44 -10t36 -3.5q27 0 43.5 5.5t31.5 23.5q26 34 101 232z" />
<glyph unicode="z" horiz-adv-x="1042" d="M65 0v166q420 534 453 576q14 18 43 49.5t51 54.5l22 22v5q-105 -4 -152 -4l-398 -1v224h864v-187q-429 -540 -457 -574q-12 -16 -37.5 -42.5t-45.5 -45.5l-19 -19v-4q108 5 149 5h426l-1 -225h-898z" />
<glyph unicode="{" horiz-adv-x="862" d="M105 546v129l83 9q53 5 75 46t22 126v184q0 232 113.5 357.5t366.5 125.5v-147q-139 -15 -199.5 -74t-60.5 -185v-255q0 -52 -12 -93t-38 -71.5t-47 -48t-56 -41.5q35 -23 56.5 -41t46.5 -48t37.5 -71t12.5 -93v-242q0 -127 57 -181.5t203 -69.5v-148q-132 0 -225.5 30.5 t-149 92t-80.5 145.5t-25 198v185q0 84 -22 125.5t-75 47.5z" />
<glyph unicode="|" horiz-adv-x="624" d="M218 -402v2078h188v-2078h-188z" />
<glyph unicode="}" horiz-adv-x="862" d="M97 -138q146 15 203 69.5t57 181.5v242q0 52 12.5 93t37.5 71t46.5 48t56.5 41q-35 24 -56 41.5t-47 48t-38 71.5t-12 93v255q0 126 -60.5 185t-199.5 74v147q253 0 366.5 -125.5t113.5 -357.5v-184q0 -85 22 -126t75 -46l83 -9v-129l-83 -8q-53 -6 -75 -47.5t-22 -125.5 v-185q0 -114 -25 -198t-80.5 -145.5t-149 -92t-225.5 -30.5v148z" />
<glyph unicode="~" horiz-adv-x="1320" d="M97 732q106 98 156 133q105 72 204 72q55 0 105.5 -17.5t86.5 -42.5t68 -50t65 -42.5t63 -17.5q17 0 41.5 12t54 34.5t52 40.5t52 44t36.5 32l134 -154q-5 -4 -35 -30.5t-38 -33.5t-36 -30t-40.5 -31t-38.5 -25t-44 -24t-42.5 -16t-48 -12.5t-48.5 -3.5 q-57 0 -107.5 17.5t-86 42t-67.5 49t-64 42t-62 17.5q-19 0 -43 -11t-52.5 -32.5t-48.5 -38.5t-48.5 -42.5t-35.5 -31.5z" />
<glyph unicode="&#xa1;" horiz-adv-x="630" d="M132 1344q0 76 54 130t130 54t130 -54t54 -130t-54 -130t-130 -54t-130 54t-54 130zM181 1v759l13 236h249l12 -236v-759h-274z" />
<glyph unicode="&#xa2;" horiz-adv-x="1109" d="M101 636q0 102 22.5 192.5t68 167.5t121.5 130t176 73v214h237v-217q181 -46 286 -223l-196 -133q-88 138 -217 138q-62 0 -110 -30.5t-75 -81t-40.5 -109t-13.5 -120.5q0 -60 14.5 -117t43 -105t76 -77t107.5 -29q70 0 122 34.5t101 113.5l197 -133q-107 -188 -295 -234 v-231h-237v228q-98 19 -173.5 70.5t-121.5 125.5t-69.5 163t-23.5 190z" />
<glyph unicode="&#xa3;" horiz-adv-x="1326" d="M158 0v189q135 73 192.5 152t57.5 184q0 64 -3 118h-233v200h195q-22 94 -22 174q0 231 124.5 368t349.5 137q50 0 99 -10.5t104.5 -36t109 -77t95.5 -123.5l-189 -127q-29 46 -61 76t-63 41.5t-50.5 15t-44.5 3.5q-109 0 -160.5 -68t-51.5 -214q0 -66 20 -159l431 1 v-201h-393q9 -44 9 -118q0 -39 -8 -83t-40 -105.5t-83 -102.5h681l-16 -234h-1050z" />
<glyph unicode="&#xa5;" horiz-adv-x="1354" d="M67 1504h306l308 -645l311 645h295l-477 -872v-161h288v-200h-288v-271h-264v271h-286v200h286v159z" />
<glyph unicode="&#xa7;" horiz-adv-x="1322" d="M101 674q0 101 49 189.5t135 144.5q-37 64 -37 150q0 88 34.5 159t93.5 115.5t134.5 68t160.5 23.5q135 0 238.5 -51t195.5 -155l-179 -132q-100 113 -261 113q-74 0 -121.5 -37t-47.5 -109q0 -32 25 -54.5t67 -36t96 -25t114 -24.5t120.5 -29.5t114.5 -45t96 -67t67 -99 t25 -137.5q0 -104 -47 -193t-134 -146q33 -65 33 -146q0 -96 -39.5 -170.5t-106 -118.5t-148.5 -66.5t-173 -22.5q-157 0 -276.5 54.5t-223.5 172.5l198 129q122 -133 315 -133q52 0 96 13t77.5 48.5t33.5 89.5q0 33 -25 57t-67 38.5t-96 27t-114 26.5t-120.5 31t-114.5 46 t-96 67t-67 98.5t-25 136.5zM341 699q0 -32 11.5 -58t35 -45t47 -32.5t60 -24t60.5 -16.5t62.5 -13.5t53.5 -10.5q123 -26 210 -63q44 30 70.5 77t26.5 99q0 29 -10 53t-24 41.5t-39.5 33t-46 25t-54.5 19t-53.5 14t-54 11.5t-46.5 10q-119 26 -204 59q-105 -65 -105 -179z " />
<glyph unicode="&#xa8;" horiz-adv-x="993" d="M144 1394q0 54 38.5 93.5t93.5 39.5t94 -39t39 -94q0 -56 -38.5 -94.5t-94.5 -38.5q-55 0 -93.5 39t-38.5 94zM584 1394q0 54 38.5 93.5t93.5 39.5t94 -39t39 -94q0 -56 -38.5 -94.5t-94.5 -38.5q-55 0 -93.5 39t-38.5 94z" />
<glyph unicode="&#xa9;" horiz-adv-x="1741" d="M105 748q0 169 56 313t156 246t242.5 159.5t310.5 57.5q225 0 398.5 -94.5t270.5 -271.5t97 -410q0 -171 -57 -316t-157.5 -245.5t-242.5 -157t-309 -56.5q-166 0 -308.5 58t-242.5 159.5t-157 246t-57 311.5zM251 748q0 -177 74.5 -320.5t217 -229.5t327.5 -86 q187 0 329 83t216.5 227t74.5 326q0 286 -167 461t-453 175q-188 0 -330 -85.5t-215.5 -229t-73.5 -321.5zM497 742q0 92 25 174.5t73 149t126.5 106t176.5 39.5q37 0 76 -7.5t90 -28t95 -67t70 -114.5l-149 -67q-23 42 -51 68.5t-57 36.5t-44.5 12t-37.5 2 q-93 0 -153.5 -87t-60.5 -221q0 -129 62 -206.5t153 -77.5q25 0 45 3.5t48 15t54 39.5t47 70l153 -67q-28 -67 -72 -114.5t-92.5 -70.5t-91 -32.5t-84.5 -9.5q-133 0 -225.5 64t-134 164.5t-41.5 225.5z" />
<glyph unicode="&#xaa;" horiz-adv-x="917" d="M88 904q0 68 35 121t87 83t123.5 49t133 25.5t126.5 7.5q0 90 -29 127.5t-115 37.5q-56 0 -104.5 -18.5t-110.5 -59.5l-91 132q59 56 139 85t161 29q64 0 114.5 -12t85.5 -31.5t60 -52t39.5 -66t22.5 -81.5t10.5 -90t2.5 -99v-455h-155l-10 127q-50 -68 -117.5 -106.5 t-140.5 -38.5q-114 0 -190.5 82.5t-76.5 203.5zM273 903q0 -54 33.5 -85.5t89.5 -31.5q110 0 198 131v155h-8q-49 0 -101 -10t-101 -29t-80 -53t-31 -77z" />
<glyph unicode="&#xab;" horiz-adv-x="1319" d="M53 557l407 534h261l-408 -536l412 -555h-265zM564 557l408 534h260l-407 -536l412 -555h-266z" />
<glyph unicode="&#xad;" horiz-adv-x="737" d="M93 613v225h551v-225h-551z" />
<glyph unicode="&#xae;" horiz-adv-x="1731" d="M105 748q0 169 56 313t156 246t242.5 159.5t310.5 57.5q225 0 398.5 -94.5t270.5 -271.5t97 -410q0 -171 -57 -316t-157.5 -245.5t-242.5 -157t-309 -56.5q-166 0 -308.5 58t-242.5 159.5t-157 246t-57 311.5zM251 748q0 -177 74.5 -320.5t217 -229.5t327.5 -86 q187 0 329 83t216.5 227t74.5 326q0 286 -167 461t-453 175q-188 0 -330 -85.5t-215.5 -229t-73.5 -321.5zM589 313v899h282q149 0 237 -68.5t88 -217.5q0 -83 -43 -146t-112 -92l221 -375h-200l-191 347h-113v-347h-169zM758 816h132q63 0 99 27t36 82q0 69 -33 101 t-107 32h-127v-242z" />
<glyph unicode="&#xaf;" horiz-adv-x="783" d="M48 1273v179h687v-179h-687z" />
<glyph unicode="&#xb0;" horiz-adv-x="812" d="M93 1207q0 128 92 220t220 92q131 0 222.5 -92t91.5 -220q0 -131 -91.5 -222.5t-222.5 -91.5q-129 0 -220.5 91.5t-91.5 222.5zM252 1207q0 -65 44 -110t109 -45t109.5 45.5t44.5 109.5q0 61 -46.5 107t-107.5 46q-65 0 -109 -44t-44 -109z" />
<glyph unicode="&#xb1;" horiz-adv-x="1144" d="M101 0v195h934v-195h-934zM101 743v197h375v397h200v-397h367v-197h-367v-401h-200v401h-375z" />
<glyph unicode="&#xb4;" horiz-adv-x="523" d="M48 1225l242 345h295l-339 -345h-198z" />
<glyph unicode="&#xb5;" horiz-adv-x="1166" d="M109 -452v1544h252v-682q0 -89 50.5 -141.5t140.5 -52.5q71 0 128 56t94 139v681h253v-1092h-225l-10 118q-111 -135 -267 -135q-93 0 -166 38v-380z" />
<glyph unicode="&#xb6;" horiz-adv-x="1239" d="M27 1016q0 226 148 356.5t380 130.5h657v-191h-145v-1640h-205v1640h-205v-1640h-205v862q-131 8 -229 76t-147 173.5t-49 232.5z" />
<glyph unicode="&#xb7;" horiz-adv-x="574" d="M103 748q0 76 54 130t130 54t130 -54t54 -130t-54 -130t-130 -54t-130 54t-54 130z" />
<glyph unicode="&#xb8;" horiz-adv-x="738" d="M144 -403l46 125q114 -56 167 -56q35 0 59.5 15.5t24.5 48.5q0 41 -64 41h-92l-56 55l82 174h132l-59 -117q50 6 95.5 -4.5t80 -46.5t34.5 -93q0 -55 -22 -97.5t-58 -66t-76.5 -35.5t-81.5 -12q-105 0 -212 69z" />
<glyph unicode="&#xba;" horiz-adv-x="980" d="M99 1071q0 58 12.5 118t42.5 121t73.5 108t112 76.5t151.5 29.5q86 0 155 -29.5t112 -76t71.5 -108t40 -120.5t11.5 -118q0 -65 -13.5 -128t-44 -122.5t-74.5 -104.5t-110.5 -72.5t-147.5 -27.5t-148.5 27.5t-111.5 73t-74.5 105t-44 122t-13.5 126.5zM292 1072 q0 -114 56.5 -200.5t141.5 -86.5q91 0 145 83.5t54 201.5q0 126 -51 211.5t-147 85.5q-63 0 -110 -46t-68 -111.5t-21 -137.5z" />
<glyph unicode="&#xbb;" horiz-adv-x="1319" d="M82 0l412 555l-408 536h261l407 -534l-406 -557h-266zM593 0l413 555l-408 536h261l407 -534l-407 -557h-266z" />
<glyph unicode="&#xbc;" horiz-adv-x="1921" d="M89 1413l285 94h133v-725h172v-176h-557v176h184v516l-168 -57zM521 -2l741 1503h178l-741 -1503h-178zM1072 184v127l489 588h152v-543h133v-172h-133v-186h-193v186h-448zM1332 356h188v221q-75 -90 -188 -221z" />
<glyph unicode="&#xbd;" horiz-adv-x="1961" d="M89 1413l284 94h134v-725h171v-176h-557v176h185v516l-168 -57zM521 -2l741 1503h178l-741 -1503h-178zM1223 719q127 186 340 186q135 0 229 -72.5t94 -203.5q0 -55 -42.5 -110t-104.5 -99.5t-125.5 -85t-112.5 -83t-57 -77.5h434v-176h-651v90q0 80 34.5 150 t85.5 115.5t111.5 87.5t111.5 70t85.5 59t34.5 59q0 50 -36.5 75t-88.5 25q-62 0 -104 -27.5t-84 -83.5z" />
<glyph unicode="&#xbe;" horiz-adv-x="1982" d="M89 794l148 103q48 -72 91.5 -97.5t94.5 -25.5q84 0 125 33t41 90q0 104 -138 104h-96v168h103q55 0 75.5 21.5t20.5 68.5q0 33 -33 61.5t-90 28.5q-48 0 -92.5 -22.5t-95.5 -89.5l-138 96q121 186 322 186q78 0 149.5 -28t120.5 -86t49 -132q0 -57 -26 -107t-70 -73v-6 q61 -22 99 -74t38 -131q0 -73 -31.5 -129t-85 -89t-117.5 -49.5t-136 -16.5q-209 0 -328 196zM582 -2l742 1503h178l-741 -1503h-179zM1133 184v127l489 588h152v-543h133v-172h-133v-186h-193v186h-448zM1393 356h188v221q-75 -90 -188 -221z" />
<glyph unicode="&#xbf;" horiz-adv-x="1061" d="M124 334q0 93 40.5 164.5t112.5 150.5q6 7 17 19t20 22t17 19q91 101 99 178q6 48 6 126h272v-112q0 -94 -43.5 -172.5t-118.5 -164.5q-84 -95 -106 -125q-44 -61 -44 -106q0 -59 41 -89.5t112 -30.5q134 0 226 135l206 -133q-72 -115 -187 -176t-234 -61 q-89 0 -165.5 21t-138 63t-97 112t-35.5 160zM390 1340q0 76 54 130t130 54t130 -54t54 -130t-54 -130t-130 -54t-130 54t-54 130z" />
<glyph unicode="&#xc0;" d="M9 0h271l122 326h574l123 -326h294q-519 1372 -569 1504h-244zM263 1948h296l242 -346h-197zM486 566q154 446 204 611h3q32 -103 83 -255.5t86 -253.5l35 -102h-411z" />
<glyph unicode="&#xc1;" d="M9 0h271l122 326h574l123 -326h294q-519 1372 -569 1504h-244zM486 566q154 446 204 611h3q32 -103 83 -255.5t86 -253.5l35 -102h-411zM604 1602l241 346h296l-340 -346h-197z" />
<glyph unicode="&#xc2;" d="M9 0h271l122 326h574l123 -326h294q-519 1372 -569 1504h-244zM313 1574l309 380h161l309 -380h-199l-190 194l-190 -194h-200zM486 566q154 446 204 611h3q32 -103 83 -255.5t86 -253.5l35 -102h-411z" />
<glyph unicode="&#xc3;" d="M9 0h271l122 326h574l123 -326h294q-519 1372 -569 1504h-244zM335 1594q0 66 10 116.5t33.5 94t68 67t108.5 23.5q71 0 185 -59q55 -30 75 -38q37 -16 59 -16q32 0 46.5 29t19.5 91h153q0 -66 -9.5 -116.5t-32.5 -95t-67.5 -68.5t-109.5 -24q-86 0 -191 62 q-9 5 -23.5 13.5t-26 15t-21.5 11.5q-35 16 -59 16q-37 0 -51.5 -26.5t-27.5 -96.5zM486 566q154 446 204 611h3q32 -103 83 -255.5t86 -253.5l35 -102h-411z" />
<glyph unicode="&#xc4;" d="M9 0h271l122 326h574l123 -326h294q-519 1372 -569 1504h-244zM348 1794q0 55 38 94t94 39q55 0 94 -39t39 -94q0 -56 -38.5 -94.5t-94.5 -38.5q-55 0 -93.5 39t-38.5 94zM486 566q154 446 204 611h3q32 -103 83 -255.5t86 -253.5l35 -102h-411zM788 1794q0 55 38 94 t94 39q55 0 94 -39t39 -94q0 -56 -38.5 -94.5t-94.5 -38.5q-55 0 -93.5 39t-38.5 94z" />
<glyph unicode="&#xc5;" d="M9 0l542 1429l1 2q-85 69 -85 179q0 94 67.5 161.5t162.5 67.5q96 0 163.5 -67t67.5 -162q0 -106 -79 -174l544 -1436h-294l-123 326h-574l-122 -326h-271zM486 566h411q-132 380 -204 611h-3q-22 -73 -73 -226t-91 -269zM593 1610q0 -43 28.5 -74t70.5 -32h5 q43 0 73.5 31t30.5 75q0 41 -31.5 72.5t-72.5 31.5q-44 0 -74 -30t-30 -74z" />
<glyph unicode="&#xc6;" horiz-adv-x="1806" d="M-3 0l771 1504h947l-16 -243h-563v-379h476l-17 -235h-459v-400h587l-16 -247h-827v332h-426l-165 -332h-292zM551 563h329v687z" />
<glyph unicode="&#xc7;" horiz-adv-x="1346" d="M103 740q0 122 22.5 234t72.5 212.5t122.5 174t179 117t236.5 43.5q49 0 96.5 -7.5t104 -27.5t107.5 -51.5t104.5 -84t97.5 -121.5l-207 -145q-42 59 -85.5 98t-84 56.5t-71.5 23.5t-67 6q-159 0 -256 -144.5t-97 -381.5q0 -227 101.5 -373t248.5 -146q96 0 178.5 42 t159.5 158l207 -144q-176 -295 -503 -308l-45 -88q50 6 95.5 -4.5t80 -46.5t34.5 -93q0 -55 -22 -97.5t-58 -66t-76.5 -35.5t-81.5 -12q-105 0 -212 69l46 125q114 -56 167 -56q35 0 59.5 15.5t24.5 48.5q0 41 -64 41h-92l-56 55l72 152q-109 16 -200 67t-152.5 125 t-104.5 168t-62.5 195t-19.5 207z" />
<glyph unicode="&#xc8;" horiz-adv-x="1235" d="M163 0h975l14 249h-724v398h605l16 236h-621v378h701l15 243h-981v-1504zM259 1948h296l243 -346h-199z" />
<glyph unicode="&#xc9;" horiz-adv-x="1235" d="M163 0h975l14 249h-724v398h605l16 236h-621v378h701l15 243h-981v-1504zM510 1602l242 346h296l-340 -346h-198z" />
<glyph unicode="&#xca;" horiz-adv-x="1235" d="M163 0h975l14 249h-724v398h605l16 236h-621v378h701l15 243h-981v-1504zM284 1631l310 380h160l310 -380h-201l-190 194l-188 -194h-201z" />
<glyph unicode="&#xcb;" horiz-adv-x="1235" d="M163 0h975l14 249h-724v398h605l16 236h-621v378h701l15 243h-981v-1504zM302 1794q0 55 38 94t94 39q55 0 94 -39t39 -94q0 -56 -38.5 -94.5t-94.5 -38.5q-55 0 -93.5 39t-38.5 94zM742 1794q0 55 38 94t94 39q55 0 94 -39t39 -94q0 -56 -38.5 -94.5t-94.5 -38.5 q-55 0 -93.5 39t-38.5 94z" />
<glyph unicode="&#xcc;" horiz-adv-x="608" d="M-123 1949h296l242 -346h-198zM163 0v1504h282v-1504h-282z" />
<glyph unicode="&#xcd;" horiz-adv-x="608" d="M163 0v1504h282v-1504h-282zM203 1603l243 346h296l-340 -346h-199z" />
<glyph unicode="&#xce;" horiz-adv-x="608" d="M-87 1632l310 380h160l310 -380h-201l-190 193l-188 -193h-201zM163 0v1504h282v-1504h-282z" />
<glyph unicode="&#xcf;" horiz-adv-x="608" d="M-26 1784q0 49 35 85t85 36t85 -35.5t35 -85.5t-35 -85t-85 -35t-85 35t-35 85zM163 0v1504h282v-1504h-282zM394 1784q0 49 35 85t85 36t85 -35.5t35 -85.5t-35 -85t-85 -35t-85 35t-35 85z" />
<glyph unicode="&#xd0;" horiz-adv-x="1426" d="M-16 661v220h178v623h364q148 0 270.5 -25.5t226 -83t175 -145t111.5 -217t40 -293.5q0 -211 -84 -379t-241.5 -264.5t-362.5 -96.5h-499v661h-178zM430 249h189q81 0 160.5 31t147.5 88t110 150t42 206q0 279 -135.5 405t-409.5 126h-104v-374h364v-220h-364v-412z" />
<glyph unicode="&#xd1;" horiz-adv-x="1419" d="M163 0h266v876v116h3q79 -150 266 -451q17 -28 338 -541h220v1504h-265q0 -841 1 -981h-3q-38 70 -70 125.5t-51.5 87t-72.5 116t-92 146.5l-315 506h-225v-1504zM338 1604q0 66 10 116.5t33.5 94t68 67t108.5 23.5q71 0 185 -59q55 -30 75 -38q37 -16 59 -16 q32 0 46.5 29t19.5 91h153q0 -66 -9.5 -116.5t-32.5 -95t-67.5 -68.5t-109.5 -24q-86 0 -191 62q-9 5 -23.5 13.5t-26 15t-21.5 11.5q-35 16 -59 16q-37 0 -51.5 -26.5t-27.5 -96.5z" />
<glyph unicode="&#xd2;" horiz-adv-x="1437" d="M103 755q0 112 22.5 219.5t71.5 207t119.5 175t174 120.5t227.5 45q122 0 224.5 -43t173.5 -116t121 -171.5t73.5 -209t23.5 -227.5q0 -69 -8 -139t-28 -148.5t-50.5 -148t-79.5 -134.5t-111 -111.5t-149 -74t-189 -27.5q-99 0 -184 26t-147 70t-111.5 106t-81.5 131 t-53 147.5t-30 153t-9 149.5zM317 1958h295l242 -345h-197zM379 753q0 -72 10 -142t35.5 -141t63 -124.5t97 -87t134.5 -33.5q58 0 106.5 19.5t82.5 52t61 77.5t43.5 92t27 100t14.5 98.5t4 88.5q0 66 -11 135t-37.5 138.5t-64.5 124t-97 88.5t-130 34q-62 0 -114 -25 t-88 -67t-63.5 -95t-43 -112.5t-23 -114.5t-7.5 -106z" />
<glyph unicode="&#xd3;" horiz-adv-x="1437" d="M103 755q0 112 22.5 219.5t71.5 207t119.5 175t174 120.5t227.5 45q122 0 224.5 -43t173.5 -116t121 -171.5t73.5 -209t23.5 -227.5q0 -69 -8 -139t-28 -148.5t-50.5 -148t-79.5 -134.5t-111 -111.5t-149 -74t-189 -27.5q-99 0 -184 26t-147 70t-111.5 106t-81.5 131 t-53 147.5t-30 153t-9 149.5zM379 753q0 -72 10 -142t35.5 -141t63 -124.5t97 -87t134.5 -33.5q58 0 106.5 19.5t82.5 52t61 77.5t43.5 92t27 100t14.5 98.5t4 88.5q0 66 -11 135t-37.5 138.5t-64.5 124t-97 88.5t-130 34q-62 0 -114 -25t-88 -67t-63.5 -95t-43 -112.5 t-23 -114.5t-7.5 -106zM582 1613l241 345h296l-340 -345h-197z" />
<glyph unicode="&#xd4;" horiz-adv-x="1437" d="M103 755q0 112 22.5 219.5t71.5 207t119.5 175t174 120.5t227.5 45q122 0 224.5 -43t173.5 -116t121 -171.5t73.5 -209t23.5 -227.5q0 -69 -8 -139t-28 -148.5t-50.5 -148t-79.5 -134.5t-111 -111.5t-149 -74t-189 -27.5q-99 0 -184 26t-147 70t-111.5 106t-81.5 131 t-53 147.5t-30 153t-9 149.5zM332 1632l309 380h161l309 -380h-200l-190 193l-189 -193h-200zM379 753q0 -72 10 -142t35.5 -141t63 -124.5t97 -87t134.5 -33.5q58 0 106.5 19.5t82.5 52t61 77.5t43.5 92t27 100t14.5 98.5t4 88.5q0 66 -11 135t-37.5 138.5t-64.5 124 t-97 88.5t-130 34q-62 0 -114 -25t-88 -67t-63.5 -95t-43 -112.5t-23 -114.5t-7.5 -106z" />
<glyph unicode="&#xd5;" horiz-adv-x="1437" d="M103 755q0 112 22.5 219.5t71.5 207t119.5 175t174 120.5t227.5 45q122 0 224.5 -43t173.5 -116t121 -171.5t73.5 -209t23.5 -227.5q0 -69 -8 -139t-28 -148.5t-50.5 -148t-79.5 -134.5t-111 -111.5t-149 -74t-189 -27.5q-99 0 -184 26t-147 70t-111.5 106t-81.5 131 t-53 147.5t-30 153t-9 149.5zM345 1634q0 52 6 94t21 81.5t39 66.5t63 43t91 16q72 0 184 -59q62 -32 76 -38q37 -16 59 -16q32 0 46.5 29t19.5 91h153q0 -66 -9.5 -116.5t-32.5 -95t-67.5 -68.5t-109.5 -24q-86 0 -191 62q-9 5 -23.5 13.5t-26 15t-21.5 11.5q-35 16 -59 16 q-37 0 -51.5 -26.5t-27.5 -96.5zM379 753q0 -72 10 -142t35.5 -141t63 -124.5t97 -87t134.5 -33.5q58 0 106.5 19.5t82.5 52t61 77.5t43.5 92t27 100t14.5 98.5t4 88.5q0 66 -11 135t-37.5 138.5t-64.5 124t-97 88.5t-130 34q-62 0 -114 -25t-88 -67t-63.5 -95t-43 -112.5 t-23 -114.5t-7.5 -106z" />
<glyph unicode="&#xd6;" horiz-adv-x="1437" d="M103 755q0 112 22.5 219.5t71.5 207t119.5 175t174 120.5t227.5 45q122 0 224.5 -43t173.5 -116t121 -171.5t73.5 -209t23.5 -227.5q0 -69 -8 -139t-28 -148.5t-50.5 -148t-79.5 -134.5t-111 -111.5t-149 -74t-189 -27.5q-99 0 -184 26t-147 70t-111.5 106t-81.5 131 t-53 147.5t-30 153t-9 149.5zM366 1794q0 55 38 94t94 39q55 0 94 -39t39 -94q0 -56 -38.5 -94.5t-94.5 -38.5q-55 0 -93.5 39t-38.5 94zM379 753q0 -72 10 -142t35.5 -141t63 -124.5t97 -87t134.5 -33.5q58 0 106.5 19.5t82.5 52t61 77.5t43.5 92t27 100t14.5 98.5t4 88.5 q0 66 -11 135t-37.5 138.5t-64.5 124t-97 88.5t-130 34q-62 0 -114 -25t-88 -67t-63.5 -95t-43 -112.5t-23 -114.5t-7.5 -106zM806 1794q0 55 38 94t94 39q55 0 94 -39t39 -94q0 -56 -38.5 -94.5t-94.5 -38.5q-55 0 -93.5 39t-38.5 94z" />
<glyph unicode="&#xd7;" horiz-adv-x="1099" d="M101 405l303 289l-303 287l143 137l303 -289l303 289l145 -137l-302 -289l305 -289l-144 -137l-305 289l-303 -287z" />
<glyph unicode="&#xd8;" horiz-adv-x="1556" d="M-42 66l234 249q-87 192 -87 440q0 112 22.5 219.5t71.5 207t119 175t174 120.5t228 45q260 0 426 -191l189 202l146 -124l-230 -245q84 -184 84 -409q0 -69 -8 -139t-27.5 -148.5t-50 -148t-79.5 -134.5t-111 -111.5t-149 -74t-189 -27.5q-263 0 -423 177l-192 -204z M381 753q0 -112 24 -211l554 590q-92 141 -239 141q-62 0 -114 -25t-88 -67t-63.5 -95t-43 -112.5t-23 -114.5t-7.5 -106zM486 350q88 -125 235 -125q67 0 121.5 25.5t90 70t61.5 97.5t40 115t20 115.5t6 104.5q0 92 -22 184z" />
<glyph unicode="&#xd9;" horiz-adv-x="1379" d="M144 557v947h268v-949q0 -336 273 -336q87 0 145.5 25.5t88 75t40.5 105t11 132.5l1 947h264v-948q0 -88 -15 -167t-54 -157t-99.5 -134t-158.5 -91t-223 -35q-126 0 -223 35.5t-156 91.5t-96.5 135t-51.5 157t-14 166zM285 1888h295l242 -345h-198z" />
<glyph unicode="&#xda;" horiz-adv-x="1379" d="M144 557v947h268v-949q0 -336 273 -336q87 0 145.5 25.5t88 75t40.5 105t11 132.5l1 947h264v-948q0 -88 -15 -167t-54 -157t-99.5 -134t-158.5 -91t-223 -35q-126 0 -223 35.5t-156 91.5t-96.5 135t-51.5 157t-14 166zM538 1543l243 345h296l-340 -345h-199z" />
<glyph unicode="&#xdb;" horiz-adv-x="1379" d="M144 557v947h268v-949q0 -336 273 -336q87 0 145.5 25.5t88 75t40.5 105t11 132.5l1 947h264v-948q0 -88 -15 -167t-54 -157t-99.5 -134t-158.5 -91t-223 -35q-126 0 -223 35.5t-156 91.5t-96.5 135t-51.5 157t-14 166zM296 1622l310 380h160l309 -380h-200l-190 193 l-188 -193h-201z" />
<glyph unicode="&#xdc;" horiz-adv-x="1379" d="M144 557v946h268v-948q0 -336 273 -336q87 0 145.5 25.5t88 75t40.5 105t11 132.5l1 946h264v-947q0 -88 -15 -167t-54 -157t-99.5 -134t-158.5 -91t-223 -35q-126 0 -223 35.5t-156 91.5t-96.5 135t-51.5 157t-14 166zM328 1755q0 55 38 94t94 39q55 0 94 -39t39 -94 t-38.5 -94t-94.5 -39q-55 0 -93.5 39t-38.5 94zM768 1755q0 55 38 94t94 39q55 0 94 -39t39 -94t-38.5 -94t-94.5 -39q-55 0 -93.5 39t-38.5 94z" />
<glyph unicode="&#xdd;" horiz-adv-x="1262" d="M-5 1504h309q248 -486 277 -538q9 -17 30.5 -67.5t24.5 -57.5q5 11 25 59t28 63l281 541h297l-502 -912v-592h-266v590zM496 1533l243 345h296l-341 -345h-198z" />
<glyph unicode="&#xde;" horiz-adv-x="1264" d="M163 0v1506h266v-252h166q95 0 175 -15t149 -49.5t117 -87t75.5 -131t27.5 -178.5q0 -207 -141 -327t-364 -120h-205v-346h-266zM429 580h203q107 0 174 52.5t67 152.5q0 126 -58.5 182t-193.5 56h-192v-443z" />
<glyph unicode="&#xdf;" horiz-adv-x="1216" d="M134 -440v1519q0 221 116 348.5t343 127.5q201 0 323 -118t122 -314q0 -82 -45.5 -157.5t-123.5 -121.5v-6q140 -60 207 -155t67 -233q0 -229 -144.5 -362.5t-379.5 -133.5q-49 0 -111 18l17 230q65 -9 97 -9q122 0 190.5 67t68.5 185q0 136 -85.5 202.5t-232.5 66.5h-23 v220h9q101 0 164.5 49t63.5 140q0 200 -188 200q-198 0 -198 -229v-1448z" />
<glyph unicode="&#xe0;" horiz-adv-x="1047" d="M71 330q0 -158 90 -258.5t248 -100.5q88 0 172.5 49.5t152.5 121.5l10 -142h209v563q0 71 -3 123t-13 112.5t-28 103t-50 84.5t-77 67.5t-110 41.5t-148 16q-234 0 -387 -146l123 -172q77 52 139.5 74t133.5 22q103 0 137.5 -44t34.5 -156q-54 0 -89 -1t-92.5 -5 t-96.5 -10.5t-90 -19.5t-85.5 -30.5t-71.5 -45t-59 -62t-36 -81.5t-14 -104zM150 1560h296l243 -345h-199zM321 331q0 31 9.5 56.5t23.5 43.5t38 32.5t45 24t54 16t55.5 9.5t57.5 5t53 2h49v-177q-38 -64 -105 -110t-135 -46q-71 0 -108 37t-37 107z" />
<glyph unicode="&#xe1;" horiz-adv-x="1047" d="M71 330q0 -158 90 -258.5t248 -100.5q88 0 172.5 49.5t152.5 121.5l10 -142h209v563q0 71 -3 123t-13 112.5t-28 103t-50 84.5t-77 67.5t-110 41.5t-148 16q-234 0 -387 -146l123 -172q77 52 139.5 74t133.5 22q103 0 137.5 -44t34.5 -156q-54 0 -89 -1t-92.5 -5 t-96.5 -10.5t-90 -19.5t-85.5 -30.5t-71.5 -45t-59 -62t-36 -81.5t-14 -104zM321 331q0 31 9.5 56.5t23.5 43.5t38 32.5t45 24t54 16t55.5 9.5t57.5 5t53 2h49v-177q-38 -64 -105 -110t-135 -46q-71 0 -108 37t-37 107zM417 1225l242 345h297l-341 -345h-198z" />
<glyph unicode="&#xe2;" horiz-adv-x="1047" d="M71 330q0 -158 90 -258.5t248 -100.5q88 0 172.5 49.5t152.5 121.5l10 -142h209v563q0 71 -3 123t-13 112.5t-28 103t-50 84.5t-77 67.5t-110 41.5t-148 16q-234 0 -387 -146l123 -172q77 52 139.5 74t133.5 22q103 0 137.5 -44t34.5 -156q-54 0 -89 -1t-92.5 -5 t-96.5 -10.5t-90 -19.5t-85.5 -30.5t-71.5 -45t-59 -62t-36 -81.5t-14 -104zM151 1212l310 380h160l310 -380h-201l-190 193l-189 -193h-200zM321 331q0 31 9.5 56.5t23.5 43.5t38 32.5t45 24t54 16t55.5 9.5t57.5 5t53 2h49v-177q-38 -64 -105 -110t-135 -46q-71 0 -108 37 t-37 107z" />
<glyph unicode="&#xe3;" horiz-adv-x="1047" d="M71 330q0 -158 90 -258.5t248 -100.5q88 0 172.5 49.5t152.5 121.5l10 -142h209v563q0 71 -3 123t-13 112.5t-28 103t-50 84.5t-77 67.5t-110 41.5t-148 16q-234 0 -387 -146l123 -172q77 52 139.5 74t133.5 22q103 0 137.5 -44t34.5 -156q-54 0 -89 -1t-92.5 -5 t-96.5 -10.5t-90 -19.5t-85.5 -30.5t-71.5 -45t-59 -62t-36 -81.5t-14 -104zM165 1227q0 66 10 116.5t33.5 94t68 67t108.5 23.5q73 0 185 -59q52 -28 75 -38q38 -16 60 -16q31 0 46 29.5t19 90.5h155q0 -52 -6 -94t-21 -82t-39 -67.5t-63 -44t-91 -16.5q-85 0 -192 62 q-60 35 -70 40q-35 16 -60 16q-36 0 -50.5 -27t-26.5 -96zM321 331q0 31 9.5 56.5t23.5 43.5t38 32.5t45 24t54 16t55.5 9.5t57.5 5t53 2h49v-177q-38 -64 -105 -110t-135 -46q-71 0 -108 37t-37 107z" />
<glyph unicode="&#xe4;" horiz-adv-x="1047" d="M71 330q0 -158 90 -258.5t248 -100.5q88 0 172.5 49.5t152.5 121.5l10 -142h209v563q0 71 -3 123t-13 112.5t-28 103t-50 84.5t-77 67.5t-110 41.5t-148 16q-234 0 -387 -146l123 -172q77 52 139.5 74t133.5 22q103 0 137.5 -44t34.5 -156q-54 0 -89 -1t-92.5 -5 t-96.5 -10.5t-90 -19.5t-85.5 -30.5t-71.5 -45t-59 -62t-36 -81.5t-14 -104zM180 1394q0 54 38.5 93.5t93.5 39.5t94 -39t39 -94q0 -56 -38.5 -94.5t-94.5 -38.5q-55 0 -93.5 39t-38.5 94zM321 331q0 31 9.5 56.5t23.5 43.5t38 32.5t45 24t54 16t55.5 9.5t57.5 5t53 2h49 v-177q-38 -64 -105 -110t-135 -46q-71 0 -108 37t-37 107zM620 1394q0 54 38.5 93.5t93.5 39.5t94 -39t39 -94q0 -56 -38.5 -94.5t-94.5 -38.5q-55 0 -93.5 39t-38.5 94z" />
<glyph unicode="&#xe5;" horiz-adv-x="1047" d="M71 330q0 -158 90 -258.5t248 -100.5q88 0 172.5 49.5t152.5 121.5l10 -142h209v563q0 71 -3 123t-13 112.5t-28 103t-50 84.5t-77 67.5t-110 41.5t-148 16q-234 0 -387 -146l123 -172q77 52 139.5 74t133.5 22q103 0 137.5 -44t34.5 -156q-54 0 -89 -1t-92.5 -5 t-96.5 -10.5t-90 -19.5t-85.5 -30.5t-71.5 -45t-59 -62t-36 -81.5t-14 -104zM316 1468q0 94 68 161.5t162 67.5q96 0 163.5 -67t67.5 -162q0 -97 -67 -164t-164 -67q-95 0 -162.5 67.5t-67.5 163.5zM321 331q0 31 9.5 56.5t23.5 43.5t38 32.5t45 24t54 16t55.5 9.5t57.5 5 t53 2h49v-177q-38 -64 -105 -110t-135 -46q-71 0 -108 37t-37 107zM442 1468q0 -44 30.5 -75t73.5 -31t73.5 31t30.5 75q0 41 -31.5 72.5t-72.5 31.5q-44 0 -74 -30t-30 -74z" />
<glyph unicode="&#xe6;" horiz-adv-x="1748" d="M71 330q0 245 278 310q114 27 347 29h1h1h1h1h1h2h1h1q0 122 -34 169t-138 47q-71 0 -134 -22t-139 -73l-123 173q152 144 387 144q223 0 330 -149h6q136 152 351 152q99 0 178.5 -33.5t130 -87.5t84.5 -127.5t48 -149.5t14 -157q0 -37 -6 -72h-714q4 -140 68 -216 t178 -76q87 0 154.5 34t126.5 127l184 -122q-86 -145 -192.5 -201.5t-281.5 -56.5q-252 0 -379 201h-6q-95 -118 -187.5 -159.5t-201.5 -41.5q-158 0 -248 100t-90 258zM321 332q0 -70 36.5 -107t108.5 -37q68 0 135 45.5t105 110.5v157h-22h-64.5t-67 -3.5t-70 -9t-61 -18 t-53.5 -30t-33 -45.5t-14 -63zM958 657h461q-11 107 -65.5 169t-154.5 62q-96 0 -160.5 -65.5t-80.5 -165.5z" />
<glyph unicode="&#xe7;" horiz-adv-x="1062" d="M80 536q0 116 29 216.5t88 182t159.5 128.5t231.5 47q127 0 230 -60.5t172 -176.5l-196 -133q-87 138 -216 138q-62 0 -110 -30.5t-75 -81t-40.5 -109t-13.5 -120.5q0 -61 14.5 -118.5t43 -106.5t76 -78.5t107.5 -29.5q70 0 122 34.5t101 113.5l197 -133 q-127 -222 -361 -245l-44 -91q50 6 95.5 -4.5t80 -46.5t34.5 -93q0 -55 -22 -97.5t-58 -66t-76.5 -35.5t-81.5 -12q-105 0 -212 69l46 125q114 -56 166 -56q36 0 60 15.5t24 48.5q0 41 -63 41h-92l-56 55l71 150q-109 13 -193.5 63t-135.5 127t-76.5 170.5t-25.5 199.5z" />
<glyph unicode="&#xe8;" horiz-adv-x="1119" d="M79 516q0 -77 16 -152t53 -147t90.5 -126t135 -87t180.5 -33q174 0 281 57t192 201l-184 122q-59 -93 -126.5 -127.5t-153.5 -34.5q-112 0 -172.5 77t-64.5 208h704q2 23 3.5 42t2 26.5t0.5 14.5q0 81 -14 157t-48 149.5t-84.5 127.5t-129.5 87.5t-178 33.5 q-163 0 -278 -78.5t-170 -211t-55 -306.5zM179 1570h296l242 -345h-198zM338 649q17 103 77.5 172t153.5 69q99 0 154 -66t66 -175h-451z" />
<glyph unicode="&#xe9;" horiz-adv-x="1119" d="M79 516q0 -77 16 -152t53 -147t90.5 -126t135 -87t180.5 -33q174 0 281 57t192 201l-184 122q-59 -93 -126.5 -127.5t-153.5 -34.5q-112 0 -172.5 77t-64.5 208h704q2 23 3.5 42t2 26.5t0.5 14.5q0 81 -14 157t-48 149.5t-84.5 127.5t-129.5 87.5t-178 33.5 q-163 0 -278 -78.5t-170 -211t-55 -306.5zM338 649q17 103 77.5 172t153.5 69q99 0 154 -66t66 -175h-451zM436 1215l241 345h297l-341 -345h-197z" />
<glyph unicode="&#xea;" horiz-adv-x="1119" d="M79 516q0 -77 16 -152t53 -147t90.5 -126t135 -87t180.5 -33q174 0 281 57t192 201l-184 122q-59 -93 -126.5 -127.5t-153.5 -34.5q-112 0 -172.5 77t-64.5 208h704q2 23 3.5 42t2 26.5t0.5 14.5q0 81 -14 157t-48 149.5t-84.5 127.5t-129.5 87.5t-178 33.5 q-163 0 -278 -78.5t-170 -211t-55 -306.5zM189 1232l309 380h161l309 -380h-200l-190 193l-190 -193h-199zM338 649q17 103 77.5 172t153.5 69q99 0 154 -66t66 -175h-451z" />
<glyph unicode="&#xeb;" horiz-adv-x="1119" d="M79 516q0 -77 16 -152t53 -147t90.5 -126t135 -87t180.5 -33q174 0 281 57t192 201l-184 122q-59 -93 -126.5 -127.5t-153.5 -34.5q-112 0 -172.5 77t-64.5 208h704q2 23 3.5 42t2 26.5t0.5 14.5q0 81 -14 157t-48 149.5t-84.5 127.5t-129.5 87.5t-178 33.5 q-163 0 -278 -78.5t-170 -211t-55 -306.5zM218 1394q0 54 38.5 93.5t93.5 39.5t94 -39t39 -94q0 -56 -38.5 -94.5t-94.5 -38.5q-55 0 -93.5 39t-38.5 94zM338 649q17 103 77.5 172t153.5 69q99 0 154 -66t66 -175h-451zM658 1394q0 54 38.5 93.5t93.5 39.5t94 -39t39 -94 q0 -56 -38.5 -94.5t-94.5 -38.5q-55 0 -93.5 39t-38.5 94z" />
<glyph unicode="&#xec;" horiz-adv-x="554" d="M-160 1570h296l242 -345h-198zM55 888v204h361v-1092h-249v888h-112z" />
<glyph unicode="&#xed;" horiz-adv-x="554" d="M55 888v204h361v-1092h-249v888h-112zM153 1235l242 345h296l-340 -345h-198z" />
<glyph unicode="&#xee;" horiz-adv-x="553" d="M-137 1212l310 380h160l310 -380h-201l-189 193l-189 -193h-201zM55 888v204h361v-1092h-249v888h-112z" />
<glyph unicode="&#xef;" horiz-adv-x="554" d="M-100 1394q0 54 38.5 93.5t93.5 39.5t94 -39t39 -94q0 -56 -38.5 -94.5t-94.5 -38.5q-55 0 -93.5 39t-38.5 94zM55 888v204h361v-1092h-249v888h-112zM320 1394q0 54 38.5 93.5t93.5 39.5t94 -39t39 -94q0 -56 -38.5 -94.5t-94.5 -38.5q-55 0 -93.5 39t-38.5 94z" />
<glyph unicode="&#xf0;" horiz-adv-x="1159" d="M79 491q0 131 51 247t152 192t229 76q54 0 126 -20.5t143 -64.5q3 2 5 3q-37 74 -104.5 157.5t-109.5 118.5l-347 -170l-72 138l289 141q-107 71 -199 94l23 181q30 -9 58 -19t57.5 -25t48 -24.5t51.5 -30.5l44 -28t48.5 -33t43.5 -30l235 116l73 -142l-179 -82 q155 -143 243.5 -341.5t88.5 -396.5q0 -116 -33 -219.5t-94.5 -182.5t-157.5 -125t-213 -46q-220 0 -360 146t-140 370zM332 492q0 -44 8 -85.5t27 -81t47 -68.5t70 -47t94 -18q66 0 115 27.5t76.5 74.5t40 100.5t12.5 114.5q0 53 -16.5 115t-34.5 82q-45 50 -89.5 67 t-102.5 17q-68 0 -118 -24.5t-77 -67.5t-39.5 -94t-12.5 -112z" />
<glyph unicode="&#xf1;" horiz-adv-x="1167" d="M134 0h254l-1 682q42 82 101 137t131 55q170 0 170 -216v-658h253v657q0 77 -10.5 142.5t-37 126.5t-67.5 102.5t-105.5 63.5t-147.5 16q-88 -6 -159 -46t-139 -123l-8 153h-234v-1092zM212 1247q0 66 10 116.5t33 94t67.5 67t108.5 23.5q71 0 185 -59q55 -30 75 -38 q37 -16 60 -16q32 0 46.5 29t19.5 91h153q0 -52 -5.5 -94t-20.5 -82t-39 -67.5t-63 -44t-91 -16.5q-85 0 -192 62q-9 5 -23.5 13.5t-26 15t-21.5 11.5q-35 16 -59 16q-36 0 -50.5 -26.5t-27.5 -96.5z" />
<glyph unicode="&#xf2;" horiz-adv-x="1155" d="M81 544q0 73 15.5 147.5t53.5 151t93.5 135.5t142.5 96.5t193 37.5q109 0 196.5 -37.5t142 -96t90.5 -135.5t50.5 -151t14.5 -147q0 -81 -17 -160t-55.5 -154.5t-94.5 -132.5t-140.5 -91.5t-186.5 -34.5q-104 0 -189.5 35t-141.5 92.5t-94.5 133t-55.5 153.5t-17 158z M193 1570h296l241 -345h-197zM335 545q0 -141 69 -245t174 -104q109 0 175.5 101.5t66.5 245.5q0 152 -61.5 248.5t-179.5 96.5q-78 0 -135 -51t-83 -127.5t-26 -164.5z" />
<glyph unicode="&#xf3;" horiz-adv-x="1155" d="M81 544q0 73 15.5 147.5t53.5 151t93.5 135.5t142.5 96.5t193 37.5q109 0 196.5 -37.5t142 -96t90.5 -135.5t50.5 -151t14.5 -147q0 -81 -17 -160t-55.5 -154.5t-94.5 -132.5t-140.5 -91.5t-186.5 -34.5q-104 0 -189.5 35t-141.5 92.5t-94.5 133t-55.5 153.5t-17 158z M335 545q0 -141 69 -245t174 -104q109 0 175.5 101.5t66.5 245.5q0 152 -61.5 248.5t-179.5 96.5q-78 0 -135 -51t-83 -127.5t-26 -164.5zM429 1225l242 345h295l-339 -345h-198z" />
<glyph unicode="&#xf4;" horiz-adv-x="1155" d="M81 544q0 73 15.5 147.5t53.5 151t93.5 135.5t142.5 96.5t193 37.5q109 0 196.5 -37.5t142 -96t90.5 -135.5t50.5 -151t14.5 -147q0 -81 -17 -160t-55.5 -154.5t-94.5 -132.5t-140.5 -91.5t-186.5 -34.5q-104 0 -189.5 35t-141.5 92.5t-94.5 133t-55.5 153.5t-17 158z M189 1212l310 380h160l310 -380h-201l-190 193l-189 -193h-200zM335 545q0 -141 69 -245t174 -104q109 0 175.5 101.5t66.5 245.5q0 152 -61.5 248.5t-179.5 96.5q-78 0 -135 -51t-83 -127.5t-26 -164.5z" />
<glyph unicode="&#xf5;" horiz-adv-x="1155" d="M81 544q0 73 15.5 147.5t53.5 151t93.5 135.5t142.5 96.5t193 37.5q109 0 196.5 -37.5t142 -96t90.5 -135.5t50.5 -151t14.5 -147q0 -81 -17 -160t-55.5 -154.5t-94.5 -132.5t-140.5 -91.5t-186.5 -34.5q-104 0 -189.5 35t-141.5 92.5t-94.5 133t-55.5 153.5t-17 158z M210 1237q0 52 6 94t21 81.5t39 66.5t63 43t91 16q72 0 184 -59q52 -28 76 -38q37 -16 60 -16q31 0 46 29.5t19 90.5h153q0 -66 -9.5 -116.5t-32.5 -95t-67.5 -68.5t-108.5 -24q-87 0 -192 62q-9 5 -23.5 13.5t-26 15t-21.5 11.5q-35 16 -60 16q-36 0 -50 -26.5t-27 -96.5z M335 545q0 -141 69 -245t174 -104q109 0 175.5 101.5t66.5 245.5q0 152 -61.5 248.5t-179.5 96.5q-78 0 -135 -51t-83 -127.5t-26 -164.5z" />
<glyph unicode="&#xf6;" horiz-adv-x="1155" d="M81 544q0 73 15.5 147.5t53.5 151t93.5 135.5t142.5 96.5t193 37.5q109 0 196.5 -37.5t142 -96t90.5 -135.5t50.5 -151t14.5 -147q0 -81 -17 -160t-55.5 -154.5t-94.5 -132.5t-140.5 -91.5t-186.5 -34.5q-104 0 -189.5 35t-141.5 92.5t-94.5 133t-55.5 153.5t-17 158z M228 1394q0 54 38.5 93.5t93.5 39.5t94 -39t39 -94q0 -56 -38.5 -94.5t-94.5 -38.5q-55 0 -93.5 39t-38.5 94zM335 545q0 -141 69 -245t174 -104q109 0 175.5 101.5t66.5 245.5q0 152 -61.5 248.5t-179.5 96.5q-78 0 -135 -51t-83 -127.5t-26 -164.5zM668 1394 q0 54 38.5 93.5t93.5 39.5t94 -39t39 -94q0 -56 -38.5 -94.5t-94.5 -38.5q-55 0 -93.5 39t-38.5 94z" />
<glyph unicode="&#xf7;" horiz-adv-x="1332" d="M149 592v215h1034v-215h-1034zM511 276q0 64 45.5 110t110.5 46q63 0 108.5 -46t45.5 -110t-45.5 -109.5t-108.5 -45.5q-65 0 -110.5 45.5t-45.5 109.5zM511 1122q0 64 45.5 110t110.5 46q63 0 108.5 -46t45.5 -110t-45.5 -109t-108.5 -45q-65 0 -110.5 45t-45.5 109z " />
<glyph unicode="&#xf8;" horiz-adv-x="1141" d="M-18 33l175 183q-81 146 -81 328q0 73 15.5 147.5t53.5 151t93 135.5t142 96.5t193 37.5q198 0 325 -120l140 146l121 -97l-167 -176q76 -142 76 -320q0 -81 -17 -160t-55.5 -154t-94.5 -131t-141 -90.5t-187 -34.5q-191 0 -318 115l-149 -157zM330 545q0 -67 17 -130 l385 403q-60 70 -159 70q-77 0 -134 -51t-83 -127.5t-26 -164.5zM425 268q63 -69 147 -69q110 0 176.5 100t66.5 244q0 66 -12 123z" />
<glyph unicode="&#xf9;" horiz-adv-x="1156" d="M121 422v670h253v-671q0 -216 171 -216q72 0 131 54.5t100 137.5l-1 695h254v-1092h-223l-19 140q-68 -84 -139 -123.5t-159 -45.5q-83 -6 -147.5 16t-105 63.5t-67.5 102t-37.5 126.5t-10.5 143zM183 1570h295l243 -345h-199z" />
<glyph unicode="&#xfa;" horiz-adv-x="1156" d="M121 422v670h253v-671q0 -216 171 -216q72 0 131 54.5t100 137.5l-1 695h254v-1092h-223l-19 140q-68 -84 -139 -123.5t-159 -45.5q-83 -6 -147.5 16t-105 63.5t-67.5 102t-37.5 126.5t-10.5 143zM440 1225l241 345h297l-341 -345h-197z" />
<glyph unicode="&#xfb;" horiz-adv-x="1156" d="M121 422v670h253v-671q0 -216 171 -216q72 0 131 54.5t100 137.5l-1 695h254v-1092h-223l-19 140q-68 -84 -139 -123.5t-159 -45.5q-83 -6 -147.5 16t-105 63.5t-67.5 102t-37.5 126.5t-10.5 143zM198 1212l310 380h160l310 -380h-201l-189 193l-189 -193h-201z" />
<glyph unicode="&#xfc;" horiz-adv-x="1156" d="M121 422v670h253v-671q0 -216 171 -216q72 0 131 54.5t100 137.5l-1 695h254v-1092h-223l-19 140q-68 -84 -139 -123.5t-159 -45.5q-83 -6 -147.5 16t-105 63.5t-67.5 102t-37.5 126.5t-10.5 143zM235 1394q0 54 38.5 93.5t93.5 39.5q56 0 94.5 -39t38.5 -94 q0 -56 -39 -94.5t-94 -38.5t-93.5 39t-38.5 94zM675 1394q0 54 38.5 93.5t93.5 39.5q56 0 94.5 -39t38.5 -94q0 -56 -39 -94.5t-94 -38.5t-93.5 39t-38.5 94z" />
<glyph unicode="&#xfd;" horiz-adv-x="1059" d="M15 1092l403 -1058q-75 -198 -101 -232q-15 -18 -31.5 -23.5t-43.5 -5.5q-16 0 -36 3.5t-44 10t-36 8.5l-32 -203q104 -30 162 -30q147 0 221 58.5t124 202.5l444 1269h-277q-144 -463 -161 -515l-69 -225h-9q-54 187 -69 230l-168 510h-277zM396 1225l242 345h297 l-341 -345h-198z" />
<glyph unicode="&#xfe;" horiz-adv-x="1261" d="M134 -451v1935l251 93v-625q62 71 144.5 114.5t169.5 43.5q95 0 171.5 -33.5t126 -89t83 -131t47.5 -155t14 -166.5q0 -90 -16 -171t-51.5 -154t-88 -126t-131 -84t-174.5 -31q-76 0 -152.5 39t-142.5 108v-475zM385 391q37 -85 105.5 -135t157.5 -50q76 0 131.5 54 t79.5 128t24 155q0 65 -14 122.5t-43 105t-78 75.5t-114 28q-81 0 -146 -45t-103 -120v-318z" />
<glyph unicode="&#xff;" horiz-adv-x="1059" d="M15 1092l403 -1058q-75 -198 -101 -232q-15 -18 -31.5 -23.5t-43.5 -5.5q-16 0 -36 3.5t-44 10t-36 8.5l-32 -203q104 -30 162 -30q147 0 221 58.5t124 202.5l444 1269h-277q-144 -463 -161 -515l-69 -225h-9q-54 187 -69 230l-168 510h-277zM180 1394q0 54 38.5 93.5 t93.5 39.5t94 -39t39 -94q0 -56 -38.5 -94.5t-94.5 -38.5q-55 0 -93.5 39t-38.5 94zM620 1394q0 54 38.5 93.5t93.5 39.5t94 -39t39 -94q0 -56 -38.5 -94.5t-94.5 -38.5q-55 0 -93.5 39t-38.5 94z" />
<glyph unicode="&#x152;" horiz-adv-x="2126" d="M103 755q0 111 23 219t72 207.5t119 175t171 120.5t221 45q97 0 190 -44.5t150 -122.5h6v149h979l-15 -251h-701v-369h590l-17 -244h-573v-391h725l-15 -249h-973v143h-6q-147 -171 -339 -171q-97 0 -180.5 26t-144.5 70t-110 106t-80.5 131t-52.5 147.5t-30 153 t-9 149.5zM385 753q0 -72 10.5 -141.5t36 -140.5t63.5 -124t98.5 -86.5t136.5 -33.5q58 0 106 19.5t80.5 51.5t57.5 77.5t39.5 92t23.5 100.5t12 98t3 89q0 81 -9.5 153t-33 140t-59 116.5t-92.5 78t-129 29.5q-74 0 -135 -35.5t-99 -91t-63.5 -126.5t-36 -137.5 t-10.5 -128.5z" />
<glyph unicode="&#x153;" horiz-adv-x="1851" d="M81 544q0 73 15.5 147.5t53.5 151t93.5 135.5t142.5 96.5t193 37.5q217 0 355 -208h9q65 93 159.5 149.5t212.5 56.5q99 0 178 -33.5t129.5 -87.5t84.5 -127.5t48 -149.5t14 -157q0 -12 -5 -82h-704q3 -131 63.5 -206.5t172.5 -75.5q87 0 154.5 34t126.5 127l184 -122 q-86 -145 -192.5 -201.5t-281.5 -56.5q-219 0 -351 192h-7q-138 -189 -350 -189q-104 0 -189.5 35t-141.5 91.5t-94.5 131.5t-55.5 153t-17 158zM335 545q0 -141 69 -243.5t174 -102.5q73 0 129 48t84.5 125.5t28.5 170.5q0 152 -61.5 248.5t-179.5 96.5q-78 0 -135 -51 t-83 -127.5t-26 -164.5zM1072 647h450q-10 109 -65 175t-154 66q-94 0 -154 -69t-77 -172z" />
<glyph unicode="&#x178;" horiz-adv-x="1292" d="M10 1504h309q248 -486 277 -538q9 -17 30.5 -67.5t24.5 -57.5q5 11 25 59t28 63l281 541h297l-502 -912v-592h-266v590zM330 1784q0 49 34.5 85t84.5 36t85.5 -35.5t35.5 -85.5t-35.5 -85t-85.5 -35q-49 0 -84 35t-35 85zM770 1784q0 49 34.5 85t84.5 36t85.5 -35.5 t35.5 -85.5t-35.5 -85t-85.5 -35q-49 0 -84 35t-35 85z" />
<glyph unicode="&#x2c6;" horiz-adv-x="937" d="M78 1212l310 380h160l310 -380h-201l-189 193l-189 -193h-201z" />
<glyph unicode="&#x2dc;" horiz-adv-x="855" d="M48 1227q0 66 10 116.5t33.5 94t68 67t108.5 23.5q71 0 185 -59q55 -30 75 -38q37 -16 60 -16q31 0 45.5 29t19.5 91h154q0 -66 -10 -116.5t-33 -95t-67.5 -68.5t-108.5 -24q-85 0 -192 62q-9 5 -23.5 13.5t-26 15t-21.5 11.5q-35 16 -59 16q-37 0 -51.5 -27t-25.5 -96z " />
<glyph unicode="&#x2000;" horiz-adv-x="1006" />
<glyph unicode="&#x2001;" horiz-adv-x="2012" />
<glyph unicode="&#x2002;" horiz-adv-x="1006" />
<glyph unicode="&#x2003;" horiz-adv-x="2012" />
<glyph unicode="&#x2004;" horiz-adv-x="670" />
<glyph unicode="&#x2005;" horiz-adv-x="503" />
<glyph unicode="&#x2006;" horiz-adv-x="335" />
<glyph unicode="&#x2007;" horiz-adv-x="335" />
<glyph unicode="&#x2008;" horiz-adv-x="251" />
<glyph unicode="&#x2009;" horiz-adv-x="402" />
<glyph unicode="&#x200a;" horiz-adv-x="111" />
<glyph unicode="&#x2010;" horiz-adv-x="737" d="M93 613v225h551v-225h-551z" />
<glyph unicode="&#x2011;" horiz-adv-x="737" d="M93 613v225h551v-225h-551z" />
<glyph unicode="&#x2012;" horiz-adv-x="737" d="M93 613v225h551v-225h-551z" />
<glyph unicode="&#x2013;" horiz-adv-x="1138" d="M93 613v225h944v-225h-944z" />
<glyph unicode="&#x2014;" horiz-adv-x="1973" d="M93 613v225h1786v-225h-1786z" />
<glyph unicode="&#x2018;" horiz-adv-x="532" d="M111 892l123 613h159l-18 -613h-264z" />
<glyph unicode="&#x2019;" horiz-adv-x="532" d="M139 892l17 613h265l-124 -613h-158z" />
<glyph unicode="&#x201a;" horiz-adv-x="518" d="M139 -348l22 593h246l-131 -593h-137z" />
<glyph unicode="&#x201c;" horiz-adv-x="1026" d="M111 892l119 613h175l-18 -613h-276zM593 892l119 613h175l-18 -613h-276z" />
<glyph unicode="&#x201d;" horiz-adv-x="1054" d="M139 892l18 613h276l-119 -613h-175zM621 892l18 613h276l-118 -613h-176z" />
<glyph unicode="&#x201e;" horiz-adv-x="1057" d="M139 -378l24 623h289l-145 -623h-168zM634 -378l24 623h288l-144 -623h-168z" />
<glyph unicode="&#x2022;" horiz-adv-x="768" d="M149 750q0 97 69 168t166 71t166 -71t69 -168q0 -98 -69 -167t-166 -69t-166 69t-69 167z" />
<glyph unicode="&#x2026;" horiz-adv-x="1902" d="M103 162q0 76 54 130t130 54t130 -54t54 -130t-54 -130t-130 -54t-130 54t-54 130zM767 162q0 76 54 130t130 54t130 -54t54 -130t-53.5 -130t-130.5 -54q-76 0 -130 54t-54 130zM1431 162q0 76 54 130t130 54t130 -54t54 -130t-53.5 -130t-130.5 -54q-76 0 -130 54 t-54 130z" />
<glyph unicode="&#x202f;" horiz-adv-x="402" />
<glyph unicode="&#x2030;" horiz-adv-x="2872" d="M111 1056q0 67 10.5 130t36.5 125t64.5 107.5t99.5 74t136 28.5t134.5 -28t97.5 -73.5t63 -106.5t35 -123t10 -128q0 -67 -10.5 -130.5t-35.5 -125.5t-63.5 -108t-99 -74.5t-136.5 -28.5q-74 0 -134 28.5t-98 74.5t-63.5 107t-36 123.5t-10.5 127.5zM316 1056 q0 -132 40.5 -204.5t100.5 -72.5q56 0 95.5 74t39.5 205q0 136 -39 208t-96 72q-58 0 -99.5 -75t-41.5 -207zM569 0l730 1503h202l-731 -1503h-201zM1258 434q0 67 10.5 130t36.5 124.5t64.5 107.5t99 74t135.5 28q93 0 162 -41.5t106.5 -111t55 -146t17.5 -159.5 q0 -67 -10.5 -130.5t-36 -126t-63.5 -108.5t-99 -74.5t-137 -28.5q-74 0 -133.5 28.5t-97.5 74.5t-63.5 108t-36 124t-10.5 127zM1463 434q0 -132 40.5 -205t99.5 -73q57 0 96.5 74t39.5 206q0 135 -39 207t-97 72q-57 0 -98.5 -74.5t-41.5 -206.5zM2103 434q0 67 10.5 130 t36.5 124.5t64.5 107.5t99 74t135.5 28q93 0 162 -41.5t106.5 -111t55 -146t17.5 -159.5q0 -68 -10 -131t-35.5 -125.5t-64 -108.5t-99 -74.5t-137.5 -28.5q-74 0 -133.5 28.5t-97.5 74.5t-63.5 108t-36 124t-10.5 127zM2308 434q0 -132 40.5 -205t99.5 -73q57 0 96.5 74 t39.5 206q0 135 -39 207t-97 72q-57 0 -98.5 -74.5t-41.5 -206.5z" />
<glyph unicode="&#x2039;" horiz-adv-x="791" d="M49 557l394 534h252l-394 -536l398 -555h-257z" />
<glyph unicode="&#x203a;" horiz-adv-x="785" d="M82 0l399 555l-395 536h252l394 -534l-393 -557h-257z" />
<glyph unicode="&#x205f;" horiz-adv-x="503" />
<glyph unicode="&#x20ac;" horiz-adv-x="1309" d="M17 480l52 185h140q-5 35 -5 75q0 42 6 83h-174l52 186h148q21 101 70 191.5t122.5 163t177.5 115t225 42.5q50 0 98.5 -10.5t104 -35.5t108.5 -75.5t95 -122.5l-190 -130q-88 138 -220 138q-107 0 -195 -77t-128 -199h472l-50 -186h-460q-6 -50 -6 -81q0 -29 6 -77h462 l-49 -185h-378q32 -123 111 -196.5t177 -73.5q45 0 71.5 2.5t68.5 14.5t87 41t100 76l145 -181q-188 -192 -451 -192q-122 0 -224 41.5t-172 114t-115.5 161.5t-65.5 192h-216z" />
<glyph unicode="&#x2122;" horiz-adv-x="1632" d="M38 1366v140h605v-140h-222v-709h-157v709h-226zM763 657v849h153l241 -467l238 467h155v-849h-154v560l-189 -399h-101l-189 402v-563h-154z" />
<glyph unicode="&#x2190;" horiz-adv-x="1410" d="M97 665v41l567 537l117 -160l-320 -293h852v-207h-854l324 -294l-121 -162z" />
<glyph unicode="&#x2191;" horiz-adv-x="1310" d="M97 678l538 565h41l537 -567l-160 -119l-295 321v-851h-205v853l-296 -323z" />
<glyph unicode="&#x2192;" horiz-adv-x="1410" d="M97 583v207h852l-320 293l117 160l567 -537v-41l-565 -538l-119 162l322 294h-854z" />
<glyph unicode="&#x2193;" horiz-adv-x="1308" d="M97 592l160 116l293 -319v852h206v-854l295 323l160 -120l-537 -565h-41z" />
<glyph unicode="&#x25fc;" horiz-adv-x="1090" d="M0 0v1090h1090v-1090h-1090z" />
<glyph horiz-adv-x="1023" d="M78 985l430 150h166v-914h264v-221h-788v221h286v656l-303 -101z" />
<glyph horiz-adv-x="1024" d="M100 915q84 125 186.5 181.5t231.5 56.5q167 0 283 -94t116 -258q0 -50 -17.5 -96.5t-41 -79t-65.5 -69t-72 -57.5t-80 -52q-5 -3 -42.5 -26.5t-55.5 -35.5q-46 -30 -86 -63q-61 -51 -84 -99h534v-223h-801v115q0 82 25.5 153t73 127.5t94 96t109.5 82.5q32 23 98 65 t94 63q78 58 78 99q0 60 -44 95.5t-114 35.5q-69 0 -119 -31.5t-110 -112.5z" />
<glyph horiz-adv-x="1069" d="M80 90l174 127q101 -155 265 -155q114 0 170.5 61.5t56.5 149.5q0 83 -49.5 128.5t-134.5 45.5h-134v202h144q64 0 97.5 46t33.5 114q0 48 -47.5 91.5t-126.5 43.5q-139 0 -244 -149l-166 123q43 68 98 116.5t111 73t106 35t99 10.5q57 0 112.5 -12t107.5 -39t91.5 -66 t63.5 -97.5t24 -129.5q0 -75 -34.5 -142t-106.5 -104v-10q83 -25 137.5 -98t54.5 -184q0 -200 -131.5 -315t-341.5 -115q-77 0 -149 20.5t-150 78.5t-131 150z" />
<glyph horiz-adv-x="1124" d="M33 125v170l664 840h188v-787h158v-223h-158v-274h-233v274h-619zM336 348h316v408q-43 -56 -161.5 -208.5t-154.5 -199.5z" />
<glyph horiz-adv-x="1105" d="M107 90l176 129q59 -90 118 -122.5t124 -32.5q58 0 103.5 21t71.5 54t39 68.5t13 69.5q0 106 -56.5 162.5t-134.5 56.5q-50 0 -98 -16t-115 -68l-165 45l45 678h686v-215h-482l-20 -252q72 39 182 39q77 0 147.5 -28t126 -80t88.5 -134.5t33 -183.5q0 -201 -130.5 -320.5 t-340.5 -119.5q-267 0 -411 249z" />
<glyph horiz-adv-x="1085" d="M103 557q0 69 4.5 133t18 140.5t35.5 140t60 125.5t87.5 105t122.5 69t161 26q220 0 362 -213l-166 -114q-91 112 -200 112q-63 0 -111.5 -30t-78.5 -82t-46 -114t-20 -134q108 108 262 108q190 0 300.5 -112t110.5 -303q0 -199 -125 -318.5t-329 -119.5q-105 0 -186 37 t-129.5 94.5t-79.5 137t-42 155t-11 157.5zM348 420q0 -101 57.5 -163t157.5 -62q98 0 152.5 58.5t54.5 158.5q0 207 -215 207q-80 0 -143.5 -61.5t-63.5 -137.5z" />
<glyph horiz-adv-x="928" d="M68 918v217h796v-158q-128 -367 -446 -1122h-250q301 723 430 1063h-530z" />
<glyph horiz-adv-x="1139" d="M102 355q0 197 225 309v6q-77 42 -126.5 112.5t-49.5 153.5q0 107 60.5 190.5t155.5 125.5t204 42q110 0 203 -40.5t153 -123.5t60 -192q0 -84 -48.5 -150.5t-127.5 -111.5v-6q227 -115 227 -313q0 -94 -38.5 -168.5t-104.5 -121t-149 -71t-175 -24.5q-90 0 -173 24.5 t-149.5 71t-106.5 121t-40 166.5zM334 369q0 -85 67 -132.5t170 -47.5q105 0 170.5 45t65.5 131q0 95 -65.5 147.5t-172.5 52.5q-109 0 -172 -50t-63 -146zM383 926q0 -76 50 -117t138 -41q83 0 134.5 44t51.5 118q0 73 -49.5 114t-136.5 41q-89 0 -138.5 -42t-49.5 -117z " />
<glyph horiz-adv-x="1081" d="M80 733q0 121 63 218.5t165 149.5t220 52q115 0 204 -44.5t141 -120t78 -167t26 -194.5q0 -81 -3.5 -149t-16 -151.5t-33 -149.5t-57 -131.5t-85.5 -109t-121.5 -70.5t-162.5 -27q-231 0 -383 198l188 115q90 -96 199 -96t171.5 105.5t71.5 285.5q-120 -117 -272 -117 q-160 0 -276.5 113.5t-116.5 289.5zM315 739q0 -93 53.5 -146.5t151.5 -53.5q78 0 143.5 58.5t65.5 135.5q0 94 -59.5 150.5t-153.5 56.5q-89 0 -145 -55t-56 -146z" />
<glyph horiz-adv-x="1158" d="M89 565q0 76 14.5 153t50.5 156.5t89.5 140.5t140 99.5t194.5 38.5q111 0 199 -38.5t141.5 -98t88.5 -139.5t48.5 -156t13.5 -153q0 -86 -16 -167.5t-53.5 -159.5t-92.5 -136t-140 -93.5t-189 -35.5q-105 0 -190 36t-139.5 94.5t-91.5 136.5t-52.5 158t-15.5 164z M326 565q0 -152 69.5 -260t182.5 -108q80 0 138 52t85 133t27 181q0 106 -24 186t-81.5 130.5t-144.5 50.5q-63 0 -113 -31.5t-79.5 -84t-44.5 -116t-15 -133.5z" />
</font>
</defs>
</svg>
