<?xml version="1.0" standalone="no"?>
<!DOCTYPE svg PUBLIC "-//W3C//DTD SVG 1.1//EN" "http://www.w3.org/Graphics/SVG/1.1/DTD/svg11.dtd" >
<svg xmlns="http://www.w3.org/2000/svg">
<metadata></metadata>
<defs>
<font id="madrasblack" horiz-adv-x="1482" >
<font-face units-per-em="2048" ascent="1628" descent="-420" />
<missing-glyph horiz-adv-x="488" />
<glyph unicode="&#xfb00;" horiz-adv-x="1466" d="M11 871v223h179v124q0 153 101.5 245.5t257.5 92.5q79 0 236 -45l-49 -231q-105 23 -152 23q-53 0 -71.5 -25t-18.5 -68v-116h395v124q0 153 101.5 245.5t257.5 92.5q78 0 236 -45l-49 -231q-105 23 -152 23q-53 0 -71.5 -25t-18.5 -68v-116h225v-224l-224 1v-871h-305 v870h-179l-215 1v-871h-305v871h-179z" />
<glyph unicode="&#xfb01;" horiz-adv-x="1365" d="M10 871h179v-871h305v871h432v-871h303v1094h-736v116q0 43 18.5 68t71.5 25q47 0 152 -23l49 231q-158 45 -236 45q-156 0 -257.5 -92.5t-101.5 -245.5v-124h-179v-223zM875 1452q0 84 59 138.5t140 54.5t140.5 -54.5t59.5 -138.5q0 -83 -60 -138.5t-140 -55.5 q-81 0 -140 54.5t-59 139.5z" />
<glyph unicode="&#xfb02;" horiz-adv-x="1390" d="M12 871v223h179v26q0 50 3.5 90t16 86.5t33.5 82t58.5 70.5t88 57.5t124.5 36t167 13.5q95 0 171 -14t127 -36.5t88 -58.5t57.5 -71t32 -83.5t15 -87.5t3.5 -90v-809q0 -31 20 -54t56 -23q18 0 60 9t48 10l31 -219q-125 -43 -200 -43q-163 0 -241.5 75.5t-78.5 235.5v812 q0 20 -1.5 39t-12.5 49.5t-30 52.5t-57 38.5t-90 16.5t-89.5 -16.5t-56 -38t-28 -52.5t-11 -50t-0.5 -39v-15h225v-223h-224v-871h-305v871h-179z" />
<glyph unicode="&#xfb03;" horiz-adv-x="2047" d="M11 871v223h179v124q0 153 101.5 245.5t257.5 92.5q79 0 236 -45l-49 -231q-105 23 -152 23q-53 0 -71.5 -25t-18.5 -68v-116h395v124q0 153 101.5 245.5t257.5 92.5q78 0 236 -45l-49 -231q-105 23 -152 23q-53 0 -71.5 -25t-18.5 -68v-116h719v-1094h-303v870h-191 l-224 1v-871h-305v870h-179l-215 1v-871h-305v871h-179zM1558 1452q0 84 59 138.5t140 54.5t140.5 -54.5t59.5 -138.5q0 -83 -60 -138.5t-140 -55.5q-81 0 -140 54.5t-59 139.5z" />
<glyph unicode="&#xfb04;" horiz-adv-x="2088" d="M11 871v223h178v124q0 153 101.5 245.5t257.5 92.5q81 0 236 -45l-48 -231q-105 23 -152 23q-54 0 -72 -25t-18 -68v-116h394v24q0 50 4 90t16.5 87t33.5 82.5t58 70.5t88 57.5t125 36.5t167 14q74 0 136.5 -8.5t109.5 -23t84.5 -37t63 -47t44 -57t29.5 -62t17 -67.5 t8 -69t2 -70v-809q0 -31 19.5 -54t56.5 -23q18 0 59 9t48 10l32 -219q-127 -43 -200 -43q-164 0 -242.5 75.5t-78.5 235.5v812q0 20 -1.5 39t-12 49.5t-29.5 52.5t-57 38.5t-90 16.5t-89.5 -16t-56 -37.5t-28 -51.5t-11 -49t-0.5 -39v-18h224v-223h-223v-871h-306v871h-393 v-871h-306v871h-178z" />
<glyph unicode="ft" horiz-adv-x="1462" d="M12 869v223h179v126q0 153 101.5 245.5t257.5 92.5q78 0 236 -45l-49 -231q-105 23 -152 23q-53 0 -71.5 -25t-18.5 -68v-118h394v263l307 108v-371h241v-223h-241v-557q0 -85 85 -85q19 0 37.5 2.5t41 6t37.5 5.5l34 -213q-132 -42 -205 -42q-337 0 -337 308v575h-393 v-869h-305v869h-179z" />
<glyph horiz-adv-x="0" />
<glyph horiz-adv-x="682" />
<glyph unicode=" "  horiz-adv-x="488" />
<glyph unicode="&#x09;" horiz-adv-x="488" />
<glyph unicode="&#xa0;" horiz-adv-x="488" />
<glyph unicode="!" horiz-adv-x="674" d="M125 191q0 88 62 150t150 62q87 0 149 -62t62 -150t-62 -149.5t-149 -61.5q-88 0 -150 61.5t-62 149.5zM173 779v725h324v-725l-14 -248h-297z" />
<glyph unicode="&#x22;" horiz-adv-x="1088" d="M147 1505h302l-55 -733h-191zM639 1505h302l-55 -733h-191z" />
<glyph unicode="#" horiz-adv-x="1469" d="M111 360v215h245v362h-245v216h245v352h240v-352h278v352h239v-352h245v-216h-245v-362h245v-215h-245v-360h-239v360h-278v-360h-240v360h-245zM596 575h278v362h-278v-362z" />
<glyph unicode="$" horiz-adv-x="1299" d="M88 278l244 153q74 -99 152.5 -142.5t186.5 -43.5q97 0 152 48t55 140q0 43 -24.5 73.5t-74.5 54.5q-38 18 -111 41q-12 4 -58 17.5t-71 22.5q-62 20 -108 40.5t-97.5 56t-84.5 78.5t-55 109t-22 147q0 166 91.5 284.5t253.5 155.5v221h281l1 -223q214 -51 360 -270 l-233 -160q-63 86 -128 127.5t-150 41.5q-80 0 -125 -50.5t-45 -132.5q0 -42 24.5 -71t74.5 -52q36 -16 110 -38q104 -30 130 -38q61 -19 107.5 -38.5t98 -55t84.5 -79t55 -109.5t22 -148q0 -181 -102.5 -301t-282.5 -156l-1 -218h-281v217q-262 50 -429 298z" />
<glyph unicode="%" horiz-adv-x="2158" d="M107 1048q0 66 10.5 129t37 126.5t66.5 111t103 77t142 29.5q97 0 169 -43.5t110 -115t55.5 -148.5t17.5 -160q0 -66 -10 -129.5t-36 -127.5t-65.5 -111t-102.5 -77t-143 -30q-77 0 -139.5 30t-101.5 77t-65.5 110t-37 125.5t-10.5 126.5zM347 1048q0 -124 35.5 -187 t82.5 -63q43 0 78 64t35 188q0 128 -34.5 190.5t-78.5 62.5q-45 0 -81.5 -65t-36.5 -190zM605 0l730 1503h232l-731 -1503h-231zM1340 442q0 66 10.5 129t37 126.5t66 110.5t102.5 76.5t142 29.5t141.5 -29.5t101 -76t64.5 -109.5t36 -125t10 -127q0 -66 -10.5 -129.5 t-36.5 -127.5t-65 -111t-102.5 -77t-143.5 -30q-77 0 -139.5 30t-101.5 77.5t-65 110.5t-36.5 125.5t-10.5 126.5zM1579 442q0 -125 36 -188t82 -63q44 0 78.5 64t34.5 189q0 128 -34.5 190t-78.5 62t-81 -65t-37 -189z" />
<glyph unicode="&#x26;" horiz-adv-x="1528" d="M109 410q0 75 24.5 142t69.5 120.5t93.5 94t110.5 79.5q-55 74 -77 113q-57 102 -57 218q0 107 61 188t151.5 119t192.5 38q52 0 103.5 -12.5t110 -41t116 -84t104.5 -133.5l-229 -153q-33 49 -63.5 81.5t-57.5 46t-46 17.5t-42 4q-91 0 -91 -80q0 -68 69 -159 q32 -40 49 -61l289 -355q53 151 61 284l251 -65q-31 -210 -139 -435l304 -376h-377q-23 28 -65.5 80.5t-44.5 55.5q-86 -76 -174.5 -119.5t-202.5 -43.5q-101 0 -190.5 29t-157 83.5t-107 138t-39.5 186.5zM410 404q0 -63 58.5 -112.5t133.5 -49.5q142 0 226 81 q-126 156 -266 331q-152 -103 -152 -250z" />
<glyph unicode="'" horiz-adv-x="592" d="M145 1505h302l-55 -733h-191z" />
<glyph unicode="(" horiz-adv-x="689" d="M112 589q0 271 97.5 506.5t270.5 456.5l122 -128q-123 -193 -192.5 -407t-69.5 -418q0 -366 255 -787l-125 -130q-54 76 -82.5 118t-73 112.5t-68.5 119.5t-53.5 120t-44.5 134t-25.5 141.5t-10.5 161.5z" />
<glyph unicode=")" horiz-adv-x="689" d="M87 1424l124 128q366 -470 366 -944q0 -137 -26.5 -262.5t-80.5 -242.5t-109.5 -209t-140.5 -212l-124 130q253 424 253 777q0 205 -70 425t-192 410z" />
<glyph unicode="*" horiz-adv-x="799" d="M103 1203v149l192 -12l-120 187l138 78l86 -189l84 186l141 -77l-120 -185l192 12v-149l-194 13l122 -188l-141 -76l-84 187l-85 -189l-139 79l120 187z" />
<glyph unicode="+" horiz-adv-x="1137" d="M97 583v231h358v380h237v-380h348v-231h-348v-385h-237v385h-358z" />
<glyph unicode="," horiz-adv-x="603" d="M107 -315l28 597h356l-169 -597h-215z" />
<glyph unicode="-" horiz-adv-x="791" d="M90 583v255h611v-255h-611z" />
<glyph unicode="." horiz-adv-x="621" d="M99 191q0 88 62 150t150 62q87 0 149 -62t62 -150t-62 -149.5t-149 -61.5q-88 0 -150 61.5t-62 149.5z" />
<glyph unicode="/" horiz-adv-x="873" d="M43 -171l571 1781h216l-569 -1781h-218z" />
<glyph unicode="0" horiz-adv-x="1298" d="M86 749q0 61 5 122t20 139.5t40 147t69 137t101.5 117t143 78.5t189.5 30q100 0 183 -30t139.5 -78.5t100 -117t68.5 -138.5t40.5 -149.5t21 -143t5.5 -126.5q0 -58 -5.5 -119t-21 -138.5t-41 -146t-69.5 -136.5t-100.5 -117t-140 -79t-184.5 -30q-106 0 -192.5 30.5 t-143.5 79.5t-100.5 118.5t-67 138t-38 149t-18.5 140t-4 122.5zM406 731q0 -233 63.5 -353.5t183.5 -120.5q106 0 173 131.5t67 352.5q0 230 -67.5 362.5t-174.5 132.5q-116 0 -180.5 -129t-64.5 -376z" />
<glyph unicode="1" horiz-adv-x="1120" d="M75 1347l465 157h209v-1216h289v-288h-913v288h311v880l-286 -94z" />
<glyph unicode="2" horiz-adv-x="1260" d="M96 1221q99 152 230 226t311 74q142 0 258.5 -52.5t189 -159.5t72.5 -252q0 -82 -33 -154t-87.5 -127t-121 -104t-139 -94t-136.5 -88t-117.5 -95.5t-77.5 -106.5h698v-288h-1042v148q0 117 41 219.5t106.5 176t144.5 137t158 113t144.5 92.5t106.5 86.5t41 84.5 q0 85 -57 129.5t-146 44.5q-104 0 -169.5 -42t-130.5 -134z" />
<glyph unicode="3" horiz-adv-x="1280" d="M77 271l232 172q39 -62 78 -101t79 -55.5t70 -21t75 -4.5q134 0 201.5 56.5t67.5 153.5q0 94 -57 145t-168 51h-218v259h221q88 0 121.5 38t33.5 118q0 59 -50 109t-140 50q-36 0 -55.5 -1t-54.5 -9.5t-61 -25t-60.5 -50t-67.5 -81.5l-222 161q44 72 98 125.5t104.5 83.5 t108.5 48t105 23.5t100 5.5q75 0 147 -15t138 -48t116 -81t79.5 -118.5t29.5 -154.5q0 -177 -168 -300q113 -31 175 -125.5t62 -228.5q0 -105 -34 -188.5t-90 -137t-134 -89t-161 -50t-176 -14.5q-61 0 -113.5 7t-111 26.5t-108.5 52t-100 87t-92 127.5z" />
<glyph unicode="4" horiz-adv-x="1351" d="M33 302v209q284 356 602 767q54 70 186 227h237v-951h216v-252h-216v-301h-315v301h-710zM396 554q45 1 106.5 1t135 -0.5t105.5 -0.5v451q-57 -77 -184.5 -241t-162.5 -210z" />
<glyph unicode="5" horiz-adv-x="1324" d="M102 292l246 167q134 -197 326 -197q92 0 157 70t65 166q0 91 -63.5 154.5t-156.5 63.5q-156 0 -272 -103l-221 80l52 812h902v-289h-622l-20 -278q96 66 241 66q139 0 248 -67.5t168 -182t59 -254.5q0 -143 -69 -263.5t-194 -192.5t-279 -72q-167 0 -315 76t-252 244z " />
<glyph unicode="6" horiz-adv-x="1285" d="M99 651q0 870 602 870q148 0 258.5 -60.5t203.5 -192.5l-242 -156q-105 126 -224 126q-65 0 -117.5 -35t-86 -94t-53.5 -122t-30 -133q162 142 325 142q148 0 256.5 -66.5t162.5 -178t54 -253.5q0 -233 -156.5 -378t-398.5 -145q-118 0 -214 39.5t-158 105t-104 154 t-60 182.5t-18 195zM423 501q0 -110 65.5 -178t177.5 -68q110 0 172.5 64t62.5 172q0 112 -64 172.5t-179 60.5q-103 0 -169 -64t-66 -159z" />
<glyph unicode="7" horiz-adv-x="1170" d="M65 1219v286h1042v-213q-6 -10 -60 -82.5t-114.5 -164t-114.5 -189.5q-229 -418 -229 -856h-313q0 526 342 1087q44 72 98 132h-651z" />
<glyph unicode="8" horiz-adv-x="1360" d="M98 423q0 113 76.5 218.5t192.5 153.5q-94 43 -152 129.5t-58 175.5q0 189 142.5 302.5t382.5 113.5q241 0 382.5 -111t141.5 -301q0 -89 -60.5 -174t-151.5 -129q115 -50 192 -155.5t77 -218.5q0 -90 -28.5 -164.5t-80 -128t-124 -90.5t-160 -55t-188.5 -18 q-126 0 -231.5 28t-184.5 83t-123.5 142t-44.5 199zM411 447q0 -85 64.5 -140t206.5 -55q144 0 207.5 52.5t63.5 138.5q0 39 -15 75.5t-46 68.5t-86 51.5t-126 19.5q-137 0 -203 -62t-66 -149zM471 1081q0 -66 53.5 -113.5t157.5 -47.5q98 0 154 51t56 115q0 66 -47 112 t-163 46q-115 0 -163 -48t-48 -115z" />
<glyph unicode="9" horiz-adv-x="1286" d="M77 998q0 154 72 273.5t198 184.5t285 65q119 0 214.5 -39.5t157.5 -105t104 -154t60 -183t18 -195.5q0 -869 -602 -869q-148 0 -258.5 60t-204.5 192l243 156q104 -125 224 -125q65 0 117.5 35t86 94t53.5 122t30 133q-163 -143 -325 -143q-148 0 -256.5 66.5 t-162.5 178t-54 254.5zM384 1004q0 -112 64 -172t179 -60q103 0 169 64t66 159q0 110 -65.5 177.5t-177.5 67.5q-110 0 -172.5 -64t-62.5 -172z" />
<glyph unicode=":" horiz-adv-x="621" d="M99 191q0 88 62 150t150 62q87 0 149 -62t62 -150t-62 -149.5t-149 -61.5q-88 0 -150 61.5t-62 149.5zM99 957q0 87 62 149t150 62q87 0 149 -62t62 -149q0 -88 -62 -150t-149 -62q-88 0 -150 62t-62 150z" />
<glyph unicode=";" horiz-adv-x="615" d="M93 962q0 88 62 150t150 62q87 0 149 -62t62 -150q0 -87 -62 -149t-149 -62q-88 0 -150 62t-62 149zM120 -288l26 543h324l-154 -543h-196z" />
<glyph unicode="&#x3c;" horiz-adv-x="861" d="M101 600v174l637 590v-333l-383 -343l383 -343v-337z" />
<glyph unicode="=" horiz-adv-x="1160" d="M143 367v211h874v-211h-874zM143 772v213h874v-213h-874z" />
<glyph unicode="&#x3e;" horiz-adv-x="861" d="M123 8v337l382 343l-382 343v333l637 -590v-174z" />
<glyph unicode="?" horiz-adv-x="1106" d="M77 1268q83 127 204.5 191.5t247.5 64.5q91 0 171 -21.5t145.5 -63.5t103.5 -113.5t38 -164.5q0 -66 -26.5 -129t-55.5 -100t-76 -88q-9 -10 -27.5 -29t-27.5 -28q-41 -45 -65 -82t-28 -76q-1 -12 -1 -98h-322v87q0 51 14 99t41.5 92t52 75t60.5 71q9 10 28.5 30.5 t28.5 30.5q34 38 48 57q39 52 39 89q0 45 -33.5 69.5t-96.5 24.5q-121 0 -219 -138zM302 191q0 88 62 150t149 62q88 0 150 -62t62 -150t-62 -149.5t-150 -61.5q-87 0 -149 61.5t-62 149.5z" />
<glyph unicode="@" horiz-adv-x="1677" d="M101 740q0 162 49 304t139.5 248.5t229.5 168t309 61.5q236 0 407 -98.5t256 -270t85 -397.5q0 -59 -12.5 -118.5t-40 -116.5t-66.5 -101t-97 -71t-127 -27q-160 0 -227 135q-7 2 -7 5q2 0 7 -1t8 -1q-101 -145 -262 -145q-125 0 -205.5 80.5t-80.5 203.5q0 301 506 306 q-1 92 -27 120.5t-118 28.5q-98 0 -214 -83l-91 132q63 59 142.5 91t155.5 32q74 0 130 -12t92.5 -38.5t59.5 -58.5t35 -81.5t16 -97t4 -115.5v-271q0 -39 18.5 -57t58.5 -18q57 0 95 46.5t52 105.5t14 124q0 279 -145 440.5t-422 161.5q-173 0 -298.5 -81t-186.5 -215.5 t-61 -305.5q0 -136 33 -246t98.5 -192t171.5 -126.5t245 -44.5q167 0 280 81l108 -127q-142 -126 -382 -126q-180 0 -320 55.5t-230.5 157t-137.5 242t-47 313.5zM650 601q0 -55 33.5 -86t91.5 -31q61 0 112.5 39.5t85.5 101.5v127h-8q-315 0 -315 -151z" />
<glyph unicode="A" d="M9 0l592 1504h282l592 -1504h-354l-112 285h-558l-111 -285h-331zM540 559l375 2q-155 495 -179 578h-6z" />
<glyph unicode="B" horiz-adv-x="1400" d="M157 0v1504h528q83 0 158.5 -14.5t145 -48t120 -82.5t80.5 -124t30 -168q0 -79 -34.5 -137t-109.5 -118q114 -47 179.5 -134.5t65.5 -203.5q0 -105 -26.5 -186t-74 -135t-117.5 -88.5t-153 -49.5t-185 -15h-607zM470 291h279q137 0 192 39.5t55 139.5q0 80 -54.5 126.5 t-167.5 46.5h-304v-352zM470 918h257q82 0 125 38.5t43 103.5q0 71 -52 117.5t-157 46.5h-216v-306z" />
<glyph unicode="C" horiz-adv-x="1407" d="M99 741q0 120 23 230.5t75 211.5t127.5 175.5t187.5 118.5t249 44q338 0 549 -317l-253 -171q-46 62 -90 102.5t-83 57.5t-67 22.5t-61 5.5q-142 0 -233 -129t-91 -350q0 -211 95 -341.5t226 -130.5q43 0 78.5 7.5t78 27.5t86 62.5t87.5 106.5l254 -170 q-205 -333 -568 -333q-137 0 -251 44.5t-190 119.5t-129 175t-76.5 208.5t-23.5 222.5z" />
<glyph unicode="D" horiz-adv-x="1479" d="M157 0v1505h393q151 0 277.5 -25.5t234 -83.5t182 -145.5t116.5 -217t42 -293.5q0 -317 -196 -521t-520 -219h-529zM483 296h160q76 0 150.5 27.5t138 79t103 135.5t39.5 187q0 256 -127 370t-389 114h-75v-913z" />
<glyph unicode="E" horiz-adv-x="1290" d="M157 0v1505h1043l-17 -293h-699v-304h624l-22 -287h-602v-322h725l-17 -299h-1035z" />
<glyph unicode="F" horiz-adv-x="1222" d="M157 0v1505h1017l-19 -297h-673v-307l623 2l-17 -293h-606v-610h-325z" />
<glyph unicode="G" horiz-adv-x="1479" d="M101 752q0 109 20 212t70 206.5t125.5 180t195.5 124.5t271 48q78 0 147.5 -14t145 -47.5t146.5 -99.5t131 -161l-254 -172q-44 64 -88 105.5t-87.5 59.5t-76.5 23.5t-78 5.5q-113 0 -190.5 -66t-111.5 -169.5t-34 -235.5q0 -231 84.5 -356t247.5 -125q76 0 150 44 t133 116v126h-298v262h614l1 -818h-265l-19 135q-186 -164 -374 -164q-135 0 -241 44t-173.5 116.5t-111.5 175t-62 211.5t-18 233z" />
<glyph unicode="H" horiz-adv-x="1438" d="M157 0v1504h325v-589h475v589h324v-1504h-324v618h-475v-618h-325z" />
<glyph unicode="I" horiz-adv-x="654" d="M157 0v1504h340v-1504h-340z" />
<glyph unicode="J" horiz-adv-x="982" d="M-2 22l65 278q176 -35 225 -35q135 0 182.5 57.5t47.5 210.5v970h324l1 -1000q0 -260 -125 -395t-397 -135q-127 0 -323 49z" />
<glyph unicode="K" horiz-adv-x="1407" d="M157 0v1504h323v-569l490 569l425 2l-523 -582l534 -924h-396l-380 697l-149 -168l-1 -529h-323z" />
<glyph unicode="L" horiz-adv-x="1194" d="M157 0v1504h329l-1 -1204h681l-17 -300h-992z" />
<glyph unicode="M" horiz-adv-x="1744" d="M157 0v1504h339q369 -738 377 -762l376 762h338v-1504h-317v988h-4l-285 -662h-215q-260 584 -287 656h-5v-982h-317z" />
<glyph unicode="N" horiz-adv-x="1475" d="M157 0v1504h260l495 -758q2 -3 15 -23t32.5 -50.5t35.5 -56.5v888h323v-1504h-256q-8 13 -118.5 184.5t-238 369.5t-171.5 268q-45 67 -53 81v-903h-324z" />
<glyph unicode="O" horiz-adv-x="1487" d="M99 755q0 110 23 216.5t74 207t124.5 176t182.5 121.5t240 46q129 0 237 -43.5t182 -117.5t126 -173t76 -208.5t24 -224.5q0 -67 -8 -135.5t-28.5 -147t-52 -148.5t-83 -135.5t-116.5 -112.5t-156.5 -75.5t-199.5 -28.5q-105 0 -194.5 26.5t-154.5 71.5t-116.5 107.5 t-84.5 132t-55 147.5t-31 151t-9 147zM433 752q0 -88 17 -169t52 -153t97.5 -115t144.5 -43q71 0 126.5 32.5t89 82.5t55.5 116t30.5 127t8.5 122q0 81 -18.5 161.5t-54.5 152t-98 116t-140 44.5q-65 0 -118.5 -31t-88 -80.5t-58.5 -113t-34.5 -126.5t-10.5 -123z" />
<glyph unicode="P" horiz-adv-x="1274" d="M157 0v1504h460q98 0 181 -15t156.5 -51t124.5 -91.5t80.5 -139.5t29.5 -191q0 -224 -148.5 -350t-384.5 -126h-176v-540h-323zM480 825h174q94 0 153 49t59 134q0 112 -54 163t-169 51h-163v-397z" />
<glyph unicode="Q" horiz-adv-x="1486" d="M99 755q0 110 23 216.5t74 207t124.5 176t182.5 121.5t240 46q128 0 236 -43.5t182 -117.5t126 -173t76 -208.5t24 -224.5q0 -155 -45 -315.5t-147 -277.5l138 -200l-176 -130l-136 198q-124 -58 -277 -58q-107 0 -197 26.5t-155.5 71.5t-116.5 107.5t-83.5 131.5 t-54 148t-30 151.5t-8.5 146.5zM432 752q0 -88 17 -170t52.5 -154.5t98 -116t144.5 -43.5q54 0 101 19l-146 213l176 129q7 -11 123 -180q56 127 56 303q0 64 -11 128.5t-36 127.5t-60 111.5t-88 78t-116 29.5q-80 0 -143 -46.5t-98 -120t-52.5 -152.5t-17.5 -156z" />
<glyph unicode="R" horiz-adv-x="1395" d="M157 0v1504h491q124 0 225 -25.5t181.5 -80t125.5 -149.5t45 -224q0 -137 -66.5 -242.5t-185.5 -163.5l410 -619h-391l-338 568h-175v-568h-322zM479 835h207q93 0 153.5 52t60.5 130q0 207 -225 207h-196v-389z" />
<glyph unicode="S" horiz-adv-x="1232" d="M52 266l256 165q69 -88 145 -128.5t182 -40.5q93 0 150 42t57 133q0 40 -24.5 69.5t-66 48.5t-95.5 34.5t-114 32.5t-119.5 38t-113.5 55t-95.5 79t-66 115.5t-24.5 159.5q0 140 67 245t178.5 157.5t250.5 52.5q314 0 509 -274l-244 -172q-58 75 -122 114.5t-150 39.5 q-77 0 -120.5 -45.5t-43.5 -123.5q0 -39 24.5 -67.5t66 -46t95.5 -32t113.5 -30.5t119 -36t113.5 -53.5t95.5 -78.5t66 -116t24.5 -161q0 -116 -43.5 -207t-119 -147.5t-172.5 -86t-209 -29.5q-360 0 -570 294z" />
<glyph unicode="T" horiz-adv-x="1148" d="M26 1209v295h1096v-295h-380v-1209h-329v1209h-387z" />
<glyph unicode="U" horiz-adv-x="1427" d="M139 563v941h326v-943q0 -141 55 -218t189 -77q79 0 131 21t78.5 63.5t36.5 92t10 120.5l1 941h322v-942q0 -87 -16 -166t-57 -158.5t-104.5 -136.5t-166.5 -93t-235 -36q-133 0 -235.5 36.5t-164.5 94t-101.5 137.5t-54 158t-14.5 165z" />
<glyph unicode="V" horiz-adv-x="1367" d="M5 1504h347q119 -369 140 -430q14 -37 87.5 -292t98.5 -360h7q28 101 108 357t98 308l135 417h337l-533 -1504h-287z" />
<glyph unicode="W" horiz-adv-x="1869" d="M7 1504h343q170 -721 242 -1097h8q73 460 189 1097h293q98 -394 214 -1076l9 -3q28 172 65 349.5t87 397.5t74 332h330l-420 -1504h-326q-16 99 -80 472.5t-95 579.5h-9q-109 -636 -191 -1052h-318z" />
<glyph unicode="X" horiz-adv-x="1391" d="M2 0l516 805l-488 699h390q204 -325 230 -365q6 -9 22 -35t23 -37q32 52 42 67l231 370h382l-477 -689l518 -815h-379q-283 478 -302 510q-5 7 -13 22q-5 -9 -12 -23l-303 -509h-380z" />
<glyph unicode="Y" horiz-adv-x="1390" d="M10 1504h376q256 -523 284 -572q5 -8 30 -63q20 46 28 59l288 576h364l-522 -913v-591h-324v589z" />
<glyph unicode="Z" horiz-adv-x="1311" d="M89 0v232q676 916 704 955q4 6 34 42q-14 0 -47 -0.5t-41 -0.5h-623l22 277h1076v-233q-237 -320 -720 -990h387t355 -1l-18 -281h-1129z" />
<glyph unicode="[" horiz-adv-x="749" d="M171 -306v1840h466v-194h-253v-1451h253v-195h-466z" />
<glyph unicode="\" horiz-adv-x="873" d="M43 1610h216l571 -1781h-218z" />
<glyph unicode="]" horiz-adv-x="749" d="M112 -111h253v1451h-253v194h466v-1840h-466v195z" />
<glyph unicode="^" horiz-adv-x="1233" d="M83 862l452 641h165l450 -641h-304l-231 363l-229 -363h-303z" />
<glyph unicode="_" horiz-adv-x="1003" d="M-5 -139h1013v-214h-1013v214z" />
<glyph unicode="`" horiz-adv-x="584" d="M-64 1581h346l256 -366h-243z" />
<glyph unicode="a" horiz-adv-x="1096" d="M69 340q0 53 14 96.5t36 75.5t57.5 57t70.5 41t84 27.5t89 17.5t94 9t90.5 4t86.5 2h11q0 104 -30 145t-114 41q-69 0 -133 -21t-151 -77l-148 195q178 161 424 161q88 0 158 -16.5t117 -43.5t81.5 -70t53 -86.5t29.5 -104t14 -111t3 -118.5v-564h-252q-15 105 -18 153 q-146 -181 -331 -181q-147 0 -241.5 106t-94.5 262zM374 342q0 -112 118 -112q58 0 117 38t95 93v125q-35 0 -59 -0.5t-61.5 -3.5t-63.5 -8.5t-55.5 -16t-48 -25.5t-30.5 -38t-12 -52z" />
<glyph unicode="b" horiz-adv-x="1269" d="M129 0v1479l305 109v-621q72 73 145.5 109.5t164.5 36.5q101 0 180.5 -36t128 -93t80.5 -133.5t44.5 -150.5t12.5 -152q0 -84 -16.5 -163.5t-53.5 -154t-90 -130.5t-132.5 -89.5t-175.5 -33.5q-168 0 -310 156l-8 -133h-275zM435 397q40 -61 99.5 -100t132.5 -39 q101 0 156 78.5t55 218.5q0 128 -50.5 201.5t-160.5 73.5q-75 0 -135.5 -38t-96.5 -104v-291z" />
<glyph unicode="c" horiz-adv-x="1120" d="M78 536q0 91 18.5 173t59.5 156t102 128t152 85.5t203 31.5q278 0 439 -260l-240 -155q-53 80 -101 111t-108 31q-70 0 -119.5 -44.5t-71 -110.5t-21.5 -145q0 -117 56.5 -202t157.5 -85q63 0 111.5 33t103.5 118l241 -154q-161 -271 -448 -271q-109 0 -199 30t-151.5 82 t-103.5 124t-61.5 153t-19.5 171z" />
<glyph unicode="d" horiz-adv-x="1271" d="M77 524q0 80 14 158t49 157.5t87.5 139t136.5 97t190 37.5q72 0 149 -33t137 -100v499l305 109v-1587h-275l-8 135q-87 -85 -155 -123.5t-158 -38.5q-101 0 -183.5 34.5t-135 90t-88 129t-50.5 147.5t-15 149zM397 540q0 -119 53 -202t150 -83q78 0 141 43t99 116v275 q-35 64 -95.5 102t-132.5 38q-57 0 -99.5 -22t-67 -62t-36.5 -91t-12 -114z" />
<glyph unicode="e" horiz-adv-x="1163" d="M77 515q0 127 33.5 234.5t97.5 188.5t166 126.5t231 45.5q105 0 189 -34t137 -89t88.5 -129t50 -149.5t14.5 -154.5q0 -14 -8 -102h-707q4 -103 62.5 -163t154.5 -60q37 0 66 4t70 17t79 45t71 82l212 -137q-94 -153 -214.5 -210.5t-292.5 -57.5q-105 0 -191.5 33.5 t-142.5 87.5t-94.5 126t-55 146t-16.5 150zM385 657h408q-12 95 -62 149.5t-139 54.5q-84 0 -140.5 -57.5t-66.5 -146.5z" />
<glyph unicode="f" horiz-adv-x="767" d="M11 871v223h179v124q0 153 101.5 245.5t257.5 92.5q79 0 236 -45l-49 -231q-105 23 -152 23q-53 0 -71.5 -25t-18.5 -68v-116h225v-224l-224 1v-871h-305v871h-179z" />
<glyph unicode="g" horiz-adv-x="1264" d="M76 477q0 86 15.5 171t51.5 169.5t89 148.5t134.5 104t180.5 40q87 0 169.5 -40t139.5 -113l16 136h270v-947q0 -94 -6 -167.5t-21 -142.5t-40 -119t-64 -91.5t-92.5 -67t-125.5 -39.5t-163 -14q-160 0 -284.5 46t-229.5 167l194 183q120 -123 301 -123q123 0 171.5 78 t48.5 258q-130 -136 -295 -136q-141 0 -247 67.5t-159.5 179.5t-53.5 252zM396 503q0 -47 12.5 -92.5t36 -85.5t64 -64.5t91.5 -24.5q79 0 140 41.5t97 115.5v293q-33 65 -92.5 105.5t-126.5 40.5q-60 0 -105 -28t-69.5 -76t-36 -104t-11.5 -121z" />
<glyph unicode="h" horiz-adv-x="1212" d="M129 0v1480l308 108v-637q76 82 144.5 120.5t152.5 38.5t149 -28t104 -72t63.5 -107.5t33.5 -126.5t9 -135v-641h-308v641q0 89 -33 137t-111 48q-61 0 -113 -48t-91 -120l2 -658h-310z" />
<glyph unicode="i" horiz-adv-x="624" d="M54 857v237h437v-1094h-304v857h-133zM136 1452q0 84 59.5 139t140.5 55q80 0 139 -55t59 -139q0 -83 -59 -138t-139 -55q-81 0 -140.5 54.5t-59.5 138.5z" />
<glyph unicode="j" horiz-adv-x="659" d="M-18 -440l41 211q70 -14 122 -14q36 0 54.5 25t18.5 63v998h-135v252h441v-1241q0 -162 -79 -252t-246 -90q-98 0 -217 48zM171 1452q0 84 60 139t140 55q81 0 140.5 -54.5t59.5 -139.5q0 -83 -59.5 -138t-140.5 -55q-80 0 -140 54.5t-60 138.5z" />
<glyph unicode="k" horiz-adv-x="1155" d="M129 0v1482l299 107v-821q50 57 193 200q16 18 49 50t58 54l24 23h398l-430 -401l422 -694h-336l-286 540l-92 -95v-445h-299z" />
<glyph unicode="l" horiz-adv-x="635" d="M116 297v1182l306 110v-1283q0 -31 20 -54t55 -23q19 0 60.5 9t47.5 10l31 -219q-125 -43 -200 -43q-163 0 -241.5 75.5t-78.5 235.5z" />
<glyph unicode="m" horiz-adv-x="1843" d="M128 0v1094h265l16 -158q113 155 275 172q19 2 38 2q28 0 55 -4q45 -6 94.5 -25t90 -63.5t62.5 -110.5q66 89 137 141t165 60q23 2 45 2q67 0 119 -16q70 -21 113.5 -60.5t71 -100t37.5 -126.5t10 -147v-660h-305v662q-1 91 -35 136q-30 40 -91 40q-8 0 -17 -1 q-63 -3 -114.5 -47t-82.5 -110l1 -680h-303v662q1 88 -35 134q-31 41 -90 42q-7 0 -15 -1q-126 -9 -202 -168v-669h-305z" />
<glyph unicode="n" horiz-adv-x="1212" d="M130 0v1094h287l6 -158q80 87 147.5 127.5t145.5 45.5q18 1 36 1q68 0 122 -18q68 -24 109 -66.5t66.5 -106t34.5 -127t9 -139.5v-653h-308v654q0 194 -143 194q-107 0 -204 -178l2 -670h-310z" />
<glyph unicode="o" horiz-adv-x="1204" d="M78 544q0 58 12 119.5t36.5 126.5t67 122t98 102t136 71.5t175.5 26.5q116 0 209 -38t150 -97t95 -136.5t53 -150.5t15 -145q0 -80 -17.5 -158t-58 -153t-99.5 -132t-148.5 -92t-198.5 -35q-110 0 -200.5 35.5t-149.5 92.5t-99.5 132.5t-58 153t-17.5 155.5zM387 545 q0 -127 63 -215.5t152 -88.5q94 0 154.5 86t60.5 216q0 138 -55.5 220.5t-158.5 82.5q-99 0 -157.5 -87.5t-58.5 -213.5z" />
<glyph unicode="p" horiz-adv-x="1270" d="M128 -511v1605h267l15 -146q66 79 152 120.5t177 41.5q99 0 178.5 -34.5t129 -90.5t82.5 -133t46.5 -155.5t13.5 -163.5q0 -88 -16 -168t-51.5 -152.5t-88.5 -125.5t-133 -84t-178 -31q-74 0 -153 36t-135 100v-511zM434 411q35 -73 96.5 -116t139.5 -43q96 0 151.5 86 t55.5 202q0 126 -56 208t-166 82q-71 0 -128.5 -38t-92.5 -102v-279z" />
<glyph unicode="q" horiz-adv-x="1263" d="M79 495q0 87 11.5 167t45 166.5t86.5 148.5t142 100q80 34 180 34q13 0 27 -1q165 -5 287 -160l25 143h259v-1495l-304 -109v625q-137 -137 -273 -140h-21q-109 0 -196 38q-95 42 -152.5 116.5t-87 168t-29.5 198.5zM395 520q0 -122 53.5 -195t161.5 -73q74 0 133.5 43.5 t94.5 115.5v279q-36 65 -93.5 101.5t-127.5 36.5q-114 0 -168 -86t-54 -222z" />
<glyph unicode="r" horiz-adv-x="812" d="M124 0v1094h253l23 -150q51 79 108 120t135 48q7 1 14 1q33 1 79 -15q54 -18 85 -46l-83 -257q-99 36 -128 36q-59 0 -101.5 -36t-80.5 -114l-1 -681h-303z" />
<glyph unicode="s" horiz-adv-x="1015" d="M59 220l212 152q92 -140 241 -140q53 0 98 27.5t45 76.5q0 25 -30 45t-78.5 34.5t-106.5 30t-116.5 39t-107 54t-78.5 81t-30 114.5q0 164 106 270t273 106q280 0 426 -230l-207 -147q-84 123 -222 123q-46 0 -73 -24t-27 -70q0 -23 30.5 -40.5t79 -31.5t107 -29.5 t117 -39.5t107 -56.5t79 -85t30.5 -120.5q0 -181 -121 -284t-307 -103q-160 0 -261.5 56t-185.5 192z" />
<glyph unicode="t" horiz-adv-x="757" d="M6 854v240h178v261l308 108v-369h241v-240h-241v-542q0 -84 84 -84q25 0 65.5 6t50.5 7l35 -213q-137 -41 -205 -41q-165 0 -251.5 74t-86.5 234v559h-178z" />
<glyph unicode="u" horiz-adv-x="1201" d="M116 430v664h308v-664q0 -180 144 -180q59 0 112.5 45.5t91.5 117.5l-2 681h310v-1094h-278l-15 148q-78 -86 -150.5 -127t-152.5 -47q-18 -1 -35 -1q-69 0 -123 19q-68 24 -107 66t-63 106t-32 126.5t-8 139.5z" />
<glyph unicode="v" horiz-adv-x="1155" d="M17 1094h337q153 -509 168 -556l50 -176h10l50 176q8 22 50 161t80 267l37 128h340l-434 -1094h-254z" />
<glyph unicode="w" horiz-adv-x="1517" d="M24 1094h301l86 -417l65 -342h9q9 57 22 135t22.5 133t10.5 64l82 427h278l81 -423q12 -62 29.5 -173t26.5 -164h7q12 75 58 322q73 363 90 438h301l-305 -1094h-284l-86 429q-42 239 -54 298h-6q-42 -216 -56 -305q-65 -353 -82 -422h-288z" />
<glyph unicode="x" horiz-adv-x="1178" d="M19 0l411 583l-398 511h358l195 -317l192 317h344l-381 -519l418 -575h-351l-224 357l-215 -357h-349z" />
<glyph unicode="y" horiz-adv-x="1138" d="M14 1094h338l103 -346q8 -26 36 -130.5t51.5 -192t24.5 -87.5q103 345 122 411l97 345h336l-475 -1311q-54 -148 -135 -209t-236 -61q-71 0 -204 36l42 248q129 -27 131 -27q36 0 58 16.5t42 50.5q8 12 24.5 54t35 93.5t22.5 60.5z" />
<glyph unicode="z" horiz-adv-x="1092" d="M63 0v194l381 441q26 30 99.5 107t98.5 100v5q-117 -8 -366 -8l-195 -1v256h920v-213q-335 -379 -363 -412q-135 -163 -187 -211v-11q110 10 339 10h226v-257h-953z" />
<glyph unicode="{" horiz-adv-x="874" d="M101 538v146l92 9q48 4 68 46t20 125v171q0 114 27 201.5t84.5 153t155.5 99.5t233 34v-154q-142 -15 -201 -71t-59 -177v-262q0 -50 -11.5 -90t-35.5 -70.5t-44.5 -48.5t-54.5 -42q33 -23 54 -41.5t45 -48t35.5 -69.5t11.5 -90v-251q0 -122 55.5 -173t204.5 -66v-155 q-270 0 -385 118t-115 352v174q0 81 -20 123.5t-68 47.5z" />
<glyph unicode="|" horiz-adv-x="628" d="M210 -402v2078h208v-2078h-208z" />
<glyph unicode="}" horiz-adv-x="874" d="M93 -131q149 15 204.5 66t55.5 173v251q0 50 11.5 90t35.5 69.5t45 48t54 41.5q-34 24 -54.5 42t-44.5 48.5t-35.5 70.5t-11.5 90v262q0 121 -59 177t-201 71v154q135 0 233 -34t155.5 -99.5t84.5 -153t27 -201.5v-171q0 -83 20 -125t68 -46l92 -9v-146l-92 -9 q-48 -5 -68 -47.5t-20 -123.5v-174q0 -234 -115 -352t-385 -118v155z" />
<glyph unicode="~" horiz-adv-x="1375" d="M93 703q55 53 94 87q158 139 297 139q122 0 241 -89q9 -6 26 -19.5t29.5 -22t24.5 -15.5q38 -24 67 -24t108 62q20 16 42 34.5t48.5 42t39.5 34.5l164 -188q-15 -13 -49 -43t-50 -43q-77 -66 -149.5 -103t-154.5 -37q-121 0 -242 88q-64 48 -78 57q-37 23 -67 23 q-32 0 -106 -57q-24 -19 -66.5 -57.5t-57.5 -51.5z" />
<glyph unicode="&#xa1;" horiz-adv-x="675" d="M127 1314q0 87 62 149t150 62q87 0 149 -62t62 -149q0 -88 -62 -150t-149 -62q-88 0 -150 62t-62 150zM178 1v725l14 248h297l13 -248v-725h-324z" />
<glyph unicode="&#xa2;" horiz-adv-x="1156" d="M97 636q0 99 22 188t67.5 166t121.5 132.5t177 78.5v212h283v-216q177 -50 294 -241l-234 -153q-52 79 -101 110.5t-109 31.5q-72 0 -122.5 -46t-72 -113.5t-21.5 -148.5q0 -121 57.5 -208.5t160.5 -87.5q64 0 113 33t103 119l235 -153q-117 -200 -303 -252v-229h-283 v226q-193 43 -290.5 194.5t-97.5 356.5z" />
<glyph unicode="&#xa3;" horiz-adv-x="1351" d="M152 0v209q138 73 194 147.5t56 173.5q0 67 -2 101h-234v226h191q-18 83 -18 155q0 232 128.5 371t360.5 139q272 0 428 -261l-213 -141q-31 48 -63 78.5t-62 42.5t-48 15t-42 3q-101 0 -149 -61t-48 -200q0 -53 17 -142l434 1v-226h-390q6 -41 6 -101q0 -58 -29 -135.5 t-98 -136.5h678l-18 -258h-1079z" />
<glyph unicode="&#xa5;" horiz-adv-x="1430" d="M65 1504h361l293 -594l296 594h350l-493 -874v-127h288v-231h-288v-272h-312v272h-286v231h286v125z" />
<glyph unicode="&#xa7;" horiz-adv-x="1359" d="M97 18l232 147q69 -74 142.5 -105t168.5 -31q78 0 132.5 32t54.5 96q0 50 -99 82q-38 12 -125.5 31t-122.5 28q-62 15 -110 32.5t-101 48t-87.5 68.5t-57 96t-22.5 130q0 100 47.5 188t131.5 145q-31 62 -31 141q0 92 36.5 165t98.5 118.5t140.5 69.5t166.5 24 q140 0 249.5 -54t214.5 -170l-212 -152q-106 117 -257 117q-67 0 -108 -31.5t-41 -91.5q0 -25 23.5 -43t75.5 -34q38 -11 127.5 -29t120.5 -25q61 -15 109.5 -32t101 -47.5t87 -69t57 -97t22.5 -130.5q0 -103 -45.5 -191t-129.5 -147q28 -60 28 -136q0 -80 -27.5 -146 t-74.5 -110.5t-110 -75t-132.5 -44t-143.5 -13.5q-163 0 -288 57.5t-242 188.5zM383 698q0 -85 109 -127q36 -14 105 -30q14 -3 49 -9.5t51 -9.5q122 -28 202 -59q80 60 80 150q0 85 -108 131q-37 16 -104 31q-20 4 -100 21q-109 23 -198 55q-86 -58 -86 -153z" />
<glyph unicode="&#xa8;" horiz-adv-x="1013" d="M139 1394q0 60 43 104t104 44q62 0 105 -43.5t43 -104.5q0 -62 -43 -105t-105 -43q-61 0 -104 43.5t-43 104.5zM579 1394q0 60 43 104t104 44q62 0 105 -43.5t43 -104.5q0 -62 -43 -105t-105 -43q-61 0 -104 43.5t-43 104.5z" />
<glyph unicode="&#xa9;" horiz-adv-x="1733" d="M101 748q0 169 56 313t156 246t242.5 159.5t310.5 57.5q225 0 398.5 -94.5t270.5 -271.5t97 -410q0 -171 -57 -316t-157.5 -245.5t-242.5 -157t-309 -56.5q-166 0 -308.5 58t-242.5 159.5t-157 246t-57 311.5zM247 748q0 -177 74.5 -320.5t217 -229.5t327.5 -86 q187 0 329 83t216.5 227t74.5 326q0 286 -167 461t-453 175q-188 0 -330 -85.5t-215.5 -229t-73.5 -321.5zM493 742q0 92 25 174.5t73 149t126.5 106t176.5 39.5q37 0 76 -7.5t90 -28t95 -67t70 -114.5l-149 -67q-23 42 -51 68.5t-57 36.5t-44.5 12t-37.5 2 q-93 0 -153.5 -87t-60.5 -221q0 -129 62 -206.5t153 -77.5q25 0 45 3.5t48 15t54 39.5t47 70l153 -67q-28 -67 -72 -114.5t-92.5 -70.5t-91 -32.5t-84.5 -9.5q-133 0 -225.5 64t-134 164.5t-41.5 225.5z" />
<glyph unicode="&#xaa;" horiz-adv-x="947" d="M85 911q0 58 24 105t66 77.5t91.5 52.5t110 33.5t111 17t102.5 6.5q-2 69 -27.5 95.5t-97.5 26.5q-54 0 -102 -18.5t-118 -63.5l-111 155q138 125 325 125q68 0 121.5 -12.5t90.5 -33t63.5 -53.5t41.5 -67t23.5 -82t11 -89t2.5 -96v-455h-192l-7 94q-106 -111 -243 -111 q-123 0 -204.5 85t-81.5 208zM308 910q0 -44 27.5 -69t76.5 -25q98 0 179 113v125q-67 -2 -129.5 -17.5t-108 -49t-45.5 -77.5z" />
<glyph unicode="&#xab;" horiz-adv-x="1374" d="M51 557l407 534h291l-408 -536l412 -555h-295zM592 557l408 534h290l-407 -536l412 -555h-296z" />
<glyph unicode="&#xad;" horiz-adv-x="791" d="M90 583v255h611v-255h-611z" />
<glyph unicode="&#xae;" horiz-adv-x="1723" d="M101 748q0 169 56 313t156 246t242.5 159.5t310.5 57.5q225 0 398.5 -94.5t270.5 -271.5t97 -410q0 -171 -57 -316t-157.5 -245.5t-242.5 -157t-309 -56.5q-166 0 -308.5 58t-242.5 159.5t-157 246t-57 311.5zM247 748q0 -177 74.5 -320.5t217 -229.5t327.5 -86 q187 0 329 83t216.5 227t74.5 326q0 286 -167 461t-453 175q-188 0 -330 -85.5t-215.5 -229t-73.5 -321.5zM585 313v899h282q149 0 237 -68.5t88 -217.5q0 -83 -43 -146t-112 -92l221 -375h-200l-191 347h-113v-347h-169zM754 816h132q63 0 99 27t36 82q0 69 -33 101 t-107 32h-127v-242z" />
<glyph unicode="&#xaf;" horiz-adv-x="779" d="M46 1273v219h687v-219h-687z" />
<glyph unicode="&#xb0;" horiz-adv-x="836" d="M90 1193q0 134 96.5 230.5t230.5 96.5q137 0 233 -96.5t96 -230.5q0 -137 -96 -233t-233 -96q-135 0 -231 96t-96 233zM279 1193q0 -59 40 -99.5t98 -40.5t98.5 41t40.5 99q0 55 -42 96.5t-97 41.5q-59 0 -98.5 -39.5t-39.5 -98.5z" />
<glyph unicode="&#xb1;" horiz-adv-x="1136" d="M97 0v236h934v-236h-934zM97 747v232h359v378h235v-378h348v-232h-348v-385h-235v385h-359z" />
<glyph unicode="&#xb4;" horiz-adv-x="584" d="M46 1225l255 366h347l-360 -366h-242z" />
<glyph unicode="&#xb5;" horiz-adv-x="1217" d="M105 -462v1553h302v-668q0 -76 48 -120t128 -44q58 0 111 44.5t86 115.5v672h303v-1089h-263l-17 101q-63 -63 -117.5 -90.5t-129.5 -27.5q-84 0 -151 35v-375z" />
<glyph unicode="&#xb6;" horiz-adv-x="1287" d="M26 1011q0 153 71.5 266.5t193.5 170.5t278 57h692v-219h-146v-1612h-233v1612h-194v-1612h-236v850q-197 17 -311.5 154.5t-114.5 332.5z" />
<glyph unicode="&#xb7;" horiz-adv-x="621" d="M99 751q0 88 62 150t150 62q87 0 149 -62t62 -150t-62 -149.5t-149 -61.5q-88 0 -150 61.5t-62 149.5z" />
<glyph unicode="&#xb8;" horiz-adv-x="742" d="M139 -434l50 138q118 -59 171 -59q34 0 55.5 14t21.5 44q0 44 -57 44h-95l-61 60l102 200h147l-74 -134q48 3 93 -11.5t78 -53.5t33 -97q0 -57 -23 -100.5t-60 -68t-78 -36.5t-83 -12q-105 0 -220 72z" />
<glyph unicode="&#xba;" horiz-adv-x="1010" d="M95 1071q0 57 13 116t44 120.5t76.5 109t117.5 77.5t160 30q91 0 163.5 -30t117.5 -77t75 -109t41.5 -120t11.5 -116q0 -64 -14 -126.5t-45.5 -122.5t-77.5 -105.5t-116.5 -73t-155.5 -27.5q-86 0 -157 28t-117 73.5t-78 106t-45.5 122t-13.5 124.5zM326 1072 q0 -105 52.5 -181.5t126.5 -76.5q79 0 129.5 74t50.5 182q0 116 -47 191.5t-132 75.5q-82 0 -131 -80t-49 -185z" />
<glyph unicode="&#xbb;" horiz-adv-x="1374" d="M79 0l412 555l-408 536h291l407 -534l-406 -557h-296zM620 0l413 555l-408 536h291l407 -534l-407 -557h-296z" />
<glyph unicode="&#xbc;" horiz-adv-x="1994" d="M89 1413l301 96h149v-700h172v-201h-587v201h186v462l-163 -55zM537 0l756 1503h209l-756 -1503h-209zM1119 180v142l496 579h169v-526h135v-195h-135v-180h-219v180h-446zM1412 375h153v176q-53 -72 -153 -176z" />
<glyph unicode="&#xbd;" horiz-adv-x="2037" d="M89 1413l301 96h149v-700h172v-201h-587v201h186v462l-164 -55zM537 0l756 1503h209l-756 -1503h-209zM1266 712q137 195 356 195q88 0 163.5 -30t126 -95.5t50.5 -156.5q0 -54 -38 -106t-95.5 -93t-117 -77.5t-113 -75.5t-72.5 -72h428v-201h-684v102q0 79 34.5 148 t85.5 114.5t111.5 87t111.5 68.5t85.5 55t34.5 50q0 85 -104 85q-108 0 -195 -112z" />
<glyph unicode="&#xbe;" horiz-adv-x="2048" d="M89 796l164 113q51 -67 92 -89t88 -22q79 0 115.5 29t36.5 76q0 90 -123 90h-70v186h76q49 0 66.5 19t17.5 61q0 27 -29.5 50.5t-81.5 23.5q-44 0 -82.5 -19.5t-93.5 -83.5l-157 107q133 184 329 184q80 0 155 -28t127 -87t52 -137q0 -56 -29 -104t-75 -72v-6 q145 -49 145 -197q0 -75 -33.5 -132.5t-90 -91t-122.5 -50t-139 -16.5q-205 0 -338 196zM591 0l755 1503h209l-755 -1503h-209zM1173 180v142l495 579h170v-526h135v-195h-135v-180h-219v180h-446zM1465 375h154v176q-55 -73 -154 -176z" />
<glyph unicode="&#xbf;" horiz-adv-x="1106" d="M119 341q0 66 26.5 129t55.5 100t76 87q19 20 55 58q41 44 65 80.5t28 76.5q1 8 1 99h322v-87q0 -67 -28.5 -134t-59 -107.5t-80.5 -95.5q-9 -10 -28 -30.5t-28 -30.5q-33 -37 -48 -57q-40 -51 -40 -89q0 -94 130 -94q122 0 220 138l243 -150q-83 -128 -204.5 -192 t-247.5 -64q-91 0 -171 21t-145.5 63.5t-103.5 114t-38 164.5zM381 1311q0 87 62 149t150 62t149.5 -62t61.5 -149q0 -88 -61.5 -150t-149.5 -62t-150 62t-62 150z" />
<glyph unicode="&#xc0;" d="M9 0l592 1504h282l592 -1504h-354l-112 285h-558l-111 -285h-331zM264 1968h346l257 -366h-242zM540 559l375 2q-155 495 -179 578h-6z" />
<glyph unicode="&#xc1;" d="M9 0l592 1504h282l592 -1504h-354l-112 285h-558l-111 -285h-331zM540 559l375 2q-155 495 -179 578h-6zM618 1602l256 366h346l-359 -366h-243z" />
<glyph unicode="&#xc2;" d="M9 0l592 1504h282l592 -1504h-354l-112 285h-558l-111 -285h-331zM305 1582l347 425h181l347 -425h-257l-180 213l-180 -213h-258zM540 559l375 2q-155 495 -179 578h-6z" />
<glyph unicode="&#xc3;" d="M9 0l592 1504h282l592 -1504h-354l-112 285h-558l-111 -285h-331zM357 1597q1 58 7 104t22 90.5t42 74.5t68.5 48t98.5 18q73 0 193 -60q59 -32 74 -38q33 -15 52 -15q21 0 33 25.5t17 94.5h187q0 -58 -5.5 -104.5t-21.5 -91.5t-41.5 -75.5t-68.5 -49t-100 -18.5 q-87 0 -200 65q-54 31 -69 39q-29 14 -52 14q-30 0 -40.5 -22.5t-21.5 -87.5q-1 -9 -2 -13zM540 559l375 2q-155 495 -179 578h-6z" />
<glyph unicode="&#xc4;" d="M9 0l592 1504h282l592 -1504h-354l-112 285h-558l-111 -285h-331zM373 1794q0 61 42.5 104.5t104.5 43.5q61 0 104.5 -43.5t43.5 -104.5q0 -62 -43 -105t-105 -43q-61 0 -104 43.5t-43 104.5zM540 559l375 2q-155 495 -179 578h-6zM813 1794q0 61 42.5 104.5t104.5 43.5 q61 0 104.5 -43.5t43.5 -104.5q0 -62 -43 -105t-105 -43q-61 0 -104 43.5t-43 104.5z" />
<glyph unicode="&#xc5;" d="M9 0l563 1431q-76 70 -76 174q0 97 70 166.5t167 69.5q99 0 168.5 -69.5t69.5 -166.5q0 -95 -64 -162l568 -1443h-354l-112 285h-558l-111 -285h-331zM540 559l375 2q-155 495 -179 578h-6zM640 1605q0 -39 27 -66.5t66 -27.5t65.5 27.5t26.5 66.5q0 37 -27.5 64.5 t-64.5 27.5q-40 0 -66.5 -26.5t-26.5 -65.5z" />
<glyph unicode="&#xc6;" horiz-adv-x="1871" d="M-3 0l797 1503h989l-19 -283h-562v-318h478l-20 -276h-458v-339h589l-20 -287h-875v321h-385l-166 -321h-348zM632 593h264v544z" />
<glyph unicode="&#xc7;" horiz-adv-x="1407" d="M99 741q0 120 23 230.5t75 211.5t127.5 175.5t187.5 118.5t249 44q338 0 549 -317l-253 -171q-46 62 -90 102.5t-83 57.5t-67 22.5t-61 5.5q-142 0 -233 -129t-91 -350q0 -211 95 -341.5t226 -130.5q43 0 78.5 7.5t78 27.5t86 62.5t87.5 106.5l254 -170 q-192 -311 -524 -332l-55 -99q78 5 141.5 -36t63.5 -126q0 -57 -23 -100.5t-60 -68t-78.5 -36.5t-83.5 -12q-104 0 -219 72l50 138q64 -32 100.5 -45.5t69.5 -13.5q34 0 56 14t22 44q0 44 -58 44h-94l-62 60l87 170q-117 15 -213.5 66.5t-162 126t-110 169.5t-65 195.5 t-20.5 206.5z" />
<glyph unicode="&#xc8;" horiz-adv-x="1290" d="M157 0h1035l17 299h-725v322h602l22 287h-624v304h699l17 293h-1043v-1505zM245 1968h346l256 -366h-243z" />
<glyph unicode="&#xc9;" horiz-adv-x="1290" d="M157 0h1035l17 299h-725v322h602l22 287h-624v304h699l17 293h-1043v-1505zM509 1602l255 366h346l-359 -366h-242z" />
<glyph unicode="&#xca;" horiz-adv-x="1290" d="M157 0h1035l17 299h-725v322h602l22 287h-624v304h699l17 293h-1043v-1505zM261 1639l346 425h182l346 -425h-258l-180 213l-178 -213h-258z" />
<glyph unicode="&#xcb;" horiz-adv-x="1290" d="M157 0h1035l17 299h-725v322h602l22 287h-624v304h699l17 293h-1043v-1505zM311 1794q0 61 42.5 104.5t104.5 43.5q61 0 104.5 -43.5t43.5 -104.5q0 -62 -43 -105t-105 -43q-61 0 -104 43.5t-43 104.5zM751 1794q0 61 42.5 104.5t104.5 43.5q61 0 104.5 -43.5 t43.5 -104.5q0 -62 -43 -105t-105 -43q-61 0 -104 43.5t-43 104.5z" />
<glyph unicode="&#xcc;" horiz-adv-x="668" d="M-124 1969h346l257 -366h-244zM171 0v1504h340v-1504h-340z" />
<glyph unicode="&#xcd;" horiz-adv-x="670" d="M157 0v1504h340v-1504h-340zM202 1603l257 366h346l-359 -366h-244z" />
<glyph unicode="&#xce;" horiz-adv-x="705" d="M-86 1639l346 425h182l346 -425h-257l-181 213l-178 -213h-258zM180 0v1504h341v-1504h-341z" />
<glyph unicode="&#xcf;" horiz-adv-x="593" d="M-49 1784q0 56 39 96t96 40q56 0 95.5 -40t39.5 -96q0 -57 -39.5 -96t-95.5 -39t-95.5 39.5t-39.5 95.5zM127 0v1504h340v-1504h-340zM371 1784q0 56 39 96t96 40q56 0 95.5 -40t39.5 -96q0 -57 -39.5 -96t-95.5 -39t-95.5 39.5t-39.5 95.5z" />
<glyph unicode="&#xd0;" horiz-adv-x="1480" d="M-20 641v230h178v635h393q151 0 277.5 -25.5t234 -83.5t182 -146t116.5 -217.5t42 -293.5q0 -317 -196 -521t-520 -219h-529v641h-178zM484 296h160q76 0 150.5 27.5t138 79t103 135.5t39.5 187q0 257 -127 371t-389 114h-75v-339h306v-230h-306v-345z" />
<glyph unicode="&#xd1;" horiz-adv-x="1475" d="M157 0v1504h260l495 -758q2 -3 15 -23t32.5 -50.5t35.5 -56.5v888h323v-1504h-256q-8 13 -118.5 184.5t-238 369.5t-171.5 268q-45 67 -53 81v-903h-324zM348 1607q1 73 11.5 129t35 105t73 75.5t118.5 26.5q73 0 193 -61q56 -30 74 -38q31 -14 52 -14t33 25t17 95h187 q0 -58 -5.5 -104.5t-21.5 -91.5t-42 -75.5t-68.5 -49t-99.5 -18.5q-89 0 -200 64q-54 32 -69 39q-31 15 -52 15q-29 0 -40 -22.5t-22 -88.5q-1 -8 -2 -13z" />
<glyph unicode="&#xd2;" horiz-adv-x="1487" d="M99 755q0 110 23 216.5t74 207t124.5 176t182.5 121.5t240 46q129 0 237 -43.5t182 -117.5t126 -173t76 -208.5t24 -224.5q0 -67 -8 -135.5t-28.5 -147t-52 -148.5t-83 -135.5t-116.5 -112.5t-156.5 -75.5t-199.5 -28.5q-105 0 -194.5 26.5t-154.5 71.5t-116.5 107.5 t-84.5 132t-55 147.5t-31 151t-9 147zM302 1979h345l256 -366h-242zM433 752q0 -88 17 -169t52 -153t97.5 -115t144.5 -43q71 0 126.5 32.5t89 82.5t55.5 116t30.5 127t8.5 122q0 81 -18.5 161.5t-54.5 152t-98 116t-140 44.5q-65 0 -118.5 -31t-88 -80.5t-58.5 -113 t-34.5 -126.5t-10.5 -123z" />
<glyph unicode="&#xd3;" horiz-adv-x="1487" d="M99 755q0 110 23 216.5t74 207t124.5 176t182.5 121.5t240 46q129 0 237 -43.5t182 -117.5t126 -173t76 -208.5t24 -224.5q0 -67 -8 -135.5t-28.5 -147t-52 -148.5t-83 -135.5t-116.5 -112.5t-156.5 -75.5t-199.5 -28.5q-105 0 -194.5 26.5t-154.5 71.5t-116.5 107.5 t-84.5 132t-55 147.5t-31 151t-9 147zM433 752q0 -88 17 -169t52 -153t97.5 -115t144.5 -43q71 0 126.5 32.5t89 82.5t55.5 116t30.5 127t8.5 122q0 81 -18.5 161.5t-54.5 152t-98 116t-140 44.5q-65 0 -118.5 -31t-88 -80.5t-58.5 -113t-34.5 -126.5t-10.5 -123zM579 1613 l256 366h346l-359 -366h-243z" />
<glyph unicode="&#xd4;" horiz-adv-x="1487" d="M99 755q0 110 23 216.5t74 207t124.5 176t182.5 121.5t240 46q129 0 237 -43.5t182 -117.5t126 -173t76 -208.5t24 -224.5q0 -67 -8 -135.5t-28.5 -147t-52 -148.5t-83 -135.5t-116.5 -112.5t-156.5 -75.5t-199.5 -28.5q-105 0 -194.5 26.5t-154.5 71.5t-116.5 107.5 t-84.5 132t-55 147.5t-31 151t-9 147zM308 1639l346 425h181l347 -425h-258l-179 213l-180 -213h-257zM433 752q0 -88 17 -169t52 -153t97.5 -115t144.5 -43q71 0 126.5 32.5t89 82.5t55.5 116t30.5 127t8.5 122q0 81 -18.5 161.5t-54.5 152t-98 116t-140 44.5 q-65 0 -118.5 -31t-88 -80.5t-58.5 -113t-34.5 -126.5t-10.5 -123z" />
<glyph unicode="&#xd5;" horiz-adv-x="1487" d="M99 755q0 110 23 216.5t74 207t124.5 176t182.5 121.5t240 46q129 0 237 -43.5t182 -117.5t126 -173t76 -208.5t24 -224.5q0 -67 -8 -135.5t-28.5 -147t-52 -148.5t-83 -135.5t-116.5 -112.5t-156.5 -75.5t-199.5 -28.5q-105 0 -194.5 26.5t-154.5 71.5t-116.5 107.5 t-84.5 132t-55 147.5t-31 151t-9 147zM350 1637q1 73 11.5 129t35 105t73 75.5t118.5 26.5q73 0 193 -61q56 -30 74 -38q31 -14 52 -14t33 25t17 95h187q0 -58 -5.5 -104.5t-21.5 -91.5t-42 -75.5t-68.5 -49t-99.5 -18.5q-89 0 -200 64q-54 31 -69 39q-31 15 -52 15 q-29 0 -40 -22.5t-22 -88.5q-1 -8 -2 -13zM433 752q0 -88 17 -169t52 -153t97.5 -115t144.5 -43q71 0 126.5 32.5t89 82.5t55.5 116t30.5 127t8.5 122q0 81 -18.5 161.5t-54.5 152t-98 116t-140 44.5q-65 0 -118.5 -31t-88 -80.5t-58.5 -113t-34.5 -126.5t-10.5 -123z" />
<glyph unicode="&#xd6;" horiz-adv-x="1487" d="M99 755q0 110 23 216.5t74 207t124.5 176t182.5 121.5t240 46q129 0 237 -43.5t182 -117.5t126 -173t76 -208.5t24 -224.5q0 -67 -8 -135.5t-28.5 -147t-52 -148.5t-83 -135.5t-116.5 -112.5t-156.5 -75.5t-199.5 -28.5q-105 0 -194.5 26.5t-154.5 71.5t-116.5 107.5 t-84.5 132t-55 147.5t-31 151t-9 147zM374 1794q0 61 42.5 104.5t104.5 43.5q61 0 104.5 -43.5t43.5 -104.5q0 -62 -43.5 -105t-104.5 -43t-104 43.5t-43 104.5zM433 752q0 -88 17 -169t52 -153t97.5 -115t144.5 -43q71 0 126.5 32.5t89 82.5t55.5 116t30.5 127t8.5 122 q0 81 -18.5 161.5t-54.5 152t-98 116t-140 44.5q-65 0 -118.5 -31t-88 -80.5t-58.5 -113t-34.5 -126.5t-10.5 -123zM814 1794q0 61 42.5 104.5t104.5 43.5q61 0 104.5 -43.5t43.5 -104.5q0 -62 -43.5 -105t-104.5 -43t-104 43.5t-43 104.5z" />
<glyph unicode="&#xd7;" horiz-adv-x="1136" d="M97 396l303 288l-303 287l166 158l303 -287l303 287l168 -158l-303 -289l305 -288l-166 -158l-305 289l-303 -287z" />
<glyph unicode="&#xd8;" horiz-adv-x="1552" d="M-43 66l219 233q-100 197 -100 456q0 110 23 216.5t74 207t124 176t182.5 121.5t240.5 46q264 0 435 -179l179 190l146 -124l-213 -226q97 -188 97 -428q0 -67 -8 -135.5t-28.5 -147t-52 -148.5t-82.5 -135.5t-116 -112.5t-156.5 -75.5t-199.5 -28.5q-268 0 -433 168 l-183 -195zM410 752q0 -97 20 -183l503 537q-83 120 -213 120q-65 0 -118.5 -31t-88 -80.5t-58.5 -113t-34.5 -126.5t-10.5 -123zM512 378q81 -106 209 -106q71 0 126.5 32.5t89 82.5t55.5 116t30.5 127t8.5 122q0 80 -18 160z" />
<glyph unicode="&#xd9;" horiz-adv-x="1427" d="M139 563v940h326v-942q0 -141 55 -218t189 -77q79 0 131 21t78.5 63.5t36.5 92t10 120.5l1 940h322v-941q0 -87 -16 -166t-57 -158.5t-104.5 -136.5t-166.5 -93t-235 -36q-133 0 -235.5 36.5t-164.5 94t-101.5 137.5t-54 158t-14.5 165zM271 1929h346l255 -366h-242z" />
<glyph unicode="&#xda;" horiz-adv-x="1427" d="M139 563v940h326v-942q0 -141 55 -218t189 -77q79 0 131 21t78.5 63.5t36.5 92t10 120.5l1 940h322v-941q0 -87 -16 -166t-57 -158.5t-104.5 -136.5t-166.5 -93t-235 -36q-133 0 -235.5 36.5t-164.5 94t-101.5 137.5t-54 158t-14.5 165zM538 1563l256 366h346l-359 -366 h-243z" />
<glyph unicode="&#xdb;" horiz-adv-x="1427" d="M139 563v940h326v-942q0 -141 55 -218t189 -77q79 0 131 21t78.5 63.5t36.5 92t10 120.5l1 940h322v-941q0 -87 -16 -166t-57 -158.5t-104.5 -136.5t-166.5 -93t-235 -36q-133 0 -235.5 36.5t-164.5 94t-101.5 137.5t-54 158t-14.5 165zM274 1629l346 425h182l346 -425 h-258l-180 213l-179 -213h-257z" />
<glyph unicode="&#xdc;" horiz-adv-x="1427" d="M139 563v940h326v-942q0 -141 55 -218t189 -77q79 0 131 21t78.5 63.5t36.5 92t10 120.5l1 940h322v-941q0 -87 -16 -166t-57 -158.5t-104.5 -136.5t-166.5 -93t-235 -36q-133 0 -235.5 36.5t-164.5 94t-101.5 137.5t-54 158t-14.5 165zM338 1755q0 61 42.5 104.5 t104.5 43.5q61 0 104.5 -43.5t43.5 -104.5t-43.5 -104.5t-104.5 -43.5t-104 43.5t-43 104.5zM778 1755q0 61 42.5 104.5t104.5 43.5q61 0 104.5 -43.5t43.5 -104.5t-43.5 -104.5t-104.5 -43.5t-104 43.5t-43 104.5z" />
<glyph unicode="&#xdd;" horiz-adv-x="1360" d="M-5 1504h376q256 -523 284 -572q5 -8 30 -63q20 46 28 59l288 576h364l-522 -913v-591h-324v589zM517 1533l257 366h346l-360 -366h-243z" />
<glyph unicode="&#xde;" horiz-adv-x="1303" d="M157 0v1506h316v-244h141q97 0 179.5 -15t155.5 -50.5t124 -88.5t80.5 -133.5t29.5 -182.5q0 -141 -70 -246t-189.5 -158t-270.5 -53h-180v-335h-316zM473 610h178q99 0 157.5 45t58.5 129q0 112 -51.5 159t-175.5 47h-167v-380z" />
<glyph unicode="&#xdf;" horiz-adv-x="1275" d="M129 -451v1515q0 226 125.5 358.5t371.5 132.5q217 0 345.5 -109t128.5 -308q0 -88 -46 -173t-135 -139q145 -40 215.5 -147.5t70.5 -255.5q0 -231 -151.5 -355.5t-401.5 -124.5q-47 0 -89 8l-1 280q17 0 48.5 -0.5t44.5 -0.5q111 0 171 57t60 161q0 118 -76 176t-214 58 h-21v269h7q92 0 146 41t54 116q0 176 -160 176q-97 0 -138.5 -48.5t-41.5 -146.5v-1438z" />
<glyph unicode="&#xe0;" horiz-adv-x="1096" d="M69 340q0 -156 94.5 -262t241.5 -106q185 0 331 181l18 -153h252v564q0 68 -3 118.5t-14 111t-29.5 104t-53 86.5t-81.5 70t-117 43.5t-158 16.5q-246 0 -424 -161l148 -195q87 56 151 77t133 21q84 0 114 -41.5t30 -145.5q-221 -2 -325 -21q-292 -55 -307 -282 q-1 -13 -1 -26zM139 1581h346l256 -366h-243zM374 342q0 29 12 52t30.5 38t48 25.5t55.5 16t63.5 8.5t61.5 3.5t59 0.5v-125q-36 -55 -95 -93t-117 -38q-118 0 -118 112z" />
<glyph unicode="&#xe1;" horiz-adv-x="1109" d="M69 340q0 -156 94.5 -262t241.5 -106q185 0 331 181l18 -153h252v564q0 68 -3 118.5t-14 111t-29.5 104t-53 86.5t-81.5 70t-117 43.5t-158 16.5q-246 0 -424 -161l148 -195q87 56 151 77t133 21q84 0 114 -41.5t30 -145.5q-221 -2 -325 -21q-292 -55 -307 -282 q-1 -13 -1 -26zM374 342q0 29 12 52t30.5 38t48 25.5t55.5 16t63.5 8.5t61.5 3.5t59 0.5v-125q-36 -55 -95 -93t-117 -38q-118 0 -118 112zM419 1225l255 366h347l-360 -366h-242z" />
<glyph unicode="&#xe2;" horiz-adv-x="1096" d="M69 340q0 -156 94.5 -262t241.5 -106q185 0 331 181l18 -153h252v564q0 68 -3 118.5t-14 111t-29.5 104t-53 86.5t-81.5 70t-117 43.5t-158 16.5q-246 0 -424 -161l148 -195q87 56 151 77t133 21q84 0 114 -41.5t30 -145.5q-221 -2 -325 -21q-292 -55 -307 -282 q-1 -13 -1 -26zM131 1219l346 425h182l346 -425h-258l-180 213l-179 -213h-257zM374 342q0 29 12 52t30.5 38t48 25.5t55.5 16t63.5 8.5t61.5 3.5t59 0.5v-125q-36 -55 -95 -93t-117 -38q-118 0 -118 112z" />
<glyph unicode="&#xe3;" horiz-adv-x="1096" d="M69 340q0 -156 94.5 -262t241.5 -106q185 0 331 181l18 -153h252v564q0 68 -3 118.5t-14 111t-29.5 104t-53 86.5t-81.5 70t-117 43.5t-158 16.5q-246 0 -424 -161l148 -195q87 56 151 77t133 21q84 0 114 -41.5t30 -145.5q-221 -2 -325 -21q-292 -55 -307 -282 q-1 -13 -1 -26zM162 1238q0 59 5.5 106t22 96.5t43 82.5t72.5 54t107 21q76 0 190 -58q4 -2 32.5 -17t42.5 -22q37 -16 55 -16q27 0 34 72q2 24 3 48h213q0 -59 -5.5 -106.5t-21.5 -97.5t-42.5 -83.5t-72.5 -55t-108 -21.5q-89 0 -197 61q-52 30 -72 40q-34 17 -53 17 q-23 0 -35 -35q-6 -18 -9 -38q-1 -4 -3 -20t-4 -30zM374 342q0 29 12 52t30.5 38t48 25.5t55.5 16t63.5 8.5t61.5 3.5t59 0.5v-125q-36 -55 -95 -93t-117 -38q-118 0 -118 112z" />
<glyph unicode="&#xe4;" horiz-adv-x="1096" d="M69 340q0 -156 94.5 -262t241.5 -106q185 0 331 181l18 -153h252v564q0 68 -3 118.5t-14 111t-29.5 104t-53 86.5t-81.5 70t-117 43.5t-158 16.5q-246 0 -424 -161l148 -195q87 56 151 77t133 21q84 0 114 -41.5t30 -145.5q-221 -2 -325 -21q-292 -55 -307 -282 q-1 -13 -1 -26zM179 1410q0 65 46.5 113t113.5 48q66 0 113 -47.5t47 -113.5q0 -67 -46.5 -113.5t-113.5 -46.5q-66 0 -113 47t-47 113zM374 342q0 29 12 52t30.5 38t48 25.5t55.5 16t63.5 8.5t61.5 3.5t59 0.5v-125q-36 -55 -95 -93t-117 -38q-118 0 -118 112zM644 1410 q0 65 46.5 113t113.5 48t113.5 -47.5t46.5 -113.5q0 -67 -46.5 -113.5t-113.5 -46.5q-66 0 -113 47t-47 113z" />
<glyph unicode="&#xe5;" horiz-adv-x="1096" d="M69 340q0 -156 94.5 -262t241.5 -106q185 0 331 181l18 -153h252v564q0 68 -3 118.5t-14 111t-29.5 104t-53 86.5t-81.5 70t-117 43.5t-158 16.5q-246 0 -424 -161l148 -195q87 56 151 77t133 21q84 0 114 -41.5t30 -145.5q-221 -2 -325 -21q-292 -55 -307 -282 q-1 -13 -1 -26zM326 1485q0 101 73 173t174 72q103 0 175.5 -72t72.5 -173q0 -103 -72.5 -175.5t-175.5 -72.5q-102 0 -174.5 72.5t-72.5 175.5zM374 342q0 29 12 52t30.5 38t48 25.5t55.5 16t63.5 8.5t61.5 3.5t59 0.5v-125q-36 -55 -95 -93t-117 -38q-118 0 -118 112z M485 1485q0 -38 25.5 -64.5t62.5 -26.5t63 26.5t26 64.5q0 34 -27 61t-62 27q-37 0 -62.5 -25.5t-25.5 -62.5z" />
<glyph unicode="&#xe6;" horiz-adv-x="1742" d="M68 330q0 76 26 133.5t66 92t100.5 58t114.5 33t124 15.5q66 5 195 7q-1 115 -33 160.5t-127 45.5q-70 0 -131.5 -22t-140.5 -76l-132 187q160 153 395 153q221 0 329 -148q137 150 350 150q100 0 180 -34t131.5 -89.5t85.5 -130t48 -151.5t14 -159q0 -38 -7 -82h-704 q5 -132 66 -202.5t167 -70.5q84 0 149.5 34.5t125.5 130.5l197 -132q-88 -152 -196.5 -211.5t-283.5 -59.5q-249 0 -379 199q-64 -80 -133 -125.5t-126 -59.5t-127 -14q-161 0 -252.5 103.5t-91.5 264.5zM333 332q0 -135 135 -135q64 0 127.5 43.5t99.5 106.5v145 q-67 0 -105 -1q-75 -4 -123 -16q-134 -33 -134 -143zM965 657h444q-13 99 -69 160.5t-148 61.5q-86 0 -147.5 -64t-79.5 -158z" />
<glyph unicode="&#xe7;" horiz-adv-x="1120" d="M78 536q0 91 18.5 173t59.5 156t102 128t152 85.5t203 31.5q278 0 439 -260l-240 -155q-53 80 -101 111t-108 31q-70 0 -119.5 -44.5t-71 -110.5t-21.5 -145q0 -117 56.5 -202t157.5 -85q63 0 111.5 33t103.5 118l241 -154q-144 -242 -388 -268l-59 -106q78 5 141.5 -36 t63.5 -126q0 -57 -23 -100.5t-60.5 -68t-78.5 -36.5t-83 -12q-105 0 -220 72l51 138q116 -59 170 -59q77 0 77 58q0 44 -57 44h-95l-61 60l89 174q-114 13 -202 63.5t-141 127t-80 168.5t-27 196z" />
<glyph unicode="&#xe8;" horiz-adv-x="1163" d="M77 515q0 127 33.5 234.5t97.5 188.5t166 126.5t231 45.5q105 0 189 -34t137 -89t88.5 -129t50 -149.5t14.5 -154.5q0 -14 -8 -102h-707q4 -103 62.5 -163t154.5 -60q37 0 66 4t70 17t79 45t71 82l212 -137q-94 -153 -214.5 -210.5t-292.5 -57.5q-105 0 -191.5 33.5 t-142.5 87.5t-94.5 126t-55 146t-16.5 150zM159 1591h346l257 -366h-243zM385 657h408q-12 95 -62 149.5t-139 54.5q-84 0 -140.5 -57.5t-66.5 -146.5z" />
<glyph unicode="&#xe9;" horiz-adv-x="1163" d="M77 515q0 127 33.5 234.5t97.5 188.5t166 126.5t231 45.5q105 0 189 -34t137 -89t88.5 -129t50 -149.5t14.5 -154.5q0 -14 -8 -102h-707q4 -103 62.5 -163t154.5 -60q37 0 66 4t70 17t79 45t71 82l212 -137q-94 -153 -214.5 -210.5t-292.5 -57.5q-105 0 -191.5 33.5 t-142.5 87.5t-94.5 126t-55 146t-16.5 150zM385 657h408q-12 95 -62 149.5t-139 54.5q-84 0 -140.5 -57.5t-66.5 -146.5zM429 1215l256 366h347l-361 -366h-242z" />
<glyph unicode="&#xea;" horiz-adv-x="1163" d="M77 515q0 127 33.5 234.5t97.5 188.5t166 126.5t231 45.5q105 0 189 -34t137 -89t88.5 -129t50 -149.5t14.5 -154.5q0 -14 -8 -102h-707q4 -103 62.5 -163t154.5 -60q37 0 66 4t70 17t79 45t71 82l212 -137q-94 -153 -214.5 -210.5t-292.5 -57.5q-105 0 -191.5 33.5 t-142.5 87.5t-94.5 126t-55 146t-16.5 150zM160 1239l347 425h181l347 -425h-258l-180 213l-180 -213h-257zM385 657h408q-12 95 -62 149.5t-139 54.5q-84 0 -140.5 -57.5t-66.5 -146.5z" />
<glyph unicode="&#xeb;" horiz-adv-x="1163" d="M77 515q0 127 33.5 234.5t97.5 188.5t166 126.5t231 45.5q105 0 189 -34t137 -89t88.5 -129t50 -149.5t14.5 -154.5q0 -14 -8 -102h-707q4 -103 62.5 -163t154.5 -60q37 0 66 4t70 17t79 45t71 82l212 -137q-94 -153 -214.5 -210.5t-292.5 -57.5q-105 0 -191.5 33.5 t-142.5 87.5t-94.5 126t-55 146t-16.5 150zM194 1410q0 65 46.5 113t113.5 48q66 0 113 -47.5t47 -113.5q0 -67 -46.5 -113.5t-113.5 -46.5q-66 0 -113 47t-47 113zM385 657h408q-12 95 -62 149.5t-139 54.5q-84 0 -140.5 -57.5t-66.5 -146.5zM659 1410q0 65 46.5 113 t113.5 48t113.5 -47.5t46.5 -113.5q0 -67 -46.5 -113.5t-113.5 -46.5q-66 0 -113 47t-47 113z" />
<glyph unicode="&#xec;" horiz-adv-x="624" d="M-173 1591h346l257 -366h-244zM54 857h133v-857h304v1094h-437v-237z" />
<glyph unicode="&#xed;" horiz-adv-x="624" d="M54 857h133v-857h304v1094h-437v-237zM176 1235l255 366h346l-359 -366h-242z" />
<glyph unicode="&#xee;" horiz-adv-x="624" d="M-148 1219l346 425h182l346 -425h-258l-179 213l-179 -213h-258zM54 857h133v-857h304v1094h-437v-237z" />
<glyph unicode="&#xef;" horiz-adv-x="624" d="M-124 1410q0 65 46.5 113t113.5 48q66 0 113 -47.5t47 -113.5q0 -67 -46.5 -113.5t-113.5 -46.5q-66 0 -113 47t-47 113zM54 857h133v-857h304v1094h-437v-237zM341 1410q0 65 46.5 113t113.5 48q66 0 113 -47.5t47 -113.5q0 -67 -46.5 -113.5t-113.5 -46.5 q-66 0 -113 47t-47 113z" />
<glyph unicode="&#xf0;" horiz-adv-x="1153" d="M76 498q0 98 28 188.5t79 162.5t132 115.5t179 43.5q164 0 284 -123q-54 152 -214 300l-369 -185l-76 149l297 147q-83 50 -185 78l26 215q120 -35 209 -90q71 -41 160 -104l244 124l80 -152l-188 -89q144 -143 228 -339t84 -385q0 -117 -33 -220.5t-94 -184t-157 -127.5 t-214 -47q-219 0 -359.5 148t-140.5 375zM357 499q0 -71 21 -131t72 -101.5t125 -41.5q57 0 100 24.5t67.5 66.5t36 92t11.5 107q0 50 -14.5 107t-28.5 73q-41 45 -79.5 60t-91.5 15q-60 0 -103.5 -21.5t-68 -60t-36 -85.5t-11.5 -104z" />
<glyph unicode="&#xf1;" horiz-adv-x="1212" d="M130 0h310l-2 670q97 178 204 178q143 0 143 -194v-654h308v653q0 76 -9 139.5t-34.5 127t-66 106t-109 66t-158.5 17.5q-78 -5 -145.5 -45.5t-147.5 -127.5l-6 158h-287v-1094zM216 1250q0 58 6 104t22 91t42 75t68.5 48t98.5 18q73 0 193 -61q59 -32 74 -38 q32 -14 53 -14t32.5 25t16.5 95h187q0 -58 -5.5 -104.5t-21 -91.5t-41.5 -75.5t-68.5 -49t-99.5 -18.5q-90 0 -201 64q-54 32 -69 39q-31 15 -52 15q-29 0 -39.5 -23t-21.5 -87q0 -3 -0.5 -5t-1 -4.5t-0.5 -4.5z" />
<glyph unicode="&#xf2;" horiz-adv-x="1204" d="M78 544q0 71 16.5 145t56 151t97.5 136.5t150 97.5t205 38q116 0 209 -38t150 -97t95 -136.5t53 -150.5t15 -145q0 -80 -17.5 -158t-58 -153t-99.5 -132t-148.5 -92t-198.5 -35q-110 0 -200.5 35.5t-149.5 92.5t-99.5 132.5t-58 153t-17.5 155.5zM179 1591h346l255 -366 h-242zM387 545q0 -127 63 -215.5t152 -88.5q94 0 154.5 86t60.5 216q0 138 -55.5 220.5t-158.5 82.5q-99 0 -157.5 -87.5t-58.5 -213.5z" />
<glyph unicode="&#xf3;" horiz-adv-x="1204" d="M78 544q0 71 16.5 145t56 151t97.5 136.5t150 97.5t205 38q116 0 209 -38t150 -97t95 -136.5t53 -150.5t15 -145q0 -80 -17.5 -158t-58 -153t-99.5 -132t-148.5 -92t-198.5 -35q-110 0 -200.5 35.5t-149.5 92.5t-99.5 132.5t-58 153t-17.5 155.5zM387 545 q0 -127 63 -215.5t152 -88.5q94 0 154.5 86t60.5 216q0 138 -55.5 220.5t-158.5 82.5q-99 0 -157.5 -87.5t-58.5 -213.5zM478 1225l255 366h346l-359 -366h-242z" />
<glyph unicode="&#xf4;" horiz-adv-x="1204" d="M78 544q0 71 16.5 145t56 151t97.5 136.5t150 97.5t205 38q116 0 209 -38t150 -97t95 -136.5t53 -150.5t15 -145q0 -80 -17.5 -158t-58 -153t-99.5 -132t-148.5 -92t-198.5 -35q-110 0 -200.5 35.5t-149.5 92.5t-99.5 132.5t-58 153t-17.5 155.5zM166 1219l346 425h182 l346 -425h-257l-181 213l-179 -213h-257zM387 545q0 -127 63 -215.5t152 -88.5q94 0 154.5 86t60.5 216q0 138 -55.5 220.5t-158.5 82.5q-99 0 -157.5 -87.5t-58.5 -213.5z" />
<glyph unicode="&#xf5;" horiz-adv-x="1204" d="M78 544q0 71 16.5 145t56 151t97.5 136.5t150 97.5t205 38q116 0 209 -38t150 -97t95 -136.5t53 -150.5t15 -145q0 -80 -17.5 -158t-58 -153t-99.5 -132t-148.5 -92t-198.5 -35q-110 0 -200.5 35.5t-149.5 92.5t-99.5 132.5t-58 153t-17.5 155.5zM217 1240q0 73 10.5 129 t35 105t73 75.5t118.5 26.5q34 0 73 -11t60 -20.5t60 -29.5q59 -32 74 -38q31 -14 53 -14q21 0 32.5 25t16.5 95h187q0 -73 -10 -129.5t-34.5 -106t-73 -76.5t-118.5 -27q-90 0 -201 64q-54 31 -69 39q-32 15 -53 15q-20 0 -31 -13t-16 -31.5t-12 -61.5q-1 -4 -1 -6 t-0.5 -5.5t-1.5 -6.5zM387 545q0 -127 63 -215.5t152 -88.5q94 0 154.5 86t60.5 216q0 138 -55.5 220.5t-158.5 82.5q-99 0 -157.5 -87.5t-58.5 -213.5z" />
<glyph unicode="&#xf6;" horiz-adv-x="1204" d="M78 544q0 71 16.5 145t56 151t97.5 136.5t150 97.5t205 38q116 0 209 -38t150 -97t95 -136.5t53 -150.5t15 -145q0 -80 -17.5 -158t-58 -153t-99.5 -132t-148.5 -92t-198.5 -35q-110 0 -200.5 35.5t-149.5 92.5t-99.5 132.5t-58 153t-17.5 155.5zM212 1410q0 65 46 113 t113 48t114 -47.5t47 -113.5q0 -67 -47 -113.5t-114 -46.5q-66 0 -112.5 47t-46.5 113zM387 545q0 -127 63 -215.5t152 -88.5q94 0 154.5 86t60.5 216q0 138 -55.5 220.5t-158.5 82.5q-99 0 -157.5 -87.5t-58.5 -213.5zM677 1410q0 65 46 113t113 48t114 -47.5t47 -113.5 q0 -67 -47 -113.5t-114 -46.5q-66 0 -112.5 47t-46.5 113z" />
<glyph unicode="&#xf7;" horiz-adv-x="1314" d="M102 566v247h1115v-247h-1115zM484 247q0 72 52 124t124 52t123 -52t51 -124q0 -73 -51 -125t-123 -52t-124 52t-52 125zM484 1133q0 72 52 124t124 52t123 -52t51 -124t-50.5 -123t-123.5 -51q-72 0 -124 51t-52 123z" />
<glyph unicode="&#xf8;" horiz-adv-x="1141" d="M-18 33l162 169q-94 150 -94 342q0 58 12 119.5t36.5 126.5t67 122t98 102t136 71.5t175.5 26.5q201 0 332 -111l131 137l121 -97l-152 -160q90 -150 90 -336q0 -80 -17.5 -158t-58 -153t-99.5 -132t-148.5 -92t-198.5 -35q-194 0 -327 108l-142 -150zM359 545 q0 -57 13 -105l337 353q-55 53 -134 53q-99 0 -157.5 -87.5t-58.5 -213.5zM450 296q55 -55 124 -55q94 0 154 86t60 216q0 59 -8 99z" />
<glyph unicode="&#xf9;" horiz-adv-x="1201" d="M116 430q0 -77 8 -139.5t32 -126.5t63.5 -106t107 -66t157.5 -18q80 6 152.5 47t150.5 127l15 -148h278v1094h-310l2 -681q-38 -72 -91.5 -117.5t-112.5 -45.5q-144 0 -144 180v664h-308v-664zM169 1591h346l257 -366h-244z" />
<glyph unicode="&#xfa;" horiz-adv-x="1201" d="M116 430q0 -77 8 -139.5t32 -126.5t63.5 -106t107 -66t157.5 -18q80 6 152.5 47t150.5 127l15 -148h278v1094h-310l2 -681q-38 -72 -91.5 -117.5t-112.5 -45.5q-144 0 -144 180v664h-308v-664zM439 1225l255 366h348l-361 -366h-242z" />
<glyph unicode="&#xfb;" horiz-adv-x="1201" d="M116 430q0 -77 8 -139.5t32 -126.5t63.5 -106t107 -66t157.5 -18q80 6 152.5 47t150.5 127l15 -148h278v1094h-310l2 -681q-38 -72 -91.5 -117.5t-112.5 -45.5q-144 0 -144 180v664h-308v-664zM176 1219l346 425h182l346 -425h-257l-180 213l-179 -213h-258z" />
<glyph unicode="&#xfc;" horiz-adv-x="1201" d="M116 430q0 -77 8 -139.5t32 -126.5t63.5 -106t107 -66t157.5 -18q80 6 152.5 47t150.5 127l15 -148h278v1094h-310l2 -681q-38 -72 -91.5 -117.5t-112.5 -45.5q-144 0 -144 180v664h-308v-664zM222 1410q0 65 46 113t113 48t114 -47.5t47 -113.5q0 -67 -47 -113.5 t-114 -46.5q-66 0 -112.5 47t-46.5 113zM687 1410q0 65 46.5 113t113.5 48q66 0 113 -47.5t47 -113.5q0 -67 -46.5 -113.5t-113.5 -46.5q-66 0 -113 47t-47 113z" />
<glyph unicode="&#xfd;" horiz-adv-x="1137" d="M14 1094l413 -1049q-4 -9 -22.5 -60.5t-35 -93.5t-24.5 -54q-20 -34 -42 -50.5t-58 -16.5q-2 0 -131 27l-42 -248q133 -36 204 -36q155 0 236 61t135 209l475 1311h-336l-97 -345l-122 -411q-1 0 -24.5 87.5t-51.5 192t-36 130.5l-103 346h-338zM411 1225l255 366h347 l-360 -366h-242z" />
<glyph unicode="&#xfe;" horiz-adv-x="1306" d="M129 -463v1935l283 107v-632q66 80 152 121.5t177 41.5q99 0 178 -35t129 -92t83 -134t46.5 -156.5t13.5 -164.5q0 -89 -16 -170t-52 -155t-89 -128.5t-133 -87t-178 -32.5q-74 0 -153 36t-135 101v-447zM435 395q35 -74 96 -116.5t140 -42.5q64 0 112.5 45t71.5 112 t23 142q0 128 -56 211t-166 83q-70 0 -128 -37.5t-93 -102.5v-294z" />
<glyph unicode="&#xff;" horiz-adv-x="1137" d="M14 1094l413 -1049q-4 -9 -22.5 -60.5t-35 -93.5t-24.5 -54q-20 -34 -42 -50.5t-58 -16.5q-2 0 -131 27l-42 -248q133 -36 204 -36q155 0 236 61t135 209l475 1311h-336l-97 -345l-122 -411q-1 0 -24.5 87.5t-51.5 192t-36 130.5l-103 346h-338zM181 1410q0 65 46.5 113 t113.5 48q66 0 113 -47.5t47 -113.5q0 -67 -46.5 -113.5t-113.5 -46.5q-66 0 -113 47t-47 113zM647 1410q0 66 46 113.5t113 47.5t114 -47.5t47 -113.5q0 -67 -47 -113.5t-114 -46.5q-66 0 -112.5 47t-46.5 113z" />
<glyph unicode="&#x152;" horiz-adv-x="2165" d="M99 755q0 110 23 217t73 207t121 176t174.5 121.5t226.5 45.5q89 0 179 -40t155 -111v134h1025l-18 -288h-699v-315h591l-20 -281h-571v-336h726l-18 -285h-1016v130q-67 -73 -153 -115.5t-180 -42.5q-99 0 -183.5 26.5t-147 71t-112.5 107t-82.5 132t-54 147.5 t-30.5 152t-9 147zM425 752q0 -88 17.5 -170.5t53.5 -156t101 -118t151 -44.5q53 0 97 17.5t74.5 46.5t53.5 70t37 84t23 93.5t12 93.5t3 87q0 99 -16 182t-49.5 151.5t-93.5 107.5t-142 39q-84 0 -149 -47.5t-101 -123t-54 -155.5t-18 -157z" />
<glyph unicode="&#x153;" horiz-adv-x="1883" d="M78 544q0 72 16 146t55 151t96 136t148 97t202 38q217 0 360 -193q67 87 162.5 139t213.5 52q103 0 186 -34t135.5 -88.5t87.5 -128.5t49.5 -149.5t14.5 -155.5q0 -13 -7 -98h-701q7 -112 62.5 -174t153.5 -62q83 0 147.5 33.5t127.5 130.5l215 -138 q-94 -155 -206.5 -214.5t-292.5 -59.5q-219 0 -355 178q-140 -175 -353 -175q-108 0 -197 35t-147.5 92.5t-98 132.5t-57 152.5t-17.5 156.5zM370 545q0 -131 65 -223.5t159 -92.5q99 0 161 90t62 224q0 142 -57 228.5t-165 86.5q-104 0 -164.5 -92t-60.5 -221zM1111 662 h406q-14 92 -63.5 144.5t-134.5 52.5q-80 0 -134 -55t-74 -142z" />
<glyph unicode="&#x178;" horiz-adv-x="1390" d="M10 1504h376q256 -523 284 -572q5 -8 30 -63q20 46 28 59l288 576h364l-522 -913v-591h-324v589zM348 1794q0 61 42.5 104.5t104.5 43.5q61 0 104.5 -43.5t43.5 -104.5q0 -62 -43.5 -105t-104.5 -43t-104 43.5t-43 104.5zM788 1794q0 61 42.5 104.5t104.5 43.5 q61 0 104.5 -43.5t43.5 -104.5q0 -62 -43.5 -105t-104.5 -43t-104 43.5t-43 104.5z" />
<glyph unicode="&#x2c6;" horiz-adv-x="1026" d="M75 1219l347 425h181l347 -425h-258l-179 213l-180 -213h-258z" />
<glyph unicode="&#x2dc;" horiz-adv-x="887" d="M46 1230q0 73 10.5 129t35.5 105t73 75.5t118 26.5q78 0 193 -61q55 -30 75 -38q31 -14 52 -14t32.5 25t16.5 95h189q-1 -58 -7 -104.5t-22 -92t-41.5 -75.5t-68 -48.5t-99.5 -18.5q-89 0 -200 64q-68 38 -70 39q-32 15 -52 15q-30 0 -40 -24.5t-22 -99.5z" />
<glyph unicode="&#x2000;" horiz-adv-x="1032" />
<glyph unicode="&#x2001;" horiz-adv-x="2064" />
<glyph unicode="&#x2002;" horiz-adv-x="1032" />
<glyph unicode="&#x2003;" horiz-adv-x="2064" />
<glyph unicode="&#x2004;" horiz-adv-x="688" />
<glyph unicode="&#x2005;" horiz-adv-x="516" />
<glyph unicode="&#x2006;" horiz-adv-x="344" />
<glyph unicode="&#x2007;" horiz-adv-x="344" />
<glyph unicode="&#x2008;" horiz-adv-x="258" />
<glyph unicode="&#x2009;" horiz-adv-x="412" />
<glyph unicode="&#x200a;" horiz-adv-x="114" />
<glyph unicode="&#x2010;" horiz-adv-x="791" d="M90 583v255h611v-255h-611z" />
<glyph unicode="&#x2011;" horiz-adv-x="791" d="M90 583v255h611v-255h-611z" />
<glyph unicode="&#x2012;" horiz-adv-x="791" d="M90 583v255h611v-255h-611z" />
<glyph unicode="&#x2013;" horiz-adv-x="1131" d="M90 583v255h944v-255h-944z" />
<glyph unicode="&#x2014;" horiz-adv-x="1967" d="M90 583v255h1786v-255h-1786z" />
<glyph unicode="&#x2018;" horiz-adv-x="543" d="M107 892l123 613h179l-18 -613h-284z" />
<glyph unicode="&#x2019;" horiz-adv-x="543" d="M134 892l17 613h285l-124 -613h-178z" />
<glyph unicode="&#x201a;" horiz-adv-x="574" d="M134 -378l24 623h309l-145 -623h-188z" />
<glyph unicode="&#x201c;" horiz-adv-x="1057" d="M107 892l119 613h195l-18 -613h-296zM609 892l119 613h195l-18 -613h-296z" />
<glyph unicode="&#x201d;" horiz-adv-x="1084" d="M134 892l18 613h296l-119 -613h-195zM636 892l18 613h296l-118 -613h-196z" />
<glyph unicode="&#x201e;" horiz-adv-x="1098" d="M134 -378l24 623h309l-145 -623h-188zM659 -378l24 623h308l-144 -623h-188z" />
<glyph unicode="&#x2022;" horiz-adv-x="756" d="M143 750q0 97 69 168t166 71t166 -71t69 -168q0 -98 -69 -167t-166 -69t-166 69t-69 167z" />
<glyph unicode="&#x2026;" horiz-adv-x="2061" d="M99 191q0 88 62 150t150 62q87 0 149 -62t62 -150t-62 -149.5t-149 -61.5q-88 0 -150 61.5t-62 149.5zM819 191q0 88 62 150t149 62q88 0 150 -62t62 -150t-62 -149.5t-150 -61.5q-87 0 -149 61.5t-62 149.5zM1539 191q0 88 62 150t149 62q88 0 150 -62t62 -150 t-62 -149.5t-150 -61.5q-87 0 -149 61.5t-62 149.5z" />
<glyph unicode="&#x202f;" horiz-adv-x="412" />
<glyph unicode="&#x2030;" horiz-adv-x="2996" d="M107 1048q0 66 10.5 129t37 126.5t66.5 111t103 77t142 29.5q97 0 169 -43.5t110 -115t55.5 -148.5t17.5 -160q0 -66 -10 -129.5t-36 -127.5t-65.5 -111t-102.5 -77t-143 -30q-77 0 -139.5 30t-101.5 77t-65.5 110t-37 125.5t-10.5 126.5zM347 1048q0 -124 35.5 -187 t82.5 -63q43 0 78 64t35 188q0 128 -34.5 190.5t-78.5 62.5q-45 0 -81.5 -65t-36.5 -190zM605 0l730 1503h232l-731 -1503h-231zM1340 442q0 66 10.5 129t37 126.5t66 110.5t102.5 76.5t142 29.5t141.5 -29.5t101 -76t64.5 -109.5t36 -125t10 -127q0 -66 -10.5 -129.5 t-36.5 -127.5t-65 -111t-102.5 -77t-143.5 -30q-77 0 -139.5 30t-101.5 77.5t-65 110.5t-36.5 125.5t-10.5 126.5zM1579 442q0 -125 36 -188t82 -63q44 0 78.5 64t34.5 189q0 128 -34.5 190t-78.5 62t-81 -65t-37 -189zM2205 442q0 66 10.5 129t37 126.5t66 110.5 t102.5 76.5t142 29.5q98 0 170 -43.5t110.5 -115t56 -148.5t17.5 -160q0 -66 -10.5 -129.5t-36.5 -127.5t-65 -111t-102.5 -77t-143.5 -30q-77 0 -139.5 30t-101.5 77.5t-65.5 110.5t-37 125.5t-10.5 126.5zM2445 442q0 -125 36 -188t82 -63q43 0 78 64.5t35 188.5 q0 128 -34.5 190t-78.5 62t-81 -65t-37 -189z" />
<glyph unicode="&#x2039;" horiz-adv-x="816" d="M47 557l394 534h282l-394 -536l398 -555h-287z" />
<glyph unicode="&#x203a;" horiz-adv-x="810" d="M79 0l399 555l-395 536h252l424 -534l-393 -557h-287z" />
<glyph unicode="&#x205f;" horiz-adv-x="516" />
<glyph unicode="&#x20ac;" horiz-adv-x="1347" d="M17 471l61 211h134q-3 30 -3 58q0 34 4 67h-177l61 212h147q23 100 73.5 188.5t125.5 159.5t180.5 112.5t227.5 41.5q271 0 426 -259l-215 -143q-91 141 -215 141q-97 0 -179 -66.5t-123 -174.5h471l-59 -212h-458q-4 -38 -4 -65q0 -24 4 -60h468l-56 -211h-371 q34 -110 107.5 -173t161.5 -63q44 0 69 2.5t67 14.5t88 42t104 79l164 -200q-202 -202 -471 -202q-123 0 -227 41t-175.5 112t-118 158.5t-68.5 188.5h-224z" />
<glyph unicode="&#x2122;" horiz-adv-x="1703" d="M37 1330v176h650v-176h-222v-673h-202v673h-226zM792 657v849h189l227 -428l225 428h191v-849h-199v478l-163 -326h-119l-152 328v-480h-199z" />
<glyph unicode="&#x2190;" horiz-adv-x="1443" d="M97 659v57l586 553l137 -186l-299 -274h825v-240h-827l301 -276l-139 -189z" />
<glyph unicode="&#x2191;" horiz-adv-x="1359" d="M97 678l555 583h55l555 -585l-186 -137l-277 298v-825h-237v827l-279 -300z" />
<glyph unicode="&#x2192;" horiz-adv-x="1443" d="M97 569v240h825l-299 274l135 186l588 -553v-57l-584 -555l-139 189l301 276h-827z" />
<glyph unicode="&#x2193;" horiz-adv-x="1359" d="M97 596l188 137l274 -299v825h240v-827l276 301l187 -139l-555 -584h-56z" />
<glyph unicode="&#x25fc;" horiz-adv-x="1095" d="M0 0v1095h1095v-1095h-1095z" />
<glyph horiz-adv-x="1074" d="M75 960l456 152h197v-852h264v-260h-840v260h287v555l-301 -92z" />
<glyph horiz-adv-x="1075" d="M96 870q88 126 197.5 192t254.5 66q113 0 207.5 -39.5t155.5 -123.5t61 -199q0 -59 -26.5 -112t-69.5 -93t-95.5 -75t-107 -64.5t-101 -55t-80 -52.5t-42.5 -52h512v-262h-850v133q0 86 31.5 161.5t81.5 128.5t111 98.5t122 79.5t111 63t81.5 56t31.5 52q0 49 -34.5 75.5 t-97.5 26.5q-71 0 -126 -39.5t-105 -107.5z" />
<glyph horiz-adv-x="1102" d="M77 88l207 150q63 -94 122 -128t121 -34q110 0 156.5 52.5t46.5 129.5q0 69 -41.5 106t-118.5 37h-96v244h107q51 0 80.5 36t29.5 93q0 40 -41 76.5t-110 36.5q-58 0 -113.5 -29.5t-122.5 -120.5l-190 135q168 258 428 258q75 0 147 -20.5t136 -61t103 -111.5t39 -163 q0 -68 -34.5 -134t-99.5 -104q86 -33 136 -105t50 -173q0 -204 -140.5 -322t-359.5 -118q-280 0 -442 270z" />
<glyph horiz-adv-x="1168" d="M32 100v187l675 825h219v-758h164v-254h-164v-272h-274v272h-620zM386 354h266v330q-108 -157 -266 -330z" />
<glyph horiz-adv-x="1159" d="M103 90l213 150q34 -51 68 -84.5t65 -48.5t54.5 -20t51.5 -5q52 0 92.5 17.5t63 45t34 57.5t11.5 60q0 93 -48.5 141.5t-115.5 48.5q-30 0 -52 -3.5t-64 -23t-91 -55.5l-198 66l47 676h735v-256h-491l-17 -193q74 37 180 37q77 0 149 -29t130 -82t92.5 -137t34.5 -186 q0 -204 -139.5 -326t-358.5 -122q-280 0 -446 272z" />
<glyph horiz-adv-x="1130" d="M99 536q0 67 4.5 129t18.5 138t36.5 140t62.5 126.5t92.5 106t130 70.5t171.5 27q119 0 215 -55.5t182 -179.5l-197 -131q-100 117 -204 117q-101 0 -164 -85.5t-78 -230.5q107 107 248 107q201 0 318.5 -111.5t117.5 -304.5q0 -202 -132.5 -324t-346.5 -122 q-94 0 -170 26t-126.5 72t-86.5 102.5t-55.5 124.5t-28 130.5t-8.5 127.5zM398 405q0 -88 49.5 -140t138.5 -52q87 0 134.5 49t47.5 135q0 92 -43.5 139t-146.5 47q-79 0 -129.5 -55t-50.5 -123z" />
<glyph horiz-adv-x="975" d="M66 854v258h847v-180q-113 -321 -456 -1100h-305q340 786 432 1022h-518z" />
<glyph horiz-adv-x="1180" d="M98 342q0 111 74.5 192.5t171.5 108.5v8q-77 27 -134 96.5t-57 155.5q0 112 63.5 197.5t162 128t212.5 42.5t211.5 -40.5t161 -124.5t63.5 -197q0 -88 -56 -155t-136 -99v-4q101 -35 174.5 -115.5t73.5 -191.5q0 -97 -41.5 -174t-112 -124.5t-157 -72t-181.5 -24.5 q-74 0 -144 15t-133.5 47t-111.5 77.5t-76 111t-28 142.5zM378 356q0 -68 58.5 -108.5t154.5 -40.5q98 0 154.5 37.5t56.5 107.5q0 87 -56.5 133.5t-156.5 46.5t-155.5 -46.5t-55.5 -129.5zM428 893q0 -62 43 -98.5t120 -36.5q73 0 117.5 39t44.5 100q0 135 -162 135 q-84 0 -123.5 -38t-39.5 -101z" />
<glyph horiz-adv-x="1125" d="M77 702q0 93 39.5 174.5t105.5 136t152 86t178 31.5q99 0 179.5 -30.5t134 -81.5t90.5 -120.5t53 -144.5t16 -155q0 -77 -3.5 -141.5t-16 -148t-33.5 -149t-59.5 -132t-90 -111t-128.5 -72.5t-173 -28q-118 0 -220.5 51t-200.5 172l223 133q101 -106 203 -106 q96 0 157 86.5t74 256.5q-110 -112 -262 -112q-110 0 -205 48.5t-154 142.5t-59 214zM364 708q0 -174 178 -174q71 0 127.5 52t56.5 116q0 81 -52.5 132t-133.5 51q-78 0 -127 -49.5t-49 -127.5z" />
<glyph horiz-adv-x="1206" d="M86 543q0 74 15 149.5t52.5 155.5t94 141.5t148.5 101t206 39.5q85 0 158 -20.5t125 -55t93.5 -82.5t67.5 -100t43 -110.5t24 -111.5t7 -105q0 -83 -16.5 -163.5t-56 -159.5t-97.5 -137.5t-147.5 -95t-200.5 -36.5q-112 0 -202 36.5t-147.5 96t-96 138t-54.5 158 t-16 161.5zM377 543q0 -139 63.5 -233.5t161.5 -94.5q103 0 164 91.5t61 233.5q0 151 -56.5 239.5t-168.5 88.5q-73 0 -125 -46t-76 -118t-24 -161z" />
</font>
</defs>
</svg>
