<?xml version="1.0" standalone="no"?>
<!DOCTYPE svg PUBLIC "-//W3C//DTD SVG 1.1//EN" "http://www.w3.org/Graphics/SVG/1.1/DTD/svg11.dtd" >
<svg xmlns="http://www.w3.org/2000/svg">
<metadata></metadata>
<defs>
<font id="madrasregular_italic" horiz-adv-x="1290" >
<font-face units-per-em="2048" ascent="1628" descent="-420" />
<missing-glyph horiz-adv-x="487" />
<glyph unicode="&#xfb00;" horiz-adv-x="1189" d="M179 0l202 959h-169l29 135h169l37 169q29 134 124 213.5t228 79.5q73 0 152 -25l-62 -147q-63 15 -107 15q-71 0 -117 -41.5t-59 -108.5l-33 -155h418l37 169q29 134 124 213.5t228 79.5q73 0 152 -25l-62 -147q-63 15 -107 15q-71 0 -117 -41.5t-59 -108.5l-33 -155 h228l-28 -135h-229l-202 -959h-163l202 959h-418l-202 -959h-163z" />
<glyph unicode="&#xfb01;" horiz-adv-x="1083" d="M179 0l202 959h-169l29 135h169l37 168q29 134 124 213.5t228 79.5q77 0 152 -25l-62 -146q-63 15 -107 15q-71 0 -117 -42t-59 -109l-33 -154h601l-231 -1094h-162l202 959h-438l-203 -959h-163zM1039 1399q11 51 55.5 87.5t91.5 36.5q48 0 77 -36.5t18 -87.5 q-10 -50 -55 -86.5t-92 -36.5t-76 36.5t-19 86.5z" />
<glyph unicode="&#xfb02;" horiz-adv-x="1090" d="M179 0l202 959h-169l29 135h169l16 70q40 186 158 289.5t302 103.5q200 0 273 -95t29 -298l-192 -906q-13 -62 5 -91t80 -29q18 0 88 7l-9 -137q-69 -22 -123 -22q-141 0 -188 62t-17 202l194 913q28 133 -8.5 190.5t-163.5 57.5q-112 0 -178.5 -68.5t-88.5 -183.5 l-14 -65h228l-29 -135h-228l-202 -959h-163z" />
<glyph unicode="&#xfb03;" horiz-adv-x="1684" d="M179 0l202 959h-169l29 135h169l29 132q29 134 124 213.5t228 79.5q73 0 152 -25l-62 -147q-63 15 -107 15q-71 0 -117 -41.5t-59 -108.5l-25 -118h437l37 169q29 134 124 213.5t228 79.5q72 0 152 -25l-62 -147q-63 15 -107 15q-71 0 -117 -41.5t-59 -108.5l-33 -155 h601l-231 -1094h-162l202 959h-438l-202 -959h-164l202 959h-436l-203 -959h-163zM1641 1400q11 50 55.5 86.5t91.5 36.5t76.5 -36.5t18.5 -86.5q-10 -50 -55 -86.5t-92 -36.5t-76 36.5t-19 86.5z" />
<glyph unicode="&#xfb04;" horiz-adv-x="1671" d="M179 0l202 959h-169l30 135h168l37 169q29 135 124 214t229 79q74 0 151 -25l-62 -147q-61 15 -106 15q-72 0 -118 -41.5t-59 -108.5l-32 -155h417l16 69q40 187 158 290t303 103q199 0 272 -95t29 -298l-192 -905q-13 -62 5 -91.5t80 -29.5q27 0 89 8l-10 -138 q-66 -21 -123 -21q-142 0 -188 61.5t-16 201.5l194 913q27 133 -9.5 191t-163.5 58q-112 0 -178 -68.5t-88 -184.5l-14 -64h228l-29 -135h-228l-203 -959h-163l202 959h-417l-202 -959h-164z" />
<glyph unicode="ft" horiz-adv-x="1243" d="M179 0l202 959h-169l29 135h169l37 170q29 134 124 213.5t228 79.5q69 0 152 -25l-62 -148q-63 15 -107 15q-72 0 -117.5 -41t-58.5 -108l-33 -156h468l47 216l173 60l-60 -276h247l-30 -135h-246l-145 -690q-14 -65 5 -98t95 -33q12 0 24.5 1t30 3t30.5 3l-11 -137 q-68 -22 -122 -22q-69 0 -116.5 14.5t-72.5 37.5t-35.5 58.5t-9 71t11.5 82.5l149 709h-462l-202 -959h-163z" />
<glyph horiz-adv-x="0" />
<glyph horiz-adv-x="682" />
<glyph unicode=" "  horiz-adv-x="487" />
<glyph unicode="&#x09;" horiz-adv-x="487" />
<glyph unicode="&#xa0;" horiz-adv-x="487" />
<glyph unicode="!" horiz-adv-x="565" d="M160 121q-13 -61 20.5 -104t94.5 -43t113 43t66 104q13 61 -21 104t-95 43t-113 -43t-65 -104zM297 429l35 209l184 866h171l-184 -866l-55 -209h-151z" />
<glyph unicode="&#x22;" horiz-adv-x="901" d="M376 822l103 683h214l-188 -683h-129zM746 822l103 683h214l-188 -683h-129z" />
<glyph unicode="#" horiz-adv-x="1399" d="M200 379l31 150h248l98 458h-248l32 151h248l78 367h162l-78 -367h343l78 367h161l-78 -367h248l-32 -151h-248l-98 -458h248l-31 -150h-248l-81 -379h-161l81 379h-343l-81 -379h-162l81 379h-248zM641 529h343l98 458h-343z" />
<glyph unicode="$" horiz-adv-x="1186" d="M146 224l142 81q92 -182 320 -182q136 0 239 76.5t130 203.5q27 128 -75 198q-46 31 -107 54q-18 6 -39 13.5t-47 17t-40 14.5q-36 13 -64 25t-59.5 29t-55 35.5t-46 42.5t-36 53t-21.5 63.5t-7 77t12 90.5q38 173 153 278.5t281 124.5l43 205h165l-45 -208 q208 -40 286 -224l-135 -86q-78 165 -262 165q-113 0 -204 -71t-117 -194q-28 -131 71 -199q31 -21 107 -52q22 -9 65 -23.5t62 -21.5q36 -13 64 -25t60.5 -29t56 -36t46.5 -43.5t37 -54.5t22.5 -65.5t7 -79.5t-12.5 -94q-41 -191 -167 -292t-315 -116l-41 -203h-165l43 207 q-119 18 -213 78.5t-139 166.5z" />
<glyph unicode="%" horiz-adv-x="1944" d="M321.5 923.5q2.5 64.5 17.5 132.5q19 89 54 168.5t87.5 148t127.5 108.5t162 40q70 0 120.5 -26.5t77.5 -70.5t38.5 -104.5t8.5 -124t-18 -133.5q-15 -71 -39.5 -136.5t-62 -126.5t-84 -105.5t-109.5 -71.5t-134 -27q-69 0 -119.5 27t-78 72t-39.5 105t-9.5 124.5z M486 818q30 -92 114 -92q80 0 147.5 92.5t98.5 239.5q33 151 4.5 242t-109.5 91q-82 0 -151.5 -93.5t-101.5 -241.5q-32 -146 -2 -238zM537 0l1050 1503h152l-1051 -1503h-151zM1246.5 301.5q2.5 64.5 17.5 132.5q19 89 54 168.5t87 147.5t126.5 108t161.5 40 q70 0 121 -26.5t78 -70.5t39 -104t9 -124t-18 -133q-19 -90 -54 -170t-87 -148.5t-127 -109t-163 -40.5q-69 0 -119 27t-77 72t-39 105.5t-9.5 125zM1410.5 195.5q29.5 -92.5 112.5 -92.5q81 0 149 93t99 240q33 150 4.5 241t-110.5 91q-81 0 -150.5 -93t-101.5 -241 q-32 -146 -2.5 -238.5z" />
<glyph unicode="&#x26;" horiz-adv-x="1368" d="M200 392q13 63 45 120.5t70 99.5t95.5 85.5t105 72t115.5 65.5q-9 20 -28 58.5t-28.5 59t-22 55.5t-16 63t-3 66t9.5 79q30 141 140 223t250 82q45 0 92 -10.5t95 -32.5t87 -63.5t59 -96.5l-136 -83q-68 129 -213 129q-75 0 -128.5 -42t-69.5 -118q-6 -26 -7 -50.5t6 -52 t10.5 -43.5t19.5 -48t21 -41.5t26 -47.5l254 -458q74 102 143 304l154 -46q-86 -244 -210 -419l166 -302h-211q-17 29 -47 83.5t-42 75.5q-199 -186 -454 -186q-189 0 -288.5 114.5t-59.5 304.5zM364 372q-23 -111 36 -179t163 -68q94 0 192.5 48t170.5 124 q-40 74 -115.5 206.5t-113.5 202.5q-65 -34 -110.5 -63t-96 -70t-82.5 -92t-44 -109z" />
<glyph unicode="'" horiz-adv-x="537" d="M374 822l103 683h222l-188 -683h-137z" />
<glyph unicode="(" horiz-adv-x="631" d="M219 384q3 102 25 204q52 243 202 498.5t337 448.5l61 -87q-156 -188 -272.5 -412t-161.5 -438q-32 -138 -26.5 -287t31 -275.5t70.5 -247.5l-100 -87q-40 84 -68 155.5t-53.5 163t-36.5 177t-8 187.5z" />
<glyph unicode=")" horiz-adv-x="631" d="M54 -212q337 427 416 800q45 227 24.5 450.5t-96.5 409.5l100 87q68 -127 110 -273t54.5 -317t-24.5 -337q-52 -243 -188 -465t-334 -442z" />
<glyph unicode="*" horiz-adv-x="700" d="M208 1228l19 93l248 -16l-103 248l95 50l61 -263l168 260l75 -49l-204 -245l253 15l-19 -93l-247 19l100 -252l-97 -48l-58 261l-169 -262l-75 50l207 251z" />
<glyph unicode="+" horiz-adv-x="1143" d="M239 632l29 133h403l91 429h139l-91 -429h392l-29 -133h-392l-92 -434h-139l92 434h-403z" />
<glyph unicode="," horiz-adv-x="482" d="M65 -238l125 483h222l-240 -483h-107z" />
<glyph unicode="-" horiz-adv-x="656" d="M235 653l32 155h461l-32 -155h-461z" />
<glyph unicode="." horiz-adv-x="508" d="M133 121q13 61 65 104t113 43t95 -43t21 -104t-65 -104t-113 -43t-95 43t-21 104z" />
<glyph unicode="/" horiz-adv-x="824" d="M9 -171l958 1781h150l-956 -1781h-152z" />
<glyph unicode="0" horiz-adv-x="1188" d="M213.5 465.5q2.5 79.5 11.5 146.5t24 137q15 71 33 136t48 145t65.5 146.5t87 131.5t110.5 110.5t138.5 73t168.5 27.5q86 0 152.5 -27.5t109 -73.5t70 -110t38.5 -133.5t11.5 -148t-8 -149.5t-23.5 -142q-14 -67 -33.5 -132.5t-50.5 -143t-68 -145t-89.5 -132t-112 -110 t-137.5 -73.5t-164 -28q-91 0 -160.5 28t-112 74t-68 111.5t-34.5 133.5t-6.5 147.5zM375.5 491q-5.5 -106 13 -192.5t75.5 -134t149 -47.5q86 0 164 52.5t137 142t103 198.5t70 230q27 128 31.5 239t-15 201t-74.5 142t-140 52q-92 0 -170.5 -50.5t-136.5 -141t-101 -203.5 t-72 -251q-28 -131 -33.5 -237z" />
<glyph unicode="1" horiz-adv-x="996" d="M118 0l32 150h327l249 1167l-346 -119l-9 162l433 143h126l-288 -1353h304l-32 -150h-796z" />
<glyph unicode="2" horiz-adv-x="1149" d="M104 0l17 79q23 108 77 203.5t123 164.5t152.5 133.5t166 112t163 98t144 93.5t108 96.5t56.5 109.5q27 125 -38.5 201.5t-198.5 76.5q-221 0 -373 -171l-101 86q195 237 494 237q133 0 227.5 -55t133.5 -156.5t12 -232.5q-18 -88 -74 -164.5t-132 -135t-165.5 -113 t-180.5 -109t-170 -111.5t-141.5 -132.5t-89.5 -160.5h741l-31 -150h-920z" />
<glyph unicode="3" horiz-adv-x="1147" d="M132 227l122 81q46 -99 118 -142t172 -43q173 0 293.5 85.5t151.5 232.5q31 144 -35 215t-210 71h-157l32 145h137q255 0 307 246q14 64 -3.5 120t-73.5 93t-143 37q-218 0 -366 -171l-95 86q98 124 222.5 180.5t246.5 56.5q86 0 161.5 -29t130 -80.5t77.5 -131t3 -173.5 q-39 -187 -221 -300q90 -43 132.5 -140.5t11.5 -242.5q-26 -121 -86.5 -211t-145 -141.5t-180.5 -75.5t-205 -24q-138 0 -249.5 66t-147.5 190z" />
<glyph unicode="4" horiz-adv-x="1227" d="M108 347l24 118l989 1038h126l-214 -1010h213l-31 -146h-213l-73 -347h-159l74 347h-736zM355 493h518l150 699q-464 -491 -668 -699z" />
<glyph unicode="5" horiz-adv-x="1192" d="M165 234l135 82q39 -92 116 -142.5t182 -50.5q138 0 262 106.5t152 241.5q29 135 -41 231.5t-203 96.5q-81 0 -156.5 -25.5t-176.5 -101.5l-114 47l215 785h778l-32 -150h-634l-137 -493q1 0 3.5 -0.5t3.5 -1.5q130 88 280 88q130 0 225.5 -70.5t134 -186.5t10.5 -248 q-43 -206 -208 -338t-375 -132q-144 0 -259 69.5t-161 192.5z" />
<glyph unicode="6" horiz-adv-x="1178" d="M218 441q2 92 24 188l4 22q21 93 43 170t56 169.5t72.5 164.5t94 143t119 117.5t147.5 75.5t180 29q74 0 136.5 -16.5t118.5 -59.5t86 -110l-125 -76q-36 61 -99.5 86t-125.5 25q-84 0 -159.5 -36.5t-131 -95.5t-101 -139.5t-74.5 -162.5t-47 -170l3 -1h3 q79 76 178 125.5t206 49.5q139 0 234 -64.5t130 -177t5 -252.5q-32 -151 -121 -259.5t-209.5 -160t-261.5 -51.5q-102 0 -179 38.5t-121 102.5t-65.5 149t-19.5 177zM389 472q-32 -154 28 -251t208 -97q145 0 262 92.5t148 245.5q33 155 -27 239.5t-215 84.5q-95 0 -192 -51 t-139 -110q-20 -27 -28.5 -40t-22.5 -44.5t-22 -68.5z" />
<glyph unicode="7" horiz-adv-x="1057" d="M292 0q34 164 109.5 341t160 320t188.5 287.5t180.5 236t151.5 172.5h-724l31 147h920l-26 -127q-10 -12 -77 -90t-138 -163t-167.5 -220.5t-176.5 -269.5t-153.5 -304t-109.5 -330h-169z" />
<glyph unicode="8" horiz-adv-x="1254" d="M196 421q29 134 125 229t241 143q-89 42 -133.5 133.5t-21.5 201.5q36 174 176 281t356 107q217 0 320 -112.5t66 -287.5q-22 -107 -101 -187.5t-193 -128.5q122 -46 177.5 -149.5t26.5 -241.5q-44 -207 -205 -322.5t-399 -115.5q-239 0 -359 122t-76 328zM357 413 q-28 -131 41.5 -213.5t243.5 -82.5q178 0 290.5 80.5t140.5 211.5q27 129 -46.5 219t-238.5 90q-168 0 -286 -88t-145 -217zM568 1117q-24 -109 36 -184t196 -75q134 0 238 80.5t126 184.5q6 36 6.5 71t-14.5 67.5t-41 57t-74 39.5t-112 15q-80 0 -146.5 -23.5t-109.5 -62 t-69.5 -82t-35.5 -88.5z" />
<glyph unicode="9" horiz-adv-x="1178" d="M204 163l128 78q36 -62 98 -88.5t121 -26.5q81 0 155 34.5t130 92.5t102.5 136t77.5 160.5t50 171.5q-80 -75 -182 -119.5t-205 -44.5q-211 0 -313.5 139.5t-57.5 352.5q48 228 203.5 349.5t372.5 121.5q83 0 150.5 -26t113.5 -72t76.5 -108.5t42.5 -137t9 -155.5 t-21 -165l-5 -22q-20 -94 -41 -170t-54 -168t-71 -163t-93.5 -140.5t-119.5 -115.5t-150.5 -74t-185.5 -28q-107 0 -199 46t-132 142zM464 1032q-32 -152 35.5 -237.5t224.5 -85.5q81 0 162 41t127 94q26 31 41 51.5t32 55.5t25 72q32 151 -37 249t-219 98 q-142 0 -250 -91.5t-141 -246.5z" />
<glyph unicode=":" horiz-adv-x="508" d="M134 121q13 61 65 104t113 43t95 -43t21 -104q-14 -61 -66 -104t-113 -43t-94.5 43t-20.5 104zM312 963q14 61 66 104t113 43t94.5 -43t20.5 -104t-65 -104t-113 -43t-95 43t-21 104z" />
<glyph unicode=";" horiz-adv-x="502" d="M63 -208h137l224 453h-242zM306 963q13 61 65 104t113 43t95 -43t21 -104t-65 -104t-113 -43t-95 43t-21 104z" />
<glyph unicode="&#x3c;" horiz-adv-x="803" d="M241 617l30 140l674 532l-42 -200l-523 -401l352 -401l-43 -204z" />
<glyph unicode="=" horiz-adv-x="1159" d="M241 407l29 139h849l-29 -139h-849zM333 844l30 141h849l-30 -141h-849z" />
<glyph unicode="&#x3e;" horiz-adv-x="803" d="M151 83l43 204l522 401l-351 401l42 200l448 -532l-30 -140z" />
<glyph unicode="?" horiz-adv-x="948" d="M308 121q-13 -61 20.5 -104t94.5 -43t113 43t66 104q13 61 -21 104t-95 43t-113 -43t-65 -104zM363 1320q57 73 132 121t139.5 65.5t125.5 17.5q80 0 141.5 -18t98 -49.5t58 -74.5t22.5 -93t-8 -104q-16 -75 -60 -144t-98.5 -123t-108.5 -105.5t-101 -111t-66 -118.5 q-17 -53 -39 -154h-169l28 133q16 76 64 151t106.5 134t116 114.5t102.5 114t56 110.5q17 78 -23 131.5t-142 53.5q-155 0 -270 -138z" />
<glyph unicode="@" horiz-adv-x="1669" d="M239 483q-2 118 26 257q35 164 113 306t190 248t261.5 167t316.5 61q228 0 375 -97.5t196.5 -270t1.5 -398.5q-16 -74 -51 -146t-86 -134t-122 -100.5t-150 -38.5q-86 0 -135 32t-63 107h-3q-131 -147 -295 -147q-115 0 -172.5 74.5t-33.5 189.5q12 57 40.5 102.5 t63.5 75.5t85 52t94.5 33.5t103 18t100 8t95.5 1.5q18 76 17 124t-35.5 69.5t-116.5 21.5q-110 0 -228 -73l-40 87q57 45 137.5 73t147.5 28q60 0 105 -9t75 -24.5t47.5 -42t25 -55.5t5.5 -72.5t-8 -85t-19 -99.5l-60 -282q-24 -111 88 -111q45 0 85 22t68.5 56t52 78 t37.5 84.5t22 79.5q34 146 19 267.5t-69.5 208.5t-162.5 135.5t-260 48.5q-142 0 -267.5 -51.5t-217.5 -142t-155.5 -209.5t-93.5 -257q-22 -115 -23.5 -215.5t29 -183.5t86.5 -142.5t148 -92.5t214 -33q182 0 297 73l53 -85q-134 -102 -369 -102q-143 0 -253 35.5 t-180.5 102t-110 161t-41.5 212.5zM734 595q-16 -71 19 -112.5t108 -41.5q76 0 147 48.5t125 122.5l36 166h-41q-355 0 -394 -183z" />
<glyph unicode="A" d="M9 0l869 1505h176l230 -1505h-184l-60 402h-624l-235 -402h-172zM502 557h514l-107 706z" />
<glyph unicode="B" horiz-adv-x="1288" d="M168 0l320 1505h464q97 0 174 -24.5t132 -76.5q54 -52 72 -130q8 -36 8 -77q0 -50 -12 -109q-23 -108 -77 -177t-139 -122q100 -19 156 -117q36 -64 36 -146q0 -45 -11 -95q-26 -124 -76 -208.5t-126 -133t-168.5 -69t-215.5 -20.5h-537zM368 159h376q167 0 256 62 t122 217q10 43 10 79q0 73 -40 118q-59 67 -208 67h-402zM516 857h352q118 0 192 63.5t98 174.5q8 36 8 68q0 71 -40 117q-56 66 -196 66h-310z" />
<glyph unicode="C" horiz-adv-x="1272" d="M240 524q2 112 26 233q34 160 98 295.5t157 242.5t222 167.5t280 60.5q57 0 114 -13.5t114.5 -41.5t106 -79.5t76.5 -120.5l-143 -93q-55 99 -134.5 141.5t-164.5 42.5q-130 0 -244 -82.5t-192 -220.5t-115 -312q-22 -96 -23 -184q0 -27 3 -53q9 -111 44.5 -193.5 t104 -130t158.5 -47.5q195 0 404 209l115 -101q-211 -271 -538 -271q-122 0 -214.5 44t-146.5 119q-54 76 -82 176q-26 95 -27 201q1 5 1 11z" />
<glyph unicode="D" horiz-adv-x="1376" d="M169 0l320 1505h298q145 0 262.5 -28t210 -87.5t144.5 -151.5t68 -222q4 -38 4 -79q0 -100 -27 -219q-69 -323 -293 -520.5t-526 -197.5h-461zM374 160h249q74 0 152.5 22t157.5 69t146 112t118.5 158t73.5 201q21 99 21 184q0 168 -84 276q-126 163 -421 163h-161z" />
<glyph unicode="E" horiz-adv-x="1180" d="M169 0l320 1505h915l-43 -160h-737l-107 -506h647l-43 -152h-636l-112 -527h754l-43 -160h-915z" />
<glyph unicode="F" horiz-adv-x="1114" d="M169 0l320 1505h892l-43 -161h-710l-109 -511l649 1l-42 -155h-640l-145 -679h-172z" />
<glyph unicode="G" horiz-adv-x="1372" d="M235 508q4 114 32 245q25 116 64.5 221t105 207.5t147.5 176.5t198.5 119.5t251.5 45.5q67 0 131 -15.5t123 -47t107 -85.5t74 -125l-138 -90q-45 100 -130 149.5t-187 49.5q-93 0 -176.5 -36t-146 -95t-113.5 -138.5t-83 -163.5t-51 -173q-29 -136 -29 -246 q0 -106 30 -191q30 -86 102 -133.5t183 -47.5q135 0 248 71.5t194 192.5l37 179h-319l36 164h479l-157 -741h-126l20 175q-89 -101 -201 -152.5t-234 -51.5q-129 0 -224 41t-149 111.5t-78 170.5q-22 86 -22 182q0 16 1 31z" />
<glyph unicode="H" horiz-adv-x="1344" d="M169 0l320 1505h171l-139 -656h662l139 656h170l-320 -1505h-170l146 687h-662l-146 -687h-171z" />
<glyph unicode="I" horiz-adv-x="514" d="M169 0l320 1505h175l-320 -1505h-175z" />
<glyph unicode="J" horiz-adv-x="860" d="M-3 4l64 148q108 -24 169 -24q97 0 167 24t117.5 74.5t77 118.5t50.5 165l211 995h174l-217 -1028q-54 -257 -190.5 -380.5t-386.5 -123.5q-123 0 -236 31z" />
<glyph unicode="K" horiz-adv-x="1231" d="M169 0l320 1505h169l-149 -697q33 31 100.5 92t74.5 67l591 538h229l-680 -614l405 -891h-197l-344 775l-227 -199l-123 -576h-169z" />
<glyph unicode="L" horiz-adv-x="1086" d="M169 0l320 1505h176l-285 -1340h709l-44 -165h-876z" />
<glyph unicode="M" horiz-adv-x="1606" d="M169 0l320 1505h189l247 -938l638 938h192l-320 -1505h-170l248 1167l-28 -49l-560 -813h-114l-212 813l-12 49l-248 -1167h-170z" />
<glyph unicode="N" horiz-adv-x="1370" d="M169 0l320 1505h162q361 -929 380 -979q44 -113 70 -210q22 123 249 1189h169l-320 -1505h-165q-425 1118 -445 1187l-3 -2q-26 -142 -59 -301l-188 -884h-170z" />
<glyph unicode="O" horiz-adv-x="1381" d="M244 582q6 90 27 184q24 116 69 224.5t112.5 205.5t150 169.5t188 114.5t220.5 42q113 0 199.5 -42.5t139.5 -116.5t80 -173q27 -97 26 -208q0 -116 -26 -240q-22 -105 -59.5 -205.5t-102 -205t-144.5 -182.5t-195 -127.5t-246 -49.5q-107 0 -189.5 33.5t-132 93 t-79.5 135.5t-37 167q-4 47 -4 94q0 44 3 87zM418 529v-14q0 -55 6 -103q8 -54 28 -105.5t52 -89t84 -59.5t119 -22q71 0 137 24.5t116 65t94.5 95t76 111t57.5 117.5t41 110.5t24 93.5q15 71 21 147q2 26 1 53q-1 52 -7 108q-10 85 -38.5 150.5t-91 108.5t-151.5 43 q-92 0 -175.5 -45t-143 -112.5t-107.5 -153t-75.5 -160t-41.5 -139.5q-12 -53 -18.5 -107.5t-7.5 -116.5z" />
<glyph unicode="P" horiz-adv-x="1174" d="M169 0l319 1505h387q117 0 204.5 -27.5t147 -86.5t76.5 -151q7 -37 7 -81q0 -64 -15 -140q-30 -140 -110 -235t-193.5 -139t-257.5 -44h-267l-128 -601h-170zM499 758h267q83 0 156.5 29t131.5 94t77 156q11 54 11 98q0 213 -262 213h-255z" />
<glyph unicode="Q" horiz-adv-x="1381" d="M240 452q-1 25 -1 50q0 54 5 106q8 78 25 158q25 116 70 224.5t113 205.5t150.5 169.5t188 114.5t220.5 42q112 0 199 -42.5t139.5 -116.5t79.5 -173q27 -97 27 -208q-1 -117 -27 -240q-33 -160 -109 -318.5t-191 -269.5l95 -251l-143 -87l-92 236q-140 -80 -307 -80 q-92 0 -166 25.5t-123 69t-83 105t-50 131t-20 149.5zM416 530v-8q0 -58 8 -110q7 -54 27 -106t52.5 -88.5t84.5 -59t119 -22.5q120 0 226 66l-106 280l141 87l97 -247q131 165 186 431q15 71 21 147q1 27 1 55q0 51 -6 106q-10 85 -38.5 150.5t-90.5 108.5t-151 43 q-92 0 -176 -45t-143.5 -112.5t-108 -152.5t-76 -160t-41.5 -140q-11 -53 -18 -107t-8 -116z" />
<glyph unicode="R" horiz-adv-x="1231" d="M169 0l320 1505h407q242 0 365 -116q88 -83 88 -227q0 -57 -14 -124q-33 -154 -137 -255t-255 -138l272 -645h-199l-248 621h-297l-132 -621h-170zM503 778h296q82 0 156.5 29.5t131.5 92t75 147.5q10 47 10 87q0 84 -44 136q-66 76 -219 76h-284z" />
<glyph unicode="S" horiz-adv-x="1094" d="M105 225l143 81q91 -183 320 -183q136 0 238.5 76.5t129.5 203.5q6 27 6 52q0 92 -80 147q-46 30 -107 53l-126 45q-36 13 -64 25t-59.5 29t-55 35.5t-46 42.5t-36.5 53t-22 63q-7 29 -7 65q1 7 1 13q2 42 12 91q42 192 177.5 299.5t329.5 107.5q52 0 103 -11.5 t103.5 -36t97 -72t71.5 -111.5l-134 -86q-78 165 -262 165q-113 0 -204.5 -71.5t-116.5 -194.5q-7 -29 -7 -56q0 -90 78 -142q34 -24 107 -53q18 -7 61 -21.5t66 -23.5q36 -13 64 -25t60.5 -29t56 -36t46.5 -43.5t37 -54.5t22 -66q7 -30 7 -66q-1 -6 -1 -13q-2 -44 -12 -94 q-46 -208 -190.5 -309.5t-359.5 -101.5q-93 0 -177 24.5t-158 83t-112 145.5z" />
<glyph unicode="T" horiz-adv-x="1030" d="M312 1346l34 159h975l-34 -159h-396l-286 -1346h-175l286 1346h-404z" />
<glyph unicode="U" horiz-adv-x="1327" d="M248 430q4 56 17 114l204 961h172l-205 -963q-10 -46 -15 -87q-4 -34 -5 -69q0 -6 1 -14q1 -42 9.5 -77.5t27.5 -66.5t48 -52.5t73 -33.5t101 -12q83 1 152 25t117 62.5t84.5 93.5t58.5 111.5t36 121.5l205 961h168l-204 -962q-121 -571 -631 -571q-85 0 -153 18t-114 49 t-78 75.5t-48 94t-21 107.5q-3 31 -3 60q1 28 3 54z" />
<glyph unicode="V" horiz-adv-x="1190" d="M337 1505h175l145 -1262l678 1262h183l-819 -1505h-178z" />
<glyph unicode="W" horiz-adv-x="1696" d="M327 1505h181l40 -1171l1 -85l33 86l495 1170h186l6 -1158l-3 -75l32 75l543 1158h167l-706 -1505h-203l-4 1109l4 80l-31 -79l-484 -1110h-196z" />
<glyph unicode="X" horiz-adv-x="1166" d="M1 0l656 807l-301 698h213l215 -552l446 552h205l-586 -685l315 -820h-207l-233 664l-516 -664h-207z" />
<glyph unicode="Y" horiz-adv-x="1159" d="M329 1505h193l221 -731l528 731h197l-678 -911l-126 -594h-169l126 592z" />
<glyph unicode="Z" horiz-adv-x="1198" d="M95 0l32 148l1050 1201q-15 -1 -169 -1h-593l45 157h958l-32 -149q-1028 -1182 -1046 -1199q23 2 392 2h418l-43 -159h-1012z" />
<glyph unicode="[" horiz-adv-x="727" d="M126 -276l378 1780h421l-29 -135h-265l-320 -1509h265l-29 -136h-421z" />
<glyph unicode="\" horiz-adv-x="824" d="M388 1610h150l202 -1781h-152z" />
<glyph unicode="]" horiz-adv-x="727" d="M63 -276l29 136h265l320 1509h-265l29 135h421l-378 -1780h-421z" />
<glyph unicode="^" horiz-adv-x="1143" d="M271 862l560 641h120l286 -641h-190l-191 491l-396 -491h-189z" />
<glyph unicode="_" horiz-adv-x="1004" d="M-71 -313l30 144h1013l-30 -144h-1013z" />
<glyph unicode="`" horiz-adv-x="439" d="M269 1549h235l146 -323h-140z" />
<glyph unicode="a" horiz-adv-x="1032" d="M138 311q16 73 51.5 131.5t80.5 97t108 66.5t120 43t130.5 23t127 10t120.5 2q17 81 17 140q-1 5 -1 10q-2 62 -46.5 95.5t-140.5 33.5q-134 0 -287 -94l-54 118q76 62 172.5 93t191.5 31q61 0 109 -9t83 -24.5t59 -41t39 -52.5t21.5 -66t6.5 -75q0 -3 1 -6q0 -34 -6 -80 q-6 -50 -13.5 -92t-19.5 -99l-79 -370q-4 -19 -4 -33q0 -45 40 -45h57l-25 -119q-76 -18 -115 -18q-72 1 -97 53q-15 32 -15 72q0 26 6 55h-4q-164 -185 -374 -185q-146 0 -218 94q-51 66 -51 158q0 39 9 83zM297 313q-6 -28 -6 -53q0 -55 30 -90q43 -51 136 -51 q96 0 187 61t159 155l45 213h-52q-449 0 -499 -235z" />
<glyph unicode="b" horiz-adv-x="1168" d="M138 0l318 1495l172 60l-135 -635q156 191 376 191q91 0 160 -31t109 -84.5t60 -127.5q19 -70 20 -148q0 -4 -1 -8q-1 -83 -21 -175q-14 -67 -40.5 -136.5t-74.5 -147.5t-109 -137.5t-151 -99t-193 -39.5q-109 0 -187.5 50.5t-112.5 143.5l-55 -171h-135zM376 366 q11 -62 47 -119q75 -119 222 -119q67 0 127.5 31.5t102.5 78.5t76 106.5t52.5 109t27.5 91.5q18 82 18 149q0 90 -32 154q-55 112 -195 111q-93 0 -191.5 -52t-174.5 -165z" />
<glyph unicode="c" horiz-adv-x="989" d="M176 369.5q0 82.5 20 175.5q25 117 72 216t117.5 179t172 125t224.5 45q43 0 88.5 -11t91 -34t83.5 -64t58 -95l-138 -87q-31 76 -89.5 107.5t-123.5 31.5q-140 0 -245 -119t-144 -303q-14 -74 -14 -137q0 -37 5 -71q13 -90 71.5 -144.5t152.5 -54.5q160 0 280 149 l107 -90q-82 -109 -193.5 -160.5t-218.5 -51.5q-98 0 -172 30t-117.5 82.5t-65.5 125.5t-22 155.5z" />
<glyph unicode="d" horiz-adv-x="1170" d="M178 329q-1 17 -1 32q-1 35 3 67q4 46 14 89q25 116 74.5 219t121.5 186.5t171.5 132.5t212.5 49q68 0 122 -17.5t88 -47t54.5 -60.5t30.5 -65l123 581l172 60l-331 -1555h-134l20 177q-72 -92 -181 -147t-217 -55q-75 0 -134 20.5t-96.5 54.5t-63 80.5t-36.5 95.5 t-13 103zM352 344q2 -46 15.5 -84.5t37 -69.5t65.5 -48.5t99 -17.5q78 0 155.5 35t129.5 84q56 53 97 119l80 374q-14 59 -43.5 102.5t-66.5 67t-74.5 34.5t-76.5 11q-150 0 -254.5 -116.5t-146.5 -311.5q-10 -46 -14 -89q-3 -31 -3 -64v-26z" />
<glyph unicode="e" horiz-adv-x="1061" d="M192 512q58 274 215.5 436t383.5 162q90 0 155.5 -31.5t102 -84t53.5 -124.5q14 -61 14 -127v-23q-3 -78 -21 -164q-5 -27 -14 -56h-728q-15 -70 -15 -129q0 -87 33 -147q55 -100 201 -100q96 0 172 38.5t145 122.5l105 -87q-92 -118 -201 -170t-273 -52q-91 0 -159.5 31 t-108.5 83q-38 50 -58 120q-19 68 -20 142q0 78 18 160zM392 634h554q11 43 11 86q1 16 -1 31q-6 58 -26 104t-68.5 74.5t-119.5 28.5q-68 0 -130 -30.5t-105.5 -79t-73 -104t-41.5 -110.5z" />
<glyph unicode="f" horiz-adv-x="608" d="M179 0l202 958h-168l28 136h169l37 169q29 135 123.5 214t228.5 79q73 0 152 -25l-62 -147q-64 15 -108 15q-71 0 -116 -41.5t-59 -108.5l-33 -155h228l-29 -136h-228l-202 -958h-163z" />
<glyph unicode="g" horiz-adv-x="1161" d="M98 -255l123 98q89 -122 276 -122q94 0 164.5 31t118.5 92t79 138.5t54 184.5q-72 -92 -173 -141t-210 -49q-87 0 -153.5 26t-104.5 70t-61.5 97.5t-29.5 115.5q-4 43 -4 82q0 17 1 32q2 54 13 104q20 92 55 178t87.5 164.5t116.5 137t147 93t174 34.5q117 0 195 -54.5 t100 -132.5l54 170h140l-192 -908q-23 -107 -49 -188.5t-72.5 -165t-106 -137.5t-150 -88t-204.5 -34q-281 0 -388 172zM350 408q-2 -15 -2 -31q0 -35 6 -71q7 -54 29 -93t68.5 -64.5t114.5 -25.5q77 0 152.5 39.5t134.5 93.5q53 52 95 119l80 372q-17 77 -63 128t-95 69.5 t-102 18.5q-148 0 -254.5 -126.5t-148.5 -324.5q-12 -54 -15 -104z" />
<glyph unicode="h" horiz-adv-x="1114" d="M138 0l317 1495l176 60l-135 -637h6q162 193 354 193q290 0 290 -277q0 -71 -19 -159l-143 -675h-163l143 676q12 54 12 99q0 65 -24 109q-40 76 -155 75q-122 0 -245 -123q-52 -54 -100 -123l-151 -713h-163z" />
<glyph unicode="i" horiz-adv-x="486" d="M183 0l202 954h-127l30 140h289l-232 -1094h-162zM442 1400q10 50 54.5 86.5t91.5 36.5q48 -1 77 -37q21 -26 21 -60q0 -13 -3 -26q-10 -50 -54.5 -86.5t-91.5 -36.5q-47 1 -77 37q-21 27 -21 60q0 12 3 26z" />
<glyph unicode="j" horiz-adv-x="510" d="M-103 -406q48 -21 132 -21q127 0 206 74t104 189l267 1258h-289l-30 -139h127l-237 -1119q-12 -52 -51 -86t-107 -34q-15 0 -74 7zM468 1400q11 50 56 86.5t92 36.5q46 0 76 -37q22 -26 22 -60q0 -13 -3 -26q-10 -50 -55.5 -86.5t-91.5 -36.5q-47 0 -77 37q-22 26 -22 60 q0 13 3 26z" />
<glyph unicode="k" horiz-adv-x="975" d="M138 0l318 1496l172 60l-194 -916l512 454h222l-461 -400l264 -694h-183l-222 578l-179 -157l-90 -421h-159z" />
<glyph unicode="l" horiz-adv-x="504" d="M166 166q2 36 13 83l265 1246l175 60l-276 -1297q-5 -32 -5 -59t21.5 -44.5t68.5 -17.5q30 0 88 8l-9 -138q-67 -21 -123 -21q-66 0 -111 14t-68 37t-32 59q-7 28 -7 55q-1 7 0 15z" />
<glyph unicode="m" horiz-adv-x="1766" d="M138 0l233 1094h139l-19 -175h4q62 81 160.5 136.5t183.5 55.5q262 0 280 -210h7q71 94 172.5 152t199.5 58q201 -1 264 -109q36 -63 36 -160q0 -72 -19 -163l-145 -679h-163l145 681q11 54 11 98q0 65 -24 109q-41 74 -157 74.5t-233 -122.5q-54 -57 -92 -123l-152 -717 h-162l145 681q11 52 11 95q0 64 -24 110q-40 76 -152 77q-113 0 -237 -128q-53 -55 -99 -128l-151 -707h-162z" />
<glyph unicode="n" horiz-adv-x="1114" d="M138 0l233 1094h137l-19 -176h6q162 193 363 193q289 0 289 -276q0 -71 -19 -160l-143 -675h-163l144 676q11 54 11 98q1 64 -23 110q-40 76 -156 75q-121 0 -244 -123q-52 -52 -101 -123l-151 -713h-164z" />
<glyph unicode="o" horiz-adv-x="1098" d="M201 550q16 76 47.5 151.5t83.5 150.5t116 131.5t152 92t186 35.5q100 0 173.5 -37t112.5 -95.5t57 -136.5q16 -68 16 -135q-1 -9 -1 -19q-2 -77 -18 -154q-22 -107 -70.5 -204.5t-120 -177.5t-173 -128t-218.5 -48q-95 0 -167 34t-113 90q-42 57 -62 132q-20 73 -20 151 q0 82 19 167zM348 393q5 -75 25.5 -135t70 -97.5t119.5 -37.5q97 0 184 63t141.5 157t77.5 200q18 85 19 159q-1 70 -19 130q-18 62 -68.5 97t-129.5 35q-63 0 -121.5 -25.5t-104 -68t-82.5 -97.5t-61.5 -112.5t-36.5 -115.5q-15 -61 -16 -121q1 -15 2 -31z" />
<glyph unicode="p" horiz-adv-x="1168" d="M45 -436l325 1530h138l-21 -184q78 95 179.5 148t211.5 53q91 0 159 -31t107 -84.5t58 -127.5q17 -64 17 -137q0 -9 -1 -19q-2 -83 -22 -175q-16 -74 -42 -145t-74 -148.5t-109.5 -134.5t-153 -94.5t-199.5 -37.5q-221 0 -286 184l-115 -537zM375 363q9 -57 46 -119 q72 -116 226 -116q67 0 127.5 32t102.5 79t75.5 106t52 108.5t27.5 91.5q16 75 16 138q0 95 -36 163q-61 114 -202 114q-86 0 -183 -52t-172 -164z" />
<glyph unicode="q" horiz-adv-x="1161" d="M174 310q-1 25 -1 47q0 26 2 50q4 45 13 88q26 120 76 227.5t122 195.5t171.5 140t212.5 52q218 0 296 -196l56 180h140l-313 -1470l-171 -60l128 603q-97 -104 -185.5 -147.5t-198.5 -43.5q-75 0 -134 19t-97 51t-64 75.5t-37.5 90.5t-15.5 98zM350 416v-21q0 -42 8 -85 q11 -54 36 -94.5t72.5 -65.5t114.5 -25q145 0 270 119q54 53 97 119l80 381q-28 113 -102 163.5t-161 50.5q-148 0 -253.5 -119.5t-147.5 -315.5q-11 -55 -14 -107z" />
<glyph unicode="r" horiz-adv-x="692" d="M134 0l232 1094h138l-23 -193q65 98 148 154.5t178 56.5q22 0 44.5 -3.5t36 -7.5t27.5 -8.5t17 -5.5l-76 -151q-36 15 -81 15q-119 0 -236 -123q-54 -57 -92 -123l-151 -705h-162z" />
<glyph unicode="s" horiz-adv-x="922" d="M109 202l143 86q30 -78 88 -123t140 -45q58 0 117.5 23.5t102 72.5t42.5 109q0 40 -26.5 70t-68 48.5t-92.5 35.5t-102 37t-92.5 46t-68 70.5t-26.5 102.5q0 113 58 200t151 131.5t204 44.5q107 0 196 -54t123 -150l-133 -81q-73 143 -208 143q-81 0 -150 -53.5 t-69 -133.5q0 -40 26.5 -70t68.5 -49t92.5 -36t101.5 -38t93 -48t68.5 -72.5t26.5 -105.5q0 -89 -37.5 -163t-100 -122.5t-142.5 -75t-165 -26.5q-283 0 -361 226z" />
<glyph unicode="t" horiz-adv-x="625" d="M207 955l30 139h180l46 216l179 60l-59 -276h247l-31 -139h-246l-145 -687q-6 -28 -6 -49q0 -30 11 -49q19 -33 95 -33q11 0 85 8l-11 -138q-65 -21 -122 -21q-69 0 -116.5 14t-72.5 37t-35 59q-9 31 -10 62v8q2 36 12 83l150 706h-181z" />
<glyph unicode="u" horiz-adv-x="1094" d="M206 382l152 712h162l-152 -713q-9 -44 -10 -81q0 -62 27 -106q42 -70 157 -70q117 0 242 129q49 49 93 119l154 722h163l-232 -1094h-138l19 179h-5q-91 -120 -174 -161.5t-181 -41.5q-179 0 -249 105q-44 66 -44 167q0 61 16 134z" />
<glyph unicode="v" horiz-adv-x="971" d="M249 1094h180l103 -879l473 879h181l-623 -1094h-155z" />
<glyph unicode="w" horiz-adv-x="1362" d="M257 1094h172l13 -885l390 885h165l18 -880l379 880h174l-516 -1094h-165l-32 825l-376 -825h-168z" />
<glyph unicode="x" horiz-adv-x="959" d="M20 0l487 575l-236 519h203l152 -395l317 395h192l-448 -526l253 -568h-200l-175 436l-347 -436h-198z" />
<glyph unicode="y" horiz-adv-x="957" d="M-3 -408l52 154q59 -16 88 -16q42 0 70 8.5t54.5 36t47 58.5t58.5 95q9 16 14 24q24 40 38 64l-171 1078h179l119 -853l448 853h180l-706 -1275q-78 -141 -154 -193t-209 -52q-41 0 -108 18z" />
<glyph unicode="z" horiz-adv-x="983" d="M67 0l24 114l778 824h-583l33 156h800l-29 -137l-759 -798h606l-34 -159h-836z" />
<glyph unicode="{" horiz-adv-x="815" d="M226 559l22 103l60 6q72 7 105 40t51 122l46 218q98 466 525 466l-23 -109q-135 -15 -213.5 -83t-107.5 -206l-49 -229q-26 -124 -69 -185t-121 -94q64 -33 81 -91t-9 -187l-47 -217q-30 -139 17.5 -202t183.5 -78l-23 -109q-228 0 -303.5 111.5t-27.5 335.5l47 220 q19 88 0 121.5t-87 40.5z" />
<glyph unicode="|" horiz-adv-x="606" d="M140 -402l442 2078h153l-442 -2078h-153z" />
<glyph unicode="}" horiz-adv-x="815" d="M42 -276l23 109q141 15 215 78t104 202l47 217q27 124 69.5 184.5t120.5 93.5q-64 33 -80.5 92t8.5 187l49 229q29 138 -20.5 206t-178.5 83l23 109q222 0 298.5 -120t28.5 -346l-48 -228q-18 -88 0 -116.5t88 -35.5l58 -6l-22 -103l-60 -6q-73 -7 -104 -36t-49 -116 l-49 -230q-48 -225 -170.5 -336t-350.5 -111z" />
<glyph unicode="~" horiz-adv-x="1272" d="M255 726q55 48 86 73.5t86 63.5t104.5 56t96.5 18q55 0 99.5 -20.5t73.5 -49.5t55.5 -58.5t58 -50t68.5 -20.5q21 0 49 12.5t62.5 36.5t59 42.5t60.5 48.5t44 36l72 -131q-125 -105 -180 -140q-113 -73 -204 -73q-56 0 -100.5 20.5t-73.5 49t-55 57.5t-57 49.5t-68 20.5 q-22 0 -49.5 -11t-61 -34.5t-54.5 -39t-57.5 -47t-43.5 -36.5z" />
<glyph unicode="&#xa1;" horiz-adv-x="565" d="M198 0h171l184 866l35 209h-151l-55 -209zM431 1383q14 61 66 104t113 43t94.5 -43t20.5 -104t-65 -104t-113 -43t-95 43t-21 104z" />
<glyph unicode="&#xa2;" horiz-adv-x="1039" d="M220 439.5q-5 93.5 19 195.5q23 106 64 198t102 170.5t148.5 131t192.5 68.5l38 180h165l-38 -179q80 -15 144.5 -63.5t95.5 -134.5l-137 -84q-23 51 -62 83t-76.5 42.5t-77.5 10.5q-140 0 -245.5 -119t-144.5 -303q-38 -175 20.5 -291t194.5 -116q160 0 280 149l106 -87 q-69 -91 -157 -142.5t-180 -66.5l-41 -193h-165l41 194q-95 16 -160 66t-93.5 123.5t-33.5 167z" />
<glyph unicode="&#xa3;" horiz-adv-x="1266" d="M165 0l25 118q146 73 227 167.5t109 223.5q22 106 25 158h-229l30 140h203q-2 137 17 228q48 226 194.5 356.5t356.5 130.5q61 0 118 -18t111.5 -66.5t80.5 -121.5l-142 -87q-54 134 -202 134q-142 0 -226 -86.5t-120 -257.5q-16 -77 -14 -213l438 1l-30 -140h-412 q-5 -75 -22 -158q-17 -77 -79 -179.5t-158 -164.5h733l-45 -165h-989z" />
<glyph unicode="&#xa5;" horiz-adv-x="1237" d="M296 290l29 139h299l35 163l-272 912h198l199 -739l516 739h186l-658 -910l-35 -165h301l-29 -139h-301l-62 -290h-169l62 290h-299z" />
<glyph unicode="&#xa7;" horiz-adv-x="1270" d="M126 -36l144 84q88 -129 303 -129q51 0 97 10.5t88.5 33t72.5 62.5t41 93q10 46 -8.5 79t-57 52.5t-91 36t-111 28t-117 30t-108.5 42t-85.5 63t-48.5 93t3 133.5q23 108 99.5 199t183.5 138q-45 67 -23 174q23 109 94 187t165 114.5t201 36.5q228 0 342 -172l-136 -88 q-37 56 -101 84.5t-142 28.5q-97 0 -168.5 -50.5t-91.5 -145.5q-9 -45 9.5 -77t57.5 -50t92 -33.5t111.5 -26.5t117 -28.5t108.5 -40.5t85.5 -62.5t48.5 -94t-3 -134.5q-23 -111 -96 -201t-181 -140q38 -67 16 -170q-19 -90 -70 -159.5t-121.5 -110t-150.5 -61t-166 -20.5 q-279 0 -403 192zM404 641.5q3 -27.5 12 -49t26 -39t37.5 -31t45.5 -24t51 -18t53.5 -14t53.5 -12.5q31 -7 45 -10q135 -33 198 -67q78 42 135.5 102t72.5 131q11 53 -3.5 95t-35.5 65.5t-74.5 46t-78.5 29t-90 21.5q-22 5 -33 8q-134 32 -198 63q-182 -93 -212 -236 q-8 -33 -5 -60.5z" />
<glyph unicode="&#xa8;" horiz-adv-x="881" d="M440 1374q10 45 49 78t85 33t71.5 -33t15.5 -78q-10 -46 -49 -78.5t-86 -32.5q-46 0 -71 32.5t-15 78.5zM800 1374q10 45 49 78t85 33t71.5 -33t15.5 -78q-10 -46 -49 -78.5t-86 -32.5q-46 0 -71 32.5t-15 78.5z" />
<glyph unicode="&#xa9;" horiz-adv-x="1749" d="M267 748q48 226 181.5 402.5t329 275t419.5 98.5q169 0 299.5 -54.5t209 -155.5t105 -244.5t-12.5 -321.5q-74 -346 -333 -560.5t-598 -214.5q-221 0 -374.5 98.5t-213 275.5t-12.5 401zM360.5 535.5q5.5 -100.5 46 -185t105 -146t162 -96t215.5 -34.5q298 0 517.5 190 t282.5 484q42 198 -4 350.5t-177.5 238t-332.5 85.5q-149 0 -285 -53t-238.5 -144t-174 -214t-101.5 -263q-21 -112 -15.5 -212.5zM662 601.5q-1 -66.5 18.5 -123t54.5 -98t93.5 -64.5t134.5 -23q94 0 191 47t165 156l-99 50q-37 -54 -82 -84.5t-79.5 -38t-76.5 -7.5 q-105 0 -154.5 89.5t-19.5 232.5q31 147 119 246.5t196 99.5q28 0 48.5 -3t47.5 -14t48 -37.5t34 -67.5l120 50q-9 58 -38.5 99t-70.5 60.5t-78.5 27t-76.5 7.5q-93 0 -175 -38t-142 -103t-102 -147.5t-61 -175.5q-14 -74 -15 -140.5z" />
<glyph unicode="&#xaa;" horiz-adv-x="985" d="M281 895q17 83 75 142t141 89t165.5 43t172.5 13h29q14 70 13 117.5t-35 72t-107 24.5q-104 0 -232 -77l-47 101q58 47 141.5 75t157.5 28q55 0 97 -8t71 -25.5t48.5 -38.5t29 -52.5t13 -62.5t-0.5 -74t-10.5 -81t-17.5 -89l-62 -291q-5 -25 -3 -33q2 -20 25 -20h53 l-22 -107q-66 -16 -99 -16q-57 0 -77.5 43t-11.5 109q-140 -159 -295 -159q-110 0 -174.5 75.5t-37.5 201.5zM420 894q-14 -68 20 -108.5t102 -40.5q95 0 191 84q41 36 74 83l36 168h-34q-142 0 -256 -48.5t-133 -137.5z" />
<glyph unicode="&#xab;" horiz-adv-x="1207" d="M173 557l517 534h188l-519 -535l293 -556h-194zM643 557l517 534h188l-519 -535l293 -556h-194z" />
<glyph unicode="&#xad;" horiz-adv-x="656" d="M235 653l32 155h461l-32 -155h-461z" />
<glyph unicode="&#xae;" horiz-adv-x="1739" d="M267 748q48 226 181.5 402.5t329 275t419.5 98.5q169 0 299.5 -54.5t209 -155.5t105 -244.5t-12.5 -321.5q-74 -346 -333 -560.5t-598 -214.5q-221 0 -374.5 98.5t-213 275.5t-12.5 401zM360.5 535.5q5.5 -100.5 46 -185t105 -146t162 -96t215.5 -34.5q298 0 517.5 190 t282.5 484q42 198 -4 350.5t-177.5 238t-332.5 85.5q-149 0 -285 -53t-238.5 -144t-174 -214t-101.5 -263q-21 -112 -15.5 -212.5zM680 318l189 889h261q304 0 247 -273q-19 -88 -80 -151t-139 -85l137 -380h-145l-125 357h-148l-76 -357h-121zM902 793h159q72 0 125 34.5 t68 104.5q18 83 -15 121.5t-119 38.5h-154z" />
<glyph unicode="&#xaf;" horiz-adv-x="758" d="M323 1287l28 130h657l-28 -130h-657z" />
<glyph unicode="&#xb0;" horiz-adv-x="781" d="M358 1227q26 119 130 205.5t224 86.5q122 0 190 -86t42 -206q-26 -123 -129.5 -208.5t-226.5 -85.5q-121 0 -188.5 86t-41.5 208zM479 1227q-15 -72 23.5 -122.5t110.5 -50.5t133 50.5t76 122.5q15 68 -25.5 119.5t-109.5 51.5q-73 0 -132.5 -49.5t-75.5 -121.5z" />
<glyph unicode="&#xb1;" horiz-adv-x="1144" d="M105 0l30 133h934l-30 -133h-934zM273 731l31 133h402l99 430h139l-99 -430h393l-31 -133h-393l-99 -432h-139l99 432h-402z" />
<glyph unicode="&#xb4;" horiz-adv-x="439" d="M312 1236l281 323h236l-378 -323h-139z" />
<glyph unicode="&#xb5;" horiz-adv-x="1094" d="M24 -420l322 1511h162l-150 -705q-25 -117 17 -187t157 -70q119 0 239 124q48 48 96 124l152 714h163l-232 -1091h-138l21 184h-5q-91 -120 -174 -161.5t-181 -41.5q-88 0 -187 80l-90 -421z" />
<glyph unicode="&#xb6;" horiz-adv-x="1143" d="M266 1031q51 221 219 347t390 126h587l-29 -125h-145l-394 -1705h-148l394 1705h-221l-394 -1705h-147l205 889q-195 3 -279 136t-38 332z" />
<glyph unicode="&#xb7;" horiz-adv-x="508" d="M266 748q13 61 65 104t113 43t95 -43t21 -104t-65 -104t-113 -43t-95 43t-21 104z" />
<glyph unicode="&#xb8;" horiz-adv-x="725" d="M71 -372l56 96q92 -51 152 -51q42 0 78.5 20t46.5 66q6 30 -12 46t-61 16h-88l-34 42l95 141h94l-78 -112q38 12 78.5 9t72.5 -15t48.5 -43t7.5 -75q-21 -99 -101 -149.5t-170 -50.5q-102 0 -185 60z" />
<glyph unicode="&#xba;" horiz-adv-x="963" d="M317.5 942q2.5 64 13.5 129q16 76 53 151.5t94.5 145t143.5 113t185 43.5q82 0 142.5 -29t92.5 -75t47 -106.5t13.5 -120.5t-14.5 -121q-18 -85 -56.5 -163.5t-96.5 -145t-141 -106.5t-179 -40q-78 0 -137.5 27t-92 72t-51.5 103.5t-16.5 122.5zM471 954.5 q5 -58.5 22.5 -104.5t56.5 -74.5t91 -28.5q108 0 189.5 96.5t109.5 226.5q15 62 12.5 120.5t-17.5 104t-55 73.5t-100 28q-77 0 -142.5 -52t-103 -123t-54.5 -149q-14 -59 -9 -117.5z" />
<glyph unicode="&#xbb;" horiz-adv-x="1207" d="M85 0l528 556l-290 535h187l290 -534l-522 -557h-193zM555 0l528 556l-290 535h187l290 -534l-522 -557h-193z" />
<glyph unicode="&#xbc;" horiz-adv-x="1775" d="M234 608l26 130h186l120 615l-191 -64l-9 129l273 90h100l-150 -770h172l-26 -130h-501zM466 0l1023 1502h151l-1023 -1502h-151zM1021 198l18 96l595 606h112l-112 -575h129l-26 -127h-129l-37 -198h-143l37 198h-444zM1239 325h252l60 315q-91 -91 -153 -155 q-17 -18 -76.5 -77t-82.5 -83z" />
<glyph unicode="&#xbd;" horiz-adv-x="1820" d="M234 608l26 130h186l120 615l-191 -64l-9 129l273 90h100l-150 -770h172l-26 -130h-501zM466 0l1022 1502h152l-1023 -1502h-151zM1139 0l11 67q13 66 44.5 123t78 101.5t90 76t101.5 65.5q32 20 97 56q35 20 81 51q75 53 83 100q13 60 -21.5 97.5t-103.5 37.5 q-59 0 -109.5 -22.5t-104.5 -83.5l-98 76q139 161 337 161q130 0 198.5 -72t44.5 -194q-9 -47 -34.5 -87.5t-71 -77t-82.5 -60.5t-100 -59q-17 -11 -49 -30t-44 -26q-64 -41 -107 -80.5t-63 -89.5h444l-24 -130h-598z" />
<glyph unicode="&#xbe;" horiz-adv-x="1853" d="M238 771l122 78q47 -119 168 -119q93 0 152.5 43t73.5 115q13 69 -23.5 104t-114.5 35h-109l23 127h111q66 0 100 29.5t44 87.5q9 47 -22.5 83t-98.5 36q-53 0 -100.5 -23t-104.5 -86l-88 78q133 162 316 162q55 0 103 -16.5t83.5 -47t51 -79t3.5 -107.5 q-19 -107 -106 -172q102 -65 75 -211q-15 -76 -54.5 -133t-95 -90.5t-119 -49.5t-132.5 -16q-193 0 -258 172zM544 0l1023 1502h151l-1023 -1502h-151zM1099 198l18 96l595 606h112l-112 -575h129l-26 -127h-129l-37 -198h-143l37 198h-444zM1317 325h252l60 315 q-91 -91 -153 -155q-18 -20 -78 -79t-81 -81z" />
<glyph unicode="&#xbf;" horiz-adv-x="948" d="M186.5 207.5q1.5 -49.5 23 -92.5t58 -74.5t98 -49.5t141.5 -18q61 0 125.5 17.5t139.5 65.5t132 121l-105 87q-115 -138 -270 -138q-102 0 -142 53.5t-23 131.5q11 52 56 110.5t102.5 114t116 114.5t106.5 134t64 151l28 133h-169q-20 -95 -39 -154t-66 -118.5t-101 -111 t-108.5 -105.5t-98.5 -123t-60 -144q-10 -55 -8.5 -104.5zM665 1376q14 61 66 104t113 43t94.5 -43t20.5 -104t-65 -104t-113 -43t-95 43t-21 104z" />
<glyph unicode="&#xc0;" d="M9 0l869 1505h176l230 -1505h-184l-60 402h-624l-235 -402h-172zM502 557h514l-107 706zM684 1927h235l145 -323h-139z" />
<glyph unicode="&#xc1;" d="M9 0l869 1505h176l230 -1505h-184l-60 402h-624l-235 -402h-172zM502 557h514l-107 706zM926 1604l281 323h235l-377 -323h-139z" />
<glyph unicode="&#xc2;" d="M9 0l869 1505h176l230 -1505h-184l-60 402h-624l-235 -402h-172zM502 557h514l-107 706zM621 1547l351 335h144l209 -335h-148l-163 192l-244 -192h-149z" />
<glyph unicode="&#xc3;" d="M9 0l869 1505h176l230 -1505h-184l-60 402h-624l-235 -402h-172zM502 557h514l-107 706zM624 1576q13 56 31.5 99t48 80.5t75 57.5t103.5 20q54 0 112 -28.5t107.5 -56.5t84.5 -28q79 0 114 120h114q-57 -260 -258 -260q-50 0 -96.5 18.5t-76 40.5t-65.5 40.5t-67 18.5 q-27 0 -47 -9.5t-35 -30.5t-23 -37t-20 -46z" />
<glyph unicode="&#xc4;" d="M9 0l869 1505h176l230 -1505h-184l-60 402h-624l-235 -402h-172zM502 557h514l-107 706zM728 1774q9 46 47.5 78.5t85.5 32.5q46 0 72 -32.5t16 -78.5t-49.5 -78.5t-85.5 -32.5t-71 32.5t-15 78.5zM1088 1774q9 46 47.5 78.5t85.5 32.5q46 0 72 -32.5t16 -78.5 t-49.5 -78.5t-85.5 -32.5t-71 32.5t-15 78.5z" />
<glyph unicode="&#xc5;" d="M9 0l831 1440q-44 28 -63.5 79.5t-6.5 112.5q19 90 97.5 154.5t169.5 64.5t142.5 -64.5t31.5 -154.5q-12 -60 -52 -110t-95 -80l220 -1442h-184l-60 402h-624l-235 -402h-172zM502 557h514l-107 706zM863 1632q-10 -49 13.5 -85t70.5 -42h32q49 6 87.5 42t49.5 85 q11 50 -19 88t-80 38q-54 0 -98.5 -36.5t-55.5 -89.5z" />
<glyph unicode="&#xc6;" horiz-adv-x="1708" d="M-3 0l1057 1503h881l-44 -159h-574l-107 -505h478l-42 -151h-468l-113 -528h592l-44 -160h-745l87 407h-483l-282 -407h-193zM577 569h412l165 775h-43z" />
<glyph unicode="&#xc7;" horiz-adv-x="1272" d="M239.5 539.5q2.5 105.5 26.5 217.5q34 160 98 295.5t157 242.5t222 167.5t280 60.5q57 0 114 -13.5t114.5 -41.5t106 -79.5t76.5 -120.5l-143 -93q-55 99 -134.5 141.5t-164.5 42.5q-130 0 -244 -82.5t-192 -220.5t-115 -312q-29 -126 -20 -237t44.5 -193.5t104 -130 t158.5 -47.5q195 0 404 209l115 -101q-208 -267 -529 -271l-68 -101q39 12 79 9t72.5 -15t48.5 -43t7 -75q-15 -68 -61.5 -115t-100 -66t-110.5 -19q-101 0 -183 60l54 96q94 -51 153 -51q43 0 79.5 20t46.5 66q6 30 -12 46t-61 16h-88l-35 42l90 136q-103 13 -180 63 t-122.5 125t-67.5 171t-19.5 201.5z" />
<glyph unicode="&#xc8;" horiz-adv-x="1180" d="M169 0h915l43 160h-754l112 527h636l43 152h-647l107 506h737l43 160h-915zM695 1927h235l145 -323h-140z" />
<glyph unicode="&#xc9;" horiz-adv-x="1180" d="M169 0h915l43 160h-754l112 527h636l43 152h-647l107 506h737l43 160h-915zM867 1604l282 323h235l-378 -323h-139z" />
<glyph unicode="&#xca;" horiz-adv-x="1180" d="M169 0h915l43 160h-754l112 527h636l43 152h-647l107 506h737l43 160h-915zM639 1604l351 335h144l209 -335h-149l-163 192l-243 -192h-149z" />
<glyph unicode="&#xcb;" horiz-adv-x="1180" d="M169 0h915l43 160h-754l112 527h636l43 152h-647l107 506h737l43 160h-915zM718 1774q9 45 48 78t85 33t72 -32.5t16 -78.5t-49 -78.5t-86 -32.5q-46 0 -71 32.5t-15 78.5zM1078 1774q9 45 48 78t85 33t72 -32.5t16 -78.5t-49 -78.5t-86 -32.5q-46 0 -71 32.5t-15 78.5z " />
<glyph unicode="&#xcc;" horiz-adv-x="514" d="M169 0l320 1505h175l-320 -1505h-175zM299 1927h235l145 -323h-140z" />
<glyph unicode="&#xcd;" horiz-adv-x="514" d="M169 0l320 1505h175l-320 -1505h-175zM516 1604l283 323h235l-378 -323h-140z" />
<glyph unicode="&#xce;" horiz-adv-x="514" d="M169 0h175l319 1505h-175zM326 1663l281 269h120l167 -269h-173l-80 144l-142 -144h-173z" />
<glyph unicode="&#xcf;" horiz-adv-x="516" d="M169 0h176l319 1505h-176zM343 1774q9 45 48 78t85 33t72 -32.5t16 -78.5t-49 -78.5t-86 -32.5q-46 0 -71 32.5t-15 78.5zM703 1774q9 45 48 78t85 33t72 -32.5t16 -78.5t-49 -78.5t-86 -32.5q-46 0 -71 32.5t-15 78.5z" />
<glyph unicode="&#xd0;" horiz-adv-x="1374" d="M126 695l33 155h191l139 655h298q145 0 262.5 -28t210 -87.5t144.5 -152t67.5 -222t-22.5 -297.5q-69 -323 -293 -520.5t-526 -197.5h-461l148 695h-191zM374 160h249q74 0 152.5 22t157.5 69t146 112t118.5 158t73.5 201q63 297 -62.5 460t-421.5 163h-161l-105 -495 h374l-33 -155h-374z" />
<glyph unicode="&#xd1;" horiz-adv-x="1370" d="M169 0l320 1505h162q361 -929 380 -979q44 -113 70 -210q22 123 249 1189h169l-320 -1505h-165q-425 1118 -445 1187l-3 -2q-26 -142 -59 -301l-188 -884h-170zM696 1556q13 56 31.5 99t48 80.5t75 57.5t103.5 20q54 0 112 -28.5t107.5 -56.5t84.5 -28q79 0 114 120h114 q-57 -260 -258 -260q-50 0 -96.5 18.5t-76 40.5t-65.5 40.5t-67 18.5q-27 0 -47 -9.5t-35 -30.5t-23 -37t-20 -46z" />
<glyph unicode="&#xd2;" horiz-adv-x="1381" d="M244.5 582q-6.5 -90 0.5 -181t37 -167t79.5 -135.5t132 -93t189.5 -33.5q131 0 246 49.5t195 127.5t144.5 182.5t102 205t59.5 205.5q26 122 26.5 235.5t-26.5 212.5t-80 173t-139.5 116.5t-199.5 42.5q-115 0 -220.5 -42t-188 -114.5t-150 -169.5t-112.5 -205.5 t-69 -224.5q-20 -94 -26.5 -184zM418 529q1 62 7.5 116.5t18.5 107.5q14 65 41.5 139.5t75.5 160t107.5 153t143 112.5t175.5 45q89 0 151.5 -43t91 -108.5t39 -150.5t5 -161t-20.5 -147q-9 -44 -24 -93.5t-41 -110.5t-57.5 -117.5t-76 -111t-94.5 -95t-116 -65t-137 -24.5 q-67 0 -119 22t-84 59.5t-52 89t-27.5 106t-6.5 116.5zM748 1927h235l144 -323h-139z" />
<glyph unicode="&#xd3;" horiz-adv-x="1381" d="M244.5 582q-6.5 -90 0.5 -181t37 -167t79.5 -135.5t132 -93t189.5 -33.5q131 0 246 49.5t195 127.5t144.5 182.5t102 205t59.5 205.5q26 122 26.5 235.5t-26.5 212.5t-80 173t-139.5 116.5t-199.5 42.5q-115 0 -220.5 -42t-188 -114.5t-150 -169.5t-112.5 -205.5 t-69 -224.5q-20 -94 -26.5 -184zM418 529q1 62 7.5 116.5t18.5 107.5q14 65 41.5 139.5t75.5 160t107.5 153t143 112.5t175.5 45q89 0 151.5 -43t91 -108.5t39 -150.5t5 -161t-20.5 -147q-9 -44 -24 -93.5t-41 -110.5t-57.5 -117.5t-76 -111t-94.5 -95t-116 -65t-137 -24.5 q-67 0 -119 22t-84 59.5t-52 89t-27.5 106t-6.5 116.5zM934 1604l282 323h235l-378 -323h-139z" />
<glyph unicode="&#xd4;" horiz-adv-x="1381" d="M244.5 582q-6.5 -90 0.5 -181t37 -167t79.5 -135.5t132 -93t189.5 -33.5q131 0 246 49.5t195 127.5t144.5 182.5t102 205t59.5 205.5q26 122 26.5 235.5t-26.5 212.5t-80 173t-139.5 116.5t-199.5 42.5q-115 0 -220.5 -42t-188 -114.5t-150 -169.5t-112.5 -205.5 t-69 -224.5q-20 -94 -26.5 -184zM418 529q1 62 7.5 116.5t18.5 107.5q14 65 41.5 139.5t75.5 160t107.5 153t143 112.5t175.5 45q89 0 151.5 -43t91 -108.5t39 -150.5t5 -161t-20.5 -147q-9 -44 -24 -93.5t-41 -110.5t-57.5 -117.5t-76 -111t-94.5 -95t-116 -65t-137 -24.5 q-67 0 -119 22t-84 59.5t-52 89t-27.5 106t-6.5 116.5zM682 1604l351 335h144l209 -335h-149l-162 192l-244 -192h-149z" />
<glyph unicode="&#xd5;" horiz-adv-x="1381" d="M244.5 582q-6.5 -90 0.5 -181t37 -167t79.5 -135.5t132 -93t189.5 -33.5q131 0 246 49.5t195 127.5t144.5 182.5t102 205t59.5 205.5q26 122 26.5 235.5t-26.5 212.5t-80 173t-139.5 116.5t-199.5 42.5q-115 0 -220.5 -42t-188 -114.5t-150 -169.5t-112.5 -205.5 t-69 -224.5q-20 -94 -26.5 -184zM418 529q1 62 7.5 116.5t18.5 107.5q14 65 41.5 139.5t75.5 160t107.5 153t143 112.5t175.5 45q89 0 151.5 -43t91 -108.5t39 -150.5t5 -161t-20.5 -147q-9 -44 -24 -93.5t-41 -110.5t-57.5 -117.5t-76 -111t-94.5 -95t-116 -65t-137 -24.5 q-67 0 -119 22t-84 59.5t-52 89t-27.5 106t-6.5 116.5zM664 1576q13 56 31.5 99t48 80.5t75 57.5t103.5 20q54 0 112 -28.5t107.5 -56.5t84.5 -28q79 0 114 120h114q-57 -260 -258 -260q-50 0 -96.5 18.5t-76 40.5t-65.5 40.5t-67 18.5q-27 0 -47 -9.5t-35 -30.5t-23 -37 t-20 -46z" />
<glyph unicode="&#xd6;" horiz-adv-x="1381" d="M244.5 582q-6.5 -90 0.5 -181t37 -167t79.5 -135.5t132 -93t189.5 -33.5q131 0 246 49.5t195 127.5t144.5 182.5t102 205t59.5 205.5q26 122 26.5 235.5t-26.5 212.5t-80 173t-139.5 116.5t-199.5 42.5q-115 0 -220.5 -42t-188 -114.5t-150 -169.5t-112.5 -205.5 t-69 -224.5q-20 -94 -26.5 -184zM418 529q1 62 7.5 116.5t18.5 107.5q14 65 41.5 139.5t75.5 160t107.5 153t143 112.5t175.5 45q89 0 151.5 -43t91 -108.5t39 -150.5t5 -161t-20.5 -147q-9 -44 -24 -93.5t-41 -110.5t-57.5 -117.5t-76 -111t-94.5 -95t-116 -65t-137 -24.5 q-67 0 -119 22t-84 59.5t-52 89t-27.5 106t-6.5 116.5zM777 1774q10 46 48.5 78.5t84.5 32.5t72 -32.5t16 -78.5t-49 -78.5t-86 -32.5q-45 0 -70 32.5t-16 78.5zM1137 1774q10 46 48.5 78.5t84.5 32.5t72 -32.5t16 -78.5t-49 -78.5t-86 -32.5q-45 0 -70 32.5t-16 78.5z" />
<glyph unicode="&#xd7;" horiz-adv-x="1009" d="M195 391l373 303l-233 303l116 94l232 -303l374 303l74 -96l-373 -303l235 -305l-116 -94l-235 305l-372 -303z" />
<glyph unicode="&#xd8;" horiz-adv-x="1497" d="M-32 44l291 258q-47 189 9 454q25 116 70.5 225.5t113.5 208t151 172.5t189 117t221 43q265 0 380 -216l246 219l86 -91l-286 -254q45 -186 -5 -424q-18 -86 -48 -171.5t-74.5 -176t-106.5 -167t-137 -138t-174 -96.5t-209 -35q-269 0 -379 204l-250 -223zM426 450 l815 722q-70 191 -261 191q-77 0 -148 -31t-124.5 -83.5t-99 -115.5t-77.5 -134t-53 -131.5t-32 -114.5q-36 -168 -20 -303zM458 310q71 -174 262 -174q98 0 184 47t142.5 115.5t102 157.5t69 160t37.5 137q29 136 16 279z" />
<glyph unicode="&#xd9;" horiz-adv-x="1327" d="M247.5 429.5q-4.5 -55.5 0.5 -113.5t21 -107.5t48 -94t78 -75.5t114 -49t153 -18q510 0 631 571l204 962h-168l-205 -961q-14 -65 -36 -121.5t-58.5 -111.5t-84.5 -93.5t-117 -62.5t-152 -25q-57 0 -101 12t-73 33.5t-48 52.5t-27.5 66t-9.5 77.5t4 83.5t15 87l205 963 h-172l-204 -961q-13 -59 -17.5 -114.5zM708 1857h235l145 -323h-139z" />
<glyph unicode="&#xda;" horiz-adv-x="1327" d="M247.5 429.5q-4.5 -55.5 0.5 -113.5t21 -107.5t48 -94t78 -75.5t114 -49t153 -18q510 0 631 571l204 962h-168l-205 -961q-14 -65 -36 -121.5t-58.5 -111.5t-84.5 -93.5t-117 -62.5t-152 -25q-57 0 -101 12t-73 33.5t-48 52.5t-27.5 66t-9.5 77.5t4 83.5t15 87l205 963 h-172l-204 -961q-13 -59 -17.5 -114.5zM884 1534l282 323h235l-377 -323h-140z" />
<glyph unicode="&#xdb;" horiz-adv-x="1327" d="M247.5 429.5q-4.5 -55.5 0.5 -113.5t21 -107.5t48 -94t78 -75.5t114 -49t153 -18q510 0 631 571l204 962h-168l-205 -961q-14 -65 -36 -121.5t-58.5 -111.5t-84.5 -93.5t-117 -62.5t-152 -25q-57 0 -101 12t-73 33.5t-48 52.5t-27.5 66t-9.5 77.5t4 83.5t15 87l205 963 h-172l-204 -961q-13 -59 -17.5 -114.5zM649 1604l351 335h144l209 -335h-149l-163 192l-243 -192h-149z" />
<glyph unicode="&#xdc;" horiz-adv-x="1327" d="M247.5 429.5q-4.5 -55.5 0.5 -113.5t21 -107.5t48 -94t78 -75.5t114 -49t153 -18q510 0 631 571l204 962h-168l-205 -961q-14 -65 -36 -121.5t-58.5 -111.5t-84.5 -93.5t-117 -62.5t-152 -25q-57 0 -101 12t-73 33.5t-48 52.5t-27.5 66t-9.5 77.5t4 83.5t15 87l205 963 h-172l-204 -961q-13 -59 -17.5 -114.5zM734 1724q10 45 49 78t85 33t71.5 -32.5t15.5 -78.5q-10 -47 -49 -79t-85 -32t-71.5 32.5t-15.5 78.5zM1094 1724q10 45 49 78t85 33t71.5 -32.5t15.5 -78.5q-10 -47 -49 -79t-85 -32t-71.5 32.5t-15.5 78.5z" />
<glyph unicode="&#xdd;" horiz-adv-x="1159" d="M329 1505l292 -913l-126 -592h169l126 594l678 911h-197l-528 -731l-221 731h-193zM836 1534l282 323h235l-378 -323h-139z" />
<glyph unicode="&#xde;" horiz-adv-x="1213" d="M169 0l320 1506h170l-57 -270h227q515 0 421 -440q-42 -196 -196.5 -310.5t-367.5 -114.5h-268l-79 -371h-170zM451 528h266q127 0 231.5 69.5t129.5 189.5q31 148 -31.5 220t-223.5 72h-255z" />
<glyph unicode="&#xdf;" horiz-adv-x="1159" d="M48 -420l324 1525q46 213 177 331.5t344 118.5q187 0 275.5 -108.5t49.5 -294.5q-21 -97 -87.5 -178.5t-167.5 -124.5q144 -56 195 -154.5t19 -250.5q-39 -188 -165 -307q-84 -81 -195.5 -122.5t-228.5 -41.5h-25q-54 0 -102 19l49 138q54 -7 77 -7h32q147 0 251.5 85 t135.5 231q16 88 2 150t-60 101t-109 57t-145 18h-67l29 137h52q123 0 219.5 65t121.5 185q27 125 -22.5 189t-169.5 64q-128 0 -205.5 -75t-106.5 -211l-314 -1479z" />
<glyph unicode="&#xe0;" horiz-adv-x="1032" d="M138 311q16 73 51.5 131.5t80.5 97t108 66.5t120 43t130.5 23t127 10t120.5 2q18 88 16.5 150t-46.5 95.5t-141 33.5q-134 0 -287 -94l-54 118q76 62 172.5 93t191.5 31q61 0 109 -9t83 -24.5t59 -41t39 -52.5t21.5 -66t7 -75t-5.5 -86t-13.5 -92t-19.5 -99l-79 -370 q-17 -78 36 -78h57l-25 -119q-76 -18 -115 -18q-72 0 -97 52.5t-9 127.5h-4q-164 -185 -374 -185q-146 0 -218.5 94t-41.5 241zM297 313q-19 -92 24 -143t136 -51q96 0 187 61t159 155l45 213h-52q-449 0 -499 -235zM491 1549h235l145 -323h-140z" />
<glyph unicode="&#xe1;" horiz-adv-x="1032" d="M138 311q16 73 51.5 131.5t80.5 97t108 66.5t120 43t130.5 23t127 10t120.5 2q18 88 16.5 150t-46.5 95.5t-141 33.5q-134 0 -287 -94l-54 118q76 62 172.5 93t191.5 31q61 0 109 -9t83 -24.5t59 -41t39 -52.5t21.5 -66t7 -75t-5.5 -86t-13.5 -92t-19.5 -99l-79 -370 q-17 -78 36 -78h57l-25 -119q-76 -18 -115 -18q-72 0 -97 52.5t-9 127.5h-4q-164 -185 -374 -185q-146 0 -218.5 94t-41.5 241zM297 313q-19 -92 24 -143t136 -51q96 0 187 61t159 155l45 213h-52q-449 0 -499 -235zM639 1226l282 323h236l-379 -323h-139z" />
<glyph unicode="&#xe2;" horiz-adv-x="1032" d="M138 311q16 73 51.5 131.5t80.5 97t108 66.5t120 43t130.5 23t127 10t120.5 2q18 88 16.5 150t-46.5 95.5t-141 33.5q-134 0 -287 -94l-54 118q76 62 172.5 93t191.5 31q61 0 109 -9t83 -24.5t59 -41t39 -52.5t21.5 -66t7 -75t-5.5 -86t-13.5 -92t-19.5 -99l-79 -370 q-17 -78 36 -78h57l-25 -119q-76 -18 -115 -18q-72 0 -97 52.5t-9 127.5h-4q-164 -185 -374 -185q-146 0 -218.5 94t-41.5 241zM297 313q-19 -92 24 -143t136 -51q96 0 187 61t159 155l45 213h-52q-449 0 -499 -235zM408 1214l352 335h144l208 -335h-149l-163 192l-244 -192 h-148z" />
<glyph unicode="&#xe3;" horiz-adv-x="1032" d="M138 311q16 73 51.5 131.5t80.5 97t108 66.5t120 43t130.5 23t127 10t120.5 2q18 88 16.5 150t-46.5 95.5t-141 33.5q-134 0 -287 -94l-54 118q76 62 172.5 93t191.5 31q61 0 109 -9t83 -24.5t59 -41t39 -52.5t21.5 -66t7 -75t-5.5 -86t-13.5 -92t-19.5 -99l-79 -370 q-17 -78 36 -78h57l-25 -119q-76 -18 -115 -18q-72 0 -97 52.5t-9 127.5h-4q-164 -185 -374 -185q-146 0 -218.5 94t-41.5 241zM297 313q-19 -92 24 -143t136 -51q96 0 187 61t159 155l45 213h-52q-449 0 -499 -235zM403 1239q56 257 257 257q43 0 89 -17.5t78.5 -39t70 -39 t66.5 -17.5q79 0 114 120h115q-58 -260 -259 -260q-50 0 -96.5 18.5t-76 40.5t-65 40.5t-66.5 18.5q-35 0 -61 -20t-37.5 -42.5t-26.5 -60.5z" />
<glyph unicode="&#xe4;" horiz-adv-x="1032" d="M138 311q16 73 51.5 131.5t80.5 97t108 66.5t120 43t130.5 23t127 10t120.5 2q18 88 16.5 150t-46.5 95.5t-141 33.5q-134 0 -287 -94l-54 118q76 62 172.5 93t191.5 31q61 0 109 -9t83 -24.5t59 -41t39 -52.5t21.5 -66t7 -75t-5.5 -86t-13.5 -92t-19.5 -99l-79 -370 q-17 -78 36 -78h57l-25 -119q-76 -18 -115 -18q-72 0 -97 52.5t-9 127.5h-4q-164 -185 -374 -185q-146 0 -218.5 94t-41.5 241zM297 313q-19 -92 24 -143t136 -51q96 0 187 61t159 155l45 213h-52q-449 0 -499 -235zM514 1374q10 46 48.5 78.5t85.5 32.5q46 0 71.5 -33 t15.5 -78q-10 -46 -49 -78.5t-85 -32.5t-71.5 32.5t-15.5 78.5zM874 1374q10 46 48.5 78.5t85.5 32.5q46 0 71.5 -33t15.5 -78q-10 -46 -49 -78.5t-85 -32.5t-71.5 32.5t-15.5 78.5z" />
<glyph unicode="&#xe5;" horiz-adv-x="1032" d="M138 311q16 73 51.5 131.5t80.5 97t108 66.5t120 43t130.5 23t127 10t120.5 2q18 88 16.5 150t-46.5 95.5t-141 33.5q-134 0 -287 -94l-54 118q76 62 172.5 93t191.5 31q61 0 109 -9t83 -24.5t59 -41t39 -52.5t21.5 -66t7 -75t-5.5 -86t-13.5 -92t-19.5 -99l-79 -370 q-17 -78 36 -78h57l-25 -119q-76 -18 -115 -18q-72 0 -97 52.5t-9 127.5h-4q-164 -185 -374 -185q-146 0 -218.5 94t-41.5 241zM297 313q-19 -92 24 -143t136 -51q96 0 187 61t159 155l45 213h-52q-449 0 -499 -235zM616 1448q20 90 98 154.5t168 64.5q92 0 143.5 -64.5 t31.5 -154.5q-19 -92 -97.5 -156.5t-170.5 -64.5q-90 0 -141 64.5t-32 156.5zM710 1448q-11 -53 17 -90.5t81 -37.5t98 37.5t56 90.5q10 50 -20 88t-80 38q-53 0 -97 -36.5t-55 -89.5z" />
<glyph unicode="&#xe6;" horiz-adv-x="1686" d="M139 308q14 69 48 123t84 90t109.5 60.5t134.5 38t148 19t160 5.5h46q9 42 14 74t6 66.5t-3.5 59t-17 47.5t-33.5 37t-53 22.5t-75 8.5q-137 0 -287 -94l-54 118q69 56 164 90t199 34q139 0 211 -45t92 -131q152 179 383 179q90 0 155.5 -31.5t102 -84t53 -124.5t14 -150 t-20.5 -164q-1 -3 -5 -19.5t-6 -23.5h-728q-39 -185 15 -289t201 -104q95 0 171.5 40t145.5 125l105 -87q-92 -119 -201.5 -172.5t-272.5 -53.5q-130 0 -204 60.5t-100 164.5q-105 -119 -210 -172t-230 -53q-135 0 -214.5 91t-46.5 245zM297 307q-19 -89 25.5 -140.5 t135.5 -51.5q124 0 248 110q50 45 98 110l41 193h-52q-450 0 -496 -221zM1017 634h553q10 49 10.5 94.5t-11.5 87.5t-36.5 73.5t-67 50t-99.5 18.5q-66 0 -127 -28.5t-105 -75t-74.5 -102.5t-41.5 -113z" />
<glyph unicode="&#xe7;" horiz-adv-x="989" d="M177 338.5q-7 98.5 19 206.5q25 117 72 216t117.5 179t172 125t224.5 45q43 0 88.5 -11t91 -34t83.5 -64t58 -95l-138 -87q-31 76 -89.5 107.5t-123.5 31.5q-140 0 -245 -119t-144 -303q-22 -117 -9 -207.5t71.5 -145t152.5 -54.5q160 0 280 149l107 -90 q-74 -97 -171 -148.5t-197 -61.5l-73 -106q39 12 79 9t72.5 -15t48.5 -43t7 -75q-15 -68 -61.5 -115t-100 -66t-110.5 -19q-101 0 -183 60l54 96q94 -51 153 -51q42 0 79 20.5t47 65.5q6 30 -12 46t-61 16h-88l-35 42l91 135q-107 9 -181 58.5t-106.5 126.5t-39.5 175.5z " />
<glyph unicode="&#xe8;" horiz-adv-x="1061" d="M174.5 356q0.5 76 17.5 156q58 274 215.5 436t383.5 162q90 0 155.5 -31.5t102 -84t53.5 -124.5t14 -150t-21 -164q-5 -27 -14 -56h-728q-37 -175 18 -275.5t201 -100.5q96 0 172 38.5t145 122.5l105 -87q-92 -118 -201 -170t-273 -52q-91 0 -159.5 31t-108 82.5t-59 121 t-19 145.5zM392 634h554q15 59 9.5 117t-25.5 104t-68.5 74.5t-119.5 28.5q-68 0 -130 -30.5t-105.5 -79t-73 -104t-41.5 -110.5zM536 1549h235l145 -323h-140z" />
<glyph unicode="&#xe9;" horiz-adv-x="1061" d="M174.5 356q0.5 76 17.5 156q58 274 215.5 436t383.5 162q90 0 155.5 -31.5t102 -84t53.5 -124.5t14 -150t-21 -164q-5 -27 -14 -56h-728q-37 -175 18 -275.5t201 -100.5q96 0 172 38.5t145 122.5l105 -87q-92 -118 -201 -170t-273 -52q-91 0 -159.5 31t-108 82.5t-59 121 t-19 145.5zM392 634h554q15 59 9.5 117t-25.5 104t-68.5 74.5t-119.5 28.5q-68 0 -130 -30.5t-105.5 -79t-73 -104t-41.5 -110.5zM694 1226l282 323h236l-379 -323h-139z" />
<glyph unicode="&#xea;" horiz-adv-x="1061" d="M174.5 356q0.5 76 17.5 156q58 274 215.5 436t383.5 162q90 0 155.5 -31.5t102 -84t53.5 -124.5t14 -150t-21 -164q-5 -27 -14 -56h-728q-37 -175 18 -275.5t201 -100.5q96 0 172 38.5t145 122.5l105 -87q-92 -118 -201 -170t-273 -52q-91 0 -159.5 31t-108 82.5t-59 121 t-19 145.5zM392 634h554q15 59 9.5 117t-25.5 104t-68.5 74.5t-119.5 28.5q-68 0 -130 -30.5t-105.5 -79t-73 -104t-41.5 -110.5zM462 1214l352 335h144l208 -335h-149l-163 192l-244 -192h-148z" />
<glyph unicode="&#xeb;" horiz-adv-x="1061" d="M174.5 356q0.5 76 17.5 156q58 274 215.5 436t383.5 162q90 0 155.5 -31.5t102 -84t53.5 -124.5t14 -150t-21 -164q-5 -27 -14 -56h-728q-37 -175 18 -275.5t201 -100.5q96 0 172 38.5t145 122.5l105 -87q-92 -118 -201 -170t-273 -52q-91 0 -159.5 31t-108 82.5t-59 121 t-19 145.5zM392 634h554q15 59 9.5 117t-25.5 104t-68.5 74.5t-119.5 28.5q-68 0 -130 -30.5t-105.5 -79t-73 -104t-41.5 -110.5zM549 1374q10 46 48.5 78.5t85.5 32.5q46 0 71.5 -33t15.5 -78q-10 -46 -49 -78.5t-85 -32.5t-71.5 32.5t-15.5 78.5zM909 1374 q10 46 48.5 78.5t85.5 32.5q46 0 71.5 -33t15.5 -78q-10 -46 -49 -78.5t-85 -32.5t-71.5 32.5t-15.5 78.5z" />
<glyph unicode="&#xec;" horiz-adv-x="486" d="M171 1549h235l145 -323h-140zM183 0h162l232 1094h-289l-30 -140h127z" />
<glyph unicode="&#xed;" horiz-adv-x="486" d="M183 0h162l232 1094h-289l-30 -140h127zM397 1236l282 323h235l-378 -323h-139z" />
<glyph unicode="&#xee;" horiz-adv-x="486" d="M120 1214l352 335h144l208 -335h-149l-162 192l-244 -192h-149zM183 0h162l232 1094h-289l-30 -140h127z" />
<glyph unicode="&#xef;" horiz-adv-x="486" d="M183 0h162l232 1094h-289l-30 -140h127zM214 1374q10 45 49 78t85 33t71.5 -33t15.5 -78q-10 -47 -49 -79t-85 -32t-71.5 32.5t-15.5 78.5zM574 1374q10 45 49 78t85 33t71.5 -33t15.5 -78q-10 -47 -49 -79t-85 -32t-71.5 32.5t-15.5 78.5z" />
<glyph unicode="&#xf0;" horiz-adv-x="1102" d="M171.5 333q-1.5 77 14.5 162q21 98 73 193t124 170.5t167.5 119t193.5 37.5q146 -10 214 -92l5 6q-32 86 -72 146.5t-116 129.5l-320 -145l-27 91l271 123q-82 68 -167 113l60 139q141 -65 271 -178l268 122l26 -92l-222 -100q285 -315 199 -722q-19 -90 -53 -172.5 t-87 -157.5t-118 -130.5t-151 -88t-182 -32.5q-88 0 -158 27t-114 75t-71 113.5t-28.5 142.5zM339.5 388q-1.5 -54 14.5 -104.5t42 -89t71.5 -62t103.5 -23.5q79 0 147.5 36.5t116 96.5t79 129t47.5 143q38 181 -17 271q-26 44 -86.5 69.5t-121.5 25.5q-78 0 -145.5 -33 t-114.5 -88.5t-78.5 -122t-47.5 -140.5q-9 -54 -10.5 -108z" />
<glyph unicode="&#xf1;" horiz-adv-x="1114" d="M138 0h164l151 713q49 71 101 123q123 123 244 123q115 0 155.5 -75.5t12.5 -207.5l-144 -676h163l143 675q93 436 -270 436q-201 0 -363 -193h-6l19 176h-137zM464 1239q26 118 85.5 187.5t171.5 69.5q43 0 88.5 -17.5t78 -39t70.5 -39t67 -17.5q79 0 114 120h114 q-57 -260 -258 -260q-50 0 -97 18.5t-76 40.5t-65 40.5t-67 18.5q-26 0 -46.5 -9.5t-35.5 -30.5t-23 -37.5t-20 -45.5z" />
<glyph unicode="&#xf2;" horiz-adv-x="1098" d="M182.5 387q-0.5 -80 20 -155t61.5 -131.5t113 -90.5t167 -34q117 0 218.5 48t173 128t120 177.5t70.5 204.5q16 77 18.5 154t-15.5 154.5t-57 136t-112.5 95.5t-173.5 37q-98 0 -186 -35.5t-152 -92t-116 -131.5t-83.5 -150.5t-47.5 -151.5q-18 -83 -18.5 -163zM348 393 q-5 75 14 152q12 58 36.5 115.5t61.5 112.5t82.5 97.5t104 68t121.5 25.5q79 0 129.5 -35.5t69 -97t18 -133t-18.5 -155.5q-23 -106 -77.5 -200t-141.5 -157t-184 -63q-70 0 -119.5 37.5t-70 97.5t-25.5 135zM543 1549h235l145 -323h-139z" />
<glyph unicode="&#xf3;" horiz-adv-x="1098" d="M182.5 387q-0.5 -80 20 -155t61.5 -131.5t113 -90.5t167 -34q117 0 218.5 48t173 128t120 177.5t70.5 204.5q16 77 18.5 154t-15.5 154.5t-57 136t-112.5 95.5t-173.5 37q-98 0 -186 -35.5t-152 -92t-116 -131.5t-83.5 -150.5t-47.5 -151.5q-18 -83 -18.5 -163zM348 393 q-5 75 14 152q12 58 36.5 115.5t61.5 112.5t82.5 97.5t104 68t121.5 25.5q79 0 129.5 -35.5t69 -97t18 -133t-18.5 -155.5q-23 -106 -77.5 -200t-141.5 -157t-184 -63q-70 0 -119.5 37.5t-70 97.5t-25.5 135zM701 1226l281 323h235l-377 -323h-139z" />
<glyph unicode="&#xf4;" horiz-adv-x="1098" d="M182.5 387q-0.5 -80 20 -155t61.5 -131.5t113 -90.5t167 -34q117 0 218.5 48t173 128t120 177.5t70.5 204.5q16 77 18.5 154t-15.5 154.5t-57 136t-112.5 95.5t-173.5 37q-98 0 -186 -35.5t-152 -92t-116 -131.5t-83.5 -150.5t-47.5 -151.5q-18 -83 -18.5 -163zM348 393 q-5 75 14 152q12 58 36.5 115.5t61.5 112.5t82.5 97.5t104 68t121.5 25.5q79 0 129.5 -35.5t69 -97t18 -133t-18.5 -155.5q-23 -106 -77.5 -200t-141.5 -157t-184 -63q-70 0 -119.5 37.5t-70 97.5t-25.5 135zM456 1214l351 335h144l209 -335h-149l-163 192l-244 -192h-148z " />
<glyph unicode="&#xf5;" horiz-adv-x="1098" d="M182.5 387q-0.5 -80 20 -155t61.5 -131.5t113 -90.5t167 -34q117 0 218.5 48t173 128t120 177.5t70.5 204.5q16 77 18.5 154t-15.5 154.5t-57 136t-112.5 95.5t-173.5 37q-98 0 -186 -35.5t-152 -92t-116 -131.5t-83.5 -150.5t-47.5 -151.5q-18 -83 -18.5 -163zM348 393 q-5 75 14 152q12 58 36.5 115.5t61.5 112.5t82.5 97.5t104 68t121.5 25.5q79 0 129.5 -35.5t69 -97t18 -133t-18.5 -155.5q-23 -106 -77.5 -200t-141.5 -157t-184 -63q-70 0 -119.5 37.5t-70 97.5t-25.5 135zM457 1239q27 118 86.5 187.5t171.5 69.5q43 0 88.5 -17.5t78 -39 t70.5 -39t67 -17.5q80 0 113 120h114q-55 -260 -257 -260q-50 0 -97 18.5t-76.5 40.5t-65.5 40.5t-67 18.5q-26 0 -46.5 -9.5t-35 -30.5t-22.5 -37t-20 -46z" />
<glyph unicode="&#xf6;" horiz-adv-x="1098" d="M182.5 387q-0.5 -80 20 -155t61.5 -131.5t113 -90.5t167 -34q117 0 218.5 48t173 128t120 177.5t70.5 204.5q16 77 18.5 154t-15.5 154.5t-57 136t-112.5 95.5t-173.5 37q-98 0 -186 -35.5t-152 -92t-116 -131.5t-83.5 -150.5t-47.5 -151.5q-18 -83 -18.5 -163zM348 393 q-5 75 14 152q12 58 36.5 115.5t61.5 112.5t82.5 97.5t104 68t121.5 25.5q79 0 129.5 -35.5t69 -97t18 -133t-18.5 -155.5q-23 -106 -77.5 -200t-141.5 -157t-184 -63q-70 0 -119.5 37.5t-70 97.5t-25.5 135zM553 1374q9 46 47.5 78.5t85.5 32.5q46 0 71.5 -33t16.5 -78 q-10 -46 -49.5 -78.5t-85.5 -32.5t-71 32.5t-15 78.5zM913 1374q9 46 47.5 78.5t85.5 32.5q46 0 71.5 -33t16.5 -78q-10 -46 -49.5 -78.5t-85.5 -32.5t-71 32.5t-15 78.5z" />
<glyph unicode="&#xf7;" horiz-adv-x="1202" d="M251 633l30 133h992l-30 -133h-992zM555 338q11 51 56 88t97 37q51 0 78.5 -37t16.5 -88q-12 -51 -56.5 -88t-95.5 -37q-52 0 -80 37t-16 88zM721 1061q12 51 57 87.5t97 36.5q51 0 78.5 -37t15.5 -87q-11 -51 -55.5 -87t-95.5 -36q-52 0 -80 36t-17 87z" />
<glyph unicode="&#xf8;" horiz-adv-x="1098" d="M-13 15l223 194q-49 148 -8 335q16 76 47.5 152.5t84 152t117 133.5t152.5 94t186 36q201 0 293 -140l185 162l76 -78l-214 -187q40 -145 2 -324q-18 -85 -52 -165.5t-86 -154.5t-117 -129t-150 -88t-179 -33q-193 0 -288 133l-195 -171zM358 340l593 518 q-58 107 -194 107q-78 0 -146.5 -38.5t-116.5 -102t-80.5 -134.5t-48.5 -145q-23 -105 -7 -205zM397 228q60 -106 180 -106q74 0 141 36.5t116 97.5t83.5 134.5t51.5 152.5q23 110 14 198z" />
<glyph unicode="&#xf9;" horiz-adv-x="1094" d="M206 382q-42 -196 28.5 -301t248.5 -105q98 0 181 41.5t174 161.5h5l-19 -179h138l232 1094h-163l-154 -722q-44 -70 -93 -119q-125 -129 -242 -129q-115 0 -157 70t-17 187l152 713h-162zM526 1549h235l145 -323h-140z" />
<glyph unicode="&#xfa;" horiz-adv-x="1094" d="M206 382q-42 -196 28.5 -301t248.5 -105q98 0 181 41.5t174 161.5h5l-19 -179h138l232 1094h-163l-154 -722q-44 -70 -93 -119q-125 -129 -242 -129q-115 0 -157 70t-17 187l152 713h-162zM704 1226l282 323h236l-379 -323h-139z" />
<glyph unicode="&#xfb;" horiz-adv-x="1094" d="M206 382q-42 -196 28.5 -301t248.5 -105q98 0 181 41.5t174 161.5h5l-19 -179h138l232 1094h-163l-154 -722q-44 -70 -93 -119q-125 -129 -242 -129q-115 0 -157 70t-17 187l152 713h-162zM458 1214l352 335h144l208 -335h-149l-162 192l-244 -192h-149z" />
<glyph unicode="&#xfc;" horiz-adv-x="1094" d="M206 382q-42 -196 28.5 -301t248.5 -105q98 0 181 41.5t174 161.5h5l-19 -179h138l232 1094h-163l-154 -722q-44 -70 -93 -119q-125 -129 -242 -129q-115 0 -157 70t-17 187l152 713h-162zM551 1374q10 45 49 78t85 33t71.5 -33t15.5 -78q-10 -47 -49 -79t-85 -32 t-71.5 32.5t-15.5 78.5zM911 1374q10 45 49 78t85 33t71.5 -33t15.5 -78q-10 -47 -49 -79t-85 -32t-71.5 32.5t-15.5 78.5z" />
<glyph unicode="&#xfd;" horiz-adv-x="955" d="M-3 -408q67 -18 108 -18q133 0 209 52t154 193l706 1275h-180l-448 -853l-119 853h-179l171 -1078q-14 -24 -38 -64q-77 -129 -102 -159q-44 -53 -107 -61q-16 -2 -35 -2q-29 0 -88 16zM648 1226l282 323h236l-379 -323h-139z" />
<glyph unicode="&#xfe;" horiz-adv-x="1209" d="M48 -420l407 1917l170 60l-138 -647q77 95 178.5 147.5t211.5 52.5q91 0 159 -31t107 -84t57.5 -126.5t16.5 -156.5t-22 -175q-16 -74 -42 -145t-74 -149t-109.5 -136t-153 -95.5t-199.5 -37.5q-218 0 -287 187l-110 -521zM373 363q13 -65 47 -119q74 -119 227 -119 q56 0 107.5 22t90.5 59.5t71.5 82t55 93t37 89t21.5 74.5q40 188 -20.5 301t-200.5 113q-87 0 -183 -51.5t-172 -163.5z" />
<glyph unicode="&#xff;" horiz-adv-x="955" d="M-3 -408q67 -18 108 -18q133 0 209 52t154 193l706 1275h-180l-448 -853l-119 853h-179l171 -1078q-14 -24 -38 -64q-77 -129 -102 -159q-44 -53 -107 -61q-16 -2 -35 -2q-29 0 -88 16zM488 1374q10 45 49 78t85 33t71.5 -33t15.5 -78q-10 -47 -49 -79t-85 -32 t-71.5 32.5t-15.5 78.5zM848 1374q10 45 49 78t85 33t71.5 -33t15.5 -78q-10 -47 -49 -79t-85 -32t-71.5 32.5t-15.5 78.5z" />
<glyph unicode="&#x152;" horiz-adv-x="2056" d="M242 572.5q6 89.5 26 183.5q25 116 70.5 225.5t114 208t151.5 172.5t189 117t221 43q253 0 340 -213l42 194h885l-43 -160h-706l-107 -504h586l-43 -152h-576l-112 -527h724l-43 -160h-885l37 175q-182 -203 -428 -203q-107 0 -189.5 33t-132.5 91t-81 133t-38.5 164.5 t-1.5 179zM424 599.5q-6 -77.5 4.5 -163t40 -150.5t94 -107.5t157.5 -42.5q71 0 135.5 25t112.5 64.5t90 95t70.5 111t52.5 118t37 110t23 93.5q15 72 21 147.5t-3.5 160.5t-38 150.5t-90 108.5t-150.5 43q-77 0 -148 -31t-124.5 -83.5t-99 -115.5t-77.5 -134t-53 -131.5 t-32 -114.5q-16 -76 -22 -153.5z" />
<glyph unicode="&#x153;" horiz-adv-x="1800" d="M181.5 381.5q0.5 79.5 18.5 162.5q16 76 47.5 152.5t84 152t117 133.5t152.5 94t186 36q259 0 316 -240q160 238 428 238q90 0 155.5 -31.5t102 -84t53 -124.5t14 -150t-20.5 -164l-14 -56h-728q-37 -175 17.5 -277.5t200.5 -102.5q95 0 171.5 40t145.5 125l106 -87 q-92 -119 -201.5 -172.5t-272.5 -53.5q-255 0 -307 234q-164 -231 -408 -231q-95 0 -167 33.5t-113.5 89t-62.5 130t-20.5 154zM351.5 392.5q6.5 -75.5 29.5 -135.5t74 -97.5t121 -37.5q97 0 181 63.5t135.5 157t74.5 200.5q14 65 16.5 124.5t-8.5 114.5t-36.5 95t-72 64 t-110.5 24q-78 0 -146.5 -38.5t-116.5 -101.5t-81 -134.5t-48 -145.5q-19 -77 -12.5 -152.5zM1132 634h554q15 59 9.5 117t-25.5 104t-69 74.5t-120 28.5q-68 0 -130 -30.5t-105.5 -79t-73 -104.5t-40.5 -110z" />
<glyph unicode="&#x178;" horiz-adv-x="1159" d="M329 1505l292 -913l-126 -592h169l126 594l678 911h-197l-528 -731l-221 731h-193zM690 1774q9 45 48 78t85 33t72 -32.5t16 -78.5t-49 -78.5t-86 -32.5q-46 0 -71 32.5t-15 78.5zM1050 1774q9 45 48 78t85 33t72 -32.5t16 -78.5t-49 -78.5t-86 -32.5q-46 0 -71 32.5 t-15 78.5z" />
<glyph unicode="&#x2c6;" horiz-adv-x="1084" d="M450 1214l352 335h144l208 -335h-149l-163 192l-244 -192h-148z" />
<glyph unicode="&#x2dc;" horiz-adv-x="834" d="M312 1239q26 118 86 187.5t172 69.5q43 0 88.5 -17.5t78 -39t70 -39t66.5 -17.5q79 0 114 120h114q-55 -260 -258 -260q-50 0 -96.5 18.5t-76 40.5t-65.5 40.5t-67 18.5q-26 0 -46.5 -9.5t-35 -30.5t-22.5 -37t-20 -46z" />
<glyph unicode="&#x2000;" horiz-adv-x="969" />
<glyph unicode="&#x2001;" horiz-adv-x="1939" />
<glyph unicode="&#x2002;" horiz-adv-x="969" />
<glyph unicode="&#x2003;" horiz-adv-x="1939" />
<glyph unicode="&#x2004;" horiz-adv-x="646" />
<glyph unicode="&#x2005;" horiz-adv-x="484" />
<glyph unicode="&#x2006;" horiz-adv-x="323" />
<glyph unicode="&#x2007;" horiz-adv-x="323" />
<glyph unicode="&#x2008;" horiz-adv-x="242" />
<glyph unicode="&#x2009;" horiz-adv-x="387" />
<glyph unicode="&#x200a;" horiz-adv-x="107" />
<glyph unicode="&#x2010;" horiz-adv-x="656" d="M235 653l32 155h461l-32 -155h-461z" />
<glyph unicode="&#x2011;" horiz-adv-x="656" d="M235 653l32 155h461l-32 -155h-461z" />
<glyph unicode="&#x2012;" horiz-adv-x="656" d="M235 653l32 155h461l-32 -155h-461z" />
<glyph unicode="&#x2013;" horiz-adv-x="1145" d="M235 653l33 155h944l-33 -155h-944z" />
<glyph unicode="&#x2014;" horiz-adv-x="1981" d="M235 653l33 155h1786l-33 -155h-1786z" />
<glyph unicode="&#x2018;" horiz-adv-x="508" d="M310 922l236 583h137l-141 -583h-232z" />
<glyph unicode="&#x2019;" horiz-adv-x="508" d="M339 922l141 583h232l-236 -583h-137z" />
<glyph unicode="&#x201a;" horiz-adv-x="525" d="M71 -348l149 593h242l-264 -593h-127z" />
<glyph unicode="&#x201c;" horiz-adv-x="959" d="M310 922l236 583h137l-141 -583h-232zM760 922l236 583h137l-141 -583h-232z" />
<glyph unicode="&#x201d;" horiz-adv-x="989" d="M339 922l141 583h232l-236 -583h-137zM789 922l141 583h232l-236 -583h-137z" />
<glyph unicode="&#x201e;" horiz-adv-x="975" d="M71 -348l149 593h242l-264 -593h-127zM521 -348l149 593h242l-264 -593h-127z" />
<glyph unicode="&#x2022;" horiz-adv-x="781" d="M314 750q20 97 104 168t181 71t151 -71t34 -168q-21 -98 -104.5 -167t-180.5 -69t-151.5 69t-33.5 167z" />
<glyph unicode="&#x2026;" horiz-adv-x="1688" d="M133 121q13 61 65 104t113 43t95 -43t21 -104t-65 -104t-113 -43t-95 43t-21 104zM723 121q13 61 65 104t113 43t95 -43t21 -104t-65 -104t-113 -43t-95 43t-21 104zM1313 121q13 61 65 104t113 43t95 -43t21 -104t-65 -104t-113 -43t-95 43t-21 104z" />
<glyph unicode="&#x202f;" horiz-adv-x="387" />
<glyph unicode="&#x2030;" horiz-adv-x="2724" d="M321.5 923.5q2.5 64.5 17.5 132.5q19 89 54 168.5t87.5 148t127.5 108.5t162 40q70 0 120.5 -26.5t77.5 -70.5t38.5 -104.5t8.5 -124t-18 -133.5q-15 -71 -39.5 -136.5t-62 -126.5t-84 -105.5t-109.5 -71.5t-134 -27q-69 0 -119.5 27t-78 72t-39.5 105t-9.5 124.5z M486 818q30 -92 114 -92q80 0 147.5 92.5t98.5 239.5q33 151 4.5 242t-109.5 91q-82 0 -151.5 -93.5t-101.5 -241.5q-32 -146 -2 -238zM537 0l1050 1503h152l-1051 -1503h-151zM1246.5 301.5q2.5 64.5 17.5 132.5q19 89 54 168.5t87 147.5t126.5 108t161.5 40 q70 0 121 -26.5t78 -70.5t39 -104t9 -124t-18 -133q-19 -90 -54 -170t-87 -148.5t-127 -109t-163 -40.5q-69 0 -119 27t-77 72t-39 105.5t-9.5 125zM1410.5 195.5q29.5 -92.5 112.5 -92.5q81 0 149 93t99 240q33 150 4.5 241t-110.5 91q-81 0 -150.5 -93t-101.5 -241 q-32 -146 -2.5 -238.5zM2056.5 301.5q2.5 64.5 17.5 132.5q19 89 54 168.5t87 147.5t126.5 108t161.5 40q70 0 121 -26.5t78 -70.5t39 -104t9 -124t-18 -133q-19 -90 -54 -170t-87 -148.5t-127 -109t-163 -40.5q-69 0 -119 27t-77 72t-39 105.5t-9.5 125zM2220.5 195.5 q29.5 -92.5 112.5 -92.5q81 0 149 93t99 240q33 150 4.5 241t-110.5 91q-81 0 -150.5 -93t-101.5 -241q-32 -146 -2.5 -238.5z" />
<glyph unicode="&#x2039;" horiz-adv-x="744" d="M169 557l518 534h187l-518 -535l292 -556h-193z" />
<glyph unicode="&#x203a;" horiz-adv-x="738" d="M85 0l528 556l-290 535h187l290 -534l-522 -557h-193z" />
<glyph unicode="&#x205f;" horiz-adv-x="484" />
<glyph unicode="&#x20ac;" horiz-adv-x="1233" d="M122 503l61 138h154q7 49 18 99q10 50 26 107h-166l61 139h154q102 242 279.5 388.5t414.5 146.5q44 0 88.5 -10.5t88 -33.5t79.5 -64t56 -97l-141 -87q-55 134 -209 134q-148 0 -272.5 -102t-204.5 -275h489l-60 -139h-482q-12 -36 -27 -105q-12 -56 -17 -101h463 l-59 -138h-412q4 -171 76.5 -272t209.5 -101q93 0 170 25t182 104l69 -120q-100 -86 -214.5 -127t-224.5 -41q-122 0 -211 41t-140.5 115t-74.5 167.5t-21 208.5h-203z" />
<glyph unicode="&#x2122;" horiz-adv-x="1549" d="M337 1405l21 101h558l-21 -101h-221l-159 -748h-111l159 748h-226zM881 657l181 849h115l137 -512l351 512h117l-180 -849h-108l131 619l-312 -450h-71l-120 454l-133 -623h-108z" />
<glyph unicode="&#x2190;" horiz-adv-x="1361" d="M253 677l5 21l657 509l59 -118l-427 -324h893l-36 -155h-895l280 -324l-116 -119z" />
<glyph unicode="&#x2191;" horiz-adv-x="1232" d="M254 681l634 537h20l383 -539l-139 -86l-239 352l-206 -892h-156l206 894l-405 -354z" />
<glyph unicode="&#x2192;" horiz-adv-x="1359" d="M237 610l36 155h891l-277 324l115 118l421 -509l-5 -21l-654 -510l-62 119l428 324h-893z" />
<glyph unicode="&#x2193;" horiz-adv-x="1234" d="M233 591l139 86l242 -352l206 893h154l-207 -895l407 354l98 -88l-634 -538h-20z" />
<glyph unicode="&#x25fc;" horiz-adv-x="1095" d="M0 0v1095h1095v-1095h-1095z" />
<glyph horiz-adv-x="951" d="M157 0l27 147h287l151 774l-349 -116l-8 143l429 145h117l-185 -946h264l-27 -147h-706z" />
<glyph horiz-adv-x="944" d="M104 0l14 78q15 77 51 144t90.5 121.5t106 94t121.5 82.5q19 11 74 43t86.5 51.5t59.5 38.5q110 74 121 135q17 83 -30.5 130.5t-131.5 47.5q-80 0 -143.5 -32.5t-123.5 -100.5l-107 86q162 193 399 193q74 0 134.5 -21.5t102 -61.5t57.5 -102.5t1 -138.5 q-11 -55 -40.5 -103t-78 -89.5t-93 -71.5t-110.5 -68q-105 -61 -111 -65q-69 -40 -104 -69q-127 -95 -148 -175h549l-27 -147h-719z" />
<glyph horiz-adv-x="981" d="M91 45l126 82q17 -40 45.5 -68.5t63 -44t68.5 -22t70 -6.5q133 0 215.5 76.5t103.5 181.5q21 104 -30.5 160.5t-153.5 56.5h-133l28 139h135q86 0 140 57.5t71 138.5q13 68 -31.5 120t-132.5 52q-165 0 -278 -131l-96 82q56 70 131.5 115.5t139.5 61.5t126 16 q67 0 125.5 -19t103.5 -56t64.5 -99t4.5 -140q-37 -169 -176 -262q71 -35 105 -107.5t12 -184.5q-36 -188 -176 -296t-335 -108q-70 0 -133.5 19t-120 66.5t-82.5 119.5z" />
<glyph horiz-adv-x="1045" d="M59 135l23 119l807 839h127l-157 -810h157l-30 -148h-157l-56 -285h-152l56 285h-618zM300 283h407l104 536q-447 -471 -511 -536z" />
<glyph horiz-adv-x="1021" d="M119 45l128 84q62 -141 226 -141q69 0 128 25.5t97 65.5t61.5 83.5t31.5 85.5q25 128 -29.5 198t-149.5 70q-85 0 -239 -92l-107 41l164 628h606l-26 -139h-469l-93 -358q48 26 106.5 41.5t102.5 15.5q153 0 240 -106t51 -293q-36 -189 -176.5 -301.5t-334.5 -112.5 q-108 0 -193.5 49.5t-124.5 155.5z" />
<glyph horiz-adv-x="1011" d="M190.5 375.5q3.5 74.5 19.5 158.5q20 104 47.5 195t77 191.5t110.5 171t153 117t202 46.5q197 0 274 -168l-121 -76q-27 46 -76.5 74.5t-108.5 28.5q-286 0 -402 -506q162 166 327 166q179 0 262 -105t47 -284q-37 -187 -171.5 -298.5t-322.5 -111.5q-93 0 -159 33.5 t-100 87.5t-48 129.5t-10.5 150zM347 393q-25 -119 28.5 -196.5t171.5 -77.5t198 73t103 193q24 122 -29 186t-177 64q-96 0 -186.5 -73t-108.5 -169z" />
<glyph horiz-adv-x="852" d="M160 -145q418 692 645 1097h-549l27 141h715l-22 -114q-187 -351 -654 -1124h-162z" />
<glyph horiz-adv-x="1064" d="M171 336q21 109 96 187.5t189 123.5q-72 39 -106 109.5t-17 156.5q30 154 159 247t286 93q156 0 247 -91t60 -245q-16 -87 -76.5 -154.5t-150.5 -109.5q98 -44 143 -123.5t24 -189.5q-24 -120 -100.5 -205.5t-178.5 -124.5t-220 -39q-86 0 -157.5 23t-122.5 67t-72 115 t-3 160zM321 340q-12 -56 3 -101t50 -71.5t81 -40.5t100 -14q75 0 139 21.5t114.5 73.5t66.5 128q23 118 -44 182.5t-188 64.5q-123 0 -211 -62t-111 -181zM482 913q-20 -98 34 -151.5t154 -53.5q97 0 174 57.5t95 153.5q19 94 -36 145.5t-153 51.5q-99 0 -174.5 -53.5 t-93.5 -149.5z" />
<glyph horiz-adv-x="1008" d="M136 -8l134 76q28 -41 80.5 -64.5t110.5 -23.5q63 0 118.5 30.5t96 79.5t74 116t55 133.5t35.5 137.5q-92 -78 -165 -107.5t-143 -29.5q-171 0 -256.5 105.5t-52.5 275.5q22 113 95 203t175.5 139t214.5 49q86 0 150.5 -27t101 -74t56.5 -111t17.5 -137.5t-15.5 -152.5 q-16 -84 -34 -155t-45.5 -152.5t-59.5 -146t-78 -126t-99 -102t-123 -65.5t-151 -25q-100 0 -176 38.5t-116 115.5zM380 727q-23 -114 31 -179t170 -65q92 0 182.5 69t110.5 169q22 114 -36 182t-168 68q-106 0 -187.5 -67t-102.5 -177z" />
<glyph horiz-adv-x="1082" d="M180.5 381q0.5 79 16.5 164q15 77 43.5 152t77 151.5t109 134t146.5 93.5t183 36q85 0 150 -24.5t104.5 -68t64.5 -98.5t32 -120t4.5 -127.5t-15.5 -126.5q-17 -86 -47.5 -166t-80 -154.5t-111 -130t-145 -88.5t-178.5 -33t-165.5 33.5t-110 89t-59 130t-19 153.5z M340 423q-2 -60 13 -114.5t40 -95.5t69 -65.5t100 -24.5q73 0 138 36.5t111 97t78 133.5t47 152q18 79 15.5 155t-21.5 135t-70.5 95.5t-131.5 36.5q-63 0 -119 -26t-97 -68t-74 -97.5t-53.5 -112.5t-32.5 -115q-10 -62 -12 -122z" />
</font>
</defs>
</svg>
