<svg xmlns="http://www.w3.org/2000/svg" width="200" height="70" viewBox="0 0 200 70"><g fill="#FFF"><path d="M106.443 41.12c-1.48 0-2.843 1.072-3.19 2.638-.088.29-.146.61-.146.9v2.175c0 .348.03.667.116.986.348 1.45 1.624 2.492 3.133 2.492 2.262 0 3.597-1.886 3.597-4.67 0-2.495-1.218-4.525-3.51-4.525z"/><path d="M0 10v50c0 5.523 4.477 10 10 10h180c5.523 0 10-4.477 10-10V10c0-5.523-4.477-10-10-10H10C4.477 0 0 4.477 0 10zm176.99 6.67c2.686 0 3.4 2.363 3.4 3.876 0 .306-.034.544-.05.697h-5.78c.033 2.023 1.325 2.855 2.82 2.855 1.072 0 1.718-.186 2.28-.425l.254 1.072c-.527.238-1.428.51-2.737.51-2.533 0-4.045-1.667-4.045-4.148s1.46-4.437 3.858-4.437zm-30.586.187l.085 1.36h.03c.41-.782 1.36-1.547 2.72-1.547 1.14 0 2.908.68 2.908 3.502v4.912h-1.497v-4.742c0-1.326-.492-2.43-1.903-2.43-.987 0-1.75.696-2.007 1.53-.068.186-.102.44-.102.696v4.946h-1.495v-6c0-.85-.016-1.546-.068-2.227h1.326zm-19.934-.187c2.686 0 3.4 2.363 3.4 3.876 0 .306-.034.544-.05.697h-5.78c.033 2.023 1.325 2.855 2.82 2.855 1.072 0 1.718-.186 2.28-.425l.254 1.072c-.527.238-1.428.51-2.737.51-2.533 0-4.045-1.667-4.045-4.148s1.46-4.437 3.858-4.437zm-22.577 1.105c-.765 0-1.564.238-2.142.612l-.34-.986c.68-.44 1.67-.73 2.706-.73 2.516 0 3.128 1.72 3.128 3.368v3.077c0 .714.034 1.41.136 1.97h-1.36l-.12-1.036h-.05c-.46.646-1.344 1.223-2.517 1.223-1.666 0-2.516-1.172-2.516-2.36 0-1.99 1.768-3.078 4.947-3.06v-.17c0-.68-.187-1.905-1.87-1.905zm-9.647-4.164c.56 0 .918.41.918.937.017.51-.357.918-.952.918-.527 0-.9-.408-.9-.918 0-.526.39-.934.934-.934zm.748 3.25v8.226h-1.496V16.86h1.496zm-7.25.917c-.764 0-1.563.238-2.14.612l-.34-.987c.68-.44 1.665-.73 2.702-.73 2.516 0 3.128 1.717 3.128 3.366v3.076c0 .714.034 1.41.136 1.97h-1.36l-.12-1.036h-.05c-.46.646-1.343 1.223-2.516 1.223-1.666 0-2.516-1.172-2.516-2.36 0-1.99 1.768-3.078 4.947-3.06v-.17c0-.68-.187-1.905-1.87-1.905zm-10.11-.918l1.613 4.623c.272.75.493 1.43.663 2.108h.05c.188-.68.426-1.36.698-2.106l1.598-4.623h1.564l-3.23 8.228h-1.428l-3.127-8.227h1.598zm-7.474-3.23h1.786l3.91 11.456h-1.582L73.05 21.48h-4.06l-1.19 3.604h-1.53l3.892-11.457zm-35.903 2.25c1.443-1.69 3.877-2.947 5.888-3.03.257 2.343-.683 4.69-2.08 6.38-1.396 1.69-3.686 3.005-5.927 2.83-.306-2.293.827-4.685 2.12-6.18zm11.436 31.975c-1.667 2.435-3.392 4.86-6.117 4.907-2.676.053-3.538-1.584-6.597-1.584s-4.018 1.537-6.55 1.637c-2.63.098-4.63-2.632-6.31-5.057-3.433-4.962-6.055-14.02-2.53-20.138 1.75-3.036 4.873-4.96 8.27-5.008 2.576-.05 5.016 1.736 6.59 1.736 1.58 0 4.54-2.15 7.653-1.834 1.304.057 4.96.527 7.31 3.964-.19.117-4.368 2.547-4.32 7.606.055 6.046 5.306 8.06 5.365 8.086-.05.14-.84 2.87-2.768 5.685zM77.13 52.75l-1.77-5.54h-6.208l-1.683 5.54h-3.686L70.05 33.2h4.555l6.353 19.55h-3.83zm13.16.32c-1.77 0-3.248-.755-3.973-1.886h-.058v7.31h-3.57v-15.17c0-1.858-.06-3.366-.118-4.7h3.133l.174 2.175h.06c1.043-1.597 2.696-2.497 4.842-2.497 3.25 0 5.947 2.784 5.947 7.194 0 5.104-3.22 7.57-6.44 7.57zm8.658-27.986h-1.496V13.016h1.496v12.068zm8.19 27.986c-1.77 0-3.248-.755-3.973-1.886h-.058v7.31H99.54v-15.17c0-1.858-.06-3.366-.117-4.7h3.133l.174 2.175h.058c1.044-1.597 2.698-2.497 4.844-2.497 3.25 0 5.946 2.784 5.946 7.194 0 5.104-3.22 7.57-6.44 7.57zm6.275-27.8c-1.19 0-2.142-.458-2.754-1.546h-.054l-.068 1.36h-1.293c.034-.56.068-1.393.068-2.125v-9.946h1.48v5.167h.033c.526-.917 1.478-1.512 2.804-1.512 2.04 0 3.484 1.7 3.467 4.2 0 2.94-1.85 4.4-3.688 4.4zm7.196-.186h-1.5V13.016h1.497v12.068zm5.58 27.957c-2.06 0-4.207-.58-5.28-1.216l.783-2.958c1.16.667 2.9 1.247 4.728 1.247 2.293 0 3.57-1.072 3.57-2.668 0-1.48-.986-2.35-3.48-3.248-3.22-1.16-5.28-2.872-5.28-5.686 0-3.19 2.67-5.627 6.903-5.627 2.118 0 3.684.465 4.7.987l-.87 2.87c-.697-.377-2.06-.93-3.888-.93-2.262 0-3.25 1.22-3.25 2.35 0 1.51 1.133 2.206 3.744 3.22 3.392 1.277 5.046 2.99 5.046 5.8 0 3.135-2.38 5.86-7.426 5.86zm16.84-11.746h-3.394v6.237c0 1.71.464 2.61 1.828 2.61.608 0 1.073-.086 1.392-.173l.058 2.727c-.522.203-1.45.348-2.582.348-1.305 0-2.407-.434-3.074-1.16-.756-.81-1.104-2.09-1.104-3.944v-6.643h-2.03v-2.667h2.03v-3.192l3.48-.84v4.032h3.395v2.667zm-3.948-16.02c-2.227 0-3.944-1.633-3.944-4.233 0-2.754 1.8-4.37 4.08-4.37 2.362 0 3.96 1.718 3.96 4.234 0 3.043-2.11 4.368-4.097 4.368zm12.444 27.798c-4.003 0-7.078-2.755-7.078-7.28 0-4.64 3.045-7.484 7.31-7.484 4.205 0 7.02 2.96 7.02 7.252 0 5.192-3.656 7.513-7.253 7.513zm7.405-30.585V18h-1.274v-1.14h1.275v-1.972l1.463-.39v2.362h2.142V18h-2.142v4.436c0 1.02.29 1.598 1.122 1.598.39 0 .68-.05.867-.102l.068 1.122c-.29.12-.747.204-1.325.204-.697 0-1.258-.22-1.615-.63-.424-.44-.577-1.17-.577-2.14zm9.953 19.273c-.29-.058-.61-.116-1.044-.116-1.71 0-2.87 1.103-3.19 2.698-.058.32-.117.697-.117 1.103v7.31h-3.567V43.18c0-1.913-.03-3.276-.117-4.552h3.103l.116 2.697h.115c.697-2.002 2.35-3.017 3.858-3.017.348 0 .55.03.84.087v3.365zm-1.088-23.845c-.97 0-1.734.68-2.006 1.495-.085.204-.1.425-.1.714v4.964h-1.498v-12.07h1.496v5.133h.03c.24-.426.614-.8 1.073-1.055.443-.255.97-.425 1.53-.425 1.105 0 2.873.68 2.873 3.52v4.893H169.7V20.36c0-1.327-.493-2.448-1.903-2.448zm15.3 28.776h-9.458c.086 2.553 2.088 3.655 4.35 3.655 1.654 0 2.843-.232 3.916-.638l.522 2.465c-1.218.495-2.9.87-4.93.87-4.584 0-7.28-2.812-7.28-7.134 0-3.916 2.377-7.6 6.902-7.6 4.583 0 6.092 3.77 6.092 6.874 0 .667-.06 1.19-.117 1.508z"/><path d="M176.917 40.742c-2.204 0-3.133 2-3.278 3.452h6.205c.03-1.306-.55-3.452-2.93-3.452zM102.312 22.74c0 .968.646 1.427 1.41 1.427 1.072 0 1.752-.68 1.99-1.377.05-.154.085-.324.085-.476v-1.428c-1.632-.034-3.485.255-3.485 1.853zm24.038-4.998c-1.512 0-2.174 1.393-2.294 2.43h4.37c.016-.952-.392-2.43-2.075-2.43zm-54.123 18.3h-.058c-.29 1.13-.58 2.495-.93 3.656l-1.51 4.814h5.02l-1.54-4.814c-.376-1.19-.695-2.525-.985-3.656zm104.643-18.3c-1.512 0-2.174 1.393-2.294 2.43h4.37c.016-.952-.392-2.43-2.075-2.43zM86.164 22.74c0 .968.646 1.427 1.41 1.427 1.072 0 1.752-.68 1.99-1.377.05-.154.085-.324.085-.476v-1.428c-1.635-.034-3.488.255-3.488 1.853zm26.994-4.88c-1.02 0-1.972.697-2.278 1.836-.034.17-.085.374-.085.612v1.48c0 .186.034.373.068.543.29 1.04 1.156 1.754 2.244 1.754 1.564 0 2.5-1.275 2.5-3.163 0-1.65-.85-3.06-2.45-3.06zm26.028-.068c-1.768 0-2.533 1.632-2.533 3.196 0 1.802 1.037 3.162 2.5 3.162 1.427 0 2.498-1.343 2.498-3.196 0-1.394-.694-3.162-2.462-3.162zm12.487 23.124c-2.523 0-3.538 2.436-3.538 4.786 0 2.726 1.334 4.786 3.51 4.786 2.03 0 3.45-2 3.45-4.844 0-2.205-.985-4.728-3.422-4.728zm-62.08.204c-1.48 0-2.84 1.072-3.19 2.638-.086.29-.144.61-.144.9v2.175c0 .348.025.667.112.986.348 1.45 1.625 2.492 3.133 2.492 2.263 0 3.597-1.886 3.597-4.67 0-2.495-1.218-4.525-3.51-4.525zm-17.97-24.093c-.256-.747-.426-1.428-.595-2.09h-.035c-.17.68-.357 1.376-.577 2.073l-1.122 3.315h3.45l-1.122-3.298z"/></g></svg>
