<?xml version="1.0" encoding="utf-8"?>
<!-- Generator: Adobe Illustrator 18.1.1, SVG Export Plug-In . SVG Version: 6.00 Build 0)  -->
<svg version="1.1" id="Layer_1"
	 xmlns="http://www.w3.org/2000/svg" xmlns:xlink="http://www.w3.org/1999/xlink" xmlns:a="http://ns.adobe.com/AdobeSVGViewerExtensions/3.0/"
	 x="0px" y="0px" width="200px" height="70px" viewBox="0 0 200 70" enable-background="new 0 0 200 70" xml:space="preserve">
<g>
	<path fill="#FFFFFF" d="M106.44261,41.11865c-1.479,0-2.84229,1.07324-3.19043,2.63965
		c-0.08691,0.29004-0.14502,0.60938-0.14502,0.89941v2.17578c0,0.34766,0.02881,0.66699,0.11572,0.98535
		c0.34814,1.45117,1.62451,2.49512,3.13281,2.49512c2.2627,0,3.59717-1.88574,3.59717-4.66992
		C109.95287,43.14893,108.7346,41.11865,106.44261,41.11865z"/>
	<path fill="#FFFFFF" d="M-0.00001,10v50c0,5.52285,4.47715,10,10,10h180c5.52286,0,10-4.47715,10-10V10c0-5.52285-4.47714-10-10-10
		h-180C4.47714,0-0.00001,4.47715-0.00001,10z M176.98997,16.67041c2.68604,0,3.3999,2.3623,3.3999,3.87598
		c0,0.30566-0.03418,0.54395-0.05127,0.69629h-5.7793c0.03418,2.02344,1.32617,2.85547,2.82178,2.85547
		c1.0708,0,1.7168-0.18652,2.27783-0.4248l0.25488,1.07129c-0.52686,0.23828-1.42773,0.50977-2.73682,0.50977
		c-2.53271,0-4.04541-1.66602-4.04541-4.14746S174.59349,16.67041,176.98997,16.67041z M146.40404,16.85693l0.08496,1.36035h0.03418
		c0.4082-0.78223,1.35986-1.54688,2.71973-1.54688c1.13916,0,2.90674,0.67969,2.90674,3.50195v4.91211h-1.49561v-4.74219
		c0-1.32617-0.49316-2.43066-1.90381-2.43066c-0.98633,0-1.75098,0.69629-2.00586,1.5293
		c-0.06836,0.1875-0.10205,0.44238-0.10205,0.69727v4.94629h-1.49609v-6c0-0.85059-0.0166-1.54688-0.06787-2.22754H146.40404z
		 M126.46996,16.67041c2.68604,0,3.3999,2.3623,3.3999,3.87598c0,0.30566-0.03418,0.54395-0.05127,0.69629h-5.7793
		c0.03418,2.02344,1.32568,2.85547,2.82178,2.85547c1.0708,0,1.7168-0.18652,2.27783-0.4248l0.25488,1.07129
		c-0.52686,0.23828-1.42773,0.50977-2.73682,0.50977c-2.53271,0-4.04541-1.66602-4.04541-4.14746
		S124.07347,16.67041,126.46996,16.67041z M103.8933,17.7749c-0.76514,0-1.56396,0.23828-2.14209,0.6123l-0.33984-0.98633
		c0.67969-0.44141,1.66553-0.73047,2.70264-0.73047c2.51562,0,3.12793,1.7168,3.12793,3.36523v3.07715
		c0,0.71387,0.03369,1.41113,0.13574,1.97168h-1.35986l-0.11914-1.03711h-0.05078c-0.45898,0.64648-1.34277,1.22363-2.51562,1.22363
		c-1.66602,0-2.51611-1.17285-2.51611-2.3623c0-1.98926,1.76807-3.07715,4.94678-3.05957V19.6792
		C105.76292,18.99951,105.57591,17.7749,103.8933,17.7749z M94.24583,13.61084c0.56104,0,0.91797,0.4082,0.91797,0.93457
		c0.01709,0.50977-0.35693,0.91797-0.95215,0.91797c-0.52686,0-0.90088-0.4082-0.90088-0.91797
		C93.31078,14.01904,93.70189,13.61084,94.24583,13.61084z M94.99388,16.85693v8.22754h-1.49609v-8.22754H94.99388z
		 M87.74486,17.7749c-0.76465,0-1.56348,0.23828-2.1416,0.6123l-0.33984-0.98633c0.67969-0.44141,1.66602-0.73047,2.70264-0.73047
		c2.51562,0,3.12793,1.7168,3.12793,3.36523v3.07715c0,0.71387,0.03369,1.41113,0.13574,1.97168h-1.35986l-0.11914-1.03711h-0.05078
		c-0.45898,0.64648-1.34277,1.22363-2.51562,1.22363c-1.66602,0-2.51611-1.17285-2.51611-2.3623
		c0-1.98926,1.76807-3.07715,4.94678-3.05957V19.6792C89.61497,18.99951,89.42796,17.7749,87.74486,17.7749z M77.63255,16.85693
		l1.61475,4.62402c0.27197,0.74805,0.49316,1.42773,0.66309,2.10742h0.05078c0.18701-0.67969,0.42529-1.35938,0.69727-2.10742
		l1.59766-4.62402h1.56396l-3.22998,8.22754h-1.42773l-3.12744-8.22754H77.63255z M70.16039,13.62744h1.78516l3.90967,11.45703
		h-1.58105l-1.22363-3.60352h-4.06299l-1.18994,3.60352h-1.52979L70.16039,13.62744z M34.25695,15.87793
		c1.44348-1.68872,3.87726-2.94653,5.8877-3.02869c0.25732,2.34241-0.68262,4.69129-2.07947,6.38196
		c-1.39594,1.68774-3.6861,3.00269-5.92688,2.82837C31.83153,19.7655,32.96453,17.37366,34.25695,15.87793z M45.69292,47.85278
		c-1.6673,2.43481-3.3924,4.85925-6.11713,4.90771c-2.67621,0.05127-3.53784-1.58521-6.59637-1.58521
		s-4.01526,1.53674-6.547,1.63647c-2.62958,0.0979-4.62976-2.63147-6.30914-5.05688
		c-3.43433-4.96167-6.05652-14.02075-2.53357-20.13794c1.74933-3.03613,4.875-4.95886,8.26929-5.0083
		c2.57922-0.04846,5.01862,1.7373,6.59448,1.7373c1.57776,0,4.53839-2.14844,7.65198-1.83423
		c1.30359,0.05774,4.95892,0.52771,7.30878,3.96399c-0.18835,0.11743-4.36682,2.54749-4.3183,7.60632
		c0.05408,6.04614,5.30487,8.05933,5.36456,8.08643C48.41204,42.30933,47.62035,45.03662,45.69292,47.85278z M77.12865,52.75049
		l-1.76904-5.54004h-6.20752l-1.68262,5.54004h-3.68359l6.26513-19.55078h4.5542l6.35254,19.55078H77.12865z M90.29027,53.06982
		c-1.76953,0-3.24854-0.75488-3.97363-1.88574h-0.05811v7.30957h-3.56787v-15.1709c0-1.85645-0.05811-3.36426-0.11621-4.69824
		h3.13281l0.17383,2.1748h0.05811c1.04443-1.59473,2.69775-2.49414,4.84424-2.49414c3.24902,0,5.94629,2.78418,5.94629,7.19336
		C96.72972,50.604,93.50999,53.06982,90.29027,53.06982z M98.94798,25.08447h-1.49609V13.01611h1.49609V25.08447z
		 M107.1389,53.06982c-1.76953,0-3.24854-0.75488-3.97363-1.88574h-0.05811v7.30957h-3.56787v-15.1709
		c0-1.85645-0.05811-3.36426-0.11621-4.69824h3.13281l0.17383,2.1748h0.05811c1.04443-1.59473,2.69775-2.49414,4.84424-2.49414
		c3.24902,0,5.94629,2.78418,5.94629,7.19336C113.57835,50.604,110.35863,53.06982,107.1389,53.06982z M113.41283,25.271
		c-1.18994,0-2.1416-0.45898-2.75391-1.54688h-0.05078l-0.06787,1.36035h-1.29199c0.03418-0.56055,0.06787-1.39355,0.06787-2.125
		v-9.94336h1.479v5.16699h0.03418c0.52686-0.91797,1.47852-1.5127,2.80469-1.5127c2.03955,0,3.48438,1.7002,3.46729,4.19824
		C117.1013,23.81006,115.24876,25.271,113.41283,25.271z M120.60912,25.08447h-1.49609V13.01611h1.49609V25.08447z
		 M126.19115,53.04053c-2.05957,0-4.20605-0.58008-5.2793-1.21875l0.7832-2.95801c1.16016,0.66699,2.90039,1.24707,4.72803,1.24707
		c2.2915,0,3.56787-1.07324,3.56787-2.66895c0-1.47949-0.98633-2.34961-3.48096-3.24805
		c-3.21973-1.16113-5.2793-2.87207-5.2793-5.68555c0-3.19141,2.66895-5.62793,6.90381-5.62793
		c2.11719,0,3.68359,0.46484,4.69922,0.98633l-0.87061,2.87207c-0.6958-0.37695-2.05908-0.92871-3.88672-0.92871
		c-2.2627,0-3.24902,1.21875-3.24902,2.34961c0,1.50879,1.13135,2.20508,3.74219,3.21973
		c3.39355,1.27637,5.04736,2.98828,5.04736,5.80176C133.61693,50.31396,131.23802,53.04053,126.19115,53.04053z M143.03197,41.29248
		h-3.39404v6.23633c0,1.71191,0.46436,2.61133,1.82764,2.61133c0.60889,0,1.07324-0.08691,1.39209-0.17383l0.05811,2.72656
		c-0.52197,0.20312-1.4502,0.34766-2.58154,0.34766c-1.30518,0-2.40771-0.43555-3.07471-1.16016
		c-0.75439-0.8125-1.10254-2.08887-1.10254-3.94531v-6.64258h-2.03027v-2.66797h2.03027v-3.19141l3.48096-0.84082v4.03223h3.39404
		V41.29248z M139.08372,25.271c-2.22656,0-3.94336-1.63184-3.94336-4.23242c0-2.75391,1.80176-4.36816,4.07959-4.36816
		c2.36279,0,3.96045,1.7168,3.96045,4.23242C143.1804,23.9458,141.07249,25.271,139.08372,25.271z M151.52806,53.06982
		c-4.00293,0-7.07764-2.75586-7.07764-7.28125c0-4.64062,3.0459-7.4834,7.31006-7.4834c4.20557,0,7.01953,2.95898,7.01953,7.25195
		C158.78001,50.74854,155.12523,53.06982,151.52806,53.06982z M158.93333,22.48389v-4.4873h-1.2749v-1.13965h1.2749v-1.97168
		l1.46143-0.39062v2.36231h2.14209v1.13965h-2.14209v4.43652c0,1.01953,0.28906,1.59766,1.12207,1.59766
		c0.39111,0,0.68018-0.05078,0.8667-0.10254l0.06836,1.12207c-0.28906,0.11914-0.74805,0.2041-1.32617,0.2041
		c-0.69678,0-1.25781-0.2207-1.61475-0.62891C159.08617,24.18311,158.93333,23.45264,158.93333,22.48389z M168.88548,41.75732
		c-0.29004-0.05859-0.60938-0.11621-1.04443-0.11621c-1.71143,0-2.87158,1.10156-3.19092,2.69727
		c-0.05762,0.31934-0.11572,0.69629-0.11572,1.10254v7.30957h-3.56787v-9.57227c0-1.91406-0.0293-3.27734-0.11621-4.55371h3.104
		l0.11572,2.69727h0.11621c0.69629-2.00195,2.34961-3.0166,3.85791-3.0166c0.34814,0,0.55127,0.0293,0.84131,0.08691V41.75732z
		 M167.79662,17.91162c-0.96924,0-1.73389,0.67969-2.00586,1.49512c-0.08496,0.2041-0.10205,0.4248-0.10205,0.71387v4.96387
		h-1.49609V13.01611h1.49609v5.13281h0.03369c0.23828-0.4248,0.6123-0.79883,1.07129-1.05371
		c0.44189-0.25488,0.96875-0.4248,1.52979-0.4248c1.10498,0,2.87256,0.67969,2.87256,3.51855v4.89551h-1.49561v-4.72559
		C169.70042,19.03271,169.20726,17.91162,167.79662,17.91162z M183.09593,46.68799h-9.45654
		c0.08691,2.55273,2.08838,3.65527,4.35107,3.65527c1.65332,0,2.84277-0.23242,3.91602-0.63867l0.52197,2.46582
		c-1.21826,0.49316-2.90039,0.87012-4.93115,0.87012c-4.58301,0-7.28076-2.81348-7.28076-7.13574
		c0-3.91602,2.37891-7.59961,6.90381-7.59961c4.58301,0,6.09131,3.77051,6.09131,6.87402
		C183.21165,45.84717,183.15355,46.36865,183.09593,46.68799z"/>
	<path fill="#FFFFFF" d="M176.91722,40.7417c-2.20459,0-3.13281,2.00098-3.27783,3.45215h6.20752
		C179.87621,42.88818,179.29564,40.7417,176.91722,40.7417z"/>
	<path fill="#FFFFFF" d="M102.31224,22.73877c0,0.96875,0.646,1.42773,1.41064,1.42773c1.07129,0,1.75098-0.67969,1.98877-1.37695
		c0.05127-0.15332,0.08496-0.32324,0.08496-0.47559v-1.42773C104.16478,20.85205,102.31224,21.14111,102.31224,22.73877z"/>
	<path fill="#FFFFFF" d="M126.3513,17.7417c-1.51318,0-2.17578,1.39355-2.29492,2.43066h4.36865
		C128.44212,19.22021,128.03392,17.7417,126.3513,17.7417z"/>
	<path fill="#FFFFFF" d="M72.22679,36.04248h-0.05811c-0.29004,1.13086-0.58008,2.49414-0.92822,3.65527l-1.5083,4.81445h5.01807
		l-1.53711-4.81445C72.83568,38.5083,72.51683,37.17334,72.22679,36.04248z"/>
	<path fill="#FFFFFF" d="M176.87132,17.7417c-1.51318,0-2.17578,1.39355-2.29492,2.43066h4.36865
		C178.96214,19.22021,178.55394,17.7417,176.87132,17.7417z"/>
	<path fill="#FFFFFF" d="M86.16429,22.73877c0,0.96875,0.646,1.42773,1.41064,1.42773c1.07129,0,1.75098-0.67969,1.98877-1.37695
		c0.05127-0.15332,0.08545-0.32324,0.08545-0.47559v-1.42773C88.01732,20.85205,86.16429,21.14111,86.16429,22.73877z"/>
	<path fill="#FFFFFF" d="M113.15794,17.85986c-1.02002,0-1.97168,0.69727-2.27783,1.83594
		c-0.03418,0.16992-0.08496,0.37402-0.08496,0.6123v1.47852c0,0.1875,0.03418,0.37402,0.06787,0.54395
		c0.28906,1.03711,1.15625,1.75098,2.24414,1.75098c1.56348,0,2.49854-1.27441,2.49854-3.16211
		C115.6057,19.271,114.7556,17.85986,113.15794,17.85986z"/>
	<path fill="#FFFFFF" d="M139.18578,17.79248c-1.76758,0-2.53271,1.63184-2.53271,3.19531
		c0,1.80176,1.03711,3.16211,2.49902,3.16211c1.42773,0,2.49854-1.34277,2.49854-3.19629
		C141.65062,19.56006,140.95384,17.79248,139.18578,17.79248z"/>
	<path fill="#FFFFFF" d="M151.67308,40.91553c-2.52344,0-3.53857,2.43652-3.53857,4.78613
		c0,2.72656,1.33447,4.78613,3.50977,4.78613c2.03027,0,3.45166-2.00098,3.45166-4.84375
		C155.09593,43.43896,154.1096,40.91553,151.67308,40.91553z"/>
	<path fill="#FFFFFF" d="M89.59398,41.11865c-1.479,0-2.84229,1.07324-3.19043,2.63965
		c-0.08691,0.29004-0.14502,0.60938-0.14502,0.89941v2.17578c0,0.34766,0.02881,0.66699,0.11572,0.98535
		c0.34814,1.45117,1.62451,2.49512,3.13281,2.49512c2.2627,0,3.59717-1.88574,3.59717-4.66992
		C93.10423,43.14893,91.88597,41.11865,89.59398,41.11865z"/>
	<path fill="#FFFFFF" d="M71.6223,17.02686c-0.25488-0.74707-0.4248-1.42774-0.59473-2.09082h-0.03418
		c-0.16992,0.68066-0.35693,1.37695-0.57764,2.07422l-1.12207,3.31445h3.45068L71.6223,17.02686z"/>
</g>
</svg>
