<svg xmlns="http://www.w3.org/2000/svg" width="750" height="750" viewBox="1445.833 1724.459 750 750"><defs><pattern x="-1694.833" y="-956.459" width="750" height="750" patternUnits="userSpaceOnUse" id="b" viewBox="0 -750 750 750" overflow="visible"><path fill="none" d="M0-750h750V0H0z"/><path d="M372.167-16.333c.276 0 .5.224.5.5s-.224.5-.5.5-.5-.224-.5-.5.224-.5.5-.5zm36-218c.276 0 .5.224.5.5s-.224.5-.5.5-.5-.224-.5-.5.224-.5.5-.5zM243.667-82.96c.276 0 .5.225.5.5s-.224.5-.5.5-.5-.223-.5-.5.223-.5.5-.5z" opacity=".5" fill="#FFF"/><path d="M137.667-210.333c.552 0 1 .448 1 1s-.448 1-1 1-1-.448-1-1 .448-1 1-1zM6.667-75c.552 0 1 .448 1 1s-.448 1-1 1-1-.448-1-1 .447-1 1-1zM722-211.833c.276 0 .5.224.5.5s-.224.5-.5.5-.5-.224-.5-.5.224-.5.5-.5zm-267.833 186.5c.276 0 .5.224.5.5s-.224.5-.5.5-.5-.224-.5-.5.224-.5.5-.5zm59.5-184.5c.276 0 .5.224.5.5s-.224.5-.5.5-.5-.224-.5-.5.224-.5.5-.5zM534.5-250.5c.828 0 1.5.672 1.5 1.5s-.672 1.5-1.5 1.5-1.5-.672-1.5-1.5.672-1.5 1.5-1.5zM375-467.935c.828 0 1.5.672 1.5 1.5s-.672 1.5-1.5 1.5-1.5-.672-1.5-1.5.672-1.5 1.5-1.5zM129.167-687.5c.828 0 1.5.672 1.5 1.5s-.672 1.5-1.5 1.5-1.5-.672-1.5-1.5.67-1.5 1.5-1.5zm253 45.907c.828 0 1.5.672 1.5 1.5s-.672 1.5-1.5 1.5-1.5-.672-1.5-1.5.67-1.5 1.5-1.5zm-293 629.26c.276 0 .5.224.5.5s-.224.5-.5.5-.5-.224-.5-.5.224-.5.5-.5zM190-19.833c.552 0 1 .448 1 1s-.448 1-1 1-1-.448-1-1 .448-1 1-1zm419-42.82c.552 0 1 .448 1 1s-.448 1-1 1-1-.448-1-1 .448-1 1-1z" opacity=".25" fill="#FFF"/><path d="M42.667-12.333c.552 0 1 .448 1 1s-.448 1-1 1-1-.448-1-1 .448-1 1-1z" opacity=".75" fill="#FFEFD4"/><path d="M325.167-141.333c.552 0 1 .448 1 1s-.448 1-1 1-1-.448-1-1 .448-1 1-1z" opacity=".25" fill="#FFF"/><path d="M597.167-188.5c.276 0 .5.224.5.5s-.224.5-.5.5-.5-.224-.5-.5.224-.5.5-.5z" opacity=".75" fill="#FFF"/><path d="M263.167-181.333c.276 0 .5.224.5.5s-.224.5-.5.5-.5-.224-.5-.5.224-.5.5-.5zM2.5-339.333c.276 0 .5.224.5.5s-.224.5-.5.5-.5-.224-.5-.5.224-.5.5-.5zm451.167 231.38c.276 0 .5.224.5.5s-.224.5-.5.5-.5-.224-.5-.5.224-.5.5-.5z" fill="#FFF"/><path d="M149-99.5c.276 0 .5.224.5.5s-.224.5-.5.5-.5-.224-.5-.5.224-.5.5-.5z" fill="#FFEFD4"/><path d="M67-73.5c.276 0 .5.224.5.5s-.224.5-.5.5-.5-.224-.5-.5.224-.5.5-.5z" opacity=".8" fill="#FFEFD4"/><path d="M19.167-278.333c.276 0 .5.224.5.5s-.224.5-.5.5-.5-.224-.5-.5.224-.5.5-.5zm343.833.5c.276 0 .5.224.5.5s-.224.5-.5.5-.5-.224-.5-.5.224-.5.5-.5zm-271.833 38.5c.276 0 .5.224.5.5s-.224.5-.5.5-.5-.224-.5-.5.224-.5.5-.5zM263.667-4.46c.276 0 .5.225.5.5s-.224.5-.5.5-.5-.223-.5-.5.224-.5.5-.5zm249.5-89.693c.276 0 .5.224.5.5s-.224.5-.5.5-.5-.224-.5-.5.224-.5.5-.5z" fill="#FFF"/><path d="M634.167-141.833c.276 0 .5.224.5.5s-.224.5-.5.5-.5-.224-.5-.5.224-.5.5-.5zM348.667-89c.276 0 .5.224.5.5s-.224.5-.5.5-.5-.224-.5-.5.224-.5.5-.5zm362.5-25.333c.276 0 .5.224.5.5s-.224.5-.5.5-.5-.224-.5-.5.224-.5.5-.5zm24.5 90c.276 0 .5.224.5.5s-.224.5-.5.5-.5-.224-.5-.5.224-.5.5-.5zm-673-116.5c.276 0 .5.224.5.5s-.224.5-.5.5-.5-.224-.5-.5.223-.5.5-.5zm79.5-150.5c.276 0 .5.224.5.5s-.224.5-.5.5-.5-.224-.5-.5.224-.5.5-.5z" opacity=".5" fill="#FFF"/><path d="M551-40.46c.276 0 .5.225.5.5s-.224.5-.5.5-.5-.223-.5-.5.224-.5.5-.5zM13.08-151.41c.277 0 .5.225.5.5s-.223.5-.5.5-.5-.223-.5-.5.225-.5.5-.5z" fill="#FFF"/><path d="M475.5-271.5c.276 0 .5.224.5.5s-.224.5-.5.5-.5-.224-.5-.5.224-.5.5-.5zm31.667 127.167c.276 0 .5.224.5.5s-.224.5-.5.5-.5-.224-.5-.5.224-.5.5-.5z" opacity=".5" fill="#FFF"/><path d="M656.167-24.833c.276 0 .5.224.5.5s-.224.5-.5.5-.5-.224-.5-.5.224-.5.5-.5z" opacity=".25" fill="#FFF"/><path d="M220.167-229.333c.276 0 .5.224.5.5s-.224.5-.5.5-.5-.224-.5-.5.224-.5.5-.5zM25-201c.276 0 .5.224.5.5s-.224.5-.5.5-.5-.224-.5-.5.224-.5.5-.5zm347.667-353.333c.276 0 .5.224.5.5s-.224.5-.5.5-.5-.224-.5-.5.224-.5.5-.5z" opacity=".5" fill="#FFF"/><path d="M560-322.5c.552 0 1 .448 1 1s-.448 1-1 1-1-.448-1-1 .448-1 1-1zm60-293.833c.552 0 1 .448 1 1s-.448 1-1 1-1-.448-1-1 .448-1 1-1zm-184.833-62c.552 0 1 .448 1 1s-.448 1-1 1-1-.448-1-1 .448-1 1-1zM320.677-686c.553 0 1 .448 1 1s-.447 1-1 1-1-.448-1-1 .45-1 1-1zM38.5-339.833c.276 0 .5.224.5.5s-.224.5-.5.5-.5-.224-.5-.5.224-.5.5-.5zm290.667-81.152c.552 0 1 .448 1 1s-.448 1-1 1-1-.448-1-1 .448-1 1-1zM156.5-740.833c.552 0 1 .448 1 1s-.448 1-1 1-1-.448-1-1 .448-1 1-1zm74.667 372.5c.552 0 1 .448 1 1s-.448 1-1 1-1-.448-1-1 .448-1 1-1z" opacity=".25" fill="#FFF"/><path d="M676.667-551.5c.828 0 1.5.672 1.5 1.5s-.672 1.5-1.5 1.5-1.5-.672-1.5-1.5.672-1.5 1.5-1.5z" opacity=".35" fill="#FFEFD4"/><path d="M552-579c.552 0 1 .448 1 1s-.448 1-1 1-1-.448-1-1 .448-1 1-1zm-435 84.667c.552 0 1 .448 1 1s-.448 1-1 1-1-.448-1-1 .448-1 1-1z" opacity=".25" fill="#FFF"/><path d="M671.667-476.333c.276 0 .5.224.5.5s-.224.5-.5.5-.5-.224-.5-.5.224-.5.5-.5zM232.167-551c.276 0 .5.224.5.5s-.224.5-.5.5-.5-.224-.5-.5.224-.5.5-.5zM584.5-438.5c.276 0 .5.224.5.5s-.224.5-.5.5-.5-.224-.5-.5.224-.5.5-.5zM560-723.657c.276 0 .5.224.5.5s-.224.5-.5.5-.5-.224-.5-.5.224-.5.5-.5zm151.667 441.324c.276 0 .5.224.5.5s-.224.5-.5.5-.5-.224-.5-.5.224-.5.5-.5zm-352.5-69.71c.276 0 .5.225.5.5s-.224.5-.5.5-.5-.223-.5-.5.224-.5.5-.5zM272-734.5c.276 0 .5.224.5.5s-.224.5-.5.5-.5-.224-.5-.5.224-.5.5-.5z" fill="#FFF"/><path d="M215-620.656c.276 0 .5.224.5.5s-.224.5-.5.5-.5-.224-.5-.5.224-.5.5-.5z" fill="#FFEFD4"/><path d="M662.5-322.5c.276 0 .5.224.5.5s-.224.5-.5.5-.5-.224-.5-.5.224-.5.5-.5zM559-623.655c.276 0 .5.224.5.5s-.224.5-.5.5-.5-.224-.5-.5.224-.5.5-.5zm-454.827-24.77c.276 0 .5.223.5.5s-.224.5-.5.5-.5-.225-.5-.5.224-.5.5-.5zM743.833-438c.276 0 .5.224.5.5s-.224.5-.5.5-.5-.224-.5-.5.224-.5.5-.5zM429.5-426.333c.276 0 .5.224.5.5s-.224.5-.5.5-.5-.224-.5-.5.224-.5.5-.5zM257-482c.276 0 .5.224.5.5s-.224.5-.5.5-.5-.224-.5-.5.224-.5.5-.5z" fill="#FFF"/><path d="M174.667-458.233c.497 0 .9.403.9.9s-.403.9-.9.9-.9-.403-.9-.9.403-.9.9-.9zm-125.497-.1c.277 0 .5.224.5.5s-.223.5-.5.5-.5-.224-.5-.5.225-.5.5-.5zM731-521c.276 0 .5.224.5.5s-.224.5-.5.5-.5-.224-.5-.5.224-.5.5-.5zM602.667-279.333c.276 0 .5.224.5.5s-.224.5-.5.5-.5-.224-.5-.5.224-.5.5-.5z" opacity=".5" fill="#FFF"/><path d="M494.167-509.46c.276 0 .5.225.5.5s-.224.5-.5.5-.5-.223-.5-.5.224-.5.5-.5z" fill="#FFF"/><path d="M282.667-284.333c.276 0 .5.224.5.5s-.224.5-.5.5-.5-.224-.5-.5.224-.5.5-.5zm-45-142.25c.414 0 .75.336.75.75s-.336.75-.75.75-.75-.336-.75-.75.336-.75.75-.75z" opacity=".5" fill="#FFF"/><path d="M46.667-695.333c.276 0 .5.224.5.5s-.224.5-.5.5-.5-.224-.5-.5.224-.5.5-.5zM156-639.093c.276 0 .5.224.5.5s-.224.5-.5.5-.5-.224-.5-.5.224-.5.5-.5zm-82 92.76c.276 0 .5.224.5.5s-.224.5-.5.5-.5-.224-.5-.5.224-.5.5-.5zm393.667-61c.276 0 .5.224.5.5s-.224.5-.5.5-.5-.224-.5-.5.224-.5.5-.5zM722.5-699.5c.276 0 .5.224.5.5s-.224.5-.5.5-.5-.224-.5-.5.224-.5.5-.5z" opacity=".25" fill="#FFF"/><path d="M595.167-692.833c.276 0 .5.224.5.5s-.224.5-.5.5-.5-.224-.5-.5.224-.5.5-.5zm121.833-47c.276 0 .5.224.5.5s-.224.5-.5.5-.5-.224-.5-.5.224-.5.5-.5zM4.717-734c.276 0 .5.224.5.5s-.224.5-.5.5-.5-.224-.5-.5.224-.5.5-.5zM552.5-369.583c.276 0 .5.224.5.5s-.224.5-.5.5-.5-.224-.5-.5.224-.5.5-.5z" opacity=".5" fill="#FFF"/><path d="M705.167-655.46c.552 0 1 .45 1 1 0 .553-.448 1-1 1s-1-.447-1-1c0-.55.447-1 1-1z" opacity=".7" fill="#FFEFD4"/><linearGradient id="a" gradientUnits="userSpaceOnUse" x1="1934.501" y1="-15386.209" x2="1934.501" y2="-15388.709" gradientTransform="matrix(1 0 0 -1 -1610.833 -15441.46)"><stop offset="0" stop-color="#1B012D"/><stop offset="1"/></linearGradient><path d="M323.667-55.25c.69 0 1.25.56 1.25 1.25s-.56 1.25-1.25 1.25-1.25-.56-1.25-1.25.56-1.25 1.25-1.25z" opacity=".65" fill="url(#a)"/><path d="M171.167-167.5c.276 0 .5.224.5.5s-.224.5-.5.5-.5-.224-.5-.5.224-.5.5-.5z" fill="#FFF"/><path fill="none" d="M0-750h750V0H0z"/></pattern></defs><g fill="url(#b)"><circle cx="372.167" cy="734.167" r=".5" opacity=".5"/><circle cx="408.167" cy="516.167" r=".5" opacity=".5"/><circle cx="243.667" cy="667.541" r=".5" opacity=".5"/><circle cx="137.667" cy="540.667" r="1" opacity=".25"/><circle cx="6.667" cy="676" r="1" opacity=".25"/><circle cx="722" cy="538.667" r=".5" opacity=".25"/><circle cx="454.167" cy="725.167" r=".5" opacity=".25"/><circle cx="513.667" cy="540.667" r=".5" opacity=".25"/><circle cx="534.5" cy="501" r="1.5" opacity=".25"/><circle cx="375" cy="283.565" r="1.5" opacity=".25"/><circle cx="129.167" cy="64" r="1.5" opacity=".25"/><circle cx="382.167" cy="109.907" r="1.5" opacity=".25"/><circle cx="89.167" cy="738.167" r=".5" opacity=".25"/><circle cx="190" cy="731.167" r="1" opacity=".25"/><circle cx="609" cy="688.347" r="1" opacity=".25"/><circle cx="42.667" cy="738.667" r="1" opacity=".75"/><circle cx="325.167" cy="609.667" r="1" opacity=".25"/><circle cx="597.167" cy="562" r=".5" opacity=".75"/><circle cx="263.167" cy="569.167" r=".5"/><circle cx="2.5" cy="411.167" r=".5"/><circle cx="453.667" cy="642.547" r=".5"/><circle cx="149" cy="651" r=".5"/><circle cx="67" cy="677" r=".5" opacity=".8"/><circle cx="19.167" cy="472.167" r=".5"/><circle cx="363" cy="472.667" r=".5"/><circle cx="91.167" cy="511.167" r=".5"/><circle cx="263.667" cy="746.041" r=".5"/><circle cx="513.167" cy="656.347" r=".5"/><circle cx="634.167" cy="608.667" r=".5" opacity=".5"/><circle cx="348.667" cy="661.5" r=".5" opacity=".5"/><circle cx="711.167" cy="636.167" r=".5" opacity=".5"/><circle cx="735.667" cy="726.167" r=".5" opacity=".5"/><circle cx="62.667" cy="609.667" r=".5" opacity=".5"/><circle cx="142.167" cy="459.167" r=".5" opacity=".5"/><circle cx="551" cy="710.041" r=".5"/><circle cx="13.081" cy="599.091" r=".5"/><circle cx="475.5" cy="479" r=".5" opacity=".5"/><circle cx="507.167" cy="606.167" r=".5" opacity=".5"/><circle cx="656.167" cy="725.667" r=".5" opacity=".25"/><circle cx="220.167" cy="521.167" r=".5" opacity=".5"/><circle cx="25" cy="549.5" r=".5" opacity=".5"/><circle cx="372.667" cy="196.167" r=".5" opacity=".5"/><circle cx="560" cy="428.5" r="1" opacity=".25"/><circle cx="620" cy="134.667" r="1" opacity=".25"/><circle cx="435.167" cy="72.667" r="1" opacity=".25"/><circle cx="320.678" cy="65" r="1" opacity=".25"/><circle cx="38.5" cy="410.667" r=".5" opacity=".25"/><circle cx="329.167" cy="330.015" r="1" opacity=".25"/><circle cx="156.5" cy="10.167" r="1" opacity=".25"/><circle cx="231.167" cy="382.667" r="1" opacity=".25"/><circle cx="676.667" cy="200" r="1.5" opacity=".35"/><circle cx="552" cy="172" r="1" opacity=".25"/><circle cx="117" cy="256.667" r="1" opacity=".25"/><circle cx="671.667" cy="274.167" r=".5"/><circle cx="232.167" cy="199.5" r=".5"/><circle cx="584.5" cy="312" r=".5"/><circle cx="560" cy="26.843" r=".5"/><circle cx="711.667" cy="468.167" r=".5"/><circle cx="359.167" cy="398.458" r=".5"/><circle cx="272" cy="16" r=".5"/><circle cx="215" cy="129.844" r=".5"/><circle cx="662.5" cy="428" r=".5"/><circle cx="559" cy="126.845" r=".5"/><circle cx="104.173" cy="102.074" r=".5"/><circle cx="743.833" cy="312.5" r=".5"/><circle cx="429.5" cy="324.167" r=".5"/><circle cx="257" cy="268.5" r=".5"/><circle cx="174.667" cy="292.667" r=".9" opacity=".5"/><circle cx="49.171" cy="292.167" r=".5" opacity=".5"/><circle cx="731" cy="229.5" r=".5" opacity=".5"/><circle cx="602.667" cy="471.167" r=".5" opacity=".5"/><circle cx="494.167" cy="241.041" r=".5"/><circle cx="282.667" cy="466.167" r=".5" opacity=".5"/><circle cx="237.667" cy="324.167" r=".75" opacity=".5"/><circle cx="46.667" cy="55.167" r=".5" opacity=".25"/><circle cx="156" cy="111.407" r=".5" opacity=".25"/><circle cx="74" cy="204.167" r=".5" opacity=".25"/><circle cx="467.667" cy="143.167" r=".5" opacity=".25"/><circle cx="722.5" cy="51" r=".5" opacity=".25"/><circle cx="595.167" cy="57.667" r=".5" opacity=".5"/><circle cx="717" cy="10.667" r=".5" opacity=".5"/><circle cx="4.717" cy="16.5" r=".5" opacity=".5"/><circle cx="552.5" cy="380.917" r=".5" opacity=".5"/><circle cx="705.167" cy="95.541" r="1" opacity=".7"/><circle cx="323.667" cy="696" r="1.25" opacity=".65"/><circle cx="171.167" cy="583" r=".5"/></g><path fill="url(#b)" d="M0 0h750v750H0z"/></svg>