<?xml version="1.0" encoding="utf-8"?>
<!-- Generator: Adobe Illustrator 18.1.1, SVG Export Plug-In . SVG Version: 6.00 Build 0)  -->
<svg version="1.1" id="Layer_1"
	 xmlns="http://www.w3.org/2000/svg" xmlns:xlink="http://www.w3.org/1999/xlink" xmlns:a="http://ns.adobe.com/AdobeSVGViewerExtensions/3.0/"
	 x="0px" y="0px" width="120px" height="120px" viewBox="0 0 120 120" enable-background="new 0 0 120 120" xml:space="preserve">
<g>
	<g opacity="0.25">
		<path fill="#989898" d="M60.00006,10c27.61414,0,50,22.38574,50,50s-22.38586,50-50,50c-27.61426,0-50-22.38574-50-50
			S32.3858,10,60.00006,10 M60.00006,0c-33.08411,0-60,26.91589-60,60s26.91589,60,60,60s60-26.91589,60-60S93.08417,0,60.00006,0
			L60.00006,0z"/>
	</g>
	<g>
		<circle fill="#FFFFFF" cx="60.00003" cy="60" r="50"/>
		<path fill="#333333" d="M78.62564,58.26794l-14.6239-8.44312l-14.62378-8.44305c-1.33325-0.76978-3,0.19244-3,1.73206V60v16.88617
			c0,1.53955,1.66675,2.50183,3,1.73206l14.62378-8.44312l14.6239-8.44305C79.95901,60.96222,79.95901,59.03772,78.62564,58.26794z"
			/>
	</g>
</g>
</svg>
