<svg xmlns="http://www.w3.org/2000/svg" width="120" height="120" viewBox="0 0 120 120"><path fill="#989898" d="M60 10c27.614 0 50 22.386 50 50s-22.386 50-50 50-50-22.386-50-50 22.386-50 50-50m0-10C26.916 0 0 26.916 0 60s26.916 60 60 60 60-26.916 60-60S93.084 0 60 0z" opacity=".25"/><circle fill="#FFF" cx="60" cy="60" r="50"/><path fill="#333" d="M78.626 58.268l-14.624-8.443-14.624-8.443c-1.333-.77-3 .192-3 1.732v33.772c0 1.54 1.667 2.502 3 1.732l14.624-8.443 14.624-8.443c1.333-.77 1.333-2.694 0-3.464z"/></svg>