<?xml version="1.0" encoding="utf-8"?>
<!-- Generator: Adobe Illustrator 18.0.0, SVG Export Plug-In . SVG Version: 6.00 Build 0)  -->
<svg version="1.1" id="Layer_1" xmlns="http://www.w3.org/2000/svg" xmlns:xlink="http://www.w3.org/1999/xlink" x="0px" y="0px"
	 width="120px" height="120px" viewBox="0 0 120 120" enable-background="new 0 0 120 120" xml:space="preserve">
<linearGradient id="SVGID_1_" gradientUnits="userSpaceOnUse" x1="60" y1="120" x2="60" y2="1.220676e-04">
	<stop  offset="0" style="stop-color:#000000"/>
	<stop  offset="1" style="stop-color:#1B012D"/>
</linearGradient>
<rect y="0" fill="url(#SVGID_1_)" width="120" height="120"/>
<g id="XMLID_352_">
	<path fill="#FFFFFF" d="M102.5,60c0,0-19.9,30.9-42.3,30.9C37.7,90.9,17.5,60,17.5,60s20.2-30.9,42.7-30.9
		C82.3,29.1,102.5,60,102.5,60z"/>
</g>
<g id="XMLID_37_">
	<linearGradient id="XMLID_3_" gradientUnits="userSpaceOnUse" x1="66.815" y1="78.8846" x2="66.4137" y2="41.1168">
		<stop  offset="0" style="stop-color:#1FB45B"/>
		<stop  offset="8.721530e-03" style="stop-color:#20B55B"/>
		<stop  offset="0.4744" style="stop-color:#29BF66"/>
		<stop  offset="1" style="stop-color:#2CC369"/>
	</linearGradient>
	<path id="XMLID_6_" fill="url(#XMLID_3_)" d="M66.5,40.5C66.4,40.5,66.4,40.5,66.5,40.5c-0.5-0.2-1-0.3-1.5-0.4c0,0,0,0,0,0l0,0
		L52.7,60h14.1L54.7,79.8c1.7,0.5,3.5,0.7,5.3,0.7c11.3,0,20.5-9.2,20.5-20.5C80.5,50.9,74.6,43.2,66.5,40.5z"/>
	<linearGradient id="XMLID_4_" gradientUnits="userSpaceOnUse" x1="53.1657" y1="39.3439" x2="53.1657" y2="83.3605">
		<stop  offset="0" style="stop-color:#1B012D"/>
		<stop  offset="1" style="stop-color:#000000"/>
	</linearGradient>
	<path id="XMLID_8_" fill="url(#XMLID_4_)" d="M52.7,60l12.2-19.9l0,0c-1.6-0.4-3.2-0.6-4.9-0.6c-11.3,0-20.5,9.2-20.5,20.5
		c0,8.9,5.7,16.5,13.5,19.3c0.1,0,0.2,0.1,0.3,0.1c0.5,0.1,0.9,0.3,1.3,0.4L66.8,60H52.7z"/>
</g>
</svg>
