<?xml version="1.0" encoding="utf-8"?>
<!-- Generator: Adobe Illustrator 18.1.1, SVG Export Plug-In . SVG Version: 6.00 Build 0)  -->
<svg version="1.1" id="Layer_1"
	 xmlns="http://www.w3.org/2000/svg" xmlns:xlink="http://www.w3.org/1999/xlink" xmlns:a="http://ns.adobe.com/AdobeSVGViewerExtensions/3.0/"
	 x="0px" y="0px" width="120px" height="120.00021px" viewBox="0 0 120 120.00021" enable-background="new 0 0 120 120.00021"
	 xml:space="preserve">
<g>
	<g>
		<defs>
			<path id="SVGID_17_" d="M94.90449,120.00021H25.09554C11.25778,120.00021,0,108.74084,0,94.90446v-69.8101
				C0,11.25687,11.25778,0,25.09554,0h69.80894C108.74222,0,120,11.25687,120,25.09437v69.8101
				C120,108.74084,108.74222,120.00021,94.90449,120.00021z"/>
		</defs>
		<clipPath id="SVGID_2_">
			<use xlink:href="#SVGID_17_"  overflow="visible"/>
		</clipPath>
		<g clip-path="url(#SVGID_2_)">
			<g>
				<g>
					<g>
						<rect x="0.00004" y="0.00011" fill="#53AC61" width="120" height="120"/>
					</g>
				</g>
			</g>
		</g>
	</g>
	<g>
		<g>
			<path fill="#FFFFFF" d="M103.39757,60.43674c0,0-24.60658,31.43346-43.01192,31.43346
				c-18.82352,0-43.43011-31.43346-43.43011-31.43346s24.60658-31.43347,43.43011-31.43347
				C78.77306,29.00328,103.39757,60.43674,103.39757,60.43674z"/>
		</g>
		<g>
			<path fill="#54AC62" d="M78.90702,60.4367c0,10.15759-8.16066,18.40685-18.28241,18.55233
				c4.99761-0.14548,9.00413-4.24056,9.00413-9.27406c0-5.1241-4.15412-9.27828-9.27827-9.27828
				c-5.12412,0-9.27828-4.15418-9.27828-9.27828c0-5.03349,4.00653-9.12857,9.00416-9.27406
				c0.09069-0.00422,0.18346-0.00422,0.27412-0.00422c0.09069,0,0.18348,0,0.27414,0.00422
				C70.74636,42.02985,78.90702,50.27911,78.90702,60.4367z"/>
			<path fill="#272727" d="M69.62874,69.71497c0,5.03349-4.00652,9.12857-9.00413,9.27406
				c-0.09066,0.00216-0.18346,0.00422-0.27414,0.00422c-0.09066,0-0.18343-0.00206-0.27412-0.00422
				c-10.12176-0.14548-18.28244-8.39474-18.28244-18.55233s8.16068-18.40685,18.28244-18.55233
				c-4.99763,0.14549-9.00416,4.24057-9.00416,9.27406c0,5.1241,4.15416,9.27828,9.27828,9.27828
				C65.47462,60.4367,69.62874,64.59087,69.62874,69.71497z"/>
		</g>
	</g>
</g>
</svg>
