<svg xmlns="http://www.w3.org/2000/svg" xmlns:xlink="http://www.w3.org/1999/xlink" width="120" height="120" viewBox="0 0 120 120.00021"><defs><path id="a" d="M94.904 120H25.096C11.258 120 0 108.74 0 94.904v-69.81C0 11.257 11.258 0 25.096 0h69.808C108.742 0 120 11.257 120 25.094v69.81C120 108.74 108.742 120 94.904 120z"/></defs><clipPath id="b"><use xlink:href="#a" overflow="visible"/></clipPath><g clip-path="url(#b)"><path fill="#53AC61" d="M0 0h120v120H0z"/></g><path fill="#FFF" d="M103.398 60.437S78.79 91.87 60.386 91.87c-18.824 0-43.43-31.433-43.43-31.433s24.606-31.434 43.43-31.434c18.387 0 43.012 31.434 43.012 31.434z"/><path fill="#54AC62" d="M78.907 60.437c0 10.157-8.16 18.407-18.282 18.552 4.997-.147 9.004-4.243 9.004-9.276 0-5.124-4.156-9.278-9.28-9.278-5.125 0-9.28-4.154-9.28-9.28 0-5.032 4.008-9.127 9.005-9.273.09-.004.184-.004.274-.004.09 0 .183 0 .274.003 10.12.146 18.282 8.395 18.282 18.553z"/><path fill="#272727" d="M69.63 69.715c0 5.033-4.008 9.13-9.005 9.274l-.275.002c-.09 0-.183-.002-.274-.004-10.12-.146-18.282-8.396-18.282-18.553s8.16-18.407 18.282-18.553c-4.997.146-9.004 4.24-9.004 9.274 0 5.125 4.154 9.28 9.278 9.28 5.125 0 9.28 4.153 9.28 9.277z"/></svg>