<svg xmlns="http://www.w3.org/2000/svg" width="120" height="120" viewBox="0 0 120 120"><linearGradient id="a" gradientUnits="userSpaceOnUse" x1="60" y1="120" x2="60"><stop offset="0"/><stop offset="1" stop-color="#1B012D"/></linearGradient><path fill="url(#a)" d="M0 0h120v120H0z"/><path fill="#FFF" d="M102.5 60S82.6 90.9 60.2 90.9C37.7 90.9 17.5 60 17.5 60s20.2-30.9 42.7-30.9c22.1 0 42.3 30.9 42.3 30.9z"/><linearGradient id="b" gradientUnits="userSpaceOnUse" x1="66.815" y1="78.885" x2="66.414" y2="41.117"><stop offset="0" stop-color="#1FB45B"/><stop offset=".009" stop-color="#20B55B"/><stop offset=".474" stop-color="#29BF66"/><stop offset="1" stop-color="#2CC369"/></linearGradient><path fill="url(#b)" d="M66.5 40.5c-.1 0-.1 0 0 0-.5-.2-1-.3-1.5-.4L52.7 60h14.1L54.7 79.8c1.7.5 3.5.7 5.3.7 11.3 0 20.5-9.2 20.5-20.5 0-9.1-5.9-16.8-14-19.5z"/><linearGradient id="c" gradientUnits="userSpaceOnUse" x1="53.166" y1="39.344" x2="53.166" y2="83.361"><stop offset="0" stop-color="#1B012D"/><stop offset="1"/></linearGradient><path fill="url(#c)" d="M52.7 60l12.2-19.9c-1.6-.4-3.2-.6-4.9-.6-11.3 0-20.5 9.2-20.5 20.5 0 8.9 5.7 16.5 13.5 19.3.1 0 .2.1.3.1.5.1.9.3 1.3.4L66.8 60H52.7z"/></svg>
