<!-- Generator: Adobe Illustrator 18.0.0, SVG Export Plug-In  -->
<svg version="1.1"
	 xmlns="http://www.w3.org/2000/svg" xmlns:xlink="http://www.w3.org/1999/xlink" xmlns:a="http://ns.adobe.com/AdobeSVGViewerExtensions/3.0/"
	 x="0px" y="0px" width="751px" height="751px" viewBox="-216.5 1724.459 751 751"
	 style="enable-background:new -216.5 1724.459 751 751;" xml:space="preserve">
<defs>
	
		<pattern  x="-32" y="-955.959" width="750" height="750" patternUnits="userSpaceOnUse" id="coloured_pattern" viewBox="0 -750 750 750" style="overflow:visible;">
		<g>
			<polygon style="fill:none;" points="0,-750 750,-750 750,0 0,0 			"/>
			<g>
				<polygon id="XMLID_181_" style="fill:#FEC009;" points="495.667,-603.833 494.167,-602.333 492.667,-603.833 494.167,-605.333 
									"/>
				<polygon id="XMLID_180_" style="fill:#B832D1;" points="644.179,-409.009 643.188,-408 642.179,-408.991 643.17,-410 				"/>
				<polygon id="XMLID_179_" style="fill:#1FB65C;" points="125.172,-674.088 123.672,-672.588 122.173,-674.088 123.672,-675.588 
									"/>
				<polygon id="XMLID_178_" style="fill:#1FB65C;" points="323.678,-4.997 322.178,-3.497 320.678,-4.997 322.178,-6.497 				"/>
				<polygon id="XMLID_177_" style="fill:#1FB65C;" points="178.166,-525 176.667,-523.5 175.167,-525 176.667,-526.5 				"/>
				<polygon id="XMLID_176_" style="fill:#433CC3;" points="376.5,-291.333 375,-289.833 373.5,-291.333 375,-292.833 				"/>
				<polygon id="XMLID_175_" style="fill:#433CC3;" points="744.833,-93.403 743.333,-91.903 741.834,-93.403 743.333,-94.903 				
					"/>
				<polygon id="XMLID_173_" style="fill:#433CC3;" points="41.499,-521 40,-519.5 38.5,-521 40,-522.5 				"/>
				<polygon id="XMLID_172_" style="fill:#107DC9;" points="529,-500.333 527,-498.333 525.001,-500.333 527,-502.333 				"/>
				<polygon id="XMLID_171_" style="fill:#107DC9;" points="49.171,-719.095 47.171,-717.095 45.172,-719.095 47.171,-721.094 				
					"/>
				<polygon id="XMLID_168_" style="fill:#E22F1F;" points="647.84,-666.837 647.09,-666.087 646.34,-666.837 647.09,-667.587 				
					"/>
				<polygon id="XMLID_167_" style="fill:#1FB65C;" points="97.008,-329.831 96.008,-328.831 95.008,-329.831 96.008,-330.83 				
					"/>
				<polygon id="XMLID_165_" style="fill:#FEC009;" points="247.251,-286.744 245.752,-285.244 244.252,-286.744 245.752,-288.244 
									"/>
				<polygon id="XMLID_164_" style="fill:#F5572B;" points="86.58,-130.996 85.166,-129.582 83.752,-130.996 85.166,-132.41 				"/>
				<polygon id="XMLID_163_" style="fill:#F5572B;" points="497.081,-312 495.667,-310.586 494.253,-312 495.667,-313.414 				"/>
				<polygon id="XMLID_162_" style="fill:#F5572B;" points="262.752,-713.586 261.338,-712.172 259.924,-713.586 261.338,-715 				
					"/>
				<polygon id="XMLID_161_" style="opacity:0.88;fill:#F5572B;enable-background:new    ;" points="202.5,-686 202,-685.5 
					201.5,-686 202,-686.5 				"/>
				<polygon id="XMLID_160_" style="fill:#FEC009;" points="744.833,-154.833 744.333,-154.334 743.833,-154.833 744.333,-155.333 
									"/>
				<polygon id="XMLID_159_" style="fill:#FEC009;" points="740.45,-699.5 739.5,-698.55 738.55,-699.5 739.5,-700.45 				"/>
				<polygon id="XMLID_158_" style="opacity:0.88;fill:#FEC009;" points="161.037,-419.985 160.087,-419.035 159.137,-419.985 
					160.087,-420.935 				"/>
				<polygon id="XMLID_157_" style="fill:#E22F1F;" points="6.617,-638.093 5.667,-637.143 4.717,-638.093 5.667,-639.043 				"/>
				<polygon id="XMLID_156_" style="fill:#B832D1;" points="3.5,-405.5 3,-405 2.5,-405.5 3,-406 				"/>
				<polygon id="XMLID_155_" style="fill:#F5572B;" points="566.173,-117.155 565.173,-116.156 564.173,-117.155 565.173,-118.155 
									"/>
				<polygon id="XMLID_154_" style="fill:#B832D1;" points="143.628,-41.27 142.737,-40.379 141.728,-41.388 142.618,-42.279 				
					"/>
				<polygon id="XMLID_152_" style="fill:#B832D1;" points="645.429,-255.834 643.179,-253.584 640.929,-255.834 643.179,-258.084 
									"/>
				<polygon id="XMLID_151_" style="fill:#433CC3;" points="338.345,-621.655 336.845,-620.156 335.345,-621.655 336.845,-623.155 
									"/>
				<polygon id="XMLID_145_" style="fill:#E22F1F;" points="360.667,-475.833 359.667,-474.833 358.667,-475.833 359.667,-476.833 
									"/>
				<polygon id="XMLID_144_" style="fill:#1FB65C;" points="453.678,-194.332 451.698,-192.352 449.719,-194.332 451.698,-196.312 
									"/>
			</g>
			<polygon id="XMLID_143_" style="fill:#B832D1;" points="470.418,-721.988 469.527,-721.097 468.518,-722.106 469.409,-722.997 
							"/>
			<polygon id="XMLID_142_" style="fill:#B832D1;" points="574.466,-12.274 573.576,-11.383 572.566,-12.392 573.457,-13.283 			"/>
			<polygon style="fill:none;" points="750,0 0,0 0,-750 750,-750 			"/>
		</g>
	</pattern>
</defs>
<g id="CDOT_1_">
	<g>
		<polygon id="XMLID_31_" style="fill:#FEC009;stroke:url(#coloured_pattern);stroke-miterlimit:10;" points="496.167,146.667 
			494.667,148.166 493.167,146.667 494.667,145.167 		"/>
		<polygon id="XMLID_30_" style="fill:#B832D1;stroke:url(#coloured_pattern);stroke-miterlimit:10;" points="644.679,341.491 
			643.688,342.5 642.679,341.509 643.67,340.5 		"/>
		<polygon id="XMLID_29_" style="fill:#1FB65C;stroke:url(#coloured_pattern);stroke-miterlimit:10;" points="125.672,76.412 
			124.172,77.912 122.673,76.412 124.172,74.912 		"/>
		<polygon id="XMLID_28_" style="fill:#1FB65C;stroke:url(#coloured_pattern);stroke-miterlimit:10;" points="324.178,745.503 
			322.678,747.003 321.178,745.503 322.678,744.003 		"/>
		<polygon id="XMLID_27_" style="fill:#1FB65C;stroke:url(#coloured_pattern);stroke-miterlimit:10;" points="178.666,225.5 
			177.167,227 175.667,225.5 177.167,224 		"/>
		<polygon id="XMLID_26_" style="fill:#433CC3;stroke:url(#coloured_pattern);stroke-miterlimit:10;" points="377,459.167 
			375.5,460.667 374,459.167 375.5,457.667 		"/>
		<polygon id="XMLID_25_" style="fill:#433CC3;stroke:url(#coloured_pattern);stroke-miterlimit:10;" points="745.333,657.097 
			743.833,658.597 742.334,657.097 743.833,655.597 		"/>
		<polygon id="XMLID_24_" style="fill:#433CC3;stroke:url(#coloured_pattern);stroke-miterlimit:10;" points="41.999,229.5 
			40.5,231 39,229.5 40.5,228 		"/>
		<polygon id="XMLID_23_" style="fill:#107DC9;stroke:url(#coloured_pattern);stroke-miterlimit:10;" points="529.5,250.167 
			527.5,252.167 525.501,250.167 527.5,248.167 		"/>
		<polygon id="XMLID_22_" style="fill:#107DC9;stroke:url(#coloured_pattern);stroke-miterlimit:10;" points="49.671,31.405 
			47.671,33.405 45.672,31.405 47.671,29.406 		"/>
		<polygon id="XMLID_20_" style="fill:#E22F1F;stroke:url(#coloured_pattern);stroke-miterlimit:10;" points="648.34,83.663 
			647.59,84.413 646.84,83.663 647.59,82.913 		"/>
		<polygon id="XMLID_19_" style="fill:#1FB65C;stroke:url(#coloured_pattern);stroke-miterlimit:10;" points="97.508,420.669 
			96.508,421.669 95.508,420.669 96.508,419.67 		"/>
		<polygon id="XMLID_18_" style="fill:#FEC009;stroke:url(#coloured_pattern);stroke-miterlimit:10;" points="247.751,463.756 
			246.252,465.256 244.752,463.756 246.252,462.256 		"/>
		<polygon id="XMLID_17_" style="fill:#F5572B;stroke:url(#coloured_pattern);stroke-miterlimit:10;" points="87.08,619.504 
			85.666,620.918 84.252,619.504 85.666,618.09 		"/>
		<polygon id="XMLID_16_" style="fill:#F5572B;stroke:url(#coloured_pattern);stroke-miterlimit:10;" points="497.581,438.5 
			496.167,439.914 494.753,438.5 496.167,437.086 		"/>
		<polygon id="XMLID_15_" style="fill:#F5572B;stroke:url(#coloured_pattern);stroke-miterlimit:10;" points="263.252,36.914 
			261.838,38.328 260.424,36.914 261.838,35.5 		"/>
		
			<polygon id="XMLID_14_" style="opacity:0.88;fill:#F5572B;stroke:url(#coloured_pattern);stroke-miterlimit:10;enable-background:new    ;" points="
			203,64.5 202.5,65 202,64.5 202.5,64 		"/>
		<polygon id="XMLID_13_" style="fill:#FEC009;stroke:url(#coloured_pattern);stroke-miterlimit:10;" points="745.333,595.667 
			744.833,596.167 744.333,595.667 744.833,595.167 		"/>
		<polygon id="XMLID_12_" style="fill:#FEC009;stroke:url(#coloured_pattern);stroke-miterlimit:10;" points="740.95,51 740,51.95 
			739.05,51 740,50.05 		"/>
		<polygon id="XMLID_11_" style="opacity:0.88;fill:#FEC009;stroke:url(#coloured_pattern);stroke-miterlimit:10;" points="
			161.537,330.515 160.587,331.465 159.637,330.515 160.587,329.565 		"/>
		<polygon id="XMLID_10_" style="fill:#E22F1F;stroke:url(#coloured_pattern);stroke-miterlimit:10;" points="7.117,112.407 
			6.167,113.357 5.217,112.407 6.167,111.457 		"/>
		<polygon id="XMLID_9_" style="fill:#B832D1;stroke:url(#coloured_pattern);stroke-miterlimit:10;" points="4,345 3.5,345.5 3,345 
			3.5,344.5 		"/>
		<polygon id="XMLID_8_" style="fill:#F5572B;stroke:url(#coloured_pattern);stroke-miterlimit:10;" points="566.673,633.345 
			565.673,634.344 564.673,633.345 565.673,632.345 		"/>
		<polygon id="XMLID_7_" style="fill:#B832D1;stroke:url(#coloured_pattern);stroke-miterlimit:10;" points="144.128,709.23 
			143.237,710.121 142.228,709.112 143.118,708.221 		"/>
		<polygon id="XMLID_6_" style="fill:#B832D1;stroke:url(#coloured_pattern);stroke-miterlimit:10;" points="645.929,494.666 
			643.679,496.916 641.429,494.666 643.679,492.416 		"/>
		<polygon id="XMLID_5_" style="fill:#433CC3;stroke:url(#coloured_pattern);stroke-miterlimit:10;" points="338.845,128.845 
			337.345,130.344 335.845,128.845 337.345,127.345 		"/>
		<polygon id="XMLID_4_" style="fill:#E22F1F;stroke:url(#coloured_pattern);stroke-miterlimit:10;" points="361.167,274.667 
			360.167,275.667 359.167,274.667 360.167,273.667 		"/>
		<polygon id="XMLID_3_" style="fill:#1FB65C;stroke:url(#coloured_pattern);stroke-miterlimit:10;" points="454.178,556.168 
			452.198,558.148 450.219,556.168 452.198,554.188 		"/>
	</g>
	<polygon id="XMLID_2_" style="fill:#B832D1;stroke:url(#coloured_pattern);stroke-miterlimit:10;" points="470.918,28.512 
		470.027,29.403 469.018,28.394 469.909,27.503 	"/>
	<polygon id="XMLID_1_" style="fill:#B832D1;stroke:url(#coloured_pattern);stroke-miterlimit:10;" points="574.966,738.226 
		574.076,739.117 573.066,738.108 573.957,737.217 	"/>
	<rect x="0.5" y="0.5" style="fill:none;stroke:url(#coloured_pattern);stroke-miterlimit:10;" width="750" height="750"/>
</g>
</svg>
