<!-- Generator: Adobe Illustrator 18.0.0, SVG Export Plug-In  -->
<svg version="1.1"
	 xmlns="http://www.w3.org/2000/svg" xmlns:xlink="http://www.w3.org/1999/xlink" xmlns:a="http://ns.adobe.com/AdobeSVGViewerExtensions/3.0/"
	 x="0px" y="0px" width="750px" height="750px" viewBox="1445.833 1724.459 750 750"
	 style="enable-background:new 1445.833 1724.459 750 750;" xml:space="preserve">
<defs>
	
		<pattern  x="-1694.833" y="-956.459" width="750" height="750" patternUnits="userSpaceOnUse" id="tiny_white_dots" viewBox="0 -750 750 750" style="overflow:visible;">
		<g>
			<polygon style="fill:none;" points="0,-750 750,-750 750,0 0,0 			"/>
			<g>
				<path id="XMLID_690_" style="opacity:0.5;fill:#FFFFFF;enable-background:new    ;" d="M372.167-16.333
					c0.276,0,0.5,0.224,0.5,0.5s-0.224,0.5-0.5,0.5s-0.5-0.224-0.5-0.5S371.891-16.333,372.167-16.333z"/>
				<path id="XMLID_689_" style="opacity:0.5;fill:#FFFFFF;enable-background:new    ;" d="M408.167-234.333
					c0.276,0,0.5,0.224,0.5,0.5s-0.224,0.5-0.5,0.5s-0.5-0.224-0.5-0.5S407.891-234.333,408.167-234.333z"/>
				<path id="XMLID_688_" style="opacity:0.5;fill:#FFFFFF;enable-background:new    ;" d="M243.667-82.959
					c0.276,0,0.5,0.224,0.5,0.5s-0.224,0.5-0.5,0.5s-0.5-0.224-0.5-0.5S243.39-82.959,243.667-82.959z"/>
				<path id="XMLID_687_" style="opacity:0.25;fill:#FFFFFF;enable-background:new    ;" d="M137.667-210.333c0.552,0,1,0.448,1,1
					s-0.448,1-1,1s-1-0.448-1-1S137.115-210.333,137.667-210.333z"/>
				<path id="XMLID_686_" style="opacity:0.25;fill:#FFFFFF;enable-background:new    ;" d="M6.667-75c0.552,0,1,0.448,1,1
					s-0.448,1-1,1s-1-0.448-1-1S6.114-75,6.667-75z"/>
				<path id="XMLID_685_" style="opacity:0.25;fill:#FFFFFF;enable-background:new    ;" d="M722-211.833c0.276,0,0.5,0.224,0.5,0.5
					s-0.224,0.5-0.5,0.5s-0.5-0.224-0.5-0.5S721.724-211.833,722-211.833z"/>
				<path id="XMLID_684_" style="opacity:0.25;fill:#FFFFFF;enable-background:new    ;" d="M454.167-25.333
					c0.276,0,0.5,0.224,0.5,0.5s-0.224,0.5-0.5,0.5s-0.5-0.224-0.5-0.5S453.891-25.333,454.167-25.333z"/>
				<path id="XMLID_683_" style="opacity:0.25;fill:#FFFFFF;enable-background:new    ;" d="M513.667-209.833
					c0.276,0,0.5,0.224,0.5,0.5s-0.224,0.5-0.5,0.5s-0.5-0.224-0.5-0.5S513.391-209.833,513.667-209.833z"/>
				<path id="XMLID_682_" style="opacity:0.25;fill:#FFFFFF;enable-background:new    ;" d="M534.5-250.5c0.828,0,1.5,0.672,1.5,1.5
					s-0.672,1.5-1.5,1.5s-1.5-0.672-1.5-1.5S533.672-250.5,534.5-250.5z"/>
				<path id="XMLID_681_" style="opacity:0.25;fill:#FFFFFF;enable-background:new    ;" d="M375-467.935c0.828,0,1.5,0.672,1.5,1.5
					s-0.672,1.5-1.5,1.5s-1.5-0.672-1.5-1.5S374.172-467.935,375-467.935z"/>
				<path id="XMLID_680_" style="opacity:0.25;fill:#FFFFFF;enable-background:new    ;" d="M129.167-687.5
					c0.828,0,1.5,0.672,1.5,1.5s-0.672,1.5-1.5,1.5s-1.5-0.672-1.5-1.5S128.338-687.5,129.167-687.5z"/>
				<path id="XMLID_679_" style="opacity:0.25;fill:#FFFFFF;enable-background:new    ;" d="M382.167-641.593
					c0.828,0,1.5,0.672,1.5,1.5s-0.672,1.5-1.5,1.5c-0.828,0-1.5-0.672-1.5-1.5S381.338-641.593,382.167-641.593z"/>
				<path id="XMLID_678_" style="opacity:0.25;fill:#FFFFFF;enable-background:new    ;" d="M89.167-12.333
					c0.276,0,0.5,0.224,0.5,0.5s-0.224,0.5-0.5,0.5s-0.5-0.224-0.5-0.5S88.891-12.333,89.167-12.333z"/>
				<path id="XMLID_677_" style="opacity:0.25;fill:#FFFFFF;enable-background:new    ;" d="M190-19.833c0.552,0,1,0.448,1,1
					s-0.448,1-1,1s-1-0.448-1-1S189.448-19.833,190-19.833z"/>
				<path id="XMLID_676_" style="opacity:0.25;fill:#FFFFFF;enable-background:new    ;" d="M609-62.653c0.552,0,1,0.448,1,1
					s-0.448,1-1,1s-1-0.448-1-1S608.448-62.653,609-62.653z"/>
				<path id="XMLID_675_" style="opacity:0.75;fill:#FFEFD4;enable-background:new    ;" d="M42.667-12.333c0.552,0,1,0.448,1,1
					s-0.448,1-1,1s-1-0.448-1-1S42.115-12.333,42.667-12.333z"/>
				<path id="XMLID_674_" style="opacity:0.25;fill:#FFFFFF;enable-background:new    ;" d="M325.167-141.333c0.552,0,1,0.448,1,1
					s-0.448,1-1,1s-1-0.448-1-1S324.615-141.333,325.167-141.333z"/>
				<path id="XMLID_673_" style="opacity:0.75;fill:#FFFFFF;enable-background:new    ;" d="M597.167-188.5
					c0.276,0,0.5,0.224,0.5,0.5s-0.224,0.5-0.5,0.5s-0.5-0.224-0.5-0.5S596.891-188.5,597.167-188.5z"/>
				<path id="XMLID_672_" style="fill:#FFFFFF;" d="M263.167-181.333c0.276,0,0.5,0.224,0.5,0.5s-0.224,0.5-0.5,0.5
					s-0.5-0.224-0.5-0.5S262.891-181.333,263.167-181.333z"/>
				<path id="XMLID_671_" style="fill:#FFFFFF;" d="M2.5-339.333c0.276,0,0.5,0.224,0.5,0.5s-0.224,0.5-0.5,0.5s-0.5-0.224-0.5-0.5
					S2.224-339.333,2.5-339.333z"/>
				<path id="XMLID_670_" style="fill:#FFFFFF;" d="M453.667-107.953c0.276,0,0.5,0.224,0.5,0.5c0,0.276-0.224,0.5-0.5,0.5
					s-0.5-0.224-0.5-0.5C453.167-107.729,453.391-107.953,453.667-107.953z"/>
				<path id="XMLID_669_" style="fill:#FFEFD4;" d="M149-99.5c0.276,0,0.5,0.224,0.5,0.5s-0.224,0.5-0.5,0.5s-0.5-0.224-0.5-0.5
					S148.724-99.5,149-99.5z"/>
				<path id="XMLID_668_" style="opacity:0.8;fill:#FFEFD4;" d="M67-73.5c0.276,0,0.5,0.224,0.5,0.5s-0.224,0.5-0.5,0.5
					s-0.5-0.224-0.5-0.5S66.724-73.5,67-73.5z"/>
				<path id="XMLID_667_" style="fill:#FFFFFF;" d="M19.167-278.333c0.276,0,0.5,0.224,0.5,0.5s-0.224,0.5-0.5,0.5
					s-0.5-0.224-0.5-0.5S18.891-278.333,19.167-278.333z"/>
				<path id="XMLID_666_" style="fill:#FFFFFF;" d="M363-277.833c0.276,0,0.5,0.224,0.5,0.5s-0.224,0.5-0.5,0.5s-0.5-0.224-0.5-0.5
					S362.724-277.833,363-277.833z"/>
				<path id="XMLID_665_" style="fill:#FFFFFF;" d="M91.167-239.333c0.276,0,0.5,0.224,0.5,0.5s-0.224,0.5-0.5,0.5
					s-0.5-0.224-0.5-0.5S90.891-239.333,91.167-239.333z"/>
				<path id="XMLID_664_" style="fill:#FFFFFF;" d="M263.667-4.459c0.276,0,0.5,0.224,0.5,0.5s-0.224,0.5-0.5,0.5
					s-0.5-0.224-0.5-0.5S263.391-4.459,263.667-4.459z"/>
				<path id="XMLID_663_" style="fill:#FFFFFF;" d="M513.167-94.153c0.276,0,0.5,0.224,0.5,0.5s-0.224,0.5-0.5,0.5
					s-0.5-0.224-0.5-0.5S512.891-94.153,513.167-94.153z"/>
				<path id="XMLID_662_" style="opacity:0.5;fill:#FFFFFF;enable-background:new    ;" d="M634.167-141.833
					c0.276,0,0.5,0.224,0.5,0.5s-0.224,0.5-0.5,0.5s-0.5-0.224-0.5-0.5S633.891-141.833,634.167-141.833z"/>
				<path id="XMLID_661_" style="opacity:0.5;fill:#FFFFFF;enable-background:new    ;" d="M348.667-89c0.276,0,0.5,0.224,0.5,0.5
					s-0.224,0.5-0.5,0.5s-0.5-0.224-0.5-0.5S348.391-89,348.667-89z"/>
				<path id="XMLID_660_" style="opacity:0.5;fill:#FFFFFF;enable-background:new    ;" d="M711.167-114.333
					c0.276,0,0.5,0.224,0.5,0.5s-0.224,0.5-0.5,0.5s-0.5-0.224-0.5-0.5S710.891-114.333,711.167-114.333z"/>
				<path id="XMLID_659_" style="opacity:0.5;fill:#FFFFFF;enable-background:new    ;" d="M735.667-24.333
					c0.276,0,0.5,0.224,0.5,0.5s-0.224,0.5-0.5,0.5s-0.5-0.224-0.5-0.5S735.391-24.333,735.667-24.333z"/>
				<path id="XMLID_658_" style="opacity:0.5;fill:#FFFFFF;enable-background:new    ;" d="M62.667-140.833
					c0.276,0,0.5,0.224,0.5,0.5s-0.224,0.5-0.5,0.5s-0.5-0.224-0.5-0.5S62.39-140.833,62.667-140.833z"/>
				<path id="XMLID_657_" style="opacity:0.5;fill:#FFFFFF;enable-background:new    ;" d="M142.167-291.333
					c0.276,0,0.5,0.224,0.5,0.5s-0.224,0.5-0.5,0.5s-0.5-0.224-0.5-0.5S141.891-291.333,142.167-291.333z"/>
				<path id="XMLID_656_" style="fill:#FFFFFF;" d="M551-40.459c0.276,0,0.5,0.224,0.5,0.5s-0.224,0.5-0.5,0.5s-0.5-0.224-0.5-0.5
					S550.724-40.459,551-40.459z"/>
				<path id="XMLID_655_" style="fill:#FFFFFF;" d="M13.081-151.409c0.276,0,0.5,0.224,0.5,0.5s-0.224,0.5-0.5,0.5
					s-0.5-0.224-0.5-0.5S12.805-151.409,13.081-151.409z"/>
				<path id="XMLID_654_" style="opacity:0.5;fill:#FFFFFF;enable-background:new    ;" d="M475.5-271.5c0.276,0,0.5,0.224,0.5,0.5
					s-0.224,0.5-0.5,0.5s-0.5-0.224-0.5-0.5S475.224-271.5,475.5-271.5z"/>
				<path id="XMLID_653_" style="opacity:0.5;fill:#FFFFFF;enable-background:new    ;" d="M507.167-144.333
					c0.276,0,0.5,0.224,0.5,0.5s-0.224,0.5-0.5,0.5s-0.5-0.224-0.5-0.5S506.891-144.333,507.167-144.333z"/>
				<path id="XMLID_652_" style="opacity:0.25;fill:#FFFFFF;enable-background:new    ;" d="M656.167-24.833
					c0.276,0,0.5,0.224,0.5,0.5s-0.224,0.5-0.5,0.5s-0.5-0.224-0.5-0.5S655.891-24.833,656.167-24.833z"/>
				<path id="XMLID_651_" style="opacity:0.5;fill:#FFFFFF;enable-background:new    ;" d="M220.167-229.333
					c0.276,0,0.5,0.224,0.5,0.5s-0.224,0.5-0.5,0.5s-0.5-0.224-0.5-0.5S219.891-229.333,220.167-229.333z"/>
				<path id="XMLID_650_" style="opacity:0.5;fill:#FFFFFF;enable-background:new    ;" d="M25-201c0.276,0,0.5,0.224,0.5,0.5
					S25.276-200,25-200s-0.5-0.224-0.5-0.5S24.724-201,25-201z"/>
				<path id="XMLID_649_" style="opacity:0.5;fill:#FFFFFF;enable-background:new    ;" d="M372.667-554.333
					c0.276,0,0.5,0.224,0.5,0.5s-0.224,0.5-0.5,0.5s-0.5-0.224-0.5-0.5S372.391-554.333,372.667-554.333z"/>
				<path id="XMLID_648_" style="opacity:0.25;fill:#FFFFFF;enable-background:new    ;" d="M560-322.5c0.552,0,1,0.448,1,1
					s-0.448,1-1,1s-1-0.448-1-1S559.448-322.5,560-322.5z"/>
				<path id="XMLID_647_" style="opacity:0.25;fill:#FFFFFF;enable-background:new    ;" d="M620-616.333c0.552,0,1,0.448,1,1
					s-0.448,1-1,1s-1-0.448-1-1S619.448-616.333,620-616.333z"/>
				<path id="XMLID_646_" style="opacity:0.25;fill:#FFFFFF;enable-background:new    ;" d="M435.167-678.333c0.552,0,1,0.448,1,1
					s-0.448,1-1,1s-1-0.448-1-1S434.615-678.333,435.167-678.333z"/>
				<path id="XMLID_645_" style="opacity:0.25;fill:#FFFFFF;enable-background:new    ;" d="M320.678-686c0.552,0,1,0.448,1,1
					s-0.448,1-1,1c-0.552,0-1-0.448-1-1S320.126-686,320.678-686z"/>
				<path id="XMLID_644_" style="opacity:0.25;fill:#FFFFFF;enable-background:new    ;" d="M38.5-339.833
					c0.276,0,0.5,0.224,0.5,0.5s-0.224,0.5-0.5,0.5s-0.5-0.224-0.5-0.5S38.224-339.833,38.5-339.833z"/>
				<path id="XMLID_643_" style="opacity:0.25;fill:#FFFFFF;enable-background:new    ;" d="M329.167-420.985c0.552,0,1,0.448,1,1
					s-0.448,1-1,1s-1-0.448-1-1S328.615-420.985,329.167-420.985z"/>
				<path id="XMLID_642_" style="opacity:0.25;fill:#FFFFFF;enable-background:new    ;" d="M156.5-740.833c0.552,0,1,0.448,1,1
					s-0.448,1-1,1s-1-0.448-1-1S155.948-740.833,156.5-740.833z"/>
				<path id="XMLID_641_" style="opacity:0.25;fill:#FFFFFF;enable-background:new    ;" d="M231.167-368.333c0.552,0,1,0.448,1,1
					s-0.448,1-1,1s-1-0.448-1-1S230.615-368.333,231.167-368.333z"/>
				<path id="XMLID_640_" style="opacity:0.35;fill:#FFEFD4;enable-background:new    ;" d="M676.667-551.5
					c0.828,0,1.5,0.672,1.5,1.5s-0.672,1.5-1.5,1.5s-1.5-0.672-1.5-1.5S675.839-551.5,676.667-551.5z"/>
				<path id="XMLID_639_" style="opacity:0.25;fill:#FFFFFF;enable-background:new    ;" d="M552-579c0.552,0,1,0.448,1,1
					s-0.448,1-1,1s-1-0.448-1-1S551.448-579,552-579z"/>
				<path id="XMLID_638_" style="opacity:0.25;fill:#FFFFFF;enable-background:new    ;" d="M117-494.333c0.552,0,1,0.448,1,1
					s-0.448,1-1,1s-1-0.448-1-1S116.448-494.333,117-494.333z"/>
				<path id="XMLID_637_" style="fill:#FFFFFF;" d="M671.667-476.333c0.276,0,0.5,0.224,0.5,0.5s-0.224,0.5-0.5,0.5
					s-0.5-0.224-0.5-0.5S671.391-476.333,671.667-476.333z"/>
				<path id="XMLID_636_" style="fill:#FFFFFF;" d="M232.167-551c0.276,0,0.5,0.224,0.5,0.5s-0.224,0.5-0.5,0.5s-0.5-0.224-0.5-0.5
					S231.891-551,232.167-551z"/>
				<path id="XMLID_635_" style="fill:#FFFFFF;" d="M584.5-438.5c0.276,0,0.5,0.224,0.5,0.5s-0.224,0.5-0.5,0.5s-0.5-0.224-0.5-0.5
					S584.224-438.5,584.5-438.5z"/>
				<path id="XMLID_634_" style="fill:#FFFFFF;" d="M560-723.657c0.276,0,0.5,0.224,0.5,0.5s-0.224,0.5-0.5,0.5s-0.5-0.224-0.5-0.5
					S559.724-723.657,560-723.657z"/>
				<path id="XMLID_633_" style="fill:#FFFFFF;" d="M711.667-282.333c0.276,0,0.5,0.224,0.5,0.5s-0.224,0.5-0.5,0.5
					s-0.5-0.224-0.5-0.5S711.391-282.333,711.667-282.333z"/>
				<path id="XMLID_632_" style="fill:#FFFFFF;" d="M359.167-352.042c0.276,0,0.5,0.224,0.5,0.5s-0.224,0.5-0.5,0.5
					s-0.5-0.224-0.5-0.5S358.891-352.042,359.167-352.042z"/>
				<path id="XMLID_631_" style="fill:#FFFFFF;" d="M272-734.5c0.276,0,0.5,0.224,0.5,0.5c0,0.276-0.224,0.5-0.5,0.5
					s-0.5-0.224-0.5-0.5C271.5-734.276,271.724-734.5,272-734.5z"/>
				<path id="XMLID_630_" style="fill:#FFEFD4;" d="M215-620.656c0.276,0,0.5,0.224,0.5,0.5c0,0.276-0.224,0.5-0.5,0.5
					s-0.5-0.224-0.5-0.5C214.5-620.432,214.724-620.656,215-620.656z"/>
				<path id="XMLID_629_" style="fill:#FFFFFF;" d="M662.5-322.5c0.276,0,0.5,0.224,0.5,0.5s-0.224,0.5-0.5,0.5s-0.5-0.224-0.5-0.5
					S662.224-322.5,662.5-322.5z"/>
				<path id="XMLID_628_" style="fill:#FFFFFF;" d="M559-623.655c0.276,0,0.5,0.224,0.5,0.5s-0.224,0.5-0.5,0.5s-0.5-0.224-0.5-0.5
					S558.724-623.655,559-623.655z"/>
				<path id="XMLID_627_" style="fill:#FFFFFF;" d="M104.173-648.426c0.276,0,0.5,0.224,0.5,0.5s-0.224,0.5-0.5,0.5
					s-0.5-0.224-0.5-0.5S103.897-648.426,104.173-648.426z"/>
				<path id="XMLID_626_" style="fill:#FFFFFF;" d="M743.833-438c0.276,0,0.5,0.224,0.5,0.5s-0.224,0.5-0.5,0.5s-0.5-0.224-0.5-0.5
					S743.557-438,743.833-438z"/>
				<path id="XMLID_625_" style="fill:#FFFFFF;" d="M429.5-426.333c0.276,0,0.5,0.224,0.5,0.5s-0.224,0.5-0.5,0.5
					s-0.5-0.224-0.5-0.5S429.224-426.333,429.5-426.333z"/>
				<path id="XMLID_624_" style="fill:#FFFFFF;" d="M257-482c0.276,0,0.5,0.224,0.5,0.5s-0.224,0.5-0.5,0.5s-0.5-0.224-0.5-0.5
					S256.724-482,257-482z"/>
				<path id="XMLID_623_" style="opacity:0.5;fill:#FFFFFF;enable-background:new    ;" d="M174.667-458.233
					c0.497,0,0.9,0.403,0.9,0.9s-0.403,0.9-0.9,0.9s-0.9-0.403-0.9-0.9S174.17-458.233,174.667-458.233z"/>
				<path id="XMLID_622_" style="opacity:0.5;fill:#FFFFFF;enable-background:new    ;" d="M49.171-458.333
					c0.276,0,0.5,0.224,0.5,0.5s-0.224,0.5-0.5,0.5s-0.5-0.224-0.5-0.5S48.895-458.333,49.171-458.333z"/>
				<path id="XMLID_621_" style="opacity:0.5;fill:#FFFFFF;enable-background:new    ;" d="M731-521c0.276,0,0.5,0.224,0.5,0.5
					s-0.224,0.5-0.5,0.5s-0.5-0.224-0.5-0.5S730.724-521,731-521z"/>
				<path id="XMLID_620_" style="opacity:0.5;fill:#FFFFFF;enable-background:new    ;" d="M602.667-279.333
					c0.276,0,0.5,0.224,0.5,0.5s-0.224,0.5-0.5,0.5s-0.5-0.224-0.5-0.5S602.391-279.333,602.667-279.333z"/>
				<path id="XMLID_619_" style="fill:#FFFFFF;" d="M494.167-509.459c0.276,0,0.5,0.224,0.5,0.5s-0.224,0.5-0.5,0.5
					s-0.5-0.224-0.5-0.5S493.891-509.459,494.167-509.459z"/>
				<path id="XMLID_618_" style="opacity:0.5;fill:#FFFFFF;enable-background:new    ;" d="M282.667-284.333
					c0.276,0,0.5,0.224,0.5,0.5s-0.224,0.5-0.5,0.5s-0.5-0.224-0.5-0.5S282.391-284.333,282.667-284.333z"/>
				<path id="XMLID_617_" style="opacity:0.5;fill:#FFFFFF;enable-background:new    ;" d="M237.667-426.583
					c0.414,0,0.75,0.336,0.75,0.75s-0.336,0.75-0.75,0.75s-0.75-0.336-0.75-0.75S237.253-426.583,237.667-426.583z"/>
				<path id="XMLID_616_" style="opacity:0.25;fill:#FFFFFF;enable-background:new    ;" d="M46.667-695.333
					c0.276,0,0.5,0.224,0.5,0.5c0,0.276-0.224,0.5-0.5,0.5s-0.5-0.224-0.5-0.5C46.167-695.109,46.391-695.333,46.667-695.333z"/>
				<path id="XMLID_615_" style="opacity:0.25;fill:#FFFFFF;enable-background:new    ;" d="M156-639.093c0.276,0,0.5,0.224,0.5,0.5
					c0,0.276-0.224,0.5-0.5,0.5s-0.5-0.224-0.5-0.5C155.5-638.869,155.724-639.093,156-639.093z"/>
				<path id="XMLID_614_" style="opacity:0.25;fill:#FFFFFF;enable-background:new    ;" d="M74-546.333c0.276,0,0.5,0.224,0.5,0.5
					s-0.224,0.5-0.5,0.5s-0.5-0.224-0.5-0.5S73.724-546.333,74-546.333z"/>
				<path id="XMLID_613_" style="opacity:0.25;fill:#FFFFFF;enable-background:new    ;" d="M467.667-607.333
					c0.276,0,0.5,0.224,0.5,0.5c0,0.276-0.224,0.5-0.5,0.5s-0.5-0.224-0.5-0.5C467.167-607.109,467.391-607.333,467.667-607.333z"/>
				<path id="XMLID_612_" style="opacity:0.25;fill:#FFFFFF;enable-background:new    ;" d="M722.5-699.5c0.276,0,0.5,0.224,0.5,0.5
					c0,0.276-0.224,0.5-0.5,0.5s-0.5-0.224-0.5-0.5C722-699.276,722.224-699.5,722.5-699.5z"/>
				<path id="XMLID_611_" style="opacity:0.5;fill:#FFFFFF;enable-background:new    ;" d="M595.167-692.833
					c0.276,0,0.5,0.224,0.5,0.5c0,0.276-0.224,0.5-0.5,0.5s-0.5-0.224-0.5-0.5C594.667-692.609,594.891-692.833,595.167-692.833z"/>
				<path id="XMLID_610_" style="opacity:0.5;fill:#FFFFFF;enable-background:new    ;" d="M717-739.833c0.276,0,0.5,0.224,0.5,0.5
					c0,0.276-0.224,0.5-0.5,0.5s-0.5-0.224-0.5-0.5C716.5-739.609,716.724-739.833,717-739.833z"/>
				<path id="XMLID_609_" style="opacity:0.5;fill:#FFFFFF;enable-background:new    ;" d="M4.717-734c0.276,0,0.5,0.224,0.5,0.5
					c0,0.276-0.224,0.5-0.5,0.5s-0.5-0.224-0.5-0.5C4.217-733.776,4.441-734,4.717-734z"/>
				<path id="XMLID_608_" style="opacity:0.5;fill:#FFFFFF;enable-background:new    ;" d="M552.5-369.583
					c0.276,0,0.5,0.224,0.5,0.5s-0.224,0.5-0.5,0.5s-0.5-0.224-0.5-0.5S552.224-369.583,552.5-369.583z"/>
				<path id="XMLID_607_" style="opacity:0.7;fill:#FFEFD4;" d="M705.167-655.459c0.552,0,1,0.448,1,1c0,0.552-0.448,1-1,1
					c-0.552,0-1-0.448-1-1C704.167-655.011,704.614-655.459,705.167-655.459z"/>
				
					<linearGradient id="XMLID_94_" gradientUnits="userSpaceOnUse" x1="1934.5005" y1="-15386.209" x2="1934.5005" y2="-15388.709" gradientTransform="matrix(1 0 0 -1 -1610.8335 -15441.459)">
					<stop  offset="0" style="stop-color:#1B012D"/>
					<stop  offset="1" style="stop-color:#000000"/>
				</linearGradient>
				<path id="XMLID_606_" style="opacity:0.65;fill:url(#XMLID_94_);enable-background:new    ;" d="M323.667-55.25
					c0.69,0,1.25,0.56,1.25,1.25s-0.56,1.25-1.25,1.25s-1.25-0.56-1.25-1.25S322.977-55.25,323.667-55.25z"/>
				<path id="XMLID_605_" style="fill:#FFFFFF;" d="M171.167-167.5c0.276,0,0.5,0.224,0.5,0.5s-0.224,0.5-0.5,0.5
					s-0.5-0.224-0.5-0.5S170.891-167.5,171.167-167.5z"/>
			</g>
			<polygon style="fill:none;" points="0,-750 750,-750 750,0 0,0 			"/>
		</g>
	</pattern>
</defs>
<g id="DOT2_1_">
	<g>
		<g>
			
				<circle id="XMLID_93_" style="opacity:0.5;fill:url(#tiny_white_dots);enable-background:new    ;" cx="372.167" cy="734.167" r="0.5"/>
			
				<circle id="XMLID_92_" style="opacity:0.5;fill:url(#tiny_white_dots);enable-background:new    ;" cx="408.167" cy="516.167" r="0.5"/>
			
				<circle id="XMLID_91_" style="opacity:0.5;fill:url(#tiny_white_dots);enable-background:new    ;" cx="243.667" cy="667.541" r="0.5"/>
			
				<circle id="XMLID_90_" style="opacity:0.25;fill:url(#tiny_white_dots);enable-background:new    ;" cx="137.667" cy="540.667" r="1"/>
			<circle id="XMLID_89_" style="opacity:0.25;fill:url(#tiny_white_dots);enable-background:new    ;" cx="6.667" cy="676" r="1"/>
			
				<circle id="XMLID_88_" style="opacity:0.25;fill:url(#tiny_white_dots);enable-background:new    ;" cx="722" cy="538.667" r="0.5"/>
			
				<circle id="XMLID_87_" style="opacity:0.25;fill:url(#tiny_white_dots);enable-background:new    ;" cx="454.167" cy="725.167" r="0.5"/>
			
				<circle id="XMLID_86_" style="opacity:0.25;fill:url(#tiny_white_dots);enable-background:new    ;" cx="513.667" cy="540.667" r="0.5"/>
			
				<circle id="XMLID_85_" style="opacity:0.25;fill:url(#tiny_white_dots);enable-background:new    ;" cx="534.5" cy="501" r="1.5"/>
			
				<circle id="XMLID_84_" style="opacity:0.25;fill:url(#tiny_white_dots);enable-background:new    ;" cx="375" cy="283.565" r="1.5"/>
			
				<circle id="XMLID_83_" style="opacity:0.25;fill:url(#tiny_white_dots);enable-background:new    ;" cx="129.167" cy="64" r="1.5"/>
			
				<circle id="XMLID_82_" style="opacity:0.25;fill:url(#tiny_white_dots);enable-background:new    ;" cx="382.167" cy="109.907" r="1.5"/>
			
				<circle id="XMLID_81_" style="opacity:0.25;fill:url(#tiny_white_dots);enable-background:new    ;" cx="89.167" cy="738.167" r="0.5"/>
			
				<circle id="XMLID_80_" style="opacity:0.25;fill:url(#tiny_white_dots);enable-background:new    ;" cx="190" cy="731.167" r="1"/>
			
				<circle id="XMLID_72_" style="opacity:0.25;fill:url(#tiny_white_dots);enable-background:new    ;" cx="609" cy="688.347" r="1"/>
			
				<circle id="XMLID_71_" style="opacity:0.75;fill:url(#tiny_white_dots);enable-background:new    ;" cx="42.667" cy="738.667" r="1"/>
			
				<circle id="XMLID_70_" style="opacity:0.25;fill:url(#tiny_white_dots);enable-background:new    ;" cx="325.167" cy="609.667" r="1"/>
			
				<circle id="XMLID_69_" style="opacity:0.75;fill:url(#tiny_white_dots);enable-background:new    ;" cx="597.167" cy="562" r="0.5"/>
			<circle id="XMLID_68_" style="fill:url(#tiny_white_dots);" cx="263.167" cy="569.167" r="0.5"/>
			<circle id="XMLID_67_" style="fill:url(#tiny_white_dots);" cx="2.5" cy="411.167" r="0.5"/>
			<circle id="XMLID_66_" style="fill:url(#tiny_white_dots);" cx="453.667" cy="642.547" r="0.5"/>
			<circle id="XMLID_65_" style="fill:url(#tiny_white_dots);" cx="149" cy="651" r="0.5"/>
			<circle id="XMLID_64_" style="opacity:0.8;fill:url(#tiny_white_dots);" cx="67" cy="677" r="0.5"/>
			<circle id="XMLID_63_" style="fill:url(#tiny_white_dots);" cx="19.167" cy="472.167" r="0.5"/>
			<circle id="XMLID_62_" style="fill:url(#tiny_white_dots);" cx="363" cy="472.667" r="0.5"/>
			<circle id="XMLID_61_" style="fill:url(#tiny_white_dots);" cx="91.167" cy="511.167" r="0.5"/>
			<circle id="XMLID_60_" style="fill:url(#tiny_white_dots);" cx="263.667" cy="746.041" r="0.5"/>
			<circle id="XMLID_59_" style="fill:url(#tiny_white_dots);" cx="513.167" cy="656.347" r="0.5"/>
			
				<circle id="XMLID_58_" style="opacity:0.5;fill:url(#tiny_white_dots);enable-background:new    ;" cx="634.167" cy="608.667" r="0.5"/>
			
				<circle id="XMLID_57_" style="opacity:0.5;fill:url(#tiny_white_dots);enable-background:new    ;" cx="348.667" cy="661.5" r="0.5"/>
			
				<circle id="XMLID_56_" style="opacity:0.5;fill:url(#tiny_white_dots);enable-background:new    ;" cx="711.167" cy="636.167" r="0.5"/>
			
				<circle id="XMLID_55_" style="opacity:0.5;fill:url(#tiny_white_dots);enable-background:new    ;" cx="735.667" cy="726.167" r="0.5"/>
			
				<circle id="XMLID_54_" style="opacity:0.5;fill:url(#tiny_white_dots);enable-background:new    ;" cx="62.667" cy="609.667" r="0.5"/>
			
				<circle id="XMLID_53_" style="opacity:0.5;fill:url(#tiny_white_dots);enable-background:new    ;" cx="142.167" cy="459.167" r="0.5"/>
			<circle id="XMLID_52_" style="fill:url(#tiny_white_dots);" cx="551" cy="710.041" r="0.5"/>
			<circle id="XMLID_51_" style="fill:url(#tiny_white_dots);" cx="13.081" cy="599.091" r="0.5"/>
			
				<circle id="XMLID_50_" style="opacity:0.5;fill:url(#tiny_white_dots);enable-background:new    ;" cx="475.5" cy="479" r="0.5"/>
			
				<circle id="XMLID_49_" style="opacity:0.5;fill:url(#tiny_white_dots);enable-background:new    ;" cx="507.167" cy="606.167" r="0.5"/>
			
				<circle id="XMLID_48_" style="opacity:0.25;fill:url(#tiny_white_dots);enable-background:new    ;" cx="656.167" cy="725.667" r="0.5"/>
			
				<circle id="XMLID_47_" style="opacity:0.5;fill:url(#tiny_white_dots);enable-background:new    ;" cx="220.167" cy="521.167" r="0.5"/>
			<circle id="XMLID_46_" style="opacity:0.5;fill:url(#tiny_white_dots);enable-background:new    ;" cx="25" cy="549.5" r="0.5"/>
			
				<circle id="XMLID_45_" style="opacity:0.5;fill:url(#tiny_white_dots);enable-background:new    ;" cx="372.667" cy="196.167" r="0.5"/>
			<circle id="XMLID_44_" style="opacity:0.25;fill:url(#tiny_white_dots);enable-background:new    ;" cx="560" cy="428.5" r="1"/>
			
				<circle id="XMLID_43_" style="opacity:0.25;fill:url(#tiny_white_dots);enable-background:new    ;" cx="620" cy="134.667" r="1"/>
			
				<circle id="XMLID_42_" style="opacity:0.25;fill:url(#tiny_white_dots);enable-background:new    ;" cx="435.167" cy="72.667" r="1"/>
			
				<circle id="XMLID_41_" style="opacity:0.25;fill:url(#tiny_white_dots);enable-background:new    ;" cx="320.678" cy="65" r="1"/>
			
				<circle id="XMLID_40_" style="opacity:0.25;fill:url(#tiny_white_dots);enable-background:new    ;" cx="38.5" cy="410.667" r="0.5"/>
			
				<circle id="XMLID_39_" style="opacity:0.25;fill:url(#tiny_white_dots);enable-background:new    ;" cx="329.167" cy="330.015" r="1"/>
			
				<circle id="XMLID_38_" style="opacity:0.25;fill:url(#tiny_white_dots);enable-background:new    ;" cx="156.5" cy="10.167" r="1"/>
			
				<circle id="XMLID_37_" style="opacity:0.25;fill:url(#tiny_white_dots);enable-background:new    ;" cx="231.167" cy="382.667" r="1"/>
			
				<circle id="XMLID_36_" style="opacity:0.35;fill:url(#tiny_white_dots);enable-background:new    ;" cx="676.667" cy="200" r="1.5"/>
			<circle id="XMLID_35_" style="opacity:0.25;fill:url(#tiny_white_dots);enable-background:new    ;" cx="552" cy="172" r="1"/>
			
				<circle id="XMLID_34_" style="opacity:0.25;fill:url(#tiny_white_dots);enable-background:new    ;" cx="117" cy="256.667" r="1"/>
			<circle id="XMLID_33_" style="fill:url(#tiny_white_dots);" cx="671.667" cy="274.167" r="0.5"/>
			<circle id="XMLID_32_" style="fill:url(#tiny_white_dots);" cx="232.167" cy="199.5" r="0.5"/>
			<circle id="XMLID_31_" style="fill:url(#tiny_white_dots);" cx="584.5" cy="312" r="0.5"/>
			<circle id="XMLID_30_" style="fill:url(#tiny_white_dots);" cx="560" cy="26.843" r="0.5"/>
			<circle id="XMLID_29_" style="fill:url(#tiny_white_dots);" cx="711.667" cy="468.167" r="0.5"/>
			<circle id="XMLID_28_" style="fill:url(#tiny_white_dots);" cx="359.167" cy="398.458" r="0.5"/>
			<circle id="XMLID_27_" style="fill:url(#tiny_white_dots);" cx="272" cy="16" r="0.5"/>
			<circle id="XMLID_26_" style="fill:url(#tiny_white_dots);" cx="215" cy="129.844" r="0.5"/>
			<circle id="XMLID_25_" style="fill:url(#tiny_white_dots);" cx="662.5" cy="428" r="0.5"/>
			<circle id="XMLID_24_" style="fill:url(#tiny_white_dots);" cx="559" cy="126.845" r="0.5"/>
			<circle id="XMLID_23_" style="fill:url(#tiny_white_dots);" cx="104.173" cy="102.074" r="0.5"/>
			<circle id="XMLID_22_" style="fill:url(#tiny_white_dots);" cx="743.833" cy="312.5" r="0.5"/>
			<circle id="XMLID_21_" style="fill:url(#tiny_white_dots);" cx="429.5" cy="324.167" r="0.5"/>
			<circle id="XMLID_20_" style="fill:url(#tiny_white_dots);" cx="257" cy="268.5" r="0.5"/>
			
				<circle id="XMLID_19_" style="opacity:0.5;fill:url(#tiny_white_dots);enable-background:new    ;" cx="174.667" cy="292.667" r="0.9"/>
			
				<circle id="XMLID_18_" style="opacity:0.5;fill:url(#tiny_white_dots);enable-background:new    ;" cx="49.171" cy="292.167" r="0.5"/>
			
				<circle id="XMLID_17_" style="opacity:0.5;fill:url(#tiny_white_dots);enable-background:new    ;" cx="731" cy="229.5" r="0.5"/>
			
				<circle id="XMLID_16_" style="opacity:0.5;fill:url(#tiny_white_dots);enable-background:new    ;" cx="602.667" cy="471.167" r="0.5"/>
			<circle id="XMLID_15_" style="fill:url(#tiny_white_dots);" cx="494.167" cy="241.041" r="0.5"/>
			
				<circle id="XMLID_14_" style="opacity:0.5;fill:url(#tiny_white_dots);enable-background:new    ;" cx="282.667" cy="466.167" r="0.5"/>
			
				<circle id="XMLID_13_" style="opacity:0.5;fill:url(#tiny_white_dots);enable-background:new    ;" cx="237.667" cy="324.167" r="0.75"/>
			
				<circle id="XMLID_12_" style="opacity:0.25;fill:url(#tiny_white_dots);enable-background:new    ;" cx="46.667" cy="55.167" r="0.5"/>
			
				<circle id="XMLID_11_" style="opacity:0.25;fill:url(#tiny_white_dots);enable-background:new    ;" cx="156" cy="111.407" r="0.5"/>
			
				<circle id="XMLID_10_" style="opacity:0.25;fill:url(#tiny_white_dots);enable-background:new    ;" cx="74" cy="204.167" r="0.5"/>
			
				<circle id="XMLID_9_" style="opacity:0.25;fill:url(#tiny_white_dots);enable-background:new    ;" cx="467.667" cy="143.167" r="0.5"/>
			<circle id="XMLID_8_" style="opacity:0.25;fill:url(#tiny_white_dots);enable-background:new    ;" cx="722.5" cy="51" r="0.5"/>
			
				<circle id="XMLID_7_" style="opacity:0.5;fill:url(#tiny_white_dots);enable-background:new    ;" cx="595.167" cy="57.667" r="0.5"/>
			
				<circle id="XMLID_6_" style="opacity:0.5;fill:url(#tiny_white_dots);enable-background:new    ;" cx="717" cy="10.667" r="0.5"/>
			
				<circle id="XMLID_5_" style="opacity:0.5;fill:url(#tiny_white_dots);enable-background:new    ;" cx="4.717" cy="16.5" r="0.5"/>
			
				<circle id="XMLID_4_" style="opacity:0.5;fill:url(#tiny_white_dots);enable-background:new    ;" cx="552.5" cy="380.917" r="0.5"/>
			<circle id="XMLID_3_" style="opacity:0.7;fill:url(#tiny_white_dots);" cx="705.167" cy="95.541" r="1"/>
			
				<circle id="XMLID_2_" style="opacity:0.65;fill:url(#tiny_white_dots);enable-background:new    ;" cx="323.667" cy="696" r="1.25"/>
			<circle id="XMLID_1_" style="fill:url(#tiny_white_dots);" cx="171.167" cy="583" r="0.5"/>
		</g>
	</g>
	<rect x="0" y="0" style="fill:url(#tiny_white_dots);" width="750" height="750"/>
</g>
</svg>

